<?xml version="1.0"?>
<svg xmlns="http://www.w3.org/2000/svg" xmlns:xlink="http://www.w3.org/1999/xlink" viewBox="0 0 326.300000 168.000000" width="163.150000mm" height="84.000000mm" version="1.1">
<a xlink:href="qpsk-0x7f8add415880.svg">
<rect x="1.000000" y="1.000000" width="325.300000" height="167.000000" rx="0" ry="0" style="stroke:none;fill:#cccccc;"/>
<rect x="0.000000" y="0.000000" width="325.300000" height="167.000000" rx="0" ry="0" style="stroke:none;fill:#ffffff;"/>
</a>
<text x="10.000000" y="7.000000" font-family="Arial" font-size="7"></text>
<rect x="33.000000" y="73.000000" width="25.800000" height="24.000000" rx="0" ry="0" style="stroke:none;fill:#cccccc;"/>
<rect x="32.000000" y="72.000000" width="25.800000" height="24.000000" rx="0" ry="0" style="stroke:none;fill:#47945E;"/>
<text x="44.900000" y="86.000000" font-family="Arial" font-size="7" text-anchor="middle" fill="#FFFFFF">input</text>
<circle cx="34.000000" cy="74.000000" r="1"/>
<line x1="29.000000" y1="83.000000" x2="32.000000" y2="84.000000"  transform="rotate(0.000000,32.000000,84.000000)" style="stroke: black; stroke-width:0.25;"/>
<line x1="29.000000" y1="85.000000" x2="32.000000" y2="84.000000"  transform="rotate(0.000000,32.000000,84.000000)" style="stroke: black; stroke-width:0.25;"/>
<a xlink:href="size-0x7f8ada733b30.svg">
<rect x="66.800000" y="25.000000" width="25.800000" height="24.000000" rx="0" ry="0" style="stroke:none;fill:#cccccc;"/>
<rect x="65.800000" y="24.000000" width="25.800000" height="24.000000" rx="0" ry="0" style="stroke:none;fill:#003366;"/>
</a>
<a xlink:href="size-0x7f8ada733b30.svg">
<text x="78.700000" y="38.000000" font-family="Arial" font-size="7" text-anchor="middle" fill="#FFFFFF">size</text>
</a>
<circle cx="67.800000" cy="26.000000" r="1"/>
<rect x="67.700000" y="57.000000" width="24.000000" height="24.000000" rx="0" ry="0" style="stroke:none;fill:#cccccc;"/>
<rect x="66.700000" y="56.000000" width="24.000000" height="24.000000" rx="0" ry="0" style="stroke:none;fill:#f44800;"/>
<text x="78.700000" y="70.000000" font-family="Arial" font-size="7" text-anchor="middle" fill="#FFFFFF">4</text>
<circle cx="68.700000" cy="58.000000" r="1"/>
<rect x="108.600000" y="41.000000" width="24.000000" height="24.000000" rx="0" ry="0" style="stroke:none;fill:#cccccc;"/>
<rect x="107.600000" y="40.000000" width="24.000000" height="24.000000" rx="0" ry="0" style="stroke:none;fill:#4B71A1;"/>
<text x="119.600000" y="54.000000" font-family="Arial" font-size="7" text-anchor="middle" fill="#FFFFFF">*</text>
<circle cx="109.600000" cy="42.000000" r="1"/>
<line x1="104.600000" y1="47.000000" x2="107.600000" y2="48.000000"  transform="rotate(0.000000,107.600000,48.000000)" style="stroke: black; stroke-width:0.25;"/>
<line x1="104.600000" y1="49.000000" x2="107.600000" y2="48.000000"  transform="rotate(0.000000,107.600000,48.000000)" style="stroke: black; stroke-width:0.25;"/>
<line x1="104.600000" y1="55.000000" x2="107.600000" y2="56.000000"  transform="rotate(0.000000,107.600000,56.000000)" style="stroke: black; stroke-width:0.25;"/>
<line x1="104.600000" y1="57.000000" x2="107.600000" y2="56.000000"  transform="rotate(0.000000,107.600000,56.000000)" style="stroke: black; stroke-width:0.25;"/>
<a xlink:href="noise-0x7f8add40c200.svg">
<rect x="86.800000" y="89.000000" width="25.800000" height="24.000000" rx="0" ry="0" style="stroke:none;fill:#cccccc;"/>
<rect x="85.800000" y="88.000000" width="25.800000" height="24.000000" rx="0" ry="0" style="stroke:none;fill:#003366;"/>
</a>
<a xlink:href="noise-0x7f8add40c200.svg">
<text x="98.700000" y="102.000000" font-family="Arial" font-size="7" text-anchor="middle" fill="#FFFFFF">noise</text>
</a>
<circle cx="87.800000" cy="90.000000" r="1"/>
<rect x="70.800000" y="121.000000" width="25.800000" height="24.000000" rx="0" ry="0" style="stroke:none;fill:#cccccc;"/>
<rect x="69.800000" y="120.000000" width="25.800000" height="24.000000" rx="0" ry="0" style="stroke:none;fill:#47945E;"/>
<text x="82.700000" y="134.000000" font-family="Arial" font-size="7" text-anchor="middle" fill="#FFFFFF">input</text>
<circle cx="71.800000" cy="122.000000" r="1"/>
<rect x="104.600000" y="121.000000" width="24.000000" height="24.000000" rx="0" ry="0" style="stroke:none;fill:#cccccc;"/>
<rect x="103.600000" y="120.000000" width="24.000000" height="24.000000" rx="0" ry="0" style="stroke:none;fill:#4B71A1;"/>
<text x="115.600000" y="134.000000" font-family="Arial" font-size="7" text-anchor="middle" fill="#FFFFFF">int</text>
<circle cx="105.600000" cy="122.000000" r="1"/>
<line x1="100.600000" y1="131.000000" x2="103.600000" y2="132.000000"  transform="rotate(0.000000,103.600000,132.000000)" style="stroke: black; stroke-width:0.25;"/>
<line x1="100.600000" y1="133.000000" x2="103.600000" y2="132.000000"  transform="rotate(0.000000,103.600000,132.000000)" style="stroke: black; stroke-width:0.25;"/>
<rect x="156.600000" y="73.000000" width="38.700000" height="24.000000" rx="0" ry="0" style="stroke:none;fill:#cccccc;"/>
<rect x="155.600000" y="72.000000" width="38.700000" height="24.000000" rx="0" ry="0" style="stroke:none;fill:#4B71A1;"/>
<text x="174.950000" y="86.000000" font-family="Arial" font-size="7" text-anchor="middle" fill="#FFFFFF">rdtable</text>
<circle cx="157.600000" cy="74.000000" r="1"/>
<line x1="152.600000" y1="75.000000" x2="155.600000" y2="76.000000"  transform="rotate(0.000000,155.600000,76.000000)" style="stroke: black; stroke-width:0.25;"/>
<line x1="152.600000" y1="77.000000" x2="155.600000" y2="76.000000"  transform="rotate(0.000000,155.600000,76.000000)" style="stroke: black; stroke-width:0.25;"/>
<line x1="152.600000" y1="83.000000" x2="155.600000" y2="84.000000"  transform="rotate(0.000000,155.600000,84.000000)" style="stroke: black; stroke-width:0.25;"/>
<line x1="152.600000" y1="85.000000" x2="155.600000" y2="84.000000"  transform="rotate(0.000000,155.600000,84.000000)" style="stroke: black; stroke-width:0.25;"/>
<line x1="152.600000" y1="91.000000" x2="155.600000" y2="92.000000"  transform="rotate(0.000000,155.600000,92.000000)" style="stroke: black; stroke-width:0.25;"/>
<line x1="152.600000" y1="93.000000" x2="155.600000" y2="92.000000"  transform="rotate(0.000000,155.600000,92.000000)" style="stroke: black; stroke-width:0.25;"/>
<rect x="221.300000" y="77.000000" width="24.000000" height="24.000000" rx="0" ry="0" style="stroke:none;fill:#cccccc;"/>
<rect x="220.300000" y="76.000000" width="24.000000" height="24.000000" rx="0" ry="0" style="stroke:none;fill:#f44800;"/>
<text x="232.300000" y="90.000000" font-family="Arial" font-size="7" text-anchor="middle" fill="#FFFFFF">0</text>
<circle cx="222.300000" cy="78.000000" r="1"/>
<line x1="211.300000" y1="67.000000" x2="211.300000" y2="109.000000"  style="stroke: black; stroke-linecap:round; stroke-width:0.25; stroke-dasharray:3,3;"/>
<line x1="211.300000" y1="109.000000" x2="253.300000" y2="109.000000"  style="stroke: black; stroke-linecap:round; stroke-width:0.25; stroke-dasharray:3,3;"/>
<line x1="253.300000" y1="109.000000" x2="253.300000" y2="67.000000"  style="stroke: black; stroke-linecap:round; stroke-width:0.25; stroke-dasharray:3,3;"/>
<line x1="211.300000" y1="67.000000" x2="216.300000" y2="67.000000"  style="stroke: black; stroke-linecap:round; stroke-width:0.25; stroke-dasharray:3,3;"/>
<line x1="245.325000" y1="67.000000" x2="253.300000" y2="67.000000"  style="stroke: black; stroke-linecap:round; stroke-width:0.25; stroke-dasharray:3,3;"/>
<text x="216.300000" y="69.000000" font-family="Arial" font-size="7">ff_taps</text>
<rect x="271.300000" y="73.000000" width="24.000000" height="24.000000" rx="0" ry="0" style="stroke:none;fill:#cccccc;"/>
<rect x="270.300000" y="72.000000" width="24.000000" height="24.000000" rx="0" ry="0" style="stroke:none;fill:#4B71A1;"/>
<text x="282.300000" y="86.000000" font-family="Arial" font-size="7" text-anchor="middle" fill="#FFFFFF">&gt;</text>
<circle cx="272.300000" cy="74.000000" r="1"/>
<line x1="267.300000" y1="79.000000" x2="270.300000" y2="80.000000"  transform="rotate(0.000000,270.300000,80.000000)" style="stroke: black; stroke-width:0.25;"/>
<line x1="267.300000" y1="81.000000" x2="270.300000" y2="80.000000"  transform="rotate(0.000000,270.300000,80.000000)" style="stroke: black; stroke-width:0.25;"/>
<line x1="267.300000" y1="87.000000" x2="270.300000" y2="88.000000"  transform="rotate(0.000000,270.300000,88.000000)" style="stroke: black; stroke-width:0.25;"/>
<line x1="267.300000" y1="89.000000" x2="270.300000" y2="88.000000"  transform="rotate(0.000000,270.300000,88.000000)" style="stroke: black; stroke-width:0.25;"/>
<line x1="15.000000" y1="15.000000" x2="15.000000" y2="153.000000"  style="stroke: black; stroke-linecap:round; stroke-width:0.25; stroke-dasharray:3,3;"/>
<line x1="15.000000" y1="153.000000" x2="311.300000" y2="153.000000"  style="stroke: black; stroke-linecap:round; stroke-width:0.25; stroke-dasharray:3,3;"/>
<line x1="311.300000" y1="153.000000" x2="311.300000" y2="15.000000"  style="stroke: black; stroke-linecap:round; stroke-width:0.25; stroke-dasharray:3,3;"/>
<line x1="15.000000" y1="15.000000" x2="20.000000" y2="15.000000"  style="stroke: black; stroke-linecap:round; stroke-width:0.25; stroke-dasharray:3,3;"/>
<line x1="68.375000" y1="15.000000" x2="311.300000" y2="15.000000"  style="stroke: black; stroke-linecap:round; stroke-width:0.25; stroke-dasharray:3,3;"/>
<text x="20.000000" y="17.000000" font-family="Arial" font-size="7">bitnoisetable</text>
<line x1="313.300000" y1="83.000000" x2="316.300000" y2="84.000000"  transform="rotate(0.000000,316.300000,84.000000)" style="stroke: black; stroke-width:0.25;"/>
<line x1="313.300000" y1="85.000000" x2="316.300000" y2="84.000000"  transform="rotate(0.000000,316.300000,84.000000)" style="stroke: black; stroke-width:0.25;"/>
<line x1="10.000000" y1="84.000000" x2="20.000000" y2="84.000000"  style="stroke:black; stroke-linecap:round; stroke-width:0.25;"/>
<line x1="20.000000" y1="84.000000" x2="24.000000" y2="84.000000"  style="stroke:black; stroke-linecap:round; stroke-width:0.25;"/>
<line x1="24.000000" y1="84.000000" x2="28.000000" y2="84.000000"  style="stroke:black; stroke-linecap:round; stroke-width:0.25;"/>
<line x1="28.000000" y1="84.000000" x2="28.000000" y2="84.000000"  style="stroke:black; stroke-linecap:round; stroke-width:0.25;"/>
<line x1="28.000000" y1="84.000000" x2="32.000000" y2="84.000000"  style="stroke:black; stroke-linecap:round; stroke-width:0.25;"/>
<line x1="90.700000" y1="68.000000" x2="94.700000" y2="68.000000"  style="stroke:black; stroke-linecap:round; stroke-width:0.25;"/>
<line x1="91.600000" y1="36.000000" x2="95.600000" y2="36.000000"  style="stroke:black; stroke-linecap:round; stroke-width:0.25;"/>
<line x1="94.700000" y1="68.000000" x2="95.600000" y2="68.000000"  style="stroke:black; stroke-linecap:round; stroke-width:0.25;"/>
<line x1="95.600000" y1="36.000000" x2="103.600000" y2="36.000000"  style="stroke:black; stroke-linecap:round; stroke-width:0.25;"/>
<line x1="95.600000" y1="56.000000" x2="103.600000" y2="56.000000"  style="stroke:black; stroke-linecap:round; stroke-width:0.25;"/>
<line x1="95.600000" y1="68.000000" x2="95.600000" y2="56.000000"  style="stroke:black; stroke-linecap:round; stroke-width:0.25;"/>
<line x1="95.600000" y1="68.000000" x2="95.600000" y2="68.000000"  style="stroke:black; stroke-linecap:round; stroke-width:0.25;"/>
<line x1="95.600000" y1="132.000000" x2="99.600000" y2="132.000000"  style="stroke:black; stroke-linecap:round; stroke-width:0.25;"/>
<line x1="99.600000" y1="132.000000" x2="99.600000" y2="132.000000"  style="stroke:black; stroke-linecap:round; stroke-width:0.25;"/>
<line x1="99.600000" y1="132.000000" x2="103.600000" y2="132.000000"  style="stroke:black; stroke-linecap:round; stroke-width:0.25;"/>
<line x1="103.600000" y1="36.000000" x2="103.600000" y2="48.000000"  style="stroke:black; stroke-linecap:round; stroke-width:0.25;"/>
<line x1="103.600000" y1="48.000000" x2="103.600000" y2="48.000000"  style="stroke:black; stroke-linecap:round; stroke-width:0.25;"/>
<line x1="103.600000" y1="48.000000" x2="107.600000" y2="48.000000"  style="stroke:black; stroke-linecap:round; stroke-width:0.25;"/>
<line x1="103.600000" y1="56.000000" x2="107.600000" y2="56.000000"  style="stroke:black; stroke-linecap:round; stroke-width:0.25;"/>
<line x1="111.600000" y1="100.000000" x2="115.600000" y2="100.000000"  style="stroke:black; stroke-linecap:round; stroke-width:0.25;"/>
<line x1="115.600000" y1="100.000000" x2="131.600000" y2="100.000000"  style="stroke:black; stroke-linecap:round; stroke-width:0.25;"/>
<line x1="127.600000" y1="132.000000" x2="131.600000" y2="132.000000"  style="stroke:black; stroke-linecap:round; stroke-width:0.25;"/>
<line x1="131.600000" y1="52.000000" x2="135.600000" y2="52.000000"  style="stroke:black; stroke-linecap:round; stroke-width:0.25;"/>
<line x1="131.600000" y1="100.000000" x2="135.600000" y2="100.000000"  style="stroke:black; stroke-linecap:round; stroke-width:0.25;"/>
<line x1="131.600000" y1="132.000000" x2="135.600000" y2="132.000000"  style="stroke:black; stroke-linecap:round; stroke-width:0.25;"/>
<line x1="135.600000" y1="52.000000" x2="151.600000" y2="52.000000"  style="stroke:black; stroke-linecap:round; stroke-width:0.25;"/>
<line x1="135.600000" y1="84.000000" x2="151.600000" y2="84.000000"  style="stroke:black; stroke-linecap:round; stroke-width:0.25;"/>
<line x1="135.600000" y1="100.000000" x2="135.600000" y2="84.000000"  style="stroke:black; stroke-linecap:round; stroke-width:0.25;"/>
<line x1="135.600000" y1="100.000000" x2="135.600000" y2="100.000000"  style="stroke:black; stroke-linecap:round; stroke-width:0.25;"/>
<line x1="135.600000" y1="132.000000" x2="143.600000" y2="132.000000"  style="stroke:black; stroke-linecap:round; stroke-width:0.25;"/>
<line x1="143.600000" y1="92.000000" x2="151.600000" y2="92.000000"  style="stroke:black; stroke-linecap:round; stroke-width:0.25;"/>
<line x1="143.600000" y1="132.000000" x2="143.600000" y2="92.000000"  style="stroke:black; stroke-linecap:round; stroke-width:0.25;"/>
<line x1="151.600000" y1="52.000000" x2="151.600000" y2="76.000000"  style="stroke:black; stroke-linecap:round; stroke-width:0.25;"/>
<line x1="151.600000" y1="76.000000" x2="151.600000" y2="76.000000"  style="stroke:black; stroke-linecap:round; stroke-width:0.25;"/>
<line x1="151.600000" y1="76.000000" x2="155.600000" y2="76.000000"  style="stroke:black; stroke-linecap:round; stroke-width:0.25;"/>
<line x1="151.600000" y1="84.000000" x2="155.600000" y2="84.000000"  style="stroke:black; stroke-linecap:round; stroke-width:0.25;"/>
<line x1="151.600000" y1="92.000000" x2="155.600000" y2="92.000000"  style="stroke:black; stroke-linecap:round; stroke-width:0.25;"/>
<line x1="194.300000" y1="84.000000" x2="198.300000" y2="84.000000"  style="stroke:black; stroke-linecap:round; stroke-width:0.25;"/>
<line x1="198.300000" y1="58.000000" x2="206.300000" y2="58.000000"  style="stroke:black; stroke-linecap:round; stroke-width:0.25;"/>
<line x1="198.300000" y1="84.000000" x2="198.300000" y2="58.000000"  style="stroke:black; stroke-linecap:round; stroke-width:0.25;"/>
<line x1="198.300000" y1="84.000000" x2="198.300000" y2="84.000000"  style="stroke:black; stroke-linecap:round; stroke-width:0.25;"/>
<line x1="206.300000" y1="58.000000" x2="232.300000" y2="58.000000"  style="stroke:black; stroke-linecap:round; stroke-width:0.25;"/>
<line x1="232.300000" y1="58.000000" x2="258.300000" y2="58.000000"  style="stroke:black; stroke-linecap:round; stroke-width:0.25;"/>
<line x1="244.300000" y1="88.000000" x2="248.300000" y2="88.000000"  style="stroke:black; stroke-linecap:round; stroke-width:0.25;"/>
<line x1="248.300000" y1="88.000000" x2="258.300000" y2="88.000000"  style="stroke:black; stroke-linecap:round; stroke-width:0.25;"/>
<line x1="258.300000" y1="58.000000" x2="266.300000" y2="58.000000"  style="stroke:black; stroke-linecap:round; stroke-width:0.25;"/>
<line x1="258.300000" y1="88.000000" x2="266.300000" y2="88.000000"  style="stroke:black; stroke-linecap:round; stroke-width:0.25;"/>
<line x1="266.300000" y1="58.000000" x2="266.300000" y2="80.000000"  style="stroke:black; stroke-linecap:round; stroke-width:0.25;"/>
<line x1="266.300000" y1="80.000000" x2="266.300000" y2="80.000000"  style="stroke:black; stroke-linecap:round; stroke-width:0.25;"/>
<line x1="266.300000" y1="80.000000" x2="270.300000" y2="80.000000"  style="stroke:black; stroke-linecap:round; stroke-width:0.25;"/>
<line x1="266.300000" y1="88.000000" x2="270.300000" y2="88.000000"  style="stroke:black; stroke-linecap:round; stroke-width:0.25;"/>
<line x1="294.300000" y1="84.000000" x2="298.300000" y2="84.000000"  style="stroke:black; stroke-linecap:round; stroke-width:0.25;"/>
<line x1="298.300000" y1="84.000000" x2="298.300000" y2="84.000000"  style="stroke:black; stroke-linecap:round; stroke-width:0.25;"/>
<line x1="298.300000" y1="84.000000" x2="302.300000" y2="84.000000"  style="stroke:black; stroke-linecap:round; stroke-width:0.25;"/>
<line x1="302.300000" y1="84.000000" x2="306.300000" y2="84.000000"  style="stroke:black; stroke-linecap:round; stroke-width:0.25;"/>
<line x1="306.300000" y1="84.000000" x2="316.300000" y2="84.000000"  style="stroke:black; stroke-linecap:round; stroke-width:0.25;"/>
</svg>
