<?xml version="1.0"?>
<svg xmlns="http://www.w3.org/2000/svg" xmlns:xlink="http://www.w3.org/1999/xlink" viewBox="0 0 467.500000 132.000000" width="233.750000mm" height="66.000000mm" version="1.1">
<a xlink:href="decide-0x7f8adc370f40.svg">
<rect x="1.000000" y="1.000000" width="466.500000" height="131.000000" rx="0" ry="0" style="stroke:none;fill:#cccccc;"/>
<rect x="0.000000" y="0.000000" width="466.500000" height="131.000000" rx="0" ry="0" style="stroke:none;fill:#ffffff;"/>
</a>
<text x="10.000000" y="7.000000" font-family="Arial" font-size="7"></text>
<rect x="33.000000" y="55.000000" width="25.800000" height="24.000000" rx="0" ry="0" style="stroke:none;fill:#cccccc;"/>
<rect x="32.000000" y="54.000000" width="25.800000" height="24.000000" rx="0" ry="0" style="stroke:none;fill:#4B71A1;"/>
<text x="44.900000" y="68.000000" font-family="Arial" font-size="7" text-anchor="middle" fill="#FFFFFF">atan2</text>
<circle cx="34.000000" cy="56.000000" r="1"/>
<line x1="29.000000" y1="61.000000" x2="32.000000" y2="62.000000"  transform="rotate(0.000000,32.000000,62.000000)" style="stroke: black; stroke-width:0.25;"/>
<line x1="29.000000" y1="63.000000" x2="32.000000" y2="62.000000"  transform="rotate(0.000000,32.000000,62.000000)" style="stroke: black; stroke-width:0.25;"/>
<line x1="29.000000" y1="69.000000" x2="32.000000" y2="70.000000"  transform="rotate(0.000000,32.000000,70.000000)" style="stroke: black; stroke-width:0.25;"/>
<line x1="29.000000" y1="71.000000" x2="32.000000" y2="70.000000"  transform="rotate(0.000000,32.000000,70.000000)" style="stroke: black; stroke-width:0.25;"/>
<rect x="84.800000" y="43.000000" width="38.700000" height="24.000000" rx="0" ry="0" style="stroke:none;fill:#cccccc;"/>
<rect x="83.800000" y="42.000000" width="38.700000" height="24.000000" rx="0" ry="0" style="stroke:none;fill:#f44800;"/>
<text x="103.150000" y="56.000000" font-family="Arial" font-size="7" text-anchor="middle" fill="#FFFFFF">3.14159</text>
<circle cx="85.800000" cy="44.000000" r="1"/>
<line x1="74.800000" y1="33.000000" x2="74.800000" y2="75.000000"  style="stroke: black; stroke-linecap:round; stroke-width:0.25; stroke-dasharray:3,3;"/>
<line x1="74.800000" y1="75.000000" x2="131.500000" y2="75.000000"  style="stroke: black; stroke-linecap:round; stroke-width:0.25; stroke-dasharray:3,3;"/>
<line x1="131.500000" y1="75.000000" x2="131.500000" y2="33.000000"  style="stroke: black; stroke-linecap:round; stroke-width:0.25; stroke-dasharray:3,3;"/>
<line x1="74.800000" y1="33.000000" x2="79.800000" y2="33.000000"  style="stroke: black; stroke-linecap:round; stroke-width:0.25; stroke-dasharray:3,3;"/>
<line x1="92.700000" y1="33.000000" x2="131.500000" y2="33.000000"  style="stroke: black; stroke-linecap:round; stroke-width:0.25; stroke-dasharray:3,3;"/>
<text x="79.800000" y="35.000000" font-family="Arial" font-size="7">PI</text>
<rect x="92.150000" y="85.000000" width="24.000000" height="24.000000" rx="0" ry="0" style="stroke:none;fill:#cccccc;"/>
<rect x="91.150000" y="84.000000" width="24.000000" height="24.000000" rx="0" ry="0" style="stroke:none;fill:#f44800;"/>
<text x="103.150000" y="98.000000" font-family="Arial" font-size="7" text-anchor="middle" fill="#FFFFFF">4</text>
<circle cx="93.150000" cy="86.000000" r="1"/>
<rect x="149.500000" y="59.000000" width="24.000000" height="24.000000" rx="0" ry="0" style="stroke:none;fill:#cccccc;"/>
<rect x="148.500000" y="58.000000" width="24.000000" height="24.000000" rx="0" ry="0" style="stroke:none;fill:#4B71A1;"/>
<text x="160.500000" y="72.000000" font-family="Arial" font-size="7" text-anchor="middle" fill="#FFFFFF">/</text>
<circle cx="150.500000" cy="60.000000" r="1"/>
<line x1="145.500000" y1="65.000000" x2="148.500000" y2="66.000000"  transform="rotate(0.000000,148.500000,66.000000)" style="stroke: black; stroke-width:0.25;"/>
<line x1="145.500000" y1="67.000000" x2="148.500000" y2="66.000000"  transform="rotate(0.000000,148.500000,66.000000)" style="stroke: black; stroke-width:0.25;"/>
<line x1="145.500000" y1="73.000000" x2="148.500000" y2="74.000000"  transform="rotate(0.000000,148.500000,74.000000)" style="stroke: black; stroke-width:0.25;"/>
<line x1="145.500000" y1="75.000000" x2="148.500000" y2="74.000000"  transform="rotate(0.000000,148.500000,74.000000)" style="stroke: black; stroke-width:0.25;"/>
<rect x="189.500000" y="55.000000" width="24.000000" height="24.000000" rx="0" ry="0" style="stroke:none;fill:#cccccc;"/>
<rect x="188.500000" y="54.000000" width="24.000000" height="24.000000" rx="0" ry="0" style="stroke:none;fill:#4B71A1;"/>
<text x="200.500000" y="68.000000" font-family="Arial" font-size="7" text-anchor="middle" fill="#FFFFFF">-</text>
<circle cx="190.500000" cy="56.000000" r="1"/>
<line x1="185.500000" y1="61.000000" x2="188.500000" y2="62.000000"  transform="rotate(0.000000,188.500000,62.000000)" style="stroke: black; stroke-width:0.25;"/>
<line x1="185.500000" y1="63.000000" x2="188.500000" y2="62.000000"  transform="rotate(0.000000,188.500000,62.000000)" style="stroke: black; stroke-width:0.25;"/>
<line x1="185.500000" y1="69.000000" x2="188.500000" y2="70.000000"  transform="rotate(0.000000,188.500000,70.000000)" style="stroke: black; stroke-width:0.25;"/>
<line x1="185.500000" y1="71.000000" x2="188.500000" y2="70.000000"  transform="rotate(0.000000,188.500000,70.000000)" style="stroke: black; stroke-width:0.25;"/>
<rect x="221.500000" y="55.000000" width="24.000000" height="24.000000" rx="0" ry="0" style="stroke:none;fill:#cccccc;"/>
<rect x="220.500000" y="54.000000" width="24.000000" height="24.000000" rx="0" ry="0" style="stroke:none;fill:#4B71A1;"/>
<text x="232.500000" y="68.000000" font-family="Arial" font-size="7" text-anchor="middle" fill="#FFFFFF">cos</text>
<circle cx="222.500000" cy="56.000000" r="1"/>
<line x1="217.500000" y1="65.000000" x2="220.500000" y2="66.000000"  transform="rotate(0.000000,220.500000,66.000000)" style="stroke: black; stroke-width:0.25;"/>
<line x1="217.500000" y1="67.000000" x2="220.500000" y2="66.000000"  transform="rotate(0.000000,220.500000,66.000000)" style="stroke: black; stroke-width:0.25;"/>
<rect x="271.500000" y="59.000000" width="24.000000" height="24.000000" rx="0" ry="0" style="stroke:none;fill:#cccccc;"/>
<rect x="270.500000" y="58.000000" width="24.000000" height="24.000000" rx="0" ry="0" style="stroke:none;fill:#f44800;"/>
<text x="282.500000" y="72.000000" font-family="Arial" font-size="7" text-anchor="middle" fill="#FFFFFF">0</text>
<circle cx="272.500000" cy="60.000000" r="1"/>
<line x1="261.500000" y1="49.000000" x2="261.500000" y2="91.000000"  style="stroke: black; stroke-linecap:round; stroke-width:0.25; stroke-dasharray:3,3;"/>
<line x1="261.500000" y1="91.000000" x2="303.500000" y2="91.000000"  style="stroke: black; stroke-linecap:round; stroke-width:0.25; stroke-dasharray:3,3;"/>
<line x1="303.500000" y1="91.000000" x2="303.500000" y2="49.000000"  style="stroke: black; stroke-linecap:round; stroke-width:0.25; stroke-dasharray:3,3;"/>
<line x1="261.500000" y1="49.000000" x2="266.500000" y2="49.000000"  style="stroke: black; stroke-linecap:round; stroke-width:0.25; stroke-dasharray:3,3;"/>
<line x1="295.525000" y1="49.000000" x2="303.500000" y2="49.000000"  style="stroke: black; stroke-linecap:round; stroke-width:0.25; stroke-dasharray:3,3;"/>
<text x="266.500000" y="51.000000" font-family="Arial" font-size="7">ff_taps</text>
<rect x="321.500000" y="55.000000" width="24.000000" height="24.000000" rx="0" ry="0" style="stroke:none;fill:#cccccc;"/>
<rect x="320.500000" y="54.000000" width="24.000000" height="24.000000" rx="0" ry="0" style="stroke:none;fill:#4B71A1;"/>
<text x="332.500000" y="68.000000" font-family="Arial" font-size="7" text-anchor="middle" fill="#FFFFFF">&gt;</text>
<circle cx="322.500000" cy="56.000000" r="1"/>
<line x1="317.500000" y1="61.000000" x2="320.500000" y2="62.000000"  transform="rotate(0.000000,320.500000,62.000000)" style="stroke: black; stroke-width:0.25;"/>
<line x1="317.500000" y1="63.000000" x2="320.500000" y2="62.000000"  transform="rotate(0.000000,320.500000,62.000000)" style="stroke: black; stroke-width:0.25;"/>
<line x1="317.500000" y1="69.000000" x2="320.500000" y2="70.000000"  transform="rotate(0.000000,320.500000,70.000000)" style="stroke: black; stroke-width:0.25;"/>
<line x1="317.500000" y1="71.000000" x2="320.500000" y2="70.000000"  transform="rotate(0.000000,320.500000,70.000000)" style="stroke: black; stroke-width:0.25;"/>
<rect x="396.500000" y="31.000000" width="24.000000" height="24.000000" rx="0" ry="0" style="stroke:none;fill:#cccccc;"/>
<rect x="395.500000" y="30.000000" width="24.000000" height="24.000000" rx="0" ry="0" style="stroke:none;fill:#f44800;"/>
<text x="407.500000" y="44.000000" font-family="Arial" font-size="7" text-anchor="middle" fill="#FFFFFF">1</text>
<circle cx="397.500000" cy="32.000000" r="1"/>
<rect x="396.500000" y="71.000000" width="24.000000" height="24.000000" rx="0" ry="0" style="stroke:none;fill:#cccccc;"/>
<rect x="395.500000" y="70.000000" width="24.000000" height="24.000000" rx="0" ry="0" style="stroke:none;fill:#f44800;"/>
<text x="407.500000" y="84.000000" font-family="Arial" font-size="7" text-anchor="middle" fill="#FFFFFF">1</text>
<circle cx="397.500000" cy="72.000000" r="1"/>
<line x1="15.000000" y1="15.000000" x2="15.000000" y2="117.000000"  style="stroke: black; stroke-linecap:round; stroke-width:0.25; stroke-dasharray:3,3;"/>
<line x1="15.000000" y1="117.000000" x2="452.500000" y2="117.000000"  style="stroke: black; stroke-linecap:round; stroke-width:0.25; stroke-dasharray:3,3;"/>
<line x1="452.500000" y1="117.000000" x2="452.500000" y2="15.000000"  style="stroke: black; stroke-linecap:round; stroke-width:0.25; stroke-dasharray:3,3;"/>
<line x1="15.000000" y1="15.000000" x2="20.000000" y2="15.000000"  style="stroke: black; stroke-linecap:round; stroke-width:0.25; stroke-dasharray:3,3;"/>
<line x1="61.925000" y1="15.000000" x2="452.500000" y2="15.000000"  style="stroke: black; stroke-linecap:round; stroke-width:0.25; stroke-dasharray:3,3;"/>
<text x="20.000000" y="17.000000" font-family="Arial" font-size="7">bpsk_decide</text>
<line x1="454.500000" y1="53.000000" x2="457.500000" y2="54.000000"  transform="rotate(0.000000,457.500000,54.000000)" style="stroke: black; stroke-width:0.25;"/>
<line x1="454.500000" y1="55.000000" x2="457.500000" y2="54.000000"  transform="rotate(0.000000,457.500000,54.000000)" style="stroke: black; stroke-width:0.25;"/>
<line x1="454.500000" y1="61.000000" x2="457.500000" y2="62.000000"  transform="rotate(0.000000,457.500000,62.000000)" style="stroke: black; stroke-width:0.25;"/>
<line x1="454.500000" y1="63.000000" x2="457.500000" y2="62.000000"  transform="rotate(0.000000,457.500000,62.000000)" style="stroke: black; stroke-width:0.25;"/>
<line x1="454.500000" y1="69.000000" x2="457.500000" y2="70.000000"  transform="rotate(0.000000,457.500000,70.000000)" style="stroke: black; stroke-width:0.25;"/>
<line x1="454.500000" y1="71.000000" x2="457.500000" y2="70.000000"  transform="rotate(0.000000,457.500000,70.000000)" style="stroke: black; stroke-width:0.25;"/>
<line x1="454.500000" y1="77.000000" x2="457.500000" y2="78.000000"  transform="rotate(0.000000,457.500000,78.000000)" style="stroke: black; stroke-width:0.25;"/>
<line x1="454.500000" y1="79.000000" x2="457.500000" y2="78.000000"  transform="rotate(0.000000,457.500000,78.000000)" style="stroke: black; stroke-width:0.25;"/>
<line x1="10.000000" y1="62.000000" x2="20.000000" y2="62.000000"  style="stroke:black; stroke-linecap:round; stroke-width:0.25;"/>
<line x1="10.000000" y1="70.000000" x2="20.000000" y2="70.000000"  style="stroke:black; stroke-linecap:round; stroke-width:0.25;"/>
<line x1="20.000000" y1="62.000000" x2="24.000000" y2="62.000000"  style="stroke:black; stroke-linecap:round; stroke-width:0.25;"/>
<line x1="20.000000" y1="70.000000" x2="24.000000" y2="70.000000"  style="stroke:black; stroke-linecap:round; stroke-width:0.25;"/>
<line x1="24.000000" y1="62.000000" x2="28.000000" y2="62.000000"  style="stroke:black; stroke-linecap:round; stroke-width:0.25;"/>
<line x1="24.000000" y1="70.000000" x2="28.000000" y2="70.000000"  style="stroke:black; stroke-linecap:round; stroke-width:0.25;"/>
<line x1="28.000000" y1="62.000000" x2="28.000000" y2="62.000000"  style="stroke:black; stroke-linecap:round; stroke-width:0.25;"/>
<line x1="28.000000" y1="62.000000" x2="32.000000" y2="62.000000"  style="stroke:black; stroke-linecap:round; stroke-width:0.25;"/>
<line x1="28.000000" y1="70.000000" x2="28.000000" y2="70.000000"  style="stroke:black; stroke-linecap:round; stroke-width:0.25;"/>
<line x1="28.000000" y1="70.000000" x2="32.000000" y2="70.000000"  style="stroke:black; stroke-linecap:round; stroke-width:0.25;"/>
<line x1="57.800000" y1="66.000000" x2="61.800000" y2="66.000000"  style="stroke:black; stroke-linecap:round; stroke-width:0.25;"/>
<line x1="61.800000" y1="24.000000" x2="69.800000" y2="24.000000"  style="stroke:black; stroke-linecap:round; stroke-width:0.25;"/>
<line x1="61.800000" y1="66.000000" x2="61.800000" y2="24.000000"  style="stroke:black; stroke-linecap:round; stroke-width:0.25;"/>
<line x1="61.800000" y1="66.000000" x2="61.800000" y2="66.000000"  style="stroke:black; stroke-linecap:round; stroke-width:0.25;"/>
<line x1="69.800000" y1="24.000000" x2="123.150000" y2="24.000000"  style="stroke:black; stroke-linecap:round; stroke-width:0.25;"/>
<line x1="115.150000" y1="96.000000" x2="119.150000" y2="96.000000"  style="stroke:black; stroke-linecap:round; stroke-width:0.25;"/>
<line x1="119.150000" y1="96.000000" x2="136.500000" y2="96.000000"  style="stroke:black; stroke-linecap:round; stroke-width:0.25;"/>
<line x1="122.500000" y1="54.000000" x2="126.500000" y2="54.000000"  style="stroke:black; stroke-linecap:round; stroke-width:0.25;"/>
<line x1="123.150000" y1="24.000000" x2="176.500000" y2="24.000000"  style="stroke:black; stroke-linecap:round; stroke-width:0.25;"/>
<line x1="126.500000" y1="54.000000" x2="136.500000" y2="54.000000"  style="stroke:black; stroke-linecap:round; stroke-width:0.25;"/>
<line x1="136.500000" y1="54.000000" x2="144.500000" y2="54.000000"  style="stroke:black; stroke-linecap:round; stroke-width:0.25;"/>
<line x1="136.500000" y1="74.000000" x2="144.500000" y2="74.000000"  style="stroke:black; stroke-linecap:round; stroke-width:0.25;"/>
<line x1="136.500000" y1="96.000000" x2="136.500000" y2="74.000000"  style="stroke:black; stroke-linecap:round; stroke-width:0.25;"/>
<line x1="136.500000" y1="96.000000" x2="136.500000" y2="96.000000"  style="stroke:black; stroke-linecap:round; stroke-width:0.25;"/>
<line x1="144.500000" y1="54.000000" x2="144.500000" y2="66.000000"  style="stroke:black; stroke-linecap:round; stroke-width:0.25;"/>
<line x1="144.500000" y1="66.000000" x2="144.500000" y2="66.000000"  style="stroke:black; stroke-linecap:round; stroke-width:0.25;"/>
<line x1="144.500000" y1="66.000000" x2="148.500000" y2="66.000000"  style="stroke:black; stroke-linecap:round; stroke-width:0.25;"/>
<line x1="144.500000" y1="74.000000" x2="148.500000" y2="74.000000"  style="stroke:black; stroke-linecap:round; stroke-width:0.25;"/>
<line x1="172.500000" y1="70.000000" x2="176.500000" y2="70.000000"  style="stroke:black; stroke-linecap:round; stroke-width:0.25;"/>
<line x1="176.500000" y1="24.000000" x2="184.500000" y2="24.000000"  style="stroke:black; stroke-linecap:round; stroke-width:0.25;"/>
<line x1="176.500000" y1="70.000000" x2="184.500000" y2="70.000000"  style="stroke:black; stroke-linecap:round; stroke-width:0.25;"/>
<line x1="184.500000" y1="24.000000" x2="184.500000" y2="62.000000"  style="stroke:black; stroke-linecap:round; stroke-width:0.25;"/>
<line x1="184.500000" y1="62.000000" x2="184.500000" y2="62.000000"  style="stroke:black; stroke-linecap:round; stroke-width:0.25;"/>
<line x1="184.500000" y1="62.000000" x2="188.500000" y2="62.000000"  style="stroke:black; stroke-linecap:round; stroke-width:0.25;"/>
<line x1="184.500000" y1="70.000000" x2="188.500000" y2="70.000000"  style="stroke:black; stroke-linecap:round; stroke-width:0.25;"/>
<line x1="212.500000" y1="66.000000" x2="216.500000" y2="66.000000"  style="stroke:black; stroke-linecap:round; stroke-width:0.25;"/>
<line x1="216.500000" y1="66.000000" x2="216.500000" y2="66.000000"  style="stroke:black; stroke-linecap:round; stroke-width:0.25;"/>
<line x1="216.500000" y1="66.000000" x2="220.500000" y2="66.000000"  style="stroke:black; stroke-linecap:round; stroke-width:0.25;"/>
<line x1="244.500000" y1="66.000000" x2="248.500000" y2="66.000000"  style="stroke:black; stroke-linecap:round; stroke-width:0.25;"/>
<line x1="248.500000" y1="40.000000" x2="256.500000" y2="40.000000"  style="stroke:black; stroke-linecap:round; stroke-width:0.25;"/>
<line x1="248.500000" y1="66.000000" x2="248.500000" y2="40.000000"  style="stroke:black; stroke-linecap:round; stroke-width:0.25;"/>
<line x1="248.500000" y1="66.000000" x2="248.500000" y2="66.000000"  style="stroke:black; stroke-linecap:round; stroke-width:0.25;"/>
<line x1="256.500000" y1="40.000000" x2="282.500000" y2="40.000000"  style="stroke:black; stroke-linecap:round; stroke-width:0.25;"/>
<line x1="282.500000" y1="40.000000" x2="308.500000" y2="40.000000"  style="stroke:black; stroke-linecap:round; stroke-width:0.25;"/>
<line x1="294.500000" y1="70.000000" x2="298.500000" y2="70.000000"  style="stroke:black; stroke-linecap:round; stroke-width:0.25;"/>
<line x1="298.500000" y1="70.000000" x2="308.500000" y2="70.000000"  style="stroke:black; stroke-linecap:round; stroke-width:0.25;"/>
<line x1="308.500000" y1="40.000000" x2="316.500000" y2="40.000000"  style="stroke:black; stroke-linecap:round; stroke-width:0.25;"/>
<line x1="308.500000" y1="70.000000" x2="316.500000" y2="70.000000"  style="stroke:black; stroke-linecap:round; stroke-width:0.25;"/>
<line x1="316.500000" y1="40.000000" x2="316.500000" y2="62.000000"  style="stroke:black; stroke-linecap:round; stroke-width:0.25;"/>
<line x1="316.500000" y1="62.000000" x2="316.500000" y2="62.000000"  style="stroke:black; stroke-linecap:round; stroke-width:0.25;"/>
<line x1="316.500000" y1="62.000000" x2="320.500000" y2="62.000000"  style="stroke:black; stroke-linecap:round; stroke-width:0.25;"/>
<line x1="316.500000" y1="70.000000" x2="320.500000" y2="70.000000"  style="stroke:black; stroke-linecap:round; stroke-width:0.25;"/>
<line x1="344.500000" y1="66.000000" x2="348.500000" y2="66.000000"  style="stroke:black; stroke-linecap:round; stroke-width:0.25;"/>
<line x1="348.500000" y1="66.000000" x2="391.500000" y2="62.000000"  style="stroke:black; stroke-linecap:round; stroke-width:0.25;"/>
<line x1="348.500000" y1="66.000000" x2="391.500000" y2="102.000000"  style="stroke:black; stroke-linecap:round; stroke-width:0.25;"/>
<line x1="391.500000" y1="62.000000" x2="407.500000" y2="62.000000"  style="stroke:black; stroke-linecap:round; stroke-width:0.25;"/>
<line x1="391.500000" y1="102.000000" x2="407.500000" y2="102.000000"  style="stroke:black; stroke-linecap:round; stroke-width:0.25;"/>
<line x1="407.500000" y1="62.000000" x2="423.500000" y2="62.000000"  style="stroke:black; stroke-linecap:round; stroke-width:0.25;"/>
<line x1="407.500000" y1="102.000000" x2="423.500000" y2="102.000000"  style="stroke:black; stroke-linecap:round; stroke-width:0.25;"/>
<line x1="419.500000" y1="42.000000" x2="423.500000" y2="42.000000"  style="stroke:black; stroke-linecap:round; stroke-width:0.25;"/>
<line x1="419.500000" y1="82.000000" x2="423.500000" y2="82.000000"  style="stroke:black; stroke-linecap:round; stroke-width:0.25;"/>
<line x1="423.500000" y1="42.000000" x2="439.500000" y2="42.000000"  style="stroke:black; stroke-linecap:round; stroke-width:0.25;"/>
<line x1="423.500000" y1="62.000000" x2="439.500000" y2="62.000000"  style="stroke:black; stroke-linecap:round; stroke-width:0.25;"/>
<line x1="423.500000" y1="70.000000" x2="439.500000" y2="70.000000"  style="stroke:black; stroke-linecap:round; stroke-width:0.25;"/>
<line x1="423.500000" y1="82.000000" x2="423.500000" y2="70.000000"  style="stroke:black; stroke-linecap:round; stroke-width:0.25;"/>
<line x1="423.500000" y1="82.000000" x2="423.500000" y2="82.000000"  style="stroke:black; stroke-linecap:round; stroke-width:0.25;"/>
<line x1="423.500000" y1="102.000000" x2="431.500000" y2="102.000000"  style="stroke:black; stroke-linecap:round; stroke-width:0.25;"/>
<line x1="431.500000" y1="78.000000" x2="439.500000" y2="78.000000"  style="stroke:black; stroke-linecap:round; stroke-width:0.25;"/>
<line x1="431.500000" y1="102.000000" x2="431.500000" y2="78.000000"  style="stroke:black; stroke-linecap:round; stroke-width:0.25;"/>
<line x1="439.500000" y1="42.000000" x2="439.500000" y2="54.000000"  style="stroke:black; stroke-linecap:round; stroke-width:0.25;"/>
<line x1="439.500000" y1="54.000000" x2="439.500000" y2="54.000000"  style="stroke:black; stroke-linecap:round; stroke-width:0.25;"/>
<line x1="439.500000" y1="54.000000" x2="443.500000" y2="54.000000"  style="stroke:black; stroke-linecap:round; stroke-width:0.25;"/>
<line x1="439.500000" y1="62.000000" x2="443.500000" y2="62.000000"  style="stroke:black; stroke-linecap:round; stroke-width:0.25;"/>
<line x1="439.500000" y1="70.000000" x2="443.500000" y2="70.000000"  style="stroke:black; stroke-linecap:round; stroke-width:0.25;"/>
<line x1="439.500000" y1="78.000000" x2="443.500000" y2="78.000000"  style="stroke:black; stroke-linecap:round; stroke-width:0.25;"/>
<line x1="443.500000" y1="54.000000" x2="447.500000" y2="54.000000"  style="stroke:black; stroke-linecap:round; stroke-width:0.25;"/>
<line x1="443.500000" y1="62.000000" x2="447.500000" y2="62.000000"  style="stroke:black; stroke-linecap:round; stroke-width:0.25;"/>
<line x1="443.500000" y1="70.000000" x2="447.500000" y2="70.000000"  style="stroke:black; stroke-linecap:round; stroke-width:0.25;"/>
<line x1="443.500000" y1="78.000000" x2="447.500000" y2="78.000000"  style="stroke:black; stroke-linecap:round; stroke-width:0.25;"/>
<line x1="447.500000" y1="54.000000" x2="457.500000" y2="54.000000"  style="stroke:black; stroke-linecap:round; stroke-width:0.25;"/>
<line x1="447.500000" y1="62.000000" x2="457.500000" y2="62.000000"  style="stroke:black; stroke-linecap:round; stroke-width:0.25;"/>
<line x1="447.500000" y1="70.000000" x2="457.500000" y2="70.000000"  style="stroke:black; stroke-linecap:round; stroke-width:0.25;"/>
<line x1="447.500000" y1="78.000000" x2="457.500000" y2="78.000000"  style="stroke:black; stroke-linecap:round; stroke-width:0.25;"/>
</svg>
