<?xml version="1.0"?>
<svg xmlns="http://www.w3.org/2000/svg" xmlns:xlink="http://www.w3.org/1999/xlink" viewBox="0 0 570.500000 144.000000" width="285.250000mm" height="72.000000mm" version="1.1">
<a xlink:href="keep-0x7f8add1dfd40.svg">
<rect x="1.000000" y="1.000000" width="569.500000" height="143.000000" rx="0" ry="0" style="stroke:none;fill:#cccccc;"/>
<rect x="0.000000" y="0.000000" width="569.500000" height="143.000000" rx="0" ry="0" style="stroke:none;fill:#ffffff;"/>
</a>
<text x="10.000000" y="7.000000" font-family="Arial" font-size="7"></text>
<rect x="25.000000" y="61.000000" width="25.800000" height="24.000000" rx="0" ry="0" style="stroke:none;fill:#cccccc;"/>
<rect x="24.000000" y="60.000000" width="25.800000" height="24.000000" rx="0" ry="0" style="stroke:none;fill:#47945E;"/>
<text x="36.900000" y="74.000000" font-family="Arial" font-size="7" text-anchor="middle" fill="#FFFFFF">clock</text>
<circle cx="26.000000" cy="62.000000" r="1"/>
<rect x="66.800000" y="65.000000" width="24.000000" height="24.000000" rx="0" ry="0" style="stroke:none;fill:#cccccc;"/>
<rect x="65.800000" y="64.000000" width="24.000000" height="24.000000" rx="0" ry="0" style="stroke:none;fill:#f44800;"/>
<text x="77.800000" y="78.000000" font-family="Arial" font-size="7" text-anchor="middle" fill="#FFFFFF">0.5</text>
<circle cx="67.800000" cy="66.000000" r="1"/>
<rect x="106.800000" y="61.000000" width="24.000000" height="24.000000" rx="0" ry="0" style="stroke:none;fill:#cccccc;"/>
<rect x="105.800000" y="60.000000" width="24.000000" height="24.000000" rx="0" ry="0" style="stroke:none;fill:#4B71A1;"/>
<text x="117.800000" y="74.000000" font-family="Arial" font-size="7" text-anchor="middle" fill="#FFFFFF">&gt;</text>
<circle cx="107.800000" cy="62.000000" r="1"/>
<line x1="102.800000" y1="67.000000" x2="105.800000" y2="68.000000"  transform="rotate(0.000000,105.800000,68.000000)" style="stroke: black; stroke-width:0.25;"/>
<line x1="102.800000" y1="69.000000" x2="105.800000" y2="68.000000"  transform="rotate(0.000000,105.800000,68.000000)" style="stroke: black; stroke-width:0.25;"/>
<line x1="102.800000" y1="75.000000" x2="105.800000" y2="76.000000"  transform="rotate(0.000000,105.800000,76.000000)" style="stroke: black; stroke-width:0.25;"/>
<line x1="102.800000" y1="77.000000" x2="105.800000" y2="76.000000"  transform="rotate(0.000000,105.800000,76.000000)" style="stroke: black; stroke-width:0.25;"/>
<rect x="174.800000" y="65.000000" width="24.000000" height="24.000000" rx="0" ry="0" style="stroke:none;fill:#cccccc;"/>
<rect x="173.800000" y="64.000000" width="24.000000" height="24.000000" rx="0" ry="0" style="stroke:none;fill:#4B71A1;"/>
<text x="185.800000" y="78.000000" font-family="Arial" font-size="7" text-anchor="middle" fill="#FFFFFF">mem</text>
<circle cx="175.800000" cy="66.000000" r="1"/>
<line x1="170.800000" y1="75.000000" x2="173.800000" y2="76.000000"  transform="rotate(0.000000,173.800000,76.000000)" style="stroke: black; stroke-width:0.25;"/>
<line x1="170.800000" y1="77.000000" x2="173.800000" y2="76.000000"  transform="rotate(0.000000,173.800000,76.000000)" style="stroke: black; stroke-width:0.25;"/>
<rect x="214.800000" y="61.000000" width="24.000000" height="24.000000" rx="0" ry="0" style="stroke:none;fill:#cccccc;"/>
<rect x="213.800000" y="60.000000" width="24.000000" height="24.000000" rx="0" ry="0" style="stroke:none;fill:#4B71A1;"/>
<text x="225.800000" y="74.000000" font-family="Arial" font-size="7" text-anchor="middle" fill="#FFFFFF">&gt;</text>
<circle cx="215.800000" cy="62.000000" r="1"/>
<line x1="210.800000" y1="67.000000" x2="213.800000" y2="68.000000"  transform="rotate(0.000000,213.800000,68.000000)" style="stroke: black; stroke-width:0.25;"/>
<line x1="210.800000" y1="69.000000" x2="213.800000" y2="68.000000"  transform="rotate(0.000000,213.800000,68.000000)" style="stroke: black; stroke-width:0.25;"/>
<line x1="210.800000" y1="75.000000" x2="213.800000" y2="76.000000"  transform="rotate(0.000000,213.800000,76.000000)" style="stroke: black; stroke-width:0.25;"/>
<line x1="210.800000" y1="77.000000" x2="213.800000" y2="76.000000"  transform="rotate(0.000000,213.800000,76.000000)" style="stroke: black; stroke-width:0.25;"/>
<rect x="310.150000" y="97.000000" width="24.000000" height="24.000000" rx="0" ry="0" style="stroke:none;fill:#cccccc;"/>
<rect x="309.150000" y="96.000000" width="24.000000" height="24.000000" rx="0" ry="0" style="stroke:none;fill:#4B71A1;"/>
<text x="321.150000" y="110.000000" font-family="Arial" font-size="7" text-anchor="middle" fill="#FFFFFF">+</text>
<circle cx="311.150000" cy="98.000000" r="1"/>
<line x1="306.150000" y1="103.000000" x2="309.150000" y2="104.000000"  transform="rotate(0.000000,309.150000,104.000000)" style="stroke: black; stroke-width:0.25;"/>
<line x1="306.150000" y1="105.000000" x2="309.150000" y2="104.000000"  transform="rotate(0.000000,309.150000,104.000000)" style="stroke: black; stroke-width:0.25;"/>
<line x1="306.150000" y1="111.000000" x2="309.150000" y2="112.000000"  transform="rotate(0.000000,309.150000,112.000000)" style="stroke: black; stroke-width:0.25;"/>
<line x1="306.150000" y1="113.000000" x2="309.150000" y2="112.000000"  transform="rotate(0.000000,309.150000,112.000000)" style="stroke: black; stroke-width:0.25;"/>
<rect x="350.150000" y="57.000000" width="24.000000" height="24.000000" rx="0" ry="0" style="stroke:none;fill:#cccccc;"/>
<rect x="349.150000" y="56.000000" width="24.000000" height="24.000000" rx="0" ry="0" style="stroke:none;fill:#f44800;"/>
<text x="361.150000" y="70.000000" font-family="Arial" font-size="7" text-anchor="middle" fill="#FFFFFF">1</text>
<circle cx="371.150000" cy="78.000000" r="1"/>
<a xlink:href="startedge-0x7f8add141a90.svg">
<rect x="342.800000" y="25.000000" width="38.700000" height="24.000000" rx="0" ry="0" style="stroke:none;fill:#cccccc;"/>
<rect x="341.800000" y="24.000000" width="38.700000" height="24.000000" rx="0" ry="0" style="stroke:none;fill:#003366;"/>
</a>
<a xlink:href="startedge-0x7f8add141a90.svg">
<text x="361.150000" y="38.000000" font-family="Arial" font-size="7" text-anchor="middle" fill="#FFFFFF">startedge</text>
</a>
<circle cx="378.500000" cy="46.000000" r="1"/>
<rect x="302.800000" y="41.000000" width="24.000000" height="24.000000" rx="0" ry="0" style="stroke:none;fill:#cccccc;"/>
<rect x="301.800000" y="40.000000" width="24.000000" height="24.000000" rx="0" ry="0" style="stroke:none;fill:#4B71A1;"/>
<text x="313.800000" y="54.000000" font-family="Arial" font-size="7" text-anchor="middle" fill="#FFFFFF">-</text>
<circle cx="323.800000" cy="62.000000" r="1"/>
<line x1="328.800000" y1="55.000000" x2="325.800000" y2="56.000000"  transform="rotate(0.000000,325.800000,56.000000)" style="stroke: black; stroke-width:0.25;"/>
<line x1="328.800000" y1="57.000000" x2="325.800000" y2="56.000000"  transform="rotate(0.000000,325.800000,56.000000)" style="stroke: black; stroke-width:0.25;"/>
<line x1="328.800000" y1="47.000000" x2="325.800000" y2="48.000000"  transform="rotate(0.000000,325.800000,48.000000)" style="stroke: black; stroke-width:0.25;"/>
<line x1="328.800000" y1="49.000000" x2="325.800000" y2="48.000000"  transform="rotate(0.000000,325.800000,48.000000)" style="stroke: black; stroke-width:0.25;"/>
<rect x="262.800000" y="45.000000" width="24.000000" height="24.000000" rx="0" ry="0" style="stroke:none;fill:#cccccc;"/>
<rect x="261.800000" y="44.000000" width="24.000000" height="24.000000" rx="0" ry="0" style="stroke:none;fill:#4B71A1;"/>
<text x="273.800000" y="58.000000" font-family="Arial" font-size="7" text-anchor="middle" fill="#FFFFFF">*</text>
<circle cx="283.800000" cy="66.000000" r="1"/>
<line x1="288.800000" y1="59.000000" x2="285.800000" y2="60.000000"  transform="rotate(0.000000,285.800000,60.000000)" style="stroke: black; stroke-width:0.25;"/>
<line x1="288.800000" y1="61.000000" x2="285.800000" y2="60.000000"  transform="rotate(0.000000,285.800000,60.000000)" style="stroke: black; stroke-width:0.25;"/>
<line x1="288.800000" y1="51.000000" x2="285.800000" y2="52.000000"  transform="rotate(0.000000,285.800000,52.000000)" style="stroke: black; stroke-width:0.25;"/>
<line x1="288.800000" y1="53.000000" x2="285.800000" y2="52.000000"  transform="rotate(0.000000,285.800000,52.000000)" style="stroke: black; stroke-width:0.25;"/>
<line x1="382.500000" y1="108.000000" x2="382.500000" y2="104.000000"  style="stroke:black; stroke-linecap:round; stroke-width:0.25;"/>
<line x1="382.500000" y1="104.000000" x2="386.500000" y2="104.000000"  style="stroke:black; stroke-linecap:round; stroke-width:0.25;"/>
<line x1="386.500000" y1="104.000000" x2="386.500000" y2="108.000000"  style="stroke:black; stroke-linecap:round; stroke-width:0.25;"/>
<rect x="435.500000" y="61.000000" width="24.000000" height="24.000000" rx="0" ry="0" style="stroke:none;fill:#cccccc;"/>
<rect x="434.500000" y="60.000000" width="24.000000" height="24.000000" rx="0" ry="0" style="stroke:none;fill:#f44800;"/>
<text x="446.500000" y="74.000000" font-family="Arial" font-size="7" text-anchor="middle" fill="#FFFFFF">16</text>
<circle cx="436.500000" cy="62.000000" r="1"/>
<rect x="475.500000" y="57.000000" width="24.000000" height="24.000000" rx="0" ry="0" style="stroke:none;fill:#cccccc;"/>
<rect x="474.500000" y="56.000000" width="24.000000" height="24.000000" rx="0" ry="0" style="stroke:none;fill:#4B71A1;"/>
<text x="486.500000" y="70.000000" font-family="Arial" font-size="7" text-anchor="middle" fill="#FFFFFF">&lt;=</text>
<circle cx="476.500000" cy="58.000000" r="1"/>
<line x1="471.500000" y1="63.000000" x2="474.500000" y2="64.000000"  transform="rotate(0.000000,474.500000,64.000000)" style="stroke: black; stroke-width:0.25;"/>
<line x1="471.500000" y1="65.000000" x2="474.500000" y2="64.000000"  transform="rotate(0.000000,474.500000,64.000000)" style="stroke: black; stroke-width:0.25;"/>
<line x1="471.500000" y1="71.000000" x2="474.500000" y2="72.000000"  transform="rotate(0.000000,474.500000,72.000000)" style="stroke: black; stroke-width:0.25;"/>
<line x1="471.500000" y1="73.000000" x2="474.500000" y2="72.000000"  transform="rotate(0.000000,474.500000,72.000000)" style="stroke: black; stroke-width:0.25;"/>
<rect x="515.500000" y="61.000000" width="24.000000" height="24.000000" rx="0" ry="0" style="stroke:none;fill:#cccccc;"/>
<rect x="514.500000" y="60.000000" width="24.000000" height="24.000000" rx="0" ry="0" style="stroke:none;fill:#4B71A1;"/>
<text x="526.500000" y="74.000000" font-family="Arial" font-size="7" text-anchor="middle" fill="#FFFFFF">*</text>
<circle cx="516.500000" cy="62.000000" r="1"/>
<line x1="511.500000" y1="67.000000" x2="514.500000" y2="68.000000"  transform="rotate(0.000000,514.500000,68.000000)" style="stroke: black; stroke-width:0.25;"/>
<line x1="511.500000" y1="69.000000" x2="514.500000" y2="68.000000"  transform="rotate(0.000000,514.500000,68.000000)" style="stroke: black; stroke-width:0.25;"/>
<line x1="511.500000" y1="75.000000" x2="514.500000" y2="76.000000"  transform="rotate(0.000000,514.500000,76.000000)" style="stroke: black; stroke-width:0.25;"/>
<line x1="511.500000" y1="77.000000" x2="514.500000" y2="76.000000"  transform="rotate(0.000000,514.500000,76.000000)" style="stroke: black; stroke-width:0.25;"/>
<line x1="15.000000" y1="15.000000" x2="15.000000" y2="129.000000"  style="stroke: black; stroke-linecap:round; stroke-width:0.25; stroke-dasharray:3,3;"/>
<line x1="15.000000" y1="129.000000" x2="555.500000" y2="129.000000"  style="stroke: black; stroke-linecap:round; stroke-width:0.25; stroke-dasharray:3,3;"/>
<line x1="555.500000" y1="129.000000" x2="555.500000" y2="15.000000"  style="stroke: black; stroke-linecap:round; stroke-width:0.25; stroke-dasharray:3,3;"/>
<line x1="15.000000" y1="15.000000" x2="20.000000" y2="15.000000"  style="stroke: black; stroke-linecap:round; stroke-width:0.25; stroke-dasharray:3,3;"/>
<line x1="58.700000" y1="15.000000" x2="555.500000" y2="15.000000"  style="stroke: black; stroke-linecap:round; stroke-width:0.25; stroke-dasharray:3,3;"/>
<text x="20.000000" y="17.000000" font-family="Arial" font-size="7">countclock</text>
<line x1="557.500000" y1="71.000000" x2="560.500000" y2="72.000000"  transform="rotate(0.000000,560.500000,72.000000)" style="stroke: black; stroke-width:0.25;"/>
<line x1="557.500000" y1="73.000000" x2="560.500000" y2="72.000000"  transform="rotate(0.000000,560.500000,72.000000)" style="stroke: black; stroke-width:0.25;"/>
<line x1="49.800000" y1="72.000000" x2="53.800000" y2="72.000000"  style="stroke:black; stroke-linecap:round; stroke-width:0.25;"/>
<line x1="53.800000" y1="56.000000" x2="61.800000" y2="56.000000"  style="stroke:black; stroke-linecap:round; stroke-width:0.25;"/>
<line x1="53.800000" y1="72.000000" x2="53.800000" y2="56.000000"  style="stroke:black; stroke-linecap:round; stroke-width:0.25;"/>
<line x1="53.800000" y1="72.000000" x2="53.800000" y2="72.000000"  style="stroke:black; stroke-linecap:round; stroke-width:0.25;"/>
<line x1="61.800000" y1="56.000000" x2="77.800000" y2="56.000000"  style="stroke:black; stroke-linecap:round; stroke-width:0.25;"/>
<line x1="77.800000" y1="56.000000" x2="93.800000" y2="56.000000"  style="stroke:black; stroke-linecap:round; stroke-width:0.25;"/>
<line x1="89.800000" y1="76.000000" x2="93.800000" y2="76.000000"  style="stroke:black; stroke-linecap:round; stroke-width:0.25;"/>
<line x1="93.800000" y1="56.000000" x2="101.800000" y2="56.000000"  style="stroke:black; stroke-linecap:round; stroke-width:0.25;"/>
<line x1="93.800000" y1="76.000000" x2="101.800000" y2="76.000000"  style="stroke:black; stroke-linecap:round; stroke-width:0.25;"/>
<line x1="101.800000" y1="56.000000" x2="101.800000" y2="68.000000"  style="stroke:black; stroke-linecap:round; stroke-width:0.25;"/>
<line x1="101.800000" y1="68.000000" x2="101.800000" y2="68.000000"  style="stroke:black; stroke-linecap:round; stroke-width:0.25;"/>
<line x1="101.800000" y1="68.000000" x2="105.800000" y2="68.000000"  style="stroke:black; stroke-linecap:round; stroke-width:0.25;"/>
<line x1="101.800000" y1="76.000000" x2="105.800000" y2="76.000000"  style="stroke:black; stroke-linecap:round; stroke-width:0.25;"/>
<line x1="129.800000" y1="72.000000" x2="133.800000" y2="72.000000"  style="stroke:black; stroke-linecap:round; stroke-width:0.25;"/>
<line x1="133.800000" y1="72.000000" x2="169.800000" y2="56.000000"  style="stroke:black; stroke-linecap:round; stroke-width:0.25;"/>
<line x1="133.800000" y1="72.000000" x2="169.800000" y2="76.000000"  style="stroke:black; stroke-linecap:round; stroke-width:0.25;"/>
<line x1="169.800000" y1="56.000000" x2="185.800000" y2="56.000000"  style="stroke:black; stroke-linecap:round; stroke-width:0.25;"/>
<line x1="169.800000" y1="76.000000" x2="173.800000" y2="76.000000"  style="stroke:black; stroke-linecap:round; stroke-width:0.25;"/>
<line x1="185.800000" y1="56.000000" x2="201.800000" y2="56.000000"  style="stroke:black; stroke-linecap:round; stroke-width:0.25;"/>
<line x1="197.800000" y1="76.000000" x2="201.800000" y2="76.000000"  style="stroke:black; stroke-linecap:round; stroke-width:0.25;"/>
<line x1="201.800000" y1="56.000000" x2="209.800000" y2="56.000000"  style="stroke:black; stroke-linecap:round; stroke-width:0.25;"/>
<line x1="201.800000" y1="76.000000" x2="209.800000" y2="76.000000"  style="stroke:black; stroke-linecap:round; stroke-width:0.25;"/>
<line x1="209.800000" y1="56.000000" x2="209.800000" y2="68.000000"  style="stroke:black; stroke-linecap:round; stroke-width:0.25;"/>
<line x1="209.800000" y1="68.000000" x2="209.800000" y2="68.000000"  style="stroke:black; stroke-linecap:round; stroke-width:0.25;"/>
<line x1="209.800000" y1="68.000000" x2="213.800000" y2="68.000000"  style="stroke:black; stroke-linecap:round; stroke-width:0.25;"/>
<line x1="209.800000" y1="76.000000" x2="213.800000" y2="76.000000"  style="stroke:black; stroke-linecap:round; stroke-width:0.25;"/>
<line x1="237.800000" y1="72.000000" x2="241.800000" y2="72.000000"  style="stroke:black; stroke-linecap:round; stroke-width:0.25;"/>
<line x1="241.800000" y1="72.000000" x2="249.800000" y2="72.000000"  style="stroke:black; stroke-linecap:round; stroke-width:0.25;"/>
<line x1="249.800000" y1="112.000000" x2="257.800000" y2="112.000000"  style="stroke:black; stroke-linecap:round; stroke-width:0.25;"/>
<line x1="249.800000" y1="72.000000" x2="249.800000" y2="112.000000"  style="stroke:black; stroke-linecap:round; stroke-width:0.25;"/>
<line x1="249.800000" y1="112.000000" x2="249.800000" y2="112.000000"  style="stroke:black; stroke-linecap:round; stroke-width:0.25;"/>
<line x1="257.800000" y1="104.000000" x2="305.150000" y2="104.000000"  style="stroke:black; stroke-linecap:round; stroke-width:0.25;"/>
<line x1="257.800000" y1="112.000000" x2="305.150000" y2="112.000000"  style="stroke:black; stroke-linecap:round; stroke-width:0.25;"/>
<line x1="257.800000" y1="56.000000" x2="257.800000" y2="56.000000"  style="stroke:black; stroke-linecap:round; stroke-width:0.25;"/>
<line x1="257.800000" y1="56.000000" x2="257.800000" y2="104.000000"  style="stroke:black; stroke-linecap:round; stroke-width:0.25;"/>
<line x1="257.800000" y1="104.000000" x2="257.800000" y2="104.000000"  style="stroke:black; stroke-linecap:round; stroke-width:0.25;"/>
<line x1="261.800000" y1="56.000000" x2="257.800000" y2="56.000000"  style="stroke:black; stroke-linecap:round; stroke-width:0.25;"/>
<line x1="289.800000" y1="60.000000" x2="289.800000" y2="60.000000"  style="stroke:black; stroke-linecap:round; stroke-width:0.25;"/>
<line x1="289.800000" y1="88.000000" x2="289.800000" y2="60.000000"  style="stroke:black; stroke-linecap:round; stroke-width:0.25;"/>
<line x1="289.800000" y1="52.000000" x2="285.800000" y2="52.000000"  style="stroke:black; stroke-linecap:round; stroke-width:0.25;"/>
<line x1="289.800000" y1="60.000000" x2="285.800000" y2="60.000000"  style="stroke:black; stroke-linecap:round; stroke-width:0.25;"/>
<line x1="297.800000" y1="88.000000" x2="289.800000" y2="88.000000"  style="stroke:black; stroke-linecap:round; stroke-width:0.25;"/>
<line x1="297.800000" y1="52.000000" x2="289.800000" y2="52.000000"  style="stroke:black; stroke-linecap:round; stroke-width:0.25;"/>
<line x1="301.800000" y1="52.000000" x2="297.800000" y2="52.000000"  style="stroke:black; stroke-linecap:round; stroke-width:0.25;"/>
<line x1="305.150000" y1="104.000000" x2="309.150000" y2="104.000000"  style="stroke:black; stroke-linecap:round; stroke-width:0.25;"/>
<line x1="305.150000" y1="112.000000" x2="309.150000" y2="112.000000"  style="stroke:black; stroke-linecap:round; stroke-width:0.25;"/>
<line x1="329.800000" y1="48.000000" x2="325.800000" y2="48.000000"  style="stroke:black; stroke-linecap:round; stroke-width:0.25;"/>
<line x1="329.800000" y1="56.000000" x2="325.800000" y2="56.000000"  style="stroke:black; stroke-linecap:round; stroke-width:0.25;"/>
<line x1="329.800000" y1="56.000000" x2="329.800000" y2="56.000000"  style="stroke:black; stroke-linecap:round; stroke-width:0.25;"/>
<line x1="329.800000" y1="68.000000" x2="329.800000" y2="56.000000"  style="stroke:black; stroke-linecap:round; stroke-width:0.25;"/>
<line x1="333.150000" y1="108.000000" x2="337.150000" y2="108.000000"  style="stroke:black; stroke-linecap:round; stroke-width:0.25;"/>
<line x1="337.150000" y1="108.000000" x2="384.500000" y2="108.000000"  style="stroke:black; stroke-linecap:round; stroke-width:0.25;"/>
<line x1="337.800000" y1="36.000000" x2="337.800000" y2="36.000000"  style="stroke:black; stroke-linecap:round; stroke-width:0.25;"/>
<line x1="337.800000" y1="36.000000" x2="337.800000" y2="48.000000"  style="stroke:black; stroke-linecap:round; stroke-width:0.25;"/>
<line x1="337.800000" y1="48.000000" x2="329.800000" y2="48.000000"  style="stroke:black; stroke-linecap:round; stroke-width:0.25;"/>
<line x1="337.800000" y1="68.000000" x2="329.800000" y2="68.000000"  style="stroke:black; stroke-linecap:round; stroke-width:0.25;"/>
<line x1="341.150000" y1="88.000000" x2="297.800000" y2="88.000000"  style="stroke:black; stroke-linecap:round; stroke-width:0.25;"/>
<line x1="341.800000" y1="36.000000" x2="337.800000" y2="36.000000"  style="stroke:black; stroke-linecap:round; stroke-width:0.25;"/>
<line x1="345.150000" y1="68.000000" x2="337.800000" y2="68.000000"  style="stroke:black; stroke-linecap:round; stroke-width:0.25;"/>
<line x1="349.150000" y1="68.000000" x2="345.150000" y2="68.000000"  style="stroke:black; stroke-linecap:round; stroke-width:0.25;"/>
<line x1="384.500000" y1="88.000000" x2="341.150000" y2="88.000000"  style="stroke:black; stroke-linecap:round; stroke-width:0.25;"/>
<line x1="384.500000" y1="88.000000" x2="384.500000" y2="88.000000"  style="stroke:black; stroke-linecap:round; stroke-width:0.25;"/>
<line x1="384.500000" y1="104.000000" x2="384.500000" y2="88.000000"  style="stroke:black; stroke-linecap:round; stroke-width:0.25;"/>
<line x1="384.500000" y1="108.000000" x2="386.500000" y2="108.000000"  style="stroke:black; stroke-linecap:round; stroke-width:0.25;"/>
<line x1="386.500000" y1="108.000000" x2="392.500000" y2="108.000000"  style="stroke:black; stroke-linecap:round; stroke-width:0.25;"/>
<line x1="392.500000" y1="108.000000" x2="430.500000" y2="52.000000"  style="stroke:black; stroke-linecap:round; stroke-width:0.25;"/>
<line x1="392.500000" y1="108.000000" x2="430.500000" y2="92.000000"  style="stroke:black; stroke-linecap:round; stroke-width:0.25;"/>
<line x1="430.500000" y1="52.000000" x2="446.500000" y2="52.000000"  style="stroke:black; stroke-linecap:round; stroke-width:0.25;"/>
<line x1="430.500000" y1="92.000000" x2="466.500000" y2="92.000000"  style="stroke:black; stroke-linecap:round; stroke-width:0.25;"/>
<line x1="446.500000" y1="52.000000" x2="462.500000" y2="52.000000"  style="stroke:black; stroke-linecap:round; stroke-width:0.25;"/>
<line x1="458.500000" y1="72.000000" x2="462.500000" y2="72.000000"  style="stroke:black; stroke-linecap:round; stroke-width:0.25;"/>
<line x1="462.500000" y1="52.000000" x2="470.500000" y2="52.000000"  style="stroke:black; stroke-linecap:round; stroke-width:0.25;"/>
<line x1="462.500000" y1="72.000000" x2="470.500000" y2="72.000000"  style="stroke:black; stroke-linecap:round; stroke-width:0.25;"/>
<line x1="466.500000" y1="92.000000" x2="502.500000" y2="92.000000"  style="stroke:black; stroke-linecap:round; stroke-width:0.25;"/>
<line x1="470.500000" y1="52.000000" x2="470.500000" y2="64.000000"  style="stroke:black; stroke-linecap:round; stroke-width:0.25;"/>
<line x1="470.500000" y1="64.000000" x2="470.500000" y2="64.000000"  style="stroke:black; stroke-linecap:round; stroke-width:0.25;"/>
<line x1="470.500000" y1="64.000000" x2="474.500000" y2="64.000000"  style="stroke:black; stroke-linecap:round; stroke-width:0.25;"/>
<line x1="470.500000" y1="72.000000" x2="474.500000" y2="72.000000"  style="stroke:black; stroke-linecap:round; stroke-width:0.25;"/>
<line x1="498.500000" y1="68.000000" x2="502.500000" y2="68.000000"  style="stroke:black; stroke-linecap:round; stroke-width:0.25;"/>
<line x1="502.500000" y1="68.000000" x2="510.500000" y2="68.000000"  style="stroke:black; stroke-linecap:round; stroke-width:0.25;"/>
<line x1="502.500000" y1="76.000000" x2="510.500000" y2="76.000000"  style="stroke:black; stroke-linecap:round; stroke-width:0.25;"/>
<line x1="502.500000" y1="92.000000" x2="502.500000" y2="76.000000"  style="stroke:black; stroke-linecap:round; stroke-width:0.25;"/>
<line x1="502.500000" y1="92.000000" x2="502.500000" y2="92.000000"  style="stroke:black; stroke-linecap:round; stroke-width:0.25;"/>
<line x1="510.500000" y1="68.000000" x2="514.500000" y2="68.000000"  style="stroke:black; stroke-linecap:round; stroke-width:0.25;"/>
<line x1="510.500000" y1="76.000000" x2="514.500000" y2="76.000000"  style="stroke:black; stroke-linecap:round; stroke-width:0.25;"/>
<line x1="538.500000" y1="72.000000" x2="542.500000" y2="72.000000"  style="stroke:black; stroke-linecap:round; stroke-width:0.25;"/>
<line x1="542.500000" y1="72.000000" x2="542.500000" y2="72.000000"  style="stroke:black; stroke-linecap:round; stroke-width:0.25;"/>
<line x1="542.500000" y1="72.000000" x2="546.500000" y2="72.000000"  style="stroke:black; stroke-linecap:round; stroke-width:0.25;"/>
<line x1="546.500000" y1="72.000000" x2="550.500000" y2="72.000000"  style="stroke:black; stroke-linecap:round; stroke-width:0.25;"/>
<line x1="550.500000" y1="72.000000" x2="560.500000" y2="72.000000"  style="stroke:black; stroke-linecap:round; stroke-width:0.25;"/>
</svg>
