<?xml version="1.0"?>
<svg xmlns="http://www.w3.org/2000/svg" xmlns:xlink="http://www.w3.org/1999/xlink" viewBox="0 0 695.900000 120.000000" width="347.950000mm" height="60.000000mm" version="1.1">
<a xlink:href="filtering-0x7f8add42dc80.svg">
<rect x="1.000000" y="1.000000" width="694.900000" height="119.000000" rx="0" ry="0" style="stroke:none;fill:#cccccc;"/>
<rect x="0.000000" y="0.000000" width="694.900000" height="119.000000" rx="0" ry="0" style="stroke:none;fill:#ffffff;"/>
</a>
<text x="10.000000" y="7.000000" font-family="Arial" font-size="7"></text>
<rect x="41.000000" y="33.000000" width="24.000000" height="24.000000" rx="0" ry="0" style="stroke:none;fill:#cccccc;"/>
<rect x="40.000000" y="32.000000" width="24.000000" height="24.000000" rx="0" ry="0" style="stroke:none;fill:#47945E;"/>
<text x="52.000000" y="46.000000" font-family="Arial" font-size="7" text-anchor="middle" fill="#FFFFFF">y1</text>
<circle cx="42.000000" cy="34.000000" r="1"/>
<line x1="37.000000" y1="43.000000" x2="40.000000" y2="44.000000"  transform="rotate(0.000000,40.000000,44.000000)" style="stroke: black; stroke-width:0.25;"/>
<line x1="37.000000" y1="45.000000" x2="40.000000" y2="44.000000"  transform="rotate(0.000000,40.000000,44.000000)" style="stroke: black; stroke-width:0.25;"/>
<rect x="41.000000" y="65.000000" width="24.000000" height="24.000000" rx="0" ry="0" style="stroke:none;fill:#cccccc;"/>
<rect x="40.000000" y="64.000000" width="24.000000" height="24.000000" rx="0" ry="0" style="stroke:none;fill:#47945E;"/>
<text x="52.000000" y="78.000000" font-family="Arial" font-size="7" text-anchor="middle" fill="#FFFFFF">y2</text>
<circle cx="42.000000" cy="66.000000" r="1"/>
<line x1="37.000000" y1="75.000000" x2="40.000000" y2="76.000000"  transform="rotate(0.000000,40.000000,76.000000)" style="stroke: black; stroke-width:0.25;"/>
<line x1="37.000000" y1="77.000000" x2="40.000000" y2="76.000000"  transform="rotate(0.000000,40.000000,76.000000)" style="stroke: black; stroke-width:0.25;"/>
<rect x="73.000000" y="33.000000" width="24.000000" height="24.000000" rx="0" ry="0" style="stroke:none;fill:#cccccc;"/>
<rect x="72.000000" y="32.000000" width="24.000000" height="24.000000" rx="0" ry="0" style="stroke:none;fill:#47945E;"/>
<text x="84.000000" y="46.000000" font-family="Arial" font-size="7" text-anchor="middle" fill="#FFFFFF">y1</text>
<circle cx="74.000000" cy="34.000000" r="1"/>
<rect x="73.000000" y="65.000000" width="24.000000" height="24.000000" rx="0" ry="0" style="stroke:none;fill:#cccccc;"/>
<rect x="72.000000" y="64.000000" width="24.000000" height="24.000000" rx="0" ry="0" style="stroke:none;fill:#47945E;"/>
<text x="84.000000" y="78.000000" font-family="Arial" font-size="7" text-anchor="middle" fill="#FFFFFF">y2</text>
<circle cx="74.000000" cy="66.000000" r="1"/>
<a xlink:href="decide-0x7f8adc370f40.svg">
<rect x="144.350000" y="25.000000" width="51.600000" height="32.000000" rx="0" ry="0" style="stroke:none;fill:#cccccc;"/>
<rect x="143.350000" y="24.000000" width="51.600000" height="32.000000" rx="0" ry="0" style="stroke:none;fill:#003366;"/>
</a>
<a xlink:href="decide-0x7f8adc370f40.svg">
<text x="169.150000" y="42.000000" font-family="Arial" font-size="7" text-anchor="middle" fill="#FFFFFF">decide_q_b</text>
</a>
<circle cx="145.350000" cy="26.000000" r="1"/>
<line x1="140.350000" y1="35.000000" x2="143.350000" y2="36.000000"  transform="rotate(0.000000,143.350000,36.000000)" style="stroke: black; stroke-width:0.25;"/>
<line x1="140.350000" y1="37.000000" x2="143.350000" y2="36.000000"  transform="rotate(0.000000,143.350000,36.000000)" style="stroke: black; stroke-width:0.25;"/>
<line x1="140.350000" y1="43.000000" x2="143.350000" y2="44.000000"  transform="rotate(0.000000,143.350000,44.000000)" style="stroke: black; stroke-width:0.25;"/>
<line x1="140.350000" y1="45.000000" x2="143.350000" y2="44.000000"  transform="rotate(0.000000,143.350000,44.000000)" style="stroke: black; stroke-width:0.25;"/>
<rect x="121.000000" y="69.000000" width="25.800000" height="24.000000" rx="0" ry="0" style="stroke:none;fill:#cccccc;"/>
<rect x="120.000000" y="68.000000" width="25.800000" height="24.000000" rx="0" ry="0" style="stroke:none;fill:#47945E;"/>
<text x="132.900000" y="82.000000" font-family="Arial" font-size="7" text-anchor="middle" fill="#FFFFFF">clock</text>
<circle cx="122.000000" cy="70.000000" r="1"/>
<a xlink:href="qpsk-0x7f8add415880.svg">
<rect x="154.800000" y="65.000000" width="64.500000" height="32.000000" rx="0" ry="0" style="stroke:none;fill:#cccccc;"/>
<rect x="153.800000" y="64.000000" width="64.500000" height="32.000000" rx="0" ry="0" style="stroke:none;fill:#003366;"/>
</a>
<a xlink:href="qpsk-0x7f8add415880.svg">
<text x="186.050000" y="82.000000" font-family="Arial" font-size="7" text-anchor="middle" fill="#FFFFFF">qpsk_training</text>
</a>
<circle cx="155.800000" cy="66.000000" r="1"/>
<line x1="150.800000" y1="79.000000" x2="153.800000" y2="80.000000"  transform="rotate(0.000000,153.800000,80.000000)" style="stroke: black; stroke-width:0.25;"/>
<line x1="150.800000" y1="81.000000" x2="153.800000" y2="80.000000"  transform="rotate(0.000000,153.800000,80.000000)" style="stroke: black; stroke-width:0.25;"/>
<a xlink:href="switchbits-0x7f8add359fc0.svg">
<rect x="259.300000" y="29.000000" width="51.600000" height="64.000000" rx="0" ry="0" style="stroke:none;fill:#cccccc;"/>
<rect x="258.300000" y="28.000000" width="51.600000" height="64.000000" rx="0" ry="0" style="stroke:none;fill:#003366;"/>
</a>
<a xlink:href="switchbits-0x7f8add359fc0.svg">
<text x="284.100000" y="62.000000" font-family="Arial" font-size="7" text-anchor="middle" fill="#FFFFFF">switchbits</text>
</a>
<circle cx="260.300000" cy="30.000000" r="1"/>
<line x1="255.300000" y1="31.000000" x2="258.300000" y2="32.000000"  transform="rotate(0.000000,258.300000,32.000000)" style="stroke: black; stroke-width:0.25;"/>
<line x1="255.300000" y1="33.000000" x2="258.300000" y2="32.000000"  transform="rotate(0.000000,258.300000,32.000000)" style="stroke: black; stroke-width:0.25;"/>
<line x1="255.300000" y1="39.000000" x2="258.300000" y2="40.000000"  transform="rotate(0.000000,258.300000,40.000000)" style="stroke: black; stroke-width:0.25;"/>
<line x1="255.300000" y1="41.000000" x2="258.300000" y2="40.000000"  transform="rotate(0.000000,258.300000,40.000000)" style="stroke: black; stroke-width:0.25;"/>
<line x1="255.300000" y1="47.000000" x2="258.300000" y2="48.000000"  transform="rotate(0.000000,258.300000,48.000000)" style="stroke: black; stroke-width:0.25;"/>
<line x1="255.300000" y1="49.000000" x2="258.300000" y2="48.000000"  transform="rotate(0.000000,258.300000,48.000000)" style="stroke: black; stroke-width:0.25;"/>
<line x1="255.300000" y1="55.000000" x2="258.300000" y2="56.000000"  transform="rotate(0.000000,258.300000,56.000000)" style="stroke: black; stroke-width:0.25;"/>
<line x1="255.300000" y1="57.000000" x2="258.300000" y2="56.000000"  transform="rotate(0.000000,258.300000,56.000000)" style="stroke: black; stroke-width:0.25;"/>
<line x1="255.300000" y1="63.000000" x2="258.300000" y2="64.000000"  transform="rotate(0.000000,258.300000,64.000000)" style="stroke: black; stroke-width:0.25;"/>
<line x1="255.300000" y1="65.000000" x2="258.300000" y2="64.000000"  transform="rotate(0.000000,258.300000,64.000000)" style="stroke: black; stroke-width:0.25;"/>
<line x1="255.300000" y1="71.000000" x2="258.300000" y2="72.000000"  transform="rotate(0.000000,258.300000,72.000000)" style="stroke: black; stroke-width:0.25;"/>
<line x1="255.300000" y1="73.000000" x2="258.300000" y2="72.000000"  transform="rotate(0.000000,258.300000,72.000000)" style="stroke: black; stroke-width:0.25;"/>
<line x1="255.300000" y1="79.000000" x2="258.300000" y2="80.000000"  transform="rotate(0.000000,258.300000,80.000000)" style="stroke: black; stroke-width:0.25;"/>
<line x1="255.300000" y1="81.000000" x2="258.300000" y2="80.000000"  transform="rotate(0.000000,258.300000,80.000000)" style="stroke: black; stroke-width:0.25;"/>
<line x1="255.300000" y1="87.000000" x2="258.300000" y2="88.000000"  transform="rotate(0.000000,258.300000,88.000000)" style="stroke: black; stroke-width:0.25;"/>
<line x1="255.300000" y1="89.000000" x2="258.300000" y2="88.000000"  transform="rotate(0.000000,258.300000,88.000000)" style="stroke: black; stroke-width:0.25;"/>
<a xlink:href="bitinterrupt-0x7f8add1e1360.svg">
<rect x="318.900000" y="45.000000" width="129.000000" height="32.000000" rx="0" ry="0" style="stroke:none;fill:#cccccc;"/>
<rect x="317.900000" y="44.000000" width="129.000000" height="32.000000" rx="0" ry="0" style="stroke:none;fill:#003366;"/>
</a>
<a xlink:href="bitinterrupt-0x7f8add1e1360.svg">
<text x="382.400000" y="62.000000" font-family="Arial" font-size="7" text-anchor="middle" fill="#FFFFFF">bitinterrupt_...(&quot;bitwrite&quot;))</text>
</a>
<circle cx="319.900000" cy="46.000000" r="1"/>
<line x1="314.900000" y1="47.000000" x2="317.900000" y2="48.000000"  transform="rotate(0.000000,317.900000,48.000000)" style="stroke: black; stroke-width:0.25;"/>
<line x1="314.900000" y1="49.000000" x2="317.900000" y2="48.000000"  transform="rotate(0.000000,317.900000,48.000000)" style="stroke: black; stroke-width:0.25;"/>
<line x1="314.900000" y1="55.000000" x2="317.900000" y2="56.000000"  transform="rotate(0.000000,317.900000,56.000000)" style="stroke: black; stroke-width:0.25;"/>
<line x1="314.900000" y1="57.000000" x2="317.900000" y2="56.000000"  transform="rotate(0.000000,317.900000,56.000000)" style="stroke: black; stroke-width:0.25;"/>
<line x1="314.900000" y1="63.000000" x2="317.900000" y2="64.000000"  transform="rotate(0.000000,317.900000,64.000000)" style="stroke: black; stroke-width:0.25;"/>
<line x1="314.900000" y1="65.000000" x2="317.900000" y2="64.000000"  transform="rotate(0.000000,317.900000,64.000000)" style="stroke: black; stroke-width:0.25;"/>
<line x1="314.900000" y1="71.000000" x2="317.900000" y2="72.000000"  transform="rotate(0.000000,317.900000,72.000000)" style="stroke: black; stroke-width:0.25;"/>
<line x1="314.900000" y1="73.000000" x2="317.900000" y2="72.000000"  transform="rotate(0.000000,317.900000,72.000000)" style="stroke: black; stroke-width:0.25;"/>
<a xlink:href="remapper-0x7f8add426da0.svg">
<rect x="455.900000" y="45.000000" width="38.700000" height="32.000000" rx="0" ry="0" style="stroke:none;fill:#cccccc;"/>
<rect x="454.900000" y="44.000000" width="38.700000" height="32.000000" rx="0" ry="0" style="stroke:none;fill:#003366;"/>
</a>
<a xlink:href="remapper-0x7f8add426da0.svg">
<text x="474.250000" y="62.000000" font-family="Arial" font-size="7" text-anchor="middle" fill="#FFFFFF">remapper</text>
</a>
<circle cx="456.900000" cy="46.000000" r="1"/>
<line x1="451.900000" y1="47.000000" x2="454.900000" y2="48.000000"  transform="rotate(0.000000,454.900000,48.000000)" style="stroke: black; stroke-width:0.25;"/>
<line x1="451.900000" y1="49.000000" x2="454.900000" y2="48.000000"  transform="rotate(0.000000,454.900000,48.000000)" style="stroke: black; stroke-width:0.25;"/>
<line x1="451.900000" y1="55.000000" x2="454.900000" y2="56.000000"  transform="rotate(0.000000,454.900000,56.000000)" style="stroke: black; stroke-width:0.25;"/>
<line x1="451.900000" y1="57.000000" x2="454.900000" y2="56.000000"  transform="rotate(0.000000,454.900000,56.000000)" style="stroke: black; stroke-width:0.25;"/>
<line x1="451.900000" y1="63.000000" x2="454.900000" y2="64.000000"  transform="rotate(0.000000,454.900000,64.000000)" style="stroke: black; stroke-width:0.25;"/>
<line x1="451.900000" y1="65.000000" x2="454.900000" y2="64.000000"  transform="rotate(0.000000,454.900000,64.000000)" style="stroke: black; stroke-width:0.25;"/>
<line x1="451.900000" y1="71.000000" x2="454.900000" y2="72.000000"  transform="rotate(0.000000,454.900000,72.000000)" style="stroke: black; stroke-width:0.25;"/>
<line x1="451.900000" y1="73.000000" x2="454.900000" y2="72.000000"  transform="rotate(0.000000,454.900000,72.000000)" style="stroke: black; stroke-width:0.25;"/>
<a xlink:href="phasediff-0x7f8add42a200.svg">
<rect x="542.600000" y="25.000000" width="90.300000" height="24.000000" rx="0" ry="0" style="stroke:none;fill:#cccccc;"/>
<rect x="541.600000" y="24.000000" width="90.300000" height="24.000000" rx="0" ry="0" style="stroke:none;fill:#003366;"/>
</a>
<a xlink:href="phasediff-0x7f8add42a200.svg">
<text x="586.750000" y="38.000000" font-family="Arial" font-size="7" text-anchor="middle" fill="#FFFFFF">phasediff(x55)(x56)</text>
</a>
<circle cx="543.600000" cy="26.000000" r="1"/>
<line x1="538.600000" y1="31.000000" x2="541.600000" y2="32.000000"  transform="rotate(0.000000,541.600000,32.000000)" style="stroke: black; stroke-width:0.25;"/>
<line x1="538.600000" y1="33.000000" x2="541.600000" y2="32.000000"  transform="rotate(0.000000,541.600000,32.000000)" style="stroke: black; stroke-width:0.25;"/>
<line x1="538.600000" y1="39.000000" x2="541.600000" y2="40.000000"  transform="rotate(0.000000,541.600000,40.000000)" style="stroke: black; stroke-width:0.25;"/>
<line x1="538.600000" y1="41.000000" x2="541.600000" y2="40.000000"  transform="rotate(0.000000,541.600000,40.000000)" style="stroke: black; stroke-width:0.25;"/>
<a xlink:href="diff-0x7f8add42d110.svg">
<rect x="555.500000" y="57.000000" width="64.500000" height="24.000000" rx="0" ry="0" style="stroke:none;fill:#cccccc;"/>
<rect x="554.500000" y="56.000000" width="64.500000" height="24.000000" rx="0" ry="0" style="stroke:none;fill:#003366;"/>
</a>
<a xlink:href="diff-0x7f8add42d110.svg">
<text x="586.750000" y="70.000000" font-family="Arial" font-size="7" text-anchor="middle" fill="#FFFFFF">diff(x55)(x56)</text>
</a>
<circle cx="556.500000" cy="58.000000" r="1"/>
<line x1="551.500000" y1="63.000000" x2="554.500000" y2="64.000000"  transform="rotate(0.000000,554.500000,64.000000)" style="stroke: black; stroke-width:0.25;"/>
<line x1="551.500000" y1="65.000000" x2="554.500000" y2="64.000000"  transform="rotate(0.000000,554.500000,64.000000)" style="stroke: black; stroke-width:0.25;"/>
<line x1="551.500000" y1="71.000000" x2="554.500000" y2="72.000000"  transform="rotate(0.000000,554.500000,72.000000)" style="stroke: black; stroke-width:0.25;"/>
<line x1="551.500000" y1="73.000000" x2="554.500000" y2="72.000000"  transform="rotate(0.000000,554.500000,72.000000)" style="stroke: black; stroke-width:0.25;"/>
<line x1="15.000000" y1="15.000000" x2="15.000000" y2="105.000000"  style="stroke: black; stroke-linecap:round; stroke-width:0.25; stroke-dasharray:3,3;"/>
<line x1="15.000000" y1="105.000000" x2="680.900000" y2="105.000000"  style="stroke: black; stroke-linecap:round; stroke-width:0.25; stroke-dasharray:3,3;"/>
<line x1="680.900000" y1="105.000000" x2="680.900000" y2="15.000000"  style="stroke: black; stroke-linecap:round; stroke-width:0.25; stroke-dasharray:3,3;"/>
<line x1="15.000000" y1="15.000000" x2="20.000000" y2="15.000000"  style="stroke: black; stroke-linecap:round; stroke-width:0.25; stroke-dasharray:3,3;"/>
<line x1="65.150000" y1="15.000000" x2="680.900000" y2="15.000000"  style="stroke: black; stroke-linecap:round; stroke-width:0.25; stroke-dasharray:3,3;"/>
<text x="20.000000" y="17.000000" font-family="Arial" font-size="7">decide_remap</text>
<line x1="682.900000" y1="43.000000" x2="685.900000" y2="44.000000"  transform="rotate(0.000000,685.900000,44.000000)" style="stroke: black; stroke-width:0.25;"/>
<line x1="682.900000" y1="45.000000" x2="685.900000" y2="44.000000"  transform="rotate(0.000000,685.900000,44.000000)" style="stroke: black; stroke-width:0.25;"/>
<line x1="682.900000" y1="51.000000" x2="685.900000" y2="52.000000"  transform="rotate(0.000000,685.900000,52.000000)" style="stroke: black; stroke-width:0.25;"/>
<line x1="682.900000" y1="53.000000" x2="685.900000" y2="52.000000"  transform="rotate(0.000000,685.900000,52.000000)" style="stroke: black; stroke-width:0.25;"/>
<line x1="682.900000" y1="59.000000" x2="685.900000" y2="60.000000"  transform="rotate(0.000000,685.900000,60.000000)" style="stroke: black; stroke-width:0.25;"/>
<line x1="682.900000" y1="61.000000" x2="685.900000" y2="60.000000"  transform="rotate(0.000000,685.900000,60.000000)" style="stroke: black; stroke-width:0.25;"/>
<line x1="682.900000" y1="67.000000" x2="685.900000" y2="68.000000"  transform="rotate(0.000000,685.900000,68.000000)" style="stroke: black; stroke-width:0.25;"/>
<line x1="682.900000" y1="69.000000" x2="685.900000" y2="68.000000"  transform="rotate(0.000000,685.900000,68.000000)" style="stroke: black; stroke-width:0.25;"/>
<line x1="682.900000" y1="75.000000" x2="685.900000" y2="76.000000"  transform="rotate(0.000000,685.900000,76.000000)" style="stroke: black; stroke-width:0.25;"/>
<line x1="682.900000" y1="77.000000" x2="685.900000" y2="76.000000"  transform="rotate(0.000000,685.900000,76.000000)" style="stroke: black; stroke-width:0.25;"/>
<line x1="10.000000" y1="56.000000" x2="20.000000" y2="56.000000"  style="stroke:black; stroke-linecap:round; stroke-width:0.25;"/>
<line x1="10.000000" y1="64.000000" x2="20.000000" y2="64.000000"  style="stroke:black; stroke-linecap:round; stroke-width:0.25;"/>
<line x1="20.000000" y1="56.000000" x2="24.000000" y2="56.000000"  style="stroke:black; stroke-linecap:round; stroke-width:0.25;"/>
<line x1="20.000000" y1="64.000000" x2="24.000000" y2="64.000000"  style="stroke:black; stroke-linecap:round; stroke-width:0.25;"/>
<line x1="24.000000" y1="56.000000" x2="28.000000" y2="56.000000"  style="stroke:black; stroke-linecap:round; stroke-width:0.25;"/>
<line x1="24.000000" y1="64.000000" x2="28.000000" y2="64.000000"  style="stroke:black; stroke-linecap:round; stroke-width:0.25;"/>
<line x1="28.000000" y1="44.000000" x2="36.000000" y2="44.000000"  style="stroke:black; stroke-linecap:round; stroke-width:0.25;"/>
<line x1="28.000000" y1="56.000000" x2="28.000000" y2="44.000000"  style="stroke:black; stroke-linecap:round; stroke-width:0.25;"/>
<line x1="28.000000" y1="56.000000" x2="28.000000" y2="56.000000"  style="stroke:black; stroke-linecap:round; stroke-width:0.25;"/>
<line x1="28.000000" y1="64.000000" x2="36.000000" y2="64.000000"  style="stroke:black; stroke-linecap:round; stroke-width:0.25;"/>
<line x1="36.000000" y1="44.000000" x2="40.000000" y2="44.000000"  style="stroke:black; stroke-linecap:round; stroke-width:0.25;"/>
<line x1="36.000000" y1="64.000000" x2="36.000000" y2="76.000000"  style="stroke:black; stroke-linecap:round; stroke-width:0.25;"/>
<line x1="36.000000" y1="76.000000" x2="36.000000" y2="76.000000"  style="stroke:black; stroke-linecap:round; stroke-width:0.25;"/>
<line x1="36.000000" y1="76.000000" x2="40.000000" y2="76.000000"  style="stroke:black; stroke-linecap:round; stroke-width:0.25;"/>
<line x1="96.000000" y1="44.000000" x2="100.000000" y2="44.000000"  style="stroke:black; stroke-linecap:round; stroke-width:0.25;"/>
<line x1="96.000000" y1="76.000000" x2="100.000000" y2="76.000000"  style="stroke:black; stroke-linecap:round; stroke-width:0.25;"/>
<line x1="100.000000" y1="36.000000" x2="116.000000" y2="36.000000"  style="stroke:black; stroke-linecap:round; stroke-width:0.25;"/>
<line x1="100.000000" y1="44.000000" x2="100.000000" y2="36.000000"  style="stroke:black; stroke-linecap:round; stroke-width:0.25;"/>
<line x1="100.000000" y1="44.000000" x2="100.000000" y2="44.000000"  style="stroke:black; stroke-linecap:round; stroke-width:0.25;"/>
<line x1="100.000000" y1="76.000000" x2="108.000000" y2="76.000000"  style="stroke:black; stroke-linecap:round; stroke-width:0.25;"/>
<line x1="108.000000" y1="44.000000" x2="116.000000" y2="44.000000"  style="stroke:black; stroke-linecap:round; stroke-width:0.25;"/>
<line x1="108.000000" y1="76.000000" x2="108.000000" y2="44.000000"  style="stroke:black; stroke-linecap:round; stroke-width:0.25;"/>
<line x1="116.000000" y1="36.000000" x2="139.350000" y2="36.000000"  style="stroke:black; stroke-linecap:round; stroke-width:0.25;"/>
<line x1="116.000000" y1="44.000000" x2="139.350000" y2="44.000000"  style="stroke:black; stroke-linecap:round; stroke-width:0.25;"/>
<line x1="139.350000" y1="36.000000" x2="143.350000" y2="36.000000"  style="stroke:black; stroke-linecap:round; stroke-width:0.25;"/>
<line x1="139.350000" y1="44.000000" x2="143.350000" y2="44.000000"  style="stroke:black; stroke-linecap:round; stroke-width:0.25;"/>
<line x1="145.800000" y1="80.000000" x2="149.800000" y2="80.000000"  style="stroke:black; stroke-linecap:round; stroke-width:0.25;"/>
<line x1="149.800000" y1="80.000000" x2="149.800000" y2="80.000000"  style="stroke:black; stroke-linecap:round; stroke-width:0.25;"/>
<line x1="149.800000" y1="80.000000" x2="153.800000" y2="80.000000"  style="stroke:black; stroke-linecap:round; stroke-width:0.25;"/>
<line x1="194.950000" y1="28.000000" x2="198.950000" y2="28.000000"  style="stroke:black; stroke-linecap:round; stroke-width:0.25;"/>
<line x1="194.950000" y1="36.000000" x2="198.950000" y2="36.000000"  style="stroke:black; stroke-linecap:round; stroke-width:0.25;"/>
<line x1="194.950000" y1="44.000000" x2="198.950000" y2="44.000000"  style="stroke:black; stroke-linecap:round; stroke-width:0.25;"/>
<line x1="194.950000" y1="52.000000" x2="198.950000" y2="52.000000"  style="stroke:black; stroke-linecap:round; stroke-width:0.25;"/>
<line x1="198.950000" y1="28.000000" x2="222.300000" y2="28.000000"  style="stroke:black; stroke-linecap:round; stroke-width:0.25;"/>
<line x1="198.950000" y1="36.000000" x2="222.300000" y2="36.000000"  style="stroke:black; stroke-linecap:round; stroke-width:0.25;"/>
<line x1="198.950000" y1="44.000000" x2="222.300000" y2="44.000000"  style="stroke:black; stroke-linecap:round; stroke-width:0.25;"/>
<line x1="198.950000" y1="52.000000" x2="222.300000" y2="52.000000"  style="stroke:black; stroke-linecap:round; stroke-width:0.25;"/>
<line x1="218.300000" y1="68.000000" x2="222.300000" y2="68.000000"  style="stroke:black; stroke-linecap:round; stroke-width:0.25;"/>
<line x1="218.300000" y1="76.000000" x2="222.300000" y2="76.000000"  style="stroke:black; stroke-linecap:round; stroke-width:0.25;"/>
<line x1="218.300000" y1="84.000000" x2="222.300000" y2="84.000000"  style="stroke:black; stroke-linecap:round; stroke-width:0.25;"/>
<line x1="218.300000" y1="92.000000" x2="222.300000" y2="92.000000"  style="stroke:black; stroke-linecap:round; stroke-width:0.25;"/>
<line x1="222.300000" y1="28.000000" x2="254.300000" y2="28.000000"  style="stroke:black; stroke-linecap:round; stroke-width:0.25;"/>
<line x1="222.300000" y1="36.000000" x2="246.300000" y2="36.000000"  style="stroke:black; stroke-linecap:round; stroke-width:0.25;"/>
<line x1="222.300000" y1="44.000000" x2="238.300000" y2="44.000000"  style="stroke:black; stroke-linecap:round; stroke-width:0.25;"/>
<line x1="222.300000" y1="52.000000" x2="230.300000" y2="52.000000"  style="stroke:black; stroke-linecap:round; stroke-width:0.25;"/>
<line x1="222.300000" y1="64.000000" x2="254.300000" y2="64.000000"  style="stroke:black; stroke-linecap:round; stroke-width:0.25;"/>
<line x1="222.300000" y1="68.000000" x2="222.300000" y2="64.000000"  style="stroke:black; stroke-linecap:round; stroke-width:0.25;"/>
<line x1="222.300000" y1="68.000000" x2="222.300000" y2="68.000000"  style="stroke:black; stroke-linecap:round; stroke-width:0.25;"/>
<line x1="222.300000" y1="76.000000" x2="230.300000" y2="76.000000"  style="stroke:black; stroke-linecap:round; stroke-width:0.25;"/>
<line x1="222.300000" y1="84.000000" x2="238.300000" y2="84.000000"  style="stroke:black; stroke-linecap:round; stroke-width:0.25;"/>
<line x1="222.300000" y1="92.000000" x2="246.300000" y2="92.000000"  style="stroke:black; stroke-linecap:round; stroke-width:0.25;"/>
<line x1="230.300000" y1="52.000000" x2="230.300000" y2="56.000000"  style="stroke:black; stroke-linecap:round; stroke-width:0.25;"/>
<line x1="230.300000" y1="56.000000" x2="254.300000" y2="56.000000"  style="stroke:black; stroke-linecap:round; stroke-width:0.25;"/>
<line x1="230.300000" y1="72.000000" x2="254.300000" y2="72.000000"  style="stroke:black; stroke-linecap:round; stroke-width:0.25;"/>
<line x1="230.300000" y1="76.000000" x2="230.300000" y2="72.000000"  style="stroke:black; stroke-linecap:round; stroke-width:0.25;"/>
<line x1="238.300000" y1="44.000000" x2="238.300000" y2="48.000000"  style="stroke:black; stroke-linecap:round; stroke-width:0.25;"/>
<line x1="238.300000" y1="48.000000" x2="254.300000" y2="48.000000"  style="stroke:black; stroke-linecap:round; stroke-width:0.25;"/>
<line x1="238.300000" y1="80.000000" x2="254.300000" y2="80.000000"  style="stroke:black; stroke-linecap:round; stroke-width:0.25;"/>
<line x1="238.300000" y1="84.000000" x2="238.300000" y2="80.000000"  style="stroke:black; stroke-linecap:round; stroke-width:0.25;"/>
<line x1="246.300000" y1="36.000000" x2="246.300000" y2="40.000000"  style="stroke:black; stroke-linecap:round; stroke-width:0.25;"/>
<line x1="246.300000" y1="40.000000" x2="254.300000" y2="40.000000"  style="stroke:black; stroke-linecap:round; stroke-width:0.25;"/>
<line x1="246.300000" y1="88.000000" x2="254.300000" y2="88.000000"  style="stroke:black; stroke-linecap:round; stroke-width:0.25;"/>
<line x1="246.300000" y1="92.000000" x2="246.300000" y2="88.000000"  style="stroke:black; stroke-linecap:round; stroke-width:0.25;"/>
<line x1="254.300000" y1="28.000000" x2="254.300000" y2="32.000000"  style="stroke:black; stroke-linecap:round; stroke-width:0.25;"/>
<line x1="254.300000" y1="32.000000" x2="254.300000" y2="32.000000"  style="stroke:black; stroke-linecap:round; stroke-width:0.25;"/>
<line x1="254.300000" y1="32.000000" x2="258.300000" y2="32.000000"  style="stroke:black; stroke-linecap:round; stroke-width:0.25;"/>
<line x1="254.300000" y1="40.000000" x2="258.300000" y2="40.000000"  style="stroke:black; stroke-linecap:round; stroke-width:0.25;"/>
<line x1="254.300000" y1="48.000000" x2="258.300000" y2="48.000000"  style="stroke:black; stroke-linecap:round; stroke-width:0.25;"/>
<line x1="254.300000" y1="56.000000" x2="258.300000" y2="56.000000"  style="stroke:black; stroke-linecap:round; stroke-width:0.25;"/>
<line x1="254.300000" y1="64.000000" x2="258.300000" y2="64.000000"  style="stroke:black; stroke-linecap:round; stroke-width:0.25;"/>
<line x1="254.300000" y1="72.000000" x2="258.300000" y2="72.000000"  style="stroke:black; stroke-linecap:round; stroke-width:0.25;"/>
<line x1="254.300000" y1="80.000000" x2="258.300000" y2="80.000000"  style="stroke:black; stroke-linecap:round; stroke-width:0.25;"/>
<line x1="254.300000" y1="88.000000" x2="258.300000" y2="88.000000"  style="stroke:black; stroke-linecap:round; stroke-width:0.25;"/>
<line x1="309.900000" y1="48.000000" x2="313.900000" y2="48.000000"  style="stroke:black; stroke-linecap:round; stroke-width:0.25;"/>
<line x1="309.900000" y1="56.000000" x2="313.900000" y2="56.000000"  style="stroke:black; stroke-linecap:round; stroke-width:0.25;"/>
<line x1="309.900000" y1="64.000000" x2="313.900000" y2="64.000000"  style="stroke:black; stroke-linecap:round; stroke-width:0.25;"/>
<line x1="309.900000" y1="72.000000" x2="313.900000" y2="72.000000"  style="stroke:black; stroke-linecap:round; stroke-width:0.25;"/>
<line x1="313.900000" y1="48.000000" x2="313.900000" y2="48.000000"  style="stroke:black; stroke-linecap:round; stroke-width:0.25;"/>
<line x1="313.900000" y1="48.000000" x2="317.900000" y2="48.000000"  style="stroke:black; stroke-linecap:round; stroke-width:0.25;"/>
<line x1="313.900000" y1="56.000000" x2="313.900000" y2="56.000000"  style="stroke:black; stroke-linecap:round; stroke-width:0.25;"/>
<line x1="313.900000" y1="56.000000" x2="317.900000" y2="56.000000"  style="stroke:black; stroke-linecap:round; stroke-width:0.25;"/>
<line x1="313.900000" y1="64.000000" x2="313.900000" y2="64.000000"  style="stroke:black; stroke-linecap:round; stroke-width:0.25;"/>
<line x1="313.900000" y1="64.000000" x2="317.900000" y2="64.000000"  style="stroke:black; stroke-linecap:round; stroke-width:0.25;"/>
<line x1="313.900000" y1="72.000000" x2="313.900000" y2="72.000000"  style="stroke:black; stroke-linecap:round; stroke-width:0.25;"/>
<line x1="313.900000" y1="72.000000" x2="317.900000" y2="72.000000"  style="stroke:black; stroke-linecap:round; stroke-width:0.25;"/>
<line x1="446.900000" y1="48.000000" x2="450.900000" y2="48.000000"  style="stroke:black; stroke-linecap:round; stroke-width:0.25;"/>
<line x1="446.900000" y1="56.000000" x2="450.900000" y2="56.000000"  style="stroke:black; stroke-linecap:round; stroke-width:0.25;"/>
<line x1="446.900000" y1="64.000000" x2="450.900000" y2="64.000000"  style="stroke:black; stroke-linecap:round; stroke-width:0.25;"/>
<line x1="446.900000" y1="72.000000" x2="450.900000" y2="72.000000"  style="stroke:black; stroke-linecap:round; stroke-width:0.25;"/>
<line x1="450.900000" y1="48.000000" x2="450.900000" y2="48.000000"  style="stroke:black; stroke-linecap:round; stroke-width:0.25;"/>
<line x1="450.900000" y1="48.000000" x2="454.900000" y2="48.000000"  style="stroke:black; stroke-linecap:round; stroke-width:0.25;"/>
<line x1="450.900000" y1="56.000000" x2="450.900000" y2="56.000000"  style="stroke:black; stroke-linecap:round; stroke-width:0.25;"/>
<line x1="450.900000" y1="56.000000" x2="454.900000" y2="56.000000"  style="stroke:black; stroke-linecap:round; stroke-width:0.25;"/>
<line x1="450.900000" y1="64.000000" x2="450.900000" y2="64.000000"  style="stroke:black; stroke-linecap:round; stroke-width:0.25;"/>
<line x1="450.900000" y1="64.000000" x2="454.900000" y2="64.000000"  style="stroke:black; stroke-linecap:round; stroke-width:0.25;"/>
<line x1="450.900000" y1="72.000000" x2="450.900000" y2="72.000000"  style="stroke:black; stroke-linecap:round; stroke-width:0.25;"/>
<line x1="450.900000" y1="72.000000" x2="454.900000" y2="72.000000"  style="stroke:black; stroke-linecap:round; stroke-width:0.25;"/>
<line x1="493.600000" y1="56.000000" x2="497.600000" y2="56.000000"  style="stroke:black; stroke-linecap:round; stroke-width:0.25;"/>
<line x1="493.600000" y1="64.000000" x2="497.600000" y2="64.000000"  style="stroke:black; stroke-linecap:round; stroke-width:0.25;"/>
<line x1="497.600000" y1="56.000000" x2="537.600000" y2="32.000000"  style="stroke:black; stroke-linecap:round; stroke-width:0.25;"/>
<line x1="497.600000" y1="56.000000" x2="537.600000" y2="64.000000"  style="stroke:black; stroke-linecap:round; stroke-width:0.25;"/>
<line x1="497.600000" y1="56.000000" x2="537.600000" y2="88.000000"  style="stroke:black; stroke-linecap:round; stroke-width:0.25;"/>
<line x1="497.600000" y1="64.000000" x2="537.600000" y2="40.000000"  style="stroke:black; stroke-linecap:round; stroke-width:0.25;"/>
<line x1="497.600000" y1="64.000000" x2="537.600000" y2="72.000000"  style="stroke:black; stroke-linecap:round; stroke-width:0.25;"/>
<line x1="497.600000" y1="64.000000" x2="537.600000" y2="96.000000"  style="stroke:black; stroke-linecap:round; stroke-width:0.25;"/>
<line x1="537.600000" y1="32.000000" x2="541.600000" y2="32.000000"  style="stroke:black; stroke-linecap:round; stroke-width:0.25;"/>
<line x1="537.600000" y1="40.000000" x2="541.600000" y2="40.000000"  style="stroke:black; stroke-linecap:round; stroke-width:0.25;"/>
<line x1="537.600000" y1="64.000000" x2="550.500000" y2="64.000000"  style="stroke:black; stroke-linecap:round; stroke-width:0.25;"/>
<line x1="537.600000" y1="72.000000" x2="550.500000" y2="72.000000"  style="stroke:black; stroke-linecap:round; stroke-width:0.25;"/>
<line x1="537.600000" y1="88.000000" x2="550.500000" y2="88.000000"  style="stroke:black; stroke-linecap:round; stroke-width:0.25;"/>
<line x1="537.600000" y1="96.000000" x2="550.500000" y2="96.000000"  style="stroke:black; stroke-linecap:round; stroke-width:0.25;"/>
<line x1="550.500000" y1="64.000000" x2="554.500000" y2="64.000000"  style="stroke:black; stroke-linecap:round; stroke-width:0.25;"/>
<line x1="550.500000" y1="72.000000" x2="554.500000" y2="72.000000"  style="stroke:black; stroke-linecap:round; stroke-width:0.25;"/>
<line x1="550.500000" y1="88.000000" x2="586.750000" y2="88.000000"  style="stroke:black; stroke-linecap:round; stroke-width:0.25;"/>
<line x1="550.500000" y1="96.000000" x2="586.750000" y2="96.000000"  style="stroke:black; stroke-linecap:round; stroke-width:0.25;"/>
<line x1="586.750000" y1="88.000000" x2="623.000000" y2="88.000000"  style="stroke:black; stroke-linecap:round; stroke-width:0.25;"/>
<line x1="586.750000" y1="96.000000" x2="623.000000" y2="96.000000"  style="stroke:black; stroke-linecap:round; stroke-width:0.25;"/>
<line x1="619.000000" y1="64.000000" x2="623.000000" y2="64.000000"  style="stroke:black; stroke-linecap:round; stroke-width:0.25;"/>
<line x1="619.000000" y1="72.000000" x2="623.000000" y2="72.000000"  style="stroke:black; stroke-linecap:round; stroke-width:0.25;"/>
<line x1="623.000000" y1="64.000000" x2="635.900000" y2="64.000000"  style="stroke:black; stroke-linecap:round; stroke-width:0.25;"/>
<line x1="623.000000" y1="72.000000" x2="635.900000" y2="72.000000"  style="stroke:black; stroke-linecap:round; stroke-width:0.25;"/>
<line x1="623.000000" y1="88.000000" x2="635.900000" y2="88.000000"  style="stroke:black; stroke-linecap:round; stroke-width:0.25;"/>
<line x1="623.000000" y1="96.000000" x2="635.900000" y2="96.000000"  style="stroke:black; stroke-linecap:round; stroke-width:0.25;"/>
<line x1="631.900000" y1="36.000000" x2="635.900000" y2="36.000000"  style="stroke:black; stroke-linecap:round; stroke-width:0.25;"/>
<line x1="635.900000" y1="36.000000" x2="667.900000" y2="36.000000"  style="stroke:black; stroke-linecap:round; stroke-width:0.25;"/>
<line x1="635.900000" y1="52.000000" x2="667.900000" y2="52.000000"  style="stroke:black; stroke-linecap:round; stroke-width:0.25;"/>
<line x1="635.900000" y1="64.000000" x2="635.900000" y2="52.000000"  style="stroke:black; stroke-linecap:round; stroke-width:0.25;"/>
<line x1="635.900000" y1="64.000000" x2="635.900000" y2="64.000000"  style="stroke:black; stroke-linecap:round; stroke-width:0.25;"/>
<line x1="635.900000" y1="72.000000" x2="643.900000" y2="72.000000"  style="stroke:black; stroke-linecap:round; stroke-width:0.25;"/>
<line x1="635.900000" y1="88.000000" x2="651.900000" y2="88.000000"  style="stroke:black; stroke-linecap:round; stroke-width:0.25;"/>
<line x1="635.900000" y1="96.000000" x2="659.900000" y2="96.000000"  style="stroke:black; stroke-linecap:round; stroke-width:0.25;"/>
<line x1="643.900000" y1="60.000000" x2="667.900000" y2="60.000000"  style="stroke:black; stroke-linecap:round; stroke-width:0.25;"/>
<line x1="643.900000" y1="72.000000" x2="643.900000" y2="60.000000"  style="stroke:black; stroke-linecap:round; stroke-width:0.25;"/>
<line x1="651.900000" y1="68.000000" x2="667.900000" y2="68.000000"  style="stroke:black; stroke-linecap:round; stroke-width:0.25;"/>
<line x1="651.900000" y1="88.000000" x2="651.900000" y2="68.000000"  style="stroke:black; stroke-linecap:round; stroke-width:0.25;"/>
<line x1="659.900000" y1="76.000000" x2="667.900000" y2="76.000000"  style="stroke:black; stroke-linecap:round; stroke-width:0.25;"/>
<line x1="659.900000" y1="96.000000" x2="659.900000" y2="76.000000"  style="stroke:black; stroke-linecap:round; stroke-width:0.25;"/>
<line x1="667.900000" y1="36.000000" x2="667.900000" y2="44.000000"  style="stroke:black; stroke-linecap:round; stroke-width:0.25;"/>
<line x1="667.900000" y1="44.000000" x2="667.900000" y2="44.000000"  style="stroke:black; stroke-linecap:round; stroke-width:0.25;"/>
<line x1="667.900000" y1="44.000000" x2="671.900000" y2="44.000000"  style="stroke:black; stroke-linecap:round; stroke-width:0.25;"/>
<line x1="667.900000" y1="52.000000" x2="671.900000" y2="52.000000"  style="stroke:black; stroke-linecap:round; stroke-width:0.25;"/>
<line x1="667.900000" y1="60.000000" x2="671.900000" y2="60.000000"  style="stroke:black; stroke-linecap:round; stroke-width:0.25;"/>
<line x1="667.900000" y1="68.000000" x2="671.900000" y2="68.000000"  style="stroke:black; stroke-linecap:round; stroke-width:0.25;"/>
<line x1="667.900000" y1="76.000000" x2="671.900000" y2="76.000000"  style="stroke:black; stroke-linecap:round; stroke-width:0.25;"/>
<line x1="671.900000" y1="44.000000" x2="675.900000" y2="44.000000"  style="stroke:black; stroke-linecap:round; stroke-width:0.25;"/>
<line x1="671.900000" y1="52.000000" x2="675.900000" y2="52.000000"  style="stroke:black; stroke-linecap:round; stroke-width:0.25;"/>
<line x1="671.900000" y1="60.000000" x2="675.900000" y2="60.000000"  style="stroke:black; stroke-linecap:round; stroke-width:0.25;"/>
<line x1="671.900000" y1="68.000000" x2="675.900000" y2="68.000000"  style="stroke:black; stroke-linecap:round; stroke-width:0.25;"/>
<line x1="671.900000" y1="76.000000" x2="675.900000" y2="76.000000"  style="stroke:black; stroke-linecap:round; stroke-width:0.25;"/>
<line x1="675.900000" y1="44.000000" x2="685.900000" y2="44.000000"  style="stroke:black; stroke-linecap:round; stroke-width:0.25;"/>
<line x1="675.900000" y1="52.000000" x2="685.900000" y2="52.000000"  style="stroke:black; stroke-linecap:round; stroke-width:0.25;"/>
<line x1="675.900000" y1="60.000000" x2="685.900000" y2="60.000000"  style="stroke:black; stroke-linecap:round; stroke-width:0.25;"/>
<line x1="675.900000" y1="68.000000" x2="685.900000" y2="68.000000"  style="stroke:black; stroke-linecap:round; stroke-width:0.25;"/>
<line x1="675.900000" y1="76.000000" x2="685.900000" y2="76.000000"  style="stroke:black; stroke-linecap:round; stroke-width:0.25;"/>
</svg>
