<?xml version="1.0"?>
<svg xmlns="http://www.w3.org/2000/svg" xmlns:xlink="http://www.w3.org/1999/xlink" viewBox="0 0 508.820000 312.000000" width="254.410000mm" height="156.000000mm" version="1.1">
<a xlink:href="decide-0x7f8add42d570.svg">
<rect x="1.000000" y="1.000000" width="507.820000" height="311.000000" rx="0" ry="0" style="stroke:none;fill:#cccccc;"/>
<rect x="0.000000" y="0.000000" width="507.820000" height="311.000000" rx="0" ry="0" style="stroke:none;fill:#ffffff;"/>
</a>
<text x="10.000000" y="7.000000" font-family="Arial" font-size="7"></text>
<a xlink:href="qpsk-0x7f8ada5dc110.svg">
<rect x="113.000000" y="121.000000" width="51.600000" height="32.000000" rx="0" ry="0" style="stroke:none;fill:#cccccc;"/>
<rect x="112.000000" y="120.000000" width="51.600000" height="32.000000" rx="0" ry="0" style="stroke:none;fill:#003366;"/>
</a>
<a xlink:href="qpsk-0x7f8ada5dc110.svg">
<text x="137.800000" y="138.000000" font-family="Arial" font-size="7" text-anchor="middle" fill="#FFFFFF">qpsk_decide</text>
</a>
<circle cx="114.000000" cy="122.000000" r="1"/>
<line x1="109.000000" y1="131.000000" x2="112.000000" y2="132.000000"  transform="rotate(0.000000,112.000000,132.000000)" style="stroke: black; stroke-width:0.25;"/>
<line x1="109.000000" y1="133.000000" x2="112.000000" y2="132.000000"  transform="rotate(0.000000,112.000000,132.000000)" style="stroke: black; stroke-width:0.25;"/>
<line x1="109.000000" y1="139.000000" x2="112.000000" y2="140.000000"  transform="rotate(0.000000,112.000000,140.000000)" style="stroke: black; stroke-width:0.25;"/>
<line x1="109.000000" y1="141.000000" x2="112.000000" y2="140.000000"  transform="rotate(0.000000,112.000000,140.000000)" style="stroke: black; stroke-width:0.25;"/>
<a xlink:href="bpsk-0x7f8ada5de0c0.svg">
<rect x="113.000000" y="161.000000" width="51.600000" height="32.000000" rx="0" ry="0" style="stroke:none;fill:#cccccc;"/>
<rect x="112.000000" y="160.000000" width="51.600000" height="32.000000" rx="0" ry="0" style="stroke:none;fill:#003366;"/>
</a>
<a xlink:href="bpsk-0x7f8ada5de0c0.svg">
<text x="137.800000" y="178.000000" font-family="Arial" font-size="7" text-anchor="middle" fill="#FFFFFF">bpsk_decide</text>
</a>
<circle cx="114.000000" cy="162.000000" r="1"/>
<line x1="109.000000" y1="171.000000" x2="112.000000" y2="172.000000"  transform="rotate(0.000000,112.000000,172.000000)" style="stroke: black; stroke-width:0.25;"/>
<line x1="109.000000" y1="173.000000" x2="112.000000" y2="172.000000"  transform="rotate(0.000000,112.000000,172.000000)" style="stroke: black; stroke-width:0.25;"/>
<line x1="109.000000" y1="179.000000" x2="112.000000" y2="180.000000"  transform="rotate(0.000000,112.000000,180.000000)" style="stroke: black; stroke-width:0.25;"/>
<line x1="109.000000" y1="181.000000" x2="112.000000" y2="180.000000"  transform="rotate(0.000000,112.000000,180.000000)" style="stroke: black; stroke-width:0.25;"/>
<rect x="311.720000" y="35.000000" width="77.400000" height="24.000000" rx="0" ry="0" style="stroke:none;fill:#cccccc;"/>
<rect x="310.720000" y="34.000000" width="77.400000" height="24.000000" rx="0" ry="0" style="stroke:none;fill:#477881;"/>
<text x="349.420000" y="48.000000" font-family="Arial" font-size="7" text-anchor="middle" fill="#FFFFFF">checkbox(Training)</text>
<circle cx="312.720000" cy="36.000000" r="1"/>
<line x1="301.720000" y1="25.000000" x2="301.720000" y2="67.000000"  style="stroke: black; stroke-linecap:round; stroke-width:0.25; stroke-dasharray:3,3;"/>
<line x1="301.720000" y1="67.000000" x2="397.120000" y2="67.000000"  style="stroke: black; stroke-linecap:round; stroke-width:0.25; stroke-dasharray:3,3;"/>
<line x1="397.120000" y1="67.000000" x2="397.120000" y2="25.000000"  style="stroke: black; stroke-linecap:round; stroke-width:0.25; stroke-dasharray:3,3;"/>
<line x1="301.720000" y1="25.000000" x2="306.720000" y2="25.000000"  style="stroke: black; stroke-linecap:round; stroke-width:0.25; stroke-dasharray:3,3;"/>
<line x1="358.320000" y1="25.000000" x2="397.120000" y2="25.000000"  style="stroke: black; stroke-linecap:round; stroke-width:0.25; stroke-dasharray:3,3;"/>
<text x="306.720000" y="27.000000" font-family="Arial" font-size="7">switchtraining</text>
<rect x="423.120000" y="43.000000" width="38.700000" height="24.000000" rx="0" ry="0" style="stroke:none;fill:#cccccc;"/>
<rect x="422.120000" y="42.000000" width="38.700000" height="24.000000" rx="0" ry="0" style="stroke:none;fill:#4B71A1;"/>
<text x="441.470000" y="56.000000" font-family="Arial" font-size="7" text-anchor="middle" fill="#FFFFFF">select2</text>
<circle cx="424.120000" cy="44.000000" r="1"/>
<line x1="419.120000" y1="45.000000" x2="422.120000" y2="46.000000"  transform="rotate(0.000000,422.120000,46.000000)" style="stroke: black; stroke-width:0.25;"/>
<line x1="419.120000" y1="47.000000" x2="422.120000" y2="46.000000"  transform="rotate(0.000000,422.120000,46.000000)" style="stroke: black; stroke-width:0.25;"/>
<line x1="419.120000" y1="53.000000" x2="422.120000" y2="54.000000"  transform="rotate(0.000000,422.120000,54.000000)" style="stroke: black; stroke-width:0.25;"/>
<line x1="419.120000" y1="55.000000" x2="422.120000" y2="54.000000"  transform="rotate(0.000000,422.120000,54.000000)" style="stroke: black; stroke-width:0.25;"/>
<line x1="419.120000" y1="61.000000" x2="422.120000" y2="62.000000"  transform="rotate(0.000000,422.120000,62.000000)" style="stroke: black; stroke-width:0.25;"/>
<line x1="419.120000" y1="63.000000" x2="422.120000" y2="62.000000"  transform="rotate(0.000000,422.120000,62.000000)" style="stroke: black; stroke-width:0.25;"/>
<rect x="311.720000" y="103.000000" width="77.400000" height="24.000000" rx="0" ry="0" style="stroke:none;fill:#cccccc;"/>
<rect x="310.720000" y="102.000000" width="77.400000" height="24.000000" rx="0" ry="0" style="stroke:none;fill:#477881;"/>
<text x="349.420000" y="116.000000" font-family="Arial" font-size="7" text-anchor="middle" fill="#FFFFFF">checkbox(Training)</text>
<circle cx="312.720000" cy="104.000000" r="1"/>
<line x1="301.720000" y1="93.000000" x2="301.720000" y2="135.000000"  style="stroke: black; stroke-linecap:round; stroke-width:0.25; stroke-dasharray:3,3;"/>
<line x1="301.720000" y1="135.000000" x2="397.120000" y2="135.000000"  style="stroke: black; stroke-linecap:round; stroke-width:0.25; stroke-dasharray:3,3;"/>
<line x1="397.120000" y1="135.000000" x2="397.120000" y2="93.000000"  style="stroke: black; stroke-linecap:round; stroke-width:0.25; stroke-dasharray:3,3;"/>
<line x1="301.720000" y1="93.000000" x2="306.720000" y2="93.000000"  style="stroke: black; stroke-linecap:round; stroke-width:0.25; stroke-dasharray:3,3;"/>
<line x1="358.320000" y1="93.000000" x2="397.120000" y2="93.000000"  style="stroke: black; stroke-linecap:round; stroke-width:0.25; stroke-dasharray:3,3;"/>
<text x="306.720000" y="95.000000" font-family="Arial" font-size="7">switchtraining</text>
<rect x="423.120000" y="111.000000" width="38.700000" height="24.000000" rx="0" ry="0" style="stroke:none;fill:#cccccc;"/>
<rect x="422.120000" y="110.000000" width="38.700000" height="24.000000" rx="0" ry="0" style="stroke:none;fill:#4B71A1;"/>
<text x="441.470000" y="124.000000" font-family="Arial" font-size="7" text-anchor="middle" fill="#FFFFFF">select2</text>
<circle cx="424.120000" cy="112.000000" r="1"/>
<line x1="419.120000" y1="113.000000" x2="422.120000" y2="114.000000"  transform="rotate(0.000000,422.120000,114.000000)" style="stroke: black; stroke-width:0.25;"/>
<line x1="419.120000" y1="115.000000" x2="422.120000" y2="114.000000"  transform="rotate(0.000000,422.120000,114.000000)" style="stroke: black; stroke-width:0.25;"/>
<line x1="419.120000" y1="121.000000" x2="422.120000" y2="122.000000"  transform="rotate(0.000000,422.120000,122.000000)" style="stroke: black; stroke-width:0.25;"/>
<line x1="419.120000" y1="123.000000" x2="422.120000" y2="122.000000"  transform="rotate(0.000000,422.120000,122.000000)" style="stroke: black; stroke-width:0.25;"/>
<line x1="419.120000" y1="129.000000" x2="422.120000" y2="130.000000"  transform="rotate(0.000000,422.120000,130.000000)" style="stroke: black; stroke-width:0.25;"/>
<line x1="419.120000" y1="131.000000" x2="422.120000" y2="130.000000"  transform="rotate(0.000000,422.120000,130.000000)" style="stroke: black; stroke-width:0.25;"/>
<rect x="311.720000" y="171.000000" width="77.400000" height="24.000000" rx="0" ry="0" style="stroke:none;fill:#cccccc;"/>
<rect x="310.720000" y="170.000000" width="77.400000" height="24.000000" rx="0" ry="0" style="stroke:none;fill:#477881;"/>
<text x="349.420000" y="184.000000" font-family="Arial" font-size="7" text-anchor="middle" fill="#FFFFFF">checkbox(Training)</text>
<circle cx="312.720000" cy="172.000000" r="1"/>
<line x1="301.720000" y1="161.000000" x2="301.720000" y2="203.000000"  style="stroke: black; stroke-linecap:round; stroke-width:0.25; stroke-dasharray:3,3;"/>
<line x1="301.720000" y1="203.000000" x2="397.120000" y2="203.000000"  style="stroke: black; stroke-linecap:round; stroke-width:0.25; stroke-dasharray:3,3;"/>
<line x1="397.120000" y1="203.000000" x2="397.120000" y2="161.000000"  style="stroke: black; stroke-linecap:round; stroke-width:0.25; stroke-dasharray:3,3;"/>
<line x1="301.720000" y1="161.000000" x2="306.720000" y2="161.000000"  style="stroke: black; stroke-linecap:round; stroke-width:0.25; stroke-dasharray:3,3;"/>
<line x1="358.320000" y1="161.000000" x2="397.120000" y2="161.000000"  style="stroke: black; stroke-linecap:round; stroke-width:0.25; stroke-dasharray:3,3;"/>
<text x="306.720000" y="163.000000" font-family="Arial" font-size="7">switchtraining</text>
<rect x="423.120000" y="179.000000" width="38.700000" height="24.000000" rx="0" ry="0" style="stroke:none;fill:#cccccc;"/>
<rect x="422.120000" y="178.000000" width="38.700000" height="24.000000" rx="0" ry="0" style="stroke:none;fill:#4B71A1;"/>
<text x="441.470000" y="192.000000" font-family="Arial" font-size="7" text-anchor="middle" fill="#FFFFFF">select2</text>
<circle cx="424.120000" cy="180.000000" r="1"/>
<line x1="419.120000" y1="181.000000" x2="422.120000" y2="182.000000"  transform="rotate(0.000000,422.120000,182.000000)" style="stroke: black; stroke-width:0.25;"/>
<line x1="419.120000" y1="183.000000" x2="422.120000" y2="182.000000"  transform="rotate(0.000000,422.120000,182.000000)" style="stroke: black; stroke-width:0.25;"/>
<line x1="419.120000" y1="189.000000" x2="422.120000" y2="190.000000"  transform="rotate(0.000000,422.120000,190.000000)" style="stroke: black; stroke-width:0.25;"/>
<line x1="419.120000" y1="191.000000" x2="422.120000" y2="190.000000"  transform="rotate(0.000000,422.120000,190.000000)" style="stroke: black; stroke-width:0.25;"/>
<line x1="419.120000" y1="197.000000" x2="422.120000" y2="198.000000"  transform="rotate(0.000000,422.120000,198.000000)" style="stroke: black; stroke-width:0.25;"/>
<line x1="419.120000" y1="199.000000" x2="422.120000" y2="198.000000"  transform="rotate(0.000000,422.120000,198.000000)" style="stroke: black; stroke-width:0.25;"/>
<rect x="311.720000" y="239.000000" width="77.400000" height="24.000000" rx="0" ry="0" style="stroke:none;fill:#cccccc;"/>
<rect x="310.720000" y="238.000000" width="77.400000" height="24.000000" rx="0" ry="0" style="stroke:none;fill:#477881;"/>
<text x="349.420000" y="252.000000" font-family="Arial" font-size="7" text-anchor="middle" fill="#FFFFFF">checkbox(Training)</text>
<circle cx="312.720000" cy="240.000000" r="1"/>
<line x1="301.720000" y1="229.000000" x2="301.720000" y2="271.000000"  style="stroke: black; stroke-linecap:round; stroke-width:0.25; stroke-dasharray:3,3;"/>
<line x1="301.720000" y1="271.000000" x2="397.120000" y2="271.000000"  style="stroke: black; stroke-linecap:round; stroke-width:0.25; stroke-dasharray:3,3;"/>
<line x1="397.120000" y1="271.000000" x2="397.120000" y2="229.000000"  style="stroke: black; stroke-linecap:round; stroke-width:0.25; stroke-dasharray:3,3;"/>
<line x1="301.720000" y1="229.000000" x2="306.720000" y2="229.000000"  style="stroke: black; stroke-linecap:round; stroke-width:0.25; stroke-dasharray:3,3;"/>
<line x1="358.320000" y1="229.000000" x2="397.120000" y2="229.000000"  style="stroke: black; stroke-linecap:round; stroke-width:0.25; stroke-dasharray:3,3;"/>
<text x="306.720000" y="231.000000" font-family="Arial" font-size="7">switchtraining</text>
<rect x="423.120000" y="247.000000" width="38.700000" height="24.000000" rx="0" ry="0" style="stroke:none;fill:#cccccc;"/>
<rect x="422.120000" y="246.000000" width="38.700000" height="24.000000" rx="0" ry="0" style="stroke:none;fill:#4B71A1;"/>
<text x="441.470000" y="260.000000" font-family="Arial" font-size="7" text-anchor="middle" fill="#FFFFFF">select2</text>
<circle cx="424.120000" cy="248.000000" r="1"/>
<line x1="419.120000" y1="249.000000" x2="422.120000" y2="250.000000"  transform="rotate(0.000000,422.120000,250.000000)" style="stroke: black; stroke-width:0.25;"/>
<line x1="419.120000" y1="251.000000" x2="422.120000" y2="250.000000"  transform="rotate(0.000000,422.120000,250.000000)" style="stroke: black; stroke-width:0.25;"/>
<line x1="419.120000" y1="257.000000" x2="422.120000" y2="258.000000"  transform="rotate(0.000000,422.120000,258.000000)" style="stroke: black; stroke-width:0.25;"/>
<line x1="419.120000" y1="259.000000" x2="422.120000" y2="258.000000"  transform="rotate(0.000000,422.120000,258.000000)" style="stroke: black; stroke-width:0.25;"/>
<line x1="419.120000" y1="265.000000" x2="422.120000" y2="266.000000"  transform="rotate(0.000000,422.120000,266.000000)" style="stroke: black; stroke-width:0.25;"/>
<line x1="419.120000" y1="267.000000" x2="422.120000" y2="266.000000"  transform="rotate(0.000000,422.120000,266.000000)" style="stroke: black; stroke-width:0.25;"/>
<line x1="15.000000" y1="15.000000" x2="15.000000" y2="297.000000"  style="stroke: black; stroke-linecap:round; stroke-width:0.25; stroke-dasharray:3,3;"/>
<line x1="15.000000" y1="297.000000" x2="493.820000" y2="297.000000"  style="stroke: black; stroke-linecap:round; stroke-width:0.25; stroke-dasharray:3,3;"/>
<line x1="493.820000" y1="297.000000" x2="493.820000" y2="15.000000"  style="stroke: black; stroke-linecap:round; stroke-width:0.25; stroke-dasharray:3,3;"/>
<line x1="15.000000" y1="15.000000" x2="20.000000" y2="15.000000"  style="stroke: black; stroke-linecap:round; stroke-width:0.25; stroke-dasharray:3,3;"/>
<line x1="58.700000" y1="15.000000" x2="493.820000" y2="15.000000"  style="stroke: black; stroke-linecap:round; stroke-width:0.25; stroke-dasharray:3,3;"/>
<text x="20.000000" y="17.000000" font-family="Arial" font-size="7">decide_q_b</text>
<line x1="495.820000" y1="143.000000" x2="498.820000" y2="144.000000"  transform="rotate(0.000000,498.820000,144.000000)" style="stroke: black; stroke-width:0.25;"/>
<line x1="495.820000" y1="145.000000" x2="498.820000" y2="144.000000"  transform="rotate(0.000000,498.820000,144.000000)" style="stroke: black; stroke-width:0.25;"/>
<line x1="495.820000" y1="151.000000" x2="498.820000" y2="152.000000"  transform="rotate(0.000000,498.820000,152.000000)" style="stroke: black; stroke-width:0.25;"/>
<line x1="495.820000" y1="153.000000" x2="498.820000" y2="152.000000"  transform="rotate(0.000000,498.820000,152.000000)" style="stroke: black; stroke-width:0.25;"/>
<line x1="495.820000" y1="159.000000" x2="498.820000" y2="160.000000"  transform="rotate(0.000000,498.820000,160.000000)" style="stroke: black; stroke-width:0.25;"/>
<line x1="495.820000" y1="161.000000" x2="498.820000" y2="160.000000"  transform="rotate(0.000000,498.820000,160.000000)" style="stroke: black; stroke-width:0.25;"/>
<line x1="495.820000" y1="167.000000" x2="498.820000" y2="168.000000"  transform="rotate(0.000000,498.820000,168.000000)" style="stroke: black; stroke-width:0.25;"/>
<line x1="495.820000" y1="169.000000" x2="498.820000" y2="168.000000"  transform="rotate(0.000000,498.820000,168.000000)" style="stroke: black; stroke-width:0.25;"/>
<line x1="10.000000" y1="152.000000" x2="20.000000" y2="152.000000"  style="stroke:black; stroke-linecap:round; stroke-width:0.25;"/>
<line x1="10.000000" y1="160.000000" x2="20.000000" y2="160.000000"  style="stroke:black; stroke-linecap:round; stroke-width:0.25;"/>
<line x1="20.000000" y1="152.000000" x2="24.000000" y2="152.000000"  style="stroke:black; stroke-linecap:round; stroke-width:0.25;"/>
<line x1="20.000000" y1="160.000000" x2="24.000000" y2="160.000000"  style="stroke:black; stroke-linecap:round; stroke-width:0.25;"/>
<line x1="24.000000" y1="152.000000" x2="28.000000" y2="152.000000"  style="stroke:black; stroke-linecap:round; stroke-width:0.25;"/>
<line x1="24.000000" y1="160.000000" x2="28.000000" y2="160.000000"  style="stroke:black; stroke-linecap:round; stroke-width:0.25;"/>
<line x1="28.000000" y1="152.000000" x2="28.000000" y2="152.000000"  style="stroke:black; stroke-linecap:round; stroke-width:0.25;"/>
<line x1="28.000000" y1="152.000000" x2="32.000000" y2="152.000000"  style="stroke:black; stroke-linecap:round; stroke-width:0.25;"/>
<line x1="28.000000" y1="160.000000" x2="28.000000" y2="160.000000"  style="stroke:black; stroke-linecap:round; stroke-width:0.25;"/>
<line x1="28.000000" y1="160.000000" x2="32.000000" y2="160.000000"  style="stroke:black; stroke-linecap:round; stroke-width:0.25;"/>
<line x1="32.000000" y1="152.000000" x2="36.000000" y2="152.000000"  style="stroke:black; stroke-linecap:round; stroke-width:0.25;"/>
<line x1="32.000000" y1="160.000000" x2="36.000000" y2="160.000000"  style="stroke:black; stroke-linecap:round; stroke-width:0.25;"/>
<line x1="36.000000" y1="152.000000" x2="108.000000" y2="132.000000"  style="stroke:black; stroke-linecap:round; stroke-width:0.25;"/>
<line x1="36.000000" y1="152.000000" x2="108.000000" y2="172.000000"  style="stroke:black; stroke-linecap:round; stroke-width:0.25;"/>
<line x1="36.000000" y1="160.000000" x2="108.000000" y2="140.000000"  style="stroke:black; stroke-linecap:round; stroke-width:0.25;"/>
<line x1="36.000000" y1="160.000000" x2="108.000000" y2="180.000000"  style="stroke:black; stroke-linecap:round; stroke-width:0.25;"/>
<line x1="108.000000" y1="132.000000" x2="112.000000" y2="132.000000"  style="stroke:black; stroke-linecap:round; stroke-width:0.25;"/>
<line x1="108.000000" y1="140.000000" x2="112.000000" y2="140.000000"  style="stroke:black; stroke-linecap:round; stroke-width:0.25;"/>
<line x1="108.000000" y1="172.000000" x2="112.000000" y2="172.000000"  style="stroke:black; stroke-linecap:round; stroke-width:0.25;"/>
<line x1="108.000000" y1="180.000000" x2="112.000000" y2="180.000000"  style="stroke:black; stroke-linecap:round; stroke-width:0.25;"/>
<line x1="163.600000" y1="124.000000" x2="167.600000" y2="124.000000"  style="stroke:black; stroke-linecap:round; stroke-width:0.25;"/>
<line x1="163.600000" y1="132.000000" x2="167.600000" y2="132.000000"  style="stroke:black; stroke-linecap:round; stroke-width:0.25;"/>
<line x1="163.600000" y1="140.000000" x2="167.600000" y2="140.000000"  style="stroke:black; stroke-linecap:round; stroke-width:0.25;"/>
<line x1="163.600000" y1="148.000000" x2="167.600000" y2="148.000000"  style="stroke:black; stroke-linecap:round; stroke-width:0.25;"/>
<line x1="163.600000" y1="164.000000" x2="167.600000" y2="164.000000"  style="stroke:black; stroke-linecap:round; stroke-width:0.25;"/>
<line x1="163.600000" y1="172.000000" x2="167.600000" y2="172.000000"  style="stroke:black; stroke-linecap:round; stroke-width:0.25;"/>
<line x1="163.600000" y1="180.000000" x2="167.600000" y2="180.000000"  style="stroke:black; stroke-linecap:round; stroke-width:0.25;"/>
<line x1="163.600000" y1="188.000000" x2="167.600000" y2="188.000000"  style="stroke:black; stroke-linecap:round; stroke-width:0.25;"/>
<line x1="167.600000" y1="124.000000" x2="199.600000" y2="124.000000"  style="stroke:black; stroke-linecap:round; stroke-width:0.25;"/>
<line x1="167.600000" y1="132.000000" x2="191.600000" y2="132.000000"  style="stroke:black; stroke-linecap:round; stroke-width:0.25;"/>
<line x1="167.600000" y1="140.000000" x2="183.600000" y2="140.000000"  style="stroke:black; stroke-linecap:round; stroke-width:0.25;"/>
<line x1="167.600000" y1="148.000000" x2="175.600000" y2="148.000000"  style="stroke:black; stroke-linecap:round; stroke-width:0.25;"/>
<line x1="167.600000" y1="160.000000" x2="199.600000" y2="160.000000"  style="stroke:black; stroke-linecap:round; stroke-width:0.25;"/>
<line x1="167.600000" y1="164.000000" x2="167.600000" y2="160.000000"  style="stroke:black; stroke-linecap:round; stroke-width:0.25;"/>
<line x1="167.600000" y1="164.000000" x2="167.600000" y2="164.000000"  style="stroke:black; stroke-linecap:round; stroke-width:0.25;"/>
<line x1="167.600000" y1="172.000000" x2="175.600000" y2="172.000000"  style="stroke:black; stroke-linecap:round; stroke-width:0.25;"/>
<line x1="167.600000" y1="180.000000" x2="183.600000" y2="180.000000"  style="stroke:black; stroke-linecap:round; stroke-width:0.25;"/>
<line x1="167.600000" y1="188.000000" x2="191.600000" y2="188.000000"  style="stroke:black; stroke-linecap:round; stroke-width:0.25;"/>
<line x1="175.600000" y1="148.000000" x2="175.600000" y2="152.000000"  style="stroke:black; stroke-linecap:round; stroke-width:0.25;"/>
<line x1="175.600000" y1="152.000000" x2="199.600000" y2="152.000000"  style="stroke:black; stroke-linecap:round; stroke-width:0.25;"/>
<line x1="175.600000" y1="168.000000" x2="199.600000" y2="168.000000"  style="stroke:black; stroke-linecap:round; stroke-width:0.25;"/>
<line x1="175.600000" y1="172.000000" x2="175.600000" y2="168.000000"  style="stroke:black; stroke-linecap:round; stroke-width:0.25;"/>
<line x1="183.600000" y1="140.000000" x2="183.600000" y2="144.000000"  style="stroke:black; stroke-linecap:round; stroke-width:0.25;"/>
<line x1="183.600000" y1="144.000000" x2="199.600000" y2="144.000000"  style="stroke:black; stroke-linecap:round; stroke-width:0.25;"/>
<line x1="183.600000" y1="176.000000" x2="199.600000" y2="176.000000"  style="stroke:black; stroke-linecap:round; stroke-width:0.25;"/>
<line x1="183.600000" y1="180.000000" x2="183.600000" y2="176.000000"  style="stroke:black; stroke-linecap:round; stroke-width:0.25;"/>
<line x1="191.600000" y1="132.000000" x2="191.600000" y2="136.000000"  style="stroke:black; stroke-linecap:round; stroke-width:0.25;"/>
<line x1="191.600000" y1="136.000000" x2="199.600000" y2="136.000000"  style="stroke:black; stroke-linecap:round; stroke-width:0.25;"/>
<line x1="191.600000" y1="184.000000" x2="199.600000" y2="184.000000"  style="stroke:black; stroke-linecap:round; stroke-width:0.25;"/>
<line x1="191.600000" y1="188.000000" x2="191.600000" y2="184.000000"  style="stroke:black; stroke-linecap:round; stroke-width:0.25;"/>
<line x1="199.600000" y1="124.000000" x2="199.600000" y2="128.000000"  style="stroke:black; stroke-linecap:round; stroke-width:0.25;"/>
<line x1="199.600000" y1="128.000000" x2="199.600000" y2="128.000000"  style="stroke:black; stroke-linecap:round; stroke-width:0.25;"/>
<line x1="199.600000" y1="128.000000" x2="203.600000" y2="128.000000"  style="stroke:black; stroke-linecap:round; stroke-width:0.25;"/>
<line x1="199.600000" y1="136.000000" x2="203.600000" y2="136.000000"  style="stroke:black; stroke-linecap:round; stroke-width:0.25;"/>
<line x1="199.600000" y1="144.000000" x2="203.600000" y2="144.000000"  style="stroke:black; stroke-linecap:round; stroke-width:0.25;"/>
<line x1="199.600000" y1="152.000000" x2="203.600000" y2="152.000000"  style="stroke:black; stroke-linecap:round; stroke-width:0.25;"/>
<line x1="199.600000" y1="160.000000" x2="203.600000" y2="160.000000"  style="stroke:black; stroke-linecap:round; stroke-width:0.25;"/>
<line x1="199.600000" y1="168.000000" x2="203.600000" y2="168.000000"  style="stroke:black; stroke-linecap:round; stroke-width:0.25;"/>
<line x1="199.600000" y1="176.000000" x2="203.600000" y2="176.000000"  style="stroke:black; stroke-linecap:round; stroke-width:0.25;"/>
<line x1="199.600000" y1="184.000000" x2="203.600000" y2="184.000000"  style="stroke:black; stroke-linecap:round; stroke-width:0.25;"/>
<line x1="203.600000" y1="128.000000" x2="207.600000" y2="128.000000"  style="stroke:black; stroke-linecap:round; stroke-width:0.25;"/>
<line x1="203.600000" y1="136.000000" x2="207.600000" y2="136.000000"  style="stroke:black; stroke-linecap:round; stroke-width:0.25;"/>
<line x1="203.600000" y1="144.000000" x2="207.600000" y2="144.000000"  style="stroke:black; stroke-linecap:round; stroke-width:0.25;"/>
<line x1="203.600000" y1="152.000000" x2="207.600000" y2="152.000000"  style="stroke:black; stroke-linecap:round; stroke-width:0.25;"/>
<line x1="203.600000" y1="160.000000" x2="207.600000" y2="160.000000"  style="stroke:black; stroke-linecap:round; stroke-width:0.25;"/>
<line x1="203.600000" y1="168.000000" x2="207.600000" y2="168.000000"  style="stroke:black; stroke-linecap:round; stroke-width:0.25;"/>
<line x1="203.600000" y1="176.000000" x2="207.600000" y2="176.000000"  style="stroke:black; stroke-linecap:round; stroke-width:0.25;"/>
<line x1="203.600000" y1="184.000000" x2="207.600000" y2="184.000000"  style="stroke:black; stroke-linecap:round; stroke-width:0.25;"/>
<line x1="207.600000" y1="128.000000" x2="240.720000" y2="125.760000"  style="stroke:black; stroke-linecap:round; stroke-width:0.25;"/>
<line x1="207.600000" y1="136.000000" x2="240.720000" y2="142.960000"  style="stroke:black; stroke-linecap:round; stroke-width:0.25;"/>
<line x1="207.600000" y1="144.000000" x2="240.720000" y2="160.160000"  style="stroke:black; stroke-linecap:round; stroke-width:0.25;"/>
<line x1="207.600000" y1="152.000000" x2="240.720000" y2="177.360000"  style="stroke:black; stroke-linecap:round; stroke-width:0.25;"/>
<line x1="207.600000" y1="160.000000" x2="240.720000" y2="134.640000"  style="stroke:black; stroke-linecap:round; stroke-width:0.25;"/>
<line x1="207.600000" y1="168.000000" x2="240.720000" y2="151.840000"  style="stroke:black; stroke-linecap:round; stroke-width:0.25;"/>
<line x1="207.600000" y1="176.000000" x2="240.720000" y2="169.040000"  style="stroke:black; stroke-linecap:round; stroke-width:0.25;"/>
<line x1="207.600000" y1="184.000000" x2="240.720000" y2="186.240000"  style="stroke:black; stroke-linecap:round; stroke-width:0.25;"/>
<line x1="240.720000" y1="125.760000" x2="244.720000" y2="125.760000"  style="stroke:black; stroke-linecap:round; stroke-width:0.25;"/>
<line x1="240.720000" y1="134.640000" x2="244.720000" y2="134.640000"  style="stroke:black; stroke-linecap:round; stroke-width:0.25;"/>
<line x1="240.720000" y1="142.960000" x2="244.720000" y2="142.960000"  style="stroke:black; stroke-linecap:round; stroke-width:0.25;"/>
<line x1="240.720000" y1="151.840000" x2="244.720000" y2="151.840000"  style="stroke:black; stroke-linecap:round; stroke-width:0.25;"/>
<line x1="240.720000" y1="160.160000" x2="244.720000" y2="160.160000"  style="stroke:black; stroke-linecap:round; stroke-width:0.25;"/>
<line x1="240.720000" y1="169.040000" x2="244.720000" y2="169.040000"  style="stroke:black; stroke-linecap:round; stroke-width:0.25;"/>
<line x1="240.720000" y1="177.360000" x2="244.720000" y2="177.360000"  style="stroke:black; stroke-linecap:round; stroke-width:0.25;"/>
<line x1="240.720000" y1="186.240000" x2="244.720000" y2="186.240000"  style="stroke:black; stroke-linecap:round; stroke-width:0.25;"/>
<line x1="244.720000" y1="125.760000" x2="248.720000" y2="125.760000"  style="stroke:black; stroke-linecap:round; stroke-width:0.25;"/>
<line x1="244.720000" y1="134.640000" x2="248.720000" y2="134.640000"  style="stroke:black; stroke-linecap:round; stroke-width:0.25;"/>
<line x1="244.720000" y1="142.960000" x2="248.720000" y2="142.960000"  style="stroke:black; stroke-linecap:round; stroke-width:0.25;"/>
<line x1="244.720000" y1="151.840000" x2="248.720000" y2="151.840000"  style="stroke:black; stroke-linecap:round; stroke-width:0.25;"/>
<line x1="244.720000" y1="160.160000" x2="248.720000" y2="160.160000"  style="stroke:black; stroke-linecap:round; stroke-width:0.25;"/>
<line x1="244.720000" y1="169.040000" x2="248.720000" y2="169.040000"  style="stroke:black; stroke-linecap:round; stroke-width:0.25;"/>
<line x1="244.720000" y1="177.360000" x2="248.720000" y2="177.360000"  style="stroke:black; stroke-linecap:round; stroke-width:0.25;"/>
<line x1="244.720000" y1="186.240000" x2="248.720000" y2="186.240000"  style="stroke:black; stroke-linecap:round; stroke-width:0.25;"/>
<line x1="248.720000" y1="76.000000" x2="296.720000" y2="76.000000"  style="stroke:black; stroke-linecap:round; stroke-width:0.25;"/>
<line x1="248.720000" y1="125.760000" x2="248.720000" y2="76.000000"  style="stroke:black; stroke-linecap:round; stroke-width:0.25;"/>
<line x1="248.720000" y1="125.760000" x2="248.720000" y2="125.760000"  style="stroke:black; stroke-linecap:round; stroke-width:0.25;"/>
<line x1="248.720000" y1="134.640000" x2="256.720000" y2="134.640000"  style="stroke:black; stroke-linecap:round; stroke-width:0.25;"/>
<line x1="248.720000" y1="142.960000" x2="296.720000" y2="142.960000"  style="stroke:black; stroke-linecap:round; stroke-width:0.25;"/>
<line x1="248.720000" y1="151.840000" x2="288.720000" y2="151.840000"  style="stroke:black; stroke-linecap:round; stroke-width:0.25;"/>
<line x1="248.720000" y1="160.160000" x2="280.720000" y2="160.160000"  style="stroke:black; stroke-linecap:round; stroke-width:0.25;"/>
<line x1="248.720000" y1="169.040000" x2="272.720000" y2="169.040000"  style="stroke:black; stroke-linecap:round; stroke-width:0.25;"/>
<line x1="248.720000" y1="177.360000" x2="264.720000" y2="177.360000"  style="stroke:black; stroke-linecap:round; stroke-width:0.25;"/>
<line x1="248.720000" y1="186.240000" x2="256.720000" y2="186.240000"  style="stroke:black; stroke-linecap:round; stroke-width:0.25;"/>
<line x1="256.720000" y1="84.000000" x2="296.720000" y2="84.000000"  style="stroke:black; stroke-linecap:round; stroke-width:0.25;"/>
<line x1="256.720000" y1="134.640000" x2="256.720000" y2="84.000000"  style="stroke:black; stroke-linecap:round; stroke-width:0.25;"/>
<line x1="256.720000" y1="186.240000" x2="256.720000" y2="288.000000"  style="stroke:black; stroke-linecap:round; stroke-width:0.25;"/>
<line x1="256.720000" y1="288.000000" x2="296.720000" y2="288.000000"  style="stroke:black; stroke-linecap:round; stroke-width:0.25;"/>
<line x1="264.720000" y1="177.360000" x2="264.720000" y2="280.000000"  style="stroke:black; stroke-linecap:round; stroke-width:0.25;"/>
<line x1="264.720000" y1="280.000000" x2="296.720000" y2="280.000000"  style="stroke:black; stroke-linecap:round; stroke-width:0.25;"/>
<line x1="272.720000" y1="169.040000" x2="272.720000" y2="220.000000"  style="stroke:black; stroke-linecap:round; stroke-width:0.25;"/>
<line x1="272.720000" y1="220.000000" x2="296.720000" y2="220.000000"  style="stroke:black; stroke-linecap:round; stroke-width:0.25;"/>
<line x1="280.720000" y1="160.160000" x2="280.720000" y2="212.000000"  style="stroke:black; stroke-linecap:round; stroke-width:0.25;"/>
<line x1="280.720000" y1="212.000000" x2="296.720000" y2="212.000000"  style="stroke:black; stroke-linecap:round; stroke-width:0.25;"/>
<line x1="288.720000" y1="151.840000" x2="288.720000" y2="152.000000"  style="stroke:black; stroke-linecap:round; stroke-width:0.25;"/>
<line x1="288.720000" y1="152.000000" x2="296.720000" y2="152.000000"  style="stroke:black; stroke-linecap:round; stroke-width:0.25;"/>
<line x1="296.720000" y1="76.000000" x2="349.420000" y2="76.000000"  style="stroke:black; stroke-linecap:round; stroke-width:0.25;"/>
<line x1="296.720000" y1="84.000000" x2="349.420000" y2="84.000000"  style="stroke:black; stroke-linecap:round; stroke-width:0.25;"/>
<line x1="296.720000" y1="142.960000" x2="296.720000" y2="144.000000"  style="stroke:black; stroke-linecap:round; stroke-width:0.25;"/>
<line x1="296.720000" y1="144.000000" x2="296.720000" y2="144.000000"  style="stroke:black; stroke-linecap:round; stroke-width:0.25;"/>
<line x1="296.720000" y1="144.000000" x2="349.420000" y2="144.000000"  style="stroke:black; stroke-linecap:round; stroke-width:0.25;"/>
<line x1="296.720000" y1="152.000000" x2="349.420000" y2="152.000000"  style="stroke:black; stroke-linecap:round; stroke-width:0.25;"/>
<line x1="296.720000" y1="212.000000" x2="349.420000" y2="212.000000"  style="stroke:black; stroke-linecap:round; stroke-width:0.25;"/>
<line x1="296.720000" y1="220.000000" x2="349.420000" y2="220.000000"  style="stroke:black; stroke-linecap:round; stroke-width:0.25;"/>
<line x1="296.720000" y1="280.000000" x2="349.420000" y2="280.000000"  style="stroke:black; stroke-linecap:round; stroke-width:0.25;"/>
<line x1="296.720000" y1="288.000000" x2="349.420000" y2="288.000000"  style="stroke:black; stroke-linecap:round; stroke-width:0.25;"/>
<line x1="349.420000" y1="76.000000" x2="402.120000" y2="76.000000"  style="stroke:black; stroke-linecap:round; stroke-width:0.25;"/>
<line x1="349.420000" y1="84.000000" x2="402.120000" y2="84.000000"  style="stroke:black; stroke-linecap:round; stroke-width:0.25;"/>
<line x1="349.420000" y1="144.000000" x2="402.120000" y2="144.000000"  style="stroke:black; stroke-linecap:round; stroke-width:0.25;"/>
<line x1="349.420000" y1="152.000000" x2="402.120000" y2="152.000000"  style="stroke:black; stroke-linecap:round; stroke-width:0.25;"/>
<line x1="349.420000" y1="212.000000" x2="402.120000" y2="212.000000"  style="stroke:black; stroke-linecap:round; stroke-width:0.25;"/>
<line x1="349.420000" y1="220.000000" x2="402.120000" y2="220.000000"  style="stroke:black; stroke-linecap:round; stroke-width:0.25;"/>
<line x1="349.420000" y1="280.000000" x2="402.120000" y2="280.000000"  style="stroke:black; stroke-linecap:round; stroke-width:0.25;"/>
<line x1="349.420000" y1="288.000000" x2="402.120000" y2="288.000000"  style="stroke:black; stroke-linecap:round; stroke-width:0.25;"/>
<line x1="388.120000" y1="46.000000" x2="392.120000" y2="46.000000"  style="stroke:black; stroke-linecap:round; stroke-width:0.25;"/>
<line x1="388.120000" y1="114.000000" x2="392.120000" y2="114.000000"  style="stroke:black; stroke-linecap:round; stroke-width:0.25;"/>
<line x1="388.120000" y1="182.000000" x2="392.120000" y2="182.000000"  style="stroke:black; stroke-linecap:round; stroke-width:0.25;"/>
<line x1="388.120000" y1="250.000000" x2="392.120000" y2="250.000000"  style="stroke:black; stroke-linecap:round; stroke-width:0.25;"/>
<line x1="392.120000" y1="46.000000" x2="402.120000" y2="46.000000"  style="stroke:black; stroke-linecap:round; stroke-width:0.25;"/>
<line x1="392.120000" y1="114.000000" x2="402.120000" y2="114.000000"  style="stroke:black; stroke-linecap:round; stroke-width:0.25;"/>
<line x1="392.120000" y1="182.000000" x2="402.120000" y2="182.000000"  style="stroke:black; stroke-linecap:round; stroke-width:0.25;"/>
<line x1="392.120000" y1="250.000000" x2="402.120000" y2="250.000000"  style="stroke:black; stroke-linecap:round; stroke-width:0.25;"/>
<line x1="402.120000" y1="46.000000" x2="418.120000" y2="46.000000"  style="stroke:black; stroke-linecap:round; stroke-width:0.25;"/>
<line x1="402.120000" y1="54.000000" x2="418.120000" y2="54.000000"  style="stroke:black; stroke-linecap:round; stroke-width:0.25;"/>
<line x1="402.120000" y1="76.000000" x2="402.120000" y2="54.000000"  style="stroke:black; stroke-linecap:round; stroke-width:0.25;"/>
<line x1="402.120000" y1="76.000000" x2="402.120000" y2="76.000000"  style="stroke:black; stroke-linecap:round; stroke-width:0.25;"/>
<line x1="402.120000" y1="84.000000" x2="410.120000" y2="84.000000"  style="stroke:black; stroke-linecap:round; stroke-width:0.25;"/>
<line x1="402.120000" y1="114.000000" x2="418.120000" y2="114.000000"  style="stroke:black; stroke-linecap:round; stroke-width:0.25;"/>
<line x1="402.120000" y1="122.000000" x2="418.120000" y2="122.000000"  style="stroke:black; stroke-linecap:round; stroke-width:0.25;"/>
<line x1="402.120000" y1="144.000000" x2="402.120000" y2="122.000000"  style="stroke:black; stroke-linecap:round; stroke-width:0.25;"/>
<line x1="402.120000" y1="144.000000" x2="402.120000" y2="144.000000"  style="stroke:black; stroke-linecap:round; stroke-width:0.25;"/>
<line x1="402.120000" y1="152.000000" x2="410.120000" y2="152.000000"  style="stroke:black; stroke-linecap:round; stroke-width:0.25;"/>
<line x1="402.120000" y1="182.000000" x2="418.120000" y2="182.000000"  style="stroke:black; stroke-linecap:round; stroke-width:0.25;"/>
<line x1="402.120000" y1="190.000000" x2="418.120000" y2="190.000000"  style="stroke:black; stroke-linecap:round; stroke-width:0.25;"/>
<line x1="402.120000" y1="212.000000" x2="402.120000" y2="190.000000"  style="stroke:black; stroke-linecap:round; stroke-width:0.25;"/>
<line x1="402.120000" y1="212.000000" x2="402.120000" y2="212.000000"  style="stroke:black; stroke-linecap:round; stroke-width:0.25;"/>
<line x1="402.120000" y1="220.000000" x2="410.120000" y2="220.000000"  style="stroke:black; stroke-linecap:round; stroke-width:0.25;"/>
<line x1="402.120000" y1="250.000000" x2="418.120000" y2="250.000000"  style="stroke:black; stroke-linecap:round; stroke-width:0.25;"/>
<line x1="402.120000" y1="258.000000" x2="418.120000" y2="258.000000"  style="stroke:black; stroke-linecap:round; stroke-width:0.25;"/>
<line x1="402.120000" y1="280.000000" x2="402.120000" y2="258.000000"  style="stroke:black; stroke-linecap:round; stroke-width:0.25;"/>
<line x1="402.120000" y1="280.000000" x2="402.120000" y2="280.000000"  style="stroke:black; stroke-linecap:round; stroke-width:0.25;"/>
<line x1="402.120000" y1="288.000000" x2="410.120000" y2="288.000000"  style="stroke:black; stroke-linecap:round; stroke-width:0.25;"/>
<line x1="410.120000" y1="62.000000" x2="418.120000" y2="62.000000"  style="stroke:black; stroke-linecap:round; stroke-width:0.25;"/>
<line x1="410.120000" y1="84.000000" x2="410.120000" y2="62.000000"  style="stroke:black; stroke-linecap:round; stroke-width:0.25;"/>
<line x1="410.120000" y1="130.000000" x2="418.120000" y2="130.000000"  style="stroke:black; stroke-linecap:round; stroke-width:0.25;"/>
<line x1="410.120000" y1="152.000000" x2="410.120000" y2="130.000000"  style="stroke:black; stroke-linecap:round; stroke-width:0.25;"/>
<line x1="410.120000" y1="198.000000" x2="418.120000" y2="198.000000"  style="stroke:black; stroke-linecap:round; stroke-width:0.25;"/>
<line x1="410.120000" y1="220.000000" x2="410.120000" y2="198.000000"  style="stroke:black; stroke-linecap:round; stroke-width:0.25;"/>
<line x1="410.120000" y1="266.000000" x2="418.120000" y2="266.000000"  style="stroke:black; stroke-linecap:round; stroke-width:0.25;"/>
<line x1="410.120000" y1="288.000000" x2="410.120000" y2="266.000000"  style="stroke:black; stroke-linecap:round; stroke-width:0.25;"/>
<line x1="418.120000" y1="46.000000" x2="422.120000" y2="46.000000"  style="stroke:black; stroke-linecap:round; stroke-width:0.25;"/>
<line x1="418.120000" y1="54.000000" x2="422.120000" y2="54.000000"  style="stroke:black; stroke-linecap:round; stroke-width:0.25;"/>
<line x1="418.120000" y1="62.000000" x2="422.120000" y2="62.000000"  style="stroke:black; stroke-linecap:round; stroke-width:0.25;"/>
<line x1="418.120000" y1="114.000000" x2="422.120000" y2="114.000000"  style="stroke:black; stroke-linecap:round; stroke-width:0.25;"/>
<line x1="418.120000" y1="122.000000" x2="422.120000" y2="122.000000"  style="stroke:black; stroke-linecap:round; stroke-width:0.25;"/>
<line x1="418.120000" y1="130.000000" x2="422.120000" y2="130.000000"  style="stroke:black; stroke-linecap:round; stroke-width:0.25;"/>
<line x1="418.120000" y1="182.000000" x2="422.120000" y2="182.000000"  style="stroke:black; stroke-linecap:round; stroke-width:0.25;"/>
<line x1="418.120000" y1="190.000000" x2="422.120000" y2="190.000000"  style="stroke:black; stroke-linecap:round; stroke-width:0.25;"/>
<line x1="418.120000" y1="198.000000" x2="422.120000" y2="198.000000"  style="stroke:black; stroke-linecap:round; stroke-width:0.25;"/>
<line x1="418.120000" y1="250.000000" x2="422.120000" y2="250.000000"  style="stroke:black; stroke-linecap:round; stroke-width:0.25;"/>
<line x1="418.120000" y1="258.000000" x2="422.120000" y2="258.000000"  style="stroke:black; stroke-linecap:round; stroke-width:0.25;"/>
<line x1="418.120000" y1="266.000000" x2="422.120000" y2="266.000000"  style="stroke:black; stroke-linecap:round; stroke-width:0.25;"/>
<line x1="460.820000" y1="54.000000" x2="464.820000" y2="54.000000"  style="stroke:black; stroke-linecap:round; stroke-width:0.25;"/>
<line x1="460.820000" y1="122.000000" x2="464.820000" y2="122.000000"  style="stroke:black; stroke-linecap:round; stroke-width:0.25;"/>
<line x1="460.820000" y1="190.000000" x2="464.820000" y2="190.000000"  style="stroke:black; stroke-linecap:round; stroke-width:0.25;"/>
<line x1="460.820000" y1="258.000000" x2="464.820000" y2="258.000000"  style="stroke:black; stroke-linecap:round; stroke-width:0.25;"/>
<line x1="464.820000" y1="54.000000" x2="480.820000" y2="54.000000"  style="stroke:black; stroke-linecap:round; stroke-width:0.25;"/>
<line x1="464.820000" y1="122.000000" x2="472.820000" y2="122.000000"  style="stroke:black; stroke-linecap:round; stroke-width:0.25;"/>
<line x1="464.820000" y1="160.000000" x2="480.820000" y2="160.000000"  style="stroke:black; stroke-linecap:round; stroke-width:0.25;"/>
<line x1="464.820000" y1="190.000000" x2="464.820000" y2="160.000000"  style="stroke:black; stroke-linecap:round; stroke-width:0.25;"/>
<line x1="464.820000" y1="190.000000" x2="464.820000" y2="190.000000"  style="stroke:black; stroke-linecap:round; stroke-width:0.25;"/>
<line x1="464.820000" y1="258.000000" x2="472.820000" y2="258.000000"  style="stroke:black; stroke-linecap:round; stroke-width:0.25;"/>
<line x1="472.820000" y1="122.000000" x2="472.820000" y2="152.000000"  style="stroke:black; stroke-linecap:round; stroke-width:0.25;"/>
<line x1="472.820000" y1="152.000000" x2="480.820000" y2="152.000000"  style="stroke:black; stroke-linecap:round; stroke-width:0.25;"/>
<line x1="472.820000" y1="168.000000" x2="480.820000" y2="168.000000"  style="stroke:black; stroke-linecap:round; stroke-width:0.25;"/>
<line x1="472.820000" y1="258.000000" x2="472.820000" y2="168.000000"  style="stroke:black; stroke-linecap:round; stroke-width:0.25;"/>
<line x1="480.820000" y1="54.000000" x2="480.820000" y2="144.000000"  style="stroke:black; stroke-linecap:round; stroke-width:0.25;"/>
<line x1="480.820000" y1="144.000000" x2="480.820000" y2="144.000000"  style="stroke:black; stroke-linecap:round; stroke-width:0.25;"/>
<line x1="480.820000" y1="144.000000" x2="484.820000" y2="144.000000"  style="stroke:black; stroke-linecap:round; stroke-width:0.25;"/>
<line x1="480.820000" y1="152.000000" x2="484.820000" y2="152.000000"  style="stroke:black; stroke-linecap:round; stroke-width:0.25;"/>
<line x1="480.820000" y1="160.000000" x2="484.820000" y2="160.000000"  style="stroke:black; stroke-linecap:round; stroke-width:0.25;"/>
<line x1="480.820000" y1="168.000000" x2="484.820000" y2="168.000000"  style="stroke:black; stroke-linecap:round; stroke-width:0.25;"/>
<line x1="484.820000" y1="144.000000" x2="488.820000" y2="144.000000"  style="stroke:black; stroke-linecap:round; stroke-width:0.25;"/>
<line x1="484.820000" y1="152.000000" x2="488.820000" y2="152.000000"  style="stroke:black; stroke-linecap:round; stroke-width:0.25;"/>
<line x1="484.820000" y1="160.000000" x2="488.820000" y2="160.000000"  style="stroke:black; stroke-linecap:round; stroke-width:0.25;"/>
<line x1="484.820000" y1="168.000000" x2="488.820000" y2="168.000000"  style="stroke:black; stroke-linecap:round; stroke-width:0.25;"/>
<line x1="488.820000" y1="144.000000" x2="498.820000" y2="144.000000"  style="stroke:black; stroke-linecap:round; stroke-width:0.25;"/>
<line x1="488.820000" y1="152.000000" x2="498.820000" y2="152.000000"  style="stroke:black; stroke-linecap:round; stroke-width:0.25;"/>
<line x1="488.820000" y1="160.000000" x2="498.820000" y2="160.000000"  style="stroke:black; stroke-linecap:round; stroke-width:0.25;"/>
<line x1="488.820000" y1="168.000000" x2="498.820000" y2="168.000000"  style="stroke:black; stroke-linecap:round; stroke-width:0.25;"/>
</svg>
