<?xml version="1.0"?>
<svg xmlns="http://www.w3.org/2000/svg" xmlns:xlink="http://www.w3.org/1999/xlink" viewBox="0 0 431.300000 152.000000" width="215.650000mm" height="76.000000mm" version="1.1">
<a xlink:href="qam-0x7f8add434440.svg">
<rect x="1.000000" y="1.000000" width="430.300000" height="151.000000" rx="0" ry="0" style="stroke:none;fill:#cccccc;"/>
<rect x="0.000000" y="0.000000" width="430.300000" height="151.000000" rx="0" ry="0" style="stroke:none;fill:#ffffff;"/>
</a>
<text x="10.000000" y="7.000000" font-family="Arial" font-size="7"></text>
<rect x="46.750000" y="35.000000" width="245.100000" height="24.000000" rx="0" ry="0" style="stroke:none;fill:#cccccc;"/>
<rect x="45.750000" y="34.000000" width="245.100000" height="24.000000" rx="0" ry="0" style="stroke:none;fill:#477881;"/>
<text x="168.300000" y="48.000000" font-family="Arial" font-size="7" text-anchor="middle" fill="#FFFFFF">hslider(dem_carrier_freq, 5000.0f, 0.0f, 10000.0f, 0.01f)</text>
<circle cx="47.750000" cy="36.000000" r="1"/>
<line x1="36.750000" y1="25.000000" x2="36.750000" y2="67.000000"  style="stroke: black; stroke-linecap:round; stroke-width:0.25; stroke-dasharray:3,3;"/>
<line x1="36.750000" y1="67.000000" x2="299.850000" y2="67.000000"  style="stroke: black; stroke-linecap:round; stroke-width:0.25; stroke-dasharray:3,3;"/>
<line x1="299.850000" y1="67.000000" x2="299.850000" y2="25.000000"  style="stroke: black; stroke-linecap:round; stroke-width:0.25; stroke-dasharray:3,3;"/>
<line x1="36.750000" y1="25.000000" x2="41.750000" y2="25.000000"  style="stroke: black; stroke-linecap:round; stroke-width:0.25; stroke-dasharray:3,3;"/>
<line x1="86.900000" y1="25.000000" x2="299.850000" y2="25.000000"  style="stroke: black; stroke-linecap:round; stroke-width:0.25; stroke-dasharray:3,3;"/>
<text x="41.750000" y="27.000000" font-family="Arial" font-size="7">demcarrier_f</text>
<rect x="25.000000" y="91.000000" width="51.600000" height="24.000000" rx="0" ry="0" style="stroke:none;fill:#cccccc;"/>
<rect x="24.000000" y="90.000000" width="51.600000" height="24.000000" rx="0" ry="0" style="stroke:none;fill:#47945E;"/>
<text x="49.800000" y="104.000000" font-family="Arial" font-size="7" text-anchor="middle" fill="#FFFFFF">phase_error</text>
<circle cx="26.000000" cy="92.000000" r="1"/>
<a xlink:href="lowpass-0x7f8ada6dd4f0.svg">
<rect x="84.600000" y="91.000000" width="129.000000" height="24.000000" rx="0" ry="0" style="stroke:none;fill:#cccccc;"/>
<rect x="83.600000" y="90.000000" width="129.000000" height="24.000000" rx="0" ry="0" style="stroke:none;fill:#003366;"/>
</a>
<a xlink:href="lowpass-0x7f8ada6dd4f0.svg">
<text x="148.100000" y="104.000000" font-family="Arial" font-size="7" text-anchor="middle" fill="#FFFFFF">lowpass(1)(ch...f) : select2)</text>
</a>
<circle cx="85.600000" cy="92.000000" r="1"/>
<line x1="80.600000" y1="101.000000" x2="83.600000" y2="102.000000"  transform="rotate(0.000000,83.600000,102.000000)" style="stroke: black; stroke-width:0.25;"/>
<line x1="80.600000" y1="103.000000" x2="83.600000" y2="102.000000"  transform="rotate(0.000000,83.600000,102.000000)" style="stroke: black; stroke-width:0.25;"/>
<rect x="239.600000" y="95.000000" width="24.000000" height="24.000000" rx="0" ry="0" style="stroke:none;fill:#cccccc;"/>
<rect x="238.600000" y="94.000000" width="24.000000" height="24.000000" rx="0" ry="0" style="stroke:none;fill:#f44800;"/>
<text x="250.600000" y="108.000000" font-family="Arial" font-size="7" text-anchor="middle" fill="#FFFFFF">2</text>
<circle cx="240.600000" cy="96.000000" r="1"/>
<line x1="229.600000" y1="85.000000" x2="229.600000" y2="127.000000"  style="stroke: black; stroke-linecap:round; stroke-width:0.25; stroke-dasharray:3,3;"/>
<line x1="229.600000" y1="127.000000" x2="271.600000" y2="127.000000"  style="stroke: black; stroke-linecap:round; stroke-width:0.25; stroke-dasharray:3,3;"/>
<line x1="271.600000" y1="127.000000" x2="271.600000" y2="85.000000"  style="stroke: black; stroke-linecap:round; stroke-width:0.25; stroke-dasharray:3,3;"/>
<line x1="229.600000" y1="85.000000" x2="234.600000" y2="85.000000"  style="stroke: black; stroke-linecap:round; stroke-width:0.25; stroke-dasharray:3,3;"/>
<line x1="266.850000" y1="85.000000" x2="271.600000" y2="85.000000"  style="stroke: black; stroke-linecap:round; stroke-width:0.25; stroke-dasharray:3,3;"/>
<text x="234.600000" y="87.000000" font-family="Arial" font-size="7">dfe_taps</text>
<rect x="289.600000" y="91.000000" width="24.000000" height="24.000000" rx="0" ry="0" style="stroke:none;fill:#cccccc;"/>
<rect x="288.600000" y="90.000000" width="24.000000" height="24.000000" rx="0" ry="0" style="stroke:none;fill:#4B71A1;"/>
<text x="300.600000" y="104.000000" font-family="Arial" font-size="7" text-anchor="middle" fill="#FFFFFF">/</text>
<circle cx="290.600000" cy="92.000000" r="1"/>
<line x1="285.600000" y1="97.000000" x2="288.600000" y2="98.000000"  transform="rotate(0.000000,288.600000,98.000000)" style="stroke: black; stroke-width:0.25;"/>
<line x1="285.600000" y1="99.000000" x2="288.600000" y2="98.000000"  transform="rotate(0.000000,288.600000,98.000000)" style="stroke: black; stroke-width:0.25;"/>
<line x1="285.600000" y1="105.000000" x2="288.600000" y2="106.000000"  transform="rotate(0.000000,288.600000,106.000000)" style="stroke: black; stroke-width:0.25;"/>
<line x1="285.600000" y1="107.000000" x2="288.600000" y2="106.000000"  transform="rotate(0.000000,288.600000,106.000000)" style="stroke: black; stroke-width:0.25;"/>
<rect x="329.600000" y="65.000000" width="24.000000" height="24.000000" rx="0" ry="0" style="stroke:none;fill:#cccccc;"/>
<rect x="328.600000" y="64.000000" width="24.000000" height="24.000000" rx="0" ry="0" style="stroke:none;fill:#4B71A1;"/>
<text x="340.600000" y="78.000000" font-family="Arial" font-size="7" text-anchor="middle" fill="#FFFFFF">-</text>
<circle cx="330.600000" cy="66.000000" r="1"/>
<line x1="325.600000" y1="71.000000" x2="328.600000" y2="72.000000"  transform="rotate(0.000000,328.600000,72.000000)" style="stroke: black; stroke-width:0.25;"/>
<line x1="325.600000" y1="73.000000" x2="328.600000" y2="72.000000"  transform="rotate(0.000000,328.600000,72.000000)" style="stroke: black; stroke-width:0.25;"/>
<line x1="325.600000" y1="79.000000" x2="328.600000" y2="80.000000"  transform="rotate(0.000000,328.600000,80.000000)" style="stroke: black; stroke-width:0.25;"/>
<line x1="325.600000" y1="81.000000" x2="328.600000" y2="80.000000"  transform="rotate(0.000000,328.600000,80.000000)" style="stroke: black; stroke-width:0.25;"/>
<a xlink:href="lf-0x7f8adc175da0.svg">
<rect x="361.600000" y="65.000000" width="38.700000" height="24.000000" rx="0" ry="0" style="stroke:none;fill:#cccccc;"/>
<rect x="360.600000" y="64.000000" width="38.700000" height="24.000000" rx="0" ry="0" style="stroke:none;fill:#003366;"/>
</a>
<a xlink:href="lf-0x7f8adc175da0.svg">
<text x="379.950000" y="78.000000" font-family="Arial" font-size="7" text-anchor="middle" fill="#FFFFFF">lf_sawpos</text>
</a>
<circle cx="362.600000" cy="66.000000" r="1"/>
<line x1="357.600000" y1="75.000000" x2="360.600000" y2="76.000000"  transform="rotate(0.000000,360.600000,76.000000)" style="stroke: black; stroke-width:0.25;"/>
<line x1="357.600000" y1="77.000000" x2="360.600000" y2="76.000000"  transform="rotate(0.000000,360.600000,76.000000)" style="stroke: black; stroke-width:0.25;"/>
<line x1="15.000000" y1="15.000000" x2="15.000000" y2="137.000000"  style="stroke: black; stroke-linecap:round; stroke-width:0.25; stroke-dasharray:3,3;"/>
<line x1="15.000000" y1="137.000000" x2="416.300000" y2="137.000000"  style="stroke: black; stroke-linecap:round; stroke-width:0.25; stroke-dasharray:3,3;"/>
<line x1="416.300000" y1="137.000000" x2="416.300000" y2="15.000000"  style="stroke: black; stroke-linecap:round; stroke-width:0.25; stroke-dasharray:3,3;"/>
<line x1="15.000000" y1="15.000000" x2="20.000000" y2="15.000000"  style="stroke: black; stroke-linecap:round; stroke-width:0.25; stroke-dasharray:3,3;"/>
<line x1="132.875000" y1="15.000000" x2="416.300000" y2="15.000000"  style="stroke: black; stroke-linecap:round; stroke-width:0.25; stroke-dasharray:3,3;"/>
<text x="20.000000" y="17.000000" font-family="Arial" font-size="7">demphasor(hsl...0.0f, 0.01f))(x3)</text>
<line x1="418.300000" y1="75.000000" x2="421.300000" y2="76.000000"  transform="rotate(0.000000,421.300000,76.000000)" style="stroke: black; stroke-width:0.25;"/>
<line x1="418.300000" y1="77.000000" x2="421.300000" y2="76.000000"  transform="rotate(0.000000,421.300000,76.000000)" style="stroke: black; stroke-width:0.25;"/>
<line x1="75.600000" y1="102.000000" x2="79.600000" y2="102.000000"  style="stroke:black; stroke-linecap:round; stroke-width:0.25;"/>
<line x1="79.600000" y1="102.000000" x2="79.600000" y2="102.000000"  style="stroke:black; stroke-linecap:round; stroke-width:0.25;"/>
<line x1="79.600000" y1="102.000000" x2="83.600000" y2="102.000000"  style="stroke:black; stroke-linecap:round; stroke-width:0.25;"/>
<line x1="212.600000" y1="102.000000" x2="216.600000" y2="102.000000"  style="stroke:black; stroke-linecap:round; stroke-width:0.25;"/>
<line x1="216.600000" y1="76.000000" x2="224.600000" y2="76.000000"  style="stroke:black; stroke-linecap:round; stroke-width:0.25;"/>
<line x1="216.600000" y1="102.000000" x2="216.600000" y2="76.000000"  style="stroke:black; stroke-linecap:round; stroke-width:0.25;"/>
<line x1="216.600000" y1="102.000000" x2="216.600000" y2="102.000000"  style="stroke:black; stroke-linecap:round; stroke-width:0.25;"/>
<line x1="224.600000" y1="76.000000" x2="250.600000" y2="76.000000"  style="stroke:black; stroke-linecap:round; stroke-width:0.25;"/>
<line x1="250.600000" y1="76.000000" x2="276.600000" y2="76.000000"  style="stroke:black; stroke-linecap:round; stroke-width:0.25;"/>
<line x1="262.600000" y1="106.000000" x2="266.600000" y2="106.000000"  style="stroke:black; stroke-linecap:round; stroke-width:0.25;"/>
<line x1="266.600000" y1="106.000000" x2="276.600000" y2="106.000000"  style="stroke:black; stroke-linecap:round; stroke-width:0.25;"/>
<line x1="276.600000" y1="76.000000" x2="284.600000" y2="76.000000"  style="stroke:black; stroke-linecap:round; stroke-width:0.25;"/>
<line x1="276.600000" y1="106.000000" x2="284.600000" y2="106.000000"  style="stroke:black; stroke-linecap:round; stroke-width:0.25;"/>
<line x1="284.600000" y1="76.000000" x2="284.600000" y2="98.000000"  style="stroke:black; stroke-linecap:round; stroke-width:0.25;"/>
<line x1="284.600000" y1="98.000000" x2="284.600000" y2="98.000000"  style="stroke:black; stroke-linecap:round; stroke-width:0.25;"/>
<line x1="284.600000" y1="98.000000" x2="288.600000" y2="98.000000"  style="stroke:black; stroke-linecap:round; stroke-width:0.25;"/>
<line x1="284.600000" y1="106.000000" x2="288.600000" y2="106.000000"  style="stroke:black; stroke-linecap:round; stroke-width:0.25;"/>
<line x1="290.850000" y1="46.000000" x2="294.850000" y2="46.000000"  style="stroke:black; stroke-linecap:round; stroke-width:0.25;"/>
<line x1="294.850000" y1="46.000000" x2="304.850000" y2="46.000000"  style="stroke:black; stroke-linecap:round; stroke-width:0.25;"/>
<line x1="304.850000" y1="46.000000" x2="316.600000" y2="46.000000"  style="stroke:black; stroke-linecap:round; stroke-width:0.25;"/>
<line x1="312.600000" y1="102.000000" x2="316.600000" y2="102.000000"  style="stroke:black; stroke-linecap:round; stroke-width:0.25;"/>
<line x1="316.600000" y1="46.000000" x2="324.600000" y2="46.000000"  style="stroke:black; stroke-linecap:round; stroke-width:0.25;"/>
<line x1="316.600000" y1="80.000000" x2="324.600000" y2="80.000000"  style="stroke:black; stroke-linecap:round; stroke-width:0.25;"/>
<line x1="316.600000" y1="102.000000" x2="316.600000" y2="80.000000"  style="stroke:black; stroke-linecap:round; stroke-width:0.25;"/>
<line x1="316.600000" y1="102.000000" x2="316.600000" y2="102.000000"  style="stroke:black; stroke-linecap:round; stroke-width:0.25;"/>
<line x1="324.600000" y1="46.000000" x2="324.600000" y2="72.000000"  style="stroke:black; stroke-linecap:round; stroke-width:0.25;"/>
<line x1="324.600000" y1="72.000000" x2="324.600000" y2="72.000000"  style="stroke:black; stroke-linecap:round; stroke-width:0.25;"/>
<line x1="324.600000" y1="72.000000" x2="328.600000" y2="72.000000"  style="stroke:black; stroke-linecap:round; stroke-width:0.25;"/>
<line x1="324.600000" y1="80.000000" x2="328.600000" y2="80.000000"  style="stroke:black; stroke-linecap:round; stroke-width:0.25;"/>
<line x1="352.600000" y1="76.000000" x2="356.600000" y2="76.000000"  style="stroke:black; stroke-linecap:round; stroke-width:0.25;"/>
<line x1="356.600000" y1="76.000000" x2="356.600000" y2="76.000000"  style="stroke:black; stroke-linecap:round; stroke-width:0.25;"/>
<line x1="356.600000" y1="76.000000" x2="360.600000" y2="76.000000"  style="stroke:black; stroke-linecap:round; stroke-width:0.25;"/>
<line x1="399.300000" y1="76.000000" x2="403.300000" y2="76.000000"  style="stroke:black; stroke-linecap:round; stroke-width:0.25;"/>
<line x1="403.300000" y1="76.000000" x2="403.300000" y2="76.000000"  style="stroke:black; stroke-linecap:round; stroke-width:0.25;"/>
<line x1="403.300000" y1="76.000000" x2="407.300000" y2="76.000000"  style="stroke:black; stroke-linecap:round; stroke-width:0.25;"/>
<line x1="407.300000" y1="76.000000" x2="411.300000" y2="76.000000"  style="stroke:black; stroke-linecap:round; stroke-width:0.25;"/>
<line x1="411.300000" y1="76.000000" x2="421.300000" y2="76.000000"  style="stroke:black; stroke-linecap:round; stroke-width:0.25;"/>
</svg>
