<?xml version="1.0"?>
<svg xmlns="http://www.w3.org/2000/svg" xmlns:xlink="http://www.w3.org/1999/xlink" viewBox="0 0 258.800000 88.000000" width="129.400000mm" height="44.000000mm" version="1.1">
<a xlink:href="lms-0x7f8ada5d9a70.svg">
<rect x="1.000000" y="1.000000" width="257.800000" height="87.000000" rx="0" ry="0" style="stroke:none;fill:#cccccc;"/>
<rect x="0.000000" y="0.000000" width="257.800000" height="87.000000" rx="0" ry="0" style="stroke:none;fill:#ffffff;"/>
</a>
<text x="10.000000" y="7.000000" font-family="Arial" font-size="7"></text>
<rect x="49.000000" y="41.000000" width="25.800000" height="24.000000" rx="0" ry="0" style="stroke:none;fill:#cccccc;"/>
<rect x="48.000000" y="40.000000" width="25.800000" height="24.000000" rx="0" ry="0" style="stroke:none;fill:#47945E;"/>
<text x="60.900000" y="54.000000" font-family="Arial" font-size="7" text-anchor="middle" fill="#FFFFFF">clock</text>
<circle cx="50.000000" cy="42.000000" r="1"/>
<a xlink:href="lms-0x7f8ada5d8d50.svg">
<rect x="98.800000" y="33.000000" width="129.000000" height="24.000000" rx="0" ry="0" style="stroke:none;fill:#cccccc;"/>
<rect x="97.800000" y="32.000000" width="129.000000" height="24.000000" rx="0" ry="0" style="stroke:none;fill:#003366;"/>
</a>
<a xlink:href="lms-0x7f8ada5d8d50.svg">
<text x="162.300000" y="46.000000" font-family="Arial" font-size="7" text-anchor="middle" fill="#FFFFFF">lms_fb(2)(1)(...0f, 0.0001f))</text>
</a>
<circle cx="99.800000" cy="34.000000" r="1"/>
<line x1="94.800000" y1="35.000000" x2="97.800000" y2="36.000000"  transform="rotate(0.000000,97.800000,36.000000)" style="stroke: black; stroke-width:0.25;"/>
<line x1="94.800000" y1="37.000000" x2="97.800000" y2="36.000000"  transform="rotate(0.000000,97.800000,36.000000)" style="stroke: black; stroke-width:0.25;"/>
<line x1="94.800000" y1="43.000000" x2="97.800000" y2="44.000000"  transform="rotate(0.000000,97.800000,44.000000)" style="stroke: black; stroke-width:0.25;"/>
<line x1="94.800000" y1="45.000000" x2="97.800000" y2="44.000000"  transform="rotate(0.000000,97.800000,44.000000)" style="stroke: black; stroke-width:0.25;"/>
<line x1="94.800000" y1="51.000000" x2="97.800000" y2="52.000000"  transform="rotate(0.000000,97.800000,52.000000)" style="stroke: black; stroke-width:0.25;"/>
<line x1="94.800000" y1="53.000000" x2="97.800000" y2="52.000000"  transform="rotate(0.000000,97.800000,52.000000)" style="stroke: black; stroke-width:0.25;"/>
<line x1="15.000000" y1="15.000000" x2="15.000000" y2="73.000000"  style="stroke: black; stroke-linecap:round; stroke-width:0.25; stroke-dasharray:3,3;"/>
<line x1="15.000000" y1="73.000000" x2="243.800000" y2="73.000000"  style="stroke: black; stroke-linecap:round; stroke-width:0.25; stroke-dasharray:3,3;"/>
<line x1="243.800000" y1="73.000000" x2="243.800000" y2="15.000000"  style="stroke: black; stroke-linecap:round; stroke-width:0.25; stroke-dasharray:3,3;"/>
<line x1="15.000000" y1="15.000000" x2="20.000000" y2="15.000000"  style="stroke: black; stroke-linecap:round; stroke-width:0.25; stroke-dasharray:3,3;"/>
<line x1="32.900000" y1="15.000000" x2="243.800000" y2="15.000000"  style="stroke: black; stroke-linecap:round; stroke-width:0.25; stroke-dasharray:3,3;"/>
<text x="20.000000" y="17.000000" font-family="Arial" font-size="7">fb</text>
<line x1="245.800000" y1="43.000000" x2="248.800000" y2="44.000000"  transform="rotate(0.000000,248.800000,44.000000)" style="stroke: black; stroke-width:0.25;"/>
<line x1="245.800000" y1="45.000000" x2="248.800000" y2="44.000000"  transform="rotate(0.000000,248.800000,44.000000)" style="stroke: black; stroke-width:0.25;"/>
<line x1="10.000000" y1="40.000000" x2="20.000000" y2="40.000000"  style="stroke:black; stroke-linecap:round; stroke-width:0.25;"/>
<line x1="10.000000" y1="48.000000" x2="20.000000" y2="48.000000"  style="stroke:black; stroke-linecap:round; stroke-width:0.25;"/>
<line x1="20.000000" y1="40.000000" x2="24.000000" y2="40.000000"  style="stroke:black; stroke-linecap:round; stroke-width:0.25;"/>
<line x1="20.000000" y1="48.000000" x2="24.000000" y2="48.000000"  style="stroke:black; stroke-linecap:round; stroke-width:0.25;"/>
<line x1="24.000000" y1="40.000000" x2="28.000000" y2="40.000000"  style="stroke:black; stroke-linecap:round; stroke-width:0.25;"/>
<line x1="24.000000" y1="48.000000" x2="28.000000" y2="48.000000"  style="stroke:black; stroke-linecap:round; stroke-width:0.25;"/>
<line x1="28.000000" y1="24.000000" x2="44.000000" y2="24.000000"  style="stroke:black; stroke-linecap:round; stroke-width:0.25;"/>
<line x1="28.000000" y1="40.000000" x2="28.000000" y2="24.000000"  style="stroke:black; stroke-linecap:round; stroke-width:0.25;"/>
<line x1="28.000000" y1="40.000000" x2="28.000000" y2="40.000000"  style="stroke:black; stroke-linecap:round; stroke-width:0.25;"/>
<line x1="28.000000" y1="48.000000" x2="36.000000" y2="48.000000"  style="stroke:black; stroke-linecap:round; stroke-width:0.25;"/>
<line x1="36.000000" y1="32.000000" x2="44.000000" y2="32.000000"  style="stroke:black; stroke-linecap:round; stroke-width:0.25;"/>
<line x1="36.000000" y1="48.000000" x2="36.000000" y2="32.000000"  style="stroke:black; stroke-linecap:round; stroke-width:0.25;"/>
<line x1="44.000000" y1="24.000000" x2="60.900000" y2="24.000000"  style="stroke:black; stroke-linecap:round; stroke-width:0.25;"/>
<line x1="44.000000" y1="32.000000" x2="60.900000" y2="32.000000"  style="stroke:black; stroke-linecap:round; stroke-width:0.25;"/>
<line x1="60.900000" y1="24.000000" x2="77.800000" y2="24.000000"  style="stroke:black; stroke-linecap:round; stroke-width:0.25;"/>
<line x1="60.900000" y1="32.000000" x2="77.800000" y2="32.000000"  style="stroke:black; stroke-linecap:round; stroke-width:0.25;"/>
<line x1="73.800000" y1="52.000000" x2="77.800000" y2="52.000000"  style="stroke:black; stroke-linecap:round; stroke-width:0.25;"/>
<line x1="77.800000" y1="24.000000" x2="93.800000" y2="24.000000"  style="stroke:black; stroke-linecap:round; stroke-width:0.25;"/>
<line x1="77.800000" y1="32.000000" x2="85.800000" y2="32.000000"  style="stroke:black; stroke-linecap:round; stroke-width:0.25;"/>
<line x1="77.800000" y1="52.000000" x2="93.800000" y2="52.000000"  style="stroke:black; stroke-linecap:round; stroke-width:0.25;"/>
<line x1="85.800000" y1="32.000000" x2="85.800000" y2="44.000000"  style="stroke:black; stroke-linecap:round; stroke-width:0.25;"/>
<line x1="85.800000" y1="44.000000" x2="93.800000" y2="44.000000"  style="stroke:black; stroke-linecap:round; stroke-width:0.25;"/>
<line x1="93.800000" y1="24.000000" x2="93.800000" y2="36.000000"  style="stroke:black; stroke-linecap:round; stroke-width:0.25;"/>
<line x1="93.800000" y1="36.000000" x2="93.800000" y2="36.000000"  style="stroke:black; stroke-linecap:round; stroke-width:0.25;"/>
<line x1="93.800000" y1="36.000000" x2="97.800000" y2="36.000000"  style="stroke:black; stroke-linecap:round; stroke-width:0.25;"/>
<line x1="93.800000" y1="44.000000" x2="97.800000" y2="44.000000"  style="stroke:black; stroke-linecap:round; stroke-width:0.25;"/>
<line x1="93.800000" y1="52.000000" x2="97.800000" y2="52.000000"  style="stroke:black; stroke-linecap:round; stroke-width:0.25;"/>
<line x1="226.800000" y1="44.000000" x2="230.800000" y2="44.000000"  style="stroke:black; stroke-linecap:round; stroke-width:0.25;"/>
<line x1="230.800000" y1="44.000000" x2="230.800000" y2="44.000000"  style="stroke:black; stroke-linecap:round; stroke-width:0.25;"/>
<line x1="230.800000" y1="44.000000" x2="234.800000" y2="44.000000"  style="stroke:black; stroke-linecap:round; stroke-width:0.25;"/>
<line x1="234.800000" y1="44.000000" x2="238.800000" y2="44.000000"  style="stroke:black; stroke-linecap:round; stroke-width:0.25;"/>
<line x1="238.800000" y1="44.000000" x2="248.800000" y2="44.000000"  style="stroke:black; stroke-linecap:round; stroke-width:0.25;"/>
</svg>
