<?xml version="1.0"?>
<svg xmlns="http://www.w3.org/2000/svg" xmlns:xlink="http://www.w3.org/1999/xlink" viewBox="0 0 624.400000 208.000000" width="312.200000mm" height="104.000000mm" version="1.1">
<a xlink:href="qam-0x7f8add433b50.svg">
<rect x="1.000000" y="1.000000" width="623.400000" height="207.000000" rx="0" ry="0" style="stroke:none;fill:#cccccc;"/>
<rect x="0.000000" y="0.000000" width="623.400000" height="207.000000" rx="0" ry="0" style="stroke:none;fill:#ffffff;"/>
</a>
<text x="10.000000" y="7.000000" font-family="Arial" font-size="7"></text>
<rect x="41.000000" y="77.000000" width="24.000000" height="24.000000" rx="0" ry="0" style="stroke:none;fill:#cccccc;"/>
<rect x="40.000000" y="76.000000" width="24.000000" height="24.000000" rx="0" ry="0" style="stroke:none;fill:#47945E;"/>
<text x="52.000000" y="90.000000" font-family="Arial" font-size="7" text-anchor="middle" fill="#FFFFFF">in1</text>
<circle cx="42.000000" cy="78.000000" r="1"/>
<line x1="37.000000" y1="87.000000" x2="40.000000" y2="88.000000"  transform="rotate(0.000000,40.000000,88.000000)" style="stroke: black; stroke-width:0.25;"/>
<line x1="37.000000" y1="89.000000" x2="40.000000" y2="88.000000"  transform="rotate(0.000000,40.000000,88.000000)" style="stroke: black; stroke-width:0.25;"/>
<rect x="41.000000" y="109.000000" width="24.000000" height="24.000000" rx="0" ry="0" style="stroke:none;fill:#cccccc;"/>
<rect x="40.000000" y="108.000000" width="24.000000" height="24.000000" rx="0" ry="0" style="stroke:none;fill:#47945E;"/>
<text x="52.000000" y="122.000000" font-family="Arial" font-size="7" text-anchor="middle" fill="#FFFFFF">in2</text>
<circle cx="42.000000" cy="110.000000" r="1"/>
<line x1="37.000000" y1="119.000000" x2="40.000000" y2="120.000000"  transform="rotate(0.000000,40.000000,120.000000)" style="stroke: black; stroke-width:0.25;"/>
<line x1="37.000000" y1="121.000000" x2="40.000000" y2="120.000000"  transform="rotate(0.000000,40.000000,120.000000)" style="stroke: black; stroke-width:0.25;"/>
<rect x="113.000000" y="129.000000" width="24.000000" height="24.000000" rx="0" ry="0" style="stroke:none;fill:#cccccc;"/>
<rect x="112.000000" y="128.000000" width="24.000000" height="24.000000" rx="0" ry="0" style="stroke:none;fill:#47945E;"/>
<text x="124.000000" y="142.000000" font-family="Arial" font-size="7" text-anchor="middle" fill="#FFFFFF">in1</text>
<circle cx="114.000000" cy="130.000000" r="1"/>
<rect x="113.000000" y="161.000000" width="24.000000" height="24.000000" rx="0" ry="0" style="stroke:none;fill:#cccccc;"/>
<rect x="112.000000" y="160.000000" width="24.000000" height="24.000000" rx="0" ry="0" style="stroke:none;fill:#47945E;"/>
<text x="124.000000" y="174.000000" font-family="Arial" font-size="7" text-anchor="middle" fill="#FFFFFF">in2</text>
<circle cx="114.000000" cy="162.000000" r="1"/>
<a xlink:href="sampler-0x7f8ada4b1630.svg">
<rect x="153.000000" y="145.000000" width="51.600000" height="24.000000" rx="0" ry="0" style="stroke:none;fill:#cccccc;"/>
<rect x="152.000000" y="144.000000" width="51.600000" height="24.000000" rx="0" ry="0" style="stroke:none;fill:#003366;"/>
</a>
<a xlink:href="sampler-0x7f8ada4b1630.svg">
<text x="177.800000" y="158.000000" font-family="Arial" font-size="7" text-anchor="middle" fill="#FFFFFF">sampler(x12)</text>
</a>
<circle cx="154.000000" cy="146.000000" r="1"/>
<line x1="149.000000" y1="151.000000" x2="152.000000" y2="152.000000"  transform="rotate(0.000000,152.000000,152.000000)" style="stroke: black; stroke-width:0.25;"/>
<line x1="149.000000" y1="153.000000" x2="152.000000" y2="152.000000"  transform="rotate(0.000000,152.000000,152.000000)" style="stroke: black; stroke-width:0.25;"/>
<line x1="149.000000" y1="159.000000" x2="152.000000" y2="160.000000"  transform="rotate(0.000000,152.000000,160.000000)" style="stroke: black; stroke-width:0.25;"/>
<line x1="149.000000" y1="161.000000" x2="152.000000" y2="160.000000"  transform="rotate(0.000000,152.000000,160.000000)" style="stroke: black; stroke-width:0.25;"/>
<a xlink:href="lms-0x7f8ada5d9a70.svg">
<rect x="252.600000" y="109.000000" width="64.500000" height="56.000000" rx="0" ry="0" style="stroke:none;fill:#cccccc;"/>
<rect x="251.600000" y="108.000000" width="64.500000" height="56.000000" rx="0" ry="0" style="stroke:none;fill:#003366;"/>
</a>
<a xlink:href="lms-0x7f8ada5d9a70.svg">
<text x="283.850000" y="138.000000" font-family="Arial" font-size="7" text-anchor="middle" fill="#FFFFFF">lms_stereo(x12)</text>
</a>
<circle cx="253.600000" cy="110.000000" r="1"/>
<line x1="248.600000" y1="111.000000" x2="251.600000" y2="112.000000"  transform="rotate(0.000000,251.600000,112.000000)" style="stroke: black; stroke-width:0.25;"/>
<line x1="248.600000" y1="113.000000" x2="251.600000" y2="112.000000"  transform="rotate(0.000000,251.600000,112.000000)" style="stroke: black; stroke-width:0.25;"/>
<line x1="248.600000" y1="119.000000" x2="251.600000" y2="120.000000"  transform="rotate(0.000000,251.600000,120.000000)" style="stroke: black; stroke-width:0.25;"/>
<line x1="248.600000" y1="121.000000" x2="251.600000" y2="120.000000"  transform="rotate(0.000000,251.600000,120.000000)" style="stroke: black; stroke-width:0.25;"/>
<line x1="248.600000" y1="127.000000" x2="251.600000" y2="128.000000"  transform="rotate(0.000000,251.600000,128.000000)" style="stroke: black; stroke-width:0.25;"/>
<line x1="248.600000" y1="129.000000" x2="251.600000" y2="128.000000"  transform="rotate(0.000000,251.600000,128.000000)" style="stroke: black; stroke-width:0.25;"/>
<line x1="248.600000" y1="135.000000" x2="251.600000" y2="136.000000"  transform="rotate(0.000000,251.600000,136.000000)" style="stroke: black; stroke-width:0.25;"/>
<line x1="248.600000" y1="137.000000" x2="251.600000" y2="136.000000"  transform="rotate(0.000000,251.600000,136.000000)" style="stroke: black; stroke-width:0.25;"/>
<line x1="248.600000" y1="143.000000" x2="251.600000" y2="144.000000"  transform="rotate(0.000000,251.600000,144.000000)" style="stroke: black; stroke-width:0.25;"/>
<line x1="248.600000" y1="145.000000" x2="251.600000" y2="144.000000"  transform="rotate(0.000000,251.600000,144.000000)" style="stroke: black; stroke-width:0.25;"/>
<line x1="248.600000" y1="151.000000" x2="251.600000" y2="152.000000"  transform="rotate(0.000000,251.600000,152.000000)" style="stroke: black; stroke-width:0.25;"/>
<line x1="248.600000" y1="153.000000" x2="251.600000" y2="152.000000"  transform="rotate(0.000000,251.600000,152.000000)" style="stroke: black; stroke-width:0.25;"/>
<line x1="248.600000" y1="159.000000" x2="251.600000" y2="160.000000"  transform="rotate(0.000000,251.600000,160.000000)" style="stroke: black; stroke-width:0.25;"/>
<line x1="248.600000" y1="161.000000" x2="251.600000" y2="160.000000"  transform="rotate(0.000000,251.600000,160.000000)" style="stroke: black; stroke-width:0.25;"/>
<a xlink:href="traindel-0x7f8ada48aa10.svg">
<rect x="367.100000" y="117.000000" width="38.700000" height="24.000000" rx="0" ry="0" style="stroke:none;fill:#cccccc;"/>
<rect x="366.100000" y="116.000000" width="38.700000" height="24.000000" rx="0" ry="0" style="stroke:none;fill:#003366;"/>
</a>
<a xlink:href="traindel-0x7f8ada48aa10.svg">
<text x="385.450000" y="130.000000" font-family="Arial" font-size="7" text-anchor="middle" fill="#FFFFFF">traindel</text>
</a>
<circle cx="368.100000" cy="118.000000" r="1"/>
<line x1="363.100000" y1="123.000000" x2="366.100000" y2="124.000000"  transform="rotate(0.000000,366.100000,124.000000)" style="stroke: black; stroke-width:0.25;"/>
<line x1="363.100000" y1="125.000000" x2="366.100000" y2="124.000000"  transform="rotate(0.000000,366.100000,124.000000)" style="stroke: black; stroke-width:0.25;"/>
<line x1="363.100000" y1="131.000000" x2="366.100000" y2="132.000000"  transform="rotate(0.000000,366.100000,132.000000)" style="stroke: black; stroke-width:0.25;"/>
<line x1="363.100000" y1="133.000000" x2="366.100000" y2="132.000000"  transform="rotate(0.000000,366.100000,132.000000)" style="stroke: black; stroke-width:0.25;"/>
<a xlink:href="decide-0x7f8add42d570.svg">
<rect x="413.800000" y="109.000000" width="51.600000" height="40.000000" rx="0" ry="0" style="stroke:none;fill:#cccccc;"/>
<rect x="412.800000" y="108.000000" width="51.600000" height="40.000000" rx="0" ry="0" style="stroke:none;fill:#003366;"/>
</a>
<a xlink:href="decide-0x7f8add42d570.svg">
<text x="438.600000" y="130.000000" font-family="Arial" font-size="7" text-anchor="middle" fill="#FFFFFF">decide_remap</text>
</a>
<circle cx="414.800000" cy="110.000000" r="1"/>
<line x1="409.800000" y1="123.000000" x2="412.800000" y2="124.000000"  transform="rotate(0.000000,412.800000,124.000000)" style="stroke: black; stroke-width:0.25;"/>
<line x1="409.800000" y1="125.000000" x2="412.800000" y2="124.000000"  transform="rotate(0.000000,412.800000,124.000000)" style="stroke: black; stroke-width:0.25;"/>
<line x1="409.800000" y1="131.000000" x2="412.800000" y2="132.000000"  transform="rotate(0.000000,412.800000,132.000000)" style="stroke: black; stroke-width:0.25;"/>
<line x1="409.800000" y1="133.000000" x2="412.800000" y2="132.000000"  transform="rotate(0.000000,412.800000,132.000000)" style="stroke: black; stroke-width:0.25;"/>
<a xlink:href="lowpass-0x7f8ada6dd4f0.svg">
<rect x="224.700000" y="57.000000" width="129.000000" height="24.000000" rx="0" ry="0" style="stroke:none;fill:#cccccc;"/>
<rect x="223.700000" y="56.000000" width="129.000000" height="24.000000" rx="0" ry="0" style="stroke:none;fill:#003366;"/>
</a>
<a xlink:href="lowpass-0x7f8ada6dd4f0.svg">
<text x="288.200000" y="70.000000" font-family="Arial" font-size="7" text-anchor="middle" fill="#FFFFFF">lowpass(1)(ch...f) : select2)</text>
</a>
<circle cx="350.700000" cy="78.000000" r="1"/>
<line x1="355.700000" y1="67.000000" x2="352.700000" y2="68.000000"  transform="rotate(0.000000,352.700000,68.000000)" style="stroke: black; stroke-width:0.25;"/>
<line x1="355.700000" y1="69.000000" x2="352.700000" y2="68.000000"  transform="rotate(0.000000,352.700000,68.000000)" style="stroke: black; stroke-width:0.25;"/>
<line x1="466.400000" y1="112.000000" x2="466.400000" y2="108.000000"  style="stroke:black; stroke-linecap:round; stroke-width:0.25;"/>
<line x1="466.400000" y1="108.000000" x2="470.400000" y2="108.000000"  style="stroke:black; stroke-linecap:round; stroke-width:0.25;"/>
<line x1="470.400000" y1="108.000000" x2="470.400000" y2="112.000000"  style="stroke:black; stroke-linecap:round; stroke-width:0.25;"/>
<line x1="474.400000" y1="120.000000" x2="474.400000" y2="116.000000"  style="stroke:black; stroke-linecap:round; stroke-width:0.25;"/>
<line x1="474.400000" y1="116.000000" x2="478.400000" y2="116.000000"  style="stroke:black; stroke-linecap:round; stroke-width:0.25;"/>
<line x1="478.400000" y1="116.000000" x2="478.400000" y2="120.000000"  style="stroke:black; stroke-linecap:round; stroke-width:0.25;"/>
<line x1="482.400000" y1="128.000000" x2="482.400000" y2="124.000000"  style="stroke:black; stroke-linecap:round; stroke-width:0.25;"/>
<line x1="482.400000" y1="124.000000" x2="486.400000" y2="124.000000"  style="stroke:black; stroke-linecap:round; stroke-width:0.25;"/>
<line x1="486.400000" y1="124.000000" x2="486.400000" y2="128.000000"  style="stroke:black; stroke-linecap:round; stroke-width:0.25;"/>
<line x1="490.400000" y1="136.000000" x2="490.400000" y2="132.000000"  style="stroke:black; stroke-linecap:round; stroke-width:0.25;"/>
<line x1="490.400000" y1="132.000000" x2="494.400000" y2="132.000000"  style="stroke:black; stroke-linecap:round; stroke-width:0.25;"/>
<line x1="494.400000" y1="132.000000" x2="494.400000" y2="136.000000"  style="stroke:black; stroke-linecap:round; stroke-width:0.25;"/>
<line x1="498.400000" y1="144.000000" x2="498.400000" y2="140.000000"  style="stroke:black; stroke-linecap:round; stroke-width:0.25;"/>
<line x1="498.400000" y1="140.000000" x2="502.400000" y2="140.000000"  style="stroke:black; stroke-linecap:round; stroke-width:0.25;"/>
<line x1="502.400000" y1="140.000000" x2="502.400000" y2="144.000000"  style="stroke:black; stroke-linecap:round; stroke-width:0.25;"/>
<line x1="15.000000" y1="15.000000" x2="15.000000" y2="193.000000"  style="stroke: black; stroke-linecap:round; stroke-width:0.25; stroke-dasharray:3,3;"/>
<line x1="15.000000" y1="193.000000" x2="609.400000" y2="193.000000"  style="stroke: black; stroke-linecap:round; stroke-width:0.25; stroke-dasharray:3,3;"/>
<line x1="609.400000" y1="193.000000" x2="609.400000" y2="15.000000"  style="stroke: black; stroke-linecap:round; stroke-width:0.25; stroke-dasharray:3,3;"/>
<line x1="15.000000" y1="15.000000" x2="20.000000" y2="15.000000"  style="stroke: black; stroke-linecap:round; stroke-width:0.25; stroke-dasharray:3,3;"/>
<line x1="55.475000" y1="15.000000" x2="609.400000" y2="15.000000"  style="stroke: black; stroke-linecap:round; stroke-width:0.25; stroke-dasharray:3,3;"/>
<text x="20.000000" y="17.000000" font-family="Arial" font-size="7">filtering</text>
<line x1="611.400000" y1="87.000000" x2="614.400000" y2="88.000000"  transform="rotate(0.000000,614.400000,88.000000)" style="stroke: black; stroke-width:0.25;"/>
<line x1="611.400000" y1="89.000000" x2="614.400000" y2="88.000000"  transform="rotate(0.000000,614.400000,88.000000)" style="stroke: black; stroke-width:0.25;"/>
<line x1="611.400000" y1="95.000000" x2="614.400000" y2="96.000000"  transform="rotate(0.000000,614.400000,96.000000)" style="stroke: black; stroke-width:0.25;"/>
<line x1="611.400000" y1="97.000000" x2="614.400000" y2="96.000000"  transform="rotate(0.000000,614.400000,96.000000)" style="stroke: black; stroke-width:0.25;"/>
<line x1="611.400000" y1="103.000000" x2="614.400000" y2="104.000000"  transform="rotate(0.000000,614.400000,104.000000)" style="stroke: black; stroke-width:0.25;"/>
<line x1="611.400000" y1="105.000000" x2="614.400000" y2="104.000000"  transform="rotate(0.000000,614.400000,104.000000)" style="stroke: black; stroke-width:0.25;"/>
<line x1="611.400000" y1="111.000000" x2="614.400000" y2="112.000000"  transform="rotate(0.000000,614.400000,112.000000)" style="stroke: black; stroke-width:0.25;"/>
<line x1="611.400000" y1="113.000000" x2="614.400000" y2="112.000000"  transform="rotate(0.000000,614.400000,112.000000)" style="stroke: black; stroke-width:0.25;"/>
<line x1="611.400000" y1="119.000000" x2="614.400000" y2="120.000000"  transform="rotate(0.000000,614.400000,120.000000)" style="stroke: black; stroke-width:0.25;"/>
<line x1="611.400000" y1="121.000000" x2="614.400000" y2="120.000000"  transform="rotate(0.000000,614.400000,120.000000)" style="stroke: black; stroke-width:0.25;"/>
<line x1="10.000000" y1="100.000000" x2="20.000000" y2="100.000000"  style="stroke:black; stroke-linecap:round; stroke-width:0.25;"/>
<line x1="10.000000" y1="108.000000" x2="20.000000" y2="108.000000"  style="stroke:black; stroke-linecap:round; stroke-width:0.25;"/>
<line x1="20.000000" y1="100.000000" x2="24.000000" y2="100.000000"  style="stroke:black; stroke-linecap:round; stroke-width:0.25;"/>
<line x1="20.000000" y1="108.000000" x2="24.000000" y2="108.000000"  style="stroke:black; stroke-linecap:round; stroke-width:0.25;"/>
<line x1="24.000000" y1="100.000000" x2="28.000000" y2="100.000000"  style="stroke:black; stroke-linecap:round; stroke-width:0.25;"/>
<line x1="24.000000" y1="108.000000" x2="28.000000" y2="108.000000"  style="stroke:black; stroke-linecap:round; stroke-width:0.25;"/>
<line x1="28.000000" y1="88.000000" x2="36.000000" y2="88.000000"  style="stroke:black; stroke-linecap:round; stroke-width:0.25;"/>
<line x1="28.000000" y1="100.000000" x2="28.000000" y2="88.000000"  style="stroke:black; stroke-linecap:round; stroke-width:0.25;"/>
<line x1="28.000000" y1="100.000000" x2="28.000000" y2="100.000000"  style="stroke:black; stroke-linecap:round; stroke-width:0.25;"/>
<line x1="28.000000" y1="108.000000" x2="36.000000" y2="108.000000"  style="stroke:black; stroke-linecap:round; stroke-width:0.25;"/>
<line x1="36.000000" y1="88.000000" x2="40.000000" y2="88.000000"  style="stroke:black; stroke-linecap:round; stroke-width:0.25;"/>
<line x1="36.000000" y1="108.000000" x2="36.000000" y2="120.000000"  style="stroke:black; stroke-linecap:round; stroke-width:0.25;"/>
<line x1="36.000000" y1="120.000000" x2="36.000000" y2="120.000000"  style="stroke:black; stroke-linecap:round; stroke-width:0.25;"/>
<line x1="36.000000" y1="120.000000" x2="40.000000" y2="120.000000"  style="stroke:black; stroke-linecap:round; stroke-width:0.25;"/>
<line x1="76.000000" y1="24.000000" x2="76.000000" y2="120.000000"  style="stroke:black; stroke-linecap:round; stroke-width:0.25;"/>
<line x1="76.000000" y1="120.000000" x2="108.000000" y2="120.000000"  style="stroke:black; stroke-linecap:round; stroke-width:0.25;"/>
<line x1="84.000000" y1="32.000000" x2="84.000000" y2="112.000000"  style="stroke:black; stroke-linecap:round; stroke-width:0.25;"/>
<line x1="84.000000" y1="112.000000" x2="108.000000" y2="112.000000"  style="stroke:black; stroke-linecap:round; stroke-width:0.25;"/>
<line x1="92.000000" y1="40.000000" x2="92.000000" y2="104.000000"  style="stroke:black; stroke-linecap:round; stroke-width:0.25;"/>
<line x1="92.000000" y1="104.000000" x2="108.000000" y2="104.000000"  style="stroke:black; stroke-linecap:round; stroke-width:0.25;"/>
<line x1="100.000000" y1="48.000000" x2="100.000000" y2="96.000000"  style="stroke:black; stroke-linecap:round; stroke-width:0.25;"/>
<line x1="100.000000" y1="96.000000" x2="108.000000" y2="96.000000"  style="stroke:black; stroke-linecap:round; stroke-width:0.25;"/>
<line x1="108.000000" y1="24.000000" x2="76.000000" y2="24.000000"  style="stroke:black; stroke-linecap:round; stroke-width:0.25;"/>
<line x1="108.000000" y1="32.000000" x2="84.000000" y2="32.000000"  style="stroke:black; stroke-linecap:round; stroke-width:0.25;"/>
<line x1="108.000000" y1="40.000000" x2="92.000000" y2="40.000000"  style="stroke:black; stroke-linecap:round; stroke-width:0.25;"/>
<line x1="108.000000" y1="48.000000" x2="100.000000" y2="48.000000"  style="stroke:black; stroke-linecap:round; stroke-width:0.25;"/>
<line x1="108.000000" y1="68.000000" x2="108.000000" y2="68.000000"  style="stroke:black; stroke-linecap:round; stroke-width:0.25;"/>
<line x1="108.000000" y1="68.000000" x2="108.000000" y2="88.000000"  style="stroke:black; stroke-linecap:round; stroke-width:0.25;"/>
<line x1="108.000000" y1="88.000000" x2="108.000000" y2="88.000000"  style="stroke:black; stroke-linecap:round; stroke-width:0.25;"/>
<line x1="108.000000" y1="88.000000" x2="157.800000" y2="88.000000"  style="stroke:black; stroke-linecap:round; stroke-width:0.25;"/>
<line x1="108.000000" y1="96.000000" x2="157.800000" y2="96.000000"  style="stroke:black; stroke-linecap:round; stroke-width:0.25;"/>
<line x1="108.000000" y1="104.000000" x2="157.800000" y2="104.000000"  style="stroke:black; stroke-linecap:round; stroke-width:0.25;"/>
<line x1="108.000000" y1="112.000000" x2="157.800000" y2="112.000000"  style="stroke:black; stroke-linecap:round; stroke-width:0.25;"/>
<line x1="108.000000" y1="120.000000" x2="157.800000" y2="120.000000"  style="stroke:black; stroke-linecap:round; stroke-width:0.25;"/>
<line x1="136.000000" y1="140.000000" x2="140.000000" y2="140.000000"  style="stroke:black; stroke-linecap:round; stroke-width:0.25;"/>
<line x1="136.000000" y1="172.000000" x2="140.000000" y2="172.000000"  style="stroke:black; stroke-linecap:round; stroke-width:0.25;"/>
<line x1="140.000000" y1="140.000000" x2="148.000000" y2="140.000000"  style="stroke:black; stroke-linecap:round; stroke-width:0.25;"/>
<line x1="140.000000" y1="160.000000" x2="148.000000" y2="160.000000"  style="stroke:black; stroke-linecap:round; stroke-width:0.25;"/>
<line x1="140.000000" y1="172.000000" x2="140.000000" y2="160.000000"  style="stroke:black; stroke-linecap:round; stroke-width:0.25;"/>
<line x1="140.000000" y1="172.000000" x2="140.000000" y2="172.000000"  style="stroke:black; stroke-linecap:round; stroke-width:0.25;"/>
<line x1="148.000000" y1="140.000000" x2="148.000000" y2="152.000000"  style="stroke:black; stroke-linecap:round; stroke-width:0.25;"/>
<line x1="148.000000" y1="152.000000" x2="148.000000" y2="152.000000"  style="stroke:black; stroke-linecap:round; stroke-width:0.25;"/>
<line x1="148.000000" y1="152.000000" x2="152.000000" y2="152.000000"  style="stroke:black; stroke-linecap:round; stroke-width:0.25;"/>
<line x1="148.000000" y1="160.000000" x2="152.000000" y2="160.000000"  style="stroke:black; stroke-linecap:round; stroke-width:0.25;"/>
<line x1="157.800000" y1="88.000000" x2="207.600000" y2="88.000000"  style="stroke:black; stroke-linecap:round; stroke-width:0.25;"/>
<line x1="157.800000" y1="96.000000" x2="207.600000" y2="96.000000"  style="stroke:black; stroke-linecap:round; stroke-width:0.25;"/>
<line x1="157.800000" y1="104.000000" x2="207.600000" y2="104.000000"  style="stroke:black; stroke-linecap:round; stroke-width:0.25;"/>
<line x1="157.800000" y1="112.000000" x2="207.600000" y2="112.000000"  style="stroke:black; stroke-linecap:round; stroke-width:0.25;"/>
<line x1="157.800000" y1="120.000000" x2="207.600000" y2="120.000000"  style="stroke:black; stroke-linecap:round; stroke-width:0.25;"/>
<line x1="203.600000" y1="152.000000" x2="207.600000" y2="152.000000"  style="stroke:black; stroke-linecap:round; stroke-width:0.25;"/>
<line x1="203.600000" y1="160.000000" x2="207.600000" y2="160.000000"  style="stroke:black; stroke-linecap:round; stroke-width:0.25;"/>
<line x1="207.600000" y1="152.000000" x2="247.600000" y2="152.000000"  style="stroke:black; stroke-linecap:round; stroke-width:0.25;"/>
<line x1="207.600000" y1="160.000000" x2="247.600000" y2="160.000000"  style="stroke:black; stroke-linecap:round; stroke-width:0.25;"/>
<line x1="207.600000" y1="88.000000" x2="247.600000" y2="88.000000"  style="stroke:black; stroke-linecap:round; stroke-width:0.25;"/>
<line x1="207.600000" y1="96.000000" x2="239.600000" y2="96.000000"  style="stroke:black; stroke-linecap:round; stroke-width:0.25;"/>
<line x1="207.600000" y1="104.000000" x2="231.600000" y2="104.000000"  style="stroke:black; stroke-linecap:round; stroke-width:0.25;"/>
<line x1="207.600000" y1="112.000000" x2="223.600000" y2="112.000000"  style="stroke:black; stroke-linecap:round; stroke-width:0.25;"/>
<line x1="207.600000" y1="120.000000" x2="215.600000" y2="120.000000"  style="stroke:black; stroke-linecap:round; stroke-width:0.25;"/>
<line x1="215.600000" y1="120.000000" x2="215.600000" y2="144.000000"  style="stroke:black; stroke-linecap:round; stroke-width:0.25;"/>
<line x1="215.600000" y1="144.000000" x2="247.600000" y2="144.000000"  style="stroke:black; stroke-linecap:round; stroke-width:0.25;"/>
<line x1="219.700000" y1="24.000000" x2="108.000000" y2="24.000000"  style="stroke:black; stroke-linecap:round; stroke-width:0.25;"/>
<line x1="219.700000" y1="32.000000" x2="108.000000" y2="32.000000"  style="stroke:black; stroke-linecap:round; stroke-width:0.25;"/>
<line x1="219.700000" y1="40.000000" x2="108.000000" y2="40.000000"  style="stroke:black; stroke-linecap:round; stroke-width:0.25;"/>
<line x1="219.700000" y1="48.000000" x2="108.000000" y2="48.000000"  style="stroke:black; stroke-linecap:round; stroke-width:0.25;"/>
<line x1="219.700000" y1="68.000000" x2="108.000000" y2="68.000000"  style="stroke:black; stroke-linecap:round; stroke-width:0.25;"/>
<line x1="223.600000" y1="112.000000" x2="223.600000" y2="136.000000"  style="stroke:black; stroke-linecap:round; stroke-width:0.25;"/>
<line x1="223.600000" y1="136.000000" x2="247.600000" y2="136.000000"  style="stroke:black; stroke-linecap:round; stroke-width:0.25;"/>
<line x1="223.700000" y1="68.000000" x2="219.700000" y2="68.000000"  style="stroke:black; stroke-linecap:round; stroke-width:0.25;"/>
<line x1="231.600000" y1="104.000000" x2="231.600000" y2="128.000000"  style="stroke:black; stroke-linecap:round; stroke-width:0.25;"/>
<line x1="231.600000" y1="128.000000" x2="247.600000" y2="128.000000"  style="stroke:black; stroke-linecap:round; stroke-width:0.25;"/>
<line x1="239.600000" y1="96.000000" x2="239.600000" y2="120.000000"  style="stroke:black; stroke-linecap:round; stroke-width:0.25;"/>
<line x1="239.600000" y1="120.000000" x2="247.600000" y2="120.000000"  style="stroke:black; stroke-linecap:round; stroke-width:0.25;"/>
<line x1="247.600000" y1="112.000000" x2="251.600000" y2="112.000000"  style="stroke:black; stroke-linecap:round; stroke-width:0.25;"/>
<line x1="247.600000" y1="120.000000" x2="251.600000" y2="120.000000"  style="stroke:black; stroke-linecap:round; stroke-width:0.25;"/>
<line x1="247.600000" y1="128.000000" x2="251.600000" y2="128.000000"  style="stroke:black; stroke-linecap:round; stroke-width:0.25;"/>
<line x1="247.600000" y1="136.000000" x2="251.600000" y2="136.000000"  style="stroke:black; stroke-linecap:round; stroke-width:0.25;"/>
<line x1="247.600000" y1="144.000000" x2="251.600000" y2="144.000000"  style="stroke:black; stroke-linecap:round; stroke-width:0.25;"/>
<line x1="247.600000" y1="152.000000" x2="251.600000" y2="152.000000"  style="stroke:black; stroke-linecap:round; stroke-width:0.25;"/>
<line x1="247.600000" y1="160.000000" x2="251.600000" y2="160.000000"  style="stroke:black; stroke-linecap:round; stroke-width:0.25;"/>
<line x1="247.600000" y1="88.000000" x2="247.600000" y2="112.000000"  style="stroke:black; stroke-linecap:round; stroke-width:0.25;"/>
<line x1="247.600000" y1="112.000000" x2="247.600000" y2="112.000000"  style="stroke:black; stroke-linecap:round; stroke-width:0.25;"/>
<line x1="288.200000" y1="24.000000" x2="219.700000" y2="24.000000"  style="stroke:black; stroke-linecap:round; stroke-width:0.25;"/>
<line x1="288.200000" y1="32.000000" x2="219.700000" y2="32.000000"  style="stroke:black; stroke-linecap:round; stroke-width:0.25;"/>
<line x1="288.200000" y1="40.000000" x2="219.700000" y2="40.000000"  style="stroke:black; stroke-linecap:round; stroke-width:0.25;"/>
<line x1="288.200000" y1="48.000000" x2="219.700000" y2="48.000000"  style="stroke:black; stroke-linecap:round; stroke-width:0.25;"/>
<line x1="316.100000" y1="132.000000" x2="320.100000" y2="132.000000"  style="stroke:black; stroke-linecap:round; stroke-width:0.25;"/>
<line x1="316.100000" y1="140.000000" x2="320.100000" y2="140.000000"  style="stroke:black; stroke-linecap:round; stroke-width:0.25;"/>
<line x1="320.100000" y1="132.000000" x2="362.100000" y2="124.000000"  style="stroke:black; stroke-linecap:round; stroke-width:0.25;"/>
<line x1="320.100000" y1="132.000000" x2="362.100000" y2="156.000000"  style="stroke:black; stroke-linecap:round; stroke-width:0.25;"/>
<line x1="320.100000" y1="140.000000" x2="362.100000" y2="132.000000"  style="stroke:black; stroke-linecap:round; stroke-width:0.25;"/>
<line x1="320.100000" y1="140.000000" x2="362.100000" y2="164.000000"  style="stroke:black; stroke-linecap:round; stroke-width:0.25;"/>
<line x1="356.700000" y1="24.000000" x2="288.200000" y2="24.000000"  style="stroke:black; stroke-linecap:round; stroke-width:0.25;"/>
<line x1="356.700000" y1="32.000000" x2="288.200000" y2="32.000000"  style="stroke:black; stroke-linecap:round; stroke-width:0.25;"/>
<line x1="356.700000" y1="40.000000" x2="288.200000" y2="40.000000"  style="stroke:black; stroke-linecap:round; stroke-width:0.25;"/>
<line x1="356.700000" y1="48.000000" x2="288.200000" y2="48.000000"  style="stroke:black; stroke-linecap:round; stroke-width:0.25;"/>
<line x1="356.700000" y1="68.000000" x2="352.700000" y2="68.000000"  style="stroke:black; stroke-linecap:round; stroke-width:0.25;"/>
<line x1="362.100000" y1="124.000000" x2="366.100000" y2="124.000000"  style="stroke:black; stroke-linecap:round; stroke-width:0.25;"/>
<line x1="362.100000" y1="132.000000" x2="366.100000" y2="132.000000"  style="stroke:black; stroke-linecap:round; stroke-width:0.25;"/>
<line x1="362.100000" y1="156.000000" x2="415.250000" y2="156.000000"  style="stroke:black; stroke-linecap:round; stroke-width:0.25;"/>
<line x1="362.100000" y1="164.000000" x2="415.250000" y2="164.000000"  style="stroke:black; stroke-linecap:round; stroke-width:0.25;"/>
<line x1="404.800000" y1="124.000000" x2="408.800000" y2="124.000000"  style="stroke:black; stroke-linecap:round; stroke-width:0.25;"/>
<line x1="404.800000" y1="132.000000" x2="408.800000" y2="132.000000"  style="stroke:black; stroke-linecap:round; stroke-width:0.25;"/>
<line x1="408.800000" y1="124.000000" x2="408.800000" y2="124.000000"  style="stroke:black; stroke-linecap:round; stroke-width:0.25;"/>
<line x1="408.800000" y1="124.000000" x2="412.800000" y2="124.000000"  style="stroke:black; stroke-linecap:round; stroke-width:0.25;"/>
<line x1="408.800000" y1="132.000000" x2="408.800000" y2="132.000000"  style="stroke:black; stroke-linecap:round; stroke-width:0.25;"/>
<line x1="408.800000" y1="132.000000" x2="412.800000" y2="132.000000"  style="stroke:black; stroke-linecap:round; stroke-width:0.25;"/>
<line x1="415.250000" y1="156.000000" x2="468.400000" y2="156.000000"  style="stroke:black; stroke-linecap:round; stroke-width:0.25;"/>
<line x1="415.250000" y1="164.000000" x2="468.400000" y2="164.000000"  style="stroke:black; stroke-linecap:round; stroke-width:0.25;"/>
<line x1="464.400000" y1="112.000000" x2="468.400000" y2="112.000000"  style="stroke:black; stroke-linecap:round; stroke-width:0.25;"/>
<line x1="464.400000" y1="120.000000" x2="468.400000" y2="120.000000"  style="stroke:black; stroke-linecap:round; stroke-width:0.25;"/>
<line x1="464.400000" y1="128.000000" x2="468.400000" y2="128.000000"  style="stroke:black; stroke-linecap:round; stroke-width:0.25;"/>
<line x1="464.400000" y1="136.000000" x2="468.400000" y2="136.000000"  style="stroke:black; stroke-linecap:round; stroke-width:0.25;"/>
<line x1="464.400000" y1="144.000000" x2="468.400000" y2="144.000000"  style="stroke:black; stroke-linecap:round; stroke-width:0.25;"/>
<line x1="468.400000" y1="24.000000" x2="356.700000" y2="24.000000"  style="stroke:black; stroke-linecap:round; stroke-width:0.25;"/>
<line x1="468.400000" y1="32.000000" x2="356.700000" y2="32.000000"  style="stroke:black; stroke-linecap:round; stroke-width:0.25;"/>
<line x1="468.400000" y1="40.000000" x2="356.700000" y2="40.000000"  style="stroke:black; stroke-linecap:round; stroke-width:0.25;"/>
<line x1="468.400000" y1="48.000000" x2="356.700000" y2="48.000000"  style="stroke:black; stroke-linecap:round; stroke-width:0.25;"/>
<line x1="468.400000" y1="68.000000" x2="356.700000" y2="68.000000"  style="stroke:black; stroke-linecap:round; stroke-width:0.25;"/>
<line x1="468.400000" y1="68.000000" x2="468.400000" y2="68.000000"  style="stroke:black; stroke-linecap:round; stroke-width:0.25;"/>
<line x1="468.400000" y1="108.000000" x2="468.400000" y2="68.000000"  style="stroke:black; stroke-linecap:round; stroke-width:0.25;"/>
<line x1="468.400000" y1="112.000000" x2="470.400000" y2="112.000000"  style="stroke:black; stroke-linecap:round; stroke-width:0.25;"/>
<line x1="468.400000" y1="120.000000" x2="478.400000" y2="120.000000"  style="stroke:black; stroke-linecap:round; stroke-width:0.25;"/>
<line x1="468.400000" y1="128.000000" x2="486.400000" y2="128.000000"  style="stroke:black; stroke-linecap:round; stroke-width:0.25;"/>
<line x1="468.400000" y1="136.000000" x2="494.400000" y2="136.000000"  style="stroke:black; stroke-linecap:round; stroke-width:0.25;"/>
<line x1="468.400000" y1="144.000000" x2="502.400000" y2="144.000000"  style="stroke:black; stroke-linecap:round; stroke-width:0.25;"/>
<line x1="468.400000" y1="156.000000" x2="508.400000" y2="156.000000"  style="stroke:black; stroke-linecap:round; stroke-width:0.25;"/>
<line x1="468.400000" y1="164.000000" x2="508.400000" y2="164.000000"  style="stroke:black; stroke-linecap:round; stroke-width:0.25;"/>
<line x1="470.400000" y1="112.000000" x2="508.400000" y2="112.000000"  style="stroke:black; stroke-linecap:round; stroke-width:0.25;"/>
<line x1="476.400000" y1="48.000000" x2="468.400000" y2="48.000000"  style="stroke:black; stroke-linecap:round; stroke-width:0.25;"/>
<line x1="476.400000" y1="116.000000" x2="476.400000" y2="48.000000"  style="stroke:black; stroke-linecap:round; stroke-width:0.25;"/>
<line x1="484.400000" y1="40.000000" x2="468.400000" y2="40.000000"  style="stroke:black; stroke-linecap:round; stroke-width:0.25;"/>
<line x1="484.400000" y1="124.000000" x2="484.400000" y2="40.000000"  style="stroke:black; stroke-linecap:round; stroke-width:0.25;"/>
<line x1="492.400000" y1="32.000000" x2="468.400000" y2="32.000000"  style="stroke:black; stroke-linecap:round; stroke-width:0.25;"/>
<line x1="492.400000" y1="132.000000" x2="492.400000" y2="32.000000"  style="stroke:black; stroke-linecap:round; stroke-width:0.25;"/>
<line x1="494.400000" y1="136.000000" x2="508.400000" y2="136.000000"  style="stroke:black; stroke-linecap:round; stroke-width:0.25;"/>
<line x1="500.400000" y1="24.000000" x2="468.400000" y2="24.000000"  style="stroke:black; stroke-linecap:round; stroke-width:0.25;"/>
<line x1="500.400000" y1="140.000000" x2="500.400000" y2="24.000000"  style="stroke:black; stroke-linecap:round; stroke-width:0.25;"/>
<line x1="502.400000" y1="144.000000" x2="508.400000" y2="144.000000"  style="stroke:black; stroke-linecap:round; stroke-width:0.25;"/>
<line x1="508.400000" y1="87.920000" x2="564.400000" y2="87.920000"  style="stroke:black; stroke-linecap:round; stroke-width:0.25;"/>
<line x1="508.400000" y1="112.000000" x2="508.400000" y2="87.920000"  style="stroke:black; stroke-linecap:round; stroke-width:0.25;"/>
<line x1="508.400000" y1="112.000000" x2="508.400000" y2="112.000000"  style="stroke:black; stroke-linecap:round; stroke-width:0.25;"/>
<line x1="508.400000" y1="136.000000" x2="532.400000" y2="136.000000"  style="stroke:black; stroke-linecap:round; stroke-width:0.25;"/>
<line x1="508.400000" y1="144.000000" x2="540.400000" y2="144.000000"  style="stroke:black; stroke-linecap:round; stroke-width:0.25;"/>
<line x1="508.400000" y1="156.000000" x2="548.400000" y2="156.000000"  style="stroke:black; stroke-linecap:round; stroke-width:0.25;"/>
<line x1="508.400000" y1="164.000000" x2="556.400000" y2="164.000000"  style="stroke:black; stroke-linecap:round; stroke-width:0.25;"/>
<line x1="532.400000" y1="96.080000" x2="564.400000" y2="96.080000"  style="stroke:black; stroke-linecap:round; stroke-width:0.25;"/>
<line x1="532.400000" y1="136.000000" x2="532.400000" y2="96.080000"  style="stroke:black; stroke-linecap:round; stroke-width:0.25;"/>
<line x1="540.400000" y1="104.080000" x2="564.400000" y2="104.080000"  style="stroke:black; stroke-linecap:round; stroke-width:0.25;"/>
<line x1="540.400000" y1="144.000000" x2="540.400000" y2="104.080000"  style="stroke:black; stroke-linecap:round; stroke-width:0.25;"/>
<line x1="548.400000" y1="112.080000" x2="564.400000" y2="112.080000"  style="stroke:black; stroke-linecap:round; stroke-width:0.25;"/>
<line x1="548.400000" y1="156.000000" x2="548.400000" y2="112.080000"  style="stroke:black; stroke-linecap:round; stroke-width:0.25;"/>
<line x1="556.400000" y1="120.080000" x2="564.400000" y2="120.080000"  style="stroke:black; stroke-linecap:round; stroke-width:0.25;"/>
<line x1="556.400000" y1="164.000000" x2="556.400000" y2="120.080000"  style="stroke:black; stroke-linecap:round; stroke-width:0.25;"/>
<line x1="564.400000" y1="87.920000" x2="596.400000" y2="87.920000"  style="stroke:black; stroke-linecap:round; stroke-width:0.25;"/>
<line x1="564.400000" y1="96.000000" x2="596.400000" y2="96.000000"  style="stroke:black; stroke-linecap:round; stroke-width:0.25;"/>
<line x1="564.400000" y1="96.080000" x2="564.400000" y2="96.000000"  style="stroke:black; stroke-linecap:round; stroke-width:0.25;"/>
<line x1="564.400000" y1="96.080000" x2="564.400000" y2="96.080000"  style="stroke:black; stroke-linecap:round; stroke-width:0.25;"/>
<line x1="564.400000" y1="104.080000" x2="572.400000" y2="104.080000"  style="stroke:black; stroke-linecap:round; stroke-width:0.25;"/>
<line x1="564.400000" y1="112.080000" x2="580.400000" y2="112.080000"  style="stroke:black; stroke-linecap:round; stroke-width:0.25;"/>
<line x1="564.400000" y1="120.080000" x2="588.400000" y2="120.080000"  style="stroke:black; stroke-linecap:round; stroke-width:0.25;"/>
<line x1="572.400000" y1="104.000000" x2="596.400000" y2="104.000000"  style="stroke:black; stroke-linecap:round; stroke-width:0.25;"/>
<line x1="572.400000" y1="104.080000" x2="572.400000" y2="104.000000"  style="stroke:black; stroke-linecap:round; stroke-width:0.25;"/>
<line x1="580.400000" y1="112.000000" x2="596.400000" y2="112.000000"  style="stroke:black; stroke-linecap:round; stroke-width:0.25;"/>
<line x1="580.400000" y1="112.080000" x2="580.400000" y2="112.000000"  style="stroke:black; stroke-linecap:round; stroke-width:0.25;"/>
<line x1="588.400000" y1="120.000000" x2="596.400000" y2="120.000000"  style="stroke:black; stroke-linecap:round; stroke-width:0.25;"/>
<line x1="588.400000" y1="120.080000" x2="588.400000" y2="120.000000"  style="stroke:black; stroke-linecap:round; stroke-width:0.25;"/>
<line x1="596.400000" y1="87.920000" x2="596.400000" y2="88.000000"  style="stroke:black; stroke-linecap:round; stroke-width:0.25;"/>
<line x1="596.400000" y1="88.000000" x2="596.400000" y2="88.000000"  style="stroke:black; stroke-linecap:round; stroke-width:0.25;"/>
<line x1="596.400000" y1="88.000000" x2="600.400000" y2="88.000000"  style="stroke:black; stroke-linecap:round; stroke-width:0.25;"/>
<line x1="596.400000" y1="96.000000" x2="600.400000" y2="96.000000"  style="stroke:black; stroke-linecap:round; stroke-width:0.25;"/>
<line x1="596.400000" y1="104.000000" x2="600.400000" y2="104.000000"  style="stroke:black; stroke-linecap:round; stroke-width:0.25;"/>
<line x1="596.400000" y1="112.000000" x2="600.400000" y2="112.000000"  style="stroke:black; stroke-linecap:round; stroke-width:0.25;"/>
<line x1="596.400000" y1="120.000000" x2="600.400000" y2="120.000000"  style="stroke:black; stroke-linecap:round; stroke-width:0.25;"/>
<line x1="600.400000" y1="88.000000" x2="604.400000" y2="88.000000"  style="stroke:black; stroke-linecap:round; stroke-width:0.25;"/>
<line x1="600.400000" y1="96.000000" x2="604.400000" y2="96.000000"  style="stroke:black; stroke-linecap:round; stroke-width:0.25;"/>
<line x1="600.400000" y1="104.000000" x2="604.400000" y2="104.000000"  style="stroke:black; stroke-linecap:round; stroke-width:0.25;"/>
<line x1="600.400000" y1="112.000000" x2="604.400000" y2="112.000000"  style="stroke:black; stroke-linecap:round; stroke-width:0.25;"/>
<line x1="600.400000" y1="120.000000" x2="604.400000" y2="120.000000"  style="stroke:black; stroke-linecap:round; stroke-width:0.25;"/>
<line x1="604.400000" y1="88.000000" x2="614.400000" y2="88.000000"  style="stroke:black; stroke-linecap:round; stroke-width:0.25;"/>
<line x1="604.400000" y1="96.000000" x2="614.400000" y2="96.000000"  style="stroke:black; stroke-linecap:round; stroke-width:0.25;"/>
<line x1="604.400000" y1="104.000000" x2="614.400000" y2="104.000000"  style="stroke:black; stroke-linecap:round; stroke-width:0.25;"/>
<line x1="604.400000" y1="112.000000" x2="614.400000" y2="112.000000"  style="stroke:black; stroke-linecap:round; stroke-width:0.25;"/>
<line x1="604.400000" y1="120.000000" x2="614.400000" y2="120.000000"  style="stroke:black; stroke-linecap:round; stroke-width:0.25;"/>
</svg>
