<?xml version="1.0"?>
<svg xmlns="http://www.w3.org/2000/svg" xmlns:xlink="http://www.w3.org/1999/xlink" viewBox="0 0 377.040000 296.000000" width="188.520000mm" height="148.000000mm" version="1.1">
<a xlink:href="filtering-0x7f8add42dc80.svg">
<rect x="1.000000" y="1.000000" width="376.040000" height="295.000000" rx="0" ry="0" style="stroke:none;fill:#cccccc;"/>
<rect x="0.000000" y="0.000000" width="376.040000" height="295.000000" rx="0" ry="0" style="stroke:none;fill:#ffffff;"/>
</a>
<text x="10.000000" y="7.000000" font-family="Arial" font-size="7"></text>
<rect x="57.900000" y="41.000000" width="24.000000" height="24.000000" rx="0" ry="0" style="stroke:none;fill:#cccccc;"/>
<rect x="56.900000" y="40.000000" width="24.000000" height="24.000000" rx="0" ry="0" style="stroke:none;fill:#47945E;"/>
<text x="68.900000" y="54.000000" font-family="Arial" font-size="7" text-anchor="middle" fill="#FFFFFF">rot</text>
<circle cx="58.900000" cy="42.000000" r="1"/>
<line x1="53.900000" y1="51.000000" x2="56.900000" y2="52.000000"  transform="rotate(0.000000,56.900000,52.000000)" style="stroke: black; stroke-width:0.25;"/>
<line x1="53.900000" y1="53.000000" x2="56.900000" y2="52.000000"  transform="rotate(0.000000,56.900000,52.000000)" style="stroke: black; stroke-width:0.25;"/>
<rect x="57.000000" y="73.000000" width="25.800000" height="24.000000" rx="0" ry="0" style="stroke:none;fill:#cccccc;"/>
<rect x="56.000000" y="72.000000" width="25.800000" height="24.000000" rx="0" ry="0" style="stroke:none;fill:#47945E;"/>
<text x="68.900000" y="86.000000" font-family="Arial" font-size="7" text-anchor="middle" fill="#FFFFFF">error1</text>
<circle cx="58.000000" cy="74.000000" r="1"/>
<line x1="53.000000" y1="83.000000" x2="56.000000" y2="84.000000"  transform="rotate(0.000000,56.000000,84.000000)" style="stroke: black; stroke-width:0.25;"/>
<line x1="53.000000" y1="85.000000" x2="56.000000" y2="84.000000"  transform="rotate(0.000000,56.000000,84.000000)" style="stroke: black; stroke-width:0.25;"/>
<rect x="57.000000" y="105.000000" width="25.800000" height="24.000000" rx="0" ry="0" style="stroke:none;fill:#cccccc;"/>
<rect x="56.000000" y="104.000000" width="25.800000" height="24.000000" rx="0" ry="0" style="stroke:none;fill:#47945E;"/>
<text x="68.900000" y="118.000000" font-family="Arial" font-size="7" text-anchor="middle" fill="#FFFFFF">error2</text>
<circle cx="58.000000" cy="106.000000" r="1"/>
<line x1="53.000000" y1="115.000000" x2="56.000000" y2="116.000000"  transform="rotate(0.000000,56.000000,116.000000)" style="stroke: black; stroke-width:0.25;"/>
<line x1="53.000000" y1="117.000000" x2="56.000000" y2="116.000000"  transform="rotate(0.000000,56.000000,116.000000)" style="stroke: black; stroke-width:0.25;"/>
<rect x="57.000000" y="137.000000" width="25.800000" height="24.000000" rx="0" ry="0" style="stroke:none;fill:#cccccc;"/>
<rect x="56.000000" y="136.000000" width="25.800000" height="24.000000" rx="0" ry="0" style="stroke:none;fill:#47945E;"/>
<text x="68.900000" y="150.000000" font-family="Arial" font-size="7" text-anchor="middle" fill="#FFFFFF">deci1</text>
<circle cx="58.000000" cy="138.000000" r="1"/>
<line x1="53.000000" y1="147.000000" x2="56.000000" y2="148.000000"  transform="rotate(0.000000,56.000000,148.000000)" style="stroke: black; stroke-width:0.25;"/>
<line x1="53.000000" y1="149.000000" x2="56.000000" y2="148.000000"  transform="rotate(0.000000,56.000000,148.000000)" style="stroke: black; stroke-width:0.25;"/>
<rect x="57.000000" y="169.000000" width="25.800000" height="24.000000" rx="0" ry="0" style="stroke:none;fill:#cccccc;"/>
<rect x="56.000000" y="168.000000" width="25.800000" height="24.000000" rx="0" ry="0" style="stroke:none;fill:#47945E;"/>
<text x="68.900000" y="182.000000" font-family="Arial" font-size="7" text-anchor="middle" fill="#FFFFFF">deci2</text>
<circle cx="58.000000" cy="170.000000" r="1"/>
<line x1="53.000000" y1="179.000000" x2="56.000000" y2="180.000000"  transform="rotate(0.000000,56.000000,180.000000)" style="stroke: black; stroke-width:0.25;"/>
<line x1="53.000000" y1="181.000000" x2="56.000000" y2="180.000000"  transform="rotate(0.000000,56.000000,180.000000)" style="stroke: black; stroke-width:0.25;"/>
<rect x="57.900000" y="201.000000" width="24.000000" height="24.000000" rx="0" ry="0" style="stroke:none;fill:#cccccc;"/>
<rect x="56.900000" y="200.000000" width="24.000000" height="24.000000" rx="0" ry="0" style="stroke:none;fill:#47945E;"/>
<text x="68.900000" y="214.000000" font-family="Arial" font-size="7" text-anchor="middle" fill="#FFFFFF">in1</text>
<circle cx="58.900000" cy="202.000000" r="1"/>
<line x1="53.900000" y1="211.000000" x2="56.900000" y2="212.000000"  transform="rotate(0.000000,56.900000,212.000000)" style="stroke: black; stroke-width:0.25;"/>
<line x1="53.900000" y1="213.000000" x2="56.900000" y2="212.000000"  transform="rotate(0.000000,56.900000,212.000000)" style="stroke: black; stroke-width:0.25;"/>
<rect x="57.900000" y="233.000000" width="24.000000" height="24.000000" rx="0" ry="0" style="stroke:none;fill:#cccccc;"/>
<rect x="56.900000" y="232.000000" width="24.000000" height="24.000000" rx="0" ry="0" style="stroke:none;fill:#47945E;"/>
<text x="68.900000" y="246.000000" font-family="Arial" font-size="7" text-anchor="middle" fill="#FFFFFF">in2</text>
<circle cx="58.900000" cy="234.000000" r="1"/>
<line x1="53.900000" y1="243.000000" x2="56.900000" y2="244.000000"  transform="rotate(0.000000,56.900000,244.000000)" style="stroke: black; stroke-width:0.25;"/>
<line x1="53.900000" y1="245.000000" x2="56.900000" y2="244.000000"  transform="rotate(0.000000,56.900000,244.000000)" style="stroke: black; stroke-width:0.25;"/>
<rect x="91.700000" y="25.000000" width="24.000000" height="24.000000" rx="0" ry="0" style="stroke:none;fill:#cccccc;"/>
<rect x="90.700000" y="24.000000" width="24.000000" height="24.000000" rx="0" ry="0" style="stroke:none;fill:#47945E;"/>
<text x="102.700000" y="38.000000" font-family="Arial" font-size="7" text-anchor="middle" fill="#FFFFFF">in1</text>
<circle cx="92.700000" cy="26.000000" r="1"/>
<rect x="90.800000" y="57.000000" width="25.800000" height="24.000000" rx="0" ry="0" style="stroke:none;fill:#cccccc;"/>
<rect x="89.800000" y="56.000000" width="25.800000" height="24.000000" rx="0" ry="0" style="stroke:none;fill:#47945E;"/>
<text x="102.700000" y="70.000000" font-family="Arial" font-size="7" text-anchor="middle" fill="#FFFFFF">error1</text>
<circle cx="91.800000" cy="58.000000" r="1"/>
<a xlink:href="ff-0x7f8ada53de10.svg">
<rect x="132.600000" y="41.000000" width="24.000000" height="24.000000" rx="0" ry="0" style="stroke:none;fill:#cccccc;"/>
<rect x="131.600000" y="40.000000" width="24.000000" height="24.000000" rx="0" ry="0" style="stroke:none;fill:#003366;"/>
</a>
<a xlink:href="ff-0x7f8ada53de10.svg">
<text x="143.600000" y="54.000000" font-family="Arial" font-size="7" text-anchor="middle" fill="#FFFFFF">ff</text>
</a>
<circle cx="133.600000" cy="42.000000" r="1"/>
<line x1="128.600000" y1="47.000000" x2="131.600000" y2="48.000000"  transform="rotate(0.000000,131.600000,48.000000)" style="stroke: black; stroke-width:0.25;"/>
<line x1="128.600000" y1="49.000000" x2="131.600000" y2="48.000000"  transform="rotate(0.000000,131.600000,48.000000)" style="stroke: black; stroke-width:0.25;"/>
<line x1="128.600000" y1="55.000000" x2="131.600000" y2="56.000000"  transform="rotate(0.000000,131.600000,56.000000)" style="stroke: black; stroke-width:0.25;"/>
<line x1="128.600000" y1="57.000000" x2="131.600000" y2="56.000000"  transform="rotate(0.000000,131.600000,56.000000)" style="stroke: black; stroke-width:0.25;"/>
<rect x="91.700000" y="89.000000" width="24.000000" height="24.000000" rx="0" ry="0" style="stroke:none;fill:#cccccc;"/>
<rect x="90.700000" y="88.000000" width="24.000000" height="24.000000" rx="0" ry="0" style="stroke:none;fill:#47945E;"/>
<text x="102.700000" y="102.000000" font-family="Arial" font-size="7" text-anchor="middle" fill="#FFFFFF">in2</text>
<circle cx="92.700000" cy="90.000000" r="1"/>
<rect x="90.800000" y="121.000000" width="25.800000" height="24.000000" rx="0" ry="0" style="stroke:none;fill:#cccccc;"/>
<rect x="89.800000" y="120.000000" width="25.800000" height="24.000000" rx="0" ry="0" style="stroke:none;fill:#47945E;"/>
<text x="102.700000" y="134.000000" font-family="Arial" font-size="7" text-anchor="middle" fill="#FFFFFF">error2</text>
<circle cx="91.800000" cy="122.000000" r="1"/>
<a xlink:href="ff-0x7f8ada53de10.svg">
<rect x="132.600000" y="105.000000" width="24.000000" height="24.000000" rx="0" ry="0" style="stroke:none;fill:#cccccc;"/>
<rect x="131.600000" y="104.000000" width="24.000000" height="24.000000" rx="0" ry="0" style="stroke:none;fill:#003366;"/>
</a>
<a xlink:href="ff-0x7f8ada53de10.svg">
<text x="143.600000" y="118.000000" font-family="Arial" font-size="7" text-anchor="middle" fill="#FFFFFF">ff</text>
</a>
<circle cx="133.600000" cy="106.000000" r="1"/>
<line x1="128.600000" y1="111.000000" x2="131.600000" y2="112.000000"  transform="rotate(0.000000,131.600000,112.000000)" style="stroke: black; stroke-width:0.25;"/>
<line x1="128.600000" y1="113.000000" x2="131.600000" y2="112.000000"  transform="rotate(0.000000,131.600000,112.000000)" style="stroke: black; stroke-width:0.25;"/>
<line x1="128.600000" y1="119.000000" x2="131.600000" y2="120.000000"  transform="rotate(0.000000,131.600000,120.000000)" style="stroke: black; stroke-width:0.25;"/>
<line x1="128.600000" y1="121.000000" x2="131.600000" y2="120.000000"  transform="rotate(0.000000,131.600000,120.000000)" style="stroke: black; stroke-width:0.25;"/>
<a xlink:href="complex-0x7f8ada548650.svg">
<rect x="172.600000" y="73.000000" width="77.400000" height="24.000000" rx="0" ry="0" style="stroke:none;fill:#cccccc;"/>
<rect x="171.600000" y="72.000000" width="77.400000" height="24.000000" rx="0" ry="0" style="stroke:none;fill:#003366;"/>
</a>
<a xlink:href="complex-0x7f8ada548650.svg">
<text x="210.300000" y="86.000000" font-family="Arial" font-size="7" text-anchor="middle" fill="#FFFFFF">complex_rot(x26)</text>
</a>
<circle cx="173.600000" cy="74.000000" r="1"/>
<line x1="168.600000" y1="79.000000" x2="171.600000" y2="80.000000"  transform="rotate(0.000000,171.600000,80.000000)" style="stroke: black; stroke-width:0.25;"/>
<line x1="168.600000" y1="81.000000" x2="171.600000" y2="80.000000"  transform="rotate(0.000000,171.600000,80.000000)" style="stroke: black; stroke-width:0.25;"/>
<line x1="168.600000" y1="87.000000" x2="171.600000" y2="88.000000"  transform="rotate(0.000000,171.600000,88.000000)" style="stroke: black; stroke-width:0.25;"/>
<line x1="168.600000" y1="89.000000" x2="171.600000" y2="88.000000"  transform="rotate(0.000000,171.600000,88.000000)" style="stroke: black; stroke-width:0.25;"/>
<rect x="137.500000" y="153.000000" width="25.800000" height="24.000000" rx="0" ry="0" style="stroke:none;fill:#cccccc;"/>
<rect x="136.500000" y="152.000000" width="25.800000" height="24.000000" rx="0" ry="0" style="stroke:none;fill:#47945E;"/>
<text x="149.400000" y="166.000000" font-family="Arial" font-size="7" text-anchor="middle" fill="#FFFFFF">deci1</text>
<circle cx="138.500000" cy="154.000000" r="1"/>
<rect x="137.500000" y="185.000000" width="25.800000" height="24.000000" rx="0" ry="0" style="stroke:none;fill:#cccccc;"/>
<rect x="136.500000" y="184.000000" width="25.800000" height="24.000000" rx="0" ry="0" style="stroke:none;fill:#47945E;"/>
<text x="149.400000" y="198.000000" font-family="Arial" font-size="7" text-anchor="middle" fill="#FFFFFF">error1</text>
<circle cx="138.500000" cy="186.000000" r="1"/>
<a xlink:href="fb-0x7f8ada5d8e60.svg">
<rect x="179.300000" y="169.000000" width="24.000000" height="24.000000" rx="0" ry="0" style="stroke:none;fill:#cccccc;"/>
<rect x="178.300000" y="168.000000" width="24.000000" height="24.000000" rx="0" ry="0" style="stroke:none;fill:#003366;"/>
</a>
<a xlink:href="fb-0x7f8ada5d8e60.svg">
<text x="190.300000" y="182.000000" font-family="Arial" font-size="7" text-anchor="middle" fill="#FFFFFF">fb</text>
</a>
<circle cx="180.300000" cy="170.000000" r="1"/>
<line x1="175.300000" y1="175.000000" x2="178.300000" y2="176.000000"  transform="rotate(0.000000,178.300000,176.000000)" style="stroke: black; stroke-width:0.25;"/>
<line x1="175.300000" y1="177.000000" x2="178.300000" y2="176.000000"  transform="rotate(0.000000,178.300000,176.000000)" style="stroke: black; stroke-width:0.25;"/>
<line x1="175.300000" y1="183.000000" x2="178.300000" y2="184.000000"  transform="rotate(0.000000,178.300000,184.000000)" style="stroke: black; stroke-width:0.25;"/>
<line x1="175.300000" y1="185.000000" x2="178.300000" y2="184.000000"  transform="rotate(0.000000,178.300000,184.000000)" style="stroke: black; stroke-width:0.25;"/>
<rect x="137.500000" y="217.000000" width="25.800000" height="24.000000" rx="0" ry="0" style="stroke:none;fill:#cccccc;"/>
<rect x="136.500000" y="216.000000" width="25.800000" height="24.000000" rx="0" ry="0" style="stroke:none;fill:#47945E;"/>
<text x="149.400000" y="230.000000" font-family="Arial" font-size="7" text-anchor="middle" fill="#FFFFFF">deci2</text>
<circle cx="138.500000" cy="218.000000" r="1"/>
<rect x="137.500000" y="249.000000" width="25.800000" height="24.000000" rx="0" ry="0" style="stroke:none;fill:#cccccc;"/>
<rect x="136.500000" y="248.000000" width="25.800000" height="24.000000" rx="0" ry="0" style="stroke:none;fill:#47945E;"/>
<text x="149.400000" y="262.000000" font-family="Arial" font-size="7" text-anchor="middle" fill="#FFFFFF">error2</text>
<circle cx="138.500000" cy="250.000000" r="1"/>
<a xlink:href="fb-0x7f8ada5d8e60.svg">
<rect x="179.300000" y="233.000000" width="24.000000" height="24.000000" rx="0" ry="0" style="stroke:none;fill:#cccccc;"/>
<rect x="178.300000" y="232.000000" width="24.000000" height="24.000000" rx="0" ry="0" style="stroke:none;fill:#003366;"/>
</a>
<a xlink:href="fb-0x7f8ada5d8e60.svg">
<text x="190.300000" y="246.000000" font-family="Arial" font-size="7" text-anchor="middle" fill="#FFFFFF">fb</text>
</a>
<circle cx="180.300000" cy="234.000000" r="1"/>
<line x1="175.300000" y1="239.000000" x2="178.300000" y2="240.000000"  transform="rotate(0.000000,178.300000,240.000000)" style="stroke: black; stroke-width:0.25;"/>
<line x1="175.300000" y1="241.000000" x2="178.300000" y2="240.000000"  transform="rotate(0.000000,178.300000,240.000000)" style="stroke: black; stroke-width:0.25;"/>
<line x1="175.300000" y1="247.000000" x2="178.300000" y2="248.000000"  transform="rotate(0.000000,178.300000,248.000000)" style="stroke: black; stroke-width:0.25;"/>
<line x1="175.300000" y1="249.000000" x2="178.300000" y2="248.000000"  transform="rotate(0.000000,178.300000,248.000000)" style="stroke: black; stroke-width:0.25;"/>
<rect x="314.040000" y="121.000000" width="24.000000" height="24.000000" rx="0" ry="0" style="stroke:none;fill:#cccccc;"/>
<rect x="313.040000" y="120.000000" width="24.000000" height="24.000000" rx="0" ry="0" style="stroke:none;fill:#4B71A1;"/>
<text x="325.040000" y="134.000000" font-family="Arial" font-size="7" text-anchor="middle" fill="#FFFFFF">-</text>
<circle cx="315.040000" cy="122.000000" r="1"/>
<line x1="310.040000" y1="127.000000" x2="313.040000" y2="128.000000"  transform="rotate(0.000000,313.040000,128.000000)" style="stroke: black; stroke-width:0.25;"/>
<line x1="310.040000" y1="129.000000" x2="313.040000" y2="128.000000"  transform="rotate(0.000000,313.040000,128.000000)" style="stroke: black; stroke-width:0.25;"/>
<line x1="310.040000" y1="135.000000" x2="313.040000" y2="136.000000"  transform="rotate(0.000000,313.040000,136.000000)" style="stroke: black; stroke-width:0.25;"/>
<line x1="310.040000" y1="137.000000" x2="313.040000" y2="136.000000"  transform="rotate(0.000000,313.040000,136.000000)" style="stroke: black; stroke-width:0.25;"/>
<rect x="314.040000" y="153.000000" width="24.000000" height="24.000000" rx="0" ry="0" style="stroke:none;fill:#cccccc;"/>
<rect x="313.040000" y="152.000000" width="24.000000" height="24.000000" rx="0" ry="0" style="stroke:none;fill:#4B71A1;"/>
<text x="325.040000" y="166.000000" font-family="Arial" font-size="7" text-anchor="middle" fill="#FFFFFF">-</text>
<circle cx="315.040000" cy="154.000000" r="1"/>
<line x1="310.040000" y1="159.000000" x2="313.040000" y2="160.000000"  transform="rotate(0.000000,313.040000,160.000000)" style="stroke: black; stroke-width:0.25;"/>
<line x1="310.040000" y1="161.000000" x2="313.040000" y2="160.000000"  transform="rotate(0.000000,313.040000,160.000000)" style="stroke: black; stroke-width:0.25;"/>
<line x1="310.040000" y1="167.000000" x2="313.040000" y2="168.000000"  transform="rotate(0.000000,313.040000,168.000000)" style="stroke: black; stroke-width:0.25;"/>
<line x1="310.040000" y1="169.000000" x2="313.040000" y2="168.000000"  transform="rotate(0.000000,313.040000,168.000000)" style="stroke: black; stroke-width:0.25;"/>
<line x1="15.000000" y1="15.000000" x2="15.000000" y2="281.000000"  style="stroke: black; stroke-linecap:round; stroke-width:0.25; stroke-dasharray:3,3;"/>
<line x1="15.000000" y1="281.000000" x2="362.040000" y2="281.000000"  style="stroke: black; stroke-linecap:round; stroke-width:0.25; stroke-dasharray:3,3;"/>
<line x1="362.040000" y1="281.000000" x2="362.040000" y2="15.000000"  style="stroke: black; stroke-linecap:round; stroke-width:0.25; stroke-dasharray:3,3;"/>
<line x1="15.000000" y1="15.000000" x2="20.000000" y2="15.000000"  style="stroke: black; stroke-linecap:round; stroke-width:0.25; stroke-dasharray:3,3;"/>
<line x1="74.825000" y1="15.000000" x2="362.040000" y2="15.000000"  style="stroke: black; stroke-linecap:round; stroke-width:0.25; stroke-dasharray:3,3;"/>
<text x="20.000000" y="17.000000" font-family="Arial" font-size="7">lms_stereo(x12)</text>
<line x1="364.040000" y1="143.000000" x2="367.040000" y2="144.000000"  transform="rotate(0.000000,367.040000,144.000000)" style="stroke: black; stroke-width:0.25;"/>
<line x1="364.040000" y1="145.000000" x2="367.040000" y2="144.000000"  transform="rotate(0.000000,367.040000,144.000000)" style="stroke: black; stroke-width:0.25;"/>
<line x1="364.040000" y1="151.000000" x2="367.040000" y2="152.000000"  transform="rotate(0.000000,367.040000,152.000000)" style="stroke: black; stroke-width:0.25;"/>
<line x1="364.040000" y1="153.000000" x2="367.040000" y2="152.000000"  transform="rotate(0.000000,367.040000,152.000000)" style="stroke: black; stroke-width:0.25;"/>
<line x1="10.000000" y1="124.000000" x2="20.000000" y2="124.000000"  style="stroke:black; stroke-linecap:round; stroke-width:0.25;"/>
<line x1="10.000000" y1="132.000000" x2="20.000000" y2="132.000000"  style="stroke:black; stroke-linecap:round; stroke-width:0.25;"/>
<line x1="10.000000" y1="140.000000" x2="20.000000" y2="140.000000"  style="stroke:black; stroke-linecap:round; stroke-width:0.25;"/>
<line x1="10.000000" y1="148.000000" x2="20.000000" y2="148.000000"  style="stroke:black; stroke-linecap:round; stroke-width:0.25;"/>
<line x1="10.000000" y1="156.000000" x2="20.000000" y2="156.000000"  style="stroke:black; stroke-linecap:round; stroke-width:0.25;"/>
<line x1="10.000000" y1="164.000000" x2="20.000000" y2="164.000000"  style="stroke:black; stroke-linecap:round; stroke-width:0.25;"/>
<line x1="10.000000" y1="172.000000" x2="20.000000" y2="172.000000"  style="stroke:black; stroke-linecap:round; stroke-width:0.25;"/>
<line x1="20.000000" y1="124.000000" x2="24.000000" y2="124.000000"  style="stroke:black; stroke-linecap:round; stroke-width:0.25;"/>
<line x1="20.000000" y1="132.000000" x2="24.000000" y2="132.000000"  style="stroke:black; stroke-linecap:round; stroke-width:0.25;"/>
<line x1="20.000000" y1="140.000000" x2="24.000000" y2="140.000000"  style="stroke:black; stroke-linecap:round; stroke-width:0.25;"/>
<line x1="20.000000" y1="148.000000" x2="24.000000" y2="148.000000"  style="stroke:black; stroke-linecap:round; stroke-width:0.25;"/>
<line x1="20.000000" y1="156.000000" x2="24.000000" y2="156.000000"  style="stroke:black; stroke-linecap:round; stroke-width:0.25;"/>
<line x1="20.000000" y1="164.000000" x2="24.000000" y2="164.000000"  style="stroke:black; stroke-linecap:round; stroke-width:0.25;"/>
<line x1="20.000000" y1="172.000000" x2="24.000000" y2="172.000000"  style="stroke:black; stroke-linecap:round; stroke-width:0.25;"/>
<line x1="24.000000" y1="124.000000" x2="28.000000" y2="124.000000"  style="stroke:black; stroke-linecap:round; stroke-width:0.25;"/>
<line x1="24.000000" y1="132.000000" x2="28.000000" y2="132.000000"  style="stroke:black; stroke-linecap:round; stroke-width:0.25;"/>
<line x1="24.000000" y1="140.000000" x2="28.000000" y2="140.000000"  style="stroke:black; stroke-linecap:round; stroke-width:0.25;"/>
<line x1="24.000000" y1="148.000000" x2="28.000000" y2="148.000000"  style="stroke:black; stroke-linecap:round; stroke-width:0.25;"/>
<line x1="24.000000" y1="156.000000" x2="28.000000" y2="156.000000"  style="stroke:black; stroke-linecap:round; stroke-width:0.25;"/>
<line x1="24.000000" y1="164.000000" x2="28.000000" y2="164.000000"  style="stroke:black; stroke-linecap:round; stroke-width:0.25;"/>
<line x1="24.000000" y1="172.000000" x2="28.000000" y2="172.000000"  style="stroke:black; stroke-linecap:round; stroke-width:0.25;"/>
<line x1="28.000000" y1="52.000000" x2="52.000000" y2="52.000000"  style="stroke:black; stroke-linecap:round; stroke-width:0.25;"/>
<line x1="28.000000" y1="124.000000" x2="28.000000" y2="52.000000"  style="stroke:black; stroke-linecap:round; stroke-width:0.25;"/>
<line x1="28.000000" y1="124.000000" x2="28.000000" y2="124.000000"  style="stroke:black; stroke-linecap:round; stroke-width:0.25;"/>
<line x1="28.000000" y1="132.000000" x2="36.000000" y2="132.000000"  style="stroke:black; stroke-linecap:round; stroke-width:0.25;"/>
<line x1="28.000000" y1="140.000000" x2="44.000000" y2="140.000000"  style="stroke:black; stroke-linecap:round; stroke-width:0.25;"/>
<line x1="28.000000" y1="148.000000" x2="52.000000" y2="148.000000"  style="stroke:black; stroke-linecap:round; stroke-width:0.25;"/>
<line x1="28.000000" y1="156.000000" x2="52.000000" y2="156.000000"  style="stroke:black; stroke-linecap:round; stroke-width:0.25;"/>
<line x1="28.000000" y1="164.000000" x2="44.000000" y2="164.000000"  style="stroke:black; stroke-linecap:round; stroke-width:0.25;"/>
<line x1="28.000000" y1="172.000000" x2="36.000000" y2="172.000000"  style="stroke:black; stroke-linecap:round; stroke-width:0.25;"/>
<line x1="36.000000" y1="84.000000" x2="52.000000" y2="84.000000"  style="stroke:black; stroke-linecap:round; stroke-width:0.25;"/>
<line x1="36.000000" y1="132.000000" x2="36.000000" y2="84.000000"  style="stroke:black; stroke-linecap:round; stroke-width:0.25;"/>
<line x1="36.000000" y1="172.000000" x2="36.000000" y2="244.000000"  style="stroke:black; stroke-linecap:round; stroke-width:0.25;"/>
<line x1="36.000000" y1="244.000000" x2="52.000000" y2="244.000000"  style="stroke:black; stroke-linecap:round; stroke-width:0.25;"/>
<line x1="44.000000" y1="116.000000" x2="52.000000" y2="116.000000"  style="stroke:black; stroke-linecap:round; stroke-width:0.25;"/>
<line x1="44.000000" y1="140.000000" x2="44.000000" y2="116.000000"  style="stroke:black; stroke-linecap:round; stroke-width:0.25;"/>
<line x1="44.000000" y1="164.000000" x2="44.000000" y2="212.000000"  style="stroke:black; stroke-linecap:round; stroke-width:0.25;"/>
<line x1="44.000000" y1="212.000000" x2="52.000000" y2="212.000000"  style="stroke:black; stroke-linecap:round; stroke-width:0.25;"/>
<line x1="52.000000" y1="52.000000" x2="52.900000" y2="52.000000"  style="stroke:black; stroke-linecap:round; stroke-width:0.25;"/>
<line x1="52.000000" y1="84.000000" x2="56.000000" y2="84.000000"  style="stroke:black; stroke-linecap:round; stroke-width:0.25;"/>
<line x1="52.000000" y1="116.000000" x2="56.000000" y2="116.000000"  style="stroke:black; stroke-linecap:round; stroke-width:0.25;"/>
<line x1="52.000000" y1="148.000000" x2="56.000000" y2="148.000000"  style="stroke:black; stroke-linecap:round; stroke-width:0.25;"/>
<line x1="52.000000" y1="156.000000" x2="52.000000" y2="180.000000"  style="stroke:black; stroke-linecap:round; stroke-width:0.25;"/>
<line x1="52.000000" y1="180.000000" x2="52.000000" y2="180.000000"  style="stroke:black; stroke-linecap:round; stroke-width:0.25;"/>
<line x1="52.000000" y1="180.000000" x2="56.000000" y2="180.000000"  style="stroke:black; stroke-linecap:round; stroke-width:0.25;"/>
<line x1="52.000000" y1="212.000000" x2="52.900000" y2="212.000000"  style="stroke:black; stroke-linecap:round; stroke-width:0.25;"/>
<line x1="52.000000" y1="244.000000" x2="52.900000" y2="244.000000"  style="stroke:black; stroke-linecap:round; stroke-width:0.25;"/>
<line x1="52.900000" y1="52.000000" x2="56.900000" y2="52.000000"  style="stroke:black; stroke-linecap:round; stroke-width:0.25;"/>
<line x1="52.900000" y1="212.000000" x2="56.900000" y2="212.000000"  style="stroke:black; stroke-linecap:round; stroke-width:0.25;"/>
<line x1="52.900000" y1="244.000000" x2="56.900000" y2="244.000000"  style="stroke:black; stroke-linecap:round; stroke-width:0.25;"/>
<line x1="114.700000" y1="36.000000" x2="118.700000" y2="36.000000"  style="stroke:black; stroke-linecap:round; stroke-width:0.25;"/>
<line x1="114.700000" y1="100.000000" x2="118.700000" y2="100.000000"  style="stroke:black; stroke-linecap:round; stroke-width:0.25;"/>
<line x1="115.600000" y1="68.000000" x2="119.600000" y2="68.000000"  style="stroke:black; stroke-linecap:round; stroke-width:0.25;"/>
<line x1="115.600000" y1="132.000000" x2="119.600000" y2="132.000000"  style="stroke:black; stroke-linecap:round; stroke-width:0.25;"/>
<line x1="118.700000" y1="36.000000" x2="119.600000" y2="36.000000"  style="stroke:black; stroke-linecap:round; stroke-width:0.25;"/>
<line x1="118.700000" y1="100.000000" x2="119.600000" y2="100.000000"  style="stroke:black; stroke-linecap:round; stroke-width:0.25;"/>
<line x1="119.600000" y1="36.000000" x2="127.600000" y2="36.000000"  style="stroke:black; stroke-linecap:round; stroke-width:0.25;"/>
<line x1="119.600000" y1="56.000000" x2="127.600000" y2="56.000000"  style="stroke:black; stroke-linecap:round; stroke-width:0.25;"/>
<line x1="119.600000" y1="68.000000" x2="119.600000" y2="56.000000"  style="stroke:black; stroke-linecap:round; stroke-width:0.25;"/>
<line x1="119.600000" y1="68.000000" x2="119.600000" y2="68.000000"  style="stroke:black; stroke-linecap:round; stroke-width:0.25;"/>
<line x1="119.600000" y1="100.000000" x2="127.600000" y2="100.000000"  style="stroke:black; stroke-linecap:round; stroke-width:0.25;"/>
<line x1="119.600000" y1="120.000000" x2="127.600000" y2="120.000000"  style="stroke:black; stroke-linecap:round; stroke-width:0.25;"/>
<line x1="119.600000" y1="132.000000" x2="119.600000" y2="120.000000"  style="stroke:black; stroke-linecap:round; stroke-width:0.25;"/>
<line x1="119.600000" y1="132.000000" x2="119.600000" y2="132.000000"  style="stroke:black; stroke-linecap:round; stroke-width:0.25;"/>
<line x1="127.600000" y1="36.000000" x2="127.600000" y2="48.000000"  style="stroke:black; stroke-linecap:round; stroke-width:0.25;"/>
<line x1="127.600000" y1="48.000000" x2="127.600000" y2="48.000000"  style="stroke:black; stroke-linecap:round; stroke-width:0.25;"/>
<line x1="127.600000" y1="48.000000" x2="131.600000" y2="48.000000"  style="stroke:black; stroke-linecap:round; stroke-width:0.25;"/>
<line x1="127.600000" y1="56.000000" x2="131.600000" y2="56.000000"  style="stroke:black; stroke-linecap:round; stroke-width:0.25;"/>
<line x1="127.600000" y1="100.000000" x2="127.600000" y2="112.000000"  style="stroke:black; stroke-linecap:round; stroke-width:0.25;"/>
<line x1="127.600000" y1="112.000000" x2="127.600000" y2="112.000000"  style="stroke:black; stroke-linecap:round; stroke-width:0.25;"/>
<line x1="127.600000" y1="112.000000" x2="131.600000" y2="112.000000"  style="stroke:black; stroke-linecap:round; stroke-width:0.25;"/>
<line x1="127.600000" y1="120.000000" x2="131.600000" y2="120.000000"  style="stroke:black; stroke-linecap:round; stroke-width:0.25;"/>
<line x1="155.600000" y1="52.000000" x2="159.600000" y2="52.000000"  style="stroke:black; stroke-linecap:round; stroke-width:0.25;"/>
<line x1="155.600000" y1="116.000000" x2="159.600000" y2="116.000000"  style="stroke:black; stroke-linecap:round; stroke-width:0.25;"/>
<line x1="159.600000" y1="52.000000" x2="167.600000" y2="52.000000"  style="stroke:black; stroke-linecap:round; stroke-width:0.25;"/>
<line x1="159.600000" y1="88.000000" x2="167.600000" y2="88.000000"  style="stroke:black; stroke-linecap:round; stroke-width:0.25;"/>
<line x1="159.600000" y1="116.000000" x2="159.600000" y2="88.000000"  style="stroke:black; stroke-linecap:round; stroke-width:0.25;"/>
<line x1="159.600000" y1="116.000000" x2="159.600000" y2="116.000000"  style="stroke:black; stroke-linecap:round; stroke-width:0.25;"/>
<line x1="162.300000" y1="164.000000" x2="166.300000" y2="164.000000"  style="stroke:black; stroke-linecap:round; stroke-width:0.25;"/>
<line x1="162.300000" y1="196.000000" x2="166.300000" y2="196.000000"  style="stroke:black; stroke-linecap:round; stroke-width:0.25;"/>
<line x1="162.300000" y1="228.000000" x2="166.300000" y2="228.000000"  style="stroke:black; stroke-linecap:round; stroke-width:0.25;"/>
<line x1="162.300000" y1="260.000000" x2="166.300000" y2="260.000000"  style="stroke:black; stroke-linecap:round; stroke-width:0.25;"/>
<line x1="166.300000" y1="164.000000" x2="174.300000" y2="164.000000"  style="stroke:black; stroke-linecap:round; stroke-width:0.25;"/>
<line x1="166.300000" y1="184.000000" x2="174.300000" y2="184.000000"  style="stroke:black; stroke-linecap:round; stroke-width:0.25;"/>
<line x1="166.300000" y1="196.000000" x2="166.300000" y2="184.000000"  style="stroke:black; stroke-linecap:round; stroke-width:0.25;"/>
<line x1="166.300000" y1="196.000000" x2="166.300000" y2="196.000000"  style="stroke:black; stroke-linecap:round; stroke-width:0.25;"/>
<line x1="166.300000" y1="228.000000" x2="174.300000" y2="228.000000"  style="stroke:black; stroke-linecap:round; stroke-width:0.25;"/>
<line x1="166.300000" y1="248.000000" x2="174.300000" y2="248.000000"  style="stroke:black; stroke-linecap:round; stroke-width:0.25;"/>
<line x1="166.300000" y1="260.000000" x2="166.300000" y2="248.000000"  style="stroke:black; stroke-linecap:round; stroke-width:0.25;"/>
<line x1="166.300000" y1="260.000000" x2="166.300000" y2="260.000000"  style="stroke:black; stroke-linecap:round; stroke-width:0.25;"/>
<line x1="167.600000" y1="52.000000" x2="167.600000" y2="80.000000"  style="stroke:black; stroke-linecap:round; stroke-width:0.25;"/>
<line x1="167.600000" y1="80.000000" x2="167.600000" y2="80.000000"  style="stroke:black; stroke-linecap:round; stroke-width:0.25;"/>
<line x1="167.600000" y1="80.000000" x2="171.600000" y2="80.000000"  style="stroke:black; stroke-linecap:round; stroke-width:0.25;"/>
<line x1="167.600000" y1="88.000000" x2="171.600000" y2="88.000000"  style="stroke:black; stroke-linecap:round; stroke-width:0.25;"/>
<line x1="174.300000" y1="164.000000" x2="174.300000" y2="176.000000"  style="stroke:black; stroke-linecap:round; stroke-width:0.25;"/>
<line x1="174.300000" y1="176.000000" x2="174.300000" y2="176.000000"  style="stroke:black; stroke-linecap:round; stroke-width:0.25;"/>
<line x1="174.300000" y1="176.000000" x2="178.300000" y2="176.000000"  style="stroke:black; stroke-linecap:round; stroke-width:0.25;"/>
<line x1="174.300000" y1="184.000000" x2="178.300000" y2="184.000000"  style="stroke:black; stroke-linecap:round; stroke-width:0.25;"/>
<line x1="174.300000" y1="228.000000" x2="174.300000" y2="240.000000"  style="stroke:black; stroke-linecap:round; stroke-width:0.25;"/>
<line x1="174.300000" y1="240.000000" x2="174.300000" y2="240.000000"  style="stroke:black; stroke-linecap:round; stroke-width:0.25;"/>
<line x1="174.300000" y1="240.000000" x2="178.300000" y2="240.000000"  style="stroke:black; stroke-linecap:round; stroke-width:0.25;"/>
<line x1="174.300000" y1="248.000000" x2="178.300000" y2="248.000000"  style="stroke:black; stroke-linecap:round; stroke-width:0.25;"/>
<line x1="202.300000" y1="180.000000" x2="206.300000" y2="180.000000"  style="stroke:black; stroke-linecap:round; stroke-width:0.25;"/>
<line x1="202.300000" y1="244.000000" x2="206.300000" y2="244.000000"  style="stroke:black; stroke-linecap:round; stroke-width:0.25;"/>
<line x1="206.300000" y1="180.000000" x2="253.000000" y2="180.000000"  style="stroke:black; stroke-linecap:round; stroke-width:0.25;"/>
<line x1="206.300000" y1="244.000000" x2="253.000000" y2="244.000000"  style="stroke:black; stroke-linecap:round; stroke-width:0.25;"/>
<line x1="249.000000" y1="80.000000" x2="253.000000" y2="80.000000"  style="stroke:black; stroke-linecap:round; stroke-width:0.25;"/>
<line x1="249.000000" y1="88.000000" x2="253.000000" y2="88.000000"  style="stroke:black; stroke-linecap:round; stroke-width:0.25;"/>
<line x1="253.000000" y1="80.000000" x2="269.000000" y2="80.000000"  style="stroke:black; stroke-linecap:round; stroke-width:0.25;"/>
<line x1="253.000000" y1="88.000000" x2="261.000000" y2="88.000000"  style="stroke:black; stroke-linecap:round; stroke-width:0.25;"/>
<line x1="253.000000" y1="152.000000" x2="269.000000" y2="152.000000"  style="stroke:black; stroke-linecap:round; stroke-width:0.25;"/>
<line x1="253.000000" y1="180.000000" x2="253.000000" y2="152.000000"  style="stroke:black; stroke-linecap:round; stroke-width:0.25;"/>
<line x1="253.000000" y1="180.000000" x2="253.000000" y2="180.000000"  style="stroke:black; stroke-linecap:round; stroke-width:0.25;"/>
<line x1="253.000000" y1="244.000000" x2="261.000000" y2="244.000000"  style="stroke:black; stroke-linecap:round; stroke-width:0.25;"/>
<line x1="261.000000" y1="88.000000" x2="261.000000" y2="144.000000"  style="stroke:black; stroke-linecap:round; stroke-width:0.25;"/>
<line x1="261.000000" y1="144.000000" x2="269.000000" y2="144.000000"  style="stroke:black; stroke-linecap:round; stroke-width:0.25;"/>
<line x1="261.000000" y1="160.080000" x2="269.000000" y2="160.080000"  style="stroke:black; stroke-linecap:round; stroke-width:0.25;"/>
<line x1="261.000000" y1="244.000000" x2="261.000000" y2="160.080000"  style="stroke:black; stroke-linecap:round; stroke-width:0.25;"/>
<line x1="269.000000" y1="80.000000" x2="269.000000" y2="135.920000"  style="stroke:black; stroke-linecap:round; stroke-width:0.25;"/>
<line x1="269.000000" y1="135.920000" x2="269.000000" y2="135.920000"  style="stroke:black; stroke-linecap:round; stroke-width:0.25;"/>
<line x1="269.000000" y1="135.920000" x2="281.020000" y2="135.920000"  style="stroke:black; stroke-linecap:round; stroke-width:0.25;"/>
<line x1="269.000000" y1="144.000000" x2="273.000000" y2="144.000000"  style="stroke:black; stroke-linecap:round; stroke-width:0.25;"/>
<line x1="269.000000" y1="152.000000" x2="273.000000" y2="152.000000"  style="stroke:black; stroke-linecap:round; stroke-width:0.25;"/>
<line x1="269.000000" y1="160.080000" x2="281.020000" y2="160.080000"  style="stroke:black; stroke-linecap:round; stroke-width:0.25;"/>
<line x1="273.000000" y1="144.000000" x2="277.000000" y2="144.000000"  style="stroke:black; stroke-linecap:round; stroke-width:0.25;"/>
<line x1="273.000000" y1="152.000000" x2="277.000000" y2="152.000000"  style="stroke:black; stroke-linecap:round; stroke-width:0.25;"/>
<line x1="277.000000" y1="144.000000" x2="285.040000" y2="152.000000"  style="stroke:black; stroke-linecap:round; stroke-width:0.25;"/>
<line x1="277.000000" y1="152.000000" x2="285.040000" y2="144.000000"  style="stroke:black; stroke-linecap:round; stroke-width:0.25;"/>
<line x1="281.020000" y1="135.920000" x2="293.040000" y2="135.920000"  style="stroke:black; stroke-linecap:round; stroke-width:0.25;"/>
<line x1="281.020000" y1="160.080000" x2="293.040000" y2="160.080000"  style="stroke:black; stroke-linecap:round; stroke-width:0.25;"/>
<line x1="285.040000" y1="144.000000" x2="289.040000" y2="144.000000"  style="stroke:black; stroke-linecap:round; stroke-width:0.25;"/>
<line x1="285.040000" y1="152.000000" x2="289.040000" y2="152.000000"  style="stroke:black; stroke-linecap:round; stroke-width:0.25;"/>
<line x1="289.040000" y1="144.000000" x2="293.040000" y2="144.000000"  style="stroke:black; stroke-linecap:round; stroke-width:0.25;"/>
<line x1="289.040000" y1="152.000000" x2="293.040000" y2="152.000000"  style="stroke:black; stroke-linecap:round; stroke-width:0.25;"/>
<line x1="293.040000" y1="128.000000" x2="309.040000" y2="128.000000"  style="stroke:black; stroke-linecap:round; stroke-width:0.25;"/>
<line x1="293.040000" y1="135.920000" x2="293.040000" y2="128.000000"  style="stroke:black; stroke-linecap:round; stroke-width:0.25;"/>
<line x1="293.040000" y1="135.920000" x2="293.040000" y2="135.920000"  style="stroke:black; stroke-linecap:round; stroke-width:0.25;"/>
<line x1="293.040000" y1="160.080000" x2="301.040000" y2="160.080000"  style="stroke:black; stroke-linecap:round; stroke-width:0.25;"/>
<line x1="293.040000" y1="144.000000" x2="301.040000" y2="144.000000"  style="stroke:black; stroke-linecap:round; stroke-width:0.25;"/>
<line x1="293.040000" y1="152.000000" x2="309.040000" y2="152.000000"  style="stroke:black; stroke-linecap:round; stroke-width:0.25;"/>
<line x1="301.040000" y1="160.080000" x2="301.040000" y2="168.000000"  style="stroke:black; stroke-linecap:round; stroke-width:0.25;"/>
<line x1="301.040000" y1="168.000000" x2="309.040000" y2="168.000000"  style="stroke:black; stroke-linecap:round; stroke-width:0.25;"/>
<line x1="301.040000" y1="136.000000" x2="309.040000" y2="136.000000"  style="stroke:black; stroke-linecap:round; stroke-width:0.25;"/>
<line x1="301.040000" y1="144.000000" x2="301.040000" y2="136.000000"  style="stroke:black; stroke-linecap:round; stroke-width:0.25;"/>
<line x1="309.040000" y1="128.000000" x2="313.040000" y2="128.000000"  style="stroke:black; stroke-linecap:round; stroke-width:0.25;"/>
<line x1="309.040000" y1="136.000000" x2="313.040000" y2="136.000000"  style="stroke:black; stroke-linecap:round; stroke-width:0.25;"/>
<line x1="309.040000" y1="152.000000" x2="309.040000" y2="160.000000"  style="stroke:black; stroke-linecap:round; stroke-width:0.25;"/>
<line x1="309.040000" y1="160.000000" x2="309.040000" y2="160.000000"  style="stroke:black; stroke-linecap:round; stroke-width:0.25;"/>
<line x1="309.040000" y1="160.000000" x2="313.040000" y2="160.000000"  style="stroke:black; stroke-linecap:round; stroke-width:0.25;"/>
<line x1="309.040000" y1="168.000000" x2="313.040000" y2="168.000000"  style="stroke:black; stroke-linecap:round; stroke-width:0.25;"/>
<line x1="337.040000" y1="132.000000" x2="341.040000" y2="132.000000"  style="stroke:black; stroke-linecap:round; stroke-width:0.25;"/>
<line x1="337.040000" y1="164.000000" x2="341.040000" y2="164.000000"  style="stroke:black; stroke-linecap:round; stroke-width:0.25;"/>
<line x1="341.040000" y1="132.000000" x2="349.040000" y2="132.000000"  style="stroke:black; stroke-linecap:round; stroke-width:0.25;"/>
<line x1="341.040000" y1="152.000000" x2="349.040000" y2="152.000000"  style="stroke:black; stroke-linecap:round; stroke-width:0.25;"/>
<line x1="341.040000" y1="164.000000" x2="341.040000" y2="152.000000"  style="stroke:black; stroke-linecap:round; stroke-width:0.25;"/>
<line x1="341.040000" y1="164.000000" x2="341.040000" y2="164.000000"  style="stroke:black; stroke-linecap:round; stroke-width:0.25;"/>
<line x1="349.040000" y1="144.000000" x2="353.040000" y2="144.000000"  style="stroke:black; stroke-linecap:round; stroke-width:0.25;"/>
<line x1="349.040000" y1="152.000000" x2="353.040000" y2="152.000000"  style="stroke:black; stroke-linecap:round; stroke-width:0.25;"/>
<line x1="349.040000" y1="132.000000" x2="349.040000" y2="144.000000"  style="stroke:black; stroke-linecap:round; stroke-width:0.25;"/>
<line x1="349.040000" y1="144.000000" x2="349.040000" y2="144.000000"  style="stroke:black; stroke-linecap:round; stroke-width:0.25;"/>
<line x1="353.040000" y1="144.000000" x2="357.040000" y2="144.000000"  style="stroke:black; stroke-linecap:round; stroke-width:0.25;"/>
<line x1="353.040000" y1="152.000000" x2="357.040000" y2="152.000000"  style="stroke:black; stroke-linecap:round; stroke-width:0.25;"/>
<line x1="357.040000" y1="144.000000" x2="367.040000" y2="144.000000"  style="stroke:black; stroke-linecap:round; stroke-width:0.25;"/>
<line x1="357.040000" y1="152.000000" x2="367.040000" y2="152.000000"  style="stroke:black; stroke-linecap:round; stroke-width:0.25;"/>
</svg>
