<?xml version="1.0"?>
<svg xmlns="http://www.w3.org/2000/svg" xmlns:xlink="http://www.w3.org/1999/xlink" viewBox="0 0 298.300000 80.000000" width="149.150000mm" height="40.000000mm" version="1.1">
<a xlink:href="count-0x7f8add414fe0.svg">
<rect x="1.000000" y="1.000000" width="297.300000" height="79.000000" rx="0" ry="0" style="stroke:none;fill:#cccccc;"/>
<rect x="0.000000" y="0.000000" width="297.300000" height="79.000000" rx="0" ry="0" style="stroke:none;fill:#ffffff;"/>
</a>
<text x="10.000000" y="7.000000" font-family="Arial" font-size="7"></text>
<rect x="41.000000" y="33.000000" width="25.800000" height="24.000000" rx="0" ry="0" style="stroke:none;fill:#cccccc;"/>
<rect x="40.000000" y="32.000000" width="25.800000" height="24.000000" rx="0" ry="0" style="stroke:none;fill:#f44800;"/>
<text x="52.900000" y="46.000000" font-family="Arial" font-size="7" text-anchor="middle" fill="#FFFFFF">65536</text>
<circle cx="42.000000" cy="34.000000" r="1"/>
<rect x="82.800000" y="29.000000" width="24.000000" height="24.000000" rx="0" ry="0" style="stroke:none;fill:#cccccc;"/>
<rect x="81.800000" y="28.000000" width="24.000000" height="24.000000" rx="0" ry="0" style="stroke:none;fill:#4B71A1;"/>
<text x="93.800000" y="42.000000" font-family="Arial" font-size="7" text-anchor="middle" fill="#FFFFFF">/</text>
<circle cx="83.800000" cy="30.000000" r="1"/>
<line x1="78.800000" y1="35.000000" x2="81.800000" y2="36.000000"  transform="rotate(0.000000,81.800000,36.000000)" style="stroke: black; stroke-width:0.25;"/>
<line x1="78.800000" y1="37.000000" x2="81.800000" y2="36.000000"  transform="rotate(0.000000,81.800000,36.000000)" style="stroke: black; stroke-width:0.25;"/>
<line x1="78.800000" y1="43.000000" x2="81.800000" y2="44.000000"  transform="rotate(0.000000,81.800000,44.000000)" style="stroke: black; stroke-width:0.25;"/>
<line x1="78.800000" y1="45.000000" x2="81.800000" y2="44.000000"  transform="rotate(0.000000,81.800000,44.000000)" style="stroke: black; stroke-width:0.25;"/>
<a xlink:href="decimal-0x7f8add1f7280.svg">
<rect x="114.800000" y="29.000000" width="38.700000" height="24.000000" rx="0" ry="0" style="stroke:none;fill:#cccccc;"/>
<rect x="113.800000" y="28.000000" width="38.700000" height="24.000000" rx="0" ry="0" style="stroke:none;fill:#003366;"/>
</a>
<a xlink:href="decimal-0x7f8add1f7280.svg">
<text x="133.150000" y="42.000000" font-family="Arial" font-size="7" text-anchor="middle" fill="#FFFFFF">decimal</text>
</a>
<circle cx="115.800000" cy="30.000000" r="1"/>
<line x1="110.800000" y1="39.000000" x2="113.800000" y2="40.000000"  transform="rotate(0.000000,113.800000,40.000000)" style="stroke: black; stroke-width:0.25;"/>
<line x1="110.800000" y1="41.000000" x2="113.800000" y2="40.000000"  transform="rotate(0.000000,113.800000,40.000000)" style="stroke: black; stroke-width:0.25;"/>
<rect x="169.500000" y="33.000000" width="25.800000" height="24.000000" rx="0" ry="0" style="stroke:none;fill:#cccccc;"/>
<rect x="168.500000" y="32.000000" width="25.800000" height="24.000000" rx="0" ry="0" style="stroke:none;fill:#f44800;"/>
<text x="181.400000" y="46.000000" font-family="Arial" font-size="7" text-anchor="middle" fill="#FFFFFF">65536</text>
<circle cx="170.500000" cy="34.000000" r="1"/>
<rect x="211.300000" y="29.000000" width="24.000000" height="24.000000" rx="0" ry="0" style="stroke:none;fill:#cccccc;"/>
<rect x="210.300000" y="28.000000" width="24.000000" height="24.000000" rx="0" ry="0" style="stroke:none;fill:#4B71A1;"/>
<text x="222.300000" y="42.000000" font-family="Arial" font-size="7" text-anchor="middle" fill="#FFFFFF">*</text>
<circle cx="212.300000" cy="30.000000" r="1"/>
<line x1="207.300000" y1="35.000000" x2="210.300000" y2="36.000000"  transform="rotate(0.000000,210.300000,36.000000)" style="stroke: black; stroke-width:0.25;"/>
<line x1="207.300000" y1="37.000000" x2="210.300000" y2="36.000000"  transform="rotate(0.000000,210.300000,36.000000)" style="stroke: black; stroke-width:0.25;"/>
<line x1="207.300000" y1="43.000000" x2="210.300000" y2="44.000000"  transform="rotate(0.000000,210.300000,44.000000)" style="stroke: black; stroke-width:0.25;"/>
<line x1="207.300000" y1="45.000000" x2="210.300000" y2="44.000000"  transform="rotate(0.000000,210.300000,44.000000)" style="stroke: black; stroke-width:0.25;"/>
<rect x="243.300000" y="29.000000" width="24.000000" height="24.000000" rx="0" ry="0" style="stroke:none;fill:#cccccc;"/>
<rect x="242.300000" y="28.000000" width="24.000000" height="24.000000" rx="0" ry="0" style="stroke:none;fill:#4B71A1;"/>
<text x="254.300000" y="42.000000" font-family="Arial" font-size="7" text-anchor="middle" fill="#FFFFFF">int</text>
<circle cx="244.300000" cy="30.000000" r="1"/>
<line x1="239.300000" y1="39.000000" x2="242.300000" y2="40.000000"  transform="rotate(0.000000,242.300000,40.000000)" style="stroke: black; stroke-width:0.25;"/>
<line x1="239.300000" y1="41.000000" x2="242.300000" y2="40.000000"  transform="rotate(0.000000,242.300000,40.000000)" style="stroke: black; stroke-width:0.25;"/>
<line x1="15.000000" y1="15.000000" x2="15.000000" y2="65.000000"  style="stroke: black; stroke-linecap:round; stroke-width:0.25; stroke-dasharray:3,3;"/>
<line x1="15.000000" y1="65.000000" x2="283.300000" y2="65.000000"  style="stroke: black; stroke-linecap:round; stroke-width:0.25; stroke-dasharray:3,3;"/>
<line x1="283.300000" y1="65.000000" x2="283.300000" y2="15.000000"  style="stroke: black; stroke-linecap:round; stroke-width:0.25; stroke-dasharray:3,3;"/>
<line x1="15.000000" y1="15.000000" x2="20.000000" y2="15.000000"  style="stroke: black; stroke-linecap:round; stroke-width:0.25; stroke-dasharray:3,3;"/>
<line x1="68.375000" y1="15.000000" x2="283.300000" y2="15.000000"  style="stroke: black; stroke-linecap:round; stroke-width:0.25; stroke-dasharray:3,3;"/>
<text x="20.000000" y="17.000000" font-family="Arial" font-size="7">modulo(65536)</text>
<line x1="285.300000" y1="39.000000" x2="288.300000" y2="40.000000"  transform="rotate(0.000000,288.300000,40.000000)" style="stroke: black; stroke-width:0.25;"/>
<line x1="285.300000" y1="41.000000" x2="288.300000" y2="40.000000"  transform="rotate(0.000000,288.300000,40.000000)" style="stroke: black; stroke-width:0.25;"/>
<line x1="10.000000" y1="40.000000" x2="20.000000" y2="40.000000"  style="stroke:black; stroke-linecap:round; stroke-width:0.25;"/>
<line x1="20.000000" y1="40.000000" x2="24.000000" y2="40.000000"  style="stroke:black; stroke-linecap:round; stroke-width:0.25;"/>
<line x1="24.000000" y1="40.000000" x2="28.000000" y2="40.000000"  style="stroke:black; stroke-linecap:round; stroke-width:0.25;"/>
<line x1="28.000000" y1="24.000000" x2="36.000000" y2="24.000000"  style="stroke:black; stroke-linecap:round; stroke-width:0.25;"/>
<line x1="28.000000" y1="40.000000" x2="28.000000" y2="24.000000"  style="stroke:black; stroke-linecap:round; stroke-width:0.25;"/>
<line x1="28.000000" y1="40.000000" x2="28.000000" y2="40.000000"  style="stroke:black; stroke-linecap:round; stroke-width:0.25;"/>
<line x1="36.000000" y1="24.000000" x2="52.900000" y2="24.000000"  style="stroke:black; stroke-linecap:round; stroke-width:0.25;"/>
<line x1="52.900000" y1="24.000000" x2="69.800000" y2="24.000000"  style="stroke:black; stroke-linecap:round; stroke-width:0.25;"/>
<line x1="65.800000" y1="44.000000" x2="69.800000" y2="44.000000"  style="stroke:black; stroke-linecap:round; stroke-width:0.25;"/>
<line x1="69.800000" y1="24.000000" x2="77.800000" y2="24.000000"  style="stroke:black; stroke-linecap:round; stroke-width:0.25;"/>
<line x1="69.800000" y1="44.000000" x2="77.800000" y2="44.000000"  style="stroke:black; stroke-linecap:round; stroke-width:0.25;"/>
<line x1="77.800000" y1="24.000000" x2="77.800000" y2="36.000000"  style="stroke:black; stroke-linecap:round; stroke-width:0.25;"/>
<line x1="77.800000" y1="36.000000" x2="77.800000" y2="36.000000"  style="stroke:black; stroke-linecap:round; stroke-width:0.25;"/>
<line x1="77.800000" y1="36.000000" x2="81.800000" y2="36.000000"  style="stroke:black; stroke-linecap:round; stroke-width:0.25;"/>
<line x1="77.800000" y1="44.000000" x2="81.800000" y2="44.000000"  style="stroke:black; stroke-linecap:round; stroke-width:0.25;"/>
<line x1="105.800000" y1="40.000000" x2="109.800000" y2="40.000000"  style="stroke:black; stroke-linecap:round; stroke-width:0.25;"/>
<line x1="109.800000" y1="40.000000" x2="109.800000" y2="40.000000"  style="stroke:black; stroke-linecap:round; stroke-width:0.25;"/>
<line x1="109.800000" y1="40.000000" x2="113.800000" y2="40.000000"  style="stroke:black; stroke-linecap:round; stroke-width:0.25;"/>
<line x1="152.500000" y1="40.000000" x2="156.500000" y2="40.000000"  style="stroke:black; stroke-linecap:round; stroke-width:0.25;"/>
<line x1="156.500000" y1="24.000000" x2="164.500000" y2="24.000000"  style="stroke:black; stroke-linecap:round; stroke-width:0.25;"/>
<line x1="156.500000" y1="40.000000" x2="156.500000" y2="24.000000"  style="stroke:black; stroke-linecap:round; stroke-width:0.25;"/>
<line x1="156.500000" y1="40.000000" x2="156.500000" y2="40.000000"  style="stroke:black; stroke-linecap:round; stroke-width:0.25;"/>
<line x1="164.500000" y1="24.000000" x2="181.400000" y2="24.000000"  style="stroke:black; stroke-linecap:round; stroke-width:0.25;"/>
<line x1="181.400000" y1="24.000000" x2="198.300000" y2="24.000000"  style="stroke:black; stroke-linecap:round; stroke-width:0.25;"/>
<line x1="194.300000" y1="44.000000" x2="198.300000" y2="44.000000"  style="stroke:black; stroke-linecap:round; stroke-width:0.25;"/>
<line x1="198.300000" y1="24.000000" x2="206.300000" y2="24.000000"  style="stroke:black; stroke-linecap:round; stroke-width:0.25;"/>
<line x1="198.300000" y1="44.000000" x2="206.300000" y2="44.000000"  style="stroke:black; stroke-linecap:round; stroke-width:0.25;"/>
<line x1="206.300000" y1="24.000000" x2="206.300000" y2="36.000000"  style="stroke:black; stroke-linecap:round; stroke-width:0.25;"/>
<line x1="206.300000" y1="36.000000" x2="206.300000" y2="36.000000"  style="stroke:black; stroke-linecap:round; stroke-width:0.25;"/>
<line x1="206.300000" y1="36.000000" x2="210.300000" y2="36.000000"  style="stroke:black; stroke-linecap:round; stroke-width:0.25;"/>
<line x1="206.300000" y1="44.000000" x2="210.300000" y2="44.000000"  style="stroke:black; stroke-linecap:round; stroke-width:0.25;"/>
<line x1="234.300000" y1="40.000000" x2="238.300000" y2="40.000000"  style="stroke:black; stroke-linecap:round; stroke-width:0.25;"/>
<line x1="238.300000" y1="40.000000" x2="238.300000" y2="40.000000"  style="stroke:black; stroke-linecap:round; stroke-width:0.25;"/>
<line x1="238.300000" y1="40.000000" x2="242.300000" y2="40.000000"  style="stroke:black; stroke-linecap:round; stroke-width:0.25;"/>
<line x1="266.300000" y1="40.000000" x2="270.300000" y2="40.000000"  style="stroke:black; stroke-linecap:round; stroke-width:0.25;"/>
<line x1="270.300000" y1="40.000000" x2="270.300000" y2="40.000000"  style="stroke:black; stroke-linecap:round; stroke-width:0.25;"/>
<line x1="270.300000" y1="40.000000" x2="274.300000" y2="40.000000"  style="stroke:black; stroke-linecap:round; stroke-width:0.25;"/>
<line x1="274.300000" y1="40.000000" x2="278.300000" y2="40.000000"  style="stroke:black; stroke-linecap:round; stroke-width:0.25;"/>
<line x1="278.300000" y1="40.000000" x2="288.300000" y2="40.000000"  style="stroke:black; stroke-linecap:round; stroke-width:0.25;"/>
</svg>
