<?xml version="1.0"?>
<svg xmlns="http://www.w3.org/2000/svg" xmlns:xlink="http://www.w3.org/1999/xlink" viewBox="0 0 334.300000 136.000000" width="167.150000mm" height="68.000000mm" version="1.1">
<a xlink:href="qam-0x7f8add433b50.svg">
<rect x="1.000000" y="1.000000" width="333.300000" height="135.000000" rx="0" ry="0" style="stroke:none;fill:#cccccc;"/>
<rect x="0.000000" y="0.000000" width="333.300000" height="135.000000" rx="0" ry="0" style="stroke:none;fill:#ffffff;"/>
</a>
<text x="10.000000" y="7.000000" font-family="Arial" font-size="7"></text>
<rect x="41.000000" y="25.000000" width="25.800000" height="24.000000" rx="0" ry="0" style="stroke:none;fill:#cccccc;"/>
<rect x="40.000000" y="24.000000" width="25.800000" height="24.000000" rx="0" ry="0" style="stroke:none;fill:#47945E;"/>
<text x="52.900000" y="38.000000" font-family="Arial" font-size="7" text-anchor="middle" fill="#FFFFFF">phase</text>
<circle cx="42.000000" cy="26.000000" r="1"/>
<line x1="37.000000" y1="35.000000" x2="40.000000" y2="36.000000"  transform="rotate(0.000000,40.000000,36.000000)" style="stroke: black; stroke-width:0.25;"/>
<line x1="37.000000" y1="37.000000" x2="40.000000" y2="36.000000"  transform="rotate(0.000000,40.000000,36.000000)" style="stroke: black; stroke-width:0.25;"/>
<rect x="41.900000" y="57.000000" width="24.000000" height="24.000000" rx="0" ry="0" style="stroke:none;fill:#cccccc;"/>
<rect x="40.900000" y="56.000000" width="24.000000" height="24.000000" rx="0" ry="0" style="stroke:none;fill:#47945E;"/>
<text x="52.900000" y="70.000000" font-family="Arial" font-size="7" text-anchor="middle" fill="#FFFFFF">in1</text>
<circle cx="42.900000" cy="58.000000" r="1"/>
<line x1="37.900000" y1="67.000000" x2="40.900000" y2="68.000000"  transform="rotate(0.000000,40.900000,68.000000)" style="stroke: black; stroke-width:0.25;"/>
<line x1="37.900000" y1="69.000000" x2="40.900000" y2="68.000000"  transform="rotate(0.000000,40.900000,68.000000)" style="stroke: black; stroke-width:0.25;"/>
<rect x="41.900000" y="89.000000" width="24.000000" height="24.000000" rx="0" ry="0" style="stroke:none;fill:#cccccc;"/>
<rect x="40.900000" y="88.000000" width="24.000000" height="24.000000" rx="0" ry="0" style="stroke:none;fill:#47945E;"/>
<text x="52.900000" y="102.000000" font-family="Arial" font-size="7" text-anchor="middle" fill="#FFFFFF">in2</text>
<circle cx="42.900000" cy="90.000000" r="1"/>
<line x1="37.900000" y1="99.000000" x2="40.900000" y2="100.000000"  transform="rotate(0.000000,40.900000,100.000000)" style="stroke: black; stroke-width:0.25;"/>
<line x1="37.900000" y1="101.000000" x2="40.900000" y2="100.000000"  transform="rotate(0.000000,40.900000,100.000000)" style="stroke: black; stroke-width:0.25;"/>
<rect x="74.800000" y="57.000000" width="25.800000" height="24.000000" rx="0" ry="0" style="stroke:none;fill:#cccccc;"/>
<rect x="73.800000" y="56.000000" width="25.800000" height="24.000000" rx="0" ry="0" style="stroke:none;fill:#47945E;"/>
<text x="86.700000" y="70.000000" font-family="Arial" font-size="7" text-anchor="middle" fill="#FFFFFF">phase</text>
<circle cx="75.800000" cy="58.000000" r="1"/>
<a xlink:href="coswave-0x7f8adc22bb30.svg">
<rect x="136.600000" y="41.000000" width="38.700000" height="24.000000" rx="0" ry="0" style="stroke:none;fill:#cccccc;"/>
<rect x="135.600000" y="40.000000" width="38.700000" height="24.000000" rx="0" ry="0" style="stroke:none;fill:#003366;"/>
</a>
<a xlink:href="coswave-0x7f8adc22bb30.svg">
<text x="154.950000" y="54.000000" font-family="Arial" font-size="7" text-anchor="middle" fill="#FFFFFF">coswave</text>
</a>
<circle cx="137.600000" cy="42.000000" r="1"/>
<line x1="132.600000" y1="51.000000" x2="135.600000" y2="52.000000"  transform="rotate(0.000000,135.600000,52.000000)" style="stroke: black; stroke-width:0.25;"/>
<line x1="132.600000" y1="53.000000" x2="135.600000" y2="52.000000"  transform="rotate(0.000000,135.600000,52.000000)" style="stroke: black; stroke-width:0.25;"/>
<a xlink:href="sinwave-0x7f8adc291e40.svg">
<rect x="136.600000" y="73.000000" width="38.700000" height="24.000000" rx="0" ry="0" style="stroke:none;fill:#cccccc;"/>
<rect x="135.600000" y="72.000000" width="38.700000" height="24.000000" rx="0" ry="0" style="stroke:none;fill:#003366;"/>
</a>
<a xlink:href="sinwave-0x7f8adc291e40.svg">
<text x="154.950000" y="86.000000" font-family="Arial" font-size="7" text-anchor="middle" fill="#FFFFFF">sinwave</text>
</a>
<circle cx="137.600000" cy="74.000000" r="1"/>
<line x1="132.600000" y1="83.000000" x2="135.600000" y2="84.000000"  transform="rotate(0.000000,135.600000,84.000000)" style="stroke: black; stroke-width:0.25;"/>
<line x1="132.600000" y1="85.000000" x2="135.600000" y2="84.000000"  transform="rotate(0.000000,135.600000,84.000000)" style="stroke: black; stroke-width:0.25;"/>
<rect x="199.300000" y="41.000000" width="24.000000" height="24.000000" rx="0" ry="0" style="stroke:none;fill:#cccccc;"/>
<rect x="198.300000" y="40.000000" width="24.000000" height="24.000000" rx="0" ry="0" style="stroke:none;fill:#47945E;"/>
<text x="210.300000" y="54.000000" font-family="Arial" font-size="7" text-anchor="middle" fill="#FFFFFF">in1</text>
<circle cx="200.300000" cy="42.000000" r="1"/>
<rect x="239.300000" y="37.000000" width="24.000000" height="24.000000" rx="0" ry="0" style="stroke:none;fill:#cccccc;"/>
<rect x="238.300000" y="36.000000" width="24.000000" height="24.000000" rx="0" ry="0" style="stroke:none;fill:#4B71A1;"/>
<text x="250.300000" y="50.000000" font-family="Arial" font-size="7" text-anchor="middle" fill="#FFFFFF">*</text>
<circle cx="240.300000" cy="38.000000" r="1"/>
<line x1="235.300000" y1="43.000000" x2="238.300000" y2="44.000000"  transform="rotate(0.000000,238.300000,44.000000)" style="stroke: black; stroke-width:0.25;"/>
<line x1="235.300000" y1="45.000000" x2="238.300000" y2="44.000000"  transform="rotate(0.000000,238.300000,44.000000)" style="stroke: black; stroke-width:0.25;"/>
<line x1="235.300000" y1="51.000000" x2="238.300000" y2="52.000000"  transform="rotate(0.000000,238.300000,52.000000)" style="stroke: black; stroke-width:0.25;"/>
<line x1="235.300000" y1="53.000000" x2="238.300000" y2="52.000000"  transform="rotate(0.000000,238.300000,52.000000)" style="stroke: black; stroke-width:0.25;"/>
<rect x="199.300000" y="81.000000" width="24.000000" height="24.000000" rx="0" ry="0" style="stroke:none;fill:#cccccc;"/>
<rect x="198.300000" y="80.000000" width="24.000000" height="24.000000" rx="0" ry="0" style="stroke:none;fill:#47945E;"/>
<text x="210.300000" y="94.000000" font-family="Arial" font-size="7" text-anchor="middle" fill="#FFFFFF">in2</text>
<circle cx="200.300000" cy="82.000000" r="1"/>
<rect x="239.300000" y="77.000000" width="24.000000" height="24.000000" rx="0" ry="0" style="stroke:none;fill:#cccccc;"/>
<rect x="238.300000" y="76.000000" width="24.000000" height="24.000000" rx="0" ry="0" style="stroke:none;fill:#4B71A1;"/>
<text x="250.300000" y="90.000000" font-family="Arial" font-size="7" text-anchor="middle" fill="#FFFFFF">*</text>
<circle cx="240.300000" cy="78.000000" r="1"/>
<line x1="235.300000" y1="83.000000" x2="238.300000" y2="84.000000"  transform="rotate(0.000000,238.300000,84.000000)" style="stroke: black; stroke-width:0.25;"/>
<line x1="235.300000" y1="85.000000" x2="238.300000" y2="84.000000"  transform="rotate(0.000000,238.300000,84.000000)" style="stroke: black; stroke-width:0.25;"/>
<line x1="235.300000" y1="91.000000" x2="238.300000" y2="92.000000"  transform="rotate(0.000000,238.300000,92.000000)" style="stroke: black; stroke-width:0.25;"/>
<line x1="235.300000" y1="93.000000" x2="238.300000" y2="92.000000"  transform="rotate(0.000000,238.300000,92.000000)" style="stroke: black; stroke-width:0.25;"/>
<rect x="279.300000" y="57.000000" width="24.000000" height="24.000000" rx="0" ry="0" style="stroke:none;fill:#cccccc;"/>
<rect x="278.300000" y="56.000000" width="24.000000" height="24.000000" rx="0" ry="0" style="stroke:none;fill:#4B71A1;"/>
<text x="290.300000" y="70.000000" font-family="Arial" font-size="7" text-anchor="middle" fill="#FFFFFF">+</text>
<circle cx="280.300000" cy="58.000000" r="1"/>
<line x1="275.300000" y1="63.000000" x2="278.300000" y2="64.000000"  transform="rotate(0.000000,278.300000,64.000000)" style="stroke: black; stroke-width:0.25;"/>
<line x1="275.300000" y1="65.000000" x2="278.300000" y2="64.000000"  transform="rotate(0.000000,278.300000,64.000000)" style="stroke: black; stroke-width:0.25;"/>
<line x1="275.300000" y1="71.000000" x2="278.300000" y2="72.000000"  transform="rotate(0.000000,278.300000,72.000000)" style="stroke: black; stroke-width:0.25;"/>
<line x1="275.300000" y1="73.000000" x2="278.300000" y2="72.000000"  transform="rotate(0.000000,278.300000,72.000000)" style="stroke: black; stroke-width:0.25;"/>
<line x1="15.000000" y1="15.000000" x2="15.000000" y2="121.000000"  style="stroke: black; stroke-linecap:round; stroke-width:0.25; stroke-dasharray:3,3;"/>
<line x1="15.000000" y1="121.000000" x2="319.300000" y2="121.000000"  style="stroke: black; stroke-linecap:round; stroke-width:0.25; stroke-dasharray:3,3;"/>
<line x1="319.300000" y1="121.000000" x2="319.300000" y2="15.000000"  style="stroke: black; stroke-linecap:round; stroke-width:0.25; stroke-dasharray:3,3;"/>
<line x1="15.000000" y1="15.000000" x2="20.000000" y2="15.000000"  style="stroke: black; stroke-linecap:round; stroke-width:0.25; stroke-dasharray:3,3;"/>
<line x1="55.475000" y1="15.000000" x2="319.300000" y2="15.000000"  style="stroke: black; stroke-linecap:round; stroke-width:0.25; stroke-dasharray:3,3;"/>
<text x="20.000000" y="17.000000" font-family="Arial" font-size="7">modulator</text>
<line x1="321.300000" y1="67.000000" x2="324.300000" y2="68.000000"  transform="rotate(0.000000,324.300000,68.000000)" style="stroke: black; stroke-width:0.25;"/>
<line x1="321.300000" y1="69.000000" x2="324.300000" y2="68.000000"  transform="rotate(0.000000,324.300000,68.000000)" style="stroke: black; stroke-width:0.25;"/>
<line x1="10.000000" y1="60.000000" x2="20.000000" y2="60.000000"  style="stroke:black; stroke-linecap:round; stroke-width:0.25;"/>
<line x1="10.000000" y1="68.000000" x2="20.000000" y2="68.000000"  style="stroke:black; stroke-linecap:round; stroke-width:0.25;"/>
<line x1="10.000000" y1="76.000000" x2="20.000000" y2="76.000000"  style="stroke:black; stroke-linecap:round; stroke-width:0.25;"/>
<line x1="20.000000" y1="60.000000" x2="24.000000" y2="60.000000"  style="stroke:black; stroke-linecap:round; stroke-width:0.25;"/>
<line x1="20.000000" y1="68.000000" x2="24.000000" y2="68.000000"  style="stroke:black; stroke-linecap:round; stroke-width:0.25;"/>
<line x1="20.000000" y1="76.000000" x2="24.000000" y2="76.000000"  style="stroke:black; stroke-linecap:round; stroke-width:0.25;"/>
<line x1="24.000000" y1="60.000000" x2="28.000000" y2="60.000000"  style="stroke:black; stroke-linecap:round; stroke-width:0.25;"/>
<line x1="24.000000" y1="68.000000" x2="28.000000" y2="68.000000"  style="stroke:black; stroke-linecap:round; stroke-width:0.25;"/>
<line x1="24.000000" y1="76.000000" x2="28.000000" y2="76.000000"  style="stroke:black; stroke-linecap:round; stroke-width:0.25;"/>
<line x1="28.000000" y1="36.000000" x2="36.000000" y2="36.000000"  style="stroke:black; stroke-linecap:round; stroke-width:0.25;"/>
<line x1="28.000000" y1="60.000000" x2="28.000000" y2="36.000000"  style="stroke:black; stroke-linecap:round; stroke-width:0.25;"/>
<line x1="28.000000" y1="60.000000" x2="28.000000" y2="60.000000"  style="stroke:black; stroke-linecap:round; stroke-width:0.25;"/>
<line x1="28.000000" y1="68.000000" x2="36.000000" y2="68.000000"  style="stroke:black; stroke-linecap:round; stroke-width:0.25;"/>
<line x1="28.000000" y1="76.000000" x2="36.000000" y2="76.000000"  style="stroke:black; stroke-linecap:round; stroke-width:0.25;"/>
<line x1="36.000000" y1="36.000000" x2="40.000000" y2="36.000000"  style="stroke:black; stroke-linecap:round; stroke-width:0.25;"/>
<line x1="36.000000" y1="68.000000" x2="36.900000" y2="68.000000"  style="stroke:black; stroke-linecap:round; stroke-width:0.25;"/>
<line x1="36.000000" y1="76.000000" x2="36.000000" y2="100.000000"  style="stroke:black; stroke-linecap:round; stroke-width:0.25;"/>
<line x1="36.000000" y1="100.000000" x2="36.000000" y2="100.000000"  style="stroke:black; stroke-linecap:round; stroke-width:0.25;"/>
<line x1="36.000000" y1="100.000000" x2="36.900000" y2="100.000000"  style="stroke:black; stroke-linecap:round; stroke-width:0.25;"/>
<line x1="36.900000" y1="68.000000" x2="40.900000" y2="68.000000"  style="stroke:black; stroke-linecap:round; stroke-width:0.25;"/>
<line x1="36.900000" y1="100.000000" x2="40.900000" y2="100.000000"  style="stroke:black; stroke-linecap:round; stroke-width:0.25;"/>
<line x1="99.600000" y1="68.000000" x2="103.600000" y2="68.000000"  style="stroke:black; stroke-linecap:round; stroke-width:0.25;"/>
<line x1="103.600000" y1="68.000000" x2="131.600000" y2="52.000000"  style="stroke:black; stroke-linecap:round; stroke-width:0.25;"/>
<line x1="103.600000" y1="68.000000" x2="131.600000" y2="84.000000"  style="stroke:black; stroke-linecap:round; stroke-width:0.25;"/>
<line x1="131.600000" y1="52.000000" x2="135.600000" y2="52.000000"  style="stroke:black; stroke-linecap:round; stroke-width:0.25;"/>
<line x1="131.600000" y1="84.000000" x2="135.600000" y2="84.000000"  style="stroke:black; stroke-linecap:round; stroke-width:0.25;"/>
<line x1="174.300000" y1="52.000000" x2="178.300000" y2="52.000000"  style="stroke:black; stroke-linecap:round; stroke-width:0.25;"/>
<line x1="174.300000" y1="84.000000" x2="178.300000" y2="84.000000"  style="stroke:black; stroke-linecap:round; stroke-width:0.25;"/>
<line x1="178.300000" y1="32.000000" x2="194.300000" y2="32.000000"  style="stroke:black; stroke-linecap:round; stroke-width:0.25;"/>
<line x1="178.300000" y1="52.000000" x2="178.300000" y2="32.000000"  style="stroke:black; stroke-linecap:round; stroke-width:0.25;"/>
<line x1="178.300000" y1="52.000000" x2="178.300000" y2="52.000000"  style="stroke:black; stroke-linecap:round; stroke-width:0.25;"/>
<line x1="178.300000" y1="84.000000" x2="186.300000" y2="84.000000"  style="stroke:black; stroke-linecap:round; stroke-width:0.25;"/>
<line x1="186.300000" y1="72.000000" x2="194.300000" y2="72.000000"  style="stroke:black; stroke-linecap:round; stroke-width:0.25;"/>
<line x1="186.300000" y1="84.000000" x2="186.300000" y2="72.000000"  style="stroke:black; stroke-linecap:round; stroke-width:0.25;"/>
<line x1="194.300000" y1="32.000000" x2="210.300000" y2="32.000000"  style="stroke:black; stroke-linecap:round; stroke-width:0.25;"/>
<line x1="194.300000" y1="72.000000" x2="210.300000" y2="72.000000"  style="stroke:black; stroke-linecap:round; stroke-width:0.25;"/>
<line x1="210.300000" y1="32.000000" x2="226.300000" y2="32.000000"  style="stroke:black; stroke-linecap:round; stroke-width:0.25;"/>
<line x1="210.300000" y1="72.000000" x2="226.300000" y2="72.000000"  style="stroke:black; stroke-linecap:round; stroke-width:0.25;"/>
<line x1="222.300000" y1="52.000000" x2="226.300000" y2="52.000000"  style="stroke:black; stroke-linecap:round; stroke-width:0.25;"/>
<line x1="222.300000" y1="92.000000" x2="226.300000" y2="92.000000"  style="stroke:black; stroke-linecap:round; stroke-width:0.25;"/>
<line x1="226.300000" y1="32.000000" x2="234.300000" y2="32.000000"  style="stroke:black; stroke-linecap:round; stroke-width:0.25;"/>
<line x1="226.300000" y1="52.000000" x2="234.300000" y2="52.000000"  style="stroke:black; stroke-linecap:round; stroke-width:0.25;"/>
<line x1="226.300000" y1="72.000000" x2="234.300000" y2="72.000000"  style="stroke:black; stroke-linecap:round; stroke-width:0.25;"/>
<line x1="226.300000" y1="92.000000" x2="234.300000" y2="92.000000"  style="stroke:black; stroke-linecap:round; stroke-width:0.25;"/>
<line x1="234.300000" y1="32.000000" x2="234.300000" y2="44.000000"  style="stroke:black; stroke-linecap:round; stroke-width:0.25;"/>
<line x1="234.300000" y1="44.000000" x2="234.300000" y2="44.000000"  style="stroke:black; stroke-linecap:round; stroke-width:0.25;"/>
<line x1="234.300000" y1="44.000000" x2="238.300000" y2="44.000000"  style="stroke:black; stroke-linecap:round; stroke-width:0.25;"/>
<line x1="234.300000" y1="52.000000" x2="238.300000" y2="52.000000"  style="stroke:black; stroke-linecap:round; stroke-width:0.25;"/>
<line x1="234.300000" y1="72.000000" x2="234.300000" y2="84.000000"  style="stroke:black; stroke-linecap:round; stroke-width:0.25;"/>
<line x1="234.300000" y1="84.000000" x2="234.300000" y2="84.000000"  style="stroke:black; stroke-linecap:round; stroke-width:0.25;"/>
<line x1="234.300000" y1="84.000000" x2="238.300000" y2="84.000000"  style="stroke:black; stroke-linecap:round; stroke-width:0.25;"/>
<line x1="234.300000" y1="92.000000" x2="238.300000" y2="92.000000"  style="stroke:black; stroke-linecap:round; stroke-width:0.25;"/>
<line x1="262.300000" y1="48.000000" x2="266.300000" y2="48.000000"  style="stroke:black; stroke-linecap:round; stroke-width:0.25;"/>
<line x1="262.300000" y1="88.000000" x2="266.300000" y2="88.000000"  style="stroke:black; stroke-linecap:round; stroke-width:0.25;"/>
<line x1="266.300000" y1="48.000000" x2="274.300000" y2="48.000000"  style="stroke:black; stroke-linecap:round; stroke-width:0.25;"/>
<line x1="266.300000" y1="72.000000" x2="274.300000" y2="72.000000"  style="stroke:black; stroke-linecap:round; stroke-width:0.25;"/>
<line x1="266.300000" y1="88.000000" x2="266.300000" y2="72.000000"  style="stroke:black; stroke-linecap:round; stroke-width:0.25;"/>
<line x1="266.300000" y1="88.000000" x2="266.300000" y2="88.000000"  style="stroke:black; stroke-linecap:round; stroke-width:0.25;"/>
<line x1="274.300000" y1="48.000000" x2="274.300000" y2="64.000000"  style="stroke:black; stroke-linecap:round; stroke-width:0.25;"/>
<line x1="274.300000" y1="64.000000" x2="274.300000" y2="64.000000"  style="stroke:black; stroke-linecap:round; stroke-width:0.25;"/>
<line x1="274.300000" y1="64.000000" x2="278.300000" y2="64.000000"  style="stroke:black; stroke-linecap:round; stroke-width:0.25;"/>
<line x1="274.300000" y1="72.000000" x2="278.300000" y2="72.000000"  style="stroke:black; stroke-linecap:round; stroke-width:0.25;"/>
<line x1="302.300000" y1="68.000000" x2="306.300000" y2="68.000000"  style="stroke:black; stroke-linecap:round; stroke-width:0.25;"/>
<line x1="306.300000" y1="68.000000" x2="306.300000" y2="68.000000"  style="stroke:black; stroke-linecap:round; stroke-width:0.25;"/>
<line x1="306.300000" y1="68.000000" x2="310.300000" y2="68.000000"  style="stroke:black; stroke-linecap:round; stroke-width:0.25;"/>
<line x1="310.300000" y1="68.000000" x2="314.300000" y2="68.000000"  style="stroke:black; stroke-linecap:round; stroke-width:0.25;"/>
<line x1="314.300000" y1="68.000000" x2="324.300000" y2="68.000000"  style="stroke:black; stroke-linecap:round; stroke-width:0.25;"/>
</svg>
