<?xml version="1.0"?>
<svg xmlns="http://www.w3.org/2000/svg" xmlns:xlink="http://www.w3.org/1999/xlink" viewBox="0 0 553.600000 124.000000" width="276.800000mm" height="62.000000mm" version="1.1">
<a xlink:href="osccos-0x7f8adc16e560.svg">
<rect x="1.000000" y="1.000000" width="552.600000" height="123.000000" rx="0" ry="0" style="stroke:none;fill:#cccccc;"/>
<rect x="0.000000" y="0.000000" width="552.600000" height="123.000000" rx="0" ry="0" style="stroke:none;fill:#ffffff;"/>
</a>
<text x="10.000000" y="7.000000" font-family="Arial" font-size="7"></text>
<rect x="35.000000" y="35.000000" width="219.300000" height="24.000000" rx="0" ry="0" style="stroke:none;fill:#cccccc;"/>
<rect x="34.000000" y="34.000000" width="219.300000" height="24.000000" rx="0" ry="0" style="stroke:none;fill:#477881;"/>
<text x="143.650000" y="48.000000" font-family="Arial" font-size="7" text-anchor="middle" fill="#FFFFFF">hslider(pilot_freq, 15000.0f, 0.0f, 20000.0f, 1.0f)</text>
<circle cx="36.000000" cy="36.000000" r="1"/>
<line x1="25.000000" y1="25.000000" x2="25.000000" y2="67.000000"  style="stroke: black; stroke-linecap:round; stroke-width:0.25; stroke-dasharray:3,3;"/>
<line x1="25.000000" y1="67.000000" x2="262.300000" y2="67.000000"  style="stroke: black; stroke-linecap:round; stroke-width:0.25; stroke-dasharray:3,3;"/>
<line x1="262.300000" y1="67.000000" x2="262.300000" y2="25.000000"  style="stroke: black; stroke-linecap:round; stroke-width:0.25; stroke-dasharray:3,3;"/>
<line x1="25.000000" y1="25.000000" x2="30.000000" y2="25.000000"  style="stroke: black; stroke-linecap:round; stroke-width:0.25; stroke-dasharray:3,3;"/>
<line x1="59.025000" y1="25.000000" x2="262.300000" y2="25.000000"  style="stroke: black; stroke-linecap:round; stroke-width:0.25; stroke-dasharray:3,3;"/>
<text x="30.000000" y="27.000000" font-family="Arial" font-size="7">pilot_f</text>
<a xlink:href="SR-0x7f8ada630a30.svg">
<rect x="115.750000" y="77.000000" width="24.000000" height="24.000000" rx="0" ry="0" style="stroke:none;fill:#cccccc;"/>
<rect x="114.750000" y="76.000000" width="24.000000" height="24.000000" rx="0" ry="0" style="stroke:none;fill:#003366;"/>
</a>
<a xlink:href="SR-0x7f8ada630a30.svg">
<text x="126.750000" y="90.000000" font-family="Arial" font-size="7" text-anchor="middle" fill="#FFFFFF">SR</text>
</a>
<circle cx="116.750000" cy="78.000000" r="1"/>
<rect x="147.750000" y="77.000000" width="25.800000" height="24.000000" rx="0" ry="0" style="stroke:none;fill:#cccccc;"/>
<rect x="146.750000" y="76.000000" width="25.800000" height="24.000000" rx="0" ry="0" style="stroke:none;fill:#4B71A1;"/>
<text x="159.650000" y="90.000000" font-family="Arial" font-size="7" text-anchor="middle" fill="#FFFFFF">float</text>
<circle cx="148.750000" cy="78.000000" r="1"/>
<line x1="143.750000" y1="87.000000" x2="146.750000" y2="88.000000"  transform="rotate(0.000000,146.750000,88.000000)" style="stroke: black; stroke-width:0.25;"/>
<line x1="143.750000" y1="89.000000" x2="146.750000" y2="88.000000"  transform="rotate(0.000000,146.750000,88.000000)" style="stroke: black; stroke-width:0.25;"/>
<rect x="280.300000" y="51.000000" width="24.000000" height="24.000000" rx="0" ry="0" style="stroke:none;fill:#cccccc;"/>
<rect x="279.300000" y="50.000000" width="24.000000" height="24.000000" rx="0" ry="0" style="stroke:none;fill:#4B71A1;"/>
<text x="291.300000" y="64.000000" font-family="Arial" font-size="7" text-anchor="middle" fill="#FFFFFF">/</text>
<circle cx="281.300000" cy="52.000000" r="1"/>
<line x1="276.300000" y1="57.000000" x2="279.300000" y2="58.000000"  transform="rotate(0.000000,279.300000,58.000000)" style="stroke: black; stroke-width:0.25;"/>
<line x1="276.300000" y1="59.000000" x2="279.300000" y2="58.000000"  transform="rotate(0.000000,279.300000,58.000000)" style="stroke: black; stroke-width:0.25;"/>
<line x1="276.300000" y1="65.000000" x2="279.300000" y2="66.000000"  transform="rotate(0.000000,279.300000,66.000000)" style="stroke: black; stroke-width:0.25;"/>
<line x1="276.300000" y1="67.000000" x2="279.300000" y2="66.000000"  transform="rotate(0.000000,279.300000,66.000000)" style="stroke: black; stroke-width:0.25;"/>
<rect x="328.300000" y="55.000000" width="24.000000" height="24.000000" rx="0" ry="0" style="stroke:none;fill:#cccccc;"/>
<rect x="327.300000" y="54.000000" width="24.000000" height="24.000000" rx="0" ry="0" style="stroke:none;fill:#4B71A1;"/>
<text x="339.300000" y="68.000000" font-family="Arial" font-size="7" text-anchor="middle" fill="#FFFFFF">+</text>
<circle cx="329.300000" cy="56.000000" r="1"/>
<line x1="324.300000" y1="61.000000" x2="327.300000" y2="62.000000"  transform="rotate(0.000000,327.300000,62.000000)" style="stroke: black; stroke-width:0.25;"/>
<line x1="324.300000" y1="63.000000" x2="327.300000" y2="62.000000"  transform="rotate(0.000000,327.300000,62.000000)" style="stroke: black; stroke-width:0.25;"/>
<line x1="324.300000" y1="69.000000" x2="327.300000" y2="70.000000"  transform="rotate(0.000000,327.300000,70.000000)" style="stroke: black; stroke-width:0.25;"/>
<line x1="324.300000" y1="71.000000" x2="327.300000" y2="70.000000"  transform="rotate(0.000000,327.300000,70.000000)" style="stroke: black; stroke-width:0.25;"/>
<a xlink:href="decimal-0x7f8ada647430.svg">
<rect x="360.300000" y="55.000000" width="38.700000" height="24.000000" rx="0" ry="0" style="stroke:none;fill:#cccccc;"/>
<rect x="359.300000" y="54.000000" width="38.700000" height="24.000000" rx="0" ry="0" style="stroke:none;fill:#003366;"/>
</a>
<a xlink:href="decimal-0x7f8ada647430.svg">
<text x="378.650000" y="68.000000" font-family="Arial" font-size="7" text-anchor="middle" fill="#FFFFFF">decimal</text>
</a>
<circle cx="361.300000" cy="56.000000" r="1"/>
<line x1="356.300000" y1="65.000000" x2="359.300000" y2="66.000000"  transform="rotate(0.000000,359.300000,66.000000)" style="stroke: black; stroke-width:0.25;"/>
<line x1="356.300000" y1="67.000000" x2="359.300000" y2="66.000000"  transform="rotate(0.000000,359.300000,66.000000)" style="stroke: black; stroke-width:0.25;"/>
<line x1="400.000000" y1="66.000000" x2="400.000000" y2="62.000000"  style="stroke:black; stroke-linecap:round; stroke-width:0.25;"/>
<line x1="400.000000" y1="62.000000" x2="404.000000" y2="62.000000"  style="stroke:black; stroke-linecap:round; stroke-width:0.25;"/>
<line x1="404.000000" y1="62.000000" x2="404.000000" y2="66.000000"  style="stroke:black; stroke-linecap:round; stroke-width:0.25;"/>
<rect x="423.000000" y="55.000000" width="25.800000" height="24.000000" rx="0" ry="0" style="stroke:none;fill:#cccccc;"/>
<rect x="422.000000" y="54.000000" width="25.800000" height="24.000000" rx="0" ry="0" style="stroke:none;fill:#f44800;"/>
<text x="434.900000" y="68.000000" font-family="Arial" font-size="7" text-anchor="middle" fill="#FFFFFF">65536</text>
<circle cx="424.000000" cy="56.000000" r="1"/>
<rect x="456.800000" y="55.000000" width="25.800000" height="24.000000" rx="0" ry="0" style="stroke:none;fill:#cccccc;"/>
<rect x="455.800000" y="54.000000" width="25.800000" height="24.000000" rx="0" ry="0" style="stroke:none;fill:#4B71A1;"/>
<text x="468.700000" y="68.000000" font-family="Arial" font-size="7" text-anchor="middle" fill="#FFFFFF">float</text>
<circle cx="457.800000" cy="56.000000" r="1"/>
<line x1="452.800000" y1="65.000000" x2="455.800000" y2="66.000000"  transform="rotate(0.000000,455.800000,66.000000)" style="stroke: black; stroke-width:0.25;"/>
<line x1="452.800000" y1="67.000000" x2="455.800000" y2="66.000000"  transform="rotate(0.000000,455.800000,66.000000)" style="stroke: black; stroke-width:0.25;"/>
<rect x="498.600000" y="51.000000" width="24.000000" height="24.000000" rx="0" ry="0" style="stroke:none;fill:#cccccc;"/>
<rect x="497.600000" y="50.000000" width="24.000000" height="24.000000" rx="0" ry="0" style="stroke:none;fill:#4B71A1;"/>
<text x="509.600000" y="64.000000" font-family="Arial" font-size="7" text-anchor="middle" fill="#FFFFFF">*</text>
<circle cx="499.600000" cy="52.000000" r="1"/>
<line x1="494.600000" y1="57.000000" x2="497.600000" y2="58.000000"  transform="rotate(0.000000,497.600000,58.000000)" style="stroke: black; stroke-width:0.25;"/>
<line x1="494.600000" y1="59.000000" x2="497.600000" y2="58.000000"  transform="rotate(0.000000,497.600000,58.000000)" style="stroke: black; stroke-width:0.25;"/>
<line x1="494.600000" y1="65.000000" x2="497.600000" y2="66.000000"  transform="rotate(0.000000,497.600000,66.000000)" style="stroke: black; stroke-width:0.25;"/>
<line x1="494.600000" y1="67.000000" x2="497.600000" y2="66.000000"  transform="rotate(0.000000,497.600000,66.000000)" style="stroke: black; stroke-width:0.25;"/>
<line x1="15.000000" y1="15.000000" x2="15.000000" y2="109.000000"  style="stroke: black; stroke-linecap:round; stroke-width:0.25; stroke-dasharray:3,3;"/>
<line x1="15.000000" y1="109.000000" x2="538.600000" y2="109.000000"  style="stroke: black; stroke-linecap:round; stroke-width:0.25; stroke-dasharray:3,3;"/>
<line x1="538.600000" y1="109.000000" x2="538.600000" y2="15.000000"  style="stroke: black; stroke-linecap:round; stroke-width:0.25; stroke-dasharray:3,3;"/>
<line x1="15.000000" y1="15.000000" x2="20.000000" y2="15.000000"  style="stroke: black; stroke-linecap:round; stroke-width:0.25; stroke-dasharray:3,3;"/>
<line x1="119.975000" y1="15.000000" x2="538.600000" y2="15.000000"  style="stroke: black; stroke-linecap:round; stroke-width:0.25; stroke-dasharray:3,3;"/>
<text x="20.000000" y="17.000000" font-family="Arial" font-size="7">phasor(65536)...00.0f, 1.0f))</text>
<line x1="540.600000" y1="61.000000" x2="543.600000" y2="62.000000"  transform="rotate(0.000000,543.600000,62.000000)" style="stroke: black; stroke-width:0.25;"/>
<line x1="540.600000" y1="63.000000" x2="543.600000" y2="62.000000"  transform="rotate(0.000000,543.600000,62.000000)" style="stroke: black; stroke-width:0.25;"/>
<line x1="138.750000" y1="88.000000" x2="142.750000" y2="88.000000"  style="stroke:black; stroke-linecap:round; stroke-width:0.25;"/>
<line x1="142.750000" y1="88.000000" x2="142.750000" y2="88.000000"  style="stroke:black; stroke-linecap:round; stroke-width:0.25;"/>
<line x1="142.750000" y1="88.000000" x2="146.750000" y2="88.000000"  style="stroke:black; stroke-linecap:round; stroke-width:0.25;"/>
<line x1="172.550000" y1="88.000000" x2="176.550000" y2="88.000000"  style="stroke:black; stroke-linecap:round; stroke-width:0.25;"/>
<line x1="176.550000" y1="88.000000" x2="267.300000" y2="88.000000"  style="stroke:black; stroke-linecap:round; stroke-width:0.25;"/>
<line x1="253.300000" y1="46.000000" x2="257.300000" y2="46.000000"  style="stroke:black; stroke-linecap:round; stroke-width:0.25;"/>
<line x1="257.300000" y1="46.000000" x2="267.300000" y2="46.000000"  style="stroke:black; stroke-linecap:round; stroke-width:0.25;"/>
<line x1="267.300000" y1="46.000000" x2="275.300000" y2="46.000000"  style="stroke:black; stroke-linecap:round; stroke-width:0.25;"/>
<line x1="267.300000" y1="66.000000" x2="275.300000" y2="66.000000"  style="stroke:black; stroke-linecap:round; stroke-width:0.25;"/>
<line x1="267.300000" y1="88.000000" x2="267.300000" y2="66.000000"  style="stroke:black; stroke-linecap:round; stroke-width:0.25;"/>
<line x1="267.300000" y1="88.000000" x2="267.300000" y2="88.000000"  style="stroke:black; stroke-linecap:round; stroke-width:0.25;"/>
<line x1="275.300000" y1="46.000000" x2="275.300000" y2="58.000000"  style="stroke:black; stroke-linecap:round; stroke-width:0.25;"/>
<line x1="275.300000" y1="58.000000" x2="275.300000" y2="58.000000"  style="stroke:black; stroke-linecap:round; stroke-width:0.25;"/>
<line x1="275.300000" y1="58.000000" x2="279.300000" y2="58.000000"  style="stroke:black; stroke-linecap:round; stroke-width:0.25;"/>
<line x1="275.300000" y1="66.000000" x2="279.300000" y2="66.000000"  style="stroke:black; stroke-linecap:round; stroke-width:0.25;"/>
<line x1="303.300000" y1="62.000000" x2="307.300000" y2="62.000000"  style="stroke:black; stroke-linecap:round; stroke-width:0.25;"/>
<line x1="307.300000" y1="62.000000" x2="315.300000" y2="62.000000"  style="stroke:black; stroke-linecap:round; stroke-width:0.25;"/>
<line x1="315.300000" y1="62.000000" x2="315.300000" y2="70.000000"  style="stroke:black; stroke-linecap:round; stroke-width:0.25;"/>
<line x1="315.300000" y1="70.000000" x2="315.300000" y2="70.000000"  style="stroke:black; stroke-linecap:round; stroke-width:0.25;"/>
<line x1="315.300000" y1="70.000000" x2="323.300000" y2="70.000000"  style="stroke:black; stroke-linecap:round; stroke-width:0.25;"/>
<line x1="323.300000" y1="46.000000" x2="323.300000" y2="46.000000"  style="stroke:black; stroke-linecap:round; stroke-width:0.25;"/>
<line x1="323.300000" y1="46.000000" x2="323.300000" y2="62.000000"  style="stroke:black; stroke-linecap:round; stroke-width:0.25;"/>
<line x1="323.300000" y1="62.000000" x2="323.300000" y2="62.000000"  style="stroke:black; stroke-linecap:round; stroke-width:0.25;"/>
<line x1="323.300000" y1="62.000000" x2="327.300000" y2="62.000000"  style="stroke:black; stroke-linecap:round; stroke-width:0.25;"/>
<line x1="323.300000" y1="70.000000" x2="327.300000" y2="70.000000"  style="stroke:black; stroke-linecap:round; stroke-width:0.25;"/>
<line x1="351.300000" y1="66.000000" x2="355.300000" y2="66.000000"  style="stroke:black; stroke-linecap:round; stroke-width:0.25;"/>
<line x1="355.300000" y1="66.000000" x2="355.300000" y2="66.000000"  style="stroke:black; stroke-linecap:round; stroke-width:0.25;"/>
<line x1="355.300000" y1="66.000000" x2="359.300000" y2="66.000000"  style="stroke:black; stroke-linecap:round; stroke-width:0.25;"/>
<line x1="362.650000" y1="46.000000" x2="323.300000" y2="46.000000"  style="stroke:black; stroke-linecap:round; stroke-width:0.25;"/>
<line x1="398.000000" y1="66.000000" x2="402.000000" y2="66.000000"  style="stroke:black; stroke-linecap:round; stroke-width:0.25;"/>
<line x1="402.000000" y1="46.000000" x2="402.000000" y2="46.000000"  style="stroke:black; stroke-linecap:round; stroke-width:0.25;"/>
<line x1="402.000000" y1="62.000000" x2="402.000000" y2="46.000000"  style="stroke:black; stroke-linecap:round; stroke-width:0.25;"/>
<line x1="402.000000" y1="66.000000" x2="404.000000" y2="66.000000"  style="stroke:black; stroke-linecap:round; stroke-width:0.25;"/>
<line x1="402.000000" y1="46.000000" x2="362.650000" y2="46.000000"  style="stroke:black; stroke-linecap:round; stroke-width:0.25;"/>
<line x1="404.000000" y1="66.000000" x2="410.000000" y2="66.000000"  style="stroke:black; stroke-linecap:round; stroke-width:0.25;"/>
<line x1="410.000000" y1="46.000000" x2="418.000000" y2="46.000000"  style="stroke:black; stroke-linecap:round; stroke-width:0.25;"/>
<line x1="410.000000" y1="66.000000" x2="410.000000" y2="46.000000"  style="stroke:black; stroke-linecap:round; stroke-width:0.25;"/>
<line x1="410.000000" y1="66.000000" x2="410.000000" y2="66.000000"  style="stroke:black; stroke-linecap:round; stroke-width:0.25;"/>
<line x1="418.000000" y1="46.000000" x2="451.800000" y2="46.000000"  style="stroke:black; stroke-linecap:round; stroke-width:0.25;"/>
<line x1="447.800000" y1="66.000000" x2="451.800000" y2="66.000000"  style="stroke:black; stroke-linecap:round; stroke-width:0.25;"/>
<line x1="451.800000" y1="46.000000" x2="485.600000" y2="46.000000"  style="stroke:black; stroke-linecap:round; stroke-width:0.25;"/>
<line x1="451.800000" y1="66.000000" x2="451.800000" y2="66.000000"  style="stroke:black; stroke-linecap:round; stroke-width:0.25;"/>
<line x1="451.800000" y1="66.000000" x2="455.800000" y2="66.000000"  style="stroke:black; stroke-linecap:round; stroke-width:0.25;"/>
<line x1="481.600000" y1="66.000000" x2="485.600000" y2="66.000000"  style="stroke:black; stroke-linecap:round; stroke-width:0.25;"/>
<line x1="485.600000" y1="46.000000" x2="493.600000" y2="46.000000"  style="stroke:black; stroke-linecap:round; stroke-width:0.25;"/>
<line x1="485.600000" y1="66.000000" x2="493.600000" y2="66.000000"  style="stroke:black; stroke-linecap:round; stroke-width:0.25;"/>
<line x1="493.600000" y1="58.000000" x2="497.600000" y2="58.000000"  style="stroke:black; stroke-linecap:round; stroke-width:0.25;"/>
<line x1="493.600000" y1="66.000000" x2="497.600000" y2="66.000000"  style="stroke:black; stroke-linecap:round; stroke-width:0.25;"/>
<line x1="493.600000" y1="46.000000" x2="493.600000" y2="58.000000"  style="stroke:black; stroke-linecap:round; stroke-width:0.25;"/>
<line x1="493.600000" y1="58.000000" x2="493.600000" y2="58.000000"  style="stroke:black; stroke-linecap:round; stroke-width:0.25;"/>
<line x1="521.600000" y1="62.000000" x2="525.600000" y2="62.000000"  style="stroke:black; stroke-linecap:round; stroke-width:0.25;"/>
<line x1="525.600000" y1="62.000000" x2="525.600000" y2="62.000000"  style="stroke:black; stroke-linecap:round; stroke-width:0.25;"/>
<line x1="525.600000" y1="62.000000" x2="529.600000" y2="62.000000"  style="stroke:black; stroke-linecap:round; stroke-width:0.25;"/>
<line x1="529.600000" y1="62.000000" x2="533.600000" y2="62.000000"  style="stroke:black; stroke-linecap:round; stroke-width:0.25;"/>
<line x1="533.600000" y1="62.000000" x2="543.600000" y2="62.000000"  style="stroke:black; stroke-linecap:round; stroke-width:0.25;"/>
</svg>
