<?xml version="1.0"?>
<svg xmlns="http://www.w3.org/2000/svg" xmlns:xlink="http://www.w3.org/1999/xlink" viewBox="0 0 683.000000 100.000000" width="341.500000mm" height="50.000000mm" version="1.1">
<a xlink:href="qam-0x7f8add434440.svg">
<rect x="1.000000" y="1.000000" width="682.000000" height="99.000000" rx="0" ry="0" style="stroke:none;fill:#cccccc;"/>
<rect x="0.000000" y="0.000000" width="682.000000" height="99.000000" rx="0" ry="0" style="stroke:none;fill:#ffffff;"/>
</a>
<text x="10.000000" y="7.000000" font-family="Arial" font-size="7"></text>
<a xlink:href="pilot-0x7f8ada6f6200.svg">
<rect x="25.000000" y="39.000000" width="129.000000" height="24.000000" rx="0" ry="0" style="stroke:none;fill:#cccccc;"/>
<rect x="24.000000" y="38.000000" width="129.000000" height="24.000000" rx="0" ry="0" style="stroke:none;fill:#003366;"/>
</a>
<a xlink:href="pilot-0x7f8ada6f6200.svg">
<text x="88.500000" y="52.000000" font-family="Arial" font-size="7" text-anchor="middle" fill="#FFFFFF">pilot_ask_bas...(&quot;bitwrite&quot;))</text>
</a>
<circle cx="26.000000" cy="40.000000" r="1"/>
<a xlink:href="rolloff-0x7f8adc172360.svg">
<rect x="162.000000" y="39.000000" width="51.600000" height="24.000000" rx="0" ry="0" style="stroke:none;fill:#cccccc;"/>
<rect x="161.000000" y="38.000000" width="51.600000" height="24.000000" rx="0" ry="0" style="stroke:none;fill:#003366;"/>
</a>
<a xlink:href="rolloff-0x7f8adc172360.svg">
<text x="186.800000" y="52.000000" font-family="Arial" font-size="7" text-anchor="middle" fill="#FFFFFF">rolloff_mono</text>
</a>
<circle cx="163.000000" cy="40.000000" r="1"/>
<line x1="158.000000" y1="49.000000" x2="161.000000" y2="50.000000"  transform="rotate(0.000000,161.000000,50.000000)" style="stroke: black; stroke-width:0.25;"/>
<line x1="158.000000" y1="51.000000" x2="161.000000" y2="50.000000"  transform="rotate(0.000000,161.000000,50.000000)" style="stroke: black; stroke-width:0.25;"/>
<rect x="239.600000" y="43.000000" width="24.000000" height="24.000000" rx="0" ry="0" style="stroke:none;fill:#cccccc;"/>
<rect x="238.600000" y="42.000000" width="24.000000" height="24.000000" rx="0" ry="0" style="stroke:none;fill:#f44800;"/>
<text x="250.600000" y="56.000000" font-family="Arial" font-size="7" text-anchor="middle" fill="#FFFFFF">2</text>
<circle cx="240.600000" cy="44.000000" r="1"/>
<line x1="229.600000" y1="33.000000" x2="229.600000" y2="75.000000"  style="stroke: black; stroke-linecap:round; stroke-width:0.25; stroke-dasharray:3,3;"/>
<line x1="229.600000" y1="75.000000" x2="271.600000" y2="75.000000"  style="stroke: black; stroke-linecap:round; stroke-width:0.25; stroke-dasharray:3,3;"/>
<line x1="271.600000" y1="75.000000" x2="271.600000" y2="33.000000"  style="stroke: black; stroke-linecap:round; stroke-width:0.25; stroke-dasharray:3,3;"/>
<line x1="229.600000" y1="33.000000" x2="234.600000" y2="33.000000"  style="stroke: black; stroke-linecap:round; stroke-width:0.25; stroke-dasharray:3,3;"/>
<line x1="266.850000" y1="33.000000" x2="271.600000" y2="33.000000"  style="stroke: black; stroke-linecap:round; stroke-width:0.25; stroke-dasharray:3,3;"/>
<text x="234.600000" y="35.000000" font-family="Arial" font-size="7">dfe_taps</text>
<rect x="289.600000" y="39.000000" width="24.000000" height="24.000000" rx="0" ry="0" style="stroke:none;fill:#cccccc;"/>
<rect x="288.600000" y="38.000000" width="24.000000" height="24.000000" rx="0" ry="0" style="stroke:none;fill:#4B71A1;"/>
<text x="300.600000" y="52.000000" font-family="Arial" font-size="7" text-anchor="middle" fill="#FFFFFF">*</text>
<circle cx="290.600000" cy="40.000000" r="1"/>
<line x1="285.600000" y1="45.000000" x2="288.600000" y2="46.000000"  transform="rotate(0.000000,288.600000,46.000000)" style="stroke: black; stroke-width:0.25;"/>
<line x1="285.600000" y1="47.000000" x2="288.600000" y2="46.000000"  transform="rotate(0.000000,288.600000,46.000000)" style="stroke: black; stroke-width:0.25;"/>
<line x1="285.600000" y1="53.000000" x2="288.600000" y2="54.000000"  transform="rotate(0.000000,288.600000,54.000000)" style="stroke: black; stroke-width:0.25;"/>
<line x1="285.600000" y1="55.000000" x2="288.600000" y2="54.000000"  transform="rotate(0.000000,288.600000,54.000000)" style="stroke: black; stroke-width:0.25;"/>
<a xlink:href="osccos-0x7f8adc16e560.svg">
<rect x="329.600000" y="43.000000" width="129.000000" height="24.000000" rx="0" ry="0" style="stroke:none;fill:#cccccc;"/>
<rect x="328.600000" y="42.000000" width="129.000000" height="24.000000" rx="0" ry="0" style="stroke:none;fill:#003366;"/>
</a>
<a xlink:href="osccos-0x7f8adc16e560.svg">
<text x="393.100000" y="56.000000" font-family="Arial" font-size="7" text-anchor="middle" fill="#FFFFFF">osccos(hslide...00.0f, 1.0f))</text>
</a>
<circle cx="330.600000" cy="44.000000" r="1"/>
<rect x="474.600000" y="39.000000" width="24.000000" height="24.000000" rx="0" ry="0" style="stroke:none;fill:#cccccc;"/>
<rect x="473.600000" y="38.000000" width="24.000000" height="24.000000" rx="0" ry="0" style="stroke:none;fill:#4B71A1;"/>
<text x="485.600000" y="52.000000" font-family="Arial" font-size="7" text-anchor="middle" fill="#FFFFFF">*</text>
<circle cx="475.600000" cy="40.000000" r="1"/>
<line x1="470.600000" y1="45.000000" x2="473.600000" y2="46.000000"  transform="rotate(0.000000,473.600000,46.000000)" style="stroke: black; stroke-width:0.25;"/>
<line x1="470.600000" y1="47.000000" x2="473.600000" y2="46.000000"  transform="rotate(0.000000,473.600000,46.000000)" style="stroke: black; stroke-width:0.25;"/>
<line x1="470.600000" y1="53.000000" x2="473.600000" y2="54.000000"  transform="rotate(0.000000,473.600000,54.000000)" style="stroke: black; stroke-width:0.25;"/>
<line x1="470.600000" y1="55.000000" x2="473.600000" y2="54.000000"  transform="rotate(0.000000,473.600000,54.000000)" style="stroke: black; stroke-width:0.25;"/>
<rect x="524.600000" y="43.000000" width="77.400000" height="24.000000" rx="0" ry="0" style="stroke:none;fill:#cccccc;"/>
<rect x="523.600000" y="42.000000" width="77.400000" height="24.000000" rx="0" ry="0" style="stroke:none;fill:#477881;"/>
<text x="562.300000" y="56.000000" font-family="Arial" font-size="7" text-anchor="middle" fill="#FFFFFF">checkbox(ispilot)</text>
<circle cx="525.600000" cy="44.000000" r="1"/>
<line x1="514.600000" y1="33.000000" x2="514.600000" y2="75.000000"  style="stroke: black; stroke-linecap:round; stroke-width:0.25; stroke-dasharray:3,3;"/>
<line x1="514.600000" y1="75.000000" x2="610.000000" y2="75.000000"  style="stroke: black; stroke-linecap:round; stroke-width:0.25; stroke-dasharray:3,3;"/>
<line x1="610.000000" y1="75.000000" x2="610.000000" y2="33.000000"  style="stroke: black; stroke-linecap:round; stroke-width:0.25; stroke-dasharray:3,3;"/>
<line x1="514.600000" y1="33.000000" x2="519.600000" y2="33.000000"  style="stroke: black; stroke-linecap:round; stroke-width:0.25; stroke-dasharray:3,3;"/>
<line x1="548.625000" y1="33.000000" x2="610.000000" y2="33.000000"  style="stroke: black; stroke-linecap:round; stroke-width:0.25; stroke-dasharray:3,3;"/>
<text x="519.600000" y="35.000000" font-family="Arial" font-size="7">ispilot</text>
<rect x="628.000000" y="39.000000" width="24.000000" height="24.000000" rx="0" ry="0" style="stroke:none;fill:#cccccc;"/>
<rect x="627.000000" y="38.000000" width="24.000000" height="24.000000" rx="0" ry="0" style="stroke:none;fill:#4B71A1;"/>
<text x="639.000000" y="52.000000" font-family="Arial" font-size="7" text-anchor="middle" fill="#FFFFFF">*</text>
<circle cx="629.000000" cy="40.000000" r="1"/>
<line x1="624.000000" y1="45.000000" x2="627.000000" y2="46.000000"  transform="rotate(0.000000,627.000000,46.000000)" style="stroke: black; stroke-width:0.25;"/>
<line x1="624.000000" y1="47.000000" x2="627.000000" y2="46.000000"  transform="rotate(0.000000,627.000000,46.000000)" style="stroke: black; stroke-width:0.25;"/>
<line x1="624.000000" y1="53.000000" x2="627.000000" y2="54.000000"  transform="rotate(0.000000,627.000000,54.000000)" style="stroke: black; stroke-width:0.25;"/>
<line x1="624.000000" y1="55.000000" x2="627.000000" y2="54.000000"  transform="rotate(0.000000,627.000000,54.000000)" style="stroke: black; stroke-width:0.25;"/>
<line x1="15.000000" y1="15.000000" x2="15.000000" y2="85.000000"  style="stroke: black; stroke-linecap:round; stroke-width:0.25; stroke-dasharray:3,3;"/>
<line x1="15.000000" y1="85.000000" x2="668.000000" y2="85.000000"  style="stroke: black; stroke-linecap:round; stroke-width:0.25; stroke-dasharray:3,3;"/>
<line x1="668.000000" y1="85.000000" x2="668.000000" y2="15.000000"  style="stroke: black; stroke-linecap:round; stroke-width:0.25; stroke-dasharray:3,3;"/>
<line x1="15.000000" y1="15.000000" x2="20.000000" y2="15.000000"  style="stroke: black; stroke-linecap:round; stroke-width:0.25; stroke-dasharray:3,3;"/>
<line x1="119.975000" y1="15.000000" x2="668.000000" y2="15.000000"  style="stroke: black; stroke-linecap:round; stroke-width:0.25; stroke-dasharray:3,3;"/>
<text x="20.000000" y="17.000000" font-family="Arial" font-size="7">pilot_ask(hsl...(&quot;bitwrite&quot;))</text>
<line x1="670.000000" y1="49.000000" x2="673.000000" y2="50.000000"  transform="rotate(0.000000,673.000000,50.000000)" style="stroke: black; stroke-width:0.25;"/>
<line x1="670.000000" y1="51.000000" x2="673.000000" y2="50.000000"  transform="rotate(0.000000,673.000000,50.000000)" style="stroke: black; stroke-width:0.25;"/>
<line x1="153.000000" y1="50.000000" x2="157.000000" y2="50.000000"  style="stroke:black; stroke-linecap:round; stroke-width:0.25;"/>
<line x1="157.000000" y1="50.000000" x2="157.000000" y2="50.000000"  style="stroke:black; stroke-linecap:round; stroke-width:0.25;"/>
<line x1="157.000000" y1="50.000000" x2="161.000000" y2="50.000000"  style="stroke:black; stroke-linecap:round; stroke-width:0.25;"/>
<line x1="212.600000" y1="50.000000" x2="216.600000" y2="50.000000"  style="stroke:black; stroke-linecap:round; stroke-width:0.25;"/>
<line x1="216.600000" y1="24.000000" x2="224.600000" y2="24.000000"  style="stroke:black; stroke-linecap:round; stroke-width:0.25;"/>
<line x1="216.600000" y1="50.000000" x2="216.600000" y2="24.000000"  style="stroke:black; stroke-linecap:round; stroke-width:0.25;"/>
<line x1="216.600000" y1="50.000000" x2="216.600000" y2="50.000000"  style="stroke:black; stroke-linecap:round; stroke-width:0.25;"/>
<line x1="224.600000" y1="24.000000" x2="250.600000" y2="24.000000"  style="stroke:black; stroke-linecap:round; stroke-width:0.25;"/>
<line x1="250.600000" y1="24.000000" x2="276.600000" y2="24.000000"  style="stroke:black; stroke-linecap:round; stroke-width:0.25;"/>
<line x1="262.600000" y1="54.000000" x2="266.600000" y2="54.000000"  style="stroke:black; stroke-linecap:round; stroke-width:0.25;"/>
<line x1="266.600000" y1="54.000000" x2="276.600000" y2="54.000000"  style="stroke:black; stroke-linecap:round; stroke-width:0.25;"/>
<line x1="276.600000" y1="24.000000" x2="284.600000" y2="24.000000"  style="stroke:black; stroke-linecap:round; stroke-width:0.25;"/>
<line x1="276.600000" y1="54.000000" x2="284.600000" y2="54.000000"  style="stroke:black; stroke-linecap:round; stroke-width:0.25;"/>
<line x1="284.600000" y1="24.000000" x2="284.600000" y2="46.000000"  style="stroke:black; stroke-linecap:round; stroke-width:0.25;"/>
<line x1="284.600000" y1="46.000000" x2="284.600000" y2="46.000000"  style="stroke:black; stroke-linecap:round; stroke-width:0.25;"/>
<line x1="284.600000" y1="46.000000" x2="288.600000" y2="46.000000"  style="stroke:black; stroke-linecap:round; stroke-width:0.25;"/>
<line x1="284.600000" y1="54.000000" x2="288.600000" y2="54.000000"  style="stroke:black; stroke-linecap:round; stroke-width:0.25;"/>
<line x1="312.600000" y1="50.000000" x2="316.600000" y2="50.000000"  style="stroke:black; stroke-linecap:round; stroke-width:0.25;"/>
<line x1="316.600000" y1="34.000000" x2="324.600000" y2="34.000000"  style="stroke:black; stroke-linecap:round; stroke-width:0.25;"/>
<line x1="316.600000" y1="50.000000" x2="316.600000" y2="34.000000"  style="stroke:black; stroke-linecap:round; stroke-width:0.25;"/>
<line x1="316.600000" y1="50.000000" x2="316.600000" y2="50.000000"  style="stroke:black; stroke-linecap:round; stroke-width:0.25;"/>
<line x1="324.600000" y1="34.000000" x2="393.100000" y2="34.000000"  style="stroke:black; stroke-linecap:round; stroke-width:0.25;"/>
<line x1="393.100000" y1="34.000000" x2="461.600000" y2="34.000000"  style="stroke:black; stroke-linecap:round; stroke-width:0.25;"/>
<line x1="457.600000" y1="54.000000" x2="461.600000" y2="54.000000"  style="stroke:black; stroke-linecap:round; stroke-width:0.25;"/>
<line x1="461.600000" y1="34.000000" x2="469.600000" y2="34.000000"  style="stroke:black; stroke-linecap:round; stroke-width:0.25;"/>
<line x1="461.600000" y1="54.000000" x2="469.600000" y2="54.000000"  style="stroke:black; stroke-linecap:round; stroke-width:0.25;"/>
<line x1="469.600000" y1="34.000000" x2="469.600000" y2="46.000000"  style="stroke:black; stroke-linecap:round; stroke-width:0.25;"/>
<line x1="469.600000" y1="46.000000" x2="469.600000" y2="46.000000"  style="stroke:black; stroke-linecap:round; stroke-width:0.25;"/>
<line x1="469.600000" y1="46.000000" x2="473.600000" y2="46.000000"  style="stroke:black; stroke-linecap:round; stroke-width:0.25;"/>
<line x1="469.600000" y1="54.000000" x2="473.600000" y2="54.000000"  style="stroke:black; stroke-linecap:round; stroke-width:0.25;"/>
<line x1="497.600000" y1="50.000000" x2="501.600000" y2="50.000000"  style="stroke:black; stroke-linecap:round; stroke-width:0.25;"/>
<line x1="501.600000" y1="24.000000" x2="509.600000" y2="24.000000"  style="stroke:black; stroke-linecap:round; stroke-width:0.25;"/>
<line x1="501.600000" y1="50.000000" x2="501.600000" y2="24.000000"  style="stroke:black; stroke-linecap:round; stroke-width:0.25;"/>
<line x1="501.600000" y1="50.000000" x2="501.600000" y2="50.000000"  style="stroke:black; stroke-linecap:round; stroke-width:0.25;"/>
<line x1="509.600000" y1="24.000000" x2="562.300000" y2="24.000000"  style="stroke:black; stroke-linecap:round; stroke-width:0.25;"/>
<line x1="562.300000" y1="24.000000" x2="615.000000" y2="24.000000"  style="stroke:black; stroke-linecap:round; stroke-width:0.25;"/>
<line x1="601.000000" y1="54.000000" x2="605.000000" y2="54.000000"  style="stroke:black; stroke-linecap:round; stroke-width:0.25;"/>
<line x1="605.000000" y1="54.000000" x2="615.000000" y2="54.000000"  style="stroke:black; stroke-linecap:round; stroke-width:0.25;"/>
<line x1="615.000000" y1="54.000000" x2="623.000000" y2="54.000000"  style="stroke:black; stroke-linecap:round; stroke-width:0.25;"/>
<line x1="615.000000" y1="24.000000" x2="623.000000" y2="24.000000"  style="stroke:black; stroke-linecap:round; stroke-width:0.25;"/>
<line x1="623.000000" y1="46.000000" x2="627.000000" y2="46.000000"  style="stroke:black; stroke-linecap:round; stroke-width:0.25;"/>
<line x1="623.000000" y1="54.000000" x2="627.000000" y2="54.000000"  style="stroke:black; stroke-linecap:round; stroke-width:0.25;"/>
<line x1="623.000000" y1="24.000000" x2="623.000000" y2="46.000000"  style="stroke:black; stroke-linecap:round; stroke-width:0.25;"/>
<line x1="623.000000" y1="46.000000" x2="623.000000" y2="46.000000"  style="stroke:black; stroke-linecap:round; stroke-width:0.25;"/>
<line x1="651.000000" y1="50.000000" x2="655.000000" y2="50.000000"  style="stroke:black; stroke-linecap:round; stroke-width:0.25;"/>
<line x1="655.000000" y1="50.000000" x2="655.000000" y2="50.000000"  style="stroke:black; stroke-linecap:round; stroke-width:0.25;"/>
<line x1="655.000000" y1="50.000000" x2="659.000000" y2="50.000000"  style="stroke:black; stroke-linecap:round; stroke-width:0.25;"/>
<line x1="659.000000" y1="50.000000" x2="663.000000" y2="50.000000"  style="stroke:black; stroke-linecap:round; stroke-width:0.25;"/>
<line x1="663.000000" y1="50.000000" x2="673.000000" y2="50.000000"  style="stroke:black; stroke-linecap:round; stroke-width:0.25;"/>
</svg>
