<?xml version="1.0"?>
<svg xmlns="http://www.w3.org/2000/svg" xmlns:xlink="http://www.w3.org/1999/xlink" viewBox="0 0 506.000000 128.000000" width="253.000000mm" height="64.000000mm" version="1.1">
<rect x="1.000000" y="1.000000" width="505.000000" height="127.000000" rx="0" ry="0" style="stroke:none;fill:#cccccc;"/>
<rect x="0.000000" y="0.000000" width="505.000000" height="127.000000" rx="0" ry="0" style="stroke:none;fill:#ffffff;"/>
<text x="10.000000" y="7.000000" font-family="Arial" font-size="7"></text>
<a xlink:href="sample-0x7f8ada6475c0.svg">
<rect x="49.000000" y="49.000000" width="129.000000" height="24.000000" rx="0" ry="0" style="stroke:none;fill:#cccccc;"/>
<rect x="48.000000" y="48.000000" width="129.000000" height="24.000000" rx="0" ry="0" style="stroke:none;fill:#003366;"/>
</a>
<a xlink:href="sample-0x7f8ada6475c0.svg">
<text x="112.500000" y="62.000000" font-family="Arial" font-size="7" text-anchor="middle" fill="#FFFFFF">sample_clock(...0000000001f))</text>
</a>
<circle cx="50.000000" cy="50.000000" r="1"/>
<a xlink:href="qam-0x7f8add434440.svg">
<rect x="202.000000" y="33.000000" width="129.000000" height="72.000000" rx="0" ry="0" style="stroke:none;fill:#cccccc;"/>
<rect x="201.000000" y="32.000000" width="129.000000" height="72.000000" rx="0" ry="0" style="stroke:none;fill:#003366;"/>
</a>
<a xlink:href="qam-0x7f8add434440.svg">
<text x="265.500000" y="70.000000" font-family="Arial" font-size="7" text-anchor="middle" fill="#FFFFFF">qam_bisp_debu...0000000001f))</text>
</a>
<circle cx="203.000000" cy="34.000000" r="1"/>
<line x1="198.000000" y1="59.000000" x2="201.000000" y2="60.000000"  transform="rotate(0.000000,201.000000,60.000000)" style="stroke: black; stroke-width:0.25;"/>
<line x1="198.000000" y1="61.000000" x2="201.000000" y2="60.000000"  transform="rotate(0.000000,201.000000,60.000000)" style="stroke: black; stroke-width:0.25;"/>
<line x1="198.000000" y1="67.000000" x2="201.000000" y2="68.000000"  transform="rotate(0.000000,201.000000,68.000000)" style="stroke: black; stroke-width:0.25;"/>
<line x1="198.000000" y1="69.000000" x2="201.000000" y2="68.000000"  transform="rotate(0.000000,201.000000,68.000000)" style="stroke: black; stroke-width:0.25;"/>
<line x1="198.000000" y1="75.000000" x2="201.000000" y2="76.000000"  transform="rotate(0.000000,201.000000,76.000000)" style="stroke: black; stroke-width:0.25;"/>
<line x1="198.000000" y1="77.000000" x2="201.000000" y2="76.000000"  transform="rotate(0.000000,201.000000,76.000000)" style="stroke: black; stroke-width:0.25;"/>
<line x1="332.000000" y1="36.000000" x2="332.000000" y2="32.000000"  style="stroke:black; stroke-linecap:round; stroke-width:0.25;"/>
<line x1="332.000000" y1="32.000000" x2="336.000000" y2="32.000000"  style="stroke:black; stroke-linecap:round; stroke-width:0.25;"/>
<line x1="336.000000" y1="32.000000" x2="336.000000" y2="36.000000"  style="stroke:black; stroke-linecap:round; stroke-width:0.25;"/>
<line x1="15.000000" y1="15.000000" x2="15.000000" y2="113.000000"  style="stroke: black; stroke-linecap:round; stroke-width:0.25; stroke-dasharray:3,3;"/>
<line x1="15.000000" y1="113.000000" x2="491.000000" y2="113.000000"  style="stroke: black; stroke-linecap:round; stroke-width:0.25; stroke-dasharray:3,3;"/>
<line x1="491.000000" y1="113.000000" x2="491.000000" y2="15.000000"  style="stroke: black; stroke-linecap:round; stroke-width:0.25; stroke-dasharray:3,3;"/>
<line x1="15.000000" y1="15.000000" x2="20.000000" y2="15.000000"  style="stroke: black; stroke-linecap:round; stroke-width:0.25; stroke-dasharray:3,3;"/>
<line x1="49.025000" y1="15.000000" x2="491.000000" y2="15.000000"  style="stroke: black; stroke-linecap:round; stroke-width:0.25; stroke-dasharray:3,3;"/>
<text x="20.000000" y="17.000000" font-family="Arial" font-size="7">process</text>
<line x1="493.000000" y1="35.000000" x2="496.000000" y2="36.000000"  transform="rotate(0.000000,496.000000,36.000000)" style="stroke: black; stroke-width:0.25;"/>
<line x1="493.000000" y1="37.000000" x2="496.000000" y2="36.000000"  transform="rotate(0.000000,496.000000,36.000000)" style="stroke: black; stroke-width:0.25;"/>
<line x1="493.000000" y1="43.000000" x2="496.000000" y2="44.000000"  transform="rotate(0.000000,496.000000,44.000000)" style="stroke: black; stroke-width:0.25;"/>
<line x1="493.000000" y1="45.000000" x2="496.000000" y2="44.000000"  transform="rotate(0.000000,496.000000,44.000000)" style="stroke: black; stroke-width:0.25;"/>
<line x1="493.000000" y1="51.000000" x2="496.000000" y2="52.000000"  transform="rotate(0.000000,496.000000,52.000000)" style="stroke: black; stroke-width:0.25;"/>
<line x1="493.000000" y1="53.000000" x2="496.000000" y2="52.000000"  transform="rotate(0.000000,496.000000,52.000000)" style="stroke: black; stroke-width:0.25;"/>
<line x1="493.000000" y1="59.000000" x2="496.000000" y2="60.000000"  transform="rotate(0.000000,496.000000,60.000000)" style="stroke: black; stroke-width:0.25;"/>
<line x1="493.000000" y1="61.000000" x2="496.000000" y2="60.000000"  transform="rotate(0.000000,496.000000,60.000000)" style="stroke: black; stroke-width:0.25;"/>
<line x1="493.000000" y1="67.000000" x2="496.000000" y2="68.000000"  transform="rotate(0.000000,496.000000,68.000000)" style="stroke: black; stroke-width:0.25;"/>
<line x1="493.000000" y1="69.000000" x2="496.000000" y2="68.000000"  transform="rotate(0.000000,496.000000,68.000000)" style="stroke: black; stroke-width:0.25;"/>
<line x1="493.000000" y1="75.000000" x2="496.000000" y2="76.000000"  transform="rotate(0.000000,496.000000,76.000000)" style="stroke: black; stroke-width:0.25;"/>
<line x1="493.000000" y1="77.000000" x2="496.000000" y2="76.000000"  transform="rotate(0.000000,496.000000,76.000000)" style="stroke: black; stroke-width:0.25;"/>
<line x1="493.000000" y1="83.000000" x2="496.000000" y2="84.000000"  transform="rotate(0.000000,496.000000,84.000000)" style="stroke: black; stroke-width:0.25;"/>
<line x1="493.000000" y1="85.000000" x2="496.000000" y2="84.000000"  transform="rotate(0.000000,496.000000,84.000000)" style="stroke: black; stroke-width:0.25;"/>
<line x1="493.000000" y1="91.000000" x2="496.000000" y2="92.000000"  transform="rotate(0.000000,496.000000,92.000000)" style="stroke: black; stroke-width:0.25;"/>
<line x1="493.000000" y1="93.000000" x2="496.000000" y2="92.000000"  transform="rotate(0.000000,496.000000,92.000000)" style="stroke: black; stroke-width:0.25;"/>
<line x1="10.000000" y1="64.000000" x2="20.000000" y2="64.000000"  style="stroke:black; stroke-linecap:round; stroke-width:0.25;"/>
<line x1="20.000000" y1="64.000000" x2="24.000000" y2="64.000000"  style="stroke:black; stroke-linecap:round; stroke-width:0.25;"/>
<line x1="24.000000" y1="64.000000" x2="28.000000" y2="64.000000"  style="stroke:black; stroke-linecap:round; stroke-width:0.25;"/>
<line x1="28.000000" y1="64.000000" x2="36.000000" y2="64.000000"  style="stroke:black; stroke-linecap:round; stroke-width:0.25;"/>
<line x1="36.000000" y1="64.000000" x2="36.000000" y2="88.000000"  style="stroke:black; stroke-linecap:round; stroke-width:0.25;"/>
<line x1="36.000000" y1="88.000000" x2="36.000000" y2="88.000000"  style="stroke:black; stroke-linecap:round; stroke-width:0.25;"/>
<line x1="36.000000" y1="88.000000" x2="44.000000" y2="88.000000"  style="stroke:black; stroke-linecap:round; stroke-width:0.25;"/>
<line x1="44.000000" y1="24.000000" x2="44.000000" y2="24.000000"  style="stroke:black; stroke-linecap:round; stroke-width:0.25;"/>
<line x1="44.000000" y1="24.000000" x2="44.000000" y2="80.000000"  style="stroke:black; stroke-linecap:round; stroke-width:0.25;"/>
<line x1="44.000000" y1="80.000000" x2="44.000000" y2="80.000000"  style="stroke:black; stroke-linecap:round; stroke-width:0.25;"/>
<line x1="44.000000" y1="80.000000" x2="112.500000" y2="80.000000"  style="stroke:black; stroke-linecap:round; stroke-width:0.25;"/>
<line x1="44.000000" y1="88.000000" x2="112.500000" y2="88.000000"  style="stroke:black; stroke-linecap:round; stroke-width:0.25;"/>
<line x1="112.500000" y1="80.000000" x2="181.000000" y2="80.000000"  style="stroke:black; stroke-linecap:round; stroke-width:0.25;"/>
<line x1="112.500000" y1="88.000000" x2="181.000000" y2="88.000000"  style="stroke:black; stroke-linecap:round; stroke-width:0.25;"/>
<line x1="177.000000" y1="60.000000" x2="181.000000" y2="60.000000"  style="stroke:black; stroke-linecap:round; stroke-width:0.25;"/>
<line x1="181.000000" y1="60.000000" x2="197.000000" y2="60.000000"  style="stroke:black; stroke-linecap:round; stroke-width:0.25;"/>
<line x1="181.000000" y1="68.000000" x2="197.000000" y2="68.000000"  style="stroke:black; stroke-linecap:round; stroke-width:0.25;"/>
<line x1="181.000000" y1="80.000000" x2="181.000000" y2="68.000000"  style="stroke:black; stroke-linecap:round; stroke-width:0.25;"/>
<line x1="181.000000" y1="80.000000" x2="181.000000" y2="80.000000"  style="stroke:black; stroke-linecap:round; stroke-width:0.25;"/>
<line x1="181.000000" y1="88.000000" x2="189.000000" y2="88.000000"  style="stroke:black; stroke-linecap:round; stroke-width:0.25;"/>
<line x1="189.000000" y1="24.000000" x2="44.000000" y2="24.000000"  style="stroke:black; stroke-linecap:round; stroke-width:0.25;"/>
<line x1="189.000000" y1="76.000000" x2="197.000000" y2="76.000000"  style="stroke:black; stroke-linecap:round; stroke-width:0.25;"/>
<line x1="189.000000" y1="88.000000" x2="189.000000" y2="76.000000"  style="stroke:black; stroke-linecap:round; stroke-width:0.25;"/>
<line x1="197.000000" y1="60.000000" x2="201.000000" y2="60.000000"  style="stroke:black; stroke-linecap:round; stroke-width:0.25;"/>
<line x1="197.000000" y1="68.000000" x2="201.000000" y2="68.000000"  style="stroke:black; stroke-linecap:round; stroke-width:0.25;"/>
<line x1="197.000000" y1="76.000000" x2="201.000000" y2="76.000000"  style="stroke:black; stroke-linecap:round; stroke-width:0.25;"/>
<line x1="330.000000" y1="36.000000" x2="334.000000" y2="36.000000"  style="stroke:black; stroke-linecap:round; stroke-width:0.25;"/>
<line x1="330.000000" y1="44.000000" x2="334.000000" y2="44.000000"  style="stroke:black; stroke-linecap:round; stroke-width:0.25;"/>
<line x1="330.000000" y1="52.000000" x2="334.000000" y2="52.000000"  style="stroke:black; stroke-linecap:round; stroke-width:0.25;"/>
<line x1="330.000000" y1="60.000000" x2="334.000000" y2="60.000000"  style="stroke:black; stroke-linecap:round; stroke-width:0.25;"/>
<line x1="330.000000" y1="68.000000" x2="334.000000" y2="68.000000"  style="stroke:black; stroke-linecap:round; stroke-width:0.25;"/>
<line x1="330.000000" y1="76.000000" x2="334.000000" y2="76.000000"  style="stroke:black; stroke-linecap:round; stroke-width:0.25;"/>
<line x1="330.000000" y1="84.000000" x2="334.000000" y2="84.000000"  style="stroke:black; stroke-linecap:round; stroke-width:0.25;"/>
<line x1="330.000000" y1="92.000000" x2="334.000000" y2="92.000000"  style="stroke:black; stroke-linecap:round; stroke-width:0.25;"/>
<line x1="330.000000" y1="100.000000" x2="334.000000" y2="100.000000"  style="stroke:black; stroke-linecap:round; stroke-width:0.25;"/>
<line x1="334.000000" y1="24.000000" x2="189.000000" y2="24.000000"  style="stroke:black; stroke-linecap:round; stroke-width:0.25;"/>
<line x1="334.000000" y1="24.000000" x2="334.000000" y2="24.000000"  style="stroke:black; stroke-linecap:round; stroke-width:0.25;"/>
<line x1="334.000000" y1="32.000000" x2="334.000000" y2="24.000000"  style="stroke:black; stroke-linecap:round; stroke-width:0.25;"/>
<line x1="334.000000" y1="36.000000" x2="336.000000" y2="36.000000"  style="stroke:black; stroke-linecap:round; stroke-width:0.25;"/>
<line x1="334.000000" y1="44.000000" x2="342.000000" y2="44.000000"  style="stroke:black; stroke-linecap:round; stroke-width:0.25;"/>
<line x1="334.000000" y1="52.000000" x2="342.000000" y2="52.000000"  style="stroke:black; stroke-linecap:round; stroke-width:0.25;"/>
<line x1="334.000000" y1="60.000000" x2="342.000000" y2="60.000000"  style="stroke:black; stroke-linecap:round; stroke-width:0.25;"/>
<line x1="334.000000" y1="68.000000" x2="342.000000" y2="68.000000"  style="stroke:black; stroke-linecap:round; stroke-width:0.25;"/>
<line x1="334.000000" y1="76.000000" x2="342.000000" y2="76.000000"  style="stroke:black; stroke-linecap:round; stroke-width:0.25;"/>
<line x1="334.000000" y1="84.000000" x2="342.000000" y2="84.000000"  style="stroke:black; stroke-linecap:round; stroke-width:0.25;"/>
<line x1="334.000000" y1="92.000000" x2="342.000000" y2="92.000000"  style="stroke:black; stroke-linecap:round; stroke-width:0.25;"/>
<line x1="334.000000" y1="100.000000" x2="342.000000" y2="100.000000"  style="stroke:black; stroke-linecap:round; stroke-width:0.25;"/>
<line x1="342.000000" y1="44.000000" x2="350.000000" y2="44.000000"  style="stroke:black; stroke-linecap:round; stroke-width:0.25;"/>
<line x1="342.000000" y1="52.000000" x2="358.000000" y2="52.000000"  style="stroke:black; stroke-linecap:round; stroke-width:0.25;"/>
<line x1="342.000000" y1="60.000000" x2="366.000000" y2="60.000000"  style="stroke:black; stroke-linecap:round; stroke-width:0.25;"/>
<line x1="342.000000" y1="68.000000" x2="374.000000" y2="68.000000"  style="stroke:black; stroke-linecap:round; stroke-width:0.25;"/>
<line x1="342.000000" y1="76.000000" x2="382.000000" y2="76.000000"  style="stroke:black; stroke-linecap:round; stroke-width:0.25;"/>
<line x1="342.000000" y1="84.000000" x2="390.000000" y2="84.000000"  style="stroke:black; stroke-linecap:round; stroke-width:0.25;"/>
<line x1="342.000000" y1="92.000000" x2="398.000000" y2="92.000000"  style="stroke:black; stroke-linecap:round; stroke-width:0.25;"/>
<line x1="342.000000" y1="100.000000" x2="406.000000" y2="100.000000"  style="stroke:black; stroke-linecap:round; stroke-width:0.25;"/>
<line x1="350.000000" y1="36.040000" x2="414.000000" y2="36.040000"  style="stroke:black; stroke-linecap:round; stroke-width:0.25;"/>
<line x1="350.000000" y1="44.000000" x2="350.000000" y2="36.040000"  style="stroke:black; stroke-linecap:round; stroke-width:0.25;"/>
<line x1="358.000000" y1="44.040000" x2="414.000000" y2="44.040000"  style="stroke:black; stroke-linecap:round; stroke-width:0.25;"/>
<line x1="358.000000" y1="52.000000" x2="358.000000" y2="44.040000"  style="stroke:black; stroke-linecap:round; stroke-width:0.25;"/>
<line x1="366.000000" y1="52.040000" x2="414.000000" y2="52.040000"  style="stroke:black; stroke-linecap:round; stroke-width:0.25;"/>
<line x1="366.000000" y1="60.000000" x2="366.000000" y2="52.040000"  style="stroke:black; stroke-linecap:round; stroke-width:0.25;"/>
<line x1="374.000000" y1="60.040000" x2="414.000000" y2="60.040000"  style="stroke:black; stroke-linecap:round; stroke-width:0.25;"/>
<line x1="374.000000" y1="68.000000" x2="374.000000" y2="60.040000"  style="stroke:black; stroke-linecap:round; stroke-width:0.25;"/>
<line x1="382.000000" y1="68.040000" x2="414.000000" y2="68.040000"  style="stroke:black; stroke-linecap:round; stroke-width:0.25;"/>
<line x1="382.000000" y1="76.000000" x2="382.000000" y2="68.040000"  style="stroke:black; stroke-linecap:round; stroke-width:0.25;"/>
<line x1="390.000000" y1="76.040000" x2="414.000000" y2="76.040000"  style="stroke:black; stroke-linecap:round; stroke-width:0.25;"/>
<line x1="390.000000" y1="84.000000" x2="390.000000" y2="76.040000"  style="stroke:black; stroke-linecap:round; stroke-width:0.25;"/>
<line x1="398.000000" y1="84.040000" x2="414.000000" y2="84.040000"  style="stroke:black; stroke-linecap:round; stroke-width:0.25;"/>
<line x1="398.000000" y1="92.000000" x2="398.000000" y2="84.040000"  style="stroke:black; stroke-linecap:round; stroke-width:0.25;"/>
<line x1="406.000000" y1="92.040000" x2="414.000000" y2="92.040000"  style="stroke:black; stroke-linecap:round; stroke-width:0.25;"/>
<line x1="406.000000" y1="100.000000" x2="406.000000" y2="92.040000"  style="stroke:black; stroke-linecap:round; stroke-width:0.25;"/>
<line x1="414.000000" y1="36.000000" x2="478.000000" y2="36.000000"  style="stroke:black; stroke-linecap:round; stroke-width:0.25;"/>
<line x1="414.000000" y1="36.040000" x2="414.000000" y2="36.000000"  style="stroke:black; stroke-linecap:round; stroke-width:0.25;"/>
<line x1="414.000000" y1="36.040000" x2="414.000000" y2="36.040000"  style="stroke:black; stroke-linecap:round; stroke-width:0.25;"/>
<line x1="414.000000" y1="44.040000" x2="422.000000" y2="44.040000"  style="stroke:black; stroke-linecap:round; stroke-width:0.25;"/>
<line x1="414.000000" y1="52.040000" x2="430.000000" y2="52.040000"  style="stroke:black; stroke-linecap:round; stroke-width:0.25;"/>
<line x1="414.000000" y1="60.040000" x2="438.000000" y2="60.040000"  style="stroke:black; stroke-linecap:round; stroke-width:0.25;"/>
<line x1="414.000000" y1="68.040000" x2="446.000000" y2="68.040000"  style="stroke:black; stroke-linecap:round; stroke-width:0.25;"/>
<line x1="414.000000" y1="76.040000" x2="454.000000" y2="76.040000"  style="stroke:black; stroke-linecap:round; stroke-width:0.25;"/>
<line x1="414.000000" y1="84.040000" x2="462.000000" y2="84.040000"  style="stroke:black; stroke-linecap:round; stroke-width:0.25;"/>
<line x1="414.000000" y1="92.040000" x2="470.000000" y2="92.040000"  style="stroke:black; stroke-linecap:round; stroke-width:0.25;"/>
<line x1="422.000000" y1="44.000000" x2="478.000000" y2="44.000000"  style="stroke:black; stroke-linecap:round; stroke-width:0.25;"/>
<line x1="422.000000" y1="44.040000" x2="422.000000" y2="44.000000"  style="stroke:black; stroke-linecap:round; stroke-width:0.25;"/>
<line x1="430.000000" y1="52.000000" x2="478.000000" y2="52.000000"  style="stroke:black; stroke-linecap:round; stroke-width:0.25;"/>
<line x1="430.000000" y1="52.040000" x2="430.000000" y2="52.000000"  style="stroke:black; stroke-linecap:round; stroke-width:0.25;"/>
<line x1="438.000000" y1="60.000000" x2="478.000000" y2="60.000000"  style="stroke:black; stroke-linecap:round; stroke-width:0.25;"/>
<line x1="438.000000" y1="60.040000" x2="438.000000" y2="60.000000"  style="stroke:black; stroke-linecap:round; stroke-width:0.25;"/>
<line x1="446.000000" y1="68.000000" x2="478.000000" y2="68.000000"  style="stroke:black; stroke-linecap:round; stroke-width:0.25;"/>
<line x1="446.000000" y1="68.040000" x2="446.000000" y2="68.000000"  style="stroke:black; stroke-linecap:round; stroke-width:0.25;"/>
<line x1="454.000000" y1="76.000000" x2="478.000000" y2="76.000000"  style="stroke:black; stroke-linecap:round; stroke-width:0.25;"/>
<line x1="454.000000" y1="76.040000" x2="454.000000" y2="76.000000"  style="stroke:black; stroke-linecap:round; stroke-width:0.25;"/>
<line x1="462.000000" y1="84.000000" x2="478.000000" y2="84.000000"  style="stroke:black; stroke-linecap:round; stroke-width:0.25;"/>
<line x1="462.000000" y1="84.040000" x2="462.000000" y2="84.000000"  style="stroke:black; stroke-linecap:round; stroke-width:0.25;"/>
<line x1="470.000000" y1="92.000000" x2="478.000000" y2="92.000000"  style="stroke:black; stroke-linecap:round; stroke-width:0.25;"/>
<line x1="470.000000" y1="92.040000" x2="470.000000" y2="92.000000"  style="stroke:black; stroke-linecap:round; stroke-width:0.25;"/>
<line x1="478.000000" y1="36.000000" x2="482.000000" y2="36.000000"  style="stroke:black; stroke-linecap:round; stroke-width:0.25;"/>
<line x1="478.000000" y1="44.000000" x2="482.000000" y2="44.000000"  style="stroke:black; stroke-linecap:round; stroke-width:0.25;"/>
<line x1="478.000000" y1="52.000000" x2="482.000000" y2="52.000000"  style="stroke:black; stroke-linecap:round; stroke-width:0.25;"/>
<line x1="478.000000" y1="60.000000" x2="482.000000" y2="60.000000"  style="stroke:black; stroke-linecap:round; stroke-width:0.25;"/>
<line x1="478.000000" y1="68.000000" x2="482.000000" y2="68.000000"  style="stroke:black; stroke-linecap:round; stroke-width:0.25;"/>
<line x1="478.000000" y1="76.000000" x2="482.000000" y2="76.000000"  style="stroke:black; stroke-linecap:round; stroke-width:0.25;"/>
<line x1="478.000000" y1="84.000000" x2="482.000000" y2="84.000000"  style="stroke:black; stroke-linecap:round; stroke-width:0.25;"/>
<line x1="478.000000" y1="92.000000" x2="482.000000" y2="92.000000"  style="stroke:black; stroke-linecap:round; stroke-width:0.25;"/>
<line x1="482.000000" y1="36.000000" x2="486.000000" y2="36.000000"  style="stroke:black; stroke-linecap:round; stroke-width:0.25;"/>
<line x1="482.000000" y1="44.000000" x2="486.000000" y2="44.000000"  style="stroke:black; stroke-linecap:round; stroke-width:0.25;"/>
<line x1="482.000000" y1="52.000000" x2="486.000000" y2="52.000000"  style="stroke:black; stroke-linecap:round; stroke-width:0.25;"/>
<line x1="482.000000" y1="60.000000" x2="486.000000" y2="60.000000"  style="stroke:black; stroke-linecap:round; stroke-width:0.25;"/>
<line x1="482.000000" y1="68.000000" x2="486.000000" y2="68.000000"  style="stroke:black; stroke-linecap:round; stroke-width:0.25;"/>
<line x1="482.000000" y1="76.000000" x2="486.000000" y2="76.000000"  style="stroke:black; stroke-linecap:round; stroke-width:0.25;"/>
<line x1="482.000000" y1="84.000000" x2="486.000000" y2="84.000000"  style="stroke:black; stroke-linecap:round; stroke-width:0.25;"/>
<line x1="482.000000" y1="92.000000" x2="486.000000" y2="92.000000"  style="stroke:black; stroke-linecap:round; stroke-width:0.25;"/>
<line x1="486.000000" y1="36.000000" x2="496.000000" y2="36.000000"  style="stroke:black; stroke-linecap:round; stroke-width:0.25;"/>
<line x1="486.000000" y1="44.000000" x2="496.000000" y2="44.000000"  style="stroke:black; stroke-linecap:round; stroke-width:0.25;"/>
<line x1="486.000000" y1="52.000000" x2="496.000000" y2="52.000000"  style="stroke:black; stroke-linecap:round; stroke-width:0.25;"/>
<line x1="486.000000" y1="60.000000" x2="496.000000" y2="60.000000"  style="stroke:black; stroke-linecap:round; stroke-width:0.25;"/>
<line x1="486.000000" y1="68.000000" x2="496.000000" y2="68.000000"  style="stroke:black; stroke-linecap:round; stroke-width:0.25;"/>
<line x1="486.000000" y1="76.000000" x2="496.000000" y2="76.000000"  style="stroke:black; stroke-linecap:round; stroke-width:0.25;"/>
<line x1="486.000000" y1="84.000000" x2="496.000000" y2="84.000000"  style="stroke:black; stroke-linecap:round; stroke-width:0.25;"/>
<line x1="486.000000" y1="92.000000" x2="496.000000" y2="92.000000"  style="stroke:black; stroke-linecap:round; stroke-width:0.25;"/>
</svg>
