<?xml version="1.0"?>
<svg xmlns="http://www.w3.org/2000/svg" xmlns:xlink="http://www.w3.org/1999/xlink" viewBox="0 0 854.200000 168.000000" width="427.100000mm" height="84.000000mm" version="1.1">
<a xlink:href="qam-0x7f8add434440.svg">
<rect x="1.000000" y="1.000000" width="853.200000" height="167.000000" rx="0" ry="0" style="stroke:none;fill:#cccccc;"/>
<rect x="0.000000" y="0.000000" width="853.200000" height="167.000000" rx="0" ry="0" style="stroke:none;fill:#ffffff;"/>
</a>
<text x="10.000000" y="7.000000" font-family="Arial" font-size="7"></text>
<rect x="49.000000" y="25.000000" width="38.700000" height="24.000000" rx="0" ry="0" style="stroke:none;fill:#cccccc;"/>
<rect x="48.000000" y="24.000000" width="38.700000" height="24.000000" rx="0" ry="0" style="stroke:none;fill:#47945E;"/>
<text x="67.350000" y="38.000000" font-family="Arial" font-size="7" text-anchor="middle" fill="#FFFFFF">dem_phase</text>
<circle cx="50.000000" cy="26.000000" r="1"/>
<line x1="45.000000" y1="35.000000" x2="48.000000" y2="36.000000"  transform="rotate(0.000000,48.000000,36.000000)" style="stroke: black; stroke-width:0.25;"/>
<line x1="45.000000" y1="37.000000" x2="48.000000" y2="36.000000"  transform="rotate(0.000000,48.000000,36.000000)" style="stroke: black; stroke-width:0.25;"/>
<rect x="49.000000" y="57.000000" width="38.700000" height="24.000000" rx="0" ry="0" style="stroke:none;fill:#cccccc;"/>
<rect x="48.000000" y="56.000000" width="38.700000" height="24.000000" rx="0" ry="0" style="stroke:none;fill:#47945E;"/>
<text x="67.350000" y="70.000000" font-family="Arial" font-size="7" text-anchor="middle" fill="#FFFFFF">mod_phase</text>
<circle cx="50.000000" cy="58.000000" r="1"/>
<line x1="45.000000" y1="67.000000" x2="48.000000" y2="68.000000"  transform="rotate(0.000000,48.000000,68.000000)" style="stroke: black; stroke-width:0.25;"/>
<line x1="45.000000" y1="69.000000" x2="48.000000" y2="68.000000"  transform="rotate(0.000000,48.000000,68.000000)" style="stroke: black; stroke-width:0.25;"/>
<rect x="55.450000" y="89.000000" width="25.800000" height="24.000000" rx="0" ry="0" style="stroke:none;fill:#cccccc;"/>
<rect x="54.450000" y="88.000000" width="25.800000" height="24.000000" rx="0" ry="0" style="stroke:none;fill:#47945E;"/>
<text x="67.350000" y="102.000000" font-family="Arial" font-size="7" text-anchor="middle" fill="#FFFFFF">input</text>
<circle cx="56.450000" cy="90.000000" r="1"/>
<line x1="51.450000" y1="99.000000" x2="54.450000" y2="100.000000"  transform="rotate(0.000000,54.450000,100.000000)" style="stroke: black; stroke-width:0.25;"/>
<line x1="51.450000" y1="101.000000" x2="54.450000" y2="100.000000"  transform="rotate(0.000000,54.450000,100.000000)" style="stroke: black; stroke-width:0.25;"/>
<rect x="55.450000" y="121.000000" width="25.800000" height="24.000000" rx="0" ry="0" style="stroke:none;fill:#cccccc;"/>
<rect x="54.450000" y="120.000000" width="25.800000" height="24.000000" rx="0" ry="0" style="stroke:none;fill:#47945E;"/>
<text x="67.350000" y="134.000000" font-family="Arial" font-size="7" text-anchor="middle" fill="#FFFFFF">clock</text>
<circle cx="56.450000" cy="122.000000" r="1"/>
<line x1="51.450000" y1="131.000000" x2="54.450000" y2="132.000000"  transform="rotate(0.000000,54.450000,132.000000)" style="stroke: black; stroke-width:0.25;"/>
<line x1="51.450000" y1="133.000000" x2="54.450000" y2="132.000000"  transform="rotate(0.000000,54.450000,132.000000)" style="stroke: black; stroke-width:0.25;"/>
<rect x="157.750000" y="57.000000" width="38.700000" height="24.000000" rx="0" ry="0" style="stroke:none;fill:#cccccc;"/>
<rect x="156.750000" y="56.000000" width="38.700000" height="24.000000" rx="0" ry="0" style="stroke:none;fill:#47945E;"/>
<text x="176.100000" y="70.000000" font-family="Arial" font-size="7" text-anchor="middle" fill="#FFFFFF">dem_phase</text>
<circle cx="158.750000" cy="58.000000" r="1"/>
<rect x="95.700000" y="89.000000" width="25.800000" height="24.000000" rx="0" ry="0" style="stroke:none;fill:#cccccc;"/>
<rect x="94.700000" y="88.000000" width="25.800000" height="24.000000" rx="0" ry="0" style="stroke:none;fill:#47945E;"/>
<text x="107.600000" y="102.000000" font-family="Arial" font-size="7" text-anchor="middle" fill="#FFFFFF">input</text>
<circle cx="96.700000" cy="90.000000" r="1"/>
<a xlink:href="prefilter-0x7f8adc222120.svg">
<rect x="129.500000" y="89.000000" width="129.000000" height="24.000000" rx="0" ry="0" style="stroke:none;fill:#cccccc;"/>
<rect x="128.500000" y="88.000000" width="129.000000" height="24.000000" rx="0" ry="0" style="stroke:none;fill:#003366;"/>
</a>
<a xlink:href="prefilter-0x7f8adc222120.svg">
<text x="193.000000" y="102.000000" font-family="Arial" font-size="7" text-anchor="middle" fill="#FFFFFF">prefilter(hsl...0000000001f))</text>
</a>
<circle cx="130.500000" cy="90.000000" r="1"/>
<line x1="125.500000" y1="99.000000" x2="128.500000" y2="100.000000"  transform="rotate(0.000000,128.500000,100.000000)" style="stroke: black; stroke-width:0.25;"/>
<line x1="125.500000" y1="101.000000" x2="128.500000" y2="100.000000"  transform="rotate(0.000000,128.500000,100.000000)" style="stroke: black; stroke-width:0.25;"/>
<a xlink:href="demodulator-0x7f8adc0d6130.svg">
<rect x="274.500000" y="73.000000" width="51.600000" height="24.000000" rx="0" ry="0" style="stroke:none;fill:#cccccc;"/>
<rect x="273.500000" y="72.000000" width="51.600000" height="24.000000" rx="0" ry="0" style="stroke:none;fill:#003366;"/>
</a>
<a xlink:href="demodulator-0x7f8adc0d6130.svg">
<text x="299.300000" y="86.000000" font-family="Arial" font-size="7" text-anchor="middle" fill="#FFFFFF">demodulator</text>
</a>
<circle cx="275.500000" cy="74.000000" r="1"/>
<line x1="270.500000" y1="79.000000" x2="273.500000" y2="80.000000"  transform="rotate(0.000000,273.500000,80.000000)" style="stroke: black; stroke-width:0.25;"/>
<line x1="270.500000" y1="81.000000" x2="273.500000" y2="80.000000"  transform="rotate(0.000000,273.500000,80.000000)" style="stroke: black; stroke-width:0.25;"/>
<line x1="270.500000" y1="87.000000" x2="273.500000" y2="88.000000"  transform="rotate(0.000000,273.500000,88.000000)" style="stroke: black; stroke-width:0.25;"/>
<line x1="270.500000" y1="89.000000" x2="273.500000" y2="88.000000"  transform="rotate(0.000000,273.500000,88.000000)" style="stroke: black; stroke-width:0.25;"/>
<a xlink:href="autogain-0x7f8ada480950.svg">
<rect x="342.100000" y="57.000000" width="38.700000" height="24.000000" rx="0" ry="0" style="stroke:none;fill:#cccccc;"/>
<rect x="341.100000" y="56.000000" width="38.700000" height="24.000000" rx="0" ry="0" style="stroke:none;fill:#003366;"/>
</a>
<a xlink:href="autogain-0x7f8ada480950.svg">
<text x="360.450000" y="70.000000" font-family="Arial" font-size="7" text-anchor="middle" fill="#FFFFFF">autogain</text>
</a>
<circle cx="343.100000" cy="58.000000" r="1"/>
<line x1="338.100000" y1="67.000000" x2="341.100000" y2="68.000000"  transform="rotate(0.000000,341.100000,68.000000)" style="stroke: black; stroke-width:0.25;"/>
<line x1="338.100000" y1="69.000000" x2="341.100000" y2="68.000000"  transform="rotate(0.000000,341.100000,68.000000)" style="stroke: black; stroke-width:0.25;"/>
<a xlink:href="autogain-0x7f8ada480950.svg">
<rect x="342.100000" y="89.000000" width="38.700000" height="24.000000" rx="0" ry="0" style="stroke:none;fill:#cccccc;"/>
<rect x="341.100000" y="88.000000" width="38.700000" height="24.000000" rx="0" ry="0" style="stroke:none;fill:#003366;"/>
</a>
<a xlink:href="autogain-0x7f8ada480950.svg">
<text x="360.450000" y="102.000000" font-family="Arial" font-size="7" text-anchor="middle" fill="#FFFFFF">autogain</text>
</a>
<circle cx="343.100000" cy="90.000000" r="1"/>
<line x1="338.100000" y1="99.000000" x2="341.100000" y2="100.000000"  transform="rotate(0.000000,341.100000,100.000000)" style="stroke: black; stroke-width:0.25;"/>
<line x1="338.100000" y1="101.000000" x2="341.100000" y2="100.000000"  transform="rotate(0.000000,341.100000,100.000000)" style="stroke: black; stroke-width:0.25;"/>
<a xlink:href="filtering-0x7f8add42dc80.svg">
<rect x="432.800000" y="57.000000" width="38.700000" height="40.000000" rx="0" ry="0" style="stroke:none;fill:#cccccc;"/>
<rect x="431.800000" y="56.000000" width="38.700000" height="40.000000" rx="0" ry="0" style="stroke:none;fill:#003366;"/>
</a>
<a xlink:href="filtering-0x7f8add42dc80.svg">
<text x="451.150000" y="78.000000" font-family="Arial" font-size="7" text-anchor="middle" fill="#FFFFFF">filtering</text>
</a>
<circle cx="433.800000" cy="58.000000" r="1"/>
<line x1="428.800000" y1="71.000000" x2="431.800000" y2="72.000000"  transform="rotate(0.000000,431.800000,72.000000)" style="stroke: black; stroke-width:0.25;"/>
<line x1="428.800000" y1="73.000000" x2="431.800000" y2="72.000000"  transform="rotate(0.000000,431.800000,72.000000)" style="stroke: black; stroke-width:0.25;"/>
<line x1="428.800000" y1="79.000000" x2="431.800000" y2="80.000000"  transform="rotate(0.000000,431.800000,80.000000)" style="stroke: black; stroke-width:0.25;"/>
<line x1="428.800000" y1="81.000000" x2="431.800000" y2="80.000000"  transform="rotate(0.000000,431.800000,80.000000)" style="stroke: black; stroke-width:0.25;"/>
<a xlink:href="rolloff-0x7f8add42deb0.svg">
<rect x="511.500000" y="61.000000" width="38.700000" height="24.000000" rx="0" ry="0" style="stroke:none;fill:#cccccc;"/>
<rect x="510.500000" y="60.000000" width="38.700000" height="24.000000" rx="0" ry="0" style="stroke:none;fill:#003366;"/>
</a>
<a xlink:href="rolloff-0x7f8add42deb0.svg">
<text x="529.850000" y="74.000000" font-family="Arial" font-size="7" text-anchor="middle" fill="#FFFFFF">rolloff</text>
</a>
<circle cx="512.500000" cy="62.000000" r="1"/>
<line x1="507.500000" y1="67.000000" x2="510.500000" y2="68.000000"  transform="rotate(0.000000,510.500000,68.000000)" style="stroke: black; stroke-width:0.25;"/>
<line x1="507.500000" y1="69.000000" x2="510.500000" y2="68.000000"  transform="rotate(0.000000,510.500000,68.000000)" style="stroke: black; stroke-width:0.25;"/>
<line x1="507.500000" y1="75.000000" x2="510.500000" y2="76.000000"  transform="rotate(0.000000,510.500000,76.000000)" style="stroke: black; stroke-width:0.25;"/>
<line x1="507.500000" y1="77.000000" x2="510.500000" y2="76.000000"  transform="rotate(0.000000,510.500000,76.000000)" style="stroke: black; stroke-width:0.25;"/>
<rect x="660.000000" y="41.000000" width="38.700000" height="24.000000" rx="0" ry="0" style="stroke:none;fill:#cccccc;"/>
<rect x="659.000000" y="40.000000" width="38.700000" height="24.000000" rx="0" ry="0" style="stroke:none;fill:#47945E;"/>
<text x="678.350000" y="54.000000" font-family="Arial" font-size="7" text-anchor="middle" fill="#FFFFFF">mod_phase</text>
<circle cx="661.000000" cy="42.000000" r="1"/>
<a xlink:href="modulator-0x7f8add433150.svg">
<rect x="722.700000" y="49.000000" width="38.700000" height="24.000000" rx="0" ry="0" style="stroke:none;fill:#cccccc;"/>
<rect x="721.700000" y="48.000000" width="38.700000" height="24.000000" rx="0" ry="0" style="stroke:none;fill:#003366;"/>
</a>
<a xlink:href="modulator-0x7f8add433150.svg">
<text x="741.050000" y="62.000000" font-family="Arial" font-size="7" text-anchor="middle" fill="#FFFFFF">modulator</text>
</a>
<circle cx="723.700000" cy="50.000000" r="1"/>
<line x1="718.700000" y1="51.000000" x2="721.700000" y2="52.000000"  transform="rotate(0.000000,721.700000,52.000000)" style="stroke: black; stroke-width:0.25;"/>
<line x1="718.700000" y1="53.000000" x2="721.700000" y2="52.000000"  transform="rotate(0.000000,721.700000,52.000000)" style="stroke: black; stroke-width:0.25;"/>
<line x1="718.700000" y1="59.000000" x2="721.700000" y2="60.000000"  transform="rotate(0.000000,721.700000,60.000000)" style="stroke: black; stroke-width:0.25;"/>
<line x1="718.700000" y1="61.000000" x2="721.700000" y2="60.000000"  transform="rotate(0.000000,721.700000,60.000000)" style="stroke: black; stroke-width:0.25;"/>
<line x1="718.700000" y1="67.000000" x2="721.700000" y2="68.000000"  transform="rotate(0.000000,721.700000,68.000000)" style="stroke: black; stroke-width:0.25;"/>
<line x1="718.700000" y1="69.000000" x2="721.700000" y2="68.000000"  transform="rotate(0.000000,721.700000,68.000000)" style="stroke: black; stroke-width:0.25;"/>
<a xlink:href="debug-0x7f8adc2207a0.svg">
<rect x="646.200000" y="89.000000" width="129.000000" height="48.000000" rx="0" ry="0" style="stroke:none;fill:#cccccc;"/>
<rect x="645.200000" y="88.000000" width="129.000000" height="48.000000" rx="0" ry="0" style="stroke:none;fill:#003366;"/>
</a>
<a xlink:href="debug-0x7f8adc2207a0.svg">
<text x="709.700000" y="114.000000" font-family="Arial" font-size="7" text-anchor="middle" fill="#FFFFFF">debug_bus(2)(... 2.0f, 1.0f))</text>
</a>
<circle cx="647.200000" cy="90.000000" r="1"/>
<line x1="642.200000" y1="91.000000" x2="645.200000" y2="92.000000"  transform="rotate(0.000000,645.200000,92.000000)" style="stroke: black; stroke-width:0.25;"/>
<line x1="642.200000" y1="93.000000" x2="645.200000" y2="92.000000"  transform="rotate(0.000000,645.200000,92.000000)" style="stroke: black; stroke-width:0.25;"/>
<line x1="642.200000" y1="99.000000" x2="645.200000" y2="100.000000"  transform="rotate(0.000000,645.200000,100.000000)" style="stroke: black; stroke-width:0.25;"/>
<line x1="642.200000" y1="101.000000" x2="645.200000" y2="100.000000"  transform="rotate(0.000000,645.200000,100.000000)" style="stroke: black; stroke-width:0.25;"/>
<line x1="642.200000" y1="107.000000" x2="645.200000" y2="108.000000"  transform="rotate(0.000000,645.200000,108.000000)" style="stroke: black; stroke-width:0.25;"/>
<line x1="642.200000" y1="109.000000" x2="645.200000" y2="108.000000"  transform="rotate(0.000000,645.200000,108.000000)" style="stroke: black; stroke-width:0.25;"/>
<line x1="642.200000" y1="115.000000" x2="645.200000" y2="116.000000"  transform="rotate(0.000000,645.200000,116.000000)" style="stroke: black; stroke-width:0.25;"/>
<line x1="642.200000" y1="117.000000" x2="645.200000" y2="116.000000"  transform="rotate(0.000000,645.200000,116.000000)" style="stroke: black; stroke-width:0.25;"/>
<line x1="642.200000" y1="123.000000" x2="645.200000" y2="124.000000"  transform="rotate(0.000000,645.200000,124.000000)" style="stroke: black; stroke-width:0.25;"/>
<line x1="642.200000" y1="125.000000" x2="645.200000" y2="124.000000"  transform="rotate(0.000000,645.200000,124.000000)" style="stroke: black; stroke-width:0.25;"/>
<line x1="642.200000" y1="131.000000" x2="645.200000" y2="132.000000"  transform="rotate(0.000000,645.200000,132.000000)" style="stroke: black; stroke-width:0.25;"/>
<line x1="642.200000" y1="133.000000" x2="645.200000" y2="132.000000"  transform="rotate(0.000000,645.200000,132.000000)" style="stroke: black; stroke-width:0.25;"/>
<line x1="15.000000" y1="15.000000" x2="15.000000" y2="153.000000"  style="stroke: black; stroke-linecap:round; stroke-width:0.25; stroke-dasharray:3,3;"/>
<line x1="15.000000" y1="153.000000" x2="839.200000" y2="153.000000"  style="stroke: black; stroke-linecap:round; stroke-width:0.25; stroke-dasharray:3,3;"/>
<line x1="839.200000" y1="153.000000" x2="839.200000" y2="15.000000"  style="stroke: black; stroke-linecap:round; stroke-width:0.25; stroke-dasharray:3,3;"/>
<line x1="15.000000" y1="15.000000" x2="20.000000" y2="15.000000"  style="stroke: black; stroke-linecap:round; stroke-width:0.25; stroke-dasharray:3,3;"/>
<line x1="119.975000" y1="15.000000" x2="839.200000" y2="15.000000"  style="stroke: black; stroke-linecap:round; stroke-width:0.25; stroke-dasharray:3,3;"/>
<text x="20.000000" y="17.000000" font-family="Arial" font-size="7">qam_single_de...0000000001f))</text>
<line x1="841.200000" y1="55.000000" x2="844.200000" y2="56.000000"  transform="rotate(0.000000,844.200000,56.000000)" style="stroke: black; stroke-width:0.25;"/>
<line x1="841.200000" y1="57.000000" x2="844.200000" y2="56.000000"  transform="rotate(0.000000,844.200000,56.000000)" style="stroke: black; stroke-width:0.25;"/>
<line x1="841.200000" y1="63.000000" x2="844.200000" y2="64.000000"  transform="rotate(0.000000,844.200000,64.000000)" style="stroke: black; stroke-width:0.25;"/>
<line x1="841.200000" y1="65.000000" x2="844.200000" y2="64.000000"  transform="rotate(0.000000,844.200000,64.000000)" style="stroke: black; stroke-width:0.25;"/>
<line x1="841.200000" y1="71.000000" x2="844.200000" y2="72.000000"  transform="rotate(0.000000,844.200000,72.000000)" style="stroke: black; stroke-width:0.25;"/>
<line x1="841.200000" y1="73.000000" x2="844.200000" y2="72.000000"  transform="rotate(0.000000,844.200000,72.000000)" style="stroke: black; stroke-width:0.25;"/>
<line x1="841.200000" y1="79.000000" x2="844.200000" y2="80.000000"  transform="rotate(0.000000,844.200000,80.000000)" style="stroke: black; stroke-width:0.25;"/>
<line x1="841.200000" y1="81.000000" x2="844.200000" y2="80.000000"  transform="rotate(0.000000,844.200000,80.000000)" style="stroke: black; stroke-width:0.25;"/>
<line x1="841.200000" y1="87.000000" x2="844.200000" y2="88.000000"  transform="rotate(0.000000,844.200000,88.000000)" style="stroke: black; stroke-width:0.25;"/>
<line x1="841.200000" y1="89.000000" x2="844.200000" y2="88.000000"  transform="rotate(0.000000,844.200000,88.000000)" style="stroke: black; stroke-width:0.25;"/>
<line x1="841.200000" y1="95.000000" x2="844.200000" y2="96.000000"  transform="rotate(0.000000,844.200000,96.000000)" style="stroke: black; stroke-width:0.25;"/>
<line x1="841.200000" y1="97.000000" x2="844.200000" y2="96.000000"  transform="rotate(0.000000,844.200000,96.000000)" style="stroke: black; stroke-width:0.25;"/>
<line x1="841.200000" y1="103.000000" x2="844.200000" y2="104.000000"  transform="rotate(0.000000,844.200000,104.000000)" style="stroke: black; stroke-width:0.25;"/>
<line x1="841.200000" y1="105.000000" x2="844.200000" y2="104.000000"  transform="rotate(0.000000,844.200000,104.000000)" style="stroke: black; stroke-width:0.25;"/>
<line x1="841.200000" y1="111.000000" x2="844.200000" y2="112.000000"  transform="rotate(0.000000,844.200000,112.000000)" style="stroke: black; stroke-width:0.25;"/>
<line x1="841.200000" y1="113.000000" x2="844.200000" y2="112.000000"  transform="rotate(0.000000,844.200000,112.000000)" style="stroke: black; stroke-width:0.25;"/>
<line x1="10.000000" y1="72.000000" x2="20.000000" y2="72.000000"  style="stroke:black; stroke-linecap:round; stroke-width:0.25;"/>
<line x1="10.000000" y1="80.000000" x2="20.000000" y2="80.000000"  style="stroke:black; stroke-linecap:round; stroke-width:0.25;"/>
<line x1="10.000000" y1="88.000000" x2="20.000000" y2="88.000000"  style="stroke:black; stroke-linecap:round; stroke-width:0.25;"/>
<line x1="10.000000" y1="96.000000" x2="20.000000" y2="96.000000"  style="stroke:black; stroke-linecap:round; stroke-width:0.25;"/>
<line x1="20.000000" y1="72.000000" x2="24.000000" y2="72.000000"  style="stroke:black; stroke-linecap:round; stroke-width:0.25;"/>
<line x1="20.000000" y1="80.000000" x2="24.000000" y2="80.000000"  style="stroke:black; stroke-linecap:round; stroke-width:0.25;"/>
<line x1="20.000000" y1="88.000000" x2="24.000000" y2="88.000000"  style="stroke:black; stroke-linecap:round; stroke-width:0.25;"/>
<line x1="20.000000" y1="96.000000" x2="24.000000" y2="96.000000"  style="stroke:black; stroke-linecap:round; stroke-width:0.25;"/>
<line x1="24.000000" y1="72.000000" x2="28.000000" y2="72.000000"  style="stroke:black; stroke-linecap:round; stroke-width:0.25;"/>
<line x1="24.000000" y1="80.000000" x2="28.000000" y2="80.000000"  style="stroke:black; stroke-linecap:round; stroke-width:0.25;"/>
<line x1="24.000000" y1="88.000000" x2="28.000000" y2="88.000000"  style="stroke:black; stroke-linecap:round; stroke-width:0.25;"/>
<line x1="24.000000" y1="96.000000" x2="28.000000" y2="96.000000"  style="stroke:black; stroke-linecap:round; stroke-width:0.25;"/>
<line x1="28.000000" y1="36.000000" x2="44.000000" y2="36.000000"  style="stroke:black; stroke-linecap:round; stroke-width:0.25;"/>
<line x1="28.000000" y1="72.000000" x2="28.000000" y2="36.000000"  style="stroke:black; stroke-linecap:round; stroke-width:0.25;"/>
<line x1="28.000000" y1="72.000000" x2="28.000000" y2="72.000000"  style="stroke:black; stroke-linecap:round; stroke-width:0.25;"/>
<line x1="28.000000" y1="80.000000" x2="36.000000" y2="80.000000"  style="stroke:black; stroke-linecap:round; stroke-width:0.25;"/>
<line x1="28.000000" y1="88.000000" x2="44.000000" y2="88.000000"  style="stroke:black; stroke-linecap:round; stroke-width:0.25;"/>
<line x1="28.000000" y1="96.000000" x2="36.000000" y2="96.000000"  style="stroke:black; stroke-linecap:round; stroke-width:0.25;"/>
<line x1="36.000000" y1="68.000000" x2="44.000000" y2="68.000000"  style="stroke:black; stroke-linecap:round; stroke-width:0.25;"/>
<line x1="36.000000" y1="80.000000" x2="36.000000" y2="68.000000"  style="stroke:black; stroke-linecap:round; stroke-width:0.25;"/>
<line x1="36.000000" y1="96.000000" x2="36.000000" y2="132.000000"  style="stroke:black; stroke-linecap:round; stroke-width:0.25;"/>
<line x1="36.000000" y1="132.000000" x2="44.000000" y2="132.000000"  style="stroke:black; stroke-linecap:round; stroke-width:0.25;"/>
<line x1="44.000000" y1="36.000000" x2="48.000000" y2="36.000000"  style="stroke:black; stroke-linecap:round; stroke-width:0.25;"/>
<line x1="44.000000" y1="68.000000" x2="48.000000" y2="68.000000"  style="stroke:black; stroke-linecap:round; stroke-width:0.25;"/>
<line x1="44.000000" y1="88.000000" x2="44.000000" y2="100.000000"  style="stroke:black; stroke-linecap:round; stroke-width:0.25;"/>
<line x1="44.000000" y1="100.000000" x2="44.000000" y2="100.000000"  style="stroke:black; stroke-linecap:round; stroke-width:0.25;"/>
<line x1="44.000000" y1="100.000000" x2="50.450000" y2="100.000000"  style="stroke:black; stroke-linecap:round; stroke-width:0.25;"/>
<line x1="44.000000" y1="132.000000" x2="50.450000" y2="132.000000"  style="stroke:black; stroke-linecap:round; stroke-width:0.25;"/>
<line x1="50.450000" y1="100.000000" x2="54.450000" y2="100.000000"  style="stroke:black; stroke-linecap:round; stroke-width:0.25;"/>
<line x1="50.450000" y1="132.000000" x2="54.450000" y2="132.000000"  style="stroke:black; stroke-linecap:round; stroke-width:0.25;"/>
<line x1="120.500000" y1="100.000000" x2="124.500000" y2="100.000000"  style="stroke:black; stroke-linecap:round; stroke-width:0.25;"/>
<line x1="124.500000" y1="100.000000" x2="124.500000" y2="100.000000"  style="stroke:black; stroke-linecap:round; stroke-width:0.25;"/>
<line x1="124.500000" y1="100.000000" x2="128.500000" y2="100.000000"  style="stroke:black; stroke-linecap:round; stroke-width:0.25;"/>
<line x1="195.450000" y1="68.000000" x2="199.450000" y2="68.000000"  style="stroke:black; stroke-linecap:round; stroke-width:0.25;"/>
<line x1="199.450000" y1="68.000000" x2="261.500000" y2="68.000000"  style="stroke:black; stroke-linecap:round; stroke-width:0.25;"/>
<line x1="257.500000" y1="100.000000" x2="261.500000" y2="100.000000"  style="stroke:black; stroke-linecap:round; stroke-width:0.25;"/>
<line x1="261.500000" y1="68.000000" x2="269.500000" y2="68.000000"  style="stroke:black; stroke-linecap:round; stroke-width:0.25;"/>
<line x1="261.500000" y1="88.000000" x2="269.500000" y2="88.000000"  style="stroke:black; stroke-linecap:round; stroke-width:0.25;"/>
<line x1="261.500000" y1="100.000000" x2="261.500000" y2="88.000000"  style="stroke:black; stroke-linecap:round; stroke-width:0.25;"/>
<line x1="261.500000" y1="100.000000" x2="261.500000" y2="100.000000"  style="stroke:black; stroke-linecap:round; stroke-width:0.25;"/>
<line x1="269.500000" y1="68.000000" x2="269.500000" y2="80.000000"  style="stroke:black; stroke-linecap:round; stroke-width:0.25;"/>
<line x1="269.500000" y1="80.000000" x2="269.500000" y2="80.000000"  style="stroke:black; stroke-linecap:round; stroke-width:0.25;"/>
<line x1="269.500000" y1="80.000000" x2="273.500000" y2="80.000000"  style="stroke:black; stroke-linecap:round; stroke-width:0.25;"/>
<line x1="269.500000" y1="88.000000" x2="273.500000" y2="88.000000"  style="stroke:black; stroke-linecap:round; stroke-width:0.25;"/>
<line x1="325.100000" y1="80.000000" x2="329.100000" y2="80.000000"  style="stroke:black; stroke-linecap:round; stroke-width:0.25;"/>
<line x1="325.100000" y1="88.000000" x2="329.100000" y2="88.000000"  style="stroke:black; stroke-linecap:round; stroke-width:0.25;"/>
<line x1="329.100000" y1="68.000000" x2="337.100000" y2="68.000000"  style="stroke:black; stroke-linecap:round; stroke-width:0.25;"/>
<line x1="329.100000" y1="80.000000" x2="329.100000" y2="68.000000"  style="stroke:black; stroke-linecap:round; stroke-width:0.25;"/>
<line x1="329.100000" y1="80.000000" x2="329.100000" y2="80.000000"  style="stroke:black; stroke-linecap:round; stroke-width:0.25;"/>
<line x1="329.100000" y1="88.000000" x2="337.100000" y2="88.000000"  style="stroke:black; stroke-linecap:round; stroke-width:0.25;"/>
<line x1="337.100000" y1="68.000000" x2="341.100000" y2="68.000000"  style="stroke:black; stroke-linecap:round; stroke-width:0.25;"/>
<line x1="337.100000" y1="88.000000" x2="337.100000" y2="100.000000"  style="stroke:black; stroke-linecap:round; stroke-width:0.25;"/>
<line x1="337.100000" y1="100.000000" x2="337.100000" y2="100.000000"  style="stroke:black; stroke-linecap:round; stroke-width:0.25;"/>
<line x1="337.100000" y1="100.000000" x2="341.100000" y2="100.000000"  style="stroke:black; stroke-linecap:round; stroke-width:0.25;"/>
<line x1="379.800000" y1="68.000000" x2="383.800000" y2="68.000000"  style="stroke:black; stroke-linecap:round; stroke-width:0.25;"/>
<line x1="379.800000" y1="100.000000" x2="383.800000" y2="100.000000"  style="stroke:black; stroke-linecap:round; stroke-width:0.25;"/>
<line x1="383.800000" y1="68.000000" x2="427.800000" y2="72.000000"  style="stroke:black; stroke-linecap:round; stroke-width:0.25;"/>
<line x1="383.800000" y1="68.000000" x2="427.800000" y2="104.000000"  style="stroke:black; stroke-linecap:round; stroke-width:0.25;"/>
<line x1="383.800000" y1="100.000000" x2="427.800000" y2="80.000000"  style="stroke:black; stroke-linecap:round; stroke-width:0.25;"/>
<line x1="383.800000" y1="100.000000" x2="427.800000" y2="112.000000"  style="stroke:black; stroke-linecap:round; stroke-width:0.25;"/>
<line x1="427.800000" y1="72.000000" x2="431.800000" y2="72.000000"  style="stroke:black; stroke-linecap:round; stroke-width:0.25;"/>
<line x1="427.800000" y1="80.000000" x2="431.800000" y2="80.000000"  style="stroke:black; stroke-linecap:round; stroke-width:0.25;"/>
<line x1="427.800000" y1="104.000000" x2="451.150000" y2="104.000000"  style="stroke:black; stroke-linecap:round; stroke-width:0.25;"/>
<line x1="427.800000" y1="112.000000" x2="451.150000" y2="112.000000"  style="stroke:black; stroke-linecap:round; stroke-width:0.25;"/>
<line x1="451.150000" y1="104.000000" x2="474.500000" y2="104.000000"  style="stroke:black; stroke-linecap:round; stroke-width:0.25;"/>
<line x1="451.150000" y1="112.000000" x2="474.500000" y2="112.000000"  style="stroke:black; stroke-linecap:round; stroke-width:0.25;"/>
<line x1="470.500000" y1="60.000000" x2="474.500000" y2="60.000000"  style="stroke:black; stroke-linecap:round; stroke-width:0.25;"/>
<line x1="470.500000" y1="68.000000" x2="474.500000" y2="68.000000"  style="stroke:black; stroke-linecap:round; stroke-width:0.25;"/>
<line x1="470.500000" y1="76.000000" x2="474.500000" y2="76.000000"  style="stroke:black; stroke-linecap:round; stroke-width:0.25;"/>
<line x1="470.500000" y1="84.000000" x2="474.500000" y2="84.000000"  style="stroke:black; stroke-linecap:round; stroke-width:0.25;"/>
<line x1="470.500000" y1="92.000000" x2="474.500000" y2="92.000000"  style="stroke:black; stroke-linecap:round; stroke-width:0.25;"/>
<line x1="474.500000" y1="52.000000" x2="506.500000" y2="52.000000"  style="stroke:black; stroke-linecap:round; stroke-width:0.25;"/>
<line x1="474.500000" y1="60.000000" x2="474.500000" y2="52.000000"  style="stroke:black; stroke-linecap:round; stroke-width:0.25;"/>
<line x1="474.500000" y1="60.000000" x2="474.500000" y2="60.000000"  style="stroke:black; stroke-linecap:round; stroke-width:0.25;"/>
<line x1="474.500000" y1="68.000000" x2="506.500000" y2="68.000000"  style="stroke:black; stroke-linecap:round; stroke-width:0.25;"/>
<line x1="474.500000" y1="76.000000" x2="506.500000" y2="76.000000"  style="stroke:black; stroke-linecap:round; stroke-width:0.25;"/>
<line x1="474.500000" y1="84.000000" x2="506.500000" y2="84.000000"  style="stroke:black; stroke-linecap:round; stroke-width:0.25;"/>
<line x1="474.500000" y1="92.000000" x2="498.500000" y2="92.000000"  style="stroke:black; stroke-linecap:round; stroke-width:0.25;"/>
<line x1="474.500000" y1="104.000000" x2="490.500000" y2="104.000000"  style="stroke:black; stroke-linecap:round; stroke-width:0.25;"/>
<line x1="474.500000" y1="112.000000" x2="482.500000" y2="112.000000"  style="stroke:black; stroke-linecap:round; stroke-width:0.25;"/>
<line x1="482.500000" y1="112.000000" x2="482.500000" y2="116.000000"  style="stroke:black; stroke-linecap:round; stroke-width:0.25;"/>
<line x1="482.500000" y1="116.000000" x2="506.500000" y2="116.000000"  style="stroke:black; stroke-linecap:round; stroke-width:0.25;"/>
<line x1="490.500000" y1="104.000000" x2="490.500000" y2="108.000000"  style="stroke:black; stroke-linecap:round; stroke-width:0.25;"/>
<line x1="490.500000" y1="108.000000" x2="506.500000" y2="108.000000"  style="stroke:black; stroke-linecap:round; stroke-width:0.25;"/>
<line x1="498.500000" y1="92.000000" x2="498.500000" y2="100.000000"  style="stroke:black; stroke-linecap:round; stroke-width:0.25;"/>
<line x1="498.500000" y1="100.000000" x2="506.500000" y2="100.000000"  style="stroke:black; stroke-linecap:round; stroke-width:0.25;"/>
<line x1="506.500000" y1="52.000000" x2="541.850000" y2="52.000000"  style="stroke:black; stroke-linecap:round; stroke-width:0.25;"/>
<line x1="506.500000" y1="68.000000" x2="510.500000" y2="68.000000"  style="stroke:black; stroke-linecap:round; stroke-width:0.25;"/>
<line x1="506.500000" y1="76.000000" x2="510.500000" y2="76.000000"  style="stroke:black; stroke-linecap:round; stroke-width:0.25;"/>
<line x1="506.500000" y1="84.000000" x2="506.500000" y2="92.000000"  style="stroke:black; stroke-linecap:round; stroke-width:0.25;"/>
<line x1="506.500000" y1="92.000000" x2="506.500000" y2="92.000000"  style="stroke:black; stroke-linecap:round; stroke-width:0.25;"/>
<line x1="506.500000" y1="92.000000" x2="541.850000" y2="92.000000"  style="stroke:black; stroke-linecap:round; stroke-width:0.25;"/>
<line x1="506.500000" y1="100.000000" x2="541.850000" y2="100.000000"  style="stroke:black; stroke-linecap:round; stroke-width:0.25;"/>
<line x1="506.500000" y1="108.000000" x2="541.850000" y2="108.000000"  style="stroke:black; stroke-linecap:round; stroke-width:0.25;"/>
<line x1="506.500000" y1="116.000000" x2="541.850000" y2="116.000000"  style="stroke:black; stroke-linecap:round; stroke-width:0.25;"/>
<line x1="541.850000" y1="52.000000" x2="577.200000" y2="52.000000"  style="stroke:black; stroke-linecap:round; stroke-width:0.25;"/>
<line x1="541.850000" y1="92.000000" x2="577.200000" y2="92.000000"  style="stroke:black; stroke-linecap:round; stroke-width:0.25;"/>
<line x1="541.850000" y1="100.000000" x2="577.200000" y2="100.000000"  style="stroke:black; stroke-linecap:round; stroke-width:0.25;"/>
<line x1="541.850000" y1="108.000000" x2="577.200000" y2="108.000000"  style="stroke:black; stroke-linecap:round; stroke-width:0.25;"/>
<line x1="541.850000" y1="116.000000" x2="577.200000" y2="116.000000"  style="stroke:black; stroke-linecap:round; stroke-width:0.25;"/>
<line x1="549.200000" y1="68.000000" x2="553.200000" y2="68.000000"  style="stroke:black; stroke-linecap:round; stroke-width:0.25;"/>
<line x1="549.200000" y1="76.000000" x2="553.200000" y2="76.000000"  style="stroke:black; stroke-linecap:round; stroke-width:0.25;"/>
<line x1="553.200000" y1="68.000000" x2="569.200000" y2="60.000000"  style="stroke:black; stroke-linecap:round; stroke-width:0.25;"/>
<line x1="553.200000" y1="68.000000" x2="569.200000" y2="76.000000"  style="stroke:black; stroke-linecap:round; stroke-width:0.25;"/>
<line x1="553.200000" y1="76.000000" x2="569.200000" y2="68.000000"  style="stroke:black; stroke-linecap:round; stroke-width:0.25;"/>
<line x1="553.200000" y1="76.000000" x2="569.200000" y2="84.000000"  style="stroke:black; stroke-linecap:round; stroke-width:0.25;"/>
<line x1="569.200000" y1="60.000000" x2="573.200000" y2="60.000000"  style="stroke:black; stroke-linecap:round; stroke-width:0.25;"/>
<line x1="569.200000" y1="68.000000" x2="573.200000" y2="68.000000"  style="stroke:black; stroke-linecap:round; stroke-width:0.25;"/>
<line x1="569.200000" y1="76.000000" x2="573.200000" y2="76.000000"  style="stroke:black; stroke-linecap:round; stroke-width:0.25;"/>
<line x1="569.200000" y1="84.000000" x2="573.200000" y2="84.000000"  style="stroke:black; stroke-linecap:round; stroke-width:0.25;"/>
<line x1="573.200000" y1="60.000000" x2="577.200000" y2="60.000000"  style="stroke:black; stroke-linecap:round; stroke-width:0.25;"/>
<line x1="573.200000" y1="68.000000" x2="577.200000" y2="68.000000"  style="stroke:black; stroke-linecap:round; stroke-width:0.25;"/>
<line x1="573.200000" y1="76.000000" x2="577.200000" y2="76.000000"  style="stroke:black; stroke-linecap:round; stroke-width:0.25;"/>
<line x1="573.200000" y1="84.000000" x2="577.200000" y2="84.000000"  style="stroke:black; stroke-linecap:round; stroke-width:0.25;"/>
<line x1="577.200000" y1="32.000000" x2="641.200000" y2="32.000000"  style="stroke:black; stroke-linecap:round; stroke-width:0.25;"/>
<line x1="577.200000" y1="52.000000" x2="577.200000" y2="32.000000"  style="stroke:black; stroke-linecap:round; stroke-width:0.25;"/>
<line x1="577.200000" y1="52.000000" x2="577.200000" y2="52.000000"  style="stroke:black; stroke-linecap:round; stroke-width:0.25;"/>
<line x1="577.200000" y1="60.000000" x2="641.200000" y2="60.000000"  style="stroke:black; stroke-linecap:round; stroke-width:0.25;"/>
<line x1="577.200000" y1="68.000000" x2="633.200000" y2="68.000000"  style="stroke:black; stroke-linecap:round; stroke-width:0.25;"/>
<line x1="577.200000" y1="76.000000" x2="625.200000" y2="76.000000"  style="stroke:black; stroke-linecap:round; stroke-width:0.25;"/>
<line x1="577.200000" y1="84.000000" x2="617.200000" y2="84.000000"  style="stroke:black; stroke-linecap:round; stroke-width:0.25;"/>
<line x1="577.200000" y1="92.000000" x2="609.200000" y2="92.000000"  style="stroke:black; stroke-linecap:round; stroke-width:0.25;"/>
<line x1="577.200000" y1="100.000000" x2="601.200000" y2="100.000000"  style="stroke:black; stroke-linecap:round; stroke-width:0.25;"/>
<line x1="577.200000" y1="108.000000" x2="593.200000" y2="108.000000"  style="stroke:black; stroke-linecap:round; stroke-width:0.25;"/>
<line x1="577.200000" y1="116.000000" x2="585.200000" y2="116.000000"  style="stroke:black; stroke-linecap:round; stroke-width:0.25;"/>
<line x1="585.200000" y1="116.000000" x2="585.200000" y2="132.000000"  style="stroke:black; stroke-linecap:round; stroke-width:0.25;"/>
<line x1="585.200000" y1="132.000000" x2="641.200000" y2="132.000000"  style="stroke:black; stroke-linecap:round; stroke-width:0.25;"/>
<line x1="593.200000" y1="108.000000" x2="593.200000" y2="124.000000"  style="stroke:black; stroke-linecap:round; stroke-width:0.25;"/>
<line x1="593.200000" y1="124.000000" x2="641.200000" y2="124.000000"  style="stroke:black; stroke-linecap:round; stroke-width:0.25;"/>
<line x1="601.200000" y1="100.000000" x2="601.200000" y2="116.000000"  style="stroke:black; stroke-linecap:round; stroke-width:0.25;"/>
<line x1="601.200000" y1="116.000000" x2="641.200000" y2="116.000000"  style="stroke:black; stroke-linecap:round; stroke-width:0.25;"/>
<line x1="609.200000" y1="92.000000" x2="609.200000" y2="108.000000"  style="stroke:black; stroke-linecap:round; stroke-width:0.25;"/>
<line x1="609.200000" y1="108.000000" x2="641.200000" y2="108.000000"  style="stroke:black; stroke-linecap:round; stroke-width:0.25;"/>
<line x1="617.200000" y1="84.000000" x2="617.200000" y2="100.000000"  style="stroke:black; stroke-linecap:round; stroke-width:0.25;"/>
<line x1="617.200000" y1="100.000000" x2="641.200000" y2="100.000000"  style="stroke:black; stroke-linecap:round; stroke-width:0.25;"/>
<line x1="625.200000" y1="76.000000" x2="625.200000" y2="92.000000"  style="stroke:black; stroke-linecap:round; stroke-width:0.25;"/>
<line x1="625.200000" y1="92.000000" x2="641.200000" y2="92.000000"  style="stroke:black; stroke-linecap:round; stroke-width:0.25;"/>
<line x1="633.200000" y1="68.000000" x2="633.200000" y2="80.000000"  style="stroke:black; stroke-linecap:round; stroke-width:0.25;"/>
<line x1="633.200000" y1="80.000000" x2="641.200000" y2="80.000000"  style="stroke:black; stroke-linecap:round; stroke-width:0.25;"/>
<line x1="641.200000" y1="32.000000" x2="709.700000" y2="32.000000"  style="stroke:black; stroke-linecap:round; stroke-width:0.25;"/>
<line x1="641.200000" y1="60.000000" x2="641.200000" y2="72.000000"  style="stroke:black; stroke-linecap:round; stroke-width:0.25;"/>
<line x1="641.200000" y1="72.000000" x2="641.200000" y2="72.000000"  style="stroke:black; stroke-linecap:round; stroke-width:0.25;"/>
<line x1="641.200000" y1="72.000000" x2="655.000000" y2="72.000000"  style="stroke:black; stroke-linecap:round; stroke-width:0.25;"/>
<line x1="641.200000" y1="80.000000" x2="655.000000" y2="80.000000"  style="stroke:black; stroke-linecap:round; stroke-width:0.25;"/>
<line x1="641.200000" y1="92.000000" x2="645.200000" y2="92.000000"  style="stroke:black; stroke-linecap:round; stroke-width:0.25;"/>
<line x1="641.200000" y1="100.000000" x2="645.200000" y2="100.000000"  style="stroke:black; stroke-linecap:round; stroke-width:0.25;"/>
<line x1="641.200000" y1="108.000000" x2="645.200000" y2="108.000000"  style="stroke:black; stroke-linecap:round; stroke-width:0.25;"/>
<line x1="641.200000" y1="116.000000" x2="645.200000" y2="116.000000"  style="stroke:black; stroke-linecap:round; stroke-width:0.25;"/>
<line x1="641.200000" y1="124.000000" x2="645.200000" y2="124.000000"  style="stroke:black; stroke-linecap:round; stroke-width:0.25;"/>
<line x1="641.200000" y1="132.000000" x2="645.200000" y2="132.000000"  style="stroke:black; stroke-linecap:round; stroke-width:0.25;"/>
<line x1="655.000000" y1="72.000000" x2="678.350000" y2="72.000000"  style="stroke:black; stroke-linecap:round; stroke-width:0.25;"/>
<line x1="655.000000" y1="80.000000" x2="678.350000" y2="80.000000"  style="stroke:black; stroke-linecap:round; stroke-width:0.25;"/>
<line x1="678.350000" y1="72.000000" x2="701.700000" y2="72.000000"  style="stroke:black; stroke-linecap:round; stroke-width:0.25;"/>
<line x1="678.350000" y1="80.000000" x2="701.700000" y2="80.000000"  style="stroke:black; stroke-linecap:round; stroke-width:0.25;"/>
<line x1="697.700000" y1="52.000000" x2="701.700000" y2="52.000000"  style="stroke:black; stroke-linecap:round; stroke-width:0.25;"/>
<line x1="701.700000" y1="52.000000" x2="717.700000" y2="52.000000"  style="stroke:black; stroke-linecap:round; stroke-width:0.25;"/>
<line x1="701.700000" y1="60.000000" x2="717.700000" y2="60.000000"  style="stroke:black; stroke-linecap:round; stroke-width:0.25;"/>
<line x1="701.700000" y1="72.000000" x2="701.700000" y2="60.000000"  style="stroke:black; stroke-linecap:round; stroke-width:0.25;"/>
<line x1="701.700000" y1="72.000000" x2="701.700000" y2="72.000000"  style="stroke:black; stroke-linecap:round; stroke-width:0.25;"/>
<line x1="701.700000" y1="80.000000" x2="709.700000" y2="80.000000"  style="stroke:black; stroke-linecap:round; stroke-width:0.25;"/>
<line x1="709.700000" y1="32.000000" x2="778.200000" y2="32.000000"  style="stroke:black; stroke-linecap:round; stroke-width:0.25;"/>
<line x1="709.700000" y1="68.000000" x2="717.700000" y2="68.000000"  style="stroke:black; stroke-linecap:round; stroke-width:0.25;"/>
<line x1="709.700000" y1="80.000000" x2="709.700000" y2="68.000000"  style="stroke:black; stroke-linecap:round; stroke-width:0.25;"/>
<line x1="717.700000" y1="52.000000" x2="721.700000" y2="52.000000"  style="stroke:black; stroke-linecap:round; stroke-width:0.25;"/>
<line x1="717.700000" y1="60.000000" x2="721.700000" y2="60.000000"  style="stroke:black; stroke-linecap:round; stroke-width:0.25;"/>
<line x1="717.700000" y1="68.000000" x2="721.700000" y2="68.000000"  style="stroke:black; stroke-linecap:round; stroke-width:0.25;"/>
<line x1="760.400000" y1="60.000000" x2="764.400000" y2="60.000000"  style="stroke:black; stroke-linecap:round; stroke-width:0.25;"/>
<line x1="764.400000" y1="60.000000" x2="778.200000" y2="60.000000"  style="stroke:black; stroke-linecap:round; stroke-width:0.25;"/>
<line x1="774.200000" y1="92.000000" x2="778.200000" y2="92.000000"  style="stroke:black; stroke-linecap:round; stroke-width:0.25;"/>
<line x1="774.200000" y1="100.000000" x2="778.200000" y2="100.000000"  style="stroke:black; stroke-linecap:round; stroke-width:0.25;"/>
<line x1="774.200000" y1="108.000000" x2="778.200000" y2="108.000000"  style="stroke:black; stroke-linecap:round; stroke-width:0.25;"/>
<line x1="774.200000" y1="116.000000" x2="778.200000" y2="116.000000"  style="stroke:black; stroke-linecap:round; stroke-width:0.25;"/>
<line x1="774.200000" y1="124.000000" x2="778.200000" y2="124.000000"  style="stroke:black; stroke-linecap:round; stroke-width:0.25;"/>
<line x1="774.200000" y1="132.000000" x2="778.200000" y2="132.000000"  style="stroke:black; stroke-linecap:round; stroke-width:0.25;"/>
<line x1="778.200000" y1="32.000000" x2="826.200000" y2="32.000000"  style="stroke:black; stroke-linecap:round; stroke-width:0.25;"/>
<line x1="778.200000" y1="60.000000" x2="818.200000" y2="60.000000"  style="stroke:black; stroke-linecap:round; stroke-width:0.25;"/>
<line x1="778.200000" y1="72.000000" x2="826.200000" y2="72.000000"  style="stroke:black; stroke-linecap:round; stroke-width:0.25;"/>
<line x1="778.200000" y1="92.000000" x2="778.200000" y2="72.000000"  style="stroke:black; stroke-linecap:round; stroke-width:0.25;"/>
<line x1="778.200000" y1="92.000000" x2="778.200000" y2="92.000000"  style="stroke:black; stroke-linecap:round; stroke-width:0.25;"/>
<line x1="778.200000" y1="100.000000" x2="786.200000" y2="100.000000"  style="stroke:black; stroke-linecap:round; stroke-width:0.25;"/>
<line x1="778.200000" y1="108.000000" x2="794.200000" y2="108.000000"  style="stroke:black; stroke-linecap:round; stroke-width:0.25;"/>
<line x1="778.200000" y1="116.000000" x2="802.200000" y2="116.000000"  style="stroke:black; stroke-linecap:round; stroke-width:0.25;"/>
<line x1="778.200000" y1="124.000000" x2="810.200000" y2="124.000000"  style="stroke:black; stroke-linecap:round; stroke-width:0.25;"/>
<line x1="778.200000" y1="132.000000" x2="818.200000" y2="132.000000"  style="stroke:black; stroke-linecap:round; stroke-width:0.25;"/>
<line x1="786.200000" y1="80.000000" x2="826.200000" y2="80.000000"  style="stroke:black; stroke-linecap:round; stroke-width:0.25;"/>
<line x1="786.200000" y1="100.000000" x2="786.200000" y2="80.000000"  style="stroke:black; stroke-linecap:round; stroke-width:0.25;"/>
<line x1="794.200000" y1="88.000000" x2="826.200000" y2="88.000000"  style="stroke:black; stroke-linecap:round; stroke-width:0.25;"/>
<line x1="794.200000" y1="108.000000" x2="794.200000" y2="88.000000"  style="stroke:black; stroke-linecap:round; stroke-width:0.25;"/>
<line x1="802.200000" y1="96.000000" x2="826.200000" y2="96.000000"  style="stroke:black; stroke-linecap:round; stroke-width:0.25;"/>
<line x1="802.200000" y1="116.000000" x2="802.200000" y2="96.000000"  style="stroke:black; stroke-linecap:round; stroke-width:0.25;"/>
<line x1="810.200000" y1="104.000000" x2="826.200000" y2="104.000000"  style="stroke:black; stroke-linecap:round; stroke-width:0.25;"/>
<line x1="810.200000" y1="124.000000" x2="810.200000" y2="104.000000"  style="stroke:black; stroke-linecap:round; stroke-width:0.25;"/>
<line x1="818.200000" y1="60.000000" x2="818.200000" y2="64.000000"  style="stroke:black; stroke-linecap:round; stroke-width:0.25;"/>
<line x1="818.200000" y1="64.000000" x2="826.200000" y2="64.000000"  style="stroke:black; stroke-linecap:round; stroke-width:0.25;"/>
<line x1="818.200000" y1="112.000000" x2="826.200000" y2="112.000000"  style="stroke:black; stroke-linecap:round; stroke-width:0.25;"/>
<line x1="818.200000" y1="132.000000" x2="818.200000" y2="112.000000"  style="stroke:black; stroke-linecap:round; stroke-width:0.25;"/>
<line x1="826.200000" y1="32.000000" x2="826.200000" y2="56.000000"  style="stroke:black; stroke-linecap:round; stroke-width:0.25;"/>
<line x1="826.200000" y1="56.000000" x2="826.200000" y2="56.000000"  style="stroke:black; stroke-linecap:round; stroke-width:0.25;"/>
<line x1="826.200000" y1="56.000000" x2="830.200000" y2="56.000000"  style="stroke:black; stroke-linecap:round; stroke-width:0.25;"/>
<line x1="826.200000" y1="64.000000" x2="830.200000" y2="64.000000"  style="stroke:black; stroke-linecap:round; stroke-width:0.25;"/>
<line x1="826.200000" y1="72.000000" x2="830.200000" y2="72.000000"  style="stroke:black; stroke-linecap:round; stroke-width:0.25;"/>
<line x1="826.200000" y1="80.000000" x2="830.200000" y2="80.000000"  style="stroke:black; stroke-linecap:round; stroke-width:0.25;"/>
<line x1="826.200000" y1="88.000000" x2="830.200000" y2="88.000000"  style="stroke:black; stroke-linecap:round; stroke-width:0.25;"/>
<line x1="826.200000" y1="96.000000" x2="830.200000" y2="96.000000"  style="stroke:black; stroke-linecap:round; stroke-width:0.25;"/>
<line x1="826.200000" y1="104.000000" x2="830.200000" y2="104.000000"  style="stroke:black; stroke-linecap:round; stroke-width:0.25;"/>
<line x1="826.200000" y1="112.000000" x2="830.200000" y2="112.000000"  style="stroke:black; stroke-linecap:round; stroke-width:0.25;"/>
<line x1="830.200000" y1="56.000000" x2="834.200000" y2="56.000000"  style="stroke:black; stroke-linecap:round; stroke-width:0.25;"/>
<line x1="830.200000" y1="64.000000" x2="834.200000" y2="64.000000"  style="stroke:black; stroke-linecap:round; stroke-width:0.25;"/>
<line x1="830.200000" y1="72.000000" x2="834.200000" y2="72.000000"  style="stroke:black; stroke-linecap:round; stroke-width:0.25;"/>
<line x1="830.200000" y1="80.000000" x2="834.200000" y2="80.000000"  style="stroke:black; stroke-linecap:round; stroke-width:0.25;"/>
<line x1="830.200000" y1="88.000000" x2="834.200000" y2="88.000000"  style="stroke:black; stroke-linecap:round; stroke-width:0.25;"/>
<line x1="830.200000" y1="96.000000" x2="834.200000" y2="96.000000"  style="stroke:black; stroke-linecap:round; stroke-width:0.25;"/>
<line x1="830.200000" y1="104.000000" x2="834.200000" y2="104.000000"  style="stroke:black; stroke-linecap:round; stroke-width:0.25;"/>
<line x1="830.200000" y1="112.000000" x2="834.200000" y2="112.000000"  style="stroke:black; stroke-linecap:round; stroke-width:0.25;"/>
<line x1="834.200000" y1="56.000000" x2="844.200000" y2="56.000000"  style="stroke:black; stroke-linecap:round; stroke-width:0.25;"/>
<line x1="834.200000" y1="64.000000" x2="844.200000" y2="64.000000"  style="stroke:black; stroke-linecap:round; stroke-width:0.25;"/>
<line x1="834.200000" y1="72.000000" x2="844.200000" y2="72.000000"  style="stroke:black; stroke-linecap:round; stroke-width:0.25;"/>
<line x1="834.200000" y1="80.000000" x2="844.200000" y2="80.000000"  style="stroke:black; stroke-linecap:round; stroke-width:0.25;"/>
<line x1="834.200000" y1="88.000000" x2="844.200000" y2="88.000000"  style="stroke:black; stroke-linecap:round; stroke-width:0.25;"/>
<line x1="834.200000" y1="96.000000" x2="844.200000" y2="96.000000"  style="stroke:black; stroke-linecap:round; stroke-width:0.25;"/>
<line x1="834.200000" y1="104.000000" x2="844.200000" y2="104.000000"  style="stroke:black; stroke-linecap:round; stroke-width:0.25;"/>
<line x1="834.200000" y1="112.000000" x2="844.200000" y2="112.000000"  style="stroke:black; stroke-linecap:round; stroke-width:0.25;"/>
</svg>
