<?xml version="1.0"?>
<svg xmlns="http://www.w3.org/2000/svg" xmlns:xlink="http://www.w3.org/1999/xlink" viewBox="0 0 780.000000 200.000000" width="390.000000mm" height="100.000000mm" version="1.1">
<a xlink:href="process.svg">
<rect x="1.000000" y="1.000000" width="779.000000" height="199.000000" rx="0" ry="0" style="stroke:none;fill:#cccccc;"/>
<rect x="0.000000" y="0.000000" width="779.000000" height="199.000000" rx="0" ry="0" style="stroke:none;fill:#ffffff;"/>
</a>
<text x="10.000000" y="7.000000" font-family="Arial" font-size="7"></text>
<rect x="53.900000" y="57.000000" width="25.800000" height="24.000000" rx="0" ry="0" style="stroke:none;fill:#cccccc;"/>
<rect x="52.900000" y="56.000000" width="25.800000" height="24.000000" rx="0" ry="0" style="stroke:none;fill:#47945E;"/>
<text x="65.800000" y="70.000000" font-family="Arial" font-size="7" text-anchor="middle" fill="#FFFFFF">clock</text>
<circle cx="54.900000" cy="58.000000" r="1"/>
<line x1="49.900000" y1="67.000000" x2="52.900000" y2="68.000000"  transform="rotate(0.000000,52.900000,68.000000)" style="stroke: black; stroke-width:0.25;"/>
<line x1="49.900000" y1="69.000000" x2="52.900000" y2="68.000000"  transform="rotate(0.000000,52.900000,68.000000)" style="stroke: black; stroke-width:0.25;"/>
<rect x="41.000000" y="89.000000" width="51.600000" height="24.000000" rx="0" ry="0" style="stroke:none;fill:#cccccc;"/>
<rect x="40.000000" y="88.000000" width="51.600000" height="24.000000" rx="0" ry="0" style="stroke:none;fill:#47945E;"/>
<text x="65.800000" y="102.000000" font-family="Arial" font-size="7" text-anchor="middle" fill="#FFFFFF">phase_error</text>
<circle cx="42.000000" cy="90.000000" r="1"/>
<line x1="37.000000" y1="99.000000" x2="40.000000" y2="100.000000"  transform="rotate(0.000000,40.000000,100.000000)" style="stroke: black; stroke-width:0.25;"/>
<line x1="37.000000" y1="101.000000" x2="40.000000" y2="100.000000"  transform="rotate(0.000000,40.000000,100.000000)" style="stroke: black; stroke-width:0.25;"/>
<rect x="53.900000" y="121.000000" width="25.800000" height="24.000000" rx="0" ry="0" style="stroke:none;fill:#cccccc;"/>
<rect x="52.900000" y="120.000000" width="25.800000" height="24.000000" rx="0" ry="0" style="stroke:none;fill:#47945E;"/>
<text x="65.800000" y="134.000000" font-family="Arial" font-size="7" text-anchor="middle" fill="#FFFFFF">input</text>
<circle cx="54.900000" cy="122.000000" r="1"/>
<line x1="49.900000" y1="131.000000" x2="52.900000" y2="132.000000"  transform="rotate(0.000000,52.900000,132.000000)" style="stroke: black; stroke-width:0.25;"/>
<line x1="49.900000" y1="133.000000" x2="52.900000" y2="132.000000"  transform="rotate(0.000000,52.900000,132.000000)" style="stroke: black; stroke-width:0.25;"/>
<a xlink:href="demphasor-0x7f8adc175ea0.svg">
<rect x="100.600000" y="25.000000" width="141.900000" height="24.000000" rx="0" ry="0" style="stroke:none;fill:#cccccc;"/>
<rect x="99.600000" y="24.000000" width="141.900000" height="24.000000" rx="0" ry="0" style="stroke:none;fill:#003366;"/>
</a>
<a xlink:href="demphasor-0x7f8adc175ea0.svg">
<text x="170.550000" y="38.000000" font-family="Arial" font-size="7" text-anchor="middle" fill="#FFFFFF">demphasor(hsl...0.0f, 0.01f))(x3)</text>
</a>
<circle cx="101.600000" cy="26.000000" r="1"/>
<a xlink:href="force-0x7f8adc1778d0.svg">
<rect x="250.500000" y="25.000000" width="64.500000" height="24.000000" rx="0" ry="0" style="stroke:none;fill:#cccccc;"/>
<rect x="249.500000" y="24.000000" width="64.500000" height="24.000000" rx="0" ry="0" style="stroke:none;fill:#003366;"/>
</a>
<a xlink:href="force-0x7f8adc1778d0.svg">
<text x="281.750000" y="38.000000" font-family="Arial" font-size="7" text-anchor="middle" fill="#FFFFFF">force_rotation</text>
</a>
<circle cx="251.500000" cy="26.000000" r="1"/>
<line x1="246.500000" y1="35.000000" x2="249.500000" y2="36.000000"  transform="rotate(0.000000,249.500000,36.000000)" style="stroke: black; stroke-width:0.25;"/>
<line x1="246.500000" y1="37.000000" x2="249.500000" y2="36.000000"  transform="rotate(0.000000,249.500000,36.000000)" style="stroke: black; stroke-width:0.25;"/>
<a xlink:href="modphasor-0x7f8adc177b00.svg">
<rect x="143.300000" y="57.000000" width="129.000000" height="24.000000" rx="0" ry="0" style="stroke:none;fill:#cccccc;"/>
<rect x="142.300000" y="56.000000" width="129.000000" height="24.000000" rx="0" ry="0" style="stroke:none;fill:#003366;"/>
</a>
<a xlink:href="modphasor-0x7f8adc177b00.svg">
<text x="206.800000" y="70.000000" font-family="Arial" font-size="7" text-anchor="middle" fill="#FFFFFF">modphasor(hsl...0.0f, 0.01f))</text>
</a>
<circle cx="144.300000" cy="58.000000" r="1"/>
<rect x="194.900000" y="89.000000" width="25.800000" height="24.000000" rx="0" ry="0" style="stroke:none;fill:#cccccc;"/>
<rect x="193.900000" y="88.000000" width="25.800000" height="24.000000" rx="0" ry="0" style="stroke:none;fill:#47945E;"/>
<text x="206.800000" y="102.000000" font-family="Arial" font-size="7" text-anchor="middle" fill="#FFFFFF">input</text>
<circle cx="195.900000" cy="90.000000" r="1"/>
<rect x="194.900000" y="121.000000" width="25.800000" height="24.000000" rx="0" ry="0" style="stroke:none;fill:#cccccc;"/>
<rect x="193.900000" y="120.000000" width="25.800000" height="24.000000" rx="0" ry="0" style="stroke:none;fill:#47945E;"/>
<text x="206.800000" y="134.000000" font-family="Arial" font-size="7" text-anchor="middle" fill="#FFFFFF">clock</text>
<circle cx="195.900000" cy="122.000000" r="1"/>
<a xlink:href="qam-0x7f8add433b50.svg">
<rect x="339.000000" y="53.000000" width="129.000000" height="64.000000" rx="0" ry="0" style="stroke:none;fill:#cccccc;"/>
<rect x="338.000000" y="52.000000" width="129.000000" height="64.000000" rx="0" ry="0" style="stroke:none;fill:#003366;"/>
</a>
<a xlink:href="qam-0x7f8add433b50.svg">
<text x="402.500000" y="86.000000" font-family="Arial" font-size="7" text-anchor="middle" fill="#FFFFFF">qam_single_de...0000000001f))</text>
</a>
<circle cx="340.000000" cy="54.000000" r="1"/>
<line x1="335.000000" y1="71.000000" x2="338.000000" y2="72.000000"  transform="rotate(0.000000,338.000000,72.000000)" style="stroke: black; stroke-width:0.25;"/>
<line x1="335.000000" y1="73.000000" x2="338.000000" y2="72.000000"  transform="rotate(0.000000,338.000000,72.000000)" style="stroke: black; stroke-width:0.25;"/>
<line x1="335.000000" y1="79.000000" x2="338.000000" y2="80.000000"  transform="rotate(0.000000,338.000000,80.000000)" style="stroke: black; stroke-width:0.25;"/>
<line x1="335.000000" y1="81.000000" x2="338.000000" y2="80.000000"  transform="rotate(0.000000,338.000000,80.000000)" style="stroke: black; stroke-width:0.25;"/>
<line x1="335.000000" y1="87.000000" x2="338.000000" y2="88.000000"  transform="rotate(0.000000,338.000000,88.000000)" style="stroke: black; stroke-width:0.25;"/>
<line x1="335.000000" y1="89.000000" x2="338.000000" y2="88.000000"  transform="rotate(0.000000,338.000000,88.000000)" style="stroke: black; stroke-width:0.25;"/>
<line x1="335.000000" y1="95.000000" x2="338.000000" y2="96.000000"  transform="rotate(0.000000,338.000000,96.000000)" style="stroke: black; stroke-width:0.25;"/>
<line x1="335.000000" y1="97.000000" x2="338.000000" y2="96.000000"  transform="rotate(0.000000,338.000000,96.000000)" style="stroke: black; stroke-width:0.25;"/>
<rect x="271.400000" y="153.000000" width="25.800000" height="24.000000" rx="0" ry="0" style="stroke:none;fill:#cccccc;"/>
<rect x="270.400000" y="152.000000" width="25.800000" height="24.000000" rx="0" ry="0" style="stroke:none;fill:#47945E;"/>
<text x="283.300000" y="166.000000" font-family="Arial" font-size="7" text-anchor="middle" fill="#FFFFFF">clock</text>
<circle cx="272.400000" cy="154.000000" r="1"/>
<a xlink:href="pilot-0x7f8adc172940.svg">
<rect x="524.000000" y="69.000000" width="129.000000" height="24.000000" rx="0" ry="0" style="stroke:none;fill:#cccccc;"/>
<rect x="523.000000" y="68.000000" width="129.000000" height="24.000000" rx="0" ry="0" style="stroke:none;fill:#003366;"/>
</a>
<a xlink:href="pilot-0x7f8adc172940.svg">
<text x="587.500000" y="82.000000" font-family="Arial" font-size="7" text-anchor="middle" fill="#FFFFFF">pilot_ask(hsl...(&quot;bitwrite&quot;))</text>
</a>
<circle cx="525.000000" cy="70.000000" r="1"/>
<rect x="669.000000" y="65.000000" width="24.000000" height="24.000000" rx="0" ry="0" style="stroke:none;fill:#cccccc;"/>
<rect x="668.000000" y="64.000000" width="24.000000" height="24.000000" rx="0" ry="0" style="stroke:none;fill:#4B71A1;"/>
<text x="680.000000" y="78.000000" font-family="Arial" font-size="7" text-anchor="middle" fill="#FFFFFF">+</text>
<circle cx="670.000000" cy="66.000000" r="1"/>
<line x1="665.000000" y1="71.000000" x2="668.000000" y2="72.000000"  transform="rotate(0.000000,668.000000,72.000000)" style="stroke: black; stroke-width:0.25;"/>
<line x1="665.000000" y1="73.000000" x2="668.000000" y2="72.000000"  transform="rotate(0.000000,668.000000,72.000000)" style="stroke: black; stroke-width:0.25;"/>
<line x1="665.000000" y1="79.000000" x2="668.000000" y2="80.000000"  transform="rotate(0.000000,668.000000,80.000000)" style="stroke: black; stroke-width:0.25;"/>
<line x1="665.000000" y1="81.000000" x2="668.000000" y2="80.000000"  transform="rotate(0.000000,668.000000,80.000000)" style="stroke: black; stroke-width:0.25;"/>
<line x1="15.000000" y1="15.000000" x2="15.000000" y2="185.000000"  style="stroke: black; stroke-linecap:round; stroke-width:0.25; stroke-dasharray:3,3;"/>
<line x1="15.000000" y1="185.000000" x2="765.000000" y2="185.000000"  style="stroke: black; stroke-linecap:round; stroke-width:0.25; stroke-dasharray:3,3;"/>
<line x1="765.000000" y1="185.000000" x2="765.000000" y2="15.000000"  style="stroke: black; stroke-linecap:round; stroke-width:0.25; stroke-dasharray:3,3;"/>
<line x1="15.000000" y1="15.000000" x2="20.000000" y2="15.000000"  style="stroke: black; stroke-linecap:round; stroke-width:0.25; stroke-dasharray:3,3;"/>
<line x1="119.975000" y1="15.000000" x2="765.000000" y2="15.000000"  style="stroke: black; stroke-linecap:round; stroke-width:0.25; stroke-dasharray:3,3;"/>
<text x="20.000000" y="17.000000" font-family="Arial" font-size="7">qam_bisp_debu...0000000001f))</text>
<line x1="767.000000" y1="67.000000" x2="770.000000" y2="68.000000"  transform="rotate(0.000000,770.000000,68.000000)" style="stroke: black; stroke-width:0.25;"/>
<line x1="767.000000" y1="69.000000" x2="770.000000" y2="68.000000"  transform="rotate(0.000000,770.000000,68.000000)" style="stroke: black; stroke-width:0.25;"/>
<line x1="767.000000" y1="75.000000" x2="770.000000" y2="76.000000"  transform="rotate(0.000000,770.000000,76.000000)" style="stroke: black; stroke-width:0.25;"/>
<line x1="767.000000" y1="77.000000" x2="770.000000" y2="76.000000"  transform="rotate(0.000000,770.000000,76.000000)" style="stroke: black; stroke-width:0.25;"/>
<line x1="767.000000" y1="83.000000" x2="770.000000" y2="84.000000"  transform="rotate(0.000000,770.000000,84.000000)" style="stroke: black; stroke-width:0.25;"/>
<line x1="767.000000" y1="85.000000" x2="770.000000" y2="84.000000"  transform="rotate(0.000000,770.000000,84.000000)" style="stroke: black; stroke-width:0.25;"/>
<line x1="767.000000" y1="91.000000" x2="770.000000" y2="92.000000"  transform="rotate(0.000000,770.000000,92.000000)" style="stroke: black; stroke-width:0.25;"/>
<line x1="767.000000" y1="93.000000" x2="770.000000" y2="92.000000"  transform="rotate(0.000000,770.000000,92.000000)" style="stroke: black; stroke-width:0.25;"/>
<line x1="767.000000" y1="99.000000" x2="770.000000" y2="100.000000"  transform="rotate(0.000000,770.000000,100.000000)" style="stroke: black; stroke-width:0.25;"/>
<line x1="767.000000" y1="101.000000" x2="770.000000" y2="100.000000"  transform="rotate(0.000000,770.000000,100.000000)" style="stroke: black; stroke-width:0.25;"/>
<line x1="767.000000" y1="107.000000" x2="770.000000" y2="108.000000"  transform="rotate(0.000000,770.000000,108.000000)" style="stroke: black; stroke-width:0.25;"/>
<line x1="767.000000" y1="109.000000" x2="770.000000" y2="108.000000"  transform="rotate(0.000000,770.000000,108.000000)" style="stroke: black; stroke-width:0.25;"/>
<line x1="767.000000" y1="115.000000" x2="770.000000" y2="116.000000"  transform="rotate(0.000000,770.000000,116.000000)" style="stroke: black; stroke-width:0.25;"/>
<line x1="767.000000" y1="117.000000" x2="770.000000" y2="116.000000"  transform="rotate(0.000000,770.000000,116.000000)" style="stroke: black; stroke-width:0.25;"/>
<line x1="767.000000" y1="123.000000" x2="770.000000" y2="124.000000"  transform="rotate(0.000000,770.000000,124.000000)" style="stroke: black; stroke-width:0.25;"/>
<line x1="767.000000" y1="125.000000" x2="770.000000" y2="124.000000"  transform="rotate(0.000000,770.000000,124.000000)" style="stroke: black; stroke-width:0.25;"/>
<line x1="767.000000" y1="131.000000" x2="770.000000" y2="132.000000"  transform="rotate(0.000000,770.000000,132.000000)" style="stroke: black; stroke-width:0.25;"/>
<line x1="767.000000" y1="133.000000" x2="770.000000" y2="132.000000"  transform="rotate(0.000000,770.000000,132.000000)" style="stroke: black; stroke-width:0.25;"/>
<line x1="10.000000" y1="92.000000" x2="20.000000" y2="92.000000"  style="stroke:black; stroke-linecap:round; stroke-width:0.25;"/>
<line x1="10.000000" y1="100.000000" x2="20.000000" y2="100.000000"  style="stroke:black; stroke-linecap:round; stroke-width:0.25;"/>
<line x1="10.000000" y1="108.000000" x2="20.000000" y2="108.000000"  style="stroke:black; stroke-linecap:round; stroke-width:0.25;"/>
<line x1="20.000000" y1="92.000000" x2="24.000000" y2="92.000000"  style="stroke:black; stroke-linecap:round; stroke-width:0.25;"/>
<line x1="20.000000" y1="100.000000" x2="24.000000" y2="100.000000"  style="stroke:black; stroke-linecap:round; stroke-width:0.25;"/>
<line x1="20.000000" y1="108.000000" x2="24.000000" y2="108.000000"  style="stroke:black; stroke-linecap:round; stroke-width:0.25;"/>
<line x1="24.000000" y1="92.000000" x2="28.000000" y2="92.000000"  style="stroke:black; stroke-linecap:round; stroke-width:0.25;"/>
<line x1="24.000000" y1="100.000000" x2="28.000000" y2="100.000000"  style="stroke:black; stroke-linecap:round; stroke-width:0.25;"/>
<line x1="24.000000" y1="108.000000" x2="28.000000" y2="108.000000"  style="stroke:black; stroke-linecap:round; stroke-width:0.25;"/>
<line x1="28.000000" y1="68.000000" x2="36.000000" y2="68.000000"  style="stroke:black; stroke-linecap:round; stroke-width:0.25;"/>
<line x1="28.000000" y1="92.000000" x2="28.000000" y2="68.000000"  style="stroke:black; stroke-linecap:round; stroke-width:0.25;"/>
<line x1="28.000000" y1="92.000000" x2="28.000000" y2="92.000000"  style="stroke:black; stroke-linecap:round; stroke-width:0.25;"/>
<line x1="28.000000" y1="100.000000" x2="36.000000" y2="100.000000"  style="stroke:black; stroke-linecap:round; stroke-width:0.25;"/>
<line x1="28.000000" y1="108.000000" x2="36.000000" y2="108.000000"  style="stroke:black; stroke-linecap:round; stroke-width:0.25;"/>
<line x1="36.000000" y1="68.000000" x2="48.900000" y2="68.000000"  style="stroke:black; stroke-linecap:round; stroke-width:0.25;"/>
<line x1="36.000000" y1="100.000000" x2="40.000000" y2="100.000000"  style="stroke:black; stroke-linecap:round; stroke-width:0.25;"/>
<line x1="36.000000" y1="108.000000" x2="36.000000" y2="132.000000"  style="stroke:black; stroke-linecap:round; stroke-width:0.25;"/>
<line x1="36.000000" y1="132.000000" x2="36.000000" y2="132.000000"  style="stroke:black; stroke-linecap:round; stroke-width:0.25;"/>
<line x1="36.000000" y1="132.000000" x2="48.900000" y2="132.000000"  style="stroke:black; stroke-linecap:round; stroke-width:0.25;"/>
<line x1="48.900000" y1="68.000000" x2="52.900000" y2="68.000000"  style="stroke:black; stroke-linecap:round; stroke-width:0.25;"/>
<line x1="48.900000" y1="132.000000" x2="52.900000" y2="132.000000"  style="stroke:black; stroke-linecap:round; stroke-width:0.25;"/>
<line x1="219.700000" y1="100.000000" x2="223.700000" y2="100.000000"  style="stroke:black; stroke-linecap:round; stroke-width:0.25;"/>
<line x1="219.700000" y1="132.000000" x2="223.700000" y2="132.000000"  style="stroke:black; stroke-linecap:round; stroke-width:0.25;"/>
<line x1="223.700000" y1="100.000000" x2="275.300000" y2="100.000000"  style="stroke:black; stroke-linecap:round; stroke-width:0.25;"/>
<line x1="223.700000" y1="132.000000" x2="275.300000" y2="132.000000"  style="stroke:black; stroke-linecap:round; stroke-width:0.25;"/>
<line x1="241.500000" y1="36.000000" x2="245.500000" y2="36.000000"  style="stroke:black; stroke-linecap:round; stroke-width:0.25;"/>
<line x1="245.500000" y1="36.000000" x2="245.500000" y2="36.000000"  style="stroke:black; stroke-linecap:round; stroke-width:0.25;"/>
<line x1="245.500000" y1="36.000000" x2="249.500000" y2="36.000000"  style="stroke:black; stroke-linecap:round; stroke-width:0.25;"/>
<line x1="271.300000" y1="68.000000" x2="275.300000" y2="68.000000"  style="stroke:black; stroke-linecap:round; stroke-width:0.25;"/>
<line x1="275.300000" y1="68.000000" x2="318.000000" y2="68.000000"  style="stroke:black; stroke-linecap:round; stroke-width:0.25;"/>
<line x1="275.300000" y1="100.000000" x2="318.000000" y2="100.000000"  style="stroke:black; stroke-linecap:round; stroke-width:0.25;"/>
<line x1="275.300000" y1="132.000000" x2="318.000000" y2="132.000000"  style="stroke:black; stroke-linecap:round; stroke-width:0.25;"/>
<line x1="296.200000" y1="164.000000" x2="300.200000" y2="164.000000"  style="stroke:black; stroke-linecap:round; stroke-width:0.25;"/>
<line x1="300.200000" y1="164.000000" x2="471.000000" y2="164.000000"  style="stroke:black; stroke-linecap:round; stroke-width:0.25;"/>
<line x1="314.000000" y1="36.000000" x2="318.000000" y2="36.000000"  style="stroke:black; stroke-linecap:round; stroke-width:0.25;"/>
<line x1="318.000000" y1="36.000000" x2="334.000000" y2="36.000000"  style="stroke:black; stroke-linecap:round; stroke-width:0.25;"/>
<line x1="318.000000" y1="68.000000" x2="326.000000" y2="68.000000"  style="stroke:black; stroke-linecap:round; stroke-width:0.25;"/>
<line x1="318.000000" y1="88.000000" x2="334.000000" y2="88.000000"  style="stroke:black; stroke-linecap:round; stroke-width:0.25;"/>
<line x1="318.000000" y1="100.000000" x2="318.000000" y2="88.000000"  style="stroke:black; stroke-linecap:round; stroke-width:0.25;"/>
<line x1="318.000000" y1="100.000000" x2="318.000000" y2="100.000000"  style="stroke:black; stroke-linecap:round; stroke-width:0.25;"/>
<line x1="318.000000" y1="132.000000" x2="326.000000" y2="132.000000"  style="stroke:black; stroke-linecap:round; stroke-width:0.25;"/>
<line x1="326.000000" y1="68.000000" x2="326.000000" y2="80.000000"  style="stroke:black; stroke-linecap:round; stroke-width:0.25;"/>
<line x1="326.000000" y1="80.000000" x2="334.000000" y2="80.000000"  style="stroke:black; stroke-linecap:round; stroke-width:0.25;"/>
<line x1="326.000000" y1="96.000000" x2="334.000000" y2="96.000000"  style="stroke:black; stroke-linecap:round; stroke-width:0.25;"/>
<line x1="326.000000" y1="132.000000" x2="326.000000" y2="96.000000"  style="stroke:black; stroke-linecap:round; stroke-width:0.25;"/>
<line x1="334.000000" y1="36.000000" x2="334.000000" y2="72.000000"  style="stroke:black; stroke-linecap:round; stroke-width:0.25;"/>
<line x1="334.000000" y1="72.000000" x2="334.000000" y2="72.000000"  style="stroke:black; stroke-linecap:round; stroke-width:0.25;"/>
<line x1="334.000000" y1="72.000000" x2="338.000000" y2="72.000000"  style="stroke:black; stroke-linecap:round; stroke-width:0.25;"/>
<line x1="334.000000" y1="80.000000" x2="338.000000" y2="80.000000"  style="stroke:black; stroke-linecap:round; stroke-width:0.25;"/>
<line x1="334.000000" y1="88.000000" x2="338.000000" y2="88.000000"  style="stroke:black; stroke-linecap:round; stroke-width:0.25;"/>
<line x1="334.000000" y1="96.000000" x2="338.000000" y2="96.000000"  style="stroke:black; stroke-linecap:round; stroke-width:0.25;"/>
<line x1="467.000000" y1="56.000000" x2="471.000000" y2="56.000000"  style="stroke:black; stroke-linecap:round; stroke-width:0.25;"/>
<line x1="467.000000" y1="64.000000" x2="471.000000" y2="64.000000"  style="stroke:black; stroke-linecap:round; stroke-width:0.25;"/>
<line x1="467.000000" y1="72.000000" x2="471.000000" y2="72.000000"  style="stroke:black; stroke-linecap:round; stroke-width:0.25;"/>
<line x1="467.000000" y1="80.000000" x2="471.000000" y2="80.000000"  style="stroke:black; stroke-linecap:round; stroke-width:0.25;"/>
<line x1="467.000000" y1="88.000000" x2="471.000000" y2="88.000000"  style="stroke:black; stroke-linecap:round; stroke-width:0.25;"/>
<line x1="467.000000" y1="96.000000" x2="471.000000" y2="96.000000"  style="stroke:black; stroke-linecap:round; stroke-width:0.25;"/>
<line x1="467.000000" y1="104.000000" x2="471.000000" y2="104.000000"  style="stroke:black; stroke-linecap:round; stroke-width:0.25;"/>
<line x1="467.000000" y1="112.000000" x2="471.000000" y2="112.000000"  style="stroke:black; stroke-linecap:round; stroke-width:0.25;"/>
<line x1="471.000000" y1="52.000000" x2="519.000000" y2="52.000000"  style="stroke:black; stroke-linecap:round; stroke-width:0.25;"/>
<line x1="471.000000" y1="56.000000" x2="471.000000" y2="52.000000"  style="stroke:black; stroke-linecap:round; stroke-width:0.25;"/>
<line x1="471.000000" y1="56.000000" x2="471.000000" y2="56.000000"  style="stroke:black; stroke-linecap:round; stroke-width:0.25;"/>
<line x1="471.000000" y1="64.000000" x2="479.000000" y2="64.000000"  style="stroke:black; stroke-linecap:round; stroke-width:0.25;"/>
<line x1="471.000000" y1="72.000000" x2="519.000000" y2="72.000000"  style="stroke:black; stroke-linecap:round; stroke-width:0.25;"/>
<line x1="471.000000" y1="80.000000" x2="511.000000" y2="80.000000"  style="stroke:black; stroke-linecap:round; stroke-width:0.25;"/>
<line x1="471.000000" y1="88.000000" x2="503.000000" y2="88.000000"  style="stroke:black; stroke-linecap:round; stroke-width:0.25;"/>
<line x1="471.000000" y1="96.000000" x2="495.000000" y2="96.000000"  style="stroke:black; stroke-linecap:round; stroke-width:0.25;"/>
<line x1="471.000000" y1="104.000000" x2="487.000000" y2="104.000000"  style="stroke:black; stroke-linecap:round; stroke-width:0.25;"/>
<line x1="471.000000" y1="112.000000" x2="479.000000" y2="112.000000"  style="stroke:black; stroke-linecap:round; stroke-width:0.25;"/>
<line x1="471.000000" y1="148.000000" x2="519.000000" y2="148.000000"  style="stroke:black; stroke-linecap:round; stroke-width:0.25;"/>
<line x1="471.000000" y1="164.000000" x2="471.000000" y2="148.000000"  style="stroke:black; stroke-linecap:round; stroke-width:0.25;"/>
<line x1="471.000000" y1="164.000000" x2="471.000000" y2="164.000000"  style="stroke:black; stroke-linecap:round; stroke-width:0.25;"/>
<line x1="479.000000" y1="60.000000" x2="519.000000" y2="60.000000"  style="stroke:black; stroke-linecap:round; stroke-width:0.25;"/>
<line x1="479.000000" y1="64.000000" x2="479.000000" y2="60.000000"  style="stroke:black; stroke-linecap:round; stroke-width:0.25;"/>
<line x1="479.000000" y1="112.000000" x2="479.000000" y2="140.000000"  style="stroke:black; stroke-linecap:round; stroke-width:0.25;"/>
<line x1="479.000000" y1="140.000000" x2="519.000000" y2="140.000000"  style="stroke:black; stroke-linecap:round; stroke-width:0.25;"/>
<line x1="487.000000" y1="104.000000" x2="487.000000" y2="132.000000"  style="stroke:black; stroke-linecap:round; stroke-width:0.25;"/>
<line x1="487.000000" y1="132.000000" x2="519.000000" y2="132.000000"  style="stroke:black; stroke-linecap:round; stroke-width:0.25;"/>
<line x1="495.000000" y1="96.000000" x2="495.000000" y2="124.000000"  style="stroke:black; stroke-linecap:round; stroke-width:0.25;"/>
<line x1="495.000000" y1="124.000000" x2="519.000000" y2="124.000000"  style="stroke:black; stroke-linecap:round; stroke-width:0.25;"/>
<line x1="503.000000" y1="88.000000" x2="503.000000" y2="116.000000"  style="stroke:black; stroke-linecap:round; stroke-width:0.25;"/>
<line x1="503.000000" y1="116.000000" x2="519.000000" y2="116.000000"  style="stroke:black; stroke-linecap:round; stroke-width:0.25;"/>
<line x1="511.000000" y1="80.000000" x2="511.000000" y2="108.000000"  style="stroke:black; stroke-linecap:round; stroke-width:0.25;"/>
<line x1="511.000000" y1="108.000000" x2="519.000000" y2="108.000000"  style="stroke:black; stroke-linecap:round; stroke-width:0.25;"/>
<line x1="519.000000" y1="52.000000" x2="607.500000" y2="52.000000"  style="stroke:black; stroke-linecap:round; stroke-width:0.25;"/>
<line x1="519.000000" y1="60.000000" x2="587.500000" y2="60.000000"  style="stroke:black; stroke-linecap:round; stroke-width:0.25;"/>
<line x1="519.000000" y1="72.000000" x2="519.000000" y2="100.000000"  style="stroke:black; stroke-linecap:round; stroke-width:0.25;"/>
<line x1="519.000000" y1="100.000000" x2="519.000000" y2="100.000000"  style="stroke:black; stroke-linecap:round; stroke-width:0.25;"/>
<line x1="519.000000" y1="100.000000" x2="607.500000" y2="100.000000"  style="stroke:black; stroke-linecap:round; stroke-width:0.25;"/>
<line x1="519.000000" y1="108.000000" x2="607.500000" y2="108.000000"  style="stroke:black; stroke-linecap:round; stroke-width:0.25;"/>
<line x1="519.000000" y1="116.000000" x2="607.500000" y2="116.000000"  style="stroke:black; stroke-linecap:round; stroke-width:0.25;"/>
<line x1="519.000000" y1="124.000000" x2="607.500000" y2="124.000000"  style="stroke:black; stroke-linecap:round; stroke-width:0.25;"/>
<line x1="519.000000" y1="132.000000" x2="607.500000" y2="132.000000"  style="stroke:black; stroke-linecap:round; stroke-width:0.25;"/>
<line x1="519.000000" y1="140.000000" x2="607.500000" y2="140.000000"  style="stroke:black; stroke-linecap:round; stroke-width:0.25;"/>
<line x1="519.000000" y1="148.000000" x2="607.500000" y2="148.000000"  style="stroke:black; stroke-linecap:round; stroke-width:0.25;"/>
<line x1="587.500000" y1="60.000000" x2="656.000000" y2="60.000000"  style="stroke:black; stroke-linecap:round; stroke-width:0.25;"/>
<line x1="607.500000" y1="52.000000" x2="696.000000" y2="52.000000"  style="stroke:black; stroke-linecap:round; stroke-width:0.25;"/>
<line x1="607.500000" y1="100.000000" x2="696.000000" y2="100.000000"  style="stroke:black; stroke-linecap:round; stroke-width:0.25;"/>
<line x1="607.500000" y1="108.000000" x2="696.000000" y2="108.000000"  style="stroke:black; stroke-linecap:round; stroke-width:0.25;"/>
<line x1="607.500000" y1="116.000000" x2="696.000000" y2="116.000000"  style="stroke:black; stroke-linecap:round; stroke-width:0.25;"/>
<line x1="607.500000" y1="124.000000" x2="696.000000" y2="124.000000"  style="stroke:black; stroke-linecap:round; stroke-width:0.25;"/>
<line x1="607.500000" y1="132.000000" x2="696.000000" y2="132.000000"  style="stroke:black; stroke-linecap:round; stroke-width:0.25;"/>
<line x1="607.500000" y1="140.000000" x2="696.000000" y2="140.000000"  style="stroke:black; stroke-linecap:round; stroke-width:0.25;"/>
<line x1="607.500000" y1="148.000000" x2="696.000000" y2="148.000000"  style="stroke:black; stroke-linecap:round; stroke-width:0.25;"/>
<line x1="652.000000" y1="80.000000" x2="656.000000" y2="80.000000"  style="stroke:black; stroke-linecap:round; stroke-width:0.25;"/>
<line x1="656.000000" y1="60.000000" x2="664.000000" y2="60.000000"  style="stroke:black; stroke-linecap:round; stroke-width:0.25;"/>
<line x1="656.000000" y1="80.000000" x2="664.000000" y2="80.000000"  style="stroke:black; stroke-linecap:round; stroke-width:0.25;"/>
<line x1="664.000000" y1="60.000000" x2="664.000000" y2="72.000000"  style="stroke:black; stroke-linecap:round; stroke-width:0.25;"/>
<line x1="664.000000" y1="72.000000" x2="664.000000" y2="72.000000"  style="stroke:black; stroke-linecap:round; stroke-width:0.25;"/>
<line x1="664.000000" y1="72.000000" x2="668.000000" y2="72.000000"  style="stroke:black; stroke-linecap:round; stroke-width:0.25;"/>
<line x1="664.000000" y1="80.000000" x2="668.000000" y2="80.000000"  style="stroke:black; stroke-linecap:round; stroke-width:0.25;"/>
<line x1="692.000000" y1="76.000000" x2="696.000000" y2="76.000000"  style="stroke:black; stroke-linecap:round; stroke-width:0.25;"/>
<line x1="696.000000" y1="52.000000" x2="752.000000" y2="52.000000"  style="stroke:black; stroke-linecap:round; stroke-width:0.25;"/>
<line x1="696.000000" y1="76.000000" x2="752.000000" y2="76.000000"  style="stroke:black; stroke-linecap:round; stroke-width:0.25;"/>
<line x1="696.000000" y1="84.000000" x2="752.000000" y2="84.000000"  style="stroke:black; stroke-linecap:round; stroke-width:0.25;"/>
<line x1="696.000000" y1="100.000000" x2="696.000000" y2="84.000000"  style="stroke:black; stroke-linecap:round; stroke-width:0.25;"/>
<line x1="696.000000" y1="100.000000" x2="696.000000" y2="100.000000"  style="stroke:black; stroke-linecap:round; stroke-width:0.25;"/>
<line x1="696.000000" y1="108.000000" x2="704.000000" y2="108.000000"  style="stroke:black; stroke-linecap:round; stroke-width:0.25;"/>
<line x1="696.000000" y1="116.000000" x2="712.000000" y2="116.000000"  style="stroke:black; stroke-linecap:round; stroke-width:0.25;"/>
<line x1="696.000000" y1="124.000000" x2="720.000000" y2="124.000000"  style="stroke:black; stroke-linecap:round; stroke-width:0.25;"/>
<line x1="696.000000" y1="132.000000" x2="728.000000" y2="132.000000"  style="stroke:black; stroke-linecap:round; stroke-width:0.25;"/>
<line x1="696.000000" y1="140.000000" x2="736.000000" y2="140.000000"  style="stroke:black; stroke-linecap:round; stroke-width:0.25;"/>
<line x1="696.000000" y1="148.000000" x2="744.000000" y2="148.000000"  style="stroke:black; stroke-linecap:round; stroke-width:0.25;"/>
<line x1="704.000000" y1="92.000000" x2="752.000000" y2="92.000000"  style="stroke:black; stroke-linecap:round; stroke-width:0.25;"/>
<line x1="704.000000" y1="108.000000" x2="704.000000" y2="92.000000"  style="stroke:black; stroke-linecap:round; stroke-width:0.25;"/>
<line x1="712.000000" y1="100.000000" x2="752.000000" y2="100.000000"  style="stroke:black; stroke-linecap:round; stroke-width:0.25;"/>
<line x1="712.000000" y1="116.000000" x2="712.000000" y2="100.000000"  style="stroke:black; stroke-linecap:round; stroke-width:0.25;"/>
<line x1="720.000000" y1="108.000000" x2="752.000000" y2="108.000000"  style="stroke:black; stroke-linecap:round; stroke-width:0.25;"/>
<line x1="720.000000" y1="124.000000" x2="720.000000" y2="108.000000"  style="stroke:black; stroke-linecap:round; stroke-width:0.25;"/>
<line x1="728.000000" y1="116.000000" x2="752.000000" y2="116.000000"  style="stroke:black; stroke-linecap:round; stroke-width:0.25;"/>
<line x1="728.000000" y1="132.000000" x2="728.000000" y2="116.000000"  style="stroke:black; stroke-linecap:round; stroke-width:0.25;"/>
<line x1="736.000000" y1="124.000000" x2="752.000000" y2="124.000000"  style="stroke:black; stroke-linecap:round; stroke-width:0.25;"/>
<line x1="736.000000" y1="140.000000" x2="736.000000" y2="124.000000"  style="stroke:black; stroke-linecap:round; stroke-width:0.25;"/>
<line x1="744.000000" y1="132.000000" x2="752.000000" y2="132.000000"  style="stroke:black; stroke-linecap:round; stroke-width:0.25;"/>
<line x1="744.000000" y1="148.000000" x2="744.000000" y2="132.000000"  style="stroke:black; stroke-linecap:round; stroke-width:0.25;"/>
<line x1="752.000000" y1="52.000000" x2="752.000000" y2="68.000000"  style="stroke:black; stroke-linecap:round; stroke-width:0.25;"/>
<line x1="752.000000" y1="68.000000" x2="752.000000" y2="68.000000"  style="stroke:black; stroke-linecap:round; stroke-width:0.25;"/>
<line x1="752.000000" y1="68.000000" x2="756.000000" y2="68.000000"  style="stroke:black; stroke-linecap:round; stroke-width:0.25;"/>
<line x1="752.000000" y1="76.000000" x2="756.000000" y2="76.000000"  style="stroke:black; stroke-linecap:round; stroke-width:0.25;"/>
<line x1="752.000000" y1="84.000000" x2="756.000000" y2="84.000000"  style="stroke:black; stroke-linecap:round; stroke-width:0.25;"/>
<line x1="752.000000" y1="92.000000" x2="756.000000" y2="92.000000"  style="stroke:black; stroke-linecap:round; stroke-width:0.25;"/>
<line x1="752.000000" y1="100.000000" x2="756.000000" y2="100.000000"  style="stroke:black; stroke-linecap:round; stroke-width:0.25;"/>
<line x1="752.000000" y1="108.000000" x2="756.000000" y2="108.000000"  style="stroke:black; stroke-linecap:round; stroke-width:0.25;"/>
<line x1="752.000000" y1="116.000000" x2="756.000000" y2="116.000000"  style="stroke:black; stroke-linecap:round; stroke-width:0.25;"/>
<line x1="752.000000" y1="124.000000" x2="756.000000" y2="124.000000"  style="stroke:black; stroke-linecap:round; stroke-width:0.25;"/>
<line x1="752.000000" y1="132.000000" x2="756.000000" y2="132.000000"  style="stroke:black; stroke-linecap:round; stroke-width:0.25;"/>
<line x1="756.000000" y1="68.000000" x2="760.000000" y2="68.000000"  style="stroke:black; stroke-linecap:round; stroke-width:0.25;"/>
<line x1="756.000000" y1="76.000000" x2="760.000000" y2="76.000000"  style="stroke:black; stroke-linecap:round; stroke-width:0.25;"/>
<line x1="756.000000" y1="84.000000" x2="760.000000" y2="84.000000"  style="stroke:black; stroke-linecap:round; stroke-width:0.25;"/>
<line x1="756.000000" y1="92.000000" x2="760.000000" y2="92.000000"  style="stroke:black; stroke-linecap:round; stroke-width:0.25;"/>
<line x1="756.000000" y1="100.000000" x2="760.000000" y2="100.000000"  style="stroke:black; stroke-linecap:round; stroke-width:0.25;"/>
<line x1="756.000000" y1="108.000000" x2="760.000000" y2="108.000000"  style="stroke:black; stroke-linecap:round; stroke-width:0.25;"/>
<line x1="756.000000" y1="116.000000" x2="760.000000" y2="116.000000"  style="stroke:black; stroke-linecap:round; stroke-width:0.25;"/>
<line x1="756.000000" y1="124.000000" x2="760.000000" y2="124.000000"  style="stroke:black; stroke-linecap:round; stroke-width:0.25;"/>
<line x1="756.000000" y1="132.000000" x2="760.000000" y2="132.000000"  style="stroke:black; stroke-linecap:round; stroke-width:0.25;"/>
<line x1="760.000000" y1="68.000000" x2="770.000000" y2="68.000000"  style="stroke:black; stroke-linecap:round; stroke-width:0.25;"/>
<line x1="760.000000" y1="76.000000" x2="770.000000" y2="76.000000"  style="stroke:black; stroke-linecap:round; stroke-width:0.25;"/>
<line x1="760.000000" y1="84.000000" x2="770.000000" y2="84.000000"  style="stroke:black; stroke-linecap:round; stroke-width:0.25;"/>
<line x1="760.000000" y1="92.000000" x2="770.000000" y2="92.000000"  style="stroke:black; stroke-linecap:round; stroke-width:0.25;"/>
<line x1="760.000000" y1="100.000000" x2="770.000000" y2="100.000000"  style="stroke:black; stroke-linecap:round; stroke-width:0.25;"/>
<line x1="760.000000" y1="108.000000" x2="770.000000" y2="108.000000"  style="stroke:black; stroke-linecap:round; stroke-width:0.25;"/>
<line x1="760.000000" y1="116.000000" x2="770.000000" y2="116.000000"  style="stroke:black; stroke-linecap:round; stroke-width:0.25;"/>
<line x1="760.000000" y1="124.000000" x2="770.000000" y2="124.000000"  style="stroke:black; stroke-linecap:round; stroke-width:0.25;"/>
<line x1="760.000000" y1="132.000000" x2="770.000000" y2="132.000000"  style="stroke:black; stroke-linecap:round; stroke-width:0.25;"/>
</svg>
