<?xml version="1.0"?>
<svg xmlns="http://www.w3.org/2000/svg" xmlns:xlink="http://www.w3.org/1999/xlink" viewBox="0 0 376.200000 168.000000" width="188.100000mm" height="84.000000mm" version="1.1">
<a xlink:href="decide-0x7f8add42d570.svg">
<rect x="1.000000" y="1.000000" width="375.200000" height="167.000000" rx="0" ry="0" style="stroke:none;fill:#cccccc;"/>
<rect x="0.000000" y="0.000000" width="375.200000" height="167.000000" rx="0" ry="0" style="stroke:none;fill:#ffffff;"/>
</a>
<text x="10.000000" y="7.000000" font-family="Arial" font-size="7"></text>
<rect x="33.000000" y="73.000000" width="25.800000" height="24.000000" rx="0" ry="0" style="stroke:none;fill:#cccccc;"/>
<rect x="32.000000" y="72.000000" width="25.800000" height="24.000000" rx="0" ry="0" style="stroke:none;fill:#47945E;"/>
<text x="44.900000" y="86.000000" font-family="Arial" font-size="7" text-anchor="middle" fill="#FFFFFF">clock</text>
<circle cx="34.000000" cy="74.000000" r="1"/>
<line x1="29.000000" y1="83.000000" x2="32.000000" y2="84.000000"  transform="rotate(0.000000,32.000000,84.000000)" style="stroke: black; stroke-width:0.25;"/>
<line x1="29.000000" y1="85.000000" x2="32.000000" y2="84.000000"  transform="rotate(0.000000,32.000000,84.000000)" style="stroke: black; stroke-width:0.25;"/>
<rect x="66.800000" y="73.000000" width="25.800000" height="24.000000" rx="0" ry="0" style="stroke:none;fill:#cccccc;"/>
<rect x="65.800000" y="72.000000" width="25.800000" height="24.000000" rx="0" ry="0" style="stroke:none;fill:#47945E;"/>
<text x="78.700000" y="86.000000" font-family="Arial" font-size="7" text-anchor="middle" fill="#FFFFFF">clock</text>
<circle cx="67.800000" cy="74.000000" r="1"/>
<rect x="222.900000" y="25.000000" width="24.000000" height="24.000000" rx="0" ry="0" style="stroke:none;fill:#cccccc;"/>
<rect x="221.900000" y="24.000000" width="24.000000" height="24.000000" rx="0" ry="0" style="stroke:none;fill:#f44800;"/>
<text x="233.900000" y="38.000000" font-family="Arial" font-size="7" text-anchor="middle" fill="#FFFFFF">1</text>
<circle cx="223.900000" cy="26.000000" r="1"/>
<a xlink:href="count-0x7f8add1f7c60.svg">
<rect x="147.050000" y="57.000000" width="103.200000" height="24.000000" rx="0" ry="0" style="stroke:none;fill:#cccccc;"/>
<rect x="146.050000" y="56.000000" width="103.200000" height="24.000000" rx="0" ry="0" style="stroke:none;fill:#003366;"/>
</a>
<a xlink:href="count-0x7f8add1f7c60.svg">
<text x="197.650000" y="70.000000" font-family="Arial" font-size="7" text-anchor="middle" fill="#FFFFFF">count_offset(65536)(0)</text>
</a>
<circle cx="148.050000" cy="58.000000" r="1"/>
<line x1="143.050000" y1="67.000000" x2="146.050000" y2="68.000000"  transform="rotate(0.000000,146.050000,68.000000)" style="stroke: black; stroke-width:0.25;"/>
<line x1="143.050000" y1="69.000000" x2="146.050000" y2="68.000000"  transform="rotate(0.000000,146.050000,68.000000)" style="stroke: black; stroke-width:0.25;"/>
<a xlink:href="bitnoisetable-0x7f8add40dca0.svg">
<rect x="258.250000" y="57.000000" width="64.500000" height="24.000000" rx="0" ry="0" style="stroke:none;fill:#cccccc;"/>
<rect x="257.250000" y="56.000000" width="64.500000" height="24.000000" rx="0" ry="0" style="stroke:none;fill:#003366;"/>
</a>
<a xlink:href="bitnoisetable-0x7f8add40dca0.svg">
<text x="289.500000" y="70.000000" font-family="Arial" font-size="7" text-anchor="middle" fill="#FFFFFF">bitnoisetable</text>
</a>
<circle cx="259.250000" cy="58.000000" r="1"/>
<line x1="254.250000" y1="67.000000" x2="257.250000" y2="68.000000"  transform="rotate(0.000000,257.250000,68.000000)" style="stroke: black; stroke-width:0.25;"/>
<line x1="254.250000" y1="69.000000" x2="257.250000" y2="68.000000"  transform="rotate(0.000000,257.250000,68.000000)" style="stroke: black; stroke-width:0.25;"/>
<rect x="222.900000" y="89.000000" width="24.000000" height="24.000000" rx="0" ry="0" style="stroke:none;fill:#cccccc;"/>
<rect x="221.900000" y="88.000000" width="24.000000" height="24.000000" rx="0" ry="0" style="stroke:none;fill:#f44800;"/>
<text x="233.900000" y="102.000000" font-family="Arial" font-size="7" text-anchor="middle" fill="#FFFFFF">1</text>
<circle cx="223.900000" cy="90.000000" r="1"/>
<a xlink:href="count-0x7f8add415360.svg">
<rect x="140.600000" y="121.000000" width="116.100000" height="24.000000" rx="0" ry="0" style="stroke:none;fill:#cccccc;"/>
<rect x="139.600000" y="120.000000" width="116.100000" height="24.000000" rx="0" ry="0" style="stroke:none;fill:#003366;"/>
</a>
<a xlink:href="count-0x7f8add415360.svg">
<text x="197.650000" y="134.000000" font-family="Arial" font-size="7" text-anchor="middle" fill="#FFFFFF">count_offset(65536)(65536)</text>
</a>
<circle cx="141.600000" cy="122.000000" r="1"/>
<line x1="136.600000" y1="131.000000" x2="139.600000" y2="132.000000"  transform="rotate(0.000000,139.600000,132.000000)" style="stroke: black; stroke-width:0.25;"/>
<line x1="136.600000" y1="133.000000" x2="139.600000" y2="132.000000"  transform="rotate(0.000000,139.600000,132.000000)" style="stroke: black; stroke-width:0.25;"/>
<a xlink:href="bitnoisetable-0x7f8add40dca0.svg">
<rect x="264.700000" y="121.000000" width="64.500000" height="24.000000" rx="0" ry="0" style="stroke:none;fill:#cccccc;"/>
<rect x="263.700000" y="120.000000" width="64.500000" height="24.000000" rx="0" ry="0" style="stroke:none;fill:#003366;"/>
</a>
<a xlink:href="bitnoisetable-0x7f8add40dca0.svg">
<text x="295.950000" y="134.000000" font-family="Arial" font-size="7" text-anchor="middle" fill="#FFFFFF">bitnoisetable</text>
</a>
<circle cx="265.700000" cy="122.000000" r="1"/>
<line x1="260.700000" y1="131.000000" x2="263.700000" y2="132.000000"  transform="rotate(0.000000,263.700000,132.000000)" style="stroke: black; stroke-width:0.25;"/>
<line x1="260.700000" y1="133.000000" x2="263.700000" y2="132.000000"  transform="rotate(0.000000,263.700000,132.000000)" style="stroke: black; stroke-width:0.25;"/>
<line x1="15.000000" y1="15.000000" x2="15.000000" y2="153.000000"  style="stroke: black; stroke-linecap:round; stroke-width:0.25; stroke-dasharray:3,3;"/>
<line x1="15.000000" y1="153.000000" x2="361.200000" y2="153.000000"  style="stroke: black; stroke-linecap:round; stroke-width:0.25; stroke-dasharray:3,3;"/>
<line x1="361.200000" y1="153.000000" x2="361.200000" y2="15.000000"  style="stroke: black; stroke-linecap:round; stroke-width:0.25; stroke-dasharray:3,3;"/>
<line x1="15.000000" y1="15.000000" x2="20.000000" y2="15.000000"  style="stroke: black; stroke-linecap:round; stroke-width:0.25; stroke-dasharray:3,3;"/>
<line x1="68.375000" y1="15.000000" x2="361.200000" y2="15.000000"  style="stroke: black; stroke-linecap:round; stroke-width:0.25; stroke-dasharray:3,3;"/>
<text x="20.000000" y="17.000000" font-family="Arial" font-size="7">qpsk_training</text>
<line x1="363.200000" y1="71.000000" x2="366.200000" y2="72.000000"  transform="rotate(0.000000,366.200000,72.000000)" style="stroke: black; stroke-width:0.25;"/>
<line x1="363.200000" y1="73.000000" x2="366.200000" y2="72.000000"  transform="rotate(0.000000,366.200000,72.000000)" style="stroke: black; stroke-width:0.25;"/>
<line x1="363.200000" y1="79.000000" x2="366.200000" y2="80.000000"  transform="rotate(0.000000,366.200000,80.000000)" style="stroke: black; stroke-width:0.25;"/>
<line x1="363.200000" y1="81.000000" x2="366.200000" y2="80.000000"  transform="rotate(0.000000,366.200000,80.000000)" style="stroke: black; stroke-width:0.25;"/>
<line x1="363.200000" y1="87.000000" x2="366.200000" y2="88.000000"  transform="rotate(0.000000,366.200000,88.000000)" style="stroke: black; stroke-width:0.25;"/>
<line x1="363.200000" y1="89.000000" x2="366.200000" y2="88.000000"  transform="rotate(0.000000,366.200000,88.000000)" style="stroke: black; stroke-width:0.25;"/>
<line x1="363.200000" y1="95.000000" x2="366.200000" y2="96.000000"  transform="rotate(0.000000,366.200000,96.000000)" style="stroke: black; stroke-width:0.25;"/>
<line x1="363.200000" y1="97.000000" x2="366.200000" y2="96.000000"  transform="rotate(0.000000,366.200000,96.000000)" style="stroke: black; stroke-width:0.25;"/>
<line x1="10.000000" y1="84.000000" x2="20.000000" y2="84.000000"  style="stroke:black; stroke-linecap:round; stroke-width:0.25;"/>
<line x1="20.000000" y1="84.000000" x2="24.000000" y2="84.000000"  style="stroke:black; stroke-linecap:round; stroke-width:0.25;"/>
<line x1="24.000000" y1="84.000000" x2="28.000000" y2="84.000000"  style="stroke:black; stroke-linecap:round; stroke-width:0.25;"/>
<line x1="28.000000" y1="84.000000" x2="28.000000" y2="84.000000"  style="stroke:black; stroke-linecap:round; stroke-width:0.25;"/>
<line x1="28.000000" y1="84.000000" x2="32.000000" y2="84.000000"  style="stroke:black; stroke-linecap:round; stroke-width:0.25;"/>
<line x1="91.600000" y1="84.000000" x2="95.600000" y2="84.000000"  style="stroke:black; stroke-linecap:round; stroke-width:0.25;"/>
<line x1="95.600000" y1="84.000000" x2="135.600000" y2="132.000000"  style="stroke:black; stroke-linecap:round; stroke-width:0.25;"/>
<line x1="95.600000" y1="84.000000" x2="135.600000" y2="68.000000"  style="stroke:black; stroke-linecap:round; stroke-width:0.25;"/>
<line x1="135.600000" y1="132.000000" x2="139.600000" y2="132.000000"  style="stroke:black; stroke-linecap:round; stroke-width:0.25;"/>
<line x1="135.600000" y1="68.000000" x2="142.050000" y2="68.000000"  style="stroke:black; stroke-linecap:round; stroke-width:0.25;"/>
<line x1="142.050000" y1="68.000000" x2="146.050000" y2="68.000000"  style="stroke:black; stroke-linecap:round; stroke-width:0.25;"/>
<line x1="245.900000" y1="36.000000" x2="249.900000" y2="36.000000"  style="stroke:black; stroke-linecap:round; stroke-width:0.25;"/>
<line x1="245.900000" y1="100.000000" x2="249.900000" y2="100.000000"  style="stroke:black; stroke-linecap:round; stroke-width:0.25;"/>
<line x1="249.250000" y1="68.000000" x2="253.250000" y2="68.000000"  style="stroke:black; stroke-linecap:round; stroke-width:0.25;"/>
<line x1="249.900000" y1="36.000000" x2="332.200000" y2="36.000000"  style="stroke:black; stroke-linecap:round; stroke-width:0.25;"/>
<line x1="249.900000" y1="100.000000" x2="332.200000" y2="100.000000"  style="stroke:black; stroke-linecap:round; stroke-width:0.25;"/>
<line x1="253.250000" y1="68.000000" x2="253.250000" y2="68.000000"  style="stroke:black; stroke-linecap:round; stroke-width:0.25;"/>
<line x1="253.250000" y1="68.000000" x2="257.250000" y2="68.000000"  style="stroke:black; stroke-linecap:round; stroke-width:0.25;"/>
<line x1="255.700000" y1="132.000000" x2="259.700000" y2="132.000000"  style="stroke:black; stroke-linecap:round; stroke-width:0.25;"/>
<line x1="259.700000" y1="132.000000" x2="259.700000" y2="132.000000"  style="stroke:black; stroke-linecap:round; stroke-width:0.25;"/>
<line x1="259.700000" y1="132.000000" x2="263.700000" y2="132.000000"  style="stroke:black; stroke-linecap:round; stroke-width:0.25;"/>
<line x1="321.750000" y1="68.000000" x2="325.750000" y2="68.000000"  style="stroke:black; stroke-linecap:round; stroke-width:0.25;"/>
<line x1="325.750000" y1="68.000000" x2="332.200000" y2="68.000000"  style="stroke:black; stroke-linecap:round; stroke-width:0.25;"/>
<line x1="328.200000" y1="132.000000" x2="332.200000" y2="132.000000"  style="stroke:black; stroke-linecap:round; stroke-width:0.25;"/>
<line x1="332.200000" y1="36.000000" x2="348.200000" y2="36.000000"  style="stroke:black; stroke-linecap:round; stroke-width:0.25;"/>
<line x1="332.200000" y1="68.000000" x2="340.200000" y2="68.000000"  style="stroke:black; stroke-linecap:round; stroke-width:0.25;"/>
<line x1="332.200000" y1="88.000000" x2="348.200000" y2="88.000000"  style="stroke:black; stroke-linecap:round; stroke-width:0.25;"/>
<line x1="332.200000" y1="100.000000" x2="332.200000" y2="88.000000"  style="stroke:black; stroke-linecap:round; stroke-width:0.25;"/>
<line x1="332.200000" y1="100.000000" x2="332.200000" y2="100.000000"  style="stroke:black; stroke-linecap:round; stroke-width:0.25;"/>
<line x1="332.200000" y1="132.000000" x2="340.200000" y2="132.000000"  style="stroke:black; stroke-linecap:round; stroke-width:0.25;"/>
<line x1="340.200000" y1="68.000000" x2="340.200000" y2="80.000000"  style="stroke:black; stroke-linecap:round; stroke-width:0.25;"/>
<line x1="340.200000" y1="80.000000" x2="348.200000" y2="80.000000"  style="stroke:black; stroke-linecap:round; stroke-width:0.25;"/>
<line x1="340.200000" y1="96.000000" x2="348.200000" y2="96.000000"  style="stroke:black; stroke-linecap:round; stroke-width:0.25;"/>
<line x1="340.200000" y1="132.000000" x2="340.200000" y2="96.000000"  style="stroke:black; stroke-linecap:round; stroke-width:0.25;"/>
<line x1="348.200000" y1="36.000000" x2="348.200000" y2="72.000000"  style="stroke:black; stroke-linecap:round; stroke-width:0.25;"/>
<line x1="348.200000" y1="72.000000" x2="348.200000" y2="72.000000"  style="stroke:black; stroke-linecap:round; stroke-width:0.25;"/>
<line x1="348.200000" y1="72.000000" x2="352.200000" y2="72.000000"  style="stroke:black; stroke-linecap:round; stroke-width:0.25;"/>
<line x1="348.200000" y1="80.000000" x2="352.200000" y2="80.000000"  style="stroke:black; stroke-linecap:round; stroke-width:0.25;"/>
<line x1="348.200000" y1="88.000000" x2="352.200000" y2="88.000000"  style="stroke:black; stroke-linecap:round; stroke-width:0.25;"/>
<line x1="348.200000" y1="96.000000" x2="352.200000" y2="96.000000"  style="stroke:black; stroke-linecap:round; stroke-width:0.25;"/>
<line x1="352.200000" y1="72.000000" x2="356.200000" y2="72.000000"  style="stroke:black; stroke-linecap:round; stroke-width:0.25;"/>
<line x1="352.200000" y1="80.000000" x2="356.200000" y2="80.000000"  style="stroke:black; stroke-linecap:round; stroke-width:0.25;"/>
<line x1="352.200000" y1="88.000000" x2="356.200000" y2="88.000000"  style="stroke:black; stroke-linecap:round; stroke-width:0.25;"/>
<line x1="352.200000" y1="96.000000" x2="356.200000" y2="96.000000"  style="stroke:black; stroke-linecap:round; stroke-width:0.25;"/>
<line x1="356.200000" y1="72.000000" x2="366.200000" y2="72.000000"  style="stroke:black; stroke-linecap:round; stroke-width:0.25;"/>
<line x1="356.200000" y1="80.000000" x2="366.200000" y2="80.000000"  style="stroke:black; stroke-linecap:round; stroke-width:0.25;"/>
<line x1="356.200000" y1="88.000000" x2="366.200000" y2="88.000000"  style="stroke:black; stroke-linecap:round; stroke-width:0.25;"/>
<line x1="356.200000" y1="96.000000" x2="366.200000" y2="96.000000"  style="stroke:black; stroke-linecap:round; stroke-width:0.25;"/>
</svg>
