<?xml version="1.0"?>
<svg xmlns="http://www.w3.org/2000/svg" xmlns:xlink="http://www.w3.org/1999/xlink" viewBox="0 0 558.800000 132.000000" width="279.400000mm" height="66.000000mm" version="1.1">
<a xlink:href="repeat-0x7f8ada6f5590.svg">
<rect x="1.000000" y="1.000000" width="557.800000" height="131.000000" rx="0" ry="0" style="stroke:none;fill:#cccccc;"/>
<rect x="0.000000" y="0.000000" width="557.800000" height="131.000000" rx="0" ry="0" style="stroke:none;fill:#ffffff;"/>
</a>
<text x="10.000000" y="7.000000" font-family="Arial" font-size="7"></text>
<rect x="35.000000" y="39.000000" width="77.400000" height="24.000000" rx="0" ry="0" style="stroke:none;fill:#cccccc;"/>
<rect x="34.000000" y="38.000000" width="77.400000" height="24.000000" rx="0" ry="0" style="stroke:none;fill:#477881;"/>
<text x="72.700000" y="52.000000" font-family="Arial" font-size="7" text-anchor="middle" fill="#FFFFFF">checkbox(bitwrite)</text>
<circle cx="36.000000" cy="40.000000" r="1"/>
<line x1="25.000000" y1="29.000000" x2="25.000000" y2="71.000000"  style="stroke: black; stroke-linecap:round; stroke-width:0.25; stroke-dasharray:3,3;"/>
<line x1="25.000000" y1="71.000000" x2="120.400000" y2="71.000000"  style="stroke: black; stroke-linecap:round; stroke-width:0.25; stroke-dasharray:3,3;"/>
<line x1="120.400000" y1="71.000000" x2="120.400000" y2="29.000000"  style="stroke: black; stroke-linecap:round; stroke-width:0.25; stroke-dasharray:3,3;"/>
<line x1="25.000000" y1="29.000000" x2="30.000000" y2="29.000000"  style="stroke: black; stroke-linecap:round; stroke-width:0.25; stroke-dasharray:3,3;"/>
<line x1="62.250000" y1="29.000000" x2="120.400000" y2="29.000000"  style="stroke: black; stroke-linecap:round; stroke-width:0.25; stroke-dasharray:3,3;"/>
<text x="30.000000" y="31.000000" font-family="Arial" font-size="7">bitwrite</text>
<a xlink:href="c-0x7f8ada6f0b70.svg">
<rect x="61.700000" y="81.000000" width="24.000000" height="24.000000" rx="0" ry="0" style="stroke:none;fill:#cccccc;"/>
<rect x="60.700000" y="80.000000" width="24.000000" height="24.000000" rx="0" ry="0" style="stroke:none;fill:#003366;"/>
</a>
<a xlink:href="c-0x7f8ada6f0b70.svg">
<text x="72.700000" y="94.000000" font-family="Arial" font-size="7" text-anchor="middle" fill="#FFFFFF">c</text>
</a>
<circle cx="62.700000" cy="82.000000" r="1"/>
<rect x="138.400000" y="55.000000" width="24.000000" height="24.000000" rx="0" ry="0" style="stroke:none;fill:#cccccc;"/>
<rect x="137.400000" y="54.000000" width="24.000000" height="24.000000" rx="0" ry="0" style="stroke:none;fill:#4B71A1;"/>
<text x="149.400000" y="68.000000" font-family="Arial" font-size="7" text-anchor="middle" fill="#FFFFFF">*</text>
<circle cx="139.400000" cy="56.000000" r="1"/>
<line x1="134.400000" y1="61.000000" x2="137.400000" y2="62.000000"  transform="rotate(0.000000,137.400000,62.000000)" style="stroke: black; stroke-width:0.25;"/>
<line x1="134.400000" y1="63.000000" x2="137.400000" y2="62.000000"  transform="rotate(0.000000,137.400000,62.000000)" style="stroke: black; stroke-width:0.25;"/>
<line x1="134.400000" y1="69.000000" x2="137.400000" y2="70.000000"  transform="rotate(0.000000,137.400000,70.000000)" style="stroke: black; stroke-width:0.25;"/>
<line x1="134.400000" y1="71.000000" x2="137.400000" y2="70.000000"  transform="rotate(0.000000,137.400000,70.000000)" style="stroke: black; stroke-width:0.25;"/>
<rect x="214.400000" y="59.000000" width="24.000000" height="24.000000" rx="0" ry="0" style="stroke:none;fill:#cccccc;"/>
<rect x="213.400000" y="58.000000" width="24.000000" height="24.000000" rx="0" ry="0" style="stroke:none;fill:#4B71A1;"/>
<text x="225.400000" y="72.000000" font-family="Arial" font-size="7" text-anchor="middle" fill="#FFFFFF">mem</text>
<circle cx="215.400000" cy="60.000000" r="1"/>
<line x1="210.400000" y1="69.000000" x2="213.400000" y2="70.000000"  transform="rotate(0.000000,213.400000,70.000000)" style="stroke: black; stroke-width:0.25;"/>
<line x1="210.400000" y1="71.000000" x2="213.400000" y2="70.000000"  transform="rotate(0.000000,213.400000,70.000000)" style="stroke: black; stroke-width:0.25;"/>
<rect x="254.400000" y="55.000000" width="24.000000" height="24.000000" rx="0" ry="0" style="stroke:none;fill:#cccccc;"/>
<rect x="253.400000" y="54.000000" width="24.000000" height="24.000000" rx="0" ry="0" style="stroke:none;fill:#4B71A1;"/>
<text x="265.400000" y="68.000000" font-family="Arial" font-size="7" text-anchor="middle" fill="#FFFFFF">&gt;</text>
<circle cx="255.400000" cy="56.000000" r="1"/>
<line x1="250.400000" y1="61.000000" x2="253.400000" y2="62.000000"  transform="rotate(0.000000,253.400000,62.000000)" style="stroke: black; stroke-width:0.25;"/>
<line x1="250.400000" y1="63.000000" x2="253.400000" y2="62.000000"  transform="rotate(0.000000,253.400000,62.000000)" style="stroke: black; stroke-width:0.25;"/>
<line x1="250.400000" y1="69.000000" x2="253.400000" y2="70.000000"  transform="rotate(0.000000,253.400000,70.000000)" style="stroke: black; stroke-width:0.25;"/>
<line x1="250.400000" y1="71.000000" x2="253.400000" y2="70.000000"  transform="rotate(0.000000,253.400000,70.000000)" style="stroke: black; stroke-width:0.25;"/>
<rect x="359.100000" y="85.000000" width="24.000000" height="24.000000" rx="0" ry="0" style="stroke:none;fill:#cccccc;"/>
<rect x="358.100000" y="84.000000" width="24.000000" height="24.000000" rx="0" ry="0" style="stroke:none;fill:#4B71A1;"/>
<text x="370.100000" y="98.000000" font-family="Arial" font-size="7" text-anchor="middle" fill="#FFFFFF">+</text>
<circle cx="360.100000" cy="86.000000" r="1"/>
<line x1="355.100000" y1="91.000000" x2="358.100000" y2="92.000000"  transform="rotate(0.000000,358.100000,92.000000)" style="stroke: black; stroke-width:0.25;"/>
<line x1="355.100000" y1="93.000000" x2="358.100000" y2="92.000000"  transform="rotate(0.000000,358.100000,92.000000)" style="stroke: black; stroke-width:0.25;"/>
<line x1="355.100000" y1="99.000000" x2="358.100000" y2="100.000000"  transform="rotate(0.000000,358.100000,100.000000)" style="stroke: black; stroke-width:0.25;"/>
<line x1="355.100000" y1="101.000000" x2="358.100000" y2="100.000000"  transform="rotate(0.000000,358.100000,100.000000)" style="stroke: black; stroke-width:0.25;"/>
<rect x="352.400000" y="35.000000" width="77.400000" height="24.000000" rx="0" ry="0" style="stroke:none;fill:#cccccc;"/>
<rect x="351.400000" y="34.000000" width="77.400000" height="24.000000" rx="0" ry="0" style="stroke:none;fill:#477881;"/>
<text x="390.100000" y="48.000000" font-family="Arial" font-size="7" text-anchor="middle" fill="#FFFFFF">checkbox(bitwrite)</text>
<circle cx="426.800000" cy="56.000000" r="1"/>
<line x1="342.400000" y1="25.000000" x2="342.400000" y2="67.000000"  style="stroke: black; stroke-linecap:round; stroke-width:0.25; stroke-dasharray:3,3;"/>
<line x1="342.400000" y1="67.000000" x2="437.800000" y2="67.000000"  style="stroke: black; stroke-linecap:round; stroke-width:0.25; stroke-dasharray:3,3;"/>
<line x1="437.800000" y1="67.000000" x2="437.800000" y2="25.000000"  style="stroke: black; stroke-linecap:round; stroke-width:0.25; stroke-dasharray:3,3;"/>
<line x1="342.400000" y1="25.000000" x2="347.400000" y2="25.000000"  style="stroke: black; stroke-linecap:round; stroke-width:0.25; stroke-dasharray:3,3;"/>
<line x1="379.650000" y1="25.000000" x2="437.800000" y2="25.000000"  style="stroke: black; stroke-linecap:round; stroke-width:0.25; stroke-dasharray:3,3;"/>
<text x="347.400000" y="27.000000" font-family="Arial" font-size="7">bitwrite</text>
<rect x="302.400000" y="39.000000" width="24.000000" height="24.000000" rx="0" ry="0" style="stroke:none;fill:#cccccc;"/>
<rect x="301.400000" y="38.000000" width="24.000000" height="24.000000" rx="0" ry="0" style="stroke:none;fill:#4B71A1;"/>
<text x="313.400000" y="52.000000" font-family="Arial" font-size="7" text-anchor="middle" fill="#FFFFFF">*</text>
<circle cx="323.400000" cy="60.000000" r="1"/>
<line x1="328.400000" y1="53.000000" x2="325.400000" y2="54.000000"  transform="rotate(0.000000,325.400000,54.000000)" style="stroke: black; stroke-width:0.25;"/>
<line x1="328.400000" y1="55.000000" x2="325.400000" y2="54.000000"  transform="rotate(0.000000,325.400000,54.000000)" style="stroke: black; stroke-width:0.25;"/>
<line x1="328.400000" y1="45.000000" x2="325.400000" y2="46.000000"  transform="rotate(0.000000,325.400000,46.000000)" style="stroke: black; stroke-width:0.25;"/>
<line x1="328.400000" y1="47.000000" x2="325.400000" y2="46.000000"  transform="rotate(0.000000,325.400000,46.000000)" style="stroke: black; stroke-width:0.25;"/>
<line x1="440.800000" y1="96.000000" x2="440.800000" y2="92.000000"  style="stroke:black; stroke-linecap:round; stroke-width:0.25;"/>
<line x1="440.800000" y1="92.000000" x2="444.800000" y2="92.000000"  style="stroke:black; stroke-linecap:round; stroke-width:0.25;"/>
<line x1="444.800000" y1="92.000000" x2="444.800000" y2="96.000000"  style="stroke:black; stroke-linecap:round; stroke-width:0.25;"/>
<rect x="463.800000" y="59.000000" width="24.000000" height="24.000000" rx="0" ry="0" style="stroke:none;fill:#cccccc;"/>
<rect x="462.800000" y="58.000000" width="24.000000" height="24.000000" rx="0" ry="0" style="stroke:none;fill:#f44800;"/>
<text x="474.800000" y="72.000000" font-family="Arial" font-size="7" text-anchor="middle" fill="#FFFFFF">1</text>
<circle cx="464.800000" cy="60.000000" r="1"/>
<rect x="503.800000" y="55.000000" width="24.000000" height="24.000000" rx="0" ry="0" style="stroke:none;fill:#cccccc;"/>
<rect x="502.800000" y="54.000000" width="24.000000" height="24.000000" rx="0" ry="0" style="stroke:none;fill:#4B71A1;"/>
<text x="514.800000" y="68.000000" font-family="Arial" font-size="7" text-anchor="middle" fill="#FFFFFF">==</text>
<circle cx="504.800000" cy="56.000000" r="1"/>
<line x1="499.800000" y1="61.000000" x2="502.800000" y2="62.000000"  transform="rotate(0.000000,502.800000,62.000000)" style="stroke: black; stroke-width:0.25;"/>
<line x1="499.800000" y1="63.000000" x2="502.800000" y2="62.000000"  transform="rotate(0.000000,502.800000,62.000000)" style="stroke: black; stroke-width:0.25;"/>
<line x1="499.800000" y1="69.000000" x2="502.800000" y2="70.000000"  transform="rotate(0.000000,502.800000,70.000000)" style="stroke: black; stroke-width:0.25;"/>
<line x1="499.800000" y1="71.000000" x2="502.800000" y2="70.000000"  transform="rotate(0.000000,502.800000,70.000000)" style="stroke: black; stroke-width:0.25;"/>
<line x1="15.000000" y1="15.000000" x2="15.000000" y2="117.000000"  style="stroke: black; stroke-linecap:round; stroke-width:0.25; stroke-dasharray:3,3;"/>
<line x1="15.000000" y1="117.000000" x2="543.800000" y2="117.000000"  style="stroke: black; stroke-linecap:round; stroke-width:0.25; stroke-dasharray:3,3;"/>
<line x1="543.800000" y1="117.000000" x2="543.800000" y2="15.000000"  style="stroke: black; stroke-linecap:round; stroke-width:0.25; stroke-dasharray:3,3;"/>
<line x1="15.000000" y1="15.000000" x2="20.000000" y2="15.000000"  style="stroke: black; stroke-linecap:round; stroke-width:0.25; stroke-dasharray:3,3;"/>
<line x1="29.675000" y1="15.000000" x2="543.800000" y2="15.000000"  style="stroke: black; stroke-linecap:round; stroke-width:0.25; stroke-dasharray:3,3;"/>
<text x="20.000000" y="17.000000" font-family="Arial" font-size="7">r</text>
<line x1="545.800000" y1="65.000000" x2="548.800000" y2="66.000000"  transform="rotate(0.000000,548.800000,66.000000)" style="stroke: black; stroke-width:0.25;"/>
<line x1="545.800000" y1="67.000000" x2="548.800000" y2="66.000000"  transform="rotate(0.000000,548.800000,66.000000)" style="stroke: black; stroke-width:0.25;"/>
<line x1="84.700000" y1="92.000000" x2="88.700000" y2="92.000000"  style="stroke:black; stroke-linecap:round; stroke-width:0.25;"/>
<line x1="88.700000" y1="92.000000" x2="125.400000" y2="92.000000"  style="stroke:black; stroke-linecap:round; stroke-width:0.25;"/>
<line x1="111.400000" y1="50.000000" x2="115.400000" y2="50.000000"  style="stroke:black; stroke-linecap:round; stroke-width:0.25;"/>
<line x1="115.400000" y1="50.000000" x2="125.400000" y2="50.000000"  style="stroke:black; stroke-linecap:round; stroke-width:0.25;"/>
<line x1="125.400000" y1="70.000000" x2="133.400000" y2="70.000000"  style="stroke:black; stroke-linecap:round; stroke-width:0.25;"/>
<line x1="125.400000" y1="92.000000" x2="125.400000" y2="70.000000"  style="stroke:black; stroke-linecap:round; stroke-width:0.25;"/>
<line x1="125.400000" y1="92.000000" x2="125.400000" y2="92.000000"  style="stroke:black; stroke-linecap:round; stroke-width:0.25;"/>
<line x1="125.400000" y1="50.000000" x2="133.400000" y2="50.000000"  style="stroke:black; stroke-linecap:round; stroke-width:0.25;"/>
<line x1="133.400000" y1="50.000000" x2="133.400000" y2="62.000000"  style="stroke:black; stroke-linecap:round; stroke-width:0.25;"/>
<line x1="133.400000" y1="62.000000" x2="133.400000" y2="62.000000"  style="stroke:black; stroke-linecap:round; stroke-width:0.25;"/>
<line x1="133.400000" y1="62.000000" x2="137.400000" y2="62.000000"  style="stroke:black; stroke-linecap:round; stroke-width:0.25;"/>
<line x1="133.400000" y1="70.000000" x2="137.400000" y2="70.000000"  style="stroke:black; stroke-linecap:round; stroke-width:0.25;"/>
<line x1="161.400000" y1="66.000000" x2="165.400000" y2="66.000000"  style="stroke:black; stroke-linecap:round; stroke-width:0.25;"/>
<line x1="165.400000" y1="66.000000" x2="209.400000" y2="50.000000"  style="stroke:black; stroke-linecap:round; stroke-width:0.25;"/>
<line x1="165.400000" y1="66.000000" x2="209.400000" y2="70.000000"  style="stroke:black; stroke-linecap:round; stroke-width:0.25;"/>
<line x1="209.400000" y1="50.000000" x2="225.400000" y2="50.000000"  style="stroke:black; stroke-linecap:round; stroke-width:0.25;"/>
<line x1="209.400000" y1="70.000000" x2="213.400000" y2="70.000000"  style="stroke:black; stroke-linecap:round; stroke-width:0.25;"/>
<line x1="225.400000" y1="50.000000" x2="241.400000" y2="50.000000"  style="stroke:black; stroke-linecap:round; stroke-width:0.25;"/>
<line x1="237.400000" y1="70.000000" x2="241.400000" y2="70.000000"  style="stroke:black; stroke-linecap:round; stroke-width:0.25;"/>
<line x1="241.400000" y1="50.000000" x2="249.400000" y2="50.000000"  style="stroke:black; stroke-linecap:round; stroke-width:0.25;"/>
<line x1="241.400000" y1="70.000000" x2="249.400000" y2="70.000000"  style="stroke:black; stroke-linecap:round; stroke-width:0.25;"/>
<line x1="249.400000" y1="50.000000" x2="249.400000" y2="62.000000"  style="stroke:black; stroke-linecap:round; stroke-width:0.25;"/>
<line x1="249.400000" y1="62.000000" x2="249.400000" y2="62.000000"  style="stroke:black; stroke-linecap:round; stroke-width:0.25;"/>
<line x1="249.400000" y1="62.000000" x2="253.400000" y2="62.000000"  style="stroke:black; stroke-linecap:round; stroke-width:0.25;"/>
<line x1="249.400000" y1="70.000000" x2="253.400000" y2="70.000000"  style="stroke:black; stroke-linecap:round; stroke-width:0.25;"/>
<line x1="277.400000" y1="66.000000" x2="281.400000" y2="66.000000"  style="stroke:black; stroke-linecap:round; stroke-width:0.25;"/>
<line x1="281.400000" y1="66.000000" x2="289.400000" y2="66.000000"  style="stroke:black; stroke-linecap:round; stroke-width:0.25;"/>
<line x1="289.400000" y1="66.000000" x2="289.400000" y2="100.000000"  style="stroke:black; stroke-linecap:round; stroke-width:0.25;"/>
<line x1="289.400000" y1="100.000000" x2="289.400000" y2="100.000000"  style="stroke:black; stroke-linecap:round; stroke-width:0.25;"/>
<line x1="289.400000" y1="100.000000" x2="297.400000" y2="100.000000"  style="stroke:black; stroke-linecap:round; stroke-width:0.25;"/>
<line x1="297.400000" y1="50.000000" x2="297.400000" y2="50.000000"  style="stroke:black; stroke-linecap:round; stroke-width:0.25;"/>
<line x1="297.400000" y1="50.000000" x2="297.400000" y2="92.000000"  style="stroke:black; stroke-linecap:round; stroke-width:0.25;"/>
<line x1="297.400000" y1="92.000000" x2="297.400000" y2="92.000000"  style="stroke:black; stroke-linecap:round; stroke-width:0.25;"/>
<line x1="297.400000" y1="92.000000" x2="354.100000" y2="92.000000"  style="stroke:black; stroke-linecap:round; stroke-width:0.25;"/>
<line x1="297.400000" y1="100.000000" x2="354.100000" y2="100.000000"  style="stroke:black; stroke-linecap:round; stroke-width:0.25;"/>
<line x1="301.400000" y1="50.000000" x2="297.400000" y2="50.000000"  style="stroke:black; stroke-linecap:round; stroke-width:0.25;"/>
<line x1="329.400000" y1="46.000000" x2="325.400000" y2="46.000000"  style="stroke:black; stroke-linecap:round; stroke-width:0.25;"/>
<line x1="329.400000" y1="54.000000" x2="325.400000" y2="54.000000"  style="stroke:black; stroke-linecap:round; stroke-width:0.25;"/>
<line x1="329.400000" y1="54.000000" x2="329.400000" y2="54.000000"  style="stroke:black; stroke-linecap:round; stroke-width:0.25;"/>
<line x1="329.400000" y1="76.000000" x2="329.400000" y2="54.000000"  style="stroke:black; stroke-linecap:round; stroke-width:0.25;"/>
<line x1="337.400000" y1="46.000000" x2="329.400000" y2="46.000000"  style="stroke:black; stroke-linecap:round; stroke-width:0.25;"/>
<line x1="337.400000" y1="76.000000" x2="329.400000" y2="76.000000"  style="stroke:black; stroke-linecap:round; stroke-width:0.25;"/>
<line x1="347.400000" y1="46.000000" x2="337.400000" y2="46.000000"  style="stroke:black; stroke-linecap:round; stroke-width:0.25;"/>
<line x1="351.400000" y1="46.000000" x2="347.400000" y2="46.000000"  style="stroke:black; stroke-linecap:round; stroke-width:0.25;"/>
<line x1="354.100000" y1="92.000000" x2="358.100000" y2="92.000000"  style="stroke:black; stroke-linecap:round; stroke-width:0.25;"/>
<line x1="354.100000" y1="100.000000" x2="358.100000" y2="100.000000"  style="stroke:black; stroke-linecap:round; stroke-width:0.25;"/>
<line x1="382.100000" y1="96.000000" x2="386.100000" y2="96.000000"  style="stroke:black; stroke-linecap:round; stroke-width:0.25;"/>
<line x1="386.100000" y1="96.000000" x2="442.800000" y2="96.000000"  style="stroke:black; stroke-linecap:round; stroke-width:0.25;"/>
<line x1="390.100000" y1="76.000000" x2="337.400000" y2="76.000000"  style="stroke:black; stroke-linecap:round; stroke-width:0.25;"/>
<line x1="442.800000" y1="76.000000" x2="390.100000" y2="76.000000"  style="stroke:black; stroke-linecap:round; stroke-width:0.25;"/>
<line x1="442.800000" y1="76.000000" x2="442.800000" y2="76.000000"  style="stroke:black; stroke-linecap:round; stroke-width:0.25;"/>
<line x1="442.800000" y1="92.000000" x2="442.800000" y2="76.000000"  style="stroke:black; stroke-linecap:round; stroke-width:0.25;"/>
<line x1="442.800000" y1="96.000000" x2="444.800000" y2="96.000000"  style="stroke:black; stroke-linecap:round; stroke-width:0.25;"/>
<line x1="444.800000" y1="96.000000" x2="450.800000" y2="96.000000"  style="stroke:black; stroke-linecap:round; stroke-width:0.25;"/>
<line x1="450.800000" y1="50.000000" x2="458.800000" y2="50.000000"  style="stroke:black; stroke-linecap:round; stroke-width:0.25;"/>
<line x1="450.800000" y1="96.000000" x2="450.800000" y2="50.000000"  style="stroke:black; stroke-linecap:round; stroke-width:0.25;"/>
<line x1="450.800000" y1="96.000000" x2="450.800000" y2="96.000000"  style="stroke:black; stroke-linecap:round; stroke-width:0.25;"/>
<line x1="458.800000" y1="50.000000" x2="474.800000" y2="50.000000"  style="stroke:black; stroke-linecap:round; stroke-width:0.25;"/>
<line x1="474.800000" y1="50.000000" x2="490.800000" y2="50.000000"  style="stroke:black; stroke-linecap:round; stroke-width:0.25;"/>
<line x1="486.800000" y1="70.000000" x2="490.800000" y2="70.000000"  style="stroke:black; stroke-linecap:round; stroke-width:0.25;"/>
<line x1="490.800000" y1="50.000000" x2="498.800000" y2="50.000000"  style="stroke:black; stroke-linecap:round; stroke-width:0.25;"/>
<line x1="490.800000" y1="70.000000" x2="498.800000" y2="70.000000"  style="stroke:black; stroke-linecap:round; stroke-width:0.25;"/>
<line x1="498.800000" y1="50.000000" x2="498.800000" y2="62.000000"  style="stroke:black; stroke-linecap:round; stroke-width:0.25;"/>
<line x1="498.800000" y1="62.000000" x2="498.800000" y2="62.000000"  style="stroke:black; stroke-linecap:round; stroke-width:0.25;"/>
<line x1="498.800000" y1="62.000000" x2="502.800000" y2="62.000000"  style="stroke:black; stroke-linecap:round; stroke-width:0.25;"/>
<line x1="498.800000" y1="70.000000" x2="502.800000" y2="70.000000"  style="stroke:black; stroke-linecap:round; stroke-width:0.25;"/>
<line x1="526.800000" y1="66.000000" x2="530.800000" y2="66.000000"  style="stroke:black; stroke-linecap:round; stroke-width:0.25;"/>
<line x1="530.800000" y1="66.000000" x2="530.800000" y2="66.000000"  style="stroke:black; stroke-linecap:round; stroke-width:0.25;"/>
<line x1="530.800000" y1="66.000000" x2="534.800000" y2="66.000000"  style="stroke:black; stroke-linecap:round; stroke-width:0.25;"/>
<line x1="534.800000" y1="66.000000" x2="538.800000" y2="66.000000"  style="stroke:black; stroke-linecap:round; stroke-width:0.25;"/>
<line x1="538.800000" y1="66.000000" x2="548.800000" y2="66.000000"  style="stroke:black; stroke-linecap:round; stroke-width:0.25;"/>
</svg>
