<?xml version="1.0"?>
<svg xmlns="http://www.w3.org/2000/svg" xmlns:xlink="http://www.w3.org/1999/xlink" viewBox="0 0 450.900000 164.000000" width="225.450000mm" height="82.000000mm" version="1.1">
<a xlink:href="process.svg">
<rect x="1.000000" y="1.000000" width="449.900000" height="163.000000" rx="0" ry="0" style="stroke:none;fill:#cccccc;"/>
<rect x="0.000000" y="0.000000" width="449.900000" height="163.000000" rx="0" ry="0" style="stroke:none;fill:#ffffff;"/>
</a>
<text x="10.000000" y="7.000000" font-family="Arial" font-size="7"></text>
<a xlink:href="decimal-0x7f8ada647430.svg">
<rect x="199.100000" y="117.000000" width="38.700000" height="24.000000" rx="0" ry="0" style="stroke:none;fill:#cccccc;"/>
<rect x="198.100000" y="116.000000" width="38.700000" height="24.000000" rx="0" ry="0" style="stroke:none;fill:#003366;"/>
</a>
<a xlink:href="decimal-0x7f8ada647430.svg">
<text x="217.450000" y="130.000000" font-family="Arial" font-size="7" text-anchor="middle" fill="#FFFFFF">decimal</text>
</a>
<circle cx="200.100000" cy="118.000000" r="1"/>
<line x1="195.100000" y1="127.000000" x2="198.100000" y2="128.000000"  transform="rotate(0.000000,198.100000,128.000000)" style="stroke: black; stroke-width:0.25;"/>
<line x1="195.100000" y1="129.000000" x2="198.100000" y2="128.000000"  transform="rotate(0.000000,198.100000,128.000000)" style="stroke: black; stroke-width:0.25;"/>
<rect x="123.000000" y="67.000000" width="270.900000" height="24.000000" rx="0" ry="0" style="stroke:none;fill:#cccccc;"/>
<rect x="122.000000" y="66.000000" width="270.900000" height="24.000000" rx="0" ry="0" style="stroke:none;fill:#477881;"/>
<text x="257.450000" y="80.000000" font-family="Arial" font-size="7" text-anchor="middle" fill="#FFFFFF">hslider(baudrate, 296.0f, 1.0f, 10000.0f, 0.10000000000000001f)</text>
<circle cx="390.900000" cy="88.000000" r="1"/>
<line x1="113.000000" y1="57.000000" x2="113.000000" y2="99.000000"  style="stroke: black; stroke-linecap:round; stroke-width:0.25; stroke-dasharray:3,3;"/>
<line x1="113.000000" y1="99.000000" x2="401.900000" y2="99.000000"  style="stroke: black; stroke-linecap:round; stroke-width:0.25; stroke-dasharray:3,3;"/>
<line x1="401.900000" y1="99.000000" x2="401.900000" y2="57.000000"  style="stroke: black; stroke-linecap:round; stroke-width:0.25; stroke-dasharray:3,3;"/>
<line x1="113.000000" y1="57.000000" x2="118.000000" y2="57.000000"  style="stroke: black; stroke-linecap:round; stroke-width:0.25; stroke-dasharray:3,3;"/>
<line x1="150.250000" y1="57.000000" x2="401.900000" y2="57.000000"  style="stroke: black; stroke-linecap:round; stroke-width:0.25; stroke-dasharray:3,3;"/>
<text x="118.000000" y="59.000000" font-family="Arial" font-size="7">baudrate</text>
<a xlink:href="SR-0x7f8ada630a30.svg">
<rect x="246.450000" y="25.000000" width="24.000000" height="24.000000" rx="0" ry="0" style="stroke:none;fill:#cccccc;"/>
<rect x="245.450000" y="24.000000" width="24.000000" height="24.000000" rx="0" ry="0" style="stroke:none;fill:#003366;"/>
</a>
<a xlink:href="SR-0x7f8ada630a30.svg">
<text x="257.450000" y="38.000000" font-family="Arial" font-size="7" text-anchor="middle" fill="#FFFFFF">SR</text>
</a>
<circle cx="267.450000" cy="46.000000" r="1"/>
<rect x="73.000000" y="51.000000" width="24.000000" height="24.000000" rx="0" ry="0" style="stroke:none;fill:#cccccc;"/>
<rect x="72.000000" y="50.000000" width="24.000000" height="24.000000" rx="0" ry="0" style="stroke:none;fill:#4B71A1;"/>
<text x="84.000000" y="64.000000" font-family="Arial" font-size="7" text-anchor="middle" fill="#FFFFFF">/</text>
<circle cx="94.000000" cy="72.000000" r="1"/>
<line x1="99.000000" y1="65.000000" x2="96.000000" y2="66.000000"  transform="rotate(0.000000,96.000000,66.000000)" style="stroke: black; stroke-width:0.25;"/>
<line x1="99.000000" y1="67.000000" x2="96.000000" y2="66.000000"  transform="rotate(0.000000,96.000000,66.000000)" style="stroke: black; stroke-width:0.25;"/>
<line x1="99.000000" y1="57.000000" x2="96.000000" y2="58.000000"  transform="rotate(0.000000,96.000000,58.000000)" style="stroke: black; stroke-width:0.25;"/>
<line x1="99.000000" y1="59.000000" x2="96.000000" y2="58.000000"  transform="rotate(0.000000,96.000000,58.000000)" style="stroke: black; stroke-width:0.25;"/>
<rect x="33.000000" y="55.000000" width="24.000000" height="24.000000" rx="0" ry="0" style="stroke:none;fill:#cccccc;"/>
<rect x="32.000000" y="54.000000" width="24.000000" height="24.000000" rx="0" ry="0" style="stroke:none;fill:#4B71A1;"/>
<text x="44.000000" y="68.000000" font-family="Arial" font-size="7" text-anchor="middle" fill="#FFFFFF">+</text>
<circle cx="54.000000" cy="76.000000" r="1"/>
<line x1="59.000000" y1="69.000000" x2="56.000000" y2="70.000000"  transform="rotate(0.000000,56.000000,70.000000)" style="stroke: black; stroke-width:0.25;"/>
<line x1="59.000000" y1="71.000000" x2="56.000000" y2="70.000000"  transform="rotate(0.000000,56.000000,70.000000)" style="stroke: black; stroke-width:0.25;"/>
<line x1="59.000000" y1="61.000000" x2="56.000000" y2="62.000000"  transform="rotate(0.000000,56.000000,62.000000)" style="stroke: black; stroke-width:0.25;"/>
<line x1="59.000000" y1="63.000000" x2="56.000000" y2="62.000000"  transform="rotate(0.000000,56.000000,62.000000)" style="stroke: black; stroke-width:0.25;"/>
<line x1="404.900000" y1="128.000000" x2="404.900000" y2="124.000000"  style="stroke:black; stroke-linecap:round; stroke-width:0.25;"/>
<line x1="404.900000" y1="124.000000" x2="408.900000" y2="124.000000"  style="stroke:black; stroke-linecap:round; stroke-width:0.25;"/>
<line x1="408.900000" y1="124.000000" x2="408.900000" y2="128.000000"  style="stroke:black; stroke-linecap:round; stroke-width:0.25;"/>
<line x1="15.000000" y1="15.000000" x2="15.000000" y2="149.000000"  style="stroke: black; stroke-linecap:round; stroke-width:0.25; stroke-dasharray:3,3;"/>
<line x1="15.000000" y1="149.000000" x2="435.900000" y2="149.000000"  style="stroke: black; stroke-linecap:round; stroke-width:0.25; stroke-dasharray:3,3;"/>
<line x1="435.900000" y1="149.000000" x2="435.900000" y2="15.000000"  style="stroke: black; stroke-linecap:round; stroke-width:0.25; stroke-dasharray:3,3;"/>
<line x1="15.000000" y1="15.000000" x2="20.000000" y2="15.000000"  style="stroke: black; stroke-linecap:round; stroke-width:0.25; stroke-dasharray:3,3;"/>
<line x1="119.975000" y1="15.000000" x2="435.900000" y2="15.000000"  style="stroke: black; stroke-linecap:round; stroke-width:0.25; stroke-dasharray:3,3;"/>
<text x="20.000000" y="17.000000" font-family="Arial" font-size="7">sample_clock(...0000000001f))</text>
<line x1="437.900000" y1="81.000000" x2="440.900000" y2="82.000000"  transform="rotate(0.000000,440.900000,82.000000)" style="stroke: black; stroke-width:0.25;"/>
<line x1="437.900000" y1="83.000000" x2="440.900000" y2="82.000000"  transform="rotate(0.000000,440.900000,82.000000)" style="stroke: black; stroke-width:0.25;"/>
<line x1="28.000000" y1="66.000000" x2="28.000000" y2="66.000000"  style="stroke:black; stroke-linecap:round; stroke-width:0.25;"/>
<line x1="28.000000" y1="66.000000" x2="28.000000" y2="128.000000"  style="stroke:black; stroke-linecap:round; stroke-width:0.25;"/>
<line x1="28.000000" y1="128.000000" x2="28.000000" y2="128.000000"  style="stroke:black; stroke-linecap:round; stroke-width:0.25;"/>
<line x1="28.000000" y1="128.000000" x2="194.100000" y2="128.000000"  style="stroke:black; stroke-linecap:round; stroke-width:0.25;"/>
<line x1="32.000000" y1="66.000000" x2="28.000000" y2="66.000000"  style="stroke:black; stroke-linecap:round; stroke-width:0.25;"/>
<line x1="60.000000" y1="62.000000" x2="56.000000" y2="62.000000"  style="stroke:black; stroke-linecap:round; stroke-width:0.25;"/>
<line x1="60.000000" y1="70.000000" x2="56.000000" y2="70.000000"  style="stroke:black; stroke-linecap:round; stroke-width:0.25;"/>
<line x1="60.000000" y1="70.000000" x2="60.000000" y2="70.000000"  style="stroke:black; stroke-linecap:round; stroke-width:0.25;"/>
<line x1="60.000000" y1="108.000000" x2="60.000000" y2="70.000000"  style="stroke:black; stroke-linecap:round; stroke-width:0.25;"/>
<line x1="68.000000" y1="62.000000" x2="60.000000" y2="62.000000"  style="stroke:black; stroke-linecap:round; stroke-width:0.25;"/>
<line x1="68.000000" y1="108.000000" x2="60.000000" y2="108.000000"  style="stroke:black; stroke-linecap:round; stroke-width:0.25;"/>
<line x1="72.000000" y1="62.000000" x2="68.000000" y2="62.000000"  style="stroke:black; stroke-linecap:round; stroke-width:0.25;"/>
<line x1="100.000000" y1="58.000000" x2="96.000000" y2="58.000000"  style="stroke:black; stroke-linecap:round; stroke-width:0.25;"/>
<line x1="100.000000" y1="66.000000" x2="96.000000" y2="66.000000"  style="stroke:black; stroke-linecap:round; stroke-width:0.25;"/>
<line x1="100.000000" y1="66.000000" x2="100.000000" y2="66.000000"  style="stroke:black; stroke-linecap:round; stroke-width:0.25;"/>
<line x1="100.000000" y1="78.000000" x2="100.000000" y2="66.000000"  style="stroke:black; stroke-linecap:round; stroke-width:0.25;"/>
<line x1="108.000000" y1="36.000000" x2="108.000000" y2="36.000000"  style="stroke:black; stroke-linecap:round; stroke-width:0.25;"/>
<line x1="108.000000" y1="36.000000" x2="108.000000" y2="58.000000"  style="stroke:black; stroke-linecap:round; stroke-width:0.25;"/>
<line x1="108.000000" y1="58.000000" x2="100.000000" y2="58.000000"  style="stroke:black; stroke-linecap:round; stroke-width:0.25;"/>
<line x1="108.000000" y1="78.000000" x2="100.000000" y2="78.000000"  style="stroke:black; stroke-linecap:round; stroke-width:0.25;"/>
<line x1="118.000000" y1="78.000000" x2="108.000000" y2="78.000000"  style="stroke:black; stroke-linecap:round; stroke-width:0.25;"/>
<line x1="122.000000" y1="78.000000" x2="118.000000" y2="78.000000"  style="stroke:black; stroke-linecap:round; stroke-width:0.25;"/>
<line x1="194.100000" y1="128.000000" x2="198.100000" y2="128.000000"  style="stroke:black; stroke-linecap:round; stroke-width:0.25;"/>
<line x1="236.800000" y1="128.000000" x2="240.800000" y2="128.000000"  style="stroke:black; stroke-linecap:round; stroke-width:0.25;"/>
<line x1="237.450000" y1="108.000000" x2="68.000000" y2="108.000000"  style="stroke:black; stroke-linecap:round; stroke-width:0.25;"/>
<line x1="240.800000" y1="128.000000" x2="406.900000" y2="128.000000"  style="stroke:black; stroke-linecap:round; stroke-width:0.25;"/>
<line x1="241.450000" y1="36.000000" x2="108.000000" y2="36.000000"  style="stroke:black; stroke-linecap:round; stroke-width:0.25;"/>
<line x1="245.450000" y1="36.000000" x2="241.450000" y2="36.000000"  style="stroke:black; stroke-linecap:round; stroke-width:0.25;"/>
<line x1="406.900000" y1="108.000000" x2="237.450000" y2="108.000000"  style="stroke:black; stroke-linecap:round; stroke-width:0.25;"/>
<line x1="406.900000" y1="108.000000" x2="406.900000" y2="108.000000"  style="stroke:black; stroke-linecap:round; stroke-width:0.25;"/>
<line x1="406.900000" y1="124.000000" x2="406.900000" y2="108.000000"  style="stroke:black; stroke-linecap:round; stroke-width:0.25;"/>
<line x1="406.900000" y1="128.000000" x2="408.900000" y2="128.000000"  style="stroke:black; stroke-linecap:round; stroke-width:0.25;"/>
<line x1="408.900000" y1="128.000000" x2="414.900000" y2="128.000000"  style="stroke:black; stroke-linecap:round; stroke-width:0.25;"/>
<line x1="414.900000" y1="82.000000" x2="422.900000" y2="82.000000"  style="stroke:black; stroke-linecap:round; stroke-width:0.25;"/>
<line x1="414.900000" y1="128.000000" x2="414.900000" y2="82.000000"  style="stroke:black; stroke-linecap:round; stroke-width:0.25;"/>
<line x1="414.900000" y1="128.000000" x2="414.900000" y2="128.000000"  style="stroke:black; stroke-linecap:round; stroke-width:0.25;"/>
<line x1="422.900000" y1="82.000000" x2="426.900000" y2="82.000000"  style="stroke:black; stroke-linecap:round; stroke-width:0.25;"/>
<line x1="426.900000" y1="82.000000" x2="430.900000" y2="82.000000"  style="stroke:black; stroke-linecap:round; stroke-width:0.25;"/>
<line x1="430.900000" y1="82.000000" x2="440.900000" y2="82.000000"  style="stroke:black; stroke-linecap:round; stroke-width:0.25;"/>
</svg>
