<?xml version="1.0"?>
<svg xmlns="http://www.w3.org/2000/svg" xmlns:xlink="http://www.w3.org/1999/xlink" viewBox="0 0 216.100000 156.000000" width="108.050000mm" height="78.000000mm" version="1.1">
<a xlink:href="switchbits-0x7f8add359fc0.svg">
<rect x="1.000000" y="1.000000" width="215.100000" height="155.000000" rx="0" ry="0" style="stroke:none;fill:#cccccc;"/>
<rect x="0.000000" y="0.000000" width="215.100000" height="155.000000" rx="0" ry="0" style="stroke:none;fill:#ffffff;"/>
</a>
<text x="10.000000" y="7.000000" font-family="Arial" font-size="7"></text>
<rect x="35.000000" y="35.000000" width="77.400000" height="24.000000" rx="0" ry="0" style="stroke:none;fill:#cccccc;"/>
<rect x="34.000000" y="34.000000" width="77.400000" height="24.000000" rx="0" ry="0" style="stroke:none;fill:#477881;"/>
<text x="72.700000" y="48.000000" font-family="Arial" font-size="7" text-anchor="middle" fill="#FFFFFF">checkbox(Training)</text>
<circle cx="36.000000" cy="36.000000" r="1"/>
<line x1="25.000000" y1="25.000000" x2="25.000000" y2="67.000000"  style="stroke: black; stroke-linecap:round; stroke-width:0.25; stroke-dasharray:3,3;"/>
<line x1="25.000000" y1="67.000000" x2="120.400000" y2="67.000000"  style="stroke: black; stroke-linecap:round; stroke-width:0.25; stroke-dasharray:3,3;"/>
<line x1="120.400000" y1="67.000000" x2="120.400000" y2="25.000000"  style="stroke: black; stroke-linecap:round; stroke-width:0.25; stroke-dasharray:3,3;"/>
<line x1="25.000000" y1="25.000000" x2="30.000000" y2="25.000000"  style="stroke: black; stroke-linecap:round; stroke-width:0.25; stroke-dasharray:3,3;"/>
<line x1="81.600000" y1="25.000000" x2="120.400000" y2="25.000000"  style="stroke: black; stroke-linecap:round; stroke-width:0.25; stroke-dasharray:3,3;"/>
<text x="30.000000" y="27.000000" font-family="Arial" font-size="7">switchtraining</text>
<rect x="60.800000" y="77.000000" width="25.800000" height="24.000000" rx="0" ry="0" style="stroke:none;fill:#cccccc;"/>
<rect x="59.800000" y="76.000000" width="25.800000" height="24.000000" rx="0" ry="0" style="stroke:none;fill:#47945E;"/>
<text x="72.700000" y="90.000000" font-family="Arial" font-size="7" text-anchor="middle" fill="#FFFFFF">bit4</text>
<circle cx="61.800000" cy="78.000000" r="1"/>
<rect x="60.800000" y="109.000000" width="25.800000" height="24.000000" rx="0" ry="0" style="stroke:none;fill:#cccccc;"/>
<rect x="59.800000" y="108.000000" width="25.800000" height="24.000000" rx="0" ry="0" style="stroke:none;fill:#47945E;"/>
<text x="72.700000" y="122.000000" font-family="Arial" font-size="7" text-anchor="middle" fill="#FFFFFF">tbit4</text>
<circle cx="61.800000" cy="110.000000" r="1"/>
<rect x="146.400000" y="67.000000" width="38.700000" height="24.000000" rx="0" ry="0" style="stroke:none;fill:#cccccc;"/>
<rect x="145.400000" y="66.000000" width="38.700000" height="24.000000" rx="0" ry="0" style="stroke:none;fill:#4B71A1;"/>
<text x="164.750000" y="80.000000" font-family="Arial" font-size="7" text-anchor="middle" fill="#FFFFFF">select2</text>
<circle cx="147.400000" cy="68.000000" r="1"/>
<line x1="142.400000" y1="69.000000" x2="145.400000" y2="70.000000"  transform="rotate(0.000000,145.400000,70.000000)" style="stroke: black; stroke-width:0.25;"/>
<line x1="142.400000" y1="71.000000" x2="145.400000" y2="70.000000"  transform="rotate(0.000000,145.400000,70.000000)" style="stroke: black; stroke-width:0.25;"/>
<line x1="142.400000" y1="77.000000" x2="145.400000" y2="78.000000"  transform="rotate(0.000000,145.400000,78.000000)" style="stroke: black; stroke-width:0.25;"/>
<line x1="142.400000" y1="79.000000" x2="145.400000" y2="78.000000"  transform="rotate(0.000000,145.400000,78.000000)" style="stroke: black; stroke-width:0.25;"/>
<line x1="142.400000" y1="85.000000" x2="145.400000" y2="86.000000"  transform="rotate(0.000000,145.400000,86.000000)" style="stroke: black; stroke-width:0.25;"/>
<line x1="142.400000" y1="87.000000" x2="145.400000" y2="86.000000"  transform="rotate(0.000000,145.400000,86.000000)" style="stroke: black; stroke-width:0.25;"/>
<line x1="15.000000" y1="15.000000" x2="15.000000" y2="141.000000"  style="stroke: black; stroke-linecap:round; stroke-width:0.25; stroke-dasharray:3,3;"/>
<line x1="15.000000" y1="141.000000" x2="201.100000" y2="141.000000"  style="stroke: black; stroke-linecap:round; stroke-width:0.25; stroke-dasharray:3,3;"/>
<line x1="201.100000" y1="141.000000" x2="201.100000" y2="15.000000"  style="stroke: black; stroke-linecap:round; stroke-width:0.25; stroke-dasharray:3,3;"/>
<line x1="15.000000" y1="15.000000" x2="20.000000" y2="15.000000"  style="stroke: black; stroke-linecap:round; stroke-width:0.25; stroke-dasharray:3,3;"/>
<line x1="42.575000" y1="15.000000" x2="201.100000" y2="15.000000"  style="stroke: black; stroke-linecap:round; stroke-width:0.25; stroke-dasharray:3,3;"/>
<text x="20.000000" y="17.000000" font-family="Arial" font-size="7">sbit4</text>
<line x1="203.100000" y1="77.000000" x2="206.100000" y2="78.000000"  transform="rotate(0.000000,206.100000,78.000000)" style="stroke: black; stroke-width:0.25;"/>
<line x1="203.100000" y1="79.000000" x2="206.100000" y2="78.000000"  transform="rotate(0.000000,206.100000,78.000000)" style="stroke: black; stroke-width:0.25;"/>
<line x1="85.600000" y1="88.000000" x2="89.600000" y2="88.000000"  style="stroke:black; stroke-linecap:round; stroke-width:0.25;"/>
<line x1="85.600000" y1="120.000000" x2="89.600000" y2="120.000000"  style="stroke:black; stroke-linecap:round; stroke-width:0.25;"/>
<line x1="89.600000" y1="88.000000" x2="125.400000" y2="88.000000"  style="stroke:black; stroke-linecap:round; stroke-width:0.25;"/>
<line x1="89.600000" y1="120.000000" x2="125.400000" y2="120.000000"  style="stroke:black; stroke-linecap:round; stroke-width:0.25;"/>
<line x1="111.400000" y1="46.000000" x2="115.400000" y2="46.000000"  style="stroke:black; stroke-linecap:round; stroke-width:0.25;"/>
<line x1="115.400000" y1="46.000000" x2="125.400000" y2="46.000000"  style="stroke:black; stroke-linecap:round; stroke-width:0.25;"/>
<line x1="125.400000" y1="46.000000" x2="141.400000" y2="46.000000"  style="stroke:black; stroke-linecap:round; stroke-width:0.25;"/>
<line x1="125.400000" y1="78.000000" x2="141.400000" y2="78.000000"  style="stroke:black; stroke-linecap:round; stroke-width:0.25;"/>
<line x1="125.400000" y1="88.000000" x2="125.400000" y2="78.000000"  style="stroke:black; stroke-linecap:round; stroke-width:0.25;"/>
<line x1="125.400000" y1="88.000000" x2="125.400000" y2="88.000000"  style="stroke:black; stroke-linecap:round; stroke-width:0.25;"/>
<line x1="125.400000" y1="120.000000" x2="133.400000" y2="120.000000"  style="stroke:black; stroke-linecap:round; stroke-width:0.25;"/>
<line x1="133.400000" y1="86.000000" x2="141.400000" y2="86.000000"  style="stroke:black; stroke-linecap:round; stroke-width:0.25;"/>
<line x1="133.400000" y1="120.000000" x2="133.400000" y2="86.000000"  style="stroke:black; stroke-linecap:round; stroke-width:0.25;"/>
<line x1="141.400000" y1="46.000000" x2="141.400000" y2="70.000000"  style="stroke:black; stroke-linecap:round; stroke-width:0.25;"/>
<line x1="141.400000" y1="70.000000" x2="141.400000" y2="70.000000"  style="stroke:black; stroke-linecap:round; stroke-width:0.25;"/>
<line x1="141.400000" y1="70.000000" x2="145.400000" y2="70.000000"  style="stroke:black; stroke-linecap:round; stroke-width:0.25;"/>
<line x1="141.400000" y1="78.000000" x2="145.400000" y2="78.000000"  style="stroke:black; stroke-linecap:round; stroke-width:0.25;"/>
<line x1="141.400000" y1="86.000000" x2="145.400000" y2="86.000000"  style="stroke:black; stroke-linecap:round; stroke-width:0.25;"/>
<line x1="184.100000" y1="78.000000" x2="188.100000" y2="78.000000"  style="stroke:black; stroke-linecap:round; stroke-width:0.25;"/>
<line x1="188.100000" y1="78.000000" x2="188.100000" y2="78.000000"  style="stroke:black; stroke-linecap:round; stroke-width:0.25;"/>
<line x1="188.100000" y1="78.000000" x2="192.100000" y2="78.000000"  style="stroke:black; stroke-linecap:round; stroke-width:0.25;"/>
<line x1="192.100000" y1="78.000000" x2="196.100000" y2="78.000000"  style="stroke:black; stroke-linecap:round; stroke-width:0.25;"/>
<line x1="196.100000" y1="78.000000" x2="206.100000" y2="78.000000"  style="stroke:black; stroke-linecap:round; stroke-width:0.25;"/>
</svg>
