<?xml version="1.0"?>
<svg xmlns="http://www.w3.org/2000/svg" xmlns:xlink="http://www.w3.org/1999/xlink" viewBox="0 0 242.700000 152.000000" width="121.350000mm" height="76.000000mm" version="1.1">
<a xlink:href="modulator-0x7f8add433150.svg">
<rect x="1.000000" y="1.000000" width="241.700000" height="151.000000" rx="0" ry="0" style="stroke:none;fill:#cccccc;"/>
<rect x="0.000000" y="0.000000" width="241.700000" height="151.000000" rx="0" ry="0" style="stroke:none;fill:#ffffff;"/>
</a>
<text x="10.000000" y="7.000000" font-family="Arial" font-size="7"></text>
<rect x="51.000000" y="43.000000" width="38.700000" height="24.000000" rx="0" ry="0" style="stroke:none;fill:#cccccc;"/>
<rect x="50.000000" y="42.000000" width="38.700000" height="24.000000" rx="0" ry="0" style="stroke:none;fill:#f44800;"/>
<text x="69.350000" y="56.000000" font-family="Arial" font-size="7" text-anchor="middle" fill="#FFFFFF">3.14159</text>
<circle cx="52.000000" cy="44.000000" r="1"/>
<line x1="41.000000" y1="33.000000" x2="41.000000" y2="75.000000"  style="stroke: black; stroke-linecap:round; stroke-width:0.25; stroke-dasharray:3,3;"/>
<line x1="41.000000" y1="75.000000" x2="97.700000" y2="75.000000"  style="stroke: black; stroke-linecap:round; stroke-width:0.25; stroke-dasharray:3,3;"/>
<line x1="97.700000" y1="75.000000" x2="97.700000" y2="33.000000"  style="stroke: black; stroke-linecap:round; stroke-width:0.25; stroke-dasharray:3,3;"/>
<line x1="41.000000" y1="33.000000" x2="46.000000" y2="33.000000"  style="stroke: black; stroke-linecap:round; stroke-width:0.25; stroke-dasharray:3,3;"/>
<line x1="58.900000" y1="33.000000" x2="97.700000" y2="33.000000"  style="stroke: black; stroke-linecap:round; stroke-width:0.25; stroke-dasharray:3,3;"/>
<text x="46.000000" y="35.000000" font-family="Arial" font-size="7">PI</text>
<rect x="58.350000" y="95.000000" width="24.000000" height="24.000000" rx="0" ry="0" style="stroke:none;fill:#cccccc;"/>
<rect x="57.350000" y="94.000000" width="24.000000" height="24.000000" rx="0" ry="0" style="stroke:none;fill:#f44800;"/>
<text x="69.350000" y="108.000000" font-family="Arial" font-size="7" text-anchor="middle" fill="#FFFFFF">2</text>
<circle cx="59.350000" cy="96.000000" r="1"/>
<line x1="48.350000" y1="85.000000" x2="48.350000" y2="127.000000"  style="stroke: black; stroke-linecap:round; stroke-width:0.25; stroke-dasharray:3,3;"/>
<line x1="48.350000" y1="127.000000" x2="90.350000" y2="127.000000"  style="stroke: black; stroke-linecap:round; stroke-width:0.25; stroke-dasharray:3,3;"/>
<line x1="90.350000" y1="127.000000" x2="90.350000" y2="85.000000"  style="stroke: black; stroke-linecap:round; stroke-width:0.25; stroke-dasharray:3,3;"/>
<line x1="48.350000" y1="85.000000" x2="53.350000" y2="85.000000"  style="stroke: black; stroke-linecap:round; stroke-width:0.25; stroke-dasharray:3,3;"/>
<line x1="85.600000" y1="85.000000" x2="90.350000" y2="85.000000"  style="stroke: black; stroke-linecap:round; stroke-width:0.25; stroke-dasharray:3,3;"/>
<text x="53.350000" y="87.000000" font-family="Arial" font-size="7">dfe_taps</text>
<rect x="115.700000" y="69.000000" width="24.000000" height="24.000000" rx="0" ry="0" style="stroke:none;fill:#cccccc;"/>
<rect x="114.700000" y="68.000000" width="24.000000" height="24.000000" rx="0" ry="0" style="stroke:none;fill:#4B71A1;"/>
<text x="126.700000" y="82.000000" font-family="Arial" font-size="7" text-anchor="middle" fill="#FFFFFF">*</text>
<circle cx="116.700000" cy="70.000000" r="1"/>
<line x1="111.700000" y1="75.000000" x2="114.700000" y2="76.000000"  transform="rotate(0.000000,114.700000,76.000000)" style="stroke: black; stroke-width:0.25;"/>
<line x1="111.700000" y1="77.000000" x2="114.700000" y2="76.000000"  transform="rotate(0.000000,114.700000,76.000000)" style="stroke: black; stroke-width:0.25;"/>
<line x1="111.700000" y1="83.000000" x2="114.700000" y2="84.000000"  transform="rotate(0.000000,114.700000,84.000000)" style="stroke: black; stroke-width:0.25;"/>
<line x1="111.700000" y1="85.000000" x2="114.700000" y2="84.000000"  transform="rotate(0.000000,114.700000,84.000000)" style="stroke: black; stroke-width:0.25;"/>
<rect x="155.700000" y="65.000000" width="24.000000" height="24.000000" rx="0" ry="0" style="stroke:none;fill:#cccccc;"/>
<rect x="154.700000" y="64.000000" width="24.000000" height="24.000000" rx="0" ry="0" style="stroke:none;fill:#4B71A1;"/>
<text x="166.700000" y="78.000000" font-family="Arial" font-size="7" text-anchor="middle" fill="#FFFFFF">*</text>
<circle cx="156.700000" cy="66.000000" r="1"/>
<line x1="151.700000" y1="71.000000" x2="154.700000" y2="72.000000"  transform="rotate(0.000000,154.700000,72.000000)" style="stroke: black; stroke-width:0.25;"/>
<line x1="151.700000" y1="73.000000" x2="154.700000" y2="72.000000"  transform="rotate(0.000000,154.700000,72.000000)" style="stroke: black; stroke-width:0.25;"/>
<line x1="151.700000" y1="79.000000" x2="154.700000" y2="80.000000"  transform="rotate(0.000000,154.700000,80.000000)" style="stroke: black; stroke-width:0.25;"/>
<line x1="151.700000" y1="81.000000" x2="154.700000" y2="80.000000"  transform="rotate(0.000000,154.700000,80.000000)" style="stroke: black; stroke-width:0.25;"/>
<rect x="187.700000" y="65.000000" width="24.000000" height="24.000000" rx="0" ry="0" style="stroke:none;fill:#cccccc;"/>
<rect x="186.700000" y="64.000000" width="24.000000" height="24.000000" rx="0" ry="0" style="stroke:none;fill:#4B71A1;"/>
<text x="198.700000" y="78.000000" font-family="Arial" font-size="7" text-anchor="middle" fill="#FFFFFF">sin</text>
<circle cx="188.700000" cy="66.000000" r="1"/>
<line x1="183.700000" y1="75.000000" x2="186.700000" y2="76.000000"  transform="rotate(0.000000,186.700000,76.000000)" style="stroke: black; stroke-width:0.25;"/>
<line x1="183.700000" y1="77.000000" x2="186.700000" y2="76.000000"  transform="rotate(0.000000,186.700000,76.000000)" style="stroke: black; stroke-width:0.25;"/>
<line x1="15.000000" y1="15.000000" x2="15.000000" y2="137.000000"  style="stroke: black; stroke-linecap:round; stroke-width:0.25; stroke-dasharray:3,3;"/>
<line x1="15.000000" y1="137.000000" x2="227.700000" y2="137.000000"  style="stroke: black; stroke-linecap:round; stroke-width:0.25; stroke-dasharray:3,3;"/>
<line x1="227.700000" y1="137.000000" x2="227.700000" y2="15.000000"  style="stroke: black; stroke-linecap:round; stroke-width:0.25; stroke-dasharray:3,3;"/>
<line x1="15.000000" y1="15.000000" x2="20.000000" y2="15.000000"  style="stroke: black; stroke-linecap:round; stroke-width:0.25; stroke-dasharray:3,3;"/>
<line x1="49.025000" y1="15.000000" x2="227.700000" y2="15.000000"  style="stroke: black; stroke-linecap:round; stroke-width:0.25; stroke-dasharray:3,3;"/>
<text x="20.000000" y="17.000000" font-family="Arial" font-size="7">sinwave</text>
<line x1="229.700000" y1="75.000000" x2="232.700000" y2="76.000000"  transform="rotate(0.000000,232.700000,76.000000)" style="stroke: black; stroke-width:0.25;"/>
<line x1="229.700000" y1="77.000000" x2="232.700000" y2="76.000000"  transform="rotate(0.000000,232.700000,76.000000)" style="stroke: black; stroke-width:0.25;"/>
<line x1="10.000000" y1="76.000000" x2="20.000000" y2="76.000000"  style="stroke:black; stroke-linecap:round; stroke-width:0.25;"/>
<line x1="20.000000" y1="76.000000" x2="24.000000" y2="76.000000"  style="stroke:black; stroke-linecap:round; stroke-width:0.25;"/>
<line x1="24.000000" y1="76.000000" x2="28.000000" y2="76.000000"  style="stroke:black; stroke-linecap:round; stroke-width:0.25;"/>
<line x1="28.000000" y1="24.000000" x2="36.000000" y2="24.000000"  style="stroke:black; stroke-linecap:round; stroke-width:0.25;"/>
<line x1="28.000000" y1="76.000000" x2="28.000000" y2="24.000000"  style="stroke:black; stroke-linecap:round; stroke-width:0.25;"/>
<line x1="28.000000" y1="76.000000" x2="28.000000" y2="76.000000"  style="stroke:black; stroke-linecap:round; stroke-width:0.25;"/>
<line x1="36.000000" y1="24.000000" x2="89.350000" y2="24.000000"  style="stroke:black; stroke-linecap:round; stroke-width:0.25;"/>
<line x1="81.350000" y1="106.000000" x2="85.350000" y2="106.000000"  style="stroke:black; stroke-linecap:round; stroke-width:0.25;"/>
<line x1="85.350000" y1="106.000000" x2="95.350000" y2="106.000000"  style="stroke:black; stroke-linecap:round; stroke-width:0.25;"/>
<line x1="88.700000" y1="54.000000" x2="92.700000" y2="54.000000"  style="stroke:black; stroke-linecap:round; stroke-width:0.25;"/>
<line x1="89.350000" y1="24.000000" x2="142.700000" y2="24.000000"  style="stroke:black; stroke-linecap:round; stroke-width:0.25;"/>
<line x1="92.700000" y1="54.000000" x2="102.700000" y2="54.000000"  style="stroke:black; stroke-linecap:round; stroke-width:0.25;"/>
<line x1="95.350000" y1="106.000000" x2="102.700000" y2="106.000000"  style="stroke:black; stroke-linecap:round; stroke-width:0.25;"/>
<line x1="102.700000" y1="54.000000" x2="110.700000" y2="54.000000"  style="stroke:black; stroke-linecap:round; stroke-width:0.25;"/>
<line x1="102.700000" y1="84.000000" x2="110.700000" y2="84.000000"  style="stroke:black; stroke-linecap:round; stroke-width:0.25;"/>
<line x1="102.700000" y1="106.000000" x2="102.700000" y2="84.000000"  style="stroke:black; stroke-linecap:round; stroke-width:0.25;"/>
<line x1="102.700000" y1="106.000000" x2="102.700000" y2="106.000000"  style="stroke:black; stroke-linecap:round; stroke-width:0.25;"/>
<line x1="110.700000" y1="54.000000" x2="110.700000" y2="76.000000"  style="stroke:black; stroke-linecap:round; stroke-width:0.25;"/>
<line x1="110.700000" y1="76.000000" x2="110.700000" y2="76.000000"  style="stroke:black; stroke-linecap:round; stroke-width:0.25;"/>
<line x1="110.700000" y1="76.000000" x2="114.700000" y2="76.000000"  style="stroke:black; stroke-linecap:round; stroke-width:0.25;"/>
<line x1="110.700000" y1="84.000000" x2="114.700000" y2="84.000000"  style="stroke:black; stroke-linecap:round; stroke-width:0.25;"/>
<line x1="138.700000" y1="80.000000" x2="142.700000" y2="80.000000"  style="stroke:black; stroke-linecap:round; stroke-width:0.25;"/>
<line x1="142.700000" y1="24.000000" x2="150.700000" y2="24.000000"  style="stroke:black; stroke-linecap:round; stroke-width:0.25;"/>
<line x1="142.700000" y1="80.000000" x2="150.700000" y2="80.000000"  style="stroke:black; stroke-linecap:round; stroke-width:0.25;"/>
<line x1="150.700000" y1="24.000000" x2="150.700000" y2="72.000000"  style="stroke:black; stroke-linecap:round; stroke-width:0.25;"/>
<line x1="150.700000" y1="72.000000" x2="150.700000" y2="72.000000"  style="stroke:black; stroke-linecap:round; stroke-width:0.25;"/>
<line x1="150.700000" y1="72.000000" x2="154.700000" y2="72.000000"  style="stroke:black; stroke-linecap:round; stroke-width:0.25;"/>
<line x1="150.700000" y1="80.000000" x2="154.700000" y2="80.000000"  style="stroke:black; stroke-linecap:round; stroke-width:0.25;"/>
<line x1="178.700000" y1="76.000000" x2="182.700000" y2="76.000000"  style="stroke:black; stroke-linecap:round; stroke-width:0.25;"/>
<line x1="182.700000" y1="76.000000" x2="182.700000" y2="76.000000"  style="stroke:black; stroke-linecap:round; stroke-width:0.25;"/>
<line x1="182.700000" y1="76.000000" x2="186.700000" y2="76.000000"  style="stroke:black; stroke-linecap:round; stroke-width:0.25;"/>
<line x1="210.700000" y1="76.000000" x2="214.700000" y2="76.000000"  style="stroke:black; stroke-linecap:round; stroke-width:0.25;"/>
<line x1="214.700000" y1="76.000000" x2="214.700000" y2="76.000000"  style="stroke:black; stroke-linecap:round; stroke-width:0.25;"/>
<line x1="214.700000" y1="76.000000" x2="218.700000" y2="76.000000"  style="stroke:black; stroke-linecap:round; stroke-width:0.25;"/>
<line x1="218.700000" y1="76.000000" x2="222.700000" y2="76.000000"  style="stroke:black; stroke-linecap:round; stroke-width:0.25;"/>
<line x1="222.700000" y1="76.000000" x2="232.700000" y2="76.000000"  style="stroke:black; stroke-linecap:round; stroke-width:0.25;"/>
</svg>
