<?xml version="1.0"?>
<svg xmlns="http://www.w3.org/2000/svg" xmlns:xlink="http://www.w3.org/1999/xlink" viewBox="0 0 248.400000 92.000000" width="124.200000mm" height="46.000000mm" version="1.1">
<a xlink:href="countclock-0x7f8add142d20.svg">
<rect x="1.000000" y="1.000000" width="247.400000" height="91.000000" rx="0" ry="0" style="stroke:none;fill:#cccccc;"/>
<rect x="0.000000" y="0.000000" width="247.400000" height="91.000000" rx="0" ry="0" style="stroke:none;fill:#ffffff;"/>
</a>
<text x="10.000000" y="7.000000" font-family="Arial" font-size="7"></text>
<rect x="35.000000" y="35.000000" width="77.400000" height="24.000000" rx="0" ry="0" style="stroke:none;fill:#cccccc;"/>
<rect x="34.000000" y="34.000000" width="77.400000" height="24.000000" rx="0" ry="0" style="stroke:none;fill:#477881;"/>
<text x="72.700000" y="48.000000" font-family="Arial" font-size="7" text-anchor="middle" fill="#FFFFFF">checkbox(bitwrite)</text>
<circle cx="36.000000" cy="36.000000" r="1"/>
<line x1="25.000000" y1="25.000000" x2="25.000000" y2="67.000000"  style="stroke: black; stroke-linecap:round; stroke-width:0.25; stroke-dasharray:3,3;"/>
<line x1="25.000000" y1="67.000000" x2="120.400000" y2="67.000000"  style="stroke: black; stroke-linecap:round; stroke-width:0.25; stroke-dasharray:3,3;"/>
<line x1="120.400000" y1="67.000000" x2="120.400000" y2="25.000000"  style="stroke: black; stroke-linecap:round; stroke-width:0.25; stroke-dasharray:3,3;"/>
<line x1="25.000000" y1="25.000000" x2="30.000000" y2="25.000000"  style="stroke: black; stroke-linecap:round; stroke-width:0.25; stroke-dasharray:3,3;"/>
<line x1="62.250000" y1="25.000000" x2="120.400000" y2="25.000000"  style="stroke: black; stroke-linecap:round; stroke-width:0.25; stroke-dasharray:3,3;"/>
<text x="30.000000" y="27.000000" font-family="Arial" font-size="7">bitwrite</text>
<rect x="153.400000" y="39.000000" width="24.000000" height="24.000000" rx="0" ry="0" style="stroke:none;fill:#cccccc;"/>
<rect x="152.400000" y="38.000000" width="24.000000" height="24.000000" rx="0" ry="0" style="stroke:none;fill:#4B71A1;"/>
<text x="164.400000" y="52.000000" font-family="Arial" font-size="7" text-anchor="middle" fill="#FFFFFF">mem</text>
<circle cx="154.400000" cy="40.000000" r="1"/>
<line x1="149.400000" y1="49.000000" x2="152.400000" y2="50.000000"  transform="rotate(0.000000,152.400000,50.000000)" style="stroke: black; stroke-width:0.25;"/>
<line x1="149.400000" y1="51.000000" x2="152.400000" y2="50.000000"  transform="rotate(0.000000,152.400000,50.000000)" style="stroke: black; stroke-width:0.25;"/>
<rect x="193.400000" y="35.000000" width="24.000000" height="24.000000" rx="0" ry="0" style="stroke:none;fill:#cccccc;"/>
<rect x="192.400000" y="34.000000" width="24.000000" height="24.000000" rx="0" ry="0" style="stroke:none;fill:#4B71A1;"/>
<text x="204.400000" y="48.000000" font-family="Arial" font-size="7" text-anchor="middle" fill="#FFFFFF">&gt;</text>
<circle cx="194.400000" cy="36.000000" r="1"/>
<line x1="189.400000" y1="41.000000" x2="192.400000" y2="42.000000"  transform="rotate(0.000000,192.400000,42.000000)" style="stroke: black; stroke-width:0.25;"/>
<line x1="189.400000" y1="43.000000" x2="192.400000" y2="42.000000"  transform="rotate(0.000000,192.400000,42.000000)" style="stroke: black; stroke-width:0.25;"/>
<line x1="189.400000" y1="49.000000" x2="192.400000" y2="50.000000"  transform="rotate(0.000000,192.400000,50.000000)" style="stroke: black; stroke-width:0.25;"/>
<line x1="189.400000" y1="51.000000" x2="192.400000" y2="50.000000"  transform="rotate(0.000000,192.400000,50.000000)" style="stroke: black; stroke-width:0.25;"/>
<line x1="15.000000" y1="15.000000" x2="15.000000" y2="77.000000"  style="stroke: black; stroke-linecap:round; stroke-width:0.25; stroke-dasharray:3,3;"/>
<line x1="15.000000" y1="77.000000" x2="233.400000" y2="77.000000"  style="stroke: black; stroke-linecap:round; stroke-width:0.25; stroke-dasharray:3,3;"/>
<line x1="233.400000" y1="77.000000" x2="233.400000" y2="15.000000"  style="stroke: black; stroke-linecap:round; stroke-width:0.25; stroke-dasharray:3,3;"/>
<line x1="15.000000" y1="15.000000" x2="20.000000" y2="15.000000"  style="stroke: black; stroke-linecap:round; stroke-width:0.25; stroke-dasharray:3,3;"/>
<line x1="55.475000" y1="15.000000" x2="233.400000" y2="15.000000"  style="stroke: black; stroke-linecap:round; stroke-width:0.25; stroke-dasharray:3,3;"/>
<text x="20.000000" y="17.000000" font-family="Arial" font-size="7">startedge</text>
<line x1="235.400000" y1="45.000000" x2="238.400000" y2="46.000000"  transform="rotate(0.000000,238.400000,46.000000)" style="stroke: black; stroke-width:0.25;"/>
<line x1="235.400000" y1="47.000000" x2="238.400000" y2="46.000000"  transform="rotate(0.000000,238.400000,46.000000)" style="stroke: black; stroke-width:0.25;"/>
<line x1="111.400000" y1="46.000000" x2="115.400000" y2="46.000000"  style="stroke:black; stroke-linecap:round; stroke-width:0.25;"/>
<line x1="115.400000" y1="46.000000" x2="125.400000" y2="46.000000"  style="stroke:black; stroke-linecap:round; stroke-width:0.25;"/>
<line x1="125.400000" y1="46.000000" x2="148.400000" y2="30.000000"  style="stroke:black; stroke-linecap:round; stroke-width:0.25;"/>
<line x1="125.400000" y1="46.000000" x2="148.400000" y2="50.000000"  style="stroke:black; stroke-linecap:round; stroke-width:0.25;"/>
<line x1="148.400000" y1="30.000000" x2="164.400000" y2="30.000000"  style="stroke:black; stroke-linecap:round; stroke-width:0.25;"/>
<line x1="148.400000" y1="50.000000" x2="152.400000" y2="50.000000"  style="stroke:black; stroke-linecap:round; stroke-width:0.25;"/>
<line x1="164.400000" y1="30.000000" x2="180.400000" y2="30.000000"  style="stroke:black; stroke-linecap:round; stroke-width:0.25;"/>
<line x1="176.400000" y1="50.000000" x2="180.400000" y2="50.000000"  style="stroke:black; stroke-linecap:round; stroke-width:0.25;"/>
<line x1="180.400000" y1="30.000000" x2="188.400000" y2="30.000000"  style="stroke:black; stroke-linecap:round; stroke-width:0.25;"/>
<line x1="180.400000" y1="50.000000" x2="188.400000" y2="50.000000"  style="stroke:black; stroke-linecap:round; stroke-width:0.25;"/>
<line x1="188.400000" y1="30.000000" x2="188.400000" y2="42.000000"  style="stroke:black; stroke-linecap:round; stroke-width:0.25;"/>
<line x1="188.400000" y1="42.000000" x2="188.400000" y2="42.000000"  style="stroke:black; stroke-linecap:round; stroke-width:0.25;"/>
<line x1="188.400000" y1="42.000000" x2="192.400000" y2="42.000000"  style="stroke:black; stroke-linecap:round; stroke-width:0.25;"/>
<line x1="188.400000" y1="50.000000" x2="192.400000" y2="50.000000"  style="stroke:black; stroke-linecap:round; stroke-width:0.25;"/>
<line x1="216.400000" y1="46.000000" x2="220.400000" y2="46.000000"  style="stroke:black; stroke-linecap:round; stroke-width:0.25;"/>
<line x1="220.400000" y1="46.000000" x2="220.400000" y2="46.000000"  style="stroke:black; stroke-linecap:round; stroke-width:0.25;"/>
<line x1="220.400000" y1="46.000000" x2="224.400000" y2="46.000000"  style="stroke:black; stroke-linecap:round; stroke-width:0.25;"/>
<line x1="224.400000" y1="46.000000" x2="228.400000" y2="46.000000"  style="stroke:black; stroke-linecap:round; stroke-width:0.25;"/>
<line x1="228.400000" y1="46.000000" x2="238.400000" y2="46.000000"  style="stroke:black; stroke-linecap:round; stroke-width:0.25;"/>
</svg>
