<?xml version="1.0"?>
<svg xmlns="http://www.w3.org/2000/svg" xmlns:xlink="http://www.w3.org/1999/xlink" viewBox="0 0 257.400000 328.000000" width="128.700000mm" height="164.000000mm" version="1.1">
<a xlink:href="filtering-0x7f8add42dc80.svg">
<rect x="1.000000" y="1.000000" width="256.400000" height="327.000000" rx="0" ry="0" style="stroke:none;fill:#cccccc;"/>
<rect x="0.000000" y="0.000000" width="256.400000" height="327.000000" rx="0" ry="0" style="stroke:none;fill:#ffffff;"/>
</a>
<text x="10.000000" y="7.000000" font-family="Arial" font-size="7"></text>
<a xlink:href="delay-0x7f8ada489cb0.svg">
<rect x="43.900000" y="33.000000" width="51.600000" height="24.000000" rx="0" ry="0" style="stroke:none;fill:#cccccc;"/>
<rect x="42.900000" y="32.000000" width="51.600000" height="24.000000" rx="0" ry="0" style="stroke:none;fill:#003366;"/>
</a>
<a xlink:href="delay-0x7f8ada489cb0.svg">
<text x="68.700000" y="46.000000" font-family="Arial" font-size="7" text-anchor="middle" fill="#FFFFFF">delay_time</text>
</a>
<circle cx="44.900000" cy="34.000000" r="1"/>
<rect x="57.700000" y="75.000000" width="24.000000" height="24.000000" rx="0" ry="0" style="stroke:none;fill:#cccccc;"/>
<rect x="56.700000" y="74.000000" width="24.000000" height="24.000000" rx="0" ry="0" style="stroke:none;fill:#f44800;"/>
<text x="68.700000" y="88.000000" font-family="Arial" font-size="7" text-anchor="middle" fill="#FFFFFF">2</text>
<circle cx="58.700000" cy="76.000000" r="1"/>
<line x1="47.700000" y1="65.000000" x2="47.700000" y2="107.000000"  style="stroke: black; stroke-linecap:round; stroke-width:0.25; stroke-dasharray:3,3;"/>
<line x1="47.700000" y1="107.000000" x2="89.700000" y2="107.000000"  style="stroke: black; stroke-linecap:round; stroke-width:0.25; stroke-dasharray:3,3;"/>
<line x1="89.700000" y1="107.000000" x2="89.700000" y2="65.000000"  style="stroke: black; stroke-linecap:round; stroke-width:0.25; stroke-dasharray:3,3;"/>
<line x1="47.700000" y1="65.000000" x2="52.700000" y2="65.000000"  style="stroke: black; stroke-linecap:round; stroke-width:0.25; stroke-dasharray:3,3;"/>
<line x1="84.950000" y1="65.000000" x2="89.700000" y2="65.000000"  style="stroke: black; stroke-linecap:round; stroke-width:0.25; stroke-dasharray:3,3;"/>
<text x="52.700000" y="67.000000" font-family="Arial" font-size="7">dfe_taps</text>
<rect x="111.500000" y="59.000000" width="24.000000" height="24.000000" rx="0" ry="0" style="stroke:none;fill:#cccccc;"/>
<rect x="110.500000" y="58.000000" width="24.000000" height="24.000000" rx="0" ry="0" style="stroke:none;fill:#4B71A1;"/>
<text x="122.500000" y="72.000000" font-family="Arial" font-size="7" text-anchor="middle" fill="#FFFFFF">*</text>
<circle cx="112.500000" cy="60.000000" r="1"/>
<line x1="107.500000" y1="65.000000" x2="110.500000" y2="66.000000"  transform="rotate(0.000000,110.500000,66.000000)" style="stroke: black; stroke-width:0.25;"/>
<line x1="107.500000" y1="67.000000" x2="110.500000" y2="66.000000"  transform="rotate(0.000000,110.500000,66.000000)" style="stroke: black; stroke-width:0.25;"/>
<line x1="107.500000" y1="73.000000" x2="110.500000" y2="74.000000"  transform="rotate(0.000000,110.500000,74.000000)" style="stroke: black; stroke-width:0.25;"/>
<line x1="107.500000" y1="75.000000" x2="110.500000" y2="74.000000"  transform="rotate(0.000000,110.500000,74.000000)" style="stroke: black; stroke-width:0.25;"/>
<rect x="51.000000" y="127.000000" width="77.400000" height="24.000000" rx="0" ry="0" style="stroke:none;fill:#cccccc;"/>
<rect x="50.000000" y="126.000000" width="77.400000" height="24.000000" rx="0" ry="0" style="stroke:none;fill:#477881;"/>
<text x="88.700000" y="140.000000" font-family="Arial" font-size="7" text-anchor="middle" fill="#FFFFFF">checkbox(Training)</text>
<circle cx="52.000000" cy="128.000000" r="1"/>
<line x1="41.000000" y1="117.000000" x2="41.000000" y2="159.000000"  style="stroke: black; stroke-linecap:round; stroke-width:0.25; stroke-dasharray:3,3;"/>
<line x1="41.000000" y1="159.000000" x2="136.400000" y2="159.000000"  style="stroke: black; stroke-linecap:round; stroke-width:0.25; stroke-dasharray:3,3;"/>
<line x1="136.400000" y1="159.000000" x2="136.400000" y2="117.000000"  style="stroke: black; stroke-linecap:round; stroke-width:0.25; stroke-dasharray:3,3;"/>
<line x1="41.000000" y1="117.000000" x2="46.000000" y2="117.000000"  style="stroke: black; stroke-linecap:round; stroke-width:0.25; stroke-dasharray:3,3;"/>
<line x1="97.600000" y1="117.000000" x2="136.400000" y2="117.000000"  style="stroke: black; stroke-linecap:round; stroke-width:0.25; stroke-dasharray:3,3;"/>
<text x="46.000000" y="119.000000" font-family="Arial" font-size="7">switchtraining</text>
<rect x="154.400000" y="85.000000" width="24.000000" height="24.000000" rx="0" ry="0" style="stroke:none;fill:#cccccc;"/>
<rect x="153.400000" y="84.000000" width="24.000000" height="24.000000" rx="0" ry="0" style="stroke:none;fill:#4B71A1;"/>
<text x="165.400000" y="98.000000" font-family="Arial" font-size="7" text-anchor="middle" fill="#FFFFFF">*</text>
<circle cx="155.400000" cy="86.000000" r="1"/>
<line x1="150.400000" y1="91.000000" x2="153.400000" y2="92.000000"  transform="rotate(0.000000,153.400000,92.000000)" style="stroke: black; stroke-width:0.25;"/>
<line x1="150.400000" y1="93.000000" x2="153.400000" y2="92.000000"  transform="rotate(0.000000,153.400000,92.000000)" style="stroke: black; stroke-width:0.25;"/>
<line x1="150.400000" y1="99.000000" x2="153.400000" y2="100.000000"  transform="rotate(0.000000,153.400000,100.000000)" style="stroke: black; stroke-width:0.25;"/>
<line x1="150.400000" y1="101.000000" x2="153.400000" y2="100.000000"  transform="rotate(0.000000,153.400000,100.000000)" style="stroke: black; stroke-width:0.25;"/>
<rect x="194.400000" y="81.000000" width="24.000000" height="24.000000" rx="0" ry="0" style="stroke:none;fill:#cccccc;"/>
<rect x="193.400000" y="80.000000" width="24.000000" height="24.000000" rx="0" ry="0" style="stroke:none;fill:#4B71A1;"/>
<text x="205.400000" y="94.000000" font-family="Arial" font-size="7" text-anchor="middle" fill="#FFFFFF">@</text>
<circle cx="195.400000" cy="82.000000" r="1"/>
<line x1="190.400000" y1="87.000000" x2="193.400000" y2="88.000000"  transform="rotate(0.000000,193.400000,88.000000)" style="stroke: black; stroke-width:0.25;"/>
<line x1="190.400000" y1="89.000000" x2="193.400000" y2="88.000000"  transform="rotate(0.000000,193.400000,88.000000)" style="stroke: black; stroke-width:0.25;"/>
<line x1="190.400000" y1="95.000000" x2="193.400000" y2="96.000000"  transform="rotate(0.000000,193.400000,96.000000)" style="stroke: black; stroke-width:0.25;"/>
<line x1="190.400000" y1="97.000000" x2="193.400000" y2="96.000000"  transform="rotate(0.000000,193.400000,96.000000)" style="stroke: black; stroke-width:0.25;"/>
<a xlink:href="delay-0x7f8ada489cb0.svg">
<rect x="43.900000" y="177.000000" width="51.600000" height="24.000000" rx="0" ry="0" style="stroke:none;fill:#cccccc;"/>
<rect x="42.900000" y="176.000000" width="51.600000" height="24.000000" rx="0" ry="0" style="stroke:none;fill:#003366;"/>
</a>
<a xlink:href="delay-0x7f8ada489cb0.svg">
<text x="68.700000" y="190.000000" font-family="Arial" font-size="7" text-anchor="middle" fill="#FFFFFF">delay_time</text>
</a>
<circle cx="44.900000" cy="178.000000" r="1"/>
<rect x="57.700000" y="219.000000" width="24.000000" height="24.000000" rx="0" ry="0" style="stroke:none;fill:#cccccc;"/>
<rect x="56.700000" y="218.000000" width="24.000000" height="24.000000" rx="0" ry="0" style="stroke:none;fill:#f44800;"/>
<text x="68.700000" y="232.000000" font-family="Arial" font-size="7" text-anchor="middle" fill="#FFFFFF">2</text>
<circle cx="58.700000" cy="220.000000" r="1"/>
<line x1="47.700000" y1="209.000000" x2="47.700000" y2="251.000000"  style="stroke: black; stroke-linecap:round; stroke-width:0.25; stroke-dasharray:3,3;"/>
<line x1="47.700000" y1="251.000000" x2="89.700000" y2="251.000000"  style="stroke: black; stroke-linecap:round; stroke-width:0.25; stroke-dasharray:3,3;"/>
<line x1="89.700000" y1="251.000000" x2="89.700000" y2="209.000000"  style="stroke: black; stroke-linecap:round; stroke-width:0.25; stroke-dasharray:3,3;"/>
<line x1="47.700000" y1="209.000000" x2="52.700000" y2="209.000000"  style="stroke: black; stroke-linecap:round; stroke-width:0.25; stroke-dasharray:3,3;"/>
<line x1="84.950000" y1="209.000000" x2="89.700000" y2="209.000000"  style="stroke: black; stroke-linecap:round; stroke-width:0.25; stroke-dasharray:3,3;"/>
<text x="52.700000" y="211.000000" font-family="Arial" font-size="7">dfe_taps</text>
<rect x="111.500000" y="203.000000" width="24.000000" height="24.000000" rx="0" ry="0" style="stroke:none;fill:#cccccc;"/>
<rect x="110.500000" y="202.000000" width="24.000000" height="24.000000" rx="0" ry="0" style="stroke:none;fill:#4B71A1;"/>
<text x="122.500000" y="216.000000" font-family="Arial" font-size="7" text-anchor="middle" fill="#FFFFFF">*</text>
<circle cx="112.500000" cy="204.000000" r="1"/>
<line x1="107.500000" y1="209.000000" x2="110.500000" y2="210.000000"  transform="rotate(0.000000,110.500000,210.000000)" style="stroke: black; stroke-width:0.25;"/>
<line x1="107.500000" y1="211.000000" x2="110.500000" y2="210.000000"  transform="rotate(0.000000,110.500000,210.000000)" style="stroke: black; stroke-width:0.25;"/>
<line x1="107.500000" y1="217.000000" x2="110.500000" y2="218.000000"  transform="rotate(0.000000,110.500000,218.000000)" style="stroke: black; stroke-width:0.25;"/>
<line x1="107.500000" y1="219.000000" x2="110.500000" y2="218.000000"  transform="rotate(0.000000,110.500000,218.000000)" style="stroke: black; stroke-width:0.25;"/>
<rect x="51.000000" y="271.000000" width="77.400000" height="24.000000" rx="0" ry="0" style="stroke:none;fill:#cccccc;"/>
<rect x="50.000000" y="270.000000" width="77.400000" height="24.000000" rx="0" ry="0" style="stroke:none;fill:#477881;"/>
<text x="88.700000" y="284.000000" font-family="Arial" font-size="7" text-anchor="middle" fill="#FFFFFF">checkbox(Training)</text>
<circle cx="52.000000" cy="272.000000" r="1"/>
<line x1="41.000000" y1="261.000000" x2="41.000000" y2="303.000000"  style="stroke: black; stroke-linecap:round; stroke-width:0.25; stroke-dasharray:3,3;"/>
<line x1="41.000000" y1="303.000000" x2="136.400000" y2="303.000000"  style="stroke: black; stroke-linecap:round; stroke-width:0.25; stroke-dasharray:3,3;"/>
<line x1="136.400000" y1="303.000000" x2="136.400000" y2="261.000000"  style="stroke: black; stroke-linecap:round; stroke-width:0.25; stroke-dasharray:3,3;"/>
<line x1="41.000000" y1="261.000000" x2="46.000000" y2="261.000000"  style="stroke: black; stroke-linecap:round; stroke-width:0.25; stroke-dasharray:3,3;"/>
<line x1="97.600000" y1="261.000000" x2="136.400000" y2="261.000000"  style="stroke: black; stroke-linecap:round; stroke-width:0.25; stroke-dasharray:3,3;"/>
<text x="46.000000" y="263.000000" font-family="Arial" font-size="7">switchtraining</text>
<rect x="154.400000" y="229.000000" width="24.000000" height="24.000000" rx="0" ry="0" style="stroke:none;fill:#cccccc;"/>
<rect x="153.400000" y="228.000000" width="24.000000" height="24.000000" rx="0" ry="0" style="stroke:none;fill:#4B71A1;"/>
<text x="165.400000" y="242.000000" font-family="Arial" font-size="7" text-anchor="middle" fill="#FFFFFF">*</text>
<circle cx="155.400000" cy="230.000000" r="1"/>
<line x1="150.400000" y1="235.000000" x2="153.400000" y2="236.000000"  transform="rotate(0.000000,153.400000,236.000000)" style="stroke: black; stroke-width:0.25;"/>
<line x1="150.400000" y1="237.000000" x2="153.400000" y2="236.000000"  transform="rotate(0.000000,153.400000,236.000000)" style="stroke: black; stroke-width:0.25;"/>
<line x1="150.400000" y1="243.000000" x2="153.400000" y2="244.000000"  transform="rotate(0.000000,153.400000,244.000000)" style="stroke: black; stroke-width:0.25;"/>
<line x1="150.400000" y1="245.000000" x2="153.400000" y2="244.000000"  transform="rotate(0.000000,153.400000,244.000000)" style="stroke: black; stroke-width:0.25;"/>
<rect x="194.400000" y="225.000000" width="24.000000" height="24.000000" rx="0" ry="0" style="stroke:none;fill:#cccccc;"/>
<rect x="193.400000" y="224.000000" width="24.000000" height="24.000000" rx="0" ry="0" style="stroke:none;fill:#4B71A1;"/>
<text x="205.400000" y="238.000000" font-family="Arial" font-size="7" text-anchor="middle" fill="#FFFFFF">@</text>
<circle cx="195.400000" cy="226.000000" r="1"/>
<line x1="190.400000" y1="231.000000" x2="193.400000" y2="232.000000"  transform="rotate(0.000000,193.400000,232.000000)" style="stroke: black; stroke-width:0.25;"/>
<line x1="190.400000" y1="233.000000" x2="193.400000" y2="232.000000"  transform="rotate(0.000000,193.400000,232.000000)" style="stroke: black; stroke-width:0.25;"/>
<line x1="190.400000" y1="239.000000" x2="193.400000" y2="240.000000"  transform="rotate(0.000000,193.400000,240.000000)" style="stroke: black; stroke-width:0.25;"/>
<line x1="190.400000" y1="241.000000" x2="193.400000" y2="240.000000"  transform="rotate(0.000000,193.400000,240.000000)" style="stroke: black; stroke-width:0.25;"/>
<line x1="15.000000" y1="15.000000" x2="15.000000" y2="313.000000"  style="stroke: black; stroke-linecap:round; stroke-width:0.25; stroke-dasharray:3,3;"/>
<line x1="15.000000" y1="313.000000" x2="242.400000" y2="313.000000"  style="stroke: black; stroke-linecap:round; stroke-width:0.25; stroke-dasharray:3,3;"/>
<line x1="242.400000" y1="313.000000" x2="242.400000" y2="15.000000"  style="stroke: black; stroke-linecap:round; stroke-width:0.25; stroke-dasharray:3,3;"/>
<line x1="15.000000" y1="15.000000" x2="20.000000" y2="15.000000"  style="stroke: black; stroke-linecap:round; stroke-width:0.25; stroke-dasharray:3,3;"/>
<line x1="52.250000" y1="15.000000" x2="242.400000" y2="15.000000"  style="stroke: black; stroke-linecap:round; stroke-width:0.25; stroke-dasharray:3,3;"/>
<text x="20.000000" y="17.000000" font-family="Arial" font-size="7">traindel</text>
<line x1="244.400000" y1="159.000000" x2="247.400000" y2="160.000000"  transform="rotate(0.000000,247.400000,160.000000)" style="stroke: black; stroke-width:0.25;"/>
<line x1="244.400000" y1="161.000000" x2="247.400000" y2="160.000000"  transform="rotate(0.000000,247.400000,160.000000)" style="stroke: black; stroke-width:0.25;"/>
<line x1="244.400000" y1="167.000000" x2="247.400000" y2="168.000000"  transform="rotate(0.000000,247.400000,168.000000)" style="stroke: black; stroke-width:0.25;"/>
<line x1="244.400000" y1="169.000000" x2="247.400000" y2="168.000000"  transform="rotate(0.000000,247.400000,168.000000)" style="stroke: black; stroke-width:0.25;"/>
<line x1="10.000000" y1="160.000000" x2="20.000000" y2="160.000000"  style="stroke:black; stroke-linecap:round; stroke-width:0.25;"/>
<line x1="10.000000" y1="168.000000" x2="20.000000" y2="168.000000"  style="stroke:black; stroke-linecap:round; stroke-width:0.25;"/>
<line x1="20.000000" y1="160.000000" x2="24.000000" y2="160.000000"  style="stroke:black; stroke-linecap:round; stroke-width:0.25;"/>
<line x1="20.000000" y1="168.000000" x2="24.000000" y2="168.000000"  style="stroke:black; stroke-linecap:round; stroke-width:0.25;"/>
<line x1="24.000000" y1="160.000000" x2="28.000000" y2="160.000000"  style="stroke:black; stroke-linecap:round; stroke-width:0.25;"/>
<line x1="24.000000" y1="168.000000" x2="28.000000" y2="168.000000"  style="stroke:black; stroke-linecap:round; stroke-width:0.25;"/>
<line x1="28.000000" y1="24.000000" x2="36.000000" y2="24.000000"  style="stroke:black; stroke-linecap:round; stroke-width:0.25;"/>
<line x1="28.000000" y1="160.000000" x2="28.000000" y2="24.000000"  style="stroke:black; stroke-linecap:round; stroke-width:0.25;"/>
<line x1="28.000000" y1="160.000000" x2="28.000000" y2="160.000000"  style="stroke:black; stroke-linecap:round; stroke-width:0.25;"/>
<line x1="28.000000" y1="168.000000" x2="36.000000" y2="168.000000"  style="stroke:black; stroke-linecap:round; stroke-width:0.25;"/>
<line x1="36.000000" y1="24.000000" x2="108.700000" y2="24.000000"  style="stroke:black; stroke-linecap:round; stroke-width:0.25;"/>
<line x1="36.000000" y1="168.000000" x2="108.700000" y2="168.000000"  style="stroke:black; stroke-linecap:round; stroke-width:0.25;"/>
<line x1="80.700000" y1="86.000000" x2="84.700000" y2="86.000000"  style="stroke:black; stroke-linecap:round; stroke-width:0.25;"/>
<line x1="80.700000" y1="230.000000" x2="84.700000" y2="230.000000"  style="stroke:black; stroke-linecap:round; stroke-width:0.25;"/>
<line x1="84.700000" y1="86.000000" x2="94.700000" y2="86.000000"  style="stroke:black; stroke-linecap:round; stroke-width:0.25;"/>
<line x1="84.700000" y1="230.000000" x2="94.700000" y2="230.000000"  style="stroke:black; stroke-linecap:round; stroke-width:0.25;"/>
<line x1="94.500000" y1="44.000000" x2="98.500000" y2="44.000000"  style="stroke:black; stroke-linecap:round; stroke-width:0.25;"/>
<line x1="94.500000" y1="188.000000" x2="98.500000" y2="188.000000"  style="stroke:black; stroke-linecap:round; stroke-width:0.25;"/>
<line x1="94.700000" y1="86.000000" x2="98.500000" y2="86.000000"  style="stroke:black; stroke-linecap:round; stroke-width:0.25;"/>
<line x1="94.700000" y1="230.000000" x2="98.500000" y2="230.000000"  style="stroke:black; stroke-linecap:round; stroke-width:0.25;"/>
<line x1="98.500000" y1="74.000000" x2="106.500000" y2="74.000000"  style="stroke:black; stroke-linecap:round; stroke-width:0.25;"/>
<line x1="98.500000" y1="86.000000" x2="98.500000" y2="74.000000"  style="stroke:black; stroke-linecap:round; stroke-width:0.25;"/>
<line x1="98.500000" y1="86.000000" x2="98.500000" y2="86.000000"  style="stroke:black; stroke-linecap:round; stroke-width:0.25;"/>
<line x1="98.500000" y1="218.000000" x2="106.500000" y2="218.000000"  style="stroke:black; stroke-linecap:round; stroke-width:0.25;"/>
<line x1="98.500000" y1="230.000000" x2="98.500000" y2="218.000000"  style="stroke:black; stroke-linecap:round; stroke-width:0.25;"/>
<line x1="98.500000" y1="230.000000" x2="98.500000" y2="230.000000"  style="stroke:black; stroke-linecap:round; stroke-width:0.25;"/>
<line x1="98.500000" y1="44.000000" x2="106.500000" y2="44.000000"  style="stroke:black; stroke-linecap:round; stroke-width:0.25;"/>
<line x1="98.500000" y1="188.000000" x2="106.500000" y2="188.000000"  style="stroke:black; stroke-linecap:round; stroke-width:0.25;"/>
<line x1="106.500000" y1="44.000000" x2="106.500000" y2="66.000000"  style="stroke:black; stroke-linecap:round; stroke-width:0.25;"/>
<line x1="106.500000" y1="66.000000" x2="106.500000" y2="66.000000"  style="stroke:black; stroke-linecap:round; stroke-width:0.25;"/>
<line x1="106.500000" y1="66.000000" x2="110.500000" y2="66.000000"  style="stroke:black; stroke-linecap:round; stroke-width:0.25;"/>
<line x1="106.500000" y1="74.000000" x2="110.500000" y2="74.000000"  style="stroke:black; stroke-linecap:round; stroke-width:0.25;"/>
<line x1="106.500000" y1="188.000000" x2="106.500000" y2="210.000000"  style="stroke:black; stroke-linecap:round; stroke-width:0.25;"/>
<line x1="106.500000" y1="210.000000" x2="106.500000" y2="210.000000"  style="stroke:black; stroke-linecap:round; stroke-width:0.25;"/>
<line x1="106.500000" y1="210.000000" x2="110.500000" y2="210.000000"  style="stroke:black; stroke-linecap:round; stroke-width:0.25;"/>
<line x1="106.500000" y1="218.000000" x2="110.500000" y2="218.000000"  style="stroke:black; stroke-linecap:round; stroke-width:0.25;"/>
<line x1="108.700000" y1="24.000000" x2="181.400000" y2="24.000000"  style="stroke:black; stroke-linecap:round; stroke-width:0.25;"/>
<line x1="108.700000" y1="168.000000" x2="181.400000" y2="168.000000"  style="stroke:black; stroke-linecap:round; stroke-width:0.25;"/>
<line x1="127.400000" y1="138.000000" x2="131.400000" y2="138.000000"  style="stroke:black; stroke-linecap:round; stroke-width:0.25;"/>
<line x1="127.400000" y1="282.000000" x2="131.400000" y2="282.000000"  style="stroke:black; stroke-linecap:round; stroke-width:0.25;"/>
<line x1="131.400000" y1="138.000000" x2="141.400000" y2="138.000000"  style="stroke:black; stroke-linecap:round; stroke-width:0.25;"/>
<line x1="131.400000" y1="282.000000" x2="141.400000" y2="282.000000"  style="stroke:black; stroke-linecap:round; stroke-width:0.25;"/>
<line x1="134.500000" y1="70.000000" x2="138.500000" y2="70.000000"  style="stroke:black; stroke-linecap:round; stroke-width:0.25;"/>
<line x1="134.500000" y1="214.000000" x2="138.500000" y2="214.000000"  style="stroke:black; stroke-linecap:round; stroke-width:0.25;"/>
<line x1="138.500000" y1="70.000000" x2="141.400000" y2="70.000000"  style="stroke:black; stroke-linecap:round; stroke-width:0.25;"/>
<line x1="138.500000" y1="214.000000" x2="141.400000" y2="214.000000"  style="stroke:black; stroke-linecap:round; stroke-width:0.25;"/>
<line x1="141.400000" y1="100.000000" x2="149.400000" y2="100.000000"  style="stroke:black; stroke-linecap:round; stroke-width:0.25;"/>
<line x1="141.400000" y1="138.000000" x2="141.400000" y2="100.000000"  style="stroke:black; stroke-linecap:round; stroke-width:0.25;"/>
<line x1="141.400000" y1="138.000000" x2="141.400000" y2="138.000000"  style="stroke:black; stroke-linecap:round; stroke-width:0.25;"/>
<line x1="141.400000" y1="244.000000" x2="149.400000" y2="244.000000"  style="stroke:black; stroke-linecap:round; stroke-width:0.25;"/>
<line x1="141.400000" y1="282.000000" x2="141.400000" y2="244.000000"  style="stroke:black; stroke-linecap:round; stroke-width:0.25;"/>
<line x1="141.400000" y1="282.000000" x2="141.400000" y2="282.000000"  style="stroke:black; stroke-linecap:round; stroke-width:0.25;"/>
<line x1="141.400000" y1="70.000000" x2="149.400000" y2="70.000000"  style="stroke:black; stroke-linecap:round; stroke-width:0.25;"/>
<line x1="141.400000" y1="214.000000" x2="149.400000" y2="214.000000"  style="stroke:black; stroke-linecap:round; stroke-width:0.25;"/>
<line x1="149.400000" y1="92.000000" x2="153.400000" y2="92.000000"  style="stroke:black; stroke-linecap:round; stroke-width:0.25;"/>
<line x1="149.400000" y1="100.000000" x2="153.400000" y2="100.000000"  style="stroke:black; stroke-linecap:round; stroke-width:0.25;"/>
<line x1="149.400000" y1="236.000000" x2="153.400000" y2="236.000000"  style="stroke:black; stroke-linecap:round; stroke-width:0.25;"/>
<line x1="149.400000" y1="244.000000" x2="153.400000" y2="244.000000"  style="stroke:black; stroke-linecap:round; stroke-width:0.25;"/>
<line x1="149.400000" y1="70.000000" x2="149.400000" y2="92.000000"  style="stroke:black; stroke-linecap:round; stroke-width:0.25;"/>
<line x1="149.400000" y1="92.000000" x2="149.400000" y2="92.000000"  style="stroke:black; stroke-linecap:round; stroke-width:0.25;"/>
<line x1="149.400000" y1="214.000000" x2="149.400000" y2="236.000000"  style="stroke:black; stroke-linecap:round; stroke-width:0.25;"/>
<line x1="149.400000" y1="236.000000" x2="149.400000" y2="236.000000"  style="stroke:black; stroke-linecap:round; stroke-width:0.25;"/>
<line x1="177.400000" y1="96.000000" x2="181.400000" y2="96.000000"  style="stroke:black; stroke-linecap:round; stroke-width:0.25;"/>
<line x1="177.400000" y1="240.000000" x2="181.400000" y2="240.000000"  style="stroke:black; stroke-linecap:round; stroke-width:0.25;"/>
<line x1="181.400000" y1="24.000000" x2="189.400000" y2="24.000000"  style="stroke:black; stroke-linecap:round; stroke-width:0.25;"/>
<line x1="181.400000" y1="96.000000" x2="189.400000" y2="96.000000"  style="stroke:black; stroke-linecap:round; stroke-width:0.25;"/>
<line x1="181.400000" y1="168.000000" x2="189.400000" y2="168.000000"  style="stroke:black; stroke-linecap:round; stroke-width:0.25;"/>
<line x1="181.400000" y1="240.000000" x2="189.400000" y2="240.000000"  style="stroke:black; stroke-linecap:round; stroke-width:0.25;"/>
<line x1="189.400000" y1="24.000000" x2="189.400000" y2="88.000000"  style="stroke:black; stroke-linecap:round; stroke-width:0.25;"/>
<line x1="189.400000" y1="88.000000" x2="189.400000" y2="88.000000"  style="stroke:black; stroke-linecap:round; stroke-width:0.25;"/>
<line x1="189.400000" y1="88.000000" x2="193.400000" y2="88.000000"  style="stroke:black; stroke-linecap:round; stroke-width:0.25;"/>
<line x1="189.400000" y1="96.000000" x2="193.400000" y2="96.000000"  style="stroke:black; stroke-linecap:round; stroke-width:0.25;"/>
<line x1="189.400000" y1="168.000000" x2="189.400000" y2="232.000000"  style="stroke:black; stroke-linecap:round; stroke-width:0.25;"/>
<line x1="189.400000" y1="232.000000" x2="189.400000" y2="232.000000"  style="stroke:black; stroke-linecap:round; stroke-width:0.25;"/>
<line x1="189.400000" y1="232.000000" x2="193.400000" y2="232.000000"  style="stroke:black; stroke-linecap:round; stroke-width:0.25;"/>
<line x1="189.400000" y1="240.000000" x2="193.400000" y2="240.000000"  style="stroke:black; stroke-linecap:round; stroke-width:0.25;"/>
<line x1="217.400000" y1="92.000000" x2="221.400000" y2="92.000000"  style="stroke:black; stroke-linecap:round; stroke-width:0.25;"/>
<line x1="217.400000" y1="236.000000" x2="221.400000" y2="236.000000"  style="stroke:black; stroke-linecap:round; stroke-width:0.25;"/>
<line x1="221.400000" y1="92.000000" x2="229.400000" y2="92.000000"  style="stroke:black; stroke-linecap:round; stroke-width:0.25;"/>
<line x1="221.400000" y1="168.000000" x2="229.400000" y2="168.000000"  style="stroke:black; stroke-linecap:round; stroke-width:0.25;"/>
<line x1="221.400000" y1="236.000000" x2="221.400000" y2="168.000000"  style="stroke:black; stroke-linecap:round; stroke-width:0.25;"/>
<line x1="221.400000" y1="236.000000" x2="221.400000" y2="236.000000"  style="stroke:black; stroke-linecap:round; stroke-width:0.25;"/>
<line x1="229.400000" y1="92.000000" x2="229.400000" y2="160.000000"  style="stroke:black; stroke-linecap:round; stroke-width:0.25;"/>
<line x1="229.400000" y1="160.000000" x2="229.400000" y2="160.000000"  style="stroke:black; stroke-linecap:round; stroke-width:0.25;"/>
<line x1="229.400000" y1="160.000000" x2="233.400000" y2="160.000000"  style="stroke:black; stroke-linecap:round; stroke-width:0.25;"/>
<line x1="229.400000" y1="168.000000" x2="233.400000" y2="168.000000"  style="stroke:black; stroke-linecap:round; stroke-width:0.25;"/>
<line x1="233.400000" y1="160.000000" x2="237.400000" y2="160.000000"  style="stroke:black; stroke-linecap:round; stroke-width:0.25;"/>
<line x1="233.400000" y1="168.000000" x2="237.400000" y2="168.000000"  style="stroke:black; stroke-linecap:round; stroke-width:0.25;"/>
<line x1="237.400000" y1="160.000000" x2="247.400000" y2="160.000000"  style="stroke:black; stroke-linecap:round; stroke-width:0.25;"/>
<line x1="237.400000" y1="168.000000" x2="247.400000" y2="168.000000"  style="stroke:black; stroke-linecap:round; stroke-width:0.25;"/>
</svg>
