<?xml version="1.0"?>
<svg xmlns="http://www.w3.org/2000/svg" xmlns:xlink="http://www.w3.org/1999/xlink" viewBox="0 0 425.600000 196.000000" width="212.800000mm" height="98.000000mm" version="1.1">
<a xlink:href="c-0x7f8adc242440.svg">
<rect x="1.000000" y="1.000000" width="424.600000" height="195.000000" rx="0" ry="0" style="stroke:none;fill:#cccccc;"/>
<rect x="0.000000" y="0.000000" width="424.600000" height="195.000000" rx="0" ry="0" style="stroke:none;fill:#ffffff;"/>
</a>
<text x="10.000000" y="7.000000" font-family="Arial" font-size="7"></text>
<rect x="157.800000" y="35.000000" width="24.000000" height="24.000000" rx="0" ry="0" style="stroke:none;fill:#cccccc;"/>
<rect x="156.800000" y="34.000000" width="24.000000" height="24.000000" rx="0" ry="0" style="stroke:none;fill:#f44800;"/>
<text x="168.800000" y="48.000000" font-family="Arial" font-size="7" text-anchor="middle" fill="#FFFFFF">2</text>
<circle cx="158.800000" cy="36.000000" r="1"/>
<line x1="147.800000" y1="25.000000" x2="147.800000" y2="67.000000"  style="stroke: black; stroke-linecap:round; stroke-width:0.25; stroke-dasharray:3,3;"/>
<line x1="147.800000" y1="67.000000" x2="189.800000" y2="67.000000"  style="stroke: black; stroke-linecap:round; stroke-width:0.25; stroke-dasharray:3,3;"/>
<line x1="189.800000" y1="67.000000" x2="189.800000" y2="25.000000"  style="stroke: black; stroke-linecap:round; stroke-width:0.25; stroke-dasharray:3,3;"/>
<line x1="147.800000" y1="25.000000" x2="152.800000" y2="25.000000"  style="stroke: black; stroke-linecap:round; stroke-width:0.25; stroke-dasharray:3,3;"/>
<line x1="185.050000" y1="25.000000" x2="189.800000" y2="25.000000"  style="stroke: black; stroke-linecap:round; stroke-width:0.25; stroke-dasharray:3,3;"/>
<text x="152.800000" y="27.000000" font-family="Arial" font-size="7">dfe_taps</text>
<rect x="150.450000" y="87.000000" width="38.700000" height="24.000000" rx="0" ry="0" style="stroke:none;fill:#cccccc;"/>
<rect x="149.450000" y="86.000000" width="38.700000" height="24.000000" rx="0" ry="0" style="stroke:none;fill:#f44800;"/>
<text x="168.800000" y="100.000000" font-family="Arial" font-size="7" text-anchor="middle" fill="#FFFFFF">3.14159</text>
<circle cx="151.450000" cy="88.000000" r="1"/>
<line x1="140.450000" y1="77.000000" x2="140.450000" y2="119.000000"  style="stroke: black; stroke-linecap:round; stroke-width:0.25; stroke-dasharray:3,3;"/>
<line x1="140.450000" y1="119.000000" x2="197.150000" y2="119.000000"  style="stroke: black; stroke-linecap:round; stroke-width:0.25; stroke-dasharray:3,3;"/>
<line x1="197.150000" y1="119.000000" x2="197.150000" y2="77.000000"  style="stroke: black; stroke-linecap:round; stroke-width:0.25; stroke-dasharray:3,3;"/>
<line x1="140.450000" y1="77.000000" x2="145.450000" y2="77.000000"  style="stroke: black; stroke-linecap:round; stroke-width:0.25; stroke-dasharray:3,3;"/>
<line x1="158.350000" y1="77.000000" x2="197.150000" y2="77.000000"  style="stroke: black; stroke-linecap:round; stroke-width:0.25; stroke-dasharray:3,3;"/>
<text x="145.450000" y="79.000000" font-family="Arial" font-size="7">PI</text>
<rect x="215.150000" y="61.000000" width="24.000000" height="24.000000" rx="0" ry="0" style="stroke:none;fill:#cccccc;"/>
<rect x="214.150000" y="60.000000" width="24.000000" height="24.000000" rx="0" ry="0" style="stroke:none;fill:#4B71A1;"/>
<text x="226.150000" y="74.000000" font-family="Arial" font-size="7" text-anchor="middle" fill="#FFFFFF">*</text>
<circle cx="216.150000" cy="62.000000" r="1"/>
<line x1="211.150000" y1="67.000000" x2="214.150000" y2="68.000000"  transform="rotate(0.000000,214.150000,68.000000)" style="stroke: black; stroke-width:0.25;"/>
<line x1="211.150000" y1="69.000000" x2="214.150000" y2="68.000000"  transform="rotate(0.000000,214.150000,68.000000)" style="stroke: black; stroke-width:0.25;"/>
<line x1="211.150000" y1="75.000000" x2="214.150000" y2="76.000000"  transform="rotate(0.000000,214.150000,76.000000)" style="stroke: black; stroke-width:0.25;"/>
<line x1="211.150000" y1="77.000000" x2="214.150000" y2="76.000000"  transform="rotate(0.000000,214.150000,76.000000)" style="stroke: black; stroke-width:0.25;"/>
<rect x="35.000000" y="139.000000" width="309.600000" height="24.000000" rx="0" ry="0" style="stroke:none;fill:#cccccc;"/>
<rect x="34.000000" y="138.000000" width="309.600000" height="24.000000" rx="0" ry="0" style="stroke:none;fill:#477881;"/>
<text x="188.800000" y="152.000000" font-family="Arial" font-size="7" text-anchor="middle" fill="#FFFFFF">hslider(dem_rolloffrate, 296.0f, 100.0f, 10000.0f, 0.10000000000000001f)</text>
<circle cx="36.000000" cy="140.000000" r="1"/>
<line x1="25.000000" y1="129.000000" x2="25.000000" y2="171.000000"  style="stroke: black; stroke-linecap:round; stroke-width:0.25; stroke-dasharray:3,3;"/>
<line x1="25.000000" y1="171.000000" x2="352.600000" y2="171.000000"  style="stroke: black; stroke-linecap:round; stroke-width:0.25; stroke-dasharray:3,3;"/>
<line x1="352.600000" y1="171.000000" x2="352.600000" y2="129.000000"  style="stroke: black; stroke-linecap:round; stroke-width:0.25; stroke-dasharray:3,3;"/>
<line x1="25.000000" y1="129.000000" x2="30.000000" y2="129.000000"  style="stroke: black; stroke-linecap:round; stroke-width:0.25; stroke-dasharray:3,3;"/>
<line x1="88.050000" y1="129.000000" x2="352.600000" y2="129.000000"  style="stroke: black; stroke-linecap:round; stroke-width:0.25; stroke-dasharray:3,3;"/>
<text x="30.000000" y="131.000000" font-family="Arial" font-size="7">dem_rolloff_rate</text>
<rect x="370.600000" y="87.000000" width="24.000000" height="24.000000" rx="0" ry="0" style="stroke:none;fill:#cccccc;"/>
<rect x="369.600000" y="86.000000" width="24.000000" height="24.000000" rx="0" ry="0" style="stroke:none;fill:#4B71A1;"/>
<text x="381.600000" y="100.000000" font-family="Arial" font-size="7" text-anchor="middle" fill="#FFFFFF">*</text>
<circle cx="371.600000" cy="88.000000" r="1"/>
<line x1="366.600000" y1="93.000000" x2="369.600000" y2="94.000000"  transform="rotate(0.000000,369.600000,94.000000)" style="stroke: black; stroke-width:0.25;"/>
<line x1="366.600000" y1="95.000000" x2="369.600000" y2="94.000000"  transform="rotate(0.000000,369.600000,94.000000)" style="stroke: black; stroke-width:0.25;"/>
<line x1="366.600000" y1="101.000000" x2="369.600000" y2="102.000000"  transform="rotate(0.000000,369.600000,102.000000)" style="stroke: black; stroke-width:0.25;"/>
<line x1="366.600000" y1="103.000000" x2="369.600000" y2="102.000000"  transform="rotate(0.000000,369.600000,102.000000)" style="stroke: black; stroke-width:0.25;"/>
<line x1="15.000000" y1="15.000000" x2="15.000000" y2="181.000000"  style="stroke: black; stroke-linecap:round; stroke-width:0.25; stroke-dasharray:3,3;"/>
<line x1="15.000000" y1="181.000000" x2="410.600000" y2="181.000000"  style="stroke: black; stroke-linecap:round; stroke-width:0.25; stroke-dasharray:3,3;"/>
<line x1="410.600000" y1="181.000000" x2="410.600000" y2="15.000000"  style="stroke: black; stroke-linecap:round; stroke-width:0.25; stroke-dasharray:3,3;"/>
<line x1="15.000000" y1="15.000000" x2="20.000000" y2="15.000000"  style="stroke: black; stroke-linecap:round; stroke-width:0.25; stroke-dasharray:3,3;"/>
<line x1="32.900000" y1="15.000000" x2="410.600000" y2="15.000000"  style="stroke: black; stroke-linecap:round; stroke-width:0.25; stroke-dasharray:3,3;"/>
<text x="20.000000" y="17.000000" font-family="Arial" font-size="7">w1</text>
<line x1="412.600000" y1="97.000000" x2="415.600000" y2="98.000000"  transform="rotate(0.000000,415.600000,98.000000)" style="stroke: black; stroke-width:0.25;"/>
<line x1="412.600000" y1="99.000000" x2="415.600000" y2="98.000000"  transform="rotate(0.000000,415.600000,98.000000)" style="stroke: black; stroke-width:0.25;"/>
<line x1="180.800000" y1="46.000000" x2="184.800000" y2="46.000000"  style="stroke:black; stroke-linecap:round; stroke-width:0.25;"/>
<line x1="184.800000" y1="46.000000" x2="194.800000" y2="46.000000"  style="stroke:black; stroke-linecap:round; stroke-width:0.25;"/>
<line x1="188.150000" y1="98.000000" x2="192.150000" y2="98.000000"  style="stroke:black; stroke-linecap:round; stroke-width:0.25;"/>
<line x1="192.150000" y1="98.000000" x2="202.150000" y2="98.000000"  style="stroke:black; stroke-linecap:round; stroke-width:0.25;"/>
<line x1="194.800000" y1="46.000000" x2="202.150000" y2="46.000000"  style="stroke:black; stroke-linecap:round; stroke-width:0.25;"/>
<line x1="202.150000" y1="46.000000" x2="210.150000" y2="46.000000"  style="stroke:black; stroke-linecap:round; stroke-width:0.25;"/>
<line x1="202.150000" y1="76.000000" x2="210.150000" y2="76.000000"  style="stroke:black; stroke-linecap:round; stroke-width:0.25;"/>
<line x1="202.150000" y1="98.000000" x2="202.150000" y2="76.000000"  style="stroke:black; stroke-linecap:round; stroke-width:0.25;"/>
<line x1="202.150000" y1="98.000000" x2="202.150000" y2="98.000000"  style="stroke:black; stroke-linecap:round; stroke-width:0.25;"/>
<line x1="210.150000" y1="46.000000" x2="210.150000" y2="68.000000"  style="stroke:black; stroke-linecap:round; stroke-width:0.25;"/>
<line x1="210.150000" y1="68.000000" x2="210.150000" y2="68.000000"  style="stroke:black; stroke-linecap:round; stroke-width:0.25;"/>
<line x1="210.150000" y1="68.000000" x2="214.150000" y2="68.000000"  style="stroke:black; stroke-linecap:round; stroke-width:0.25;"/>
<line x1="210.150000" y1="76.000000" x2="214.150000" y2="76.000000"  style="stroke:black; stroke-linecap:round; stroke-width:0.25;"/>
<line x1="238.150000" y1="72.000000" x2="242.150000" y2="72.000000"  style="stroke:black; stroke-linecap:round; stroke-width:0.25;"/>
<line x1="242.150000" y1="72.000000" x2="357.600000" y2="72.000000"  style="stroke:black; stroke-linecap:round; stroke-width:0.25;"/>
<line x1="343.600000" y1="150.000000" x2="347.600000" y2="150.000000"  style="stroke:black; stroke-linecap:round; stroke-width:0.25;"/>
<line x1="347.600000" y1="150.000000" x2="357.600000" y2="150.000000"  style="stroke:black; stroke-linecap:round; stroke-width:0.25;"/>
<line x1="357.600000" y1="72.000000" x2="365.600000" y2="72.000000"  style="stroke:black; stroke-linecap:round; stroke-width:0.25;"/>
<line x1="357.600000" y1="102.000000" x2="365.600000" y2="102.000000"  style="stroke:black; stroke-linecap:round; stroke-width:0.25;"/>
<line x1="357.600000" y1="150.000000" x2="357.600000" y2="102.000000"  style="stroke:black; stroke-linecap:round; stroke-width:0.25;"/>
<line x1="357.600000" y1="150.000000" x2="357.600000" y2="150.000000"  style="stroke:black; stroke-linecap:round; stroke-width:0.25;"/>
<line x1="365.600000" y1="72.000000" x2="365.600000" y2="94.000000"  style="stroke:black; stroke-linecap:round; stroke-width:0.25;"/>
<line x1="365.600000" y1="94.000000" x2="365.600000" y2="94.000000"  style="stroke:black; stroke-linecap:round; stroke-width:0.25;"/>
<line x1="365.600000" y1="94.000000" x2="369.600000" y2="94.000000"  style="stroke:black; stroke-linecap:round; stroke-width:0.25;"/>
<line x1="365.600000" y1="102.000000" x2="369.600000" y2="102.000000"  style="stroke:black; stroke-linecap:round; stroke-width:0.25;"/>
<line x1="393.600000" y1="98.000000" x2="397.600000" y2="98.000000"  style="stroke:black; stroke-linecap:round; stroke-width:0.25;"/>
<line x1="397.600000" y1="98.000000" x2="397.600000" y2="98.000000"  style="stroke:black; stroke-linecap:round; stroke-width:0.25;"/>
<line x1="397.600000" y1="98.000000" x2="401.600000" y2="98.000000"  style="stroke:black; stroke-linecap:round; stroke-width:0.25;"/>
<line x1="401.600000" y1="98.000000" x2="405.600000" y2="98.000000"  style="stroke:black; stroke-linecap:round; stroke-width:0.25;"/>
<line x1="405.600000" y1="98.000000" x2="415.600000" y2="98.000000"  style="stroke:black; stroke-linecap:round; stroke-width:0.25;"/>
</svg>
