<?xml version="1.0"?>
<svg xmlns="http://www.w3.org/2000/svg" xmlns:xlink="http://www.w3.org/1999/xlink" viewBox="0 0 453.500000 236.000000" width="226.750000mm" height="118.000000mm" version="1.1">
<a xlink:href="applyweight-0x7f8ada5d85f0.svg">
<rect x="1.000000" y="1.000000" width="452.500000" height="235.000000" rx="0" ry="0" style="stroke:none;fill:#cccccc;"/>
<rect x="0.000000" y="0.000000" width="452.500000" height="235.000000" rx="0" ry="0" style="stroke:none;fill:#ffffff;"/>
</a>
<text x="10.000000" y="7.000000" font-family="Arial" font-size="7"></text>
<rect x="43.000000" y="83.000000" width="193.500000" height="24.000000" rx="0" ry="0" style="stroke:none;fill:#cccccc;"/>
<rect x="42.000000" y="82.000000" width="193.500000" height="24.000000" rx="0" ry="0" style="stroke:none;fill:#477881;"/>
<text x="138.750000" y="96.000000" font-family="Arial" font-size="7" text-anchor="middle" fill="#FFFFFF">hslider(dfe_step, 0.0f, 0.0f, 2.0f, 0.0001f)</text>
<circle cx="44.000000" cy="84.000000" r="1"/>
<line x1="33.000000" y1="73.000000" x2="33.000000" y2="115.000000"  style="stroke: black; stroke-linecap:round; stroke-width:0.25; stroke-dasharray:3,3;"/>
<line x1="33.000000" y1="115.000000" x2="244.500000" y2="115.000000"  style="stroke: black; stroke-linecap:round; stroke-width:0.25; stroke-dasharray:3,3;"/>
<line x1="244.500000" y1="115.000000" x2="244.500000" y2="73.000000"  style="stroke: black; stroke-linecap:round; stroke-width:0.25; stroke-dasharray:3,3;"/>
<line x1="33.000000" y1="73.000000" x2="38.000000" y2="73.000000"  style="stroke: black; stroke-linecap:round; stroke-width:0.25; stroke-dasharray:3,3;"/>
<line x1="73.475000" y1="73.000000" x2="244.500000" y2="73.000000"  style="stroke: black; stroke-linecap:round; stroke-width:0.25; stroke-dasharray:3,3;"/>
<text x="38.000000" y="75.000000" font-family="Arial" font-size="7">step(x50)</text>
<rect x="127.750000" y="125.000000" width="24.000000" height="24.000000" rx="0" ry="0" style="stroke:none;fill:#cccccc;"/>
<rect x="126.750000" y="124.000000" width="24.000000" height="24.000000" rx="0" ry="0" style="stroke:none;fill:#47945E;"/>
<text x="138.750000" y="138.000000" font-family="Arial" font-size="7" text-anchor="middle" fill="#FFFFFF">e</text>
<circle cx="128.750000" cy="126.000000" r="1"/>
<rect x="262.500000" y="99.000000" width="24.000000" height="24.000000" rx="0" ry="0" style="stroke:none;fill:#cccccc;"/>
<rect x="261.500000" y="98.000000" width="24.000000" height="24.000000" rx="0" ry="0" style="stroke:none;fill:#4B71A1;"/>
<text x="273.500000" y="112.000000" font-family="Arial" font-size="7" text-anchor="middle" fill="#FFFFFF">*</text>
<circle cx="263.500000" cy="100.000000" r="1"/>
<line x1="258.500000" y1="105.000000" x2="261.500000" y2="106.000000"  transform="rotate(0.000000,261.500000,106.000000)" style="stroke: black; stroke-width:0.25;"/>
<line x1="258.500000" y1="107.000000" x2="261.500000" y2="106.000000"  transform="rotate(0.000000,261.500000,106.000000)" style="stroke: black; stroke-width:0.25;"/>
<line x1="258.500000" y1="113.000000" x2="261.500000" y2="114.000000"  transform="rotate(0.000000,261.500000,114.000000)" style="stroke: black; stroke-width:0.25;"/>
<line x1="258.500000" y1="115.000000" x2="261.500000" y2="114.000000"  transform="rotate(0.000000,261.500000,114.000000)" style="stroke: black; stroke-width:0.25;"/>
<rect x="147.750000" y="157.000000" width="24.000000" height="24.000000" rx="0" ry="0" style="stroke:none;fill:#cccccc;"/>
<rect x="146.750000" y="156.000000" width="24.000000" height="24.000000" rx="0" ry="0" style="stroke:none;fill:#47945E;"/>
<text x="158.750000" y="170.000000" font-family="Arial" font-size="7" text-anchor="middle" fill="#FFFFFF">iz</text>
<circle cx="148.750000" cy="158.000000" r="1"/>
<rect x="302.500000" y="115.000000" width="24.000000" height="24.000000" rx="0" ry="0" style="stroke:none;fill:#cccccc;"/>
<rect x="301.500000" y="114.000000" width="24.000000" height="24.000000" rx="0" ry="0" style="stroke:none;fill:#4B71A1;"/>
<text x="313.500000" y="128.000000" font-family="Arial" font-size="7" text-anchor="middle" fill="#FFFFFF">*</text>
<circle cx="303.500000" cy="116.000000" r="1"/>
<line x1="298.500000" y1="121.000000" x2="301.500000" y2="122.000000"  transform="rotate(0.000000,301.500000,122.000000)" style="stroke: black; stroke-width:0.25;"/>
<line x1="298.500000" y1="123.000000" x2="301.500000" y2="122.000000"  transform="rotate(0.000000,301.500000,122.000000)" style="stroke: black; stroke-width:0.25;"/>
<line x1="298.500000" y1="129.000000" x2="301.500000" y2="130.000000"  transform="rotate(0.000000,301.500000,130.000000)" style="stroke: black; stroke-width:0.25;"/>
<line x1="298.500000" y1="131.000000" x2="301.500000" y2="130.000000"  transform="rotate(0.000000,301.500000,130.000000)" style="stroke: black; stroke-width:0.25;"/>
<a xlink:href="c-0x7f8ada558b00.svg">
<rect x="166.850000" y="189.000000" width="25.800000" height="24.000000" rx="0" ry="0" style="stroke:none;fill:#cccccc;"/>
<rect x="165.850000" y="188.000000" width="25.800000" height="24.000000" rx="0" ry="0" style="stroke:none;fill:#003366;"/>
</a>
<a xlink:href="c-0x7f8ada558b00.svg">
<text x="178.750000" y="202.000000" font-family="Arial" font-size="7" text-anchor="middle" fill="#FFFFFF">c(x40)</text>
</a>
<circle cx="167.850000" cy="190.000000" r="1"/>
<rect x="342.500000" y="131.000000" width="24.000000" height="24.000000" rx="0" ry="0" style="stroke:none;fill:#cccccc;"/>
<rect x="341.500000" y="130.000000" width="24.000000" height="24.000000" rx="0" ry="0" style="stroke:none;fill:#4B71A1;"/>
<text x="353.500000" y="144.000000" font-family="Arial" font-size="7" text-anchor="middle" fill="#FFFFFF">*</text>
<circle cx="343.500000" cy="132.000000" r="1"/>
<line x1="338.500000" y1="137.000000" x2="341.500000" y2="138.000000"  transform="rotate(0.000000,341.500000,138.000000)" style="stroke: black; stroke-width:0.25;"/>
<line x1="338.500000" y1="139.000000" x2="341.500000" y2="138.000000"  transform="rotate(0.000000,341.500000,138.000000)" style="stroke: black; stroke-width:0.25;"/>
<line x1="338.500000" y1="145.000000" x2="341.500000" y2="146.000000"  transform="rotate(0.000000,341.500000,146.000000)" style="stroke: black; stroke-width:0.25;"/>
<line x1="338.500000" y1="147.000000" x2="341.500000" y2="146.000000"  transform="rotate(0.000000,341.500000,146.000000)" style="stroke: black; stroke-width:0.25;"/>
<rect x="382.500000" y="127.000000" width="24.000000" height="24.000000" rx="0" ry="0" style="stroke:none;fill:#cccccc;"/>
<rect x="381.500000" y="126.000000" width="24.000000" height="24.000000" rx="0" ry="0" style="stroke:none;fill:#4B71A1;"/>
<text x="393.500000" y="140.000000" font-family="Arial" font-size="7" text-anchor="middle" fill="#FFFFFF">+</text>
<circle cx="383.500000" cy="128.000000" r="1"/>
<line x1="378.500000" y1="133.000000" x2="381.500000" y2="134.000000"  transform="rotate(0.000000,381.500000,134.000000)" style="stroke: black; stroke-width:0.25;"/>
<line x1="378.500000" y1="135.000000" x2="381.500000" y2="134.000000"  transform="rotate(0.000000,381.500000,134.000000)" style="stroke: black; stroke-width:0.25;"/>
<line x1="378.500000" y1="141.000000" x2="381.500000" y2="142.000000"  transform="rotate(0.000000,381.500000,142.000000)" style="stroke: black; stroke-width:0.25;"/>
<line x1="378.500000" y1="143.000000" x2="381.500000" y2="142.000000"  transform="rotate(0.000000,381.500000,142.000000)" style="stroke: black; stroke-width:0.25;"/>
<rect x="194.600000" y="25.000000" width="90.300000" height="24.000000" rx="0" ry="0" style="stroke:none;fill:#cccccc;"/>
<rect x="193.600000" y="24.000000" width="90.300000" height="24.000000" rx="0" ry="0" style="stroke:none;fill:#477881;"/>
<text x="238.750000" y="38.000000" font-family="Arial" font-size="7" text-anchor="middle" fill="#FFFFFF">checkbox(coeff_reset)</text>
<circle cx="281.900000" cy="46.000000" r="1"/>
<rect x="154.600000" y="29.000000" width="24.000000" height="24.000000" rx="0" ry="0" style="stroke:none;fill:#cccccc;"/>
<rect x="153.600000" y="28.000000" width="24.000000" height="24.000000" rx="0" ry="0" style="stroke:none;fill:#4B71A1;"/>
<text x="165.600000" y="42.000000" font-family="Arial" font-size="7" text-anchor="middle" fill="#FFFFFF">*</text>
<circle cx="175.600000" cy="50.000000" r="1"/>
<line x1="180.600000" y1="43.000000" x2="177.600000" y2="44.000000"  transform="rotate(0.000000,177.600000,44.000000)" style="stroke: black; stroke-width:0.25;"/>
<line x1="180.600000" y1="45.000000" x2="177.600000" y2="44.000000"  transform="rotate(0.000000,177.600000,44.000000)" style="stroke: black; stroke-width:0.25;"/>
<line x1="180.600000" y1="35.000000" x2="177.600000" y2="36.000000"  transform="rotate(0.000000,177.600000,36.000000)" style="stroke: black; stroke-width:0.25;"/>
<line x1="180.600000" y1="37.000000" x2="177.600000" y2="36.000000"  transform="rotate(0.000000,177.600000,36.000000)" style="stroke: black; stroke-width:0.25;"/>
<line x1="407.500000" y1="138.000000" x2="407.500000" y2="134.000000"  style="stroke:black; stroke-linecap:round; stroke-width:0.25;"/>
<line x1="407.500000" y1="134.000000" x2="411.500000" y2="134.000000"  style="stroke:black; stroke-linecap:round; stroke-width:0.25;"/>
<line x1="411.500000" y1="134.000000" x2="411.500000" y2="138.000000"  style="stroke:black; stroke-linecap:round; stroke-width:0.25;"/>
<line x1="15.000000" y1="15.000000" x2="15.000000" y2="221.000000"  style="stroke: black; stroke-linecap:round; stroke-width:0.25; stroke-dasharray:3,3;"/>
<line x1="15.000000" y1="221.000000" x2="438.500000" y2="221.000000"  style="stroke: black; stroke-linecap:round; stroke-width:0.25; stroke-dasharray:3,3;"/>
<line x1="438.500000" y1="221.000000" x2="438.500000" y2="15.000000"  style="stroke: black; stroke-linecap:round; stroke-width:0.25; stroke-dasharray:3,3;"/>
<line x1="15.000000" y1="15.000000" x2="20.000000" y2="15.000000"  style="stroke: black; stroke-linecap:round; stroke-width:0.25; stroke-dasharray:3,3;"/>
<line x1="119.975000" y1="15.000000" x2="438.500000" y2="15.000000"  style="stroke: black; stroke-linecap:round; stroke-width:0.25; stroke-dasharray:3,3;"/>
<text x="20.000000" y="17.000000" font-family="Arial" font-size="7">weight(x40&lt;:m...49)(x50)(x54)</text>
<line x1="440.500000" y1="117.000000" x2="443.500000" y2="118.000000"  transform="rotate(0.000000,443.500000,118.000000)" style="stroke: black; stroke-width:0.25;"/>
<line x1="440.500000" y1="119.000000" x2="443.500000" y2="118.000000"  transform="rotate(0.000000,443.500000,118.000000)" style="stroke: black; stroke-width:0.25;"/>
<line x1="28.000000" y1="40.000000" x2="28.000000" y2="40.000000"  style="stroke:black; stroke-linecap:round; stroke-width:0.25;"/>
<line x1="28.000000" y1="40.000000" x2="28.000000" y2="64.000000"  style="stroke:black; stroke-linecap:round; stroke-width:0.25;"/>
<line x1="28.000000" y1="64.000000" x2="28.000000" y2="64.000000"  style="stroke:black; stroke-linecap:round; stroke-width:0.25;"/>
<line x1="28.000000" y1="64.000000" x2="198.750000" y2="64.000000"  style="stroke:black; stroke-linecap:round; stroke-width:0.25;"/>
<line x1="149.600000" y1="40.000000" x2="28.000000" y2="40.000000"  style="stroke:black; stroke-linecap:round; stroke-width:0.25;"/>
<line x1="150.750000" y1="136.000000" x2="154.750000" y2="136.000000"  style="stroke:black; stroke-linecap:round; stroke-width:0.25;"/>
<line x1="153.600000" y1="40.000000" x2="149.600000" y2="40.000000"  style="stroke:black; stroke-linecap:round; stroke-width:0.25;"/>
<line x1="154.750000" y1="136.000000" x2="249.500000" y2="136.000000"  style="stroke:black; stroke-linecap:round; stroke-width:0.25;"/>
<line x1="170.750000" y1="168.000000" x2="174.750000" y2="168.000000"  style="stroke:black; stroke-linecap:round; stroke-width:0.25;"/>
<line x1="174.750000" y1="168.000000" x2="289.500000" y2="168.000000"  style="stroke:black; stroke-linecap:round; stroke-width:0.25;"/>
<line x1="181.600000" y1="36.000000" x2="177.600000" y2="36.000000"  style="stroke:black; stroke-linecap:round; stroke-width:0.25;"/>
<line x1="181.600000" y1="44.000000" x2="177.600000" y2="44.000000"  style="stroke:black; stroke-linecap:round; stroke-width:0.25;"/>
<line x1="181.600000" y1="44.000000" x2="181.600000" y2="44.000000"  style="stroke:black; stroke-linecap:round; stroke-width:0.25;"/>
<line x1="181.600000" y1="56.000000" x2="181.600000" y2="44.000000"  style="stroke:black; stroke-linecap:round; stroke-width:0.25;"/>
<line x1="189.600000" y1="36.000000" x2="181.600000" y2="36.000000"  style="stroke:black; stroke-linecap:round; stroke-width:0.25;"/>
<line x1="189.600000" y1="56.000000" x2="181.600000" y2="56.000000"  style="stroke:black; stroke-linecap:round; stroke-width:0.25;"/>
<line x1="191.650000" y1="200.000000" x2="195.650000" y2="200.000000"  style="stroke:black; stroke-linecap:round; stroke-width:0.25;"/>
<line x1="193.600000" y1="36.000000" x2="189.600000" y2="36.000000"  style="stroke:black; stroke-linecap:round; stroke-width:0.25;"/>
<line x1="195.650000" y1="200.000000" x2="329.500000" y2="200.000000"  style="stroke:black; stroke-linecap:round; stroke-width:0.25;"/>
<line x1="198.750000" y1="64.000000" x2="369.500000" y2="64.000000"  style="stroke:black; stroke-linecap:round; stroke-width:0.25;"/>
<line x1="235.500000" y1="94.000000" x2="239.500000" y2="94.000000"  style="stroke:black; stroke-linecap:round; stroke-width:0.25;"/>
<line x1="238.750000" y1="56.000000" x2="189.600000" y2="56.000000"  style="stroke:black; stroke-linecap:round; stroke-width:0.25;"/>
<line x1="239.500000" y1="94.000000" x2="249.500000" y2="94.000000"  style="stroke:black; stroke-linecap:round; stroke-width:0.25;"/>
<line x1="249.500000" y1="94.000000" x2="257.500000" y2="94.000000"  style="stroke:black; stroke-linecap:round; stroke-width:0.25;"/>
<line x1="249.500000" y1="114.000000" x2="257.500000" y2="114.000000"  style="stroke:black; stroke-linecap:round; stroke-width:0.25;"/>
<line x1="249.500000" y1="136.000000" x2="249.500000" y2="114.000000"  style="stroke:black; stroke-linecap:round; stroke-width:0.25;"/>
<line x1="249.500000" y1="136.000000" x2="249.500000" y2="136.000000"  style="stroke:black; stroke-linecap:round; stroke-width:0.25;"/>
<line x1="257.500000" y1="94.000000" x2="257.500000" y2="106.000000"  style="stroke:black; stroke-linecap:round; stroke-width:0.25;"/>
<line x1="257.500000" y1="106.000000" x2="257.500000" y2="106.000000"  style="stroke:black; stroke-linecap:round; stroke-width:0.25;"/>
<line x1="257.500000" y1="106.000000" x2="261.500000" y2="106.000000"  style="stroke:black; stroke-linecap:round; stroke-width:0.25;"/>
<line x1="257.500000" y1="114.000000" x2="261.500000" y2="114.000000"  style="stroke:black; stroke-linecap:round; stroke-width:0.25;"/>
<line x1="285.500000" y1="110.000000" x2="289.500000" y2="110.000000"  style="stroke:black; stroke-linecap:round; stroke-width:0.25;"/>
<line x1="287.900000" y1="56.000000" x2="238.750000" y2="56.000000"  style="stroke:black; stroke-linecap:round; stroke-width:0.25;"/>
<line x1="289.500000" y1="110.000000" x2="297.500000" y2="110.000000"  style="stroke:black; stroke-linecap:round; stroke-width:0.25;"/>
<line x1="289.500000" y1="130.000000" x2="297.500000" y2="130.000000"  style="stroke:black; stroke-linecap:round; stroke-width:0.25;"/>
<line x1="289.500000" y1="168.000000" x2="289.500000" y2="130.000000"  style="stroke:black; stroke-linecap:round; stroke-width:0.25;"/>
<line x1="289.500000" y1="168.000000" x2="289.500000" y2="168.000000"  style="stroke:black; stroke-linecap:round; stroke-width:0.25;"/>
<line x1="297.500000" y1="110.000000" x2="297.500000" y2="122.000000"  style="stroke:black; stroke-linecap:round; stroke-width:0.25;"/>
<line x1="297.500000" y1="122.000000" x2="297.500000" y2="122.000000"  style="stroke:black; stroke-linecap:round; stroke-width:0.25;"/>
<line x1="297.500000" y1="122.000000" x2="301.500000" y2="122.000000"  style="stroke:black; stroke-linecap:round; stroke-width:0.25;"/>
<line x1="297.500000" y1="130.000000" x2="301.500000" y2="130.000000"  style="stroke:black; stroke-linecap:round; stroke-width:0.25;"/>
<line x1="325.500000" y1="126.000000" x2="329.500000" y2="126.000000"  style="stroke:black; stroke-linecap:round; stroke-width:0.25;"/>
<line x1="329.500000" y1="126.000000" x2="337.500000" y2="126.000000"  style="stroke:black; stroke-linecap:round; stroke-width:0.25;"/>
<line x1="329.500000" y1="146.000000" x2="337.500000" y2="146.000000"  style="stroke:black; stroke-linecap:round; stroke-width:0.25;"/>
<line x1="329.500000" y1="200.000000" x2="329.500000" y2="146.000000"  style="stroke:black; stroke-linecap:round; stroke-width:0.25;"/>
<line x1="329.500000" y1="200.000000" x2="329.500000" y2="200.000000"  style="stroke:black; stroke-linecap:round; stroke-width:0.25;"/>
<line x1="337.500000" y1="126.000000" x2="337.500000" y2="138.000000"  style="stroke:black; stroke-linecap:round; stroke-width:0.25;"/>
<line x1="337.500000" y1="138.000000" x2="337.500000" y2="138.000000"  style="stroke:black; stroke-linecap:round; stroke-width:0.25;"/>
<line x1="337.500000" y1="138.000000" x2="341.500000" y2="138.000000"  style="stroke:black; stroke-linecap:round; stroke-width:0.25;"/>
<line x1="337.500000" y1="146.000000" x2="341.500000" y2="146.000000"  style="stroke:black; stroke-linecap:round; stroke-width:0.25;"/>
<line x1="365.500000" y1="142.000000" x2="369.500000" y2="142.000000"  style="stroke:black; stroke-linecap:round; stroke-width:0.25;"/>
<line x1="369.500000" y1="64.000000" x2="377.500000" y2="64.000000"  style="stroke:black; stroke-linecap:round; stroke-width:0.25;"/>
<line x1="369.500000" y1="142.000000" x2="377.500000" y2="142.000000"  style="stroke:black; stroke-linecap:round; stroke-width:0.25;"/>
<line x1="377.500000" y1="64.000000" x2="377.500000" y2="134.000000"  style="stroke:black; stroke-linecap:round; stroke-width:0.25;"/>
<line x1="377.500000" y1="134.000000" x2="377.500000" y2="134.000000"  style="stroke:black; stroke-linecap:round; stroke-width:0.25;"/>
<line x1="377.500000" y1="134.000000" x2="381.500000" y2="134.000000"  style="stroke:black; stroke-linecap:round; stroke-width:0.25;"/>
<line x1="377.500000" y1="142.000000" x2="381.500000" y2="142.000000"  style="stroke:black; stroke-linecap:round; stroke-width:0.25;"/>
<line x1="405.500000" y1="138.000000" x2="409.500000" y2="138.000000"  style="stroke:black; stroke-linecap:round; stroke-width:0.25;"/>
<line x1="409.500000" y1="56.000000" x2="287.900000" y2="56.000000"  style="stroke:black; stroke-linecap:round; stroke-width:0.25;"/>
<line x1="409.500000" y1="56.000000" x2="409.500000" y2="56.000000"  style="stroke:black; stroke-linecap:round; stroke-width:0.25;"/>
<line x1="409.500000" y1="134.000000" x2="409.500000" y2="56.000000"  style="stroke:black; stroke-linecap:round; stroke-width:0.25;"/>
<line x1="409.500000" y1="138.000000" x2="411.500000" y2="138.000000"  style="stroke:black; stroke-linecap:round; stroke-width:0.25;"/>
<line x1="411.500000" y1="138.000000" x2="417.500000" y2="138.000000"  style="stroke:black; stroke-linecap:round; stroke-width:0.25;"/>
<line x1="417.500000" y1="118.000000" x2="425.500000" y2="118.000000"  style="stroke:black; stroke-linecap:round; stroke-width:0.25;"/>
<line x1="417.500000" y1="138.000000" x2="417.500000" y2="118.000000"  style="stroke:black; stroke-linecap:round; stroke-width:0.25;"/>
<line x1="417.500000" y1="138.000000" x2="417.500000" y2="138.000000"  style="stroke:black; stroke-linecap:round; stroke-width:0.25;"/>
<line x1="425.500000" y1="118.000000" x2="429.500000" y2="118.000000"  style="stroke:black; stroke-linecap:round; stroke-width:0.25;"/>
<line x1="429.500000" y1="118.000000" x2="433.500000" y2="118.000000"  style="stroke:black; stroke-linecap:round; stroke-width:0.25;"/>
<line x1="433.500000" y1="118.000000" x2="443.500000" y2="118.000000"  style="stroke:black; stroke-linecap:round; stroke-width:0.25;"/>
</svg>
