<?xml version="1.0"?>
<svg xmlns="http://www.w3.org/2000/svg" xmlns:xlink="http://www.w3.org/1999/xlink" viewBox="0 0 487.300000 272.000000" width="243.650000mm" height="136.000000mm" version="1.1">
<a xlink:href="a1d-0x7f9e39ca1190.svg">
<rect x="1.000000" y="1.000000" width="486.300000" height="271.000000" rx="0" ry="0" style="stroke:none;fill:#cccccc;"/>
<rect x="0.000000" y="0.000000" width="486.300000" height="271.000000" rx="0" ry="0" style="stroke:none;fill:#ffffff;"/>
</a>
<text x="10.000000" y="7.000000" font-family="Arial" font-size="7"></text>
<rect x="208.650000" y="25.000000" width="24.000000" height="24.000000" rx="0" ry="0" style="stroke:none;fill:#cccccc;"/>
<rect x="207.650000" y="24.000000" width="24.000000" height="24.000000" rx="0" ry="0" style="stroke:none;fill:#f44800;"/>
<text x="219.650000" y="38.000000" font-family="Arial" font-size="7" text-anchor="middle" fill="#FFFFFF">1</text>
<circle cx="209.650000" cy="26.000000" r="1"/>
<rect x="112.650000" y="57.000000" width="24.000000" height="24.000000" rx="0" ry="0" style="stroke:none;fill:#cccccc;"/>
<rect x="111.650000" y="56.000000" width="24.000000" height="24.000000" rx="0" ry="0" style="stroke:none;fill:#f44800;"/>
<text x="123.650000" y="70.000000" font-family="Arial" font-size="7" text-anchor="middle" fill="#FFFFFF">2</text>
<circle cx="113.650000" cy="58.000000" r="1"/>
<rect x="105.300000" y="99.000000" width="38.700000" height="24.000000" rx="0" ry="0" style="stroke:none;fill:#cccccc;"/>
<rect x="104.300000" y="98.000000" width="38.700000" height="24.000000" rx="0" ry="0" style="stroke:none;fill:#f44800;"/>
<text x="123.650000" y="112.000000" font-family="Arial" font-size="7" text-anchor="middle" fill="#FFFFFF">3.14159</text>
<circle cx="106.300000" cy="100.000000" r="1"/>
<line x1="95.300000" y1="89.000000" x2="95.300000" y2="131.000000"  style="stroke: black; stroke-linecap:round; stroke-width:0.25; stroke-dasharray:3,3;"/>
<line x1="95.300000" y1="131.000000" x2="152.000000" y2="131.000000"  style="stroke: black; stroke-linecap:round; stroke-width:0.25; stroke-dasharray:3,3;"/>
<line x1="152.000000" y1="131.000000" x2="152.000000" y2="89.000000"  style="stroke: black; stroke-linecap:round; stroke-width:0.25; stroke-dasharray:3,3;"/>
<line x1="95.300000" y1="89.000000" x2="100.300000" y2="89.000000"  style="stroke: black; stroke-linecap:round; stroke-width:0.25; stroke-dasharray:3,3;"/>
<line x1="113.200000" y1="89.000000" x2="152.000000" y2="89.000000"  style="stroke: black; stroke-linecap:round; stroke-width:0.25; stroke-dasharray:3,3;"/>
<text x="100.300000" y="91.000000" font-family="Arial" font-size="7">PI</text>
<rect x="170.000000" y="83.000000" width="24.000000" height="24.000000" rx="0" ry="0" style="stroke:none;fill:#cccccc;"/>
<rect x="169.000000" y="82.000000" width="24.000000" height="24.000000" rx="0" ry="0" style="stroke:none;fill:#4B71A1;"/>
<text x="181.000000" y="96.000000" font-family="Arial" font-size="7" text-anchor="middle" fill="#FFFFFF">*</text>
<circle cx="171.000000" cy="84.000000" r="1"/>
<line x1="166.000000" y1="89.000000" x2="169.000000" y2="90.000000"  transform="rotate(0.000000,169.000000,90.000000)" style="stroke: black; stroke-width:0.25;"/>
<line x1="166.000000" y1="91.000000" x2="169.000000" y2="90.000000"  transform="rotate(0.000000,169.000000,90.000000)" style="stroke: black; stroke-width:0.25;"/>
<line x1="166.000000" y1="97.000000" x2="169.000000" y2="98.000000"  transform="rotate(0.000000,169.000000,98.000000)" style="stroke: black; stroke-width:0.25;"/>
<line x1="166.000000" y1="99.000000" x2="169.000000" y2="98.000000"  transform="rotate(0.000000,169.000000,98.000000)" style="stroke: black; stroke-width:0.25;"/>
<rect x="35.000000" y="151.000000" width="219.300000" height="24.000000" rx="0" ry="0" style="stroke:none;fill:#cccccc;"/>
<rect x="34.000000" y="150.000000" width="219.300000" height="24.000000" rx="0" ry="0" style="stroke:none;fill:#477881;"/>
<text x="143.650000" y="164.000000" font-family="Arial" font-size="7" text-anchor="middle" fill="#FFFFFF">hslider(pilot_pllrate, 0.01f, 0.01f, 2.0f, 0.01f)</text>
<circle cx="36.000000" cy="152.000000" r="1"/>
<line x1="25.000000" y1="141.000000" x2="25.000000" y2="183.000000"  style="stroke: black; stroke-linecap:round; stroke-width:0.25; stroke-dasharray:3,3;"/>
<line x1="25.000000" y1="183.000000" x2="262.300000" y2="183.000000"  style="stroke: black; stroke-linecap:round; stroke-width:0.25; stroke-dasharray:3,3;"/>
<line x1="262.300000" y1="183.000000" x2="262.300000" y2="141.000000"  style="stroke: black; stroke-linecap:round; stroke-width:0.25; stroke-dasharray:3,3;"/>
<line x1="25.000000" y1="141.000000" x2="30.000000" y2="141.000000"  style="stroke: black; stroke-linecap:round; stroke-width:0.25; stroke-dasharray:3,3;"/>
<line x1="81.600000" y1="141.000000" x2="262.300000" y2="141.000000"  style="stroke: black; stroke-linecap:round; stroke-width:0.25; stroke-dasharray:3,3;"/>
<text x="30.000000" y="143.000000" font-family="Arial" font-size="7">pilot_PLL_rate</text>
<rect x="280.300000" y="109.000000" width="24.000000" height="24.000000" rx="0" ry="0" style="stroke:none;fill:#cccccc;"/>
<rect x="279.300000" y="108.000000" width="24.000000" height="24.000000" rx="0" ry="0" style="stroke:none;fill:#4B71A1;"/>
<text x="291.300000" y="122.000000" font-family="Arial" font-size="7" text-anchor="middle" fill="#FFFFFF">*</text>
<circle cx="281.300000" cy="110.000000" r="1"/>
<line x1="276.300000" y1="115.000000" x2="279.300000" y2="116.000000"  transform="rotate(0.000000,279.300000,116.000000)" style="stroke: black; stroke-width:0.25;"/>
<line x1="276.300000" y1="117.000000" x2="279.300000" y2="116.000000"  transform="rotate(0.000000,279.300000,116.000000)" style="stroke: black; stroke-width:0.25;"/>
<line x1="276.300000" y1="123.000000" x2="279.300000" y2="124.000000"  transform="rotate(0.000000,279.300000,124.000000)" style="stroke: black; stroke-width:0.25;"/>
<line x1="276.300000" y1="125.000000" x2="279.300000" y2="124.000000"  transform="rotate(0.000000,279.300000,124.000000)" style="stroke: black; stroke-width:0.25;"/>
<rect x="152.650000" y="193.000000" width="24.000000" height="24.000000" rx="0" ry="0" style="stroke:none;fill:#cccccc;"/>
<rect x="151.650000" y="192.000000" width="24.000000" height="24.000000" rx="0" ry="0" style="stroke:none;fill:#f44800;"/>
<text x="163.650000" y="206.000000" font-family="Arial" font-size="7" text-anchor="middle" fill="#FFFFFF">0.5</text>
<circle cx="153.650000" cy="194.000000" r="1"/>
<rect x="320.300000" y="125.000000" width="24.000000" height="24.000000" rx="0" ry="0" style="stroke:none;fill:#cccccc;"/>
<rect x="319.300000" y="124.000000" width="24.000000" height="24.000000" rx="0" ry="0" style="stroke:none;fill:#4B71A1;"/>
<text x="331.300000" y="138.000000" font-family="Arial" font-size="7" text-anchor="middle" fill="#FFFFFF">*</text>
<circle cx="321.300000" cy="126.000000" r="1"/>
<line x1="316.300000" y1="131.000000" x2="319.300000" y2="132.000000"  transform="rotate(0.000000,319.300000,132.000000)" style="stroke: black; stroke-width:0.25;"/>
<line x1="316.300000" y1="133.000000" x2="319.300000" y2="132.000000"  transform="rotate(0.000000,319.300000,132.000000)" style="stroke: black; stroke-width:0.25;"/>
<line x1="316.300000" y1="139.000000" x2="319.300000" y2="140.000000"  transform="rotate(0.000000,319.300000,140.000000)" style="stroke: black; stroke-width:0.25;"/>
<line x1="316.300000" y1="141.000000" x2="319.300000" y2="140.000000"  transform="rotate(0.000000,319.300000,140.000000)" style="stroke: black; stroke-width:0.25;"/>
<a xlink:href="SR-0x7f9e39c4c8f0.svg">
<rect x="172.650000" y="225.000000" width="24.000000" height="24.000000" rx="0" ry="0" style="stroke:none;fill:#cccccc;"/>
<rect x="171.650000" y="224.000000" width="24.000000" height="24.000000" rx="0" ry="0" style="stroke:none;fill:#003366;"/>
</a>
<a xlink:href="SR-0x7f9e39c4c8f0.svg">
<text x="183.650000" y="238.000000" font-family="Arial" font-size="7" text-anchor="middle" fill="#FFFFFF">SR</text>
</a>
<circle cx="173.650000" cy="226.000000" r="1"/>
<rect x="360.300000" y="141.000000" width="24.000000" height="24.000000" rx="0" ry="0" style="stroke:none;fill:#cccccc;"/>
<rect x="359.300000" y="140.000000" width="24.000000" height="24.000000" rx="0" ry="0" style="stroke:none;fill:#4B71A1;"/>
<text x="371.300000" y="154.000000" font-family="Arial" font-size="7" text-anchor="middle" fill="#FFFFFF">/</text>
<circle cx="361.300000" cy="142.000000" r="1"/>
<line x1="356.300000" y1="147.000000" x2="359.300000" y2="148.000000"  transform="rotate(0.000000,359.300000,148.000000)" style="stroke: black; stroke-width:0.25;"/>
<line x1="356.300000" y1="149.000000" x2="359.300000" y2="148.000000"  transform="rotate(0.000000,359.300000,148.000000)" style="stroke: black; stroke-width:0.25;"/>
<line x1="356.300000" y1="155.000000" x2="359.300000" y2="156.000000"  transform="rotate(0.000000,359.300000,156.000000)" style="stroke: black; stroke-width:0.25;"/>
<line x1="356.300000" y1="157.000000" x2="359.300000" y2="156.000000"  transform="rotate(0.000000,359.300000,156.000000)" style="stroke: black; stroke-width:0.25;"/>
<rect x="392.300000" y="141.000000" width="24.000000" height="24.000000" rx="0" ry="0" style="stroke:none;fill:#cccccc;"/>
<rect x="391.300000" y="140.000000" width="24.000000" height="24.000000" rx="0" ry="0" style="stroke:none;fill:#4B71A1;"/>
<text x="403.300000" y="154.000000" font-family="Arial" font-size="7" text-anchor="middle" fill="#FFFFFF">tan</text>
<circle cx="393.300000" cy="142.000000" r="1"/>
<line x1="388.300000" y1="151.000000" x2="391.300000" y2="152.000000"  transform="rotate(0.000000,391.300000,152.000000)" style="stroke: black; stroke-width:0.25;"/>
<line x1="388.300000" y1="153.000000" x2="391.300000" y2="152.000000"  transform="rotate(0.000000,391.300000,152.000000)" style="stroke: black; stroke-width:0.25;"/>
<rect x="432.300000" y="125.000000" width="24.000000" height="24.000000" rx="0" ry="0" style="stroke:none;fill:#cccccc;"/>
<rect x="431.300000" y="124.000000" width="24.000000" height="24.000000" rx="0" ry="0" style="stroke:none;fill:#4B71A1;"/>
<text x="443.300000" y="138.000000" font-family="Arial" font-size="7" text-anchor="middle" fill="#FFFFFF">/</text>
<circle cx="433.300000" cy="126.000000" r="1"/>
<line x1="428.300000" y1="131.000000" x2="431.300000" y2="132.000000"  transform="rotate(0.000000,431.300000,132.000000)" style="stroke: black; stroke-width:0.25;"/>
<line x1="428.300000" y1="133.000000" x2="431.300000" y2="132.000000"  transform="rotate(0.000000,431.300000,132.000000)" style="stroke: black; stroke-width:0.25;"/>
<line x1="428.300000" y1="139.000000" x2="431.300000" y2="140.000000"  transform="rotate(0.000000,431.300000,140.000000)" style="stroke: black; stroke-width:0.25;"/>
<line x1="428.300000" y1="141.000000" x2="431.300000" y2="140.000000"  transform="rotate(0.000000,431.300000,140.000000)" style="stroke: black; stroke-width:0.25;"/>
<line x1="15.000000" y1="15.000000" x2="15.000000" y2="257.000000"  style="stroke: black; stroke-linecap:round; stroke-width:0.25; stroke-dasharray:3,3;"/>
<line x1="15.000000" y1="257.000000" x2="472.300000" y2="257.000000"  style="stroke: black; stroke-linecap:round; stroke-width:0.25; stroke-dasharray:3,3;"/>
<line x1="472.300000" y1="257.000000" x2="472.300000" y2="15.000000"  style="stroke: black; stroke-linecap:round; stroke-width:0.25; stroke-dasharray:3,3;"/>
<line x1="15.000000" y1="15.000000" x2="20.000000" y2="15.000000"  style="stroke: black; stroke-linecap:round; stroke-width:0.25; stroke-dasharray:3,3;"/>
<line x1="29.675000" y1="15.000000" x2="472.300000" y2="15.000000"  style="stroke: black; stroke-linecap:round; stroke-width:0.25; stroke-dasharray:3,3;"/>
<text x="20.000000" y="17.000000" font-family="Arial" font-size="7">c</text>
<line x1="474.300000" y1="135.000000" x2="477.300000" y2="136.000000"  transform="rotate(0.000000,477.300000,136.000000)" style="stroke: black; stroke-width:0.25;"/>
<line x1="474.300000" y1="137.000000" x2="477.300000" y2="136.000000"  transform="rotate(0.000000,477.300000,136.000000)" style="stroke: black; stroke-width:0.25;"/>
<line x1="135.650000" y1="68.000000" x2="139.650000" y2="68.000000"  style="stroke:black; stroke-linecap:round; stroke-width:0.25;"/>
<line x1="139.650000" y1="68.000000" x2="157.000000" y2="68.000000"  style="stroke:black; stroke-linecap:round; stroke-width:0.25;"/>
<line x1="143.000000" y1="110.000000" x2="147.000000" y2="110.000000"  style="stroke:black; stroke-linecap:round; stroke-width:0.25;"/>
<line x1="147.000000" y1="110.000000" x2="157.000000" y2="110.000000"  style="stroke:black; stroke-linecap:round; stroke-width:0.25;"/>
<line x1="157.000000" y1="68.000000" x2="165.000000" y2="68.000000"  style="stroke:black; stroke-linecap:round; stroke-width:0.25;"/>
<line x1="157.000000" y1="98.000000" x2="165.000000" y2="98.000000"  style="stroke:black; stroke-linecap:round; stroke-width:0.25;"/>
<line x1="157.000000" y1="110.000000" x2="157.000000" y2="98.000000"  style="stroke:black; stroke-linecap:round; stroke-width:0.25;"/>
<line x1="157.000000" y1="110.000000" x2="157.000000" y2="110.000000"  style="stroke:black; stroke-linecap:round; stroke-width:0.25;"/>
<line x1="165.000000" y1="68.000000" x2="165.000000" y2="90.000000"  style="stroke:black; stroke-linecap:round; stroke-width:0.25;"/>
<line x1="165.000000" y1="90.000000" x2="165.000000" y2="90.000000"  style="stroke:black; stroke-linecap:round; stroke-width:0.25;"/>
<line x1="165.000000" y1="90.000000" x2="169.000000" y2="90.000000"  style="stroke:black; stroke-linecap:round; stroke-width:0.25;"/>
<line x1="165.000000" y1="98.000000" x2="169.000000" y2="98.000000"  style="stroke:black; stroke-linecap:round; stroke-width:0.25;"/>
<line x1="175.650000" y1="204.000000" x2="179.650000" y2="204.000000"  style="stroke:black; stroke-linecap:round; stroke-width:0.25;"/>
<line x1="179.650000" y1="204.000000" x2="307.300000" y2="204.000000"  style="stroke:black; stroke-linecap:round; stroke-width:0.25;"/>
<line x1="193.000000" y1="94.000000" x2="197.000000" y2="94.000000"  style="stroke:black; stroke-linecap:round; stroke-width:0.25;"/>
<line x1="195.650000" y1="236.000000" x2="199.650000" y2="236.000000"  style="stroke:black; stroke-linecap:round; stroke-width:0.25;"/>
<line x1="197.000000" y1="94.000000" x2="267.300000" y2="94.000000"  style="stroke:black; stroke-linecap:round; stroke-width:0.25;"/>
<line x1="199.650000" y1="236.000000" x2="347.300000" y2="236.000000"  style="stroke:black; stroke-linecap:round; stroke-width:0.25;"/>
<line x1="231.650000" y1="36.000000" x2="235.650000" y2="36.000000"  style="stroke:black; stroke-linecap:round; stroke-width:0.25;"/>
<line x1="235.650000" y1="36.000000" x2="419.300000" y2="36.000000"  style="stroke:black; stroke-linecap:round; stroke-width:0.25;"/>
<line x1="253.300000" y1="162.000000" x2="257.300000" y2="162.000000"  style="stroke:black; stroke-linecap:round; stroke-width:0.25;"/>
<line x1="257.300000" y1="162.000000" x2="267.300000" y2="162.000000"  style="stroke:black; stroke-linecap:round; stroke-width:0.25;"/>
<line x1="267.300000" y1="124.000000" x2="275.300000" y2="124.000000"  style="stroke:black; stroke-linecap:round; stroke-width:0.25;"/>
<line x1="267.300000" y1="162.000000" x2="267.300000" y2="124.000000"  style="stroke:black; stroke-linecap:round; stroke-width:0.25;"/>
<line x1="267.300000" y1="162.000000" x2="267.300000" y2="162.000000"  style="stroke:black; stroke-linecap:round; stroke-width:0.25;"/>
<line x1="267.300000" y1="94.000000" x2="275.300000" y2="94.000000"  style="stroke:black; stroke-linecap:round; stroke-width:0.25;"/>
<line x1="275.300000" y1="116.000000" x2="279.300000" y2="116.000000"  style="stroke:black; stroke-linecap:round; stroke-width:0.25;"/>
<line x1="275.300000" y1="124.000000" x2="279.300000" y2="124.000000"  style="stroke:black; stroke-linecap:round; stroke-width:0.25;"/>
<line x1="275.300000" y1="94.000000" x2="275.300000" y2="116.000000"  style="stroke:black; stroke-linecap:round; stroke-width:0.25;"/>
<line x1="275.300000" y1="116.000000" x2="275.300000" y2="116.000000"  style="stroke:black; stroke-linecap:round; stroke-width:0.25;"/>
<line x1="303.300000" y1="120.000000" x2="307.300000" y2="120.000000"  style="stroke:black; stroke-linecap:round; stroke-width:0.25;"/>
<line x1="307.300000" y1="120.000000" x2="315.300000" y2="120.000000"  style="stroke:black; stroke-linecap:round; stroke-width:0.25;"/>
<line x1="307.300000" y1="140.000000" x2="315.300000" y2="140.000000"  style="stroke:black; stroke-linecap:round; stroke-width:0.25;"/>
<line x1="307.300000" y1="204.000000" x2="307.300000" y2="140.000000"  style="stroke:black; stroke-linecap:round; stroke-width:0.25;"/>
<line x1="307.300000" y1="204.000000" x2="307.300000" y2="204.000000"  style="stroke:black; stroke-linecap:round; stroke-width:0.25;"/>
<line x1="315.300000" y1="120.000000" x2="315.300000" y2="132.000000"  style="stroke:black; stroke-linecap:round; stroke-width:0.25;"/>
<line x1="315.300000" y1="132.000000" x2="315.300000" y2="132.000000"  style="stroke:black; stroke-linecap:round; stroke-width:0.25;"/>
<line x1="315.300000" y1="132.000000" x2="319.300000" y2="132.000000"  style="stroke:black; stroke-linecap:round; stroke-width:0.25;"/>
<line x1="315.300000" y1="140.000000" x2="319.300000" y2="140.000000"  style="stroke:black; stroke-linecap:round; stroke-width:0.25;"/>
<line x1="343.300000" y1="136.000000" x2="347.300000" y2="136.000000"  style="stroke:black; stroke-linecap:round; stroke-width:0.25;"/>
<line x1="347.300000" y1="136.000000" x2="355.300000" y2="136.000000"  style="stroke:black; stroke-linecap:round; stroke-width:0.25;"/>
<line x1="347.300000" y1="156.000000" x2="355.300000" y2="156.000000"  style="stroke:black; stroke-linecap:round; stroke-width:0.25;"/>
<line x1="347.300000" y1="236.000000" x2="347.300000" y2="156.000000"  style="stroke:black; stroke-linecap:round; stroke-width:0.25;"/>
<line x1="347.300000" y1="236.000000" x2="347.300000" y2="236.000000"  style="stroke:black; stroke-linecap:round; stroke-width:0.25;"/>
<line x1="355.300000" y1="136.000000" x2="355.300000" y2="148.000000"  style="stroke:black; stroke-linecap:round; stroke-width:0.25;"/>
<line x1="355.300000" y1="148.000000" x2="355.300000" y2="148.000000"  style="stroke:black; stroke-linecap:round; stroke-width:0.25;"/>
<line x1="355.300000" y1="148.000000" x2="359.300000" y2="148.000000"  style="stroke:black; stroke-linecap:round; stroke-width:0.25;"/>
<line x1="355.300000" y1="156.000000" x2="359.300000" y2="156.000000"  style="stroke:black; stroke-linecap:round; stroke-width:0.25;"/>
<line x1="383.300000" y1="152.000000" x2="387.300000" y2="152.000000"  style="stroke:black; stroke-linecap:round; stroke-width:0.25;"/>
<line x1="387.300000" y1="152.000000" x2="387.300000" y2="152.000000"  style="stroke:black; stroke-linecap:round; stroke-width:0.25;"/>
<line x1="387.300000" y1="152.000000" x2="391.300000" y2="152.000000"  style="stroke:black; stroke-linecap:round; stroke-width:0.25;"/>
<line x1="415.300000" y1="152.000000" x2="419.300000" y2="152.000000"  style="stroke:black; stroke-linecap:round; stroke-width:0.25;"/>
<line x1="419.300000" y1="36.000000" x2="427.300000" y2="36.000000"  style="stroke:black; stroke-linecap:round; stroke-width:0.25;"/>
<line x1="419.300000" y1="140.000000" x2="427.300000" y2="140.000000"  style="stroke:black; stroke-linecap:round; stroke-width:0.25;"/>
<line x1="419.300000" y1="152.000000" x2="419.300000" y2="140.000000"  style="stroke:black; stroke-linecap:round; stroke-width:0.25;"/>
<line x1="419.300000" y1="152.000000" x2="419.300000" y2="152.000000"  style="stroke:black; stroke-linecap:round; stroke-width:0.25;"/>
<line x1="427.300000" y1="36.000000" x2="427.300000" y2="132.000000"  style="stroke:black; stroke-linecap:round; stroke-width:0.25;"/>
<line x1="427.300000" y1="132.000000" x2="427.300000" y2="132.000000"  style="stroke:black; stroke-linecap:round; stroke-width:0.25;"/>
<line x1="427.300000" y1="132.000000" x2="431.300000" y2="132.000000"  style="stroke:black; stroke-linecap:round; stroke-width:0.25;"/>
<line x1="427.300000" y1="140.000000" x2="431.300000" y2="140.000000"  style="stroke:black; stroke-linecap:round; stroke-width:0.25;"/>
<line x1="455.300000" y1="136.000000" x2="459.300000" y2="136.000000"  style="stroke:black; stroke-linecap:round; stroke-width:0.25;"/>
<line x1="459.300000" y1="136.000000" x2="459.300000" y2="136.000000"  style="stroke:black; stroke-linecap:round; stroke-width:0.25;"/>
<line x1="459.300000" y1="136.000000" x2="463.300000" y2="136.000000"  style="stroke:black; stroke-linecap:round; stroke-width:0.25;"/>
<line x1="463.300000" y1="136.000000" x2="467.300000" y2="136.000000"  style="stroke:black; stroke-linecap:round; stroke-width:0.25;"/>
<line x1="467.300000" y1="136.000000" x2="477.300000" y2="136.000000"  style="stroke:black; stroke-linecap:round; stroke-width:0.25;"/>
</svg>
