<?xml version="1.0"?>
<svg xmlns="http://www.w3.org/2000/svg" xmlns:xlink="http://www.w3.org/1999/xlink" viewBox="0 0 506.000000 252.000000" width="253.000000mm" height="126.000000mm" version="1.1">
<a xlink:href="a1d-0x7f9e3c0e7f30.svg">
<rect x="1.000000" y="1.000000" width="505.000000" height="251.000000" rx="0" ry="0" style="stroke:none;fill:#cccccc;"/>
<rect x="0.000000" y="0.000000" width="505.000000" height="251.000000" rx="0" ry="0" style="stroke:none;fill:#ffffff;"/>
</a>
<text x="10.000000" y="7.000000" font-family="Arial" font-size="7"></text>
<rect x="218.000000" y="25.000000" width="24.000000" height="24.000000" rx="0" ry="0" style="stroke:none;fill:#cccccc;"/>
<rect x="217.000000" y="24.000000" width="24.000000" height="24.000000" rx="0" ry="0" style="stroke:none;fill:#f44800;"/>
<text x="229.000000" y="38.000000" font-family="Arial" font-size="7" text-anchor="middle" fill="#FFFFFF">1</text>
<circle cx="219.000000" cy="26.000000" r="1"/>
<rect x="122.000000" y="57.000000" width="24.000000" height="24.000000" rx="0" ry="0" style="stroke:none;fill:#cccccc;"/>
<rect x="121.000000" y="56.000000" width="24.000000" height="24.000000" rx="0" ry="0" style="stroke:none;fill:#f44800;"/>
<text x="133.000000" y="70.000000" font-family="Arial" font-size="7" text-anchor="middle" fill="#FFFFFF">2</text>
<circle cx="123.000000" cy="58.000000" r="1"/>
<rect x="114.650000" y="99.000000" width="38.700000" height="24.000000" rx="0" ry="0" style="stroke:none;fill:#cccccc;"/>
<rect x="113.650000" y="98.000000" width="38.700000" height="24.000000" rx="0" ry="0" style="stroke:none;fill:#f44800;"/>
<text x="133.000000" y="112.000000" font-family="Arial" font-size="7" text-anchor="middle" fill="#FFFFFF">3.14159</text>
<circle cx="115.650000" cy="100.000000" r="1"/>
<line x1="104.650000" y1="89.000000" x2="104.650000" y2="131.000000"  style="stroke: black; stroke-linecap:round; stroke-width:0.25; stroke-dasharray:3,3;"/>
<line x1="104.650000" y1="131.000000" x2="161.350000" y2="131.000000"  style="stroke: black; stroke-linecap:round; stroke-width:0.25; stroke-dasharray:3,3;"/>
<line x1="161.350000" y1="131.000000" x2="161.350000" y2="89.000000"  style="stroke: black; stroke-linecap:round; stroke-width:0.25; stroke-dasharray:3,3;"/>
<line x1="104.650000" y1="89.000000" x2="109.650000" y2="89.000000"  style="stroke: black; stroke-linecap:round; stroke-width:0.25; stroke-dasharray:3,3;"/>
<line x1="122.550000" y1="89.000000" x2="161.350000" y2="89.000000"  style="stroke: black; stroke-linecap:round; stroke-width:0.25; stroke-dasharray:3,3;"/>
<text x="109.650000" y="91.000000" font-family="Arial" font-size="7">PI</text>
<rect x="179.350000" y="83.000000" width="24.000000" height="24.000000" rx="0" ry="0" style="stroke:none;fill:#cccccc;"/>
<rect x="178.350000" y="82.000000" width="24.000000" height="24.000000" rx="0" ry="0" style="stroke:none;fill:#4B71A1;"/>
<text x="190.350000" y="96.000000" font-family="Arial" font-size="7" text-anchor="middle" fill="#FFFFFF">*</text>
<circle cx="180.350000" cy="84.000000" r="1"/>
<line x1="175.350000" y1="89.000000" x2="178.350000" y2="90.000000"  transform="rotate(0.000000,178.350000,90.000000)" style="stroke: black; stroke-width:0.25;"/>
<line x1="175.350000" y1="91.000000" x2="178.350000" y2="90.000000"  transform="rotate(0.000000,178.350000,90.000000)" style="stroke: black; stroke-width:0.25;"/>
<line x1="175.350000" y1="97.000000" x2="178.350000" y2="98.000000"  transform="rotate(0.000000,178.350000,98.000000)" style="stroke: black; stroke-width:0.25;"/>
<line x1="175.350000" y1="99.000000" x2="178.350000" y2="98.000000"  transform="rotate(0.000000,178.350000,98.000000)" style="stroke: black; stroke-width:0.25;"/>
<rect x="25.000000" y="141.000000" width="258.000000" height="24.000000" rx="0" ry="0" style="stroke:none;fill:#cccccc;"/>
<rect x="24.000000" y="140.000000" width="258.000000" height="24.000000" rx="0" ry="0" style="stroke:none;fill:#477881;"/>
<text x="153.000000" y="154.000000" font-family="Arial" font-size="7" text-anchor="middle" fill="#FFFFFF">hslider(agc_rate, 5.0f, 0.10000000000000001f, 100.0f, 0.01f)</text>
<circle cx="26.000000" cy="142.000000" r="1"/>
<rect x="299.000000" y="99.000000" width="24.000000" height="24.000000" rx="0" ry="0" style="stroke:none;fill:#cccccc;"/>
<rect x="298.000000" y="98.000000" width="24.000000" height="24.000000" rx="0" ry="0" style="stroke:none;fill:#4B71A1;"/>
<text x="310.000000" y="112.000000" font-family="Arial" font-size="7" text-anchor="middle" fill="#FFFFFF">*</text>
<circle cx="300.000000" cy="100.000000" r="1"/>
<line x1="295.000000" y1="105.000000" x2="298.000000" y2="106.000000"  transform="rotate(0.000000,298.000000,106.000000)" style="stroke: black; stroke-width:0.25;"/>
<line x1="295.000000" y1="107.000000" x2="298.000000" y2="106.000000"  transform="rotate(0.000000,298.000000,106.000000)" style="stroke: black; stroke-width:0.25;"/>
<line x1="295.000000" y1="113.000000" x2="298.000000" y2="114.000000"  transform="rotate(0.000000,298.000000,114.000000)" style="stroke: black; stroke-width:0.25;"/>
<line x1="295.000000" y1="115.000000" x2="298.000000" y2="114.000000"  transform="rotate(0.000000,298.000000,114.000000)" style="stroke: black; stroke-width:0.25;"/>
<rect x="162.000000" y="173.000000" width="24.000000" height="24.000000" rx="0" ry="0" style="stroke:none;fill:#cccccc;"/>
<rect x="161.000000" y="172.000000" width="24.000000" height="24.000000" rx="0" ry="0" style="stroke:none;fill:#f44800;"/>
<text x="173.000000" y="186.000000" font-family="Arial" font-size="7" text-anchor="middle" fill="#FFFFFF">0.5</text>
<circle cx="163.000000" cy="174.000000" r="1"/>
<rect x="339.000000" y="115.000000" width="24.000000" height="24.000000" rx="0" ry="0" style="stroke:none;fill:#cccccc;"/>
<rect x="338.000000" y="114.000000" width="24.000000" height="24.000000" rx="0" ry="0" style="stroke:none;fill:#4B71A1;"/>
<text x="350.000000" y="128.000000" font-family="Arial" font-size="7" text-anchor="middle" fill="#FFFFFF">*</text>
<circle cx="340.000000" cy="116.000000" r="1"/>
<line x1="335.000000" y1="121.000000" x2="338.000000" y2="122.000000"  transform="rotate(0.000000,338.000000,122.000000)" style="stroke: black; stroke-width:0.25;"/>
<line x1="335.000000" y1="123.000000" x2="338.000000" y2="122.000000"  transform="rotate(0.000000,338.000000,122.000000)" style="stroke: black; stroke-width:0.25;"/>
<line x1="335.000000" y1="129.000000" x2="338.000000" y2="130.000000"  transform="rotate(0.000000,338.000000,130.000000)" style="stroke: black; stroke-width:0.25;"/>
<line x1="335.000000" y1="131.000000" x2="338.000000" y2="130.000000"  transform="rotate(0.000000,338.000000,130.000000)" style="stroke: black; stroke-width:0.25;"/>
<a xlink:href="SR-0x7f9e39c4c8f0.svg">
<rect x="182.000000" y="205.000000" width="24.000000" height="24.000000" rx="0" ry="0" style="stroke:none;fill:#cccccc;"/>
<rect x="181.000000" y="204.000000" width="24.000000" height="24.000000" rx="0" ry="0" style="stroke:none;fill:#003366;"/>
</a>
<a xlink:href="SR-0x7f9e39c4c8f0.svg">
<text x="193.000000" y="218.000000" font-family="Arial" font-size="7" text-anchor="middle" fill="#FFFFFF">SR</text>
</a>
<circle cx="183.000000" cy="206.000000" r="1"/>
<rect x="379.000000" y="131.000000" width="24.000000" height="24.000000" rx="0" ry="0" style="stroke:none;fill:#cccccc;"/>
<rect x="378.000000" y="130.000000" width="24.000000" height="24.000000" rx="0" ry="0" style="stroke:none;fill:#4B71A1;"/>
<text x="390.000000" y="144.000000" font-family="Arial" font-size="7" text-anchor="middle" fill="#FFFFFF">/</text>
<circle cx="380.000000" cy="132.000000" r="1"/>
<line x1="375.000000" y1="137.000000" x2="378.000000" y2="138.000000"  transform="rotate(0.000000,378.000000,138.000000)" style="stroke: black; stroke-width:0.25;"/>
<line x1="375.000000" y1="139.000000" x2="378.000000" y2="138.000000"  transform="rotate(0.000000,378.000000,138.000000)" style="stroke: black; stroke-width:0.25;"/>
<line x1="375.000000" y1="145.000000" x2="378.000000" y2="146.000000"  transform="rotate(0.000000,378.000000,146.000000)" style="stroke: black; stroke-width:0.25;"/>
<line x1="375.000000" y1="147.000000" x2="378.000000" y2="146.000000"  transform="rotate(0.000000,378.000000,146.000000)" style="stroke: black; stroke-width:0.25;"/>
<rect x="411.000000" y="131.000000" width="24.000000" height="24.000000" rx="0" ry="0" style="stroke:none;fill:#cccccc;"/>
<rect x="410.000000" y="130.000000" width="24.000000" height="24.000000" rx="0" ry="0" style="stroke:none;fill:#4B71A1;"/>
<text x="422.000000" y="144.000000" font-family="Arial" font-size="7" text-anchor="middle" fill="#FFFFFF">tan</text>
<circle cx="412.000000" cy="132.000000" r="1"/>
<line x1="407.000000" y1="141.000000" x2="410.000000" y2="142.000000"  transform="rotate(0.000000,410.000000,142.000000)" style="stroke: black; stroke-width:0.25;"/>
<line x1="407.000000" y1="143.000000" x2="410.000000" y2="142.000000"  transform="rotate(0.000000,410.000000,142.000000)" style="stroke: black; stroke-width:0.25;"/>
<rect x="451.000000" y="115.000000" width="24.000000" height="24.000000" rx="0" ry="0" style="stroke:none;fill:#cccccc;"/>
<rect x="450.000000" y="114.000000" width="24.000000" height="24.000000" rx="0" ry="0" style="stroke:none;fill:#4B71A1;"/>
<text x="462.000000" y="128.000000" font-family="Arial" font-size="7" text-anchor="middle" fill="#FFFFFF">/</text>
<circle cx="452.000000" cy="116.000000" r="1"/>
<line x1="447.000000" y1="121.000000" x2="450.000000" y2="122.000000"  transform="rotate(0.000000,450.000000,122.000000)" style="stroke: black; stroke-width:0.25;"/>
<line x1="447.000000" y1="123.000000" x2="450.000000" y2="122.000000"  transform="rotate(0.000000,450.000000,122.000000)" style="stroke: black; stroke-width:0.25;"/>
<line x1="447.000000" y1="129.000000" x2="450.000000" y2="130.000000"  transform="rotate(0.000000,450.000000,130.000000)" style="stroke: black; stroke-width:0.25;"/>
<line x1="447.000000" y1="131.000000" x2="450.000000" y2="130.000000"  transform="rotate(0.000000,450.000000,130.000000)" style="stroke: black; stroke-width:0.25;"/>
<line x1="15.000000" y1="15.000000" x2="15.000000" y2="237.000000"  style="stroke: black; stroke-linecap:round; stroke-width:0.25; stroke-dasharray:3,3;"/>
<line x1="15.000000" y1="237.000000" x2="491.000000" y2="237.000000"  style="stroke: black; stroke-linecap:round; stroke-width:0.25; stroke-dasharray:3,3;"/>
<line x1="491.000000" y1="237.000000" x2="491.000000" y2="15.000000"  style="stroke: black; stroke-linecap:round; stroke-width:0.25; stroke-dasharray:3,3;"/>
<line x1="15.000000" y1="15.000000" x2="20.000000" y2="15.000000"  style="stroke: black; stroke-linecap:round; stroke-width:0.25; stroke-dasharray:3,3;"/>
<line x1="29.675000" y1="15.000000" x2="491.000000" y2="15.000000"  style="stroke: black; stroke-linecap:round; stroke-width:0.25; stroke-dasharray:3,3;"/>
<text x="20.000000" y="17.000000" font-family="Arial" font-size="7">c</text>
<line x1="493.000000" y1="125.000000" x2="496.000000" y2="126.000000"  transform="rotate(0.000000,496.000000,126.000000)" style="stroke: black; stroke-width:0.25;"/>
<line x1="493.000000" y1="127.000000" x2="496.000000" y2="126.000000"  transform="rotate(0.000000,496.000000,126.000000)" style="stroke: black; stroke-width:0.25;"/>
<line x1="145.000000" y1="68.000000" x2="149.000000" y2="68.000000"  style="stroke:black; stroke-linecap:round; stroke-width:0.25;"/>
<line x1="149.000000" y1="68.000000" x2="166.350000" y2="68.000000"  style="stroke:black; stroke-linecap:round; stroke-width:0.25;"/>
<line x1="152.350000" y1="110.000000" x2="156.350000" y2="110.000000"  style="stroke:black; stroke-linecap:round; stroke-width:0.25;"/>
<line x1="156.350000" y1="110.000000" x2="166.350000" y2="110.000000"  style="stroke:black; stroke-linecap:round; stroke-width:0.25;"/>
<line x1="166.350000" y1="68.000000" x2="174.350000" y2="68.000000"  style="stroke:black; stroke-linecap:round; stroke-width:0.25;"/>
<line x1="166.350000" y1="98.000000" x2="174.350000" y2="98.000000"  style="stroke:black; stroke-linecap:round; stroke-width:0.25;"/>
<line x1="166.350000" y1="110.000000" x2="166.350000" y2="98.000000"  style="stroke:black; stroke-linecap:round; stroke-width:0.25;"/>
<line x1="166.350000" y1="110.000000" x2="166.350000" y2="110.000000"  style="stroke:black; stroke-linecap:round; stroke-width:0.25;"/>
<line x1="174.350000" y1="68.000000" x2="174.350000" y2="90.000000"  style="stroke:black; stroke-linecap:round; stroke-width:0.25;"/>
<line x1="174.350000" y1="90.000000" x2="174.350000" y2="90.000000"  style="stroke:black; stroke-linecap:round; stroke-width:0.25;"/>
<line x1="174.350000" y1="90.000000" x2="178.350000" y2="90.000000"  style="stroke:black; stroke-linecap:round; stroke-width:0.25;"/>
<line x1="174.350000" y1="98.000000" x2="178.350000" y2="98.000000"  style="stroke:black; stroke-linecap:round; stroke-width:0.25;"/>
<line x1="185.000000" y1="184.000000" x2="189.000000" y2="184.000000"  style="stroke:black; stroke-linecap:round; stroke-width:0.25;"/>
<line x1="189.000000" y1="184.000000" x2="326.000000" y2="184.000000"  style="stroke:black; stroke-linecap:round; stroke-width:0.25;"/>
<line x1="202.350000" y1="94.000000" x2="206.350000" y2="94.000000"  style="stroke:black; stroke-linecap:round; stroke-width:0.25;"/>
<line x1="205.000000" y1="216.000000" x2="209.000000" y2="216.000000"  style="stroke:black; stroke-linecap:round; stroke-width:0.25;"/>
<line x1="206.350000" y1="94.000000" x2="286.000000" y2="94.000000"  style="stroke:black; stroke-linecap:round; stroke-width:0.25;"/>
<line x1="209.000000" y1="216.000000" x2="366.000000" y2="216.000000"  style="stroke:black; stroke-linecap:round; stroke-width:0.25;"/>
<line x1="241.000000" y1="36.000000" x2="245.000000" y2="36.000000"  style="stroke:black; stroke-linecap:round; stroke-width:0.25;"/>
<line x1="245.000000" y1="36.000000" x2="438.000000" y2="36.000000"  style="stroke:black; stroke-linecap:round; stroke-width:0.25;"/>
<line x1="282.000000" y1="152.000000" x2="286.000000" y2="152.000000"  style="stroke:black; stroke-linecap:round; stroke-width:0.25;"/>
<line x1="286.000000" y1="94.000000" x2="294.000000" y2="94.000000"  style="stroke:black; stroke-linecap:round; stroke-width:0.25;"/>
<line x1="286.000000" y1="114.000000" x2="294.000000" y2="114.000000"  style="stroke:black; stroke-linecap:round; stroke-width:0.25;"/>
<line x1="286.000000" y1="152.000000" x2="286.000000" y2="114.000000"  style="stroke:black; stroke-linecap:round; stroke-width:0.25;"/>
<line x1="286.000000" y1="152.000000" x2="286.000000" y2="152.000000"  style="stroke:black; stroke-linecap:round; stroke-width:0.25;"/>
<line x1="294.000000" y1="94.000000" x2="294.000000" y2="106.000000"  style="stroke:black; stroke-linecap:round; stroke-width:0.25;"/>
<line x1="294.000000" y1="106.000000" x2="294.000000" y2="106.000000"  style="stroke:black; stroke-linecap:round; stroke-width:0.25;"/>
<line x1="294.000000" y1="106.000000" x2="298.000000" y2="106.000000"  style="stroke:black; stroke-linecap:round; stroke-width:0.25;"/>
<line x1="294.000000" y1="114.000000" x2="298.000000" y2="114.000000"  style="stroke:black; stroke-linecap:round; stroke-width:0.25;"/>
<line x1="322.000000" y1="110.000000" x2="326.000000" y2="110.000000"  style="stroke:black; stroke-linecap:round; stroke-width:0.25;"/>
<line x1="326.000000" y1="110.000000" x2="334.000000" y2="110.000000"  style="stroke:black; stroke-linecap:round; stroke-width:0.25;"/>
<line x1="326.000000" y1="130.000000" x2="334.000000" y2="130.000000"  style="stroke:black; stroke-linecap:round; stroke-width:0.25;"/>
<line x1="326.000000" y1="184.000000" x2="326.000000" y2="130.000000"  style="stroke:black; stroke-linecap:round; stroke-width:0.25;"/>
<line x1="326.000000" y1="184.000000" x2="326.000000" y2="184.000000"  style="stroke:black; stroke-linecap:round; stroke-width:0.25;"/>
<line x1="334.000000" y1="110.000000" x2="334.000000" y2="122.000000"  style="stroke:black; stroke-linecap:round; stroke-width:0.25;"/>
<line x1="334.000000" y1="122.000000" x2="334.000000" y2="122.000000"  style="stroke:black; stroke-linecap:round; stroke-width:0.25;"/>
<line x1="334.000000" y1="122.000000" x2="338.000000" y2="122.000000"  style="stroke:black; stroke-linecap:round; stroke-width:0.25;"/>
<line x1="334.000000" y1="130.000000" x2="338.000000" y2="130.000000"  style="stroke:black; stroke-linecap:round; stroke-width:0.25;"/>
<line x1="362.000000" y1="126.000000" x2="366.000000" y2="126.000000"  style="stroke:black; stroke-linecap:round; stroke-width:0.25;"/>
<line x1="366.000000" y1="126.000000" x2="374.000000" y2="126.000000"  style="stroke:black; stroke-linecap:round; stroke-width:0.25;"/>
<line x1="366.000000" y1="146.000000" x2="374.000000" y2="146.000000"  style="stroke:black; stroke-linecap:round; stroke-width:0.25;"/>
<line x1="366.000000" y1="216.000000" x2="366.000000" y2="146.000000"  style="stroke:black; stroke-linecap:round; stroke-width:0.25;"/>
<line x1="366.000000" y1="216.000000" x2="366.000000" y2="216.000000"  style="stroke:black; stroke-linecap:round; stroke-width:0.25;"/>
<line x1="374.000000" y1="126.000000" x2="374.000000" y2="138.000000"  style="stroke:black; stroke-linecap:round; stroke-width:0.25;"/>
<line x1="374.000000" y1="138.000000" x2="374.000000" y2="138.000000"  style="stroke:black; stroke-linecap:round; stroke-width:0.25;"/>
<line x1="374.000000" y1="138.000000" x2="378.000000" y2="138.000000"  style="stroke:black; stroke-linecap:round; stroke-width:0.25;"/>
<line x1="374.000000" y1="146.000000" x2="378.000000" y2="146.000000"  style="stroke:black; stroke-linecap:round; stroke-width:0.25;"/>
<line x1="402.000000" y1="142.000000" x2="406.000000" y2="142.000000"  style="stroke:black; stroke-linecap:round; stroke-width:0.25;"/>
<line x1="406.000000" y1="142.000000" x2="406.000000" y2="142.000000"  style="stroke:black; stroke-linecap:round; stroke-width:0.25;"/>
<line x1="406.000000" y1="142.000000" x2="410.000000" y2="142.000000"  style="stroke:black; stroke-linecap:round; stroke-width:0.25;"/>
<line x1="434.000000" y1="142.000000" x2="438.000000" y2="142.000000"  style="stroke:black; stroke-linecap:round; stroke-width:0.25;"/>
<line x1="438.000000" y1="36.000000" x2="446.000000" y2="36.000000"  style="stroke:black; stroke-linecap:round; stroke-width:0.25;"/>
<line x1="438.000000" y1="130.000000" x2="446.000000" y2="130.000000"  style="stroke:black; stroke-linecap:round; stroke-width:0.25;"/>
<line x1="438.000000" y1="142.000000" x2="438.000000" y2="130.000000"  style="stroke:black; stroke-linecap:round; stroke-width:0.25;"/>
<line x1="438.000000" y1="142.000000" x2="438.000000" y2="142.000000"  style="stroke:black; stroke-linecap:round; stroke-width:0.25;"/>
<line x1="446.000000" y1="36.000000" x2="446.000000" y2="122.000000"  style="stroke:black; stroke-linecap:round; stroke-width:0.25;"/>
<line x1="446.000000" y1="122.000000" x2="446.000000" y2="122.000000"  style="stroke:black; stroke-linecap:round; stroke-width:0.25;"/>
<line x1="446.000000" y1="122.000000" x2="450.000000" y2="122.000000"  style="stroke:black; stroke-linecap:round; stroke-width:0.25;"/>
<line x1="446.000000" y1="130.000000" x2="450.000000" y2="130.000000"  style="stroke:black; stroke-linecap:round; stroke-width:0.25;"/>
<line x1="474.000000" y1="126.000000" x2="478.000000" y2="126.000000"  style="stroke:black; stroke-linecap:round; stroke-width:0.25;"/>
<line x1="478.000000" y1="126.000000" x2="478.000000" y2="126.000000"  style="stroke:black; stroke-linecap:round; stroke-width:0.25;"/>
<line x1="478.000000" y1="126.000000" x2="482.000000" y2="126.000000"  style="stroke:black; stroke-linecap:round; stroke-width:0.25;"/>
<line x1="482.000000" y1="126.000000" x2="486.000000" y2="126.000000"  style="stroke:black; stroke-linecap:round; stroke-width:0.25;"/>
<line x1="486.000000" y1="126.000000" x2="496.000000" y2="126.000000"  style="stroke:black; stroke-linecap:round; stroke-width:0.25;"/>
</svg>
