<?xml version="1.0"?>
<svg xmlns="http://www.w3.org/2000/svg" xmlns:xlink="http://www.w3.org/1999/xlink" viewBox="0 0 386.640000 104.000000" width="193.320000mm" height="52.000000mm" version="1.1">
<a xlink:href="mobile-0x7f9e3c147b30.svg">
<rect x="1.000000" y="1.000000" width="385.640000" height="103.000000" rx="0" ry="0" style="stroke:none;fill:#cccccc;"/>
<rect x="0.000000" y="0.000000" width="385.640000" height="103.000000" rx="0" ry="0" style="stroke:none;fill:#ffffff;"/>
</a>
<text x="10.000000" y="7.000000" font-family="Arial" font-size="7"></text>
<rect x="41.000000" y="25.000000" width="24.000000" height="24.000000" rx="0" ry="0" style="stroke:none;fill:#cccccc;"/>
<rect x="40.000000" y="24.000000" width="24.000000" height="24.000000" rx="0" ry="0" style="stroke:none;fill:#47945E;"/>
<text x="52.000000" y="38.000000" font-family="Arial" font-size="7" text-anchor="middle" fill="#FFFFFF">y1</text>
<circle cx="42.000000" cy="26.000000" r="1"/>
<line x1="37.000000" y1="35.000000" x2="40.000000" y2="36.000000"  transform="rotate(0.000000,40.000000,36.000000)" style="stroke: black; stroke-width:0.25;"/>
<line x1="37.000000" y1="37.000000" x2="40.000000" y2="36.000000"  transform="rotate(0.000000,40.000000,36.000000)" style="stroke: black; stroke-width:0.25;"/>
<rect x="41.000000" y="57.000000" width="24.000000" height="24.000000" rx="0" ry="0" style="stroke:none;fill:#cccccc;"/>
<rect x="40.000000" y="56.000000" width="24.000000" height="24.000000" rx="0" ry="0" style="stroke:none;fill:#47945E;"/>
<text x="52.000000" y="70.000000" font-family="Arial" font-size="7" text-anchor="middle" fill="#FFFFFF">y2</text>
<circle cx="42.000000" cy="58.000000" r="1"/>
<line x1="37.000000" y1="67.000000" x2="40.000000" y2="68.000000"  transform="rotate(0.000000,40.000000,68.000000)" style="stroke: black; stroke-width:0.25;"/>
<line x1="37.000000" y1="69.000000" x2="40.000000" y2="68.000000"  transform="rotate(0.000000,40.000000,68.000000)" style="stroke: black; stroke-width:0.25;"/>
<rect x="73.000000" y="25.000000" width="24.000000" height="24.000000" rx="0" ry="0" style="stroke:none;fill:#cccccc;"/>
<rect x="72.000000" y="24.000000" width="24.000000" height="24.000000" rx="0" ry="0" style="stroke:none;fill:#47945E;"/>
<text x="84.000000" y="38.000000" font-family="Arial" font-size="7" text-anchor="middle" fill="#FFFFFF">y1</text>
<circle cx="74.000000" cy="26.000000" r="1"/>
<rect x="73.000000" y="57.000000" width="24.000000" height="24.000000" rx="0" ry="0" style="stroke:none;fill:#cccccc;"/>
<rect x="72.000000" y="56.000000" width="24.000000" height="24.000000" rx="0" ry="0" style="stroke:none;fill:#47945E;"/>
<text x="84.000000" y="70.000000" font-family="Arial" font-size="7" text-anchor="middle" fill="#FFFFFF">y2</text>
<circle cx="74.000000" cy="58.000000" r="1"/>
<a xlink:href="qpsk-0x7f9e3c1304d0.svg">
<rect x="113.000000" y="37.000000" width="51.600000" height="32.000000" rx="0" ry="0" style="stroke:none;fill:#cccccc;"/>
<rect x="112.000000" y="36.000000" width="51.600000" height="32.000000" rx="0" ry="0" style="stroke:none;fill:#003366;"/>
</a>
<a xlink:href="qpsk-0x7f9e3c1304d0.svg">
<text x="137.800000" y="54.000000" font-family="Arial" font-size="7" text-anchor="middle" fill="#FFFFFF">qpsk_decide</text>
</a>
<circle cx="114.000000" cy="38.000000" r="1"/>
<line x1="109.000000" y1="47.000000" x2="112.000000" y2="48.000000"  transform="rotate(0.000000,112.000000,48.000000)" style="stroke: black; stroke-width:0.25;"/>
<line x1="109.000000" y1="49.000000" x2="112.000000" y2="48.000000"  transform="rotate(0.000000,112.000000,48.000000)" style="stroke: black; stroke-width:0.25;"/>
<line x1="109.000000" y1="55.000000" x2="112.000000" y2="56.000000"  transform="rotate(0.000000,112.000000,56.000000)" style="stroke: black; stroke-width:0.25;"/>
<line x1="109.000000" y1="57.000000" x2="112.000000" y2="56.000000"  transform="rotate(0.000000,112.000000,56.000000)" style="stroke: black; stroke-width:0.25;"/>
<a xlink:href="remapper-0x7f9e3c1447b0.svg">
<rect x="202.640000" y="28.920000" width="38.700000" height="32.000000" rx="0" ry="0" style="stroke:none;fill:#cccccc;"/>
<rect x="201.640000" y="27.920000" width="38.700000" height="32.000000" rx="0" ry="0" style="stroke:none;fill:#003366;"/>
</a>
<a xlink:href="remapper-0x7f9e3c1447b0.svg">
<text x="220.990000" y="45.920000" font-family="Arial" font-size="7" text-anchor="middle" fill="#FFFFFF">remapper</text>
</a>
<circle cx="203.640000" cy="29.920000" r="1"/>
<line x1="198.640000" y1="30.920000" x2="201.640000" y2="31.920000"  transform="rotate(0.000000,201.640000,31.920000)" style="stroke: black; stroke-width:0.25;"/>
<line x1="198.640000" y1="32.920000" x2="201.640000" y2="31.920000"  transform="rotate(0.000000,201.640000,31.920000)" style="stroke: black; stroke-width:0.25;"/>
<line x1="198.640000" y1="38.920000" x2="201.640000" y2="39.920000"  transform="rotate(0.000000,201.640000,39.920000)" style="stroke: black; stroke-width:0.25;"/>
<line x1="198.640000" y1="40.920000" x2="201.640000" y2="39.920000"  transform="rotate(0.000000,201.640000,39.920000)" style="stroke: black; stroke-width:0.25;"/>
<line x1="198.640000" y1="46.920000" x2="201.640000" y2="47.920000"  transform="rotate(0.000000,201.640000,47.920000)" style="stroke: black; stroke-width:0.25;"/>
<line x1="198.640000" y1="48.920000" x2="201.640000" y2="47.920000"  transform="rotate(0.000000,201.640000,47.920000)" style="stroke: black; stroke-width:0.25;"/>
<line x1="198.640000" y1="54.920000" x2="201.640000" y2="55.920000"  transform="rotate(0.000000,201.640000,55.920000)" style="stroke: black; stroke-width:0.25;"/>
<line x1="198.640000" y1="56.920000" x2="201.640000" y2="55.920000"  transform="rotate(0.000000,201.640000,55.920000)" style="stroke: black; stroke-width:0.25;"/>
<a xlink:href="phasediff-0x7f9e3c1470a0.svg">
<rect x="249.340000" y="32.920000" width="90.300000" height="24.000000" rx="0" ry="0" style="stroke:none;fill:#cccccc;"/>
<rect x="248.340000" y="31.920000" width="90.300000" height="24.000000" rx="0" ry="0" style="stroke:none;fill:#003366;"/>
</a>
<a xlink:href="phasediff-0x7f9e3c1470a0.svg">
<text x="293.490000" y="45.920000" font-family="Arial" font-size="7" text-anchor="middle" fill="#FFFFFF">phasediff(x26)(x27)</text>
</a>
<circle cx="250.340000" cy="33.920000" r="1"/>
<line x1="245.340000" y1="38.920000" x2="248.340000" y2="39.920000"  transform="rotate(0.000000,248.340000,39.920000)" style="stroke: black; stroke-width:0.25;"/>
<line x1="245.340000" y1="40.920000" x2="248.340000" y2="39.920000"  transform="rotate(0.000000,248.340000,39.920000)" style="stroke: black; stroke-width:0.25;"/>
<line x1="245.340000" y1="46.920000" x2="248.340000" y2="47.920000"  transform="rotate(0.000000,248.340000,47.920000)" style="stroke: black; stroke-width:0.25;"/>
<line x1="245.340000" y1="48.920000" x2="248.340000" y2="47.920000"  transform="rotate(0.000000,248.340000,47.920000)" style="stroke: black; stroke-width:0.25;"/>
<line x1="15.000000" y1="15.000000" x2="15.000000" y2="89.000000"  style="stroke: black; stroke-linecap:round; stroke-width:0.25; stroke-dasharray:3,3;"/>
<line x1="15.000000" y1="89.000000" x2="371.640000" y2="89.000000"  style="stroke: black; stroke-linecap:round; stroke-width:0.25; stroke-dasharray:3,3;"/>
<line x1="371.640000" y1="89.000000" x2="371.640000" y2="15.000000"  style="stroke: black; stroke-linecap:round; stroke-width:0.25; stroke-dasharray:3,3;"/>
<line x1="15.000000" y1="15.000000" x2="20.000000" y2="15.000000"  style="stroke: black; stroke-linecap:round; stroke-width:0.25; stroke-dasharray:3,3;"/>
<line x1="65.150000" y1="15.000000" x2="371.640000" y2="15.000000"  style="stroke: black; stroke-linecap:round; stroke-width:0.25; stroke-dasharray:3,3;"/>
<text x="20.000000" y="17.000000" font-family="Arial" font-size="7">decide_remap</text>
<line x1="373.640000" y1="43.000000" x2="376.640000" y2="44.000000"  transform="rotate(0.000000,376.640000,44.000000)" style="stroke: black; stroke-width:0.25;"/>
<line x1="373.640000" y1="45.000000" x2="376.640000" y2="44.000000"  transform="rotate(0.000000,376.640000,44.000000)" style="stroke: black; stroke-width:0.25;"/>
<line x1="373.640000" y1="51.000000" x2="376.640000" y2="52.000000"  transform="rotate(0.000000,376.640000,52.000000)" style="stroke: black; stroke-width:0.25;"/>
<line x1="373.640000" y1="53.000000" x2="376.640000" y2="52.000000"  transform="rotate(0.000000,376.640000,52.000000)" style="stroke: black; stroke-width:0.25;"/>
<line x1="373.640000" y1="59.000000" x2="376.640000" y2="60.000000"  transform="rotate(0.000000,376.640000,60.000000)" style="stroke: black; stroke-width:0.25;"/>
<line x1="373.640000" y1="61.000000" x2="376.640000" y2="60.000000"  transform="rotate(0.000000,376.640000,60.000000)" style="stroke: black; stroke-width:0.25;"/>
<line x1="10.000000" y1="48.000000" x2="20.000000" y2="48.000000"  style="stroke:black; stroke-linecap:round; stroke-width:0.25;"/>
<line x1="10.000000" y1="56.000000" x2="20.000000" y2="56.000000"  style="stroke:black; stroke-linecap:round; stroke-width:0.25;"/>
<line x1="20.000000" y1="48.000000" x2="24.000000" y2="48.000000"  style="stroke:black; stroke-linecap:round; stroke-width:0.25;"/>
<line x1="20.000000" y1="56.000000" x2="24.000000" y2="56.000000"  style="stroke:black; stroke-linecap:round; stroke-width:0.25;"/>
<line x1="24.000000" y1="48.000000" x2="28.000000" y2="48.000000"  style="stroke:black; stroke-linecap:round; stroke-width:0.25;"/>
<line x1="24.000000" y1="56.000000" x2="28.000000" y2="56.000000"  style="stroke:black; stroke-linecap:round; stroke-width:0.25;"/>
<line x1="28.000000" y1="36.000000" x2="36.000000" y2="36.000000"  style="stroke:black; stroke-linecap:round; stroke-width:0.25;"/>
<line x1="28.000000" y1="48.000000" x2="28.000000" y2="36.000000"  style="stroke:black; stroke-linecap:round; stroke-width:0.25;"/>
<line x1="28.000000" y1="48.000000" x2="28.000000" y2="48.000000"  style="stroke:black; stroke-linecap:round; stroke-width:0.25;"/>
<line x1="28.000000" y1="56.000000" x2="36.000000" y2="56.000000"  style="stroke:black; stroke-linecap:round; stroke-width:0.25;"/>
<line x1="36.000000" y1="36.000000" x2="40.000000" y2="36.000000"  style="stroke:black; stroke-linecap:round; stroke-width:0.25;"/>
<line x1="36.000000" y1="56.000000" x2="36.000000" y2="68.000000"  style="stroke:black; stroke-linecap:round; stroke-width:0.25;"/>
<line x1="36.000000" y1="68.000000" x2="36.000000" y2="68.000000"  style="stroke:black; stroke-linecap:round; stroke-width:0.25;"/>
<line x1="36.000000" y1="68.000000" x2="40.000000" y2="68.000000"  style="stroke:black; stroke-linecap:round; stroke-width:0.25;"/>
<line x1="96.000000" y1="36.000000" x2="100.000000" y2="36.000000"  style="stroke:black; stroke-linecap:round; stroke-width:0.25;"/>
<line x1="96.000000" y1="68.000000" x2="100.000000" y2="68.000000"  style="stroke:black; stroke-linecap:round; stroke-width:0.25;"/>
<line x1="100.000000" y1="36.000000" x2="108.000000" y2="36.000000"  style="stroke:black; stroke-linecap:round; stroke-width:0.25;"/>
<line x1="100.000000" y1="56.000000" x2="108.000000" y2="56.000000"  style="stroke:black; stroke-linecap:round; stroke-width:0.25;"/>
<line x1="100.000000" y1="68.000000" x2="100.000000" y2="56.000000"  style="stroke:black; stroke-linecap:round; stroke-width:0.25;"/>
<line x1="100.000000" y1="68.000000" x2="100.000000" y2="68.000000"  style="stroke:black; stroke-linecap:round; stroke-width:0.25;"/>
<line x1="108.000000" y1="36.000000" x2="108.000000" y2="48.000000"  style="stroke:black; stroke-linecap:round; stroke-width:0.25;"/>
<line x1="108.000000" y1="48.000000" x2="108.000000" y2="48.000000"  style="stroke:black; stroke-linecap:round; stroke-width:0.25;"/>
<line x1="108.000000" y1="48.000000" x2="112.000000" y2="48.000000"  style="stroke:black; stroke-linecap:round; stroke-width:0.25;"/>
<line x1="108.000000" y1="56.000000" x2="112.000000" y2="56.000000"  style="stroke:black; stroke-linecap:round; stroke-width:0.25;"/>
<line x1="163.600000" y1="40.000000" x2="167.600000" y2="40.000000"  style="stroke:black; stroke-linecap:round; stroke-width:0.25;"/>
<line x1="163.600000" y1="48.000000" x2="167.600000" y2="48.000000"  style="stroke:black; stroke-linecap:round; stroke-width:0.25;"/>
<line x1="163.600000" y1="56.000000" x2="167.600000" y2="56.000000"  style="stroke:black; stroke-linecap:round; stroke-width:0.25;"/>
<line x1="163.600000" y1="64.000000" x2="167.600000" y2="64.000000"  style="stroke:black; stroke-linecap:round; stroke-width:0.25;"/>
<line x1="167.600000" y1="40.000000" x2="197.640000" y2="31.920000"  style="stroke:black; stroke-linecap:round; stroke-width:0.25;"/>
<line x1="167.600000" y1="48.000000" x2="197.640000" y2="39.920000"  style="stroke:black; stroke-linecap:round; stroke-width:0.25;"/>
<line x1="167.600000" y1="48.000000" x2="197.640000" y2="68.000000"  style="stroke:black; stroke-linecap:round; stroke-width:0.25;"/>
<line x1="167.600000" y1="56.000000" x2="197.640000" y2="47.920000"  style="stroke:black; stroke-linecap:round; stroke-width:0.25;"/>
<line x1="167.600000" y1="64.000000" x2="197.640000" y2="55.920000"  style="stroke:black; stroke-linecap:round; stroke-width:0.25;"/>
<line x1="167.600000" y1="64.000000" x2="197.640000" y2="76.080000"  style="stroke:black; stroke-linecap:round; stroke-width:0.25;"/>
<line x1="197.640000" y1="31.920000" x2="201.640000" y2="31.920000"  style="stroke:black; stroke-linecap:round; stroke-width:0.25;"/>
<line x1="197.640000" y1="39.920000" x2="201.640000" y2="39.920000"  style="stroke:black; stroke-linecap:round; stroke-width:0.25;"/>
<line x1="197.640000" y1="47.920000" x2="201.640000" y2="47.920000"  style="stroke:black; stroke-linecap:round; stroke-width:0.25;"/>
<line x1="197.640000" y1="55.920000" x2="201.640000" y2="55.920000"  style="stroke:black; stroke-linecap:round; stroke-width:0.25;"/>
<line x1="197.640000" y1="68.000000" x2="270.140000" y2="68.000000"  style="stroke:black; stroke-linecap:round; stroke-width:0.25;"/>
<line x1="197.640000" y1="76.080000" x2="270.140000" y2="76.080000"  style="stroke:black; stroke-linecap:round; stroke-width:0.25;"/>
<line x1="240.340000" y1="39.920000" x2="244.340000" y2="39.920000"  style="stroke:black; stroke-linecap:round; stroke-width:0.25;"/>
<line x1="240.340000" y1="47.920000" x2="244.340000" y2="47.920000"  style="stroke:black; stroke-linecap:round; stroke-width:0.25;"/>
<line x1="244.340000" y1="39.920000" x2="244.340000" y2="39.920000"  style="stroke:black; stroke-linecap:round; stroke-width:0.25;"/>
<line x1="244.340000" y1="39.920000" x2="248.340000" y2="39.920000"  style="stroke:black; stroke-linecap:round; stroke-width:0.25;"/>
<line x1="244.340000" y1="47.920000" x2="244.340000" y2="47.920000"  style="stroke:black; stroke-linecap:round; stroke-width:0.25;"/>
<line x1="244.340000" y1="47.920000" x2="248.340000" y2="47.920000"  style="stroke:black; stroke-linecap:round; stroke-width:0.25;"/>
<line x1="270.140000" y1="68.000000" x2="342.640000" y2="68.000000"  style="stroke:black; stroke-linecap:round; stroke-width:0.25;"/>
<line x1="270.140000" y1="76.080000" x2="342.640000" y2="76.080000"  style="stroke:black; stroke-linecap:round; stroke-width:0.25;"/>
<line x1="338.640000" y1="43.920000" x2="342.640000" y2="43.920000"  style="stroke:black; stroke-linecap:round; stroke-width:0.25;"/>
<line x1="342.640000" y1="43.920000" x2="358.640000" y2="43.920000"  style="stroke:black; stroke-linecap:round; stroke-width:0.25;"/>
<line x1="342.640000" y1="52.000000" x2="358.640000" y2="52.000000"  style="stroke:black; stroke-linecap:round; stroke-width:0.25;"/>
<line x1="342.640000" y1="68.000000" x2="342.640000" y2="52.000000"  style="stroke:black; stroke-linecap:round; stroke-width:0.25;"/>
<line x1="342.640000" y1="68.000000" x2="342.640000" y2="68.000000"  style="stroke:black; stroke-linecap:round; stroke-width:0.25;"/>
<line x1="342.640000" y1="76.080000" x2="350.640000" y2="76.080000"  style="stroke:black; stroke-linecap:round; stroke-width:0.25;"/>
<line x1="350.640000" y1="60.000000" x2="358.640000" y2="60.000000"  style="stroke:black; stroke-linecap:round; stroke-width:0.25;"/>
<line x1="350.640000" y1="76.080000" x2="350.640000" y2="60.000000"  style="stroke:black; stroke-linecap:round; stroke-width:0.25;"/>
<line x1="358.640000" y1="43.920000" x2="358.640000" y2="44.000000"  style="stroke:black; stroke-linecap:round; stroke-width:0.25;"/>
<line x1="358.640000" y1="44.000000" x2="358.640000" y2="44.000000"  style="stroke:black; stroke-linecap:round; stroke-width:0.25;"/>
<line x1="358.640000" y1="44.000000" x2="362.640000" y2="44.000000"  style="stroke:black; stroke-linecap:round; stroke-width:0.25;"/>
<line x1="358.640000" y1="52.000000" x2="362.640000" y2="52.000000"  style="stroke:black; stroke-linecap:round; stroke-width:0.25;"/>
<line x1="358.640000" y1="60.000000" x2="362.640000" y2="60.000000"  style="stroke:black; stroke-linecap:round; stroke-width:0.25;"/>
<line x1="362.640000" y1="44.000000" x2="366.640000" y2="44.000000"  style="stroke:black; stroke-linecap:round; stroke-width:0.25;"/>
<line x1="362.640000" y1="52.000000" x2="366.640000" y2="52.000000"  style="stroke:black; stroke-linecap:round; stroke-width:0.25;"/>
<line x1="362.640000" y1="60.000000" x2="366.640000" y2="60.000000"  style="stroke:black; stroke-linecap:round; stroke-width:0.25;"/>
<line x1="366.640000" y1="44.000000" x2="376.640000" y2="44.000000"  style="stroke:black; stroke-linecap:round; stroke-width:0.25;"/>
<line x1="366.640000" y1="52.000000" x2="376.640000" y2="52.000000"  style="stroke:black; stroke-linecap:round; stroke-width:0.25;"/>
<line x1="366.640000" y1="60.000000" x2="376.640000" y2="60.000000"  style="stroke:black; stroke-linecap:round; stroke-width:0.25;"/>
</svg>
