<?xml version="1.0"?>
<svg xmlns="http://www.w3.org/2000/svg" xmlns:xlink="http://www.w3.org/1999/xlink" viewBox="0 0 276.800000 72.000000" width="138.400000mm" height="36.000000mm" version="1.1">
<a xlink:href="gain-0x7f9e3c0f9ca0.svg">
<rect x="1.000000" y="1.000000" width="275.800000" height="71.000000" rx="0" ry="0" style="stroke:none;fill:#cccccc;"/>
<rect x="0.000000" y="0.000000" width="275.800000" height="71.000000" rx="0" ry="0" style="stroke:none;fill:#ffffff;"/>
</a>
<text x="10.000000" y="7.000000" font-family="Arial" font-size="7"></text>
<rect x="51.000000" y="25.000000" width="24.000000" height="24.000000" rx="0" ry="0" style="stroke:none;fill:#cccccc;"/>
<rect x="50.000000" y="24.000000" width="24.000000" height="24.000000" rx="0" ry="0" style="stroke:none;fill:#4B71A1;"/>
<text x="62.000000" y="38.000000" font-family="Arial" font-size="7" text-anchor="middle" fill="#FFFFFF">*</text>
<circle cx="52.000000" cy="26.000000" r="1"/>
<line x1="47.000000" y1="31.000000" x2="50.000000" y2="32.000000"  transform="rotate(0.000000,50.000000,32.000000)" style="stroke: black; stroke-width:0.25;"/>
<line x1="47.000000" y1="33.000000" x2="50.000000" y2="32.000000"  transform="rotate(0.000000,50.000000,32.000000)" style="stroke: black; stroke-width:0.25;"/>
<line x1="47.000000" y1="39.000000" x2="50.000000" y2="40.000000"  transform="rotate(0.000000,50.000000,40.000000)" style="stroke: black; stroke-width:0.25;"/>
<line x1="47.000000" y1="41.000000" x2="50.000000" y2="40.000000"  transform="rotate(0.000000,50.000000,40.000000)" style="stroke: black; stroke-width:0.25;"/>
<rect x="83.000000" y="25.000000" width="25.800000" height="24.000000" rx="0" ry="0" style="stroke:none;fill:#cccccc;"/>
<rect x="82.000000" y="24.000000" width="25.800000" height="24.000000" rx="0" ry="0" style="stroke:none;fill:#4B71A1;"/>
<text x="94.900000" y="38.000000" font-family="Arial" font-size="7" text-anchor="middle" fill="#FFFFFF">sqrt</text>
<circle cx="84.000000" cy="26.000000" r="1"/>
<line x1="79.000000" y1="35.000000" x2="82.000000" y2="36.000000"  transform="rotate(0.000000,82.000000,36.000000)" style="stroke: black; stroke-width:0.25;"/>
<line x1="79.000000" y1="37.000000" x2="82.000000" y2="36.000000"  transform="rotate(0.000000,82.000000,36.000000)" style="stroke: black; stroke-width:0.25;"/>
<a xlink:href="lowpass-0x7f9e3c0f81c0.svg">
<rect x="116.800000" y="25.000000" width="129.000000" height="24.000000" rx="0" ry="0" style="stroke:none;fill:#cccccc;"/>
<rect x="115.800000" y="24.000000" width="129.000000" height="24.000000" rx="0" ry="0" style="stroke:none;fill:#003366;"/>
</a>
<a xlink:href="lowpass-0x7f9e3c0f81c0.svg">
<text x="180.300000" y="38.000000" font-family="Arial" font-size="7" text-anchor="middle" fill="#FFFFFF">lowpass(1)(hs...0.0f, 0.01f))</text>
</a>
<circle cx="117.800000" cy="26.000000" r="1"/>
<line x1="112.800000" y1="35.000000" x2="115.800000" y2="36.000000"  transform="rotate(0.000000,115.800000,36.000000)" style="stroke: black; stroke-width:0.25;"/>
<line x1="112.800000" y1="37.000000" x2="115.800000" y2="36.000000"  transform="rotate(0.000000,115.800000,36.000000)" style="stroke: black; stroke-width:0.25;"/>
<line x1="15.000000" y1="15.000000" x2="15.000000" y2="57.000000"  style="stroke: black; stroke-linecap:round; stroke-width:0.25; stroke-dasharray:3,3;"/>
<line x1="15.000000" y1="57.000000" x2="261.800000" y2="57.000000"  style="stroke: black; stroke-linecap:round; stroke-width:0.25; stroke-dasharray:3,3;"/>
<line x1="261.800000" y1="57.000000" x2="261.800000" y2="15.000000"  style="stroke: black; stroke-linecap:round; stroke-width:0.25; stroke-dasharray:3,3;"/>
<line x1="15.000000" y1="15.000000" x2="20.000000" y2="15.000000"  style="stroke: black; stroke-linecap:round; stroke-width:0.25; stroke-dasharray:3,3;"/>
<line x1="68.375000" y1="15.000000" x2="261.800000" y2="15.000000"  style="stroke: black; stroke-linecap:round; stroke-width:0.25; stroke-dasharray:3,3;"/>
<text x="20.000000" y="17.000000" font-family="Arial" font-size="7">estimate_gain</text>
<line x1="263.800000" y1="35.000000" x2="266.800000" y2="36.000000"  transform="rotate(0.000000,266.800000,36.000000)" style="stroke: black; stroke-width:0.25;"/>
<line x1="263.800000" y1="37.000000" x2="266.800000" y2="36.000000"  transform="rotate(0.000000,266.800000,36.000000)" style="stroke: black; stroke-width:0.25;"/>
<line x1="10.000000" y1="36.000000" x2="20.000000" y2="36.000000"  style="stroke:black; stroke-linecap:round; stroke-width:0.25;"/>
<line x1="20.000000" y1="36.000000" x2="24.000000" y2="36.000000"  style="stroke:black; stroke-linecap:round; stroke-width:0.25;"/>
<line x1="24.000000" y1="36.000000" x2="28.000000" y2="36.000000"  style="stroke:black; stroke-linecap:round; stroke-width:0.25;"/>
<line x1="28.000000" y1="36.000000" x2="28.000000" y2="36.000000"  style="stroke:black; stroke-linecap:round; stroke-width:0.25;"/>
<line x1="28.000000" y1="36.000000" x2="32.000000" y2="36.000000"  style="stroke:black; stroke-linecap:round; stroke-width:0.25;"/>
<line x1="32.000000" y1="36.000000" x2="36.000000" y2="36.000000"  style="stroke:black; stroke-linecap:round; stroke-width:0.25;"/>
<line x1="36.000000" y1="36.000000" x2="46.000000" y2="32.000000"  style="stroke:black; stroke-linecap:round; stroke-width:0.25;"/>
<line x1="36.000000" y1="36.000000" x2="46.000000" y2="40.000000"  style="stroke:black; stroke-linecap:round; stroke-width:0.25;"/>
<line x1="46.000000" y1="32.000000" x2="50.000000" y2="32.000000"  style="stroke:black; stroke-linecap:round; stroke-width:0.25;"/>
<line x1="46.000000" y1="40.000000" x2="50.000000" y2="40.000000"  style="stroke:black; stroke-linecap:round; stroke-width:0.25;"/>
<line x1="74.000000" y1="36.000000" x2="78.000000" y2="36.000000"  style="stroke:black; stroke-linecap:round; stroke-width:0.25;"/>
<line x1="78.000000" y1="36.000000" x2="78.000000" y2="36.000000"  style="stroke:black; stroke-linecap:round; stroke-width:0.25;"/>
<line x1="78.000000" y1="36.000000" x2="82.000000" y2="36.000000"  style="stroke:black; stroke-linecap:round; stroke-width:0.25;"/>
<line x1="107.800000" y1="36.000000" x2="111.800000" y2="36.000000"  style="stroke:black; stroke-linecap:round; stroke-width:0.25;"/>
<line x1="111.800000" y1="36.000000" x2="111.800000" y2="36.000000"  style="stroke:black; stroke-linecap:round; stroke-width:0.25;"/>
<line x1="111.800000" y1="36.000000" x2="115.800000" y2="36.000000"  style="stroke:black; stroke-linecap:round; stroke-width:0.25;"/>
<line x1="244.800000" y1="36.000000" x2="248.800000" y2="36.000000"  style="stroke:black; stroke-linecap:round; stroke-width:0.25;"/>
<line x1="248.800000" y1="36.000000" x2="248.800000" y2="36.000000"  style="stroke:black; stroke-linecap:round; stroke-width:0.25;"/>
<line x1="248.800000" y1="36.000000" x2="252.800000" y2="36.000000"  style="stroke:black; stroke-linecap:round; stroke-width:0.25;"/>
<line x1="252.800000" y1="36.000000" x2="256.800000" y2="36.000000"  style="stroke:black; stroke-linecap:round; stroke-width:0.25;"/>
<line x1="256.800000" y1="36.000000" x2="266.800000" y2="36.000000"  style="stroke:black; stroke-linecap:round; stroke-width:0.25;"/>
</svg>
