<?xml version="1.0"?>
<svg xmlns="http://www.w3.org/2000/svg" xmlns:xlink="http://www.w3.org/1999/xlink" viewBox="0 0 388.200000 156.000000" width="194.100000mm" height="78.000000mm" version="1.1">
<a xlink:href="autogain-0x7f9e3c0fa890.svg">
<rect x="1.000000" y="1.000000" width="387.200000" height="155.000000" rx="0" ry="0" style="stroke:none;fill:#cccccc;"/>
<rect x="0.000000" y="0.000000" width="387.200000" height="155.000000" rx="0" ry="0" style="stroke:none;fill:#ffffff;"/>
</a>
<text x="10.000000" y="7.000000" font-family="Arial" font-size="7"></text>
<rect x="121.950000" y="25.000000" width="25.800000" height="24.000000" rx="0" ry="0" style="stroke:none;fill:#cccccc;"/>
<rect x="120.950000" y="24.000000" width="25.800000" height="24.000000" rx="0" ry="0" style="stroke:none;fill:#47945E;"/>
<text x="133.850000" y="38.000000" font-family="Arial" font-size="7" text-anchor="middle" fill="#FFFFFF">input</text>
<circle cx="122.950000" cy="26.000000" r="1"/>
<a xlink:href="estimate-0x7f9e3c0f8810.svg">
<rect x="155.750000" y="25.000000" width="64.500000" height="24.000000" rx="0" ry="0" style="stroke:none;fill:#cccccc;"/>
<rect x="154.750000" y="24.000000" width="64.500000" height="24.000000" rx="0" ry="0" style="stroke:none;fill:#003366;"/>
</a>
<a xlink:href="estimate-0x7f9e3c0f8810.svg">
<text x="187.000000" y="38.000000" font-family="Arial" font-size="7" text-anchor="middle" fill="#FFFFFF">estimate_gain</text>
</a>
<circle cx="156.750000" cy="26.000000" r="1"/>
<line x1="151.750000" y1="35.000000" x2="154.750000" y2="36.000000"  transform="rotate(0.000000,154.750000,36.000000)" style="stroke: black; stroke-width:0.25;"/>
<line x1="151.750000" y1="37.000000" x2="154.750000" y2="36.000000"  transform="rotate(0.000000,154.750000,36.000000)" style="stroke: black; stroke-width:0.25;"/>
<rect x="35.000000" y="67.000000" width="232.200000" height="24.000000" rx="0" ry="0" style="stroke:none;fill:#cccccc;"/>
<rect x="34.000000" y="66.000000" width="232.200000" height="24.000000" rx="0" ry="0" style="stroke:none;fill:#477881;"/>
<text x="150.100000" y="80.000000" font-family="Arial" font-size="7" text-anchor="middle" fill="#FFFFFF">hslider(gain, 0.70699999999999996f, 0.0f, 1.0f, 0.01f)</text>
<circle cx="36.000000" cy="68.000000" r="1"/>
<line x1="25.000000" y1="57.000000" x2="25.000000" y2="99.000000"  style="stroke: black; stroke-linecap:round; stroke-width:0.25; stroke-dasharray:3,3;"/>
<line x1="25.000000" y1="99.000000" x2="275.200000" y2="99.000000"  style="stroke: black; stroke-linecap:round; stroke-width:0.25; stroke-dasharray:3,3;"/>
<line x1="275.200000" y1="99.000000" x2="275.200000" y2="57.000000"  style="stroke: black; stroke-linecap:round; stroke-width:0.25; stroke-dasharray:3,3;"/>
<line x1="25.000000" y1="57.000000" x2="30.000000" y2="57.000000"  style="stroke: black; stroke-linecap:round; stroke-width:0.25; stroke-dasharray:3,3;"/>
<line x1="59.025000" y1="57.000000" x2="275.200000" y2="57.000000"  style="stroke: black; stroke-linecap:round; stroke-width:0.25; stroke-dasharray:3,3;"/>
<text x="30.000000" y="59.000000" font-family="Arial" font-size="7">correct</text>
<rect x="138.200000" y="109.000000" width="25.800000" height="24.000000" rx="0" ry="0" style="stroke:none;fill:#cccccc;"/>
<rect x="137.200000" y="108.000000" width="25.800000" height="24.000000" rx="0" ry="0" style="stroke:none;fill:#f44800;"/>
<text x="150.100000" y="122.000000" font-family="Arial" font-size="7" text-anchor="middle" fill="#FFFFFF">1e-05</text>
<circle cx="139.200000" cy="110.000000" r="1"/>
<rect x="293.200000" y="83.000000" width="24.000000" height="24.000000" rx="0" ry="0" style="stroke:none;fill:#cccccc;"/>
<rect x="292.200000" y="82.000000" width="24.000000" height="24.000000" rx="0" ry="0" style="stroke:none;fill:#4B71A1;"/>
<text x="304.200000" y="96.000000" font-family="Arial" font-size="7" text-anchor="middle" fill="#FFFFFF">+</text>
<circle cx="294.200000" cy="84.000000" r="1"/>
<line x1="289.200000" y1="89.000000" x2="292.200000" y2="90.000000"  transform="rotate(0.000000,292.200000,90.000000)" style="stroke: black; stroke-width:0.25;"/>
<line x1="289.200000" y1="91.000000" x2="292.200000" y2="90.000000"  transform="rotate(0.000000,292.200000,90.000000)" style="stroke: black; stroke-width:0.25;"/>
<line x1="289.200000" y1="97.000000" x2="292.200000" y2="98.000000"  transform="rotate(0.000000,292.200000,98.000000)" style="stroke: black; stroke-width:0.25;"/>
<line x1="289.200000" y1="99.000000" x2="292.200000" y2="98.000000"  transform="rotate(0.000000,292.200000,98.000000)" style="stroke: black; stroke-width:0.25;"/>
<rect x="333.200000" y="67.000000" width="24.000000" height="24.000000" rx="0" ry="0" style="stroke:none;fill:#cccccc;"/>
<rect x="332.200000" y="66.000000" width="24.000000" height="24.000000" rx="0" ry="0" style="stroke:none;fill:#4B71A1;"/>
<text x="344.200000" y="80.000000" font-family="Arial" font-size="7" text-anchor="middle" fill="#FFFFFF">/</text>
<circle cx="334.200000" cy="68.000000" r="1"/>
<line x1="329.200000" y1="73.000000" x2="332.200000" y2="74.000000"  transform="rotate(0.000000,332.200000,74.000000)" style="stroke: black; stroke-width:0.25;"/>
<line x1="329.200000" y1="75.000000" x2="332.200000" y2="74.000000"  transform="rotate(0.000000,332.200000,74.000000)" style="stroke: black; stroke-width:0.25;"/>
<line x1="329.200000" y1="81.000000" x2="332.200000" y2="82.000000"  transform="rotate(0.000000,332.200000,82.000000)" style="stroke: black; stroke-width:0.25;"/>
<line x1="329.200000" y1="83.000000" x2="332.200000" y2="82.000000"  transform="rotate(0.000000,332.200000,82.000000)" style="stroke: black; stroke-width:0.25;"/>
<line x1="15.000000" y1="15.000000" x2="15.000000" y2="141.000000"  style="stroke: black; stroke-linecap:round; stroke-width:0.25; stroke-dasharray:3,3;"/>
<line x1="15.000000" y1="141.000000" x2="373.200000" y2="141.000000"  style="stroke: black; stroke-linecap:round; stroke-width:0.25; stroke-dasharray:3,3;"/>
<line x1="373.200000" y1="141.000000" x2="373.200000" y2="15.000000"  style="stroke: black; stroke-linecap:round; stroke-width:0.25; stroke-dasharray:3,3;"/>
<line x1="15.000000" y1="15.000000" x2="20.000000" y2="15.000000"  style="stroke: black; stroke-linecap:round; stroke-width:0.25; stroke-dasharray:3,3;"/>
<line x1="58.700000" y1="15.000000" x2="373.200000" y2="15.000000"  style="stroke: black; stroke-linecap:round; stroke-width:0.25; stroke-dasharray:3,3;"/>
<text x="20.000000" y="17.000000" font-family="Arial" font-size="7">gain_ratio</text>
<line x1="375.200000" y1="77.000000" x2="378.200000" y2="78.000000"  transform="rotate(0.000000,378.200000,78.000000)" style="stroke: black; stroke-width:0.25;"/>
<line x1="375.200000" y1="79.000000" x2="378.200000" y2="78.000000"  transform="rotate(0.000000,378.200000,78.000000)" style="stroke: black; stroke-width:0.25;"/>
<line x1="146.750000" y1="36.000000" x2="150.750000" y2="36.000000"  style="stroke:black; stroke-linecap:round; stroke-width:0.25;"/>
<line x1="150.750000" y1="36.000000" x2="150.750000" y2="36.000000"  style="stroke:black; stroke-linecap:round; stroke-width:0.25;"/>
<line x1="150.750000" y1="36.000000" x2="154.750000" y2="36.000000"  style="stroke:black; stroke-linecap:round; stroke-width:0.25;"/>
<line x1="163.000000" y1="120.000000" x2="167.000000" y2="120.000000"  style="stroke:black; stroke-linecap:round; stroke-width:0.25;"/>
<line x1="167.000000" y1="120.000000" x2="280.200000" y2="120.000000"  style="stroke:black; stroke-linecap:round; stroke-width:0.25;"/>
<line x1="219.250000" y1="36.000000" x2="223.250000" y2="36.000000"  style="stroke:black; stroke-linecap:round; stroke-width:0.25;"/>
<line x1="223.250000" y1="36.000000" x2="320.200000" y2="36.000000"  style="stroke:black; stroke-linecap:round; stroke-width:0.25;"/>
<line x1="266.200000" y1="78.000000" x2="270.200000" y2="78.000000"  style="stroke:black; stroke-linecap:round; stroke-width:0.25;"/>
<line x1="270.200000" y1="78.000000" x2="280.200000" y2="78.000000"  style="stroke:black; stroke-linecap:round; stroke-width:0.25;"/>
<line x1="280.200000" y1="78.000000" x2="288.200000" y2="78.000000"  style="stroke:black; stroke-linecap:round; stroke-width:0.25;"/>
<line x1="280.200000" y1="98.000000" x2="288.200000" y2="98.000000"  style="stroke:black; stroke-linecap:round; stroke-width:0.25;"/>
<line x1="280.200000" y1="120.000000" x2="280.200000" y2="98.000000"  style="stroke:black; stroke-linecap:round; stroke-width:0.25;"/>
<line x1="280.200000" y1="120.000000" x2="280.200000" y2="120.000000"  style="stroke:black; stroke-linecap:round; stroke-width:0.25;"/>
<line x1="288.200000" y1="78.000000" x2="288.200000" y2="90.000000"  style="stroke:black; stroke-linecap:round; stroke-width:0.25;"/>
<line x1="288.200000" y1="90.000000" x2="288.200000" y2="90.000000"  style="stroke:black; stroke-linecap:round; stroke-width:0.25;"/>
<line x1="288.200000" y1="90.000000" x2="292.200000" y2="90.000000"  style="stroke:black; stroke-linecap:round; stroke-width:0.25;"/>
<line x1="288.200000" y1="98.000000" x2="292.200000" y2="98.000000"  style="stroke:black; stroke-linecap:round; stroke-width:0.25;"/>
<line x1="316.200000" y1="94.000000" x2="320.200000" y2="94.000000"  style="stroke:black; stroke-linecap:round; stroke-width:0.25;"/>
<line x1="320.200000" y1="36.000000" x2="328.200000" y2="36.000000"  style="stroke:black; stroke-linecap:round; stroke-width:0.25;"/>
<line x1="320.200000" y1="82.000000" x2="328.200000" y2="82.000000"  style="stroke:black; stroke-linecap:round; stroke-width:0.25;"/>
<line x1="320.200000" y1="94.000000" x2="320.200000" y2="82.000000"  style="stroke:black; stroke-linecap:round; stroke-width:0.25;"/>
<line x1="320.200000" y1="94.000000" x2="320.200000" y2="94.000000"  style="stroke:black; stroke-linecap:round; stroke-width:0.25;"/>
<line x1="328.200000" y1="36.000000" x2="328.200000" y2="74.000000"  style="stroke:black; stroke-linecap:round; stroke-width:0.25;"/>
<line x1="328.200000" y1="74.000000" x2="328.200000" y2="74.000000"  style="stroke:black; stroke-linecap:round; stroke-width:0.25;"/>
<line x1="328.200000" y1="74.000000" x2="332.200000" y2="74.000000"  style="stroke:black; stroke-linecap:round; stroke-width:0.25;"/>
<line x1="328.200000" y1="82.000000" x2="332.200000" y2="82.000000"  style="stroke:black; stroke-linecap:round; stroke-width:0.25;"/>
<line x1="356.200000" y1="78.000000" x2="360.200000" y2="78.000000"  style="stroke:black; stroke-linecap:round; stroke-width:0.25;"/>
<line x1="360.200000" y1="78.000000" x2="360.200000" y2="78.000000"  style="stroke:black; stroke-linecap:round; stroke-width:0.25;"/>
<line x1="360.200000" y1="78.000000" x2="364.200000" y2="78.000000"  style="stroke:black; stroke-linecap:round; stroke-width:0.25;"/>
<line x1="364.200000" y1="78.000000" x2="368.200000" y2="78.000000"  style="stroke:black; stroke-linecap:round; stroke-width:0.25;"/>
<line x1="368.200000" y1="78.000000" x2="378.200000" y2="78.000000"  style="stroke:black; stroke-linecap:round; stroke-width:0.25;"/>
</svg>
