<?xml version="1.0"?>
<svg xmlns="http://www.w3.org/2000/svg" xmlns:xlink="http://www.w3.org/1999/xlink" viewBox="0 0 452.300000 136.000000" width="226.150000mm" height="68.000000mm" version="1.1">
<a xlink:href="process.svg">
<rect x="1.000000" y="1.000000" width="451.300000" height="135.000000" rx="0" ry="0" style="stroke:none;fill:#cccccc;"/>
<rect x="0.000000" y="0.000000" width="451.300000" height="135.000000" rx="0" ry="0" style="stroke:none;fill:#ffffff;"/>
</a>
<text x="10.000000" y="7.000000" font-family="Arial" font-size="7"></text>
<rect x="41.000000" y="25.000000" width="51.600000" height="24.000000" rx="0" ry="0" style="stroke:none;fill:#cccccc;"/>
<rect x="40.000000" y="24.000000" width="51.600000" height="24.000000" rx="0" ry="0" style="stroke:none;fill:#47945E;"/>
<text x="65.800000" y="38.000000" font-family="Arial" font-size="7" text-anchor="middle" fill="#FFFFFF">phase_error</text>
<circle cx="42.000000" cy="26.000000" r="1"/>
<line x1="37.000000" y1="35.000000" x2="40.000000" y2="36.000000"  transform="rotate(0.000000,40.000000,36.000000)" style="stroke: black; stroke-width:0.25;"/>
<line x1="37.000000" y1="37.000000" x2="40.000000" y2="36.000000"  transform="rotate(0.000000,40.000000,36.000000)" style="stroke: black; stroke-width:0.25;"/>
<rect x="53.900000" y="57.000000" width="25.800000" height="24.000000" rx="0" ry="0" style="stroke:none;fill:#cccccc;"/>
<rect x="52.900000" y="56.000000" width="25.800000" height="24.000000" rx="0" ry="0" style="stroke:none;fill:#47945E;"/>
<text x="65.800000" y="70.000000" font-family="Arial" font-size="7" text-anchor="middle" fill="#FFFFFF">clock</text>
<circle cx="54.900000" cy="58.000000" r="1"/>
<line x1="49.900000" y1="67.000000" x2="52.900000" y2="68.000000"  transform="rotate(0.000000,52.900000,68.000000)" style="stroke: black; stroke-width:0.25;"/>
<line x1="49.900000" y1="69.000000" x2="52.900000" y2="68.000000"  transform="rotate(0.000000,52.900000,68.000000)" style="stroke: black; stroke-width:0.25;"/>
<rect x="53.900000" y="89.000000" width="25.800000" height="24.000000" rx="0" ry="0" style="stroke:none;fill:#cccccc;"/>
<rect x="52.900000" y="88.000000" width="25.800000" height="24.000000" rx="0" ry="0" style="stroke:none;fill:#47945E;"/>
<text x="65.800000" y="102.000000" font-family="Arial" font-size="7" text-anchor="middle" fill="#FFFFFF">input</text>
<circle cx="54.900000" cy="90.000000" r="1"/>
<line x1="49.900000" y1="99.000000" x2="52.900000" y2="100.000000"  transform="rotate(0.000000,52.900000,100.000000)" style="stroke: black; stroke-width:0.25;"/>
<line x1="49.900000" y1="101.000000" x2="52.900000" y2="100.000000"  transform="rotate(0.000000,52.900000,100.000000)" style="stroke: black; stroke-width:0.25;"/>
<rect x="100.600000" y="25.000000" width="51.600000" height="24.000000" rx="0" ry="0" style="stroke:none;fill:#cccccc;"/>
<rect x="99.600000" y="24.000000" width="51.600000" height="24.000000" rx="0" ry="0" style="stroke:none;fill:#47945E;"/>
<text x="125.400000" y="38.000000" font-family="Arial" font-size="7" text-anchor="middle" fill="#FFFFFF">phase_error</text>
<circle cx="101.600000" cy="26.000000" r="1"/>
<a xlink:href="demphasor-0x7f9e3c2400a0.svg">
<rect x="160.200000" y="25.000000" width="129.000000" height="24.000000" rx="0" ry="0" style="stroke:none;fill:#cccccc;"/>
<rect x="159.200000" y="24.000000" width="129.000000" height="24.000000" rx="0" ry="0" style="stroke:none;fill:#003366;"/>
</a>
<a xlink:href="demphasor-0x7f9e3c2400a0.svg">
<text x="223.700000" y="38.000000" font-family="Arial" font-size="7" text-anchor="middle" fill="#FFFFFF">demphasor(hsl...0.0f, 0.01f))</text>
</a>
<circle cx="161.200000" cy="26.000000" r="1"/>
<line x1="156.200000" y1="35.000000" x2="159.200000" y2="36.000000"  transform="rotate(0.000000,159.200000,36.000000)" style="stroke: black; stroke-width:0.25;"/>
<line x1="156.200000" y1="37.000000" x2="159.200000" y2="36.000000"  transform="rotate(0.000000,159.200000,36.000000)" style="stroke: black; stroke-width:0.25;"/>
<rect x="182.000000" y="57.000000" width="25.800000" height="24.000000" rx="0" ry="0" style="stroke:none;fill:#cccccc;"/>
<rect x="181.000000" y="56.000000" width="25.800000" height="24.000000" rx="0" ry="0" style="stroke:none;fill:#47945E;"/>
<text x="193.900000" y="70.000000" font-family="Arial" font-size="7" text-anchor="middle" fill="#FFFFFF">input</text>
<circle cx="183.000000" cy="58.000000" r="1"/>
<rect x="182.000000" y="89.000000" width="25.800000" height="24.000000" rx="0" ry="0" style="stroke:none;fill:#cccccc;"/>
<rect x="181.000000" y="88.000000" width="25.800000" height="24.000000" rx="0" ry="0" style="stroke:none;fill:#47945E;"/>
<text x="193.900000" y="102.000000" font-family="Arial" font-size="7" text-anchor="middle" fill="#FFFFFF">clock</text>
<circle cx="183.000000" cy="90.000000" r="1"/>
<a xlink:href="mobile-0x7f9e3c147b30.svg">
<rect x="305.200000" y="49.000000" width="116.100000" height="40.000000" rx="0" ry="0" style="stroke:none;fill:#cccccc;"/>
<rect x="304.200000" y="48.000000" width="116.100000" height="40.000000" rx="0" ry="0" style="stroke:none;fill:#003366;"/>
</a>
<a xlink:href="mobile-0x7f9e3c147b30.svg">
<text x="362.250000" y="70.000000" font-family="Arial" font-size="7" text-anchor="middle" fill="#FFFFFF">mobile_decoder_single_debug</text>
</a>
<circle cx="306.200000" cy="50.000000" r="1"/>
<line x1="301.200000" y1="59.000000" x2="304.200000" y2="60.000000"  transform="rotate(0.000000,304.200000,60.000000)" style="stroke: black; stroke-width:0.25;"/>
<line x1="301.200000" y1="61.000000" x2="304.200000" y2="60.000000"  transform="rotate(0.000000,304.200000,60.000000)" style="stroke: black; stroke-width:0.25;"/>
<line x1="301.200000" y1="67.000000" x2="304.200000" y2="68.000000"  transform="rotate(0.000000,304.200000,68.000000)" style="stroke: black; stroke-width:0.25;"/>
<line x1="301.200000" y1="69.000000" x2="304.200000" y2="68.000000"  transform="rotate(0.000000,304.200000,68.000000)" style="stroke: black; stroke-width:0.25;"/>
<line x1="301.200000" y1="75.000000" x2="304.200000" y2="76.000000"  transform="rotate(0.000000,304.200000,76.000000)" style="stroke: black; stroke-width:0.25;"/>
<line x1="301.200000" y1="77.000000" x2="304.200000" y2="76.000000"  transform="rotate(0.000000,304.200000,76.000000)" style="stroke: black; stroke-width:0.25;"/>
<line x1="15.000000" y1="15.000000" x2="15.000000" y2="121.000000"  style="stroke: black; stroke-linecap:round; stroke-width:0.25; stroke-dasharray:3,3;"/>
<line x1="15.000000" y1="121.000000" x2="437.300000" y2="121.000000"  style="stroke: black; stroke-linecap:round; stroke-width:0.25; stroke-dasharray:3,3;"/>
<line x1="437.300000" y1="121.000000" x2="437.300000" y2="15.000000"  style="stroke: black; stroke-linecap:round; stroke-width:0.25; stroke-dasharray:3,3;"/>
<line x1="15.000000" y1="15.000000" x2="20.000000" y2="15.000000"  style="stroke: black; stroke-linecap:round; stroke-width:0.25; stroke-dasharray:3,3;"/>
<line x1="90.950000" y1="15.000000" x2="437.300000" y2="15.000000"  style="stroke: black; stroke-linecap:round; stroke-width:0.25; stroke-dasharray:3,3;"/>
<text x="20.000000" y="17.000000" font-family="Arial" font-size="7">mobile_decoder_debug</text>
<line x1="439.300000" y1="51.000000" x2="442.300000" y2="52.000000"  transform="rotate(0.000000,442.300000,52.000000)" style="stroke: black; stroke-width:0.25;"/>
<line x1="439.300000" y1="53.000000" x2="442.300000" y2="52.000000"  transform="rotate(0.000000,442.300000,52.000000)" style="stroke: black; stroke-width:0.25;"/>
<line x1="439.300000" y1="59.000000" x2="442.300000" y2="60.000000"  transform="rotate(0.000000,442.300000,60.000000)" style="stroke: black; stroke-width:0.25;"/>
<line x1="439.300000" y1="61.000000" x2="442.300000" y2="60.000000"  transform="rotate(0.000000,442.300000,60.000000)" style="stroke: black; stroke-width:0.25;"/>
<line x1="439.300000" y1="67.000000" x2="442.300000" y2="68.000000"  transform="rotate(0.000000,442.300000,68.000000)" style="stroke: black; stroke-width:0.25;"/>
<line x1="439.300000" y1="69.000000" x2="442.300000" y2="68.000000"  transform="rotate(0.000000,442.300000,68.000000)" style="stroke: black; stroke-width:0.25;"/>
<line x1="439.300000" y1="75.000000" x2="442.300000" y2="76.000000"  transform="rotate(0.000000,442.300000,76.000000)" style="stroke: black; stroke-width:0.25;"/>
<line x1="439.300000" y1="77.000000" x2="442.300000" y2="76.000000"  transform="rotate(0.000000,442.300000,76.000000)" style="stroke: black; stroke-width:0.25;"/>
<line x1="439.300000" y1="83.000000" x2="442.300000" y2="84.000000"  transform="rotate(0.000000,442.300000,84.000000)" style="stroke: black; stroke-width:0.25;"/>
<line x1="439.300000" y1="85.000000" x2="442.300000" y2="84.000000"  transform="rotate(0.000000,442.300000,84.000000)" style="stroke: black; stroke-width:0.25;"/>
<line x1="10.000000" y1="60.000000" x2="20.000000" y2="60.000000"  style="stroke:black; stroke-linecap:round; stroke-width:0.25;"/>
<line x1="10.000000" y1="68.000000" x2="20.000000" y2="68.000000"  style="stroke:black; stroke-linecap:round; stroke-width:0.25;"/>
<line x1="10.000000" y1="76.000000" x2="20.000000" y2="76.000000"  style="stroke:black; stroke-linecap:round; stroke-width:0.25;"/>
<line x1="20.000000" y1="60.000000" x2="24.000000" y2="60.000000"  style="stroke:black; stroke-linecap:round; stroke-width:0.25;"/>
<line x1="20.000000" y1="68.000000" x2="24.000000" y2="68.000000"  style="stroke:black; stroke-linecap:round; stroke-width:0.25;"/>
<line x1="20.000000" y1="76.000000" x2="24.000000" y2="76.000000"  style="stroke:black; stroke-linecap:round; stroke-width:0.25;"/>
<line x1="24.000000" y1="60.000000" x2="28.000000" y2="60.000000"  style="stroke:black; stroke-linecap:round; stroke-width:0.25;"/>
<line x1="24.000000" y1="68.000000" x2="28.000000" y2="68.000000"  style="stroke:black; stroke-linecap:round; stroke-width:0.25;"/>
<line x1="24.000000" y1="76.000000" x2="28.000000" y2="76.000000"  style="stroke:black; stroke-linecap:round; stroke-width:0.25;"/>
<line x1="28.000000" y1="36.000000" x2="36.000000" y2="36.000000"  style="stroke:black; stroke-linecap:round; stroke-width:0.25;"/>
<line x1="28.000000" y1="60.000000" x2="28.000000" y2="36.000000"  style="stroke:black; stroke-linecap:round; stroke-width:0.25;"/>
<line x1="28.000000" y1="60.000000" x2="28.000000" y2="60.000000"  style="stroke:black; stroke-linecap:round; stroke-width:0.25;"/>
<line x1="28.000000" y1="68.000000" x2="36.000000" y2="68.000000"  style="stroke:black; stroke-linecap:round; stroke-width:0.25;"/>
<line x1="28.000000" y1="76.000000" x2="36.000000" y2="76.000000"  style="stroke:black; stroke-linecap:round; stroke-width:0.25;"/>
<line x1="36.000000" y1="36.000000" x2="40.000000" y2="36.000000"  style="stroke:black; stroke-linecap:round; stroke-width:0.25;"/>
<line x1="36.000000" y1="68.000000" x2="48.900000" y2="68.000000"  style="stroke:black; stroke-linecap:round; stroke-width:0.25;"/>
<line x1="36.000000" y1="76.000000" x2="36.000000" y2="100.000000"  style="stroke:black; stroke-linecap:round; stroke-width:0.25;"/>
<line x1="36.000000" y1="100.000000" x2="36.000000" y2="100.000000"  style="stroke:black; stroke-linecap:round; stroke-width:0.25;"/>
<line x1="36.000000" y1="100.000000" x2="48.900000" y2="100.000000"  style="stroke:black; stroke-linecap:round; stroke-width:0.25;"/>
<line x1="48.900000" y1="68.000000" x2="52.900000" y2="68.000000"  style="stroke:black; stroke-linecap:round; stroke-width:0.25;"/>
<line x1="48.900000" y1="100.000000" x2="52.900000" y2="100.000000"  style="stroke:black; stroke-linecap:round; stroke-width:0.25;"/>
<line x1="151.200000" y1="36.000000" x2="155.200000" y2="36.000000"  style="stroke:black; stroke-linecap:round; stroke-width:0.25;"/>
<line x1="155.200000" y1="36.000000" x2="155.200000" y2="36.000000"  style="stroke:black; stroke-linecap:round; stroke-width:0.25;"/>
<line x1="155.200000" y1="36.000000" x2="159.200000" y2="36.000000"  style="stroke:black; stroke-linecap:round; stroke-width:0.25;"/>
<line x1="206.800000" y1="68.000000" x2="210.800000" y2="68.000000"  style="stroke:black; stroke-linecap:round; stroke-width:0.25;"/>
<line x1="206.800000" y1="100.000000" x2="210.800000" y2="100.000000"  style="stroke:black; stroke-linecap:round; stroke-width:0.25;"/>
<line x1="210.800000" y1="68.000000" x2="292.200000" y2="68.000000"  style="stroke:black; stroke-linecap:round; stroke-width:0.25;"/>
<line x1="210.800000" y1="100.000000" x2="292.200000" y2="100.000000"  style="stroke:black; stroke-linecap:round; stroke-width:0.25;"/>
<line x1="288.200000" y1="36.000000" x2="292.200000" y2="36.000000"  style="stroke:black; stroke-linecap:round; stroke-width:0.25;"/>
<line x1="292.200000" y1="36.000000" x2="300.200000" y2="36.000000"  style="stroke:black; stroke-linecap:round; stroke-width:0.25;"/>
<line x1="292.200000" y1="68.000000" x2="300.200000" y2="68.000000"  style="stroke:black; stroke-linecap:round; stroke-width:0.25;"/>
<line x1="292.200000" y1="76.000000" x2="300.200000" y2="76.000000"  style="stroke:black; stroke-linecap:round; stroke-width:0.25;"/>
<line x1="292.200000" y1="100.000000" x2="292.200000" y2="76.000000"  style="stroke:black; stroke-linecap:round; stroke-width:0.25;"/>
<line x1="292.200000" y1="100.000000" x2="292.200000" y2="100.000000"  style="stroke:black; stroke-linecap:round; stroke-width:0.25;"/>
<line x1="300.200000" y1="36.000000" x2="300.200000" y2="60.000000"  style="stroke:black; stroke-linecap:round; stroke-width:0.25;"/>
<line x1="300.200000" y1="60.000000" x2="300.200000" y2="60.000000"  style="stroke:black; stroke-linecap:round; stroke-width:0.25;"/>
<line x1="300.200000" y1="60.000000" x2="304.200000" y2="60.000000"  style="stroke:black; stroke-linecap:round; stroke-width:0.25;"/>
<line x1="300.200000" y1="68.000000" x2="304.200000" y2="68.000000"  style="stroke:black; stroke-linecap:round; stroke-width:0.25;"/>
<line x1="300.200000" y1="76.000000" x2="304.200000" y2="76.000000"  style="stroke:black; stroke-linecap:round; stroke-width:0.25;"/>
<line x1="420.300000" y1="52.000000" x2="424.300000" y2="52.000000"  style="stroke:black; stroke-linecap:round; stroke-width:0.25;"/>
<line x1="420.300000" y1="60.000000" x2="424.300000" y2="60.000000"  style="stroke:black; stroke-linecap:round; stroke-width:0.25;"/>
<line x1="420.300000" y1="68.000000" x2="424.300000" y2="68.000000"  style="stroke:black; stroke-linecap:round; stroke-width:0.25;"/>
<line x1="420.300000" y1="76.000000" x2="424.300000" y2="76.000000"  style="stroke:black; stroke-linecap:round; stroke-width:0.25;"/>
<line x1="420.300000" y1="84.000000" x2="424.300000" y2="84.000000"  style="stroke:black; stroke-linecap:round; stroke-width:0.25;"/>
<line x1="424.300000" y1="52.000000" x2="424.300000" y2="52.000000"  style="stroke:black; stroke-linecap:round; stroke-width:0.25;"/>
<line x1="424.300000" y1="52.000000" x2="428.300000" y2="52.000000"  style="stroke:black; stroke-linecap:round; stroke-width:0.25;"/>
<line x1="424.300000" y1="60.000000" x2="424.300000" y2="60.000000"  style="stroke:black; stroke-linecap:round; stroke-width:0.25;"/>
<line x1="424.300000" y1="60.000000" x2="428.300000" y2="60.000000"  style="stroke:black; stroke-linecap:round; stroke-width:0.25;"/>
<line x1="424.300000" y1="68.000000" x2="424.300000" y2="68.000000"  style="stroke:black; stroke-linecap:round; stroke-width:0.25;"/>
<line x1="424.300000" y1="68.000000" x2="428.300000" y2="68.000000"  style="stroke:black; stroke-linecap:round; stroke-width:0.25;"/>
<line x1="424.300000" y1="76.000000" x2="424.300000" y2="76.000000"  style="stroke:black; stroke-linecap:round; stroke-width:0.25;"/>
<line x1="424.300000" y1="76.000000" x2="428.300000" y2="76.000000"  style="stroke:black; stroke-linecap:round; stroke-width:0.25;"/>
<line x1="424.300000" y1="84.000000" x2="424.300000" y2="84.000000"  style="stroke:black; stroke-linecap:round; stroke-width:0.25;"/>
<line x1="424.300000" y1="84.000000" x2="428.300000" y2="84.000000"  style="stroke:black; stroke-linecap:round; stroke-width:0.25;"/>
<line x1="428.300000" y1="52.000000" x2="432.300000" y2="52.000000"  style="stroke:black; stroke-linecap:round; stroke-width:0.25;"/>
<line x1="428.300000" y1="60.000000" x2="432.300000" y2="60.000000"  style="stroke:black; stroke-linecap:round; stroke-width:0.25;"/>
<line x1="428.300000" y1="68.000000" x2="432.300000" y2="68.000000"  style="stroke:black; stroke-linecap:round; stroke-width:0.25;"/>
<line x1="428.300000" y1="76.000000" x2="432.300000" y2="76.000000"  style="stroke:black; stroke-linecap:round; stroke-width:0.25;"/>
<line x1="428.300000" y1="84.000000" x2="432.300000" y2="84.000000"  style="stroke:black; stroke-linecap:round; stroke-width:0.25;"/>
<line x1="432.300000" y1="52.000000" x2="442.300000" y2="52.000000"  style="stroke:black; stroke-linecap:round; stroke-width:0.25;"/>
<line x1="432.300000" y1="60.000000" x2="442.300000" y2="60.000000"  style="stroke:black; stroke-linecap:round; stroke-width:0.25;"/>
<line x1="432.300000" y1="68.000000" x2="442.300000" y2="68.000000"  style="stroke:black; stroke-linecap:round; stroke-width:0.25;"/>
<line x1="432.300000" y1="76.000000" x2="442.300000" y2="76.000000"  style="stroke:black; stroke-linecap:round; stroke-width:0.25;"/>
<line x1="432.300000" y1="84.000000" x2="442.300000" y2="84.000000"  style="stroke:black; stroke-linecap:round; stroke-width:0.25;"/>
</svg>
