<?xml version="1.0"?>
<svg xmlns="http://www.w3.org/2000/svg" xmlns:xlink="http://www.w3.org/1999/xlink" viewBox="0 0 567.000000 136.000000" width="283.500000mm" height="68.000000mm" version="1.1">
<a xlink:href="mobile-0x7f9e3c147ee0.svg">
<rect x="1.000000" y="1.000000" width="566.000000" height="135.000000" rx="0" ry="0" style="stroke:none;fill:#cccccc;"/>
<rect x="0.000000" y="0.000000" width="566.000000" height="135.000000" rx="0" ry="0" style="stroke:none;fill:#ffffff;"/>
</a>
<text x="10.000000" y="7.000000" font-family="Arial" font-size="7"></text>
<rect x="41.000000" y="25.000000" width="38.700000" height="24.000000" rx="0" ry="0" style="stroke:none;fill:#cccccc;"/>
<rect x="40.000000" y="24.000000" width="38.700000" height="24.000000" rx="0" ry="0" style="stroke:none;fill:#47945E;"/>
<text x="59.350000" y="38.000000" font-family="Arial" font-size="7" text-anchor="middle" fill="#FFFFFF">dem_phase</text>
<circle cx="42.000000" cy="26.000000" r="1"/>
<line x1="37.000000" y1="35.000000" x2="40.000000" y2="36.000000"  transform="rotate(0.000000,40.000000,36.000000)" style="stroke: black; stroke-width:0.25;"/>
<line x1="37.000000" y1="37.000000" x2="40.000000" y2="36.000000"  transform="rotate(0.000000,40.000000,36.000000)" style="stroke: black; stroke-width:0.25;"/>
<rect x="47.450000" y="57.000000" width="25.800000" height="24.000000" rx="0" ry="0" style="stroke:none;fill:#cccccc;"/>
<rect x="46.450000" y="56.000000" width="25.800000" height="24.000000" rx="0" ry="0" style="stroke:none;fill:#47945E;"/>
<text x="59.350000" y="70.000000" font-family="Arial" font-size="7" text-anchor="middle" fill="#FFFFFF">input</text>
<circle cx="48.450000" cy="58.000000" r="1"/>
<line x1="43.450000" y1="67.000000" x2="46.450000" y2="68.000000"  transform="rotate(0.000000,46.450000,68.000000)" style="stroke: black; stroke-width:0.25;"/>
<line x1="43.450000" y1="69.000000" x2="46.450000" y2="68.000000"  transform="rotate(0.000000,46.450000,68.000000)" style="stroke: black; stroke-width:0.25;"/>
<rect x="47.450000" y="89.000000" width="25.800000" height="24.000000" rx="0" ry="0" style="stroke:none;fill:#cccccc;"/>
<rect x="46.450000" y="88.000000" width="25.800000" height="24.000000" rx="0" ry="0" style="stroke:none;fill:#47945E;"/>
<text x="59.350000" y="102.000000" font-family="Arial" font-size="7" text-anchor="middle" fill="#FFFFFF">clock</text>
<circle cx="48.450000" cy="90.000000" r="1"/>
<line x1="43.450000" y1="99.000000" x2="46.450000" y2="100.000000"  transform="rotate(0.000000,46.450000,100.000000)" style="stroke: black; stroke-width:0.25;"/>
<line x1="43.450000" y1="101.000000" x2="46.450000" y2="100.000000"  transform="rotate(0.000000,46.450000,100.000000)" style="stroke: black; stroke-width:0.25;"/>
<rect x="149.750000" y="41.000000" width="38.700000" height="24.000000" rx="0" ry="0" style="stroke:none;fill:#cccccc;"/>
<rect x="148.750000" y="40.000000" width="38.700000" height="24.000000" rx="0" ry="0" style="stroke:none;fill:#47945E;"/>
<text x="168.100000" y="54.000000" font-family="Arial" font-size="7" text-anchor="middle" fill="#FFFFFF">dem_phase</text>
<circle cx="150.750000" cy="42.000000" r="1"/>
<rect x="87.700000" y="73.000000" width="25.800000" height="24.000000" rx="0" ry="0" style="stroke:none;fill:#cccccc;"/>
<rect x="86.700000" y="72.000000" width="25.800000" height="24.000000" rx="0" ry="0" style="stroke:none;fill:#47945E;"/>
<text x="99.600000" y="86.000000" font-family="Arial" font-size="7" text-anchor="middle" fill="#FFFFFF">input</text>
<circle cx="88.700000" cy="74.000000" r="1"/>
<a xlink:href="prefilter-0x7f9e3c2796a0.svg">
<rect x="121.500000" y="73.000000" width="129.000000" height="24.000000" rx="0" ry="0" style="stroke:none;fill:#cccccc;"/>
<rect x="120.500000" y="72.000000" width="129.000000" height="24.000000" rx="0" ry="0" style="stroke:none;fill:#003366;"/>
</a>
<a xlink:href="prefilter-0x7f9e3c2796a0.svg">
<text x="185.000000" y="86.000000" font-family="Arial" font-size="7" text-anchor="middle" fill="#FFFFFF">prefilter(hsl...0000000001f))</text>
</a>
<circle cx="122.500000" cy="74.000000" r="1"/>
<line x1="117.500000" y1="83.000000" x2="120.500000" y2="84.000000"  transform="rotate(0.000000,120.500000,84.000000)" style="stroke: black; stroke-width:0.25;"/>
<line x1="117.500000" y1="85.000000" x2="120.500000" y2="84.000000"  transform="rotate(0.000000,120.500000,84.000000)" style="stroke: black; stroke-width:0.25;"/>
<a xlink:href="demodulator-0x7f9e3c3604b0.svg">
<rect x="266.500000" y="57.000000" width="51.600000" height="24.000000" rx="0" ry="0" style="stroke:none;fill:#cccccc;"/>
<rect x="265.500000" y="56.000000" width="51.600000" height="24.000000" rx="0" ry="0" style="stroke:none;fill:#003366;"/>
</a>
<a xlink:href="demodulator-0x7f9e3c3604b0.svg">
<text x="291.300000" y="70.000000" font-family="Arial" font-size="7" text-anchor="middle" fill="#FFFFFF">demodulator</text>
</a>
<circle cx="267.500000" cy="58.000000" r="1"/>
<line x1="262.500000" y1="63.000000" x2="265.500000" y2="64.000000"  transform="rotate(0.000000,265.500000,64.000000)" style="stroke: black; stroke-width:0.25;"/>
<line x1="262.500000" y1="65.000000" x2="265.500000" y2="64.000000"  transform="rotate(0.000000,265.500000,64.000000)" style="stroke: black; stroke-width:0.25;"/>
<line x1="262.500000" y1="71.000000" x2="265.500000" y2="72.000000"  transform="rotate(0.000000,265.500000,72.000000)" style="stroke: black; stroke-width:0.25;"/>
<line x1="262.500000" y1="73.000000" x2="265.500000" y2="72.000000"  transform="rotate(0.000000,265.500000,72.000000)" style="stroke: black; stroke-width:0.25;"/>
<a xlink:href="autogain-0x7f9e3c0fa890.svg">
<rect x="334.100000" y="41.000000" width="38.700000" height="24.000000" rx="0" ry="0" style="stroke:none;fill:#cccccc;"/>
<rect x="333.100000" y="40.000000" width="38.700000" height="24.000000" rx="0" ry="0" style="stroke:none;fill:#003366;"/>
</a>
<a xlink:href="autogain-0x7f9e3c0fa890.svg">
<text x="352.450000" y="54.000000" font-family="Arial" font-size="7" text-anchor="middle" fill="#FFFFFF">autogain</text>
</a>
<circle cx="335.100000" cy="42.000000" r="1"/>
<line x1="330.100000" y1="51.000000" x2="333.100000" y2="52.000000"  transform="rotate(0.000000,333.100000,52.000000)" style="stroke: black; stroke-width:0.25;"/>
<line x1="330.100000" y1="53.000000" x2="333.100000" y2="52.000000"  transform="rotate(0.000000,333.100000,52.000000)" style="stroke: black; stroke-width:0.25;"/>
<a xlink:href="autogain-0x7f9e3c0fa890.svg">
<rect x="334.100000" y="73.000000" width="38.700000" height="24.000000" rx="0" ry="0" style="stroke:none;fill:#cccccc;"/>
<rect x="333.100000" y="72.000000" width="38.700000" height="24.000000" rx="0" ry="0" style="stroke:none;fill:#003366;"/>
</a>
<a xlink:href="autogain-0x7f9e3c0fa890.svg">
<text x="352.450000" y="86.000000" font-family="Arial" font-size="7" text-anchor="middle" fill="#FFFFFF">autogain</text>
</a>
<circle cx="335.100000" cy="74.000000" r="1"/>
<line x1="330.100000" y1="83.000000" x2="333.100000" y2="84.000000"  transform="rotate(0.000000,333.100000,84.000000)" style="stroke: black; stroke-width:0.25;"/>
<line x1="330.100000" y1="85.000000" x2="333.100000" y2="84.000000"  transform="rotate(0.000000,333.100000,84.000000)" style="stroke: black; stroke-width:0.25;"/>
<a xlink:href="sampler-0x7f9e3c12e6a0.svg">
<rect x="408.800000" y="49.000000" width="51.600000" height="24.000000" rx="0" ry="0" style="stroke:none;fill:#cccccc;"/>
<rect x="407.800000" y="48.000000" width="51.600000" height="24.000000" rx="0" ry="0" style="stroke:none;fill:#003366;"/>
</a>
<a xlink:href="sampler-0x7f9e3c12e6a0.svg">
<text x="433.600000" y="62.000000" font-family="Arial" font-size="7" text-anchor="middle" fill="#FFFFFF">sampler(x15)</text>
</a>
<circle cx="409.800000" cy="50.000000" r="1"/>
<line x1="404.800000" y1="55.000000" x2="407.800000" y2="56.000000"  transform="rotate(0.000000,407.800000,56.000000)" style="stroke: black; stroke-width:0.25;"/>
<line x1="404.800000" y1="57.000000" x2="407.800000" y2="56.000000"  transform="rotate(0.000000,407.800000,56.000000)" style="stroke: black; stroke-width:0.25;"/>
<line x1="404.800000" y1="63.000000" x2="407.800000" y2="64.000000"  transform="rotate(0.000000,407.800000,64.000000)" style="stroke: black; stroke-width:0.25;"/>
<line x1="404.800000" y1="65.000000" x2="407.800000" y2="64.000000"  transform="rotate(0.000000,407.800000,64.000000)" style="stroke: black; stroke-width:0.25;"/>
<a xlink:href="decide-0x7f9e3c1475c0.svg">
<rect x="468.400000" y="49.000000" width="51.600000" height="24.000000" rx="0" ry="0" style="stroke:none;fill:#cccccc;"/>
<rect x="467.400000" y="48.000000" width="51.600000" height="24.000000" rx="0" ry="0" style="stroke:none;fill:#003366;"/>
</a>
<a xlink:href="decide-0x7f9e3c1475c0.svg">
<text x="493.200000" y="62.000000" font-family="Arial" font-size="7" text-anchor="middle" fill="#FFFFFF">decide_remap</text>
</a>
<circle cx="469.400000" cy="50.000000" r="1"/>
<line x1="464.400000" y1="55.000000" x2="467.400000" y2="56.000000"  transform="rotate(0.000000,467.400000,56.000000)" style="stroke: black; stroke-width:0.25;"/>
<line x1="464.400000" y1="57.000000" x2="467.400000" y2="56.000000"  transform="rotate(0.000000,467.400000,56.000000)" style="stroke: black; stroke-width:0.25;"/>
<line x1="464.400000" y1="63.000000" x2="467.400000" y2="64.000000"  transform="rotate(0.000000,467.400000,64.000000)" style="stroke: black; stroke-width:0.25;"/>
<line x1="464.400000" y1="65.000000" x2="467.400000" y2="64.000000"  transform="rotate(0.000000,467.400000,64.000000)" style="stroke: black; stroke-width:0.25;"/>
<line x1="15.000000" y1="15.000000" x2="15.000000" y2="121.000000"  style="stroke: black; stroke-linecap:round; stroke-width:0.25; stroke-dasharray:3,3;"/>
<line x1="15.000000" y1="121.000000" x2="552.000000" y2="121.000000"  style="stroke: black; stroke-linecap:round; stroke-width:0.25; stroke-dasharray:3,3;"/>
<line x1="552.000000" y1="121.000000" x2="552.000000" y2="15.000000"  style="stroke: black; stroke-linecap:round; stroke-width:0.25; stroke-dasharray:3,3;"/>
<line x1="15.000000" y1="15.000000" x2="20.000000" y2="15.000000"  style="stroke: black; stroke-linecap:round; stroke-width:0.25; stroke-dasharray:3,3;"/>
<line x1="113.525000" y1="15.000000" x2="552.000000" y2="15.000000"  style="stroke: black; stroke-linecap:round; stroke-width:0.25; stroke-dasharray:3,3;"/>
<text x="20.000000" y="17.000000" font-family="Arial" font-size="7">mobile_decoder_single_debug</text>
<line x1="554.000000" y1="51.000000" x2="557.000000" y2="52.000000"  transform="rotate(0.000000,557.000000,52.000000)" style="stroke: black; stroke-width:0.25;"/>
<line x1="554.000000" y1="53.000000" x2="557.000000" y2="52.000000"  transform="rotate(0.000000,557.000000,52.000000)" style="stroke: black; stroke-width:0.25;"/>
<line x1="554.000000" y1="59.000000" x2="557.000000" y2="60.000000"  transform="rotate(0.000000,557.000000,60.000000)" style="stroke: black; stroke-width:0.25;"/>
<line x1="554.000000" y1="61.000000" x2="557.000000" y2="60.000000"  transform="rotate(0.000000,557.000000,60.000000)" style="stroke: black; stroke-width:0.25;"/>
<line x1="554.000000" y1="67.000000" x2="557.000000" y2="68.000000"  transform="rotate(0.000000,557.000000,68.000000)" style="stroke: black; stroke-width:0.25;"/>
<line x1="554.000000" y1="69.000000" x2="557.000000" y2="68.000000"  transform="rotate(0.000000,557.000000,68.000000)" style="stroke: black; stroke-width:0.25;"/>
<line x1="554.000000" y1="75.000000" x2="557.000000" y2="76.000000"  transform="rotate(0.000000,557.000000,76.000000)" style="stroke: black; stroke-width:0.25;"/>
<line x1="554.000000" y1="77.000000" x2="557.000000" y2="76.000000"  transform="rotate(0.000000,557.000000,76.000000)" style="stroke: black; stroke-width:0.25;"/>
<line x1="554.000000" y1="83.000000" x2="557.000000" y2="84.000000"  transform="rotate(0.000000,557.000000,84.000000)" style="stroke: black; stroke-width:0.25;"/>
<line x1="554.000000" y1="85.000000" x2="557.000000" y2="84.000000"  transform="rotate(0.000000,557.000000,84.000000)" style="stroke: black; stroke-width:0.25;"/>
<line x1="10.000000" y1="60.000000" x2="20.000000" y2="60.000000"  style="stroke:black; stroke-linecap:round; stroke-width:0.25;"/>
<line x1="10.000000" y1="68.000000" x2="20.000000" y2="68.000000"  style="stroke:black; stroke-linecap:round; stroke-width:0.25;"/>
<line x1="10.000000" y1="76.000000" x2="20.000000" y2="76.000000"  style="stroke:black; stroke-linecap:round; stroke-width:0.25;"/>
<line x1="20.000000" y1="60.000000" x2="24.000000" y2="60.000000"  style="stroke:black; stroke-linecap:round; stroke-width:0.25;"/>
<line x1="20.000000" y1="68.000000" x2="24.000000" y2="68.000000"  style="stroke:black; stroke-linecap:round; stroke-width:0.25;"/>
<line x1="20.000000" y1="76.000000" x2="24.000000" y2="76.000000"  style="stroke:black; stroke-linecap:round; stroke-width:0.25;"/>
<line x1="24.000000" y1="60.000000" x2="28.000000" y2="60.000000"  style="stroke:black; stroke-linecap:round; stroke-width:0.25;"/>
<line x1="24.000000" y1="68.000000" x2="28.000000" y2="68.000000"  style="stroke:black; stroke-linecap:round; stroke-width:0.25;"/>
<line x1="24.000000" y1="76.000000" x2="28.000000" y2="76.000000"  style="stroke:black; stroke-linecap:round; stroke-width:0.25;"/>
<line x1="28.000000" y1="36.000000" x2="36.000000" y2="36.000000"  style="stroke:black; stroke-linecap:round; stroke-width:0.25;"/>
<line x1="28.000000" y1="60.000000" x2="28.000000" y2="36.000000"  style="stroke:black; stroke-linecap:round; stroke-width:0.25;"/>
<line x1="28.000000" y1="60.000000" x2="28.000000" y2="60.000000"  style="stroke:black; stroke-linecap:round; stroke-width:0.25;"/>
<line x1="28.000000" y1="68.000000" x2="36.000000" y2="68.000000"  style="stroke:black; stroke-linecap:round; stroke-width:0.25;"/>
<line x1="28.000000" y1="76.000000" x2="36.000000" y2="76.000000"  style="stroke:black; stroke-linecap:round; stroke-width:0.25;"/>
<line x1="36.000000" y1="36.000000" x2="40.000000" y2="36.000000"  style="stroke:black; stroke-linecap:round; stroke-width:0.25;"/>
<line x1="36.000000" y1="68.000000" x2="42.450000" y2="68.000000"  style="stroke:black; stroke-linecap:round; stroke-width:0.25;"/>
<line x1="36.000000" y1="76.000000" x2="36.000000" y2="100.000000"  style="stroke:black; stroke-linecap:round; stroke-width:0.25;"/>
<line x1="36.000000" y1="100.000000" x2="36.000000" y2="100.000000"  style="stroke:black; stroke-linecap:round; stroke-width:0.25;"/>
<line x1="36.000000" y1="100.000000" x2="42.450000" y2="100.000000"  style="stroke:black; stroke-linecap:round; stroke-width:0.25;"/>
<line x1="42.450000" y1="68.000000" x2="46.450000" y2="68.000000"  style="stroke:black; stroke-linecap:round; stroke-width:0.25;"/>
<line x1="42.450000" y1="100.000000" x2="46.450000" y2="100.000000"  style="stroke:black; stroke-linecap:round; stroke-width:0.25;"/>
<line x1="112.500000" y1="84.000000" x2="116.500000" y2="84.000000"  style="stroke:black; stroke-linecap:round; stroke-width:0.25;"/>
<line x1="116.500000" y1="84.000000" x2="116.500000" y2="84.000000"  style="stroke:black; stroke-linecap:round; stroke-width:0.25;"/>
<line x1="116.500000" y1="84.000000" x2="120.500000" y2="84.000000"  style="stroke:black; stroke-linecap:round; stroke-width:0.25;"/>
<line x1="187.450000" y1="52.000000" x2="191.450000" y2="52.000000"  style="stroke:black; stroke-linecap:round; stroke-width:0.25;"/>
<line x1="191.450000" y1="52.000000" x2="253.500000" y2="52.000000"  style="stroke:black; stroke-linecap:round; stroke-width:0.25;"/>
<line x1="249.500000" y1="84.000000" x2="253.500000" y2="84.000000"  style="stroke:black; stroke-linecap:round; stroke-width:0.25;"/>
<line x1="253.500000" y1="52.000000" x2="261.500000" y2="52.000000"  style="stroke:black; stroke-linecap:round; stroke-width:0.25;"/>
<line x1="253.500000" y1="72.000000" x2="261.500000" y2="72.000000"  style="stroke:black; stroke-linecap:round; stroke-width:0.25;"/>
<line x1="253.500000" y1="84.000000" x2="253.500000" y2="72.000000"  style="stroke:black; stroke-linecap:round; stroke-width:0.25;"/>
<line x1="253.500000" y1="84.000000" x2="253.500000" y2="84.000000"  style="stroke:black; stroke-linecap:round; stroke-width:0.25;"/>
<line x1="261.500000" y1="52.000000" x2="261.500000" y2="64.000000"  style="stroke:black; stroke-linecap:round; stroke-width:0.25;"/>
<line x1="261.500000" y1="64.000000" x2="261.500000" y2="64.000000"  style="stroke:black; stroke-linecap:round; stroke-width:0.25;"/>
<line x1="261.500000" y1="64.000000" x2="265.500000" y2="64.000000"  style="stroke:black; stroke-linecap:round; stroke-width:0.25;"/>
<line x1="261.500000" y1="72.000000" x2="265.500000" y2="72.000000"  style="stroke:black; stroke-linecap:round; stroke-width:0.25;"/>
<line x1="317.100000" y1="64.000000" x2="321.100000" y2="64.000000"  style="stroke:black; stroke-linecap:round; stroke-width:0.25;"/>
<line x1="317.100000" y1="72.000000" x2="321.100000" y2="72.000000"  style="stroke:black; stroke-linecap:round; stroke-width:0.25;"/>
<line x1="321.100000" y1="52.000000" x2="329.100000" y2="52.000000"  style="stroke:black; stroke-linecap:round; stroke-width:0.25;"/>
<line x1="321.100000" y1="64.000000" x2="321.100000" y2="52.000000"  style="stroke:black; stroke-linecap:round; stroke-width:0.25;"/>
<line x1="321.100000" y1="64.000000" x2="321.100000" y2="64.000000"  style="stroke:black; stroke-linecap:round; stroke-width:0.25;"/>
<line x1="321.100000" y1="72.000000" x2="329.100000" y2="72.000000"  style="stroke:black; stroke-linecap:round; stroke-width:0.25;"/>
<line x1="329.100000" y1="52.000000" x2="333.100000" y2="52.000000"  style="stroke:black; stroke-linecap:round; stroke-width:0.25;"/>
<line x1="329.100000" y1="72.000000" x2="329.100000" y2="84.000000"  style="stroke:black; stroke-linecap:round; stroke-width:0.25;"/>
<line x1="329.100000" y1="84.000000" x2="329.100000" y2="84.000000"  style="stroke:black; stroke-linecap:round; stroke-width:0.25;"/>
<line x1="329.100000" y1="84.000000" x2="333.100000" y2="84.000000"  style="stroke:black; stroke-linecap:round; stroke-width:0.25;"/>
<line x1="371.800000" y1="52.000000" x2="375.800000" y2="52.000000"  style="stroke:black; stroke-linecap:round; stroke-width:0.25;"/>
<line x1="371.800000" y1="84.000000" x2="375.800000" y2="84.000000"  style="stroke:black; stroke-linecap:round; stroke-width:0.25;"/>
<line x1="375.800000" y1="52.000000" x2="403.800000" y2="80.000000"  style="stroke:black; stroke-linecap:round; stroke-width:0.25;"/>
<line x1="375.800000" y1="52.000000" x2="403.800000" y2="56.000000"  style="stroke:black; stroke-linecap:round; stroke-width:0.25;"/>
<line x1="375.800000" y1="84.000000" x2="403.800000" y2="88.000000"  style="stroke:black; stroke-linecap:round; stroke-width:0.25;"/>
<line x1="375.800000" y1="84.000000" x2="403.800000" y2="64.000000"  style="stroke:black; stroke-linecap:round; stroke-width:0.25;"/>
<line x1="403.800000" y1="80.000000" x2="463.400000" y2="80.000000"  style="stroke:black; stroke-linecap:round; stroke-width:0.25;"/>
<line x1="403.800000" y1="88.000000" x2="463.400000" y2="88.000000"  style="stroke:black; stroke-linecap:round; stroke-width:0.25;"/>
<line x1="403.800000" y1="56.000000" x2="407.800000" y2="56.000000"  style="stroke:black; stroke-linecap:round; stroke-width:0.25;"/>
<line x1="403.800000" y1="64.000000" x2="407.800000" y2="64.000000"  style="stroke:black; stroke-linecap:round; stroke-width:0.25;"/>
<line x1="459.400000" y1="56.000000" x2="463.400000" y2="56.000000"  style="stroke:black; stroke-linecap:round; stroke-width:0.25;"/>
<line x1="459.400000" y1="64.000000" x2="463.400000" y2="64.000000"  style="stroke:black; stroke-linecap:round; stroke-width:0.25;"/>
<line x1="463.400000" y1="56.000000" x2="463.400000" y2="56.000000"  style="stroke:black; stroke-linecap:round; stroke-width:0.25;"/>
<line x1="463.400000" y1="56.000000" x2="467.400000" y2="56.000000"  style="stroke:black; stroke-linecap:round; stroke-width:0.25;"/>
<line x1="463.400000" y1="64.000000" x2="463.400000" y2="64.000000"  style="stroke:black; stroke-linecap:round; stroke-width:0.25;"/>
<line x1="463.400000" y1="64.000000" x2="467.400000" y2="64.000000"  style="stroke:black; stroke-linecap:round; stroke-width:0.25;"/>
<line x1="463.400000" y1="80.000000" x2="523.000000" y2="80.000000"  style="stroke:black; stroke-linecap:round; stroke-width:0.25;"/>
<line x1="463.400000" y1="88.000000" x2="523.000000" y2="88.000000"  style="stroke:black; stroke-linecap:round; stroke-width:0.25;"/>
<line x1="519.000000" y1="52.000000" x2="523.000000" y2="52.000000"  style="stroke:black; stroke-linecap:round; stroke-width:0.25;"/>
<line x1="519.000000" y1="60.000000" x2="523.000000" y2="60.000000"  style="stroke:black; stroke-linecap:round; stroke-width:0.25;"/>
<line x1="519.000000" y1="68.000000" x2="523.000000" y2="68.000000"  style="stroke:black; stroke-linecap:round; stroke-width:0.25;"/>
<line x1="523.000000" y1="52.000000" x2="539.000000" y2="52.000000"  style="stroke:black; stroke-linecap:round; stroke-width:0.25;"/>
<line x1="523.000000" y1="60.000000" x2="539.000000" y2="60.000000"  style="stroke:black; stroke-linecap:round; stroke-width:0.25;"/>
<line x1="523.000000" y1="68.000000" x2="539.000000" y2="68.000000"  style="stroke:black; stroke-linecap:round; stroke-width:0.25;"/>
<line x1="523.000000" y1="76.000000" x2="539.000000" y2="76.000000"  style="stroke:black; stroke-linecap:round; stroke-width:0.25;"/>
<line x1="523.000000" y1="80.000000" x2="523.000000" y2="76.000000"  style="stroke:black; stroke-linecap:round; stroke-width:0.25;"/>
<line x1="523.000000" y1="80.000000" x2="523.000000" y2="80.000000"  style="stroke:black; stroke-linecap:round; stroke-width:0.25;"/>
<line x1="523.000000" y1="88.000000" x2="531.000000" y2="88.000000"  style="stroke:black; stroke-linecap:round; stroke-width:0.25;"/>
<line x1="531.000000" y1="84.000000" x2="539.000000" y2="84.000000"  style="stroke:black; stroke-linecap:round; stroke-width:0.25;"/>
<line x1="531.000000" y1="88.000000" x2="531.000000" y2="84.000000"  style="stroke:black; stroke-linecap:round; stroke-width:0.25;"/>
<line x1="539.000000" y1="52.000000" x2="543.000000" y2="52.000000"  style="stroke:black; stroke-linecap:round; stroke-width:0.25;"/>
<line x1="539.000000" y1="60.000000" x2="543.000000" y2="60.000000"  style="stroke:black; stroke-linecap:round; stroke-width:0.25;"/>
<line x1="539.000000" y1="68.000000" x2="543.000000" y2="68.000000"  style="stroke:black; stroke-linecap:round; stroke-width:0.25;"/>
<line x1="539.000000" y1="76.000000" x2="543.000000" y2="76.000000"  style="stroke:black; stroke-linecap:round; stroke-width:0.25;"/>
<line x1="539.000000" y1="84.000000" x2="543.000000" y2="84.000000"  style="stroke:black; stroke-linecap:round; stroke-width:0.25;"/>
<line x1="543.000000" y1="52.000000" x2="547.000000" y2="52.000000"  style="stroke:black; stroke-linecap:round; stroke-width:0.25;"/>
<line x1="543.000000" y1="60.000000" x2="547.000000" y2="60.000000"  style="stroke:black; stroke-linecap:round; stroke-width:0.25;"/>
<line x1="543.000000" y1="68.000000" x2="547.000000" y2="68.000000"  style="stroke:black; stroke-linecap:round; stroke-width:0.25;"/>
<line x1="543.000000" y1="76.000000" x2="547.000000" y2="76.000000"  style="stroke:black; stroke-linecap:round; stroke-width:0.25;"/>
<line x1="543.000000" y1="84.000000" x2="547.000000" y2="84.000000"  style="stroke:black; stroke-linecap:round; stroke-width:0.25;"/>
<line x1="547.000000" y1="52.000000" x2="557.000000" y2="52.000000"  style="stroke:black; stroke-linecap:round; stroke-width:0.25;"/>
<line x1="547.000000" y1="60.000000" x2="557.000000" y2="60.000000"  style="stroke:black; stroke-linecap:round; stroke-width:0.25;"/>
<line x1="547.000000" y1="68.000000" x2="557.000000" y2="68.000000"  style="stroke:black; stroke-linecap:round; stroke-width:0.25;"/>
<line x1="547.000000" y1="76.000000" x2="557.000000" y2="76.000000"  style="stroke:black; stroke-linecap:round; stroke-width:0.25;"/>
<line x1="547.000000" y1="84.000000" x2="557.000000" y2="84.000000"  style="stroke:black; stroke-linecap:round; stroke-width:0.25;"/>
</svg>
