<?xml version="1.0"?>
<svg xmlns="http://www.w3.org/2000/svg" xmlns:xlink="http://www.w3.org/1999/xlink" viewBox="0 0 500.200000 132.000000" width="250.100000mm" height="66.000000mm" version="1.1">
<a xlink:href="loc-0x7f9e3c20df20.svg">
<rect x="1.000000" y="1.000000" width="499.200000" height="131.000000" rx="0" ry="0" style="stroke:none;fill:#cccccc;"/>
<rect x="0.000000" y="0.000000" width="499.200000" height="131.000000" rx="0" ry="0" style="stroke:none;fill:#ffffff;"/>
</a>
<text x="10.000000" y="7.000000" font-family="Arial" font-size="7"></text>
<rect x="25.000000" y="39.000000" width="24.000000" height="24.000000" rx="0" ry="0" style="stroke:none;fill:#cccccc;"/>
<rect x="24.000000" y="38.000000" width="24.000000" height="24.000000" rx="0" ry="0" style="stroke:none;fill:#f44800;"/>
<text x="36.000000" y="52.000000" font-family="Arial" font-size="7" text-anchor="middle" fill="#FFFFFF">1</text>
<circle cx="26.000000" cy="40.000000" r="1"/>
<a xlink:href="c-0x7f9e3c208720.svg">
<rect x="25.000000" y="71.000000" width="24.000000" height="24.000000" rx="0" ry="0" style="stroke:none;fill:#cccccc;"/>
<rect x="24.000000" y="70.000000" width="24.000000" height="24.000000" rx="0" ry="0" style="stroke:none;fill:#003366;"/>
</a>
<a xlink:href="c-0x7f9e3c208720.svg">
<text x="36.000000" y="84.000000" font-family="Arial" font-size="7" text-anchor="middle" fill="#FFFFFF">c</text>
</a>
<circle cx="26.000000" cy="72.000000" r="1"/>
<rect x="65.000000" y="55.000000" width="24.000000" height="24.000000" rx="0" ry="0" style="stroke:none;fill:#cccccc;"/>
<rect x="64.000000" y="54.000000" width="24.000000" height="24.000000" rx="0" ry="0" style="stroke:none;fill:#4B71A1;"/>
<text x="76.000000" y="68.000000" font-family="Arial" font-size="7" text-anchor="middle" fill="#FFFFFF">*</text>
<circle cx="66.000000" cy="56.000000" r="1"/>
<line x1="61.000000" y1="61.000000" x2="64.000000" y2="62.000000"  transform="rotate(0.000000,64.000000,62.000000)" style="stroke: black; stroke-width:0.25;"/>
<line x1="61.000000" y1="63.000000" x2="64.000000" y2="62.000000"  transform="rotate(0.000000,64.000000,62.000000)" style="stroke: black; stroke-width:0.25;"/>
<line x1="61.000000" y1="69.000000" x2="64.000000" y2="70.000000"  transform="rotate(0.000000,64.000000,70.000000)" style="stroke: black; stroke-width:0.25;"/>
<line x1="61.000000" y1="71.000000" x2="64.000000" y2="70.000000"  transform="rotate(0.000000,64.000000,70.000000)" style="stroke: black; stroke-width:0.25;"/>
<rect x="113.900000" y="71.000000" width="24.000000" height="24.000000" rx="0" ry="0" style="stroke:none;fill:#cccccc;"/>
<rect x="112.900000" y="70.000000" width="24.000000" height="24.000000" rx="0" ry="0" style="stroke:none;fill:#4B71A1;"/>
<text x="124.900000" y="84.000000" font-family="Arial" font-size="7" text-anchor="middle" fill="#FFFFFF">+</text>
<circle cx="114.900000" cy="72.000000" r="1"/>
<line x1="109.900000" y1="77.000000" x2="112.900000" y2="78.000000"  transform="rotate(0.000000,112.900000,78.000000)" style="stroke: black; stroke-width:0.25;"/>
<line x1="109.900000" y1="79.000000" x2="112.900000" y2="78.000000"  transform="rotate(0.000000,112.900000,78.000000)" style="stroke: black; stroke-width:0.25;"/>
<line x1="109.900000" y1="85.000000" x2="112.900000" y2="86.000000"  transform="rotate(0.000000,112.900000,86.000000)" style="stroke: black; stroke-width:0.25;"/>
<line x1="109.900000" y1="87.000000" x2="112.900000" y2="86.000000"  transform="rotate(0.000000,112.900000,86.000000)" style="stroke: black; stroke-width:0.25;"/>
<a xlink:href="repeat-0x7f9e3c20cd90.svg">
<rect x="113.000000" y="39.000000" width="25.800000" height="24.000000" rx="0" ry="0" style="stroke:none;fill:#cccccc;"/>
<rect x="112.000000" y="38.000000" width="25.800000" height="24.000000" rx="0" ry="0" style="stroke:none;fill:#003366;"/>
</a>
<a xlink:href="repeat-0x7f9e3c20cd90.svg">
<text x="124.900000" y="52.000000" font-family="Arial" font-size="7" text-anchor="middle" fill="#FFFFFF">repeat</text>
</a>
<circle cx="135.800000" cy="60.000000" r="1"/>
<line x1="140.800000" y1="49.000000" x2="137.800000" y2="50.000000"  transform="rotate(0.000000,137.800000,50.000000)" style="stroke: black; stroke-width:0.25;"/>
<line x1="140.800000" y1="51.000000" x2="137.800000" y2="50.000000"  transform="rotate(0.000000,137.800000,50.000000)" style="stroke: black; stroke-width:0.25;"/>
<line x1="139.800000" y1="82.000000" x2="139.800000" y2="78.000000"  style="stroke:black; stroke-linecap:round; stroke-width:0.25;"/>
<line x1="139.800000" y1="78.000000" x2="143.800000" y2="78.000000"  style="stroke:black; stroke-linecap:round; stroke-width:0.25;"/>
<line x1="143.800000" y1="78.000000" x2="143.800000" y2="82.000000"  style="stroke:black; stroke-linecap:round; stroke-width:0.25;"/>
<rect x="172.800000" y="43.000000" width="206.400000" height="24.000000" rx="0" ry="0" style="stroke:none;fill:#cccccc;"/>
<rect x="171.800000" y="42.000000" width="206.400000" height="24.000000" rx="0" ry="0" style="stroke:none;fill:#477881;"/>
<text x="275.000000" y="56.000000" font-family="Arial" font-size="7" text-anchor="middle" fill="#FFFFFF">hslider(pilotlength, 17.0f, 0.0f, 20.0f, 1.0f)</text>
<circle cx="173.800000" cy="44.000000" r="1"/>
<line x1="162.800000" y1="33.000000" x2="162.800000" y2="75.000000"  style="stroke: black; stroke-linecap:round; stroke-width:0.25; stroke-dasharray:3,3;"/>
<line x1="162.800000" y1="75.000000" x2="387.200000" y2="75.000000"  style="stroke: black; stroke-linecap:round; stroke-width:0.25; stroke-dasharray:3,3;"/>
<line x1="387.200000" y1="75.000000" x2="387.200000" y2="33.000000"  style="stroke: black; stroke-linecap:round; stroke-width:0.25; stroke-dasharray:3,3;"/>
<line x1="162.800000" y1="33.000000" x2="167.800000" y2="33.000000"  style="stroke: black; stroke-linecap:round; stroke-width:0.25; stroke-dasharray:3,3;"/>
<line x1="212.950000" y1="33.000000" x2="387.200000" y2="33.000000"  style="stroke: black; stroke-linecap:round; stroke-width:0.25; stroke-dasharray:3,3;"/>
<text x="167.800000" y="35.000000" font-family="Arial" font-size="7">pilot_length</text>
<rect x="264.000000" y="85.000000" width="24.000000" height="24.000000" rx="0" ry="0" style="stroke:none;fill:#cccccc;"/>
<rect x="263.000000" y="84.000000" width="24.000000" height="24.000000" rx="0" ry="0" style="stroke:none;fill:#f44800;"/>
<text x="275.000000" y="98.000000" font-family="Arial" font-size="7" text-anchor="middle" fill="#FFFFFF">2</text>
<circle cx="265.000000" cy="86.000000" r="1"/>
<rect x="405.200000" y="59.000000" width="24.000000" height="24.000000" rx="0" ry="0" style="stroke:none;fill:#cccccc;"/>
<rect x="404.200000" y="58.000000" width="24.000000" height="24.000000" rx="0" ry="0" style="stroke:none;fill:#4B71A1;"/>
<text x="416.200000" y="72.000000" font-family="Arial" font-size="7" text-anchor="middle" fill="#FFFFFF">/</text>
<circle cx="406.200000" cy="60.000000" r="1"/>
<line x1="401.200000" y1="65.000000" x2="404.200000" y2="66.000000"  transform="rotate(0.000000,404.200000,66.000000)" style="stroke: black; stroke-width:0.25;"/>
<line x1="401.200000" y1="67.000000" x2="404.200000" y2="66.000000"  transform="rotate(0.000000,404.200000,66.000000)" style="stroke: black; stroke-width:0.25;"/>
<line x1="401.200000" y1="73.000000" x2="404.200000" y2="74.000000"  transform="rotate(0.000000,404.200000,74.000000)" style="stroke: black; stroke-width:0.25;"/>
<line x1="401.200000" y1="75.000000" x2="404.200000" y2="74.000000"  transform="rotate(0.000000,404.200000,74.000000)" style="stroke: black; stroke-width:0.25;"/>
<rect x="445.200000" y="55.000000" width="24.000000" height="24.000000" rx="0" ry="0" style="stroke:none;fill:#cccccc;"/>
<rect x="444.200000" y="54.000000" width="24.000000" height="24.000000" rx="0" ry="0" style="stroke:none;fill:#4B71A1;"/>
<text x="456.200000" y="68.000000" font-family="Arial" font-size="7" text-anchor="middle" fill="#FFFFFF">&lt;</text>
<circle cx="446.200000" cy="56.000000" r="1"/>
<line x1="441.200000" y1="61.000000" x2="444.200000" y2="62.000000"  transform="rotate(0.000000,444.200000,62.000000)" style="stroke: black; stroke-width:0.25;"/>
<line x1="441.200000" y1="63.000000" x2="444.200000" y2="62.000000"  transform="rotate(0.000000,444.200000,62.000000)" style="stroke: black; stroke-width:0.25;"/>
<line x1="441.200000" y1="69.000000" x2="444.200000" y2="70.000000"  transform="rotate(0.000000,444.200000,70.000000)" style="stroke: black; stroke-width:0.25;"/>
<line x1="441.200000" y1="71.000000" x2="444.200000" y2="70.000000"  transform="rotate(0.000000,444.200000,70.000000)" style="stroke: black; stroke-width:0.25;"/>
<line x1="15.000000" y1="15.000000" x2="15.000000" y2="117.000000"  style="stroke: black; stroke-linecap:round; stroke-width:0.25; stroke-dasharray:3,3;"/>
<line x1="15.000000" y1="117.000000" x2="485.200000" y2="117.000000"  style="stroke: black; stroke-linecap:round; stroke-width:0.25; stroke-dasharray:3,3;"/>
<line x1="485.200000" y1="117.000000" x2="485.200000" y2="15.000000"  style="stroke: black; stroke-linecap:round; stroke-width:0.25; stroke-dasharray:3,3;"/>
<line x1="15.000000" y1="15.000000" x2="20.000000" y2="15.000000"  style="stroke: black; stroke-linecap:round; stroke-width:0.25; stroke-dasharray:3,3;"/>
<line x1="129.650000" y1="15.000000" x2="485.200000" y2="15.000000"  style="stroke: black; stroke-linecap:round; stroke-width:0.25; stroke-dasharray:3,3;"/>
<text x="20.000000" y="17.000000" font-family="Arial" font-size="7">pilot_ask_bas...20.0f, 1.0f))(1)</text>
<line x1="487.200000" y1="65.000000" x2="490.200000" y2="66.000000"  transform="rotate(0.000000,490.200000,66.000000)" style="stroke: black; stroke-width:0.25;"/>
<line x1="487.200000" y1="67.000000" x2="490.200000" y2="66.000000"  transform="rotate(0.000000,490.200000,66.000000)" style="stroke: black; stroke-width:0.25;"/>
<line x1="48.000000" y1="50.000000" x2="52.000000" y2="50.000000"  style="stroke:black; stroke-linecap:round; stroke-width:0.25;"/>
<line x1="48.000000" y1="82.000000" x2="52.000000" y2="82.000000"  style="stroke:black; stroke-linecap:round; stroke-width:0.25;"/>
<line x1="52.000000" y1="50.000000" x2="60.000000" y2="50.000000"  style="stroke:black; stroke-linecap:round; stroke-width:0.25;"/>
<line x1="52.000000" y1="70.000000" x2="60.000000" y2="70.000000"  style="stroke:black; stroke-linecap:round; stroke-width:0.25;"/>
<line x1="52.000000" y1="82.000000" x2="52.000000" y2="70.000000"  style="stroke:black; stroke-linecap:round; stroke-width:0.25;"/>
<line x1="52.000000" y1="82.000000" x2="52.000000" y2="82.000000"  style="stroke:black; stroke-linecap:round; stroke-width:0.25;"/>
<line x1="60.000000" y1="50.000000" x2="60.000000" y2="62.000000"  style="stroke:black; stroke-linecap:round; stroke-width:0.25;"/>
<line x1="60.000000" y1="62.000000" x2="60.000000" y2="62.000000"  style="stroke:black; stroke-linecap:round; stroke-width:0.25;"/>
<line x1="60.000000" y1="62.000000" x2="64.000000" y2="62.000000"  style="stroke:black; stroke-linecap:round; stroke-width:0.25;"/>
<line x1="60.000000" y1="70.000000" x2="64.000000" y2="70.000000"  style="stroke:black; stroke-linecap:round; stroke-width:0.25;"/>
<line x1="88.000000" y1="66.000000" x2="92.000000" y2="66.000000"  style="stroke:black; stroke-linecap:round; stroke-width:0.25;"/>
<line x1="92.000000" y1="66.000000" x2="100.000000" y2="66.000000"  style="stroke:black; stroke-linecap:round; stroke-width:0.25;"/>
<line x1="100.000000" y1="66.000000" x2="100.000000" y2="86.000000"  style="stroke:black; stroke-linecap:round; stroke-width:0.25;"/>
<line x1="100.000000" y1="86.000000" x2="100.000000" y2="86.000000"  style="stroke:black; stroke-linecap:round; stroke-width:0.25;"/>
<line x1="100.000000" y1="86.000000" x2="108.000000" y2="86.000000"  style="stroke:black; stroke-linecap:round; stroke-width:0.25;"/>
<line x1="108.000000" y1="50.000000" x2="108.000000" y2="50.000000"  style="stroke:black; stroke-linecap:round; stroke-width:0.25;"/>
<line x1="108.000000" y1="50.000000" x2="108.000000" y2="78.000000"  style="stroke:black; stroke-linecap:round; stroke-width:0.25;"/>
<line x1="108.000000" y1="78.000000" x2="108.000000" y2="78.000000"  style="stroke:black; stroke-linecap:round; stroke-width:0.25;"/>
<line x1="108.000000" y1="78.000000" x2="108.900000" y2="78.000000"  style="stroke:black; stroke-linecap:round; stroke-width:0.25;"/>
<line x1="108.000000" y1="86.000000" x2="108.900000" y2="86.000000"  style="stroke:black; stroke-linecap:round; stroke-width:0.25;"/>
<line x1="108.900000" y1="78.000000" x2="112.900000" y2="78.000000"  style="stroke:black; stroke-linecap:round; stroke-width:0.25;"/>
<line x1="108.900000" y1="86.000000" x2="112.900000" y2="86.000000"  style="stroke:black; stroke-linecap:round; stroke-width:0.25;"/>
<line x1="112.000000" y1="50.000000" x2="108.000000" y2="50.000000"  style="stroke:black; stroke-linecap:round; stroke-width:0.25;"/>
<line x1="136.900000" y1="82.000000" x2="140.900000" y2="82.000000"  style="stroke:black; stroke-linecap:round; stroke-width:0.25;"/>
<line x1="140.900000" y1="82.000000" x2="141.800000" y2="82.000000"  style="stroke:black; stroke-linecap:round; stroke-width:0.25;"/>
<line x1="141.800000" y1="50.000000" x2="137.800000" y2="50.000000"  style="stroke:black; stroke-linecap:round; stroke-width:0.25;"/>
<line x1="141.800000" y1="50.000000" x2="141.800000" y2="50.000000"  style="stroke:black; stroke-linecap:round; stroke-width:0.25;"/>
<line x1="141.800000" y1="78.000000" x2="141.800000" y2="50.000000"  style="stroke:black; stroke-linecap:round; stroke-width:0.25;"/>
<line x1="141.800000" y1="82.000000" x2="143.800000" y2="82.000000"  style="stroke:black; stroke-linecap:round; stroke-width:0.25;"/>
<line x1="143.800000" y1="82.000000" x2="149.800000" y2="82.000000"  style="stroke:black; stroke-linecap:round; stroke-width:0.25;"/>
<line x1="149.800000" y1="24.000000" x2="157.800000" y2="24.000000"  style="stroke:black; stroke-linecap:round; stroke-width:0.25;"/>
<line x1="149.800000" y1="82.000000" x2="149.800000" y2="24.000000"  style="stroke:black; stroke-linecap:round; stroke-width:0.25;"/>
<line x1="149.800000" y1="82.000000" x2="149.800000" y2="82.000000"  style="stroke:black; stroke-linecap:round; stroke-width:0.25;"/>
<line x1="157.800000" y1="24.000000" x2="295.000000" y2="24.000000"  style="stroke:black; stroke-linecap:round; stroke-width:0.25;"/>
<line x1="287.000000" y1="96.000000" x2="291.000000" y2="96.000000"  style="stroke:black; stroke-linecap:round; stroke-width:0.25;"/>
<line x1="291.000000" y1="96.000000" x2="392.200000" y2="96.000000"  style="stroke:black; stroke-linecap:round; stroke-width:0.25;"/>
<line x1="295.000000" y1="24.000000" x2="432.200000" y2="24.000000"  style="stroke:black; stroke-linecap:round; stroke-width:0.25;"/>
<line x1="378.200000" y1="54.000000" x2="382.200000" y2="54.000000"  style="stroke:black; stroke-linecap:round; stroke-width:0.25;"/>
<line x1="382.200000" y1="54.000000" x2="392.200000" y2="54.000000"  style="stroke:black; stroke-linecap:round; stroke-width:0.25;"/>
<line x1="392.200000" y1="54.000000" x2="400.200000" y2="54.000000"  style="stroke:black; stroke-linecap:round; stroke-width:0.25;"/>
<line x1="392.200000" y1="74.000000" x2="400.200000" y2="74.000000"  style="stroke:black; stroke-linecap:round; stroke-width:0.25;"/>
<line x1="392.200000" y1="96.000000" x2="392.200000" y2="74.000000"  style="stroke:black; stroke-linecap:round; stroke-width:0.25;"/>
<line x1="392.200000" y1="96.000000" x2="392.200000" y2="96.000000"  style="stroke:black; stroke-linecap:round; stroke-width:0.25;"/>
<line x1="400.200000" y1="54.000000" x2="400.200000" y2="66.000000"  style="stroke:black; stroke-linecap:round; stroke-width:0.25;"/>
<line x1="400.200000" y1="66.000000" x2="400.200000" y2="66.000000"  style="stroke:black; stroke-linecap:round; stroke-width:0.25;"/>
<line x1="400.200000" y1="66.000000" x2="404.200000" y2="66.000000"  style="stroke:black; stroke-linecap:round; stroke-width:0.25;"/>
<line x1="400.200000" y1="74.000000" x2="404.200000" y2="74.000000"  style="stroke:black; stroke-linecap:round; stroke-width:0.25;"/>
<line x1="428.200000" y1="70.000000" x2="432.200000" y2="70.000000"  style="stroke:black; stroke-linecap:round; stroke-width:0.25;"/>
<line x1="432.200000" y1="24.000000" x2="440.200000" y2="24.000000"  style="stroke:black; stroke-linecap:round; stroke-width:0.25;"/>
<line x1="432.200000" y1="70.000000" x2="440.200000" y2="70.000000"  style="stroke:black; stroke-linecap:round; stroke-width:0.25;"/>
<line x1="440.200000" y1="24.000000" x2="440.200000" y2="62.000000"  style="stroke:black; stroke-linecap:round; stroke-width:0.25;"/>
<line x1="440.200000" y1="62.000000" x2="440.200000" y2="62.000000"  style="stroke:black; stroke-linecap:round; stroke-width:0.25;"/>
<line x1="440.200000" y1="62.000000" x2="444.200000" y2="62.000000"  style="stroke:black; stroke-linecap:round; stroke-width:0.25;"/>
<line x1="440.200000" y1="70.000000" x2="444.200000" y2="70.000000"  style="stroke:black; stroke-linecap:round; stroke-width:0.25;"/>
<line x1="468.200000" y1="66.000000" x2="472.200000" y2="66.000000"  style="stroke:black; stroke-linecap:round; stroke-width:0.25;"/>
<line x1="472.200000" y1="66.000000" x2="472.200000" y2="66.000000"  style="stroke:black; stroke-linecap:round; stroke-width:0.25;"/>
<line x1="472.200000" y1="66.000000" x2="476.200000" y2="66.000000"  style="stroke:black; stroke-linecap:round; stroke-width:0.25;"/>
<line x1="476.200000" y1="66.000000" x2="480.200000" y2="66.000000"  style="stroke:black; stroke-linecap:round; stroke-width:0.25;"/>
<line x1="480.200000" y1="66.000000" x2="490.200000" y2="66.000000"  style="stroke:black; stroke-linecap:round; stroke-width:0.25;"/>
</svg>
