<?xml version="1.0"?>
<svg xmlns="http://www.w3.org/2000/svg" xmlns:xlink="http://www.w3.org/1999/xlink" viewBox="0 0 747.300000 112.000000" width="373.650000mm" height="56.000000mm" version="1.1">
<rect x="1.000000" y="1.000000" width="746.300000" height="111.000000" rx="0" ry="0" style="stroke:none;fill:#cccccc;"/>
<rect x="0.000000" y="0.000000" width="746.300000" height="111.000000" rx="0" ry="0" style="stroke:none;fill:#ffffff;"/>
<text x="10.000000" y="7.000000" font-family="Arial" font-size="7"></text>
<a xlink:href="pilot-0x7f9e3c0fac20.svg">
<rect x="61.000000" y="41.000000" width="129.000000" height="24.000000" rx="0" ry="0" style="stroke:none;fill:#cccccc;"/>
<rect x="60.000000" y="40.000000" width="129.000000" height="24.000000" rx="0" ry="0" style="stroke:none;fill:#003366;"/>
</a>
<a xlink:href="pilot-0x7f9e3c0fac20.svg">
<text x="124.500000" y="54.000000" font-family="Arial" font-size="7" text-anchor="middle" fill="#FFFFFF">pilot_dem(hsl...00.0f, 1.0f))</text>
</a>
<circle cx="62.000000" cy="42.000000" r="1"/>
<line x1="57.000000" y1="51.000000" x2="60.000000" y2="52.000000"  transform="rotate(0.000000,60.000000,52.000000)" style="stroke: black; stroke-width:0.25;"/>
<line x1="57.000000" y1="53.000000" x2="60.000000" y2="52.000000"  transform="rotate(0.000000,60.000000,52.000000)" style="stroke: black; stroke-width:0.25;"/>
<a xlink:href="sample-0x7f9e3c20e6a0.svg">
<rect x="244.000000" y="57.000000" width="129.000000" height="24.000000" rx="0" ry="0" style="stroke:none;fill:#cccccc;"/>
<rect x="243.000000" y="56.000000" width="129.000000" height="24.000000" rx="0" ry="0" style="stroke:none;fill:#003366;"/>
</a>
<a xlink:href="sample-0x7f9e3c20e6a0.svg">
<text x="307.500000" y="70.000000" font-family="Arial" font-size="7" text-anchor="middle" fill="#FFFFFF">sample_clock_...0000000001f))</text>
</a>
<circle cx="245.000000" cy="58.000000" r="1"/>
<line x1="240.000000" y1="67.000000" x2="243.000000" y2="68.000000"  transform="rotate(0.000000,243.000000,68.000000)" style="stroke: black; stroke-width:0.25;"/>
<line x1="240.000000" y1="69.000000" x2="243.000000" y2="68.000000"  transform="rotate(0.000000,243.000000,68.000000)" style="stroke: black; stroke-width:0.25;"/>
<a xlink:href="mobile-0x7f9e3c147ee0.svg">
<rect x="389.000000" y="49.000000" width="90.300000" height="40.000000" rx="0" ry="0" style="stroke:none;fill:#cccccc;"/>
<rect x="388.000000" y="48.000000" width="90.300000" height="40.000000" rx="0" ry="0" style="stroke:none;fill:#003366;"/>
</a>
<a xlink:href="mobile-0x7f9e3c147ee0.svg">
<text x="433.150000" y="70.000000" font-family="Arial" font-size="7" text-anchor="middle" fill="#FFFFFF">mobile_decoder_debug</text>
</a>
<circle cx="390.000000" cy="50.000000" r="1"/>
<line x1="385.000000" y1="59.000000" x2="388.000000" y2="60.000000"  transform="rotate(0.000000,388.000000,60.000000)" style="stroke: black; stroke-width:0.25;"/>
<line x1="385.000000" y1="61.000000" x2="388.000000" y2="60.000000"  transform="rotate(0.000000,388.000000,60.000000)" style="stroke: black; stroke-width:0.25;"/>
<line x1="385.000000" y1="67.000000" x2="388.000000" y2="68.000000"  transform="rotate(0.000000,388.000000,68.000000)" style="stroke: black; stroke-width:0.25;"/>
<line x1="385.000000" y1="69.000000" x2="388.000000" y2="68.000000"  transform="rotate(0.000000,388.000000,68.000000)" style="stroke: black; stroke-width:0.25;"/>
<line x1="385.000000" y1="75.000000" x2="388.000000" y2="76.000000"  transform="rotate(0.000000,388.000000,76.000000)" style="stroke: black; stroke-width:0.25;"/>
<line x1="385.000000" y1="77.000000" x2="388.000000" y2="76.000000"  transform="rotate(0.000000,388.000000,76.000000)" style="stroke: black; stroke-width:0.25;"/>
<line x1="480.300000" y1="52.000000" x2="480.300000" y2="48.000000"  style="stroke:black; stroke-linecap:round; stroke-width:0.25;"/>
<line x1="480.300000" y1="48.000000" x2="484.300000" y2="48.000000"  style="stroke:black; stroke-linecap:round; stroke-width:0.25;"/>
<line x1="484.300000" y1="48.000000" x2="484.300000" y2="52.000000"  style="stroke:black; stroke-linecap:round; stroke-width:0.25;"/>
<a xlink:href="outputbit-0x7f9e3c4e16f0.svg">
<rect x="551.300000" y="41.000000" width="129.000000" height="24.000000" rx="0" ry="0" style="stroke:none;fill:#cccccc;"/>
<rect x="550.300000" y="40.000000" width="129.000000" height="24.000000" rx="0" ry="0" style="stroke:none;fill:#003366;"/>
</a>
<a xlink:href="outputbit-0x7f9e3c4e16f0.svg">
<text x="614.800000" y="54.000000" font-family="Arial" font-size="7" text-anchor="middle" fill="#FFFFFF">outputbit(hsl...0000000001f))</text>
</a>
<circle cx="552.300000" cy="42.000000" r="1"/>
<line x1="547.300000" y1="43.000000" x2="550.300000" y2="44.000000"  transform="rotate(0.000000,550.300000,44.000000)" style="stroke: black; stroke-width:0.25;"/>
<line x1="547.300000" y1="45.000000" x2="550.300000" y2="44.000000"  transform="rotate(0.000000,550.300000,44.000000)" style="stroke: black; stroke-width:0.25;"/>
<line x1="547.300000" y1="51.000000" x2="550.300000" y2="52.000000"  transform="rotate(0.000000,550.300000,52.000000)" style="stroke: black; stroke-width:0.25;"/>
<line x1="547.300000" y1="53.000000" x2="550.300000" y2="52.000000"  transform="rotate(0.000000,550.300000,52.000000)" style="stroke: black; stroke-width:0.25;"/>
<line x1="547.300000" y1="59.000000" x2="550.300000" y2="60.000000"  transform="rotate(0.000000,550.300000,60.000000)" style="stroke: black; stroke-width:0.25;"/>
<line x1="547.300000" y1="61.000000" x2="550.300000" y2="60.000000"  transform="rotate(0.000000,550.300000,60.000000)" style="stroke: black; stroke-width:0.25;"/>
<line x1="15.000000" y1="15.000000" x2="15.000000" y2="97.000000"  style="stroke: black; stroke-linecap:round; stroke-width:0.25; stroke-dasharray:3,3;"/>
<line x1="15.000000" y1="97.000000" x2="732.300000" y2="97.000000"  style="stroke: black; stroke-linecap:round; stroke-width:0.25; stroke-dasharray:3,3;"/>
<line x1="732.300000" y1="97.000000" x2="732.300000" y2="15.000000"  style="stroke: black; stroke-linecap:round; stroke-width:0.25; stroke-dasharray:3,3;"/>
<line x1="15.000000" y1="15.000000" x2="20.000000" y2="15.000000"  style="stroke: black; stroke-linecap:round; stroke-width:0.25; stroke-dasharray:3,3;"/>
<line x1="49.025000" y1="15.000000" x2="732.300000" y2="15.000000"  style="stroke: black; stroke-linecap:round; stroke-width:0.25; stroke-dasharray:3,3;"/>
<text x="20.000000" y="17.000000" font-family="Arial" font-size="7">process</text>
<line x1="734.300000" y1="39.000000" x2="737.300000" y2="40.000000"  transform="rotate(0.000000,737.300000,40.000000)" style="stroke: black; stroke-width:0.25;"/>
<line x1="734.300000" y1="41.000000" x2="737.300000" y2="40.000000"  transform="rotate(0.000000,737.300000,40.000000)" style="stroke: black; stroke-width:0.25;"/>
<line x1="734.300000" y1="47.000000" x2="737.300000" y2="48.000000"  transform="rotate(0.000000,737.300000,48.000000)" style="stroke: black; stroke-width:0.25;"/>
<line x1="734.300000" y1="49.000000" x2="737.300000" y2="48.000000"  transform="rotate(0.000000,737.300000,48.000000)" style="stroke: black; stroke-width:0.25;"/>
<line x1="734.300000" y1="55.000000" x2="737.300000" y2="56.000000"  transform="rotate(0.000000,737.300000,56.000000)" style="stroke: black; stroke-width:0.25;"/>
<line x1="734.300000" y1="57.000000" x2="737.300000" y2="56.000000"  transform="rotate(0.000000,737.300000,56.000000)" style="stroke: black; stroke-width:0.25;"/>
<line x1="734.300000" y1="63.000000" x2="737.300000" y2="64.000000"  transform="rotate(0.000000,737.300000,64.000000)" style="stroke: black; stroke-width:0.25;"/>
<line x1="734.300000" y1="65.000000" x2="737.300000" y2="64.000000"  transform="rotate(0.000000,737.300000,64.000000)" style="stroke: black; stroke-width:0.25;"/>
<line x1="734.300000" y1="71.000000" x2="737.300000" y2="72.000000"  transform="rotate(0.000000,737.300000,72.000000)" style="stroke: black; stroke-width:0.25;"/>
<line x1="734.300000" y1="73.000000" x2="737.300000" y2="72.000000"  transform="rotate(0.000000,737.300000,72.000000)" style="stroke: black; stroke-width:0.25;"/>
<line x1="10.000000" y1="56.000000" x2="20.000000" y2="56.000000"  style="stroke:black; stroke-linecap:round; stroke-width:0.25;"/>
<line x1="20.000000" y1="56.000000" x2="24.000000" y2="56.000000"  style="stroke:black; stroke-linecap:round; stroke-width:0.25;"/>
<line x1="24.000000" y1="56.000000" x2="28.000000" y2="56.000000"  style="stroke:black; stroke-linecap:round; stroke-width:0.25;"/>
<line x1="28.000000" y1="56.000000" x2="28.000000" y2="56.000000"  style="stroke:black; stroke-linecap:round; stroke-width:0.25;"/>
<line x1="28.000000" y1="56.000000" x2="32.000000" y2="56.000000"  style="stroke:black; stroke-linecap:round; stroke-width:0.25;"/>
<line x1="32.000000" y1="56.000000" x2="36.000000" y2="56.000000"  style="stroke:black; stroke-linecap:round; stroke-width:0.25;"/>
<line x1="36.000000" y1="56.000000" x2="56.000000" y2="52.000000"  style="stroke:black; stroke-linecap:round; stroke-width:0.25;"/>
<line x1="36.000000" y1="56.000000" x2="56.000000" y2="72.000000"  style="stroke:black; stroke-linecap:round; stroke-width:0.25;"/>
<line x1="56.000000" y1="52.000000" x2="60.000000" y2="52.000000"  style="stroke:black; stroke-linecap:round; stroke-width:0.25;"/>
<line x1="56.000000" y1="72.000000" x2="135.500000" y2="72.000000"  style="stroke:black; stroke-linecap:round; stroke-width:0.25;"/>
<line x1="135.500000" y1="72.000000" x2="215.000000" y2="72.000000"  style="stroke:black; stroke-linecap:round; stroke-width:0.25;"/>
<line x1="189.000000" y1="52.000000" x2="193.000000" y2="52.000000"  style="stroke:black; stroke-linecap:round; stroke-width:0.25;"/>
<line x1="193.000000" y1="52.000000" x2="207.000000" y2="44.000000"  style="stroke:black; stroke-linecap:round; stroke-width:0.25;"/>
<line x1="193.000000" y1="52.000000" x2="207.000000" y2="52.000000"  style="stroke:black; stroke-linecap:round; stroke-width:0.25;"/>
<line x1="193.000000" y1="52.000000" x2="207.000000" y2="60.000000"  style="stroke:black; stroke-linecap:round; stroke-width:0.25;"/>
<line x1="207.000000" y1="44.000000" x2="211.000000" y2="44.000000"  style="stroke:black; stroke-linecap:round; stroke-width:0.25;"/>
<line x1="207.000000" y1="52.000000" x2="211.000000" y2="52.000000"  style="stroke:black; stroke-linecap:round; stroke-width:0.25;"/>
<line x1="207.000000" y1="60.000000" x2="211.000000" y2="60.000000"  style="stroke:black; stroke-linecap:round; stroke-width:0.25;"/>
<line x1="211.000000" y1="44.000000" x2="215.000000" y2="44.000000"  style="stroke:black; stroke-linecap:round; stroke-width:0.25;"/>
<line x1="211.000000" y1="52.000000" x2="215.000000" y2="52.000000"  style="stroke:black; stroke-linecap:round; stroke-width:0.25;"/>
<line x1="211.000000" y1="60.000000" x2="215.000000" y2="60.000000"  style="stroke:black; stroke-linecap:round; stroke-width:0.25;"/>
<line x1="215.000000" y1="24.000000" x2="231.000000" y2="24.000000"  style="stroke:black; stroke-linecap:round; stroke-width:0.25;"/>
<line x1="215.000000" y1="44.000000" x2="215.000000" y2="24.000000"  style="stroke:black; stroke-linecap:round; stroke-width:0.25;"/>
<line x1="215.000000" y1="44.000000" x2="215.000000" y2="44.000000"  style="stroke:black; stroke-linecap:round; stroke-width:0.25;"/>
<line x1="215.000000" y1="52.000000" x2="223.000000" y2="52.000000"  style="stroke:black; stroke-linecap:round; stroke-width:0.25;"/>
<line x1="215.000000" y1="60.000000" x2="231.000000" y2="60.000000"  style="stroke:black; stroke-linecap:round; stroke-width:0.25;"/>
<line x1="215.000000" y1="72.000000" x2="223.000000" y2="72.000000"  style="stroke:black; stroke-linecap:round; stroke-width:0.25;"/>
<line x1="223.000000" y1="32.000000" x2="231.000000" y2="32.000000"  style="stroke:black; stroke-linecap:round; stroke-width:0.25;"/>
<line x1="223.000000" y1="52.000000" x2="223.000000" y2="32.000000"  style="stroke:black; stroke-linecap:round; stroke-width:0.25;"/>
<line x1="223.000000" y1="72.000000" x2="223.000000" y2="88.000000"  style="stroke:black; stroke-linecap:round; stroke-width:0.25;"/>
<line x1="223.000000" y1="88.000000" x2="231.000000" y2="88.000000"  style="stroke:black; stroke-linecap:round; stroke-width:0.25;"/>
<line x1="231.000000" y1="24.000000" x2="360.650000" y2="24.000000"  style="stroke:black; stroke-linecap:round; stroke-width:0.25;"/>
<line x1="231.000000" y1="32.000000" x2="360.650000" y2="32.000000"  style="stroke:black; stroke-linecap:round; stroke-width:0.25;"/>
<line x1="231.000000" y1="60.000000" x2="231.000000" y2="68.000000"  style="stroke:black; stroke-linecap:round; stroke-width:0.25;"/>
<line x1="231.000000" y1="68.000000" x2="231.000000" y2="68.000000"  style="stroke:black; stroke-linecap:round; stroke-width:0.25;"/>
<line x1="231.000000" y1="68.000000" x2="239.000000" y2="68.000000"  style="stroke:black; stroke-linecap:round; stroke-width:0.25;"/>
<line x1="231.000000" y1="88.000000" x2="239.000000" y2="88.000000"  style="stroke:black; stroke-linecap:round; stroke-width:0.25;"/>
<line x1="239.000000" y1="40.000000" x2="239.000000" y2="40.000000"  style="stroke:black; stroke-linecap:round; stroke-width:0.25;"/>
<line x1="239.000000" y1="40.000000" x2="239.000000" y2="48.000000"  style="stroke:black; stroke-linecap:round; stroke-width:0.25;"/>
<line x1="239.000000" y1="48.000000" x2="239.000000" y2="48.000000"  style="stroke:black; stroke-linecap:round; stroke-width:0.25;"/>
<line x1="239.000000" y1="48.000000" x2="307.500000" y2="48.000000"  style="stroke:black; stroke-linecap:round; stroke-width:0.25;"/>
<line x1="239.000000" y1="68.000000" x2="243.000000" y2="68.000000"  style="stroke:black; stroke-linecap:round; stroke-width:0.25;"/>
<line x1="239.000000" y1="88.000000" x2="307.500000" y2="88.000000"  style="stroke:black; stroke-linecap:round; stroke-width:0.25;"/>
<line x1="307.500000" y1="48.000000" x2="376.000000" y2="48.000000"  style="stroke:black; stroke-linecap:round; stroke-width:0.25;"/>
<line x1="307.500000" y1="88.000000" x2="376.000000" y2="88.000000"  style="stroke:black; stroke-linecap:round; stroke-width:0.25;"/>
<line x1="360.650000" y1="24.000000" x2="490.300000" y2="24.000000"  style="stroke:black; stroke-linecap:round; stroke-width:0.25;"/>
<line x1="360.650000" y1="32.000000" x2="490.300000" y2="32.000000"  style="stroke:black; stroke-linecap:round; stroke-width:0.25;"/>
<line x1="360.650000" y1="40.000000" x2="239.000000" y2="40.000000"  style="stroke:black; stroke-linecap:round; stroke-width:0.25;"/>
<line x1="372.000000" y1="68.000000" x2="376.000000" y2="68.000000"  style="stroke:black; stroke-linecap:round; stroke-width:0.25;"/>
<line x1="376.000000" y1="48.000000" x2="384.000000" y2="48.000000"  style="stroke:black; stroke-linecap:round; stroke-width:0.25;"/>
<line x1="376.000000" y1="68.000000" x2="384.000000" y2="68.000000"  style="stroke:black; stroke-linecap:round; stroke-width:0.25;"/>
<line x1="376.000000" y1="76.000000" x2="384.000000" y2="76.000000"  style="stroke:black; stroke-linecap:round; stroke-width:0.25;"/>
<line x1="376.000000" y1="88.000000" x2="376.000000" y2="76.000000"  style="stroke:black; stroke-linecap:round; stroke-width:0.25;"/>
<line x1="376.000000" y1="88.000000" x2="376.000000" y2="88.000000"  style="stroke:black; stroke-linecap:round; stroke-width:0.25;"/>
<line x1="384.000000" y1="48.000000" x2="384.000000" y2="60.000000"  style="stroke:black; stroke-linecap:round; stroke-width:0.25;"/>
<line x1="384.000000" y1="60.000000" x2="384.000000" y2="60.000000"  style="stroke:black; stroke-linecap:round; stroke-width:0.25;"/>
<line x1="384.000000" y1="60.000000" x2="388.000000" y2="60.000000"  style="stroke:black; stroke-linecap:round; stroke-width:0.25;"/>
<line x1="384.000000" y1="68.000000" x2="388.000000" y2="68.000000"  style="stroke:black; stroke-linecap:round; stroke-width:0.25;"/>
<line x1="384.000000" y1="76.000000" x2="388.000000" y2="76.000000"  style="stroke:black; stroke-linecap:round; stroke-width:0.25;"/>
<line x1="478.300000" y1="52.000000" x2="482.300000" y2="52.000000"  style="stroke:black; stroke-linecap:round; stroke-width:0.25;"/>
<line x1="478.300000" y1="60.000000" x2="482.300000" y2="60.000000"  style="stroke:black; stroke-linecap:round; stroke-width:0.25;"/>
<line x1="478.300000" y1="68.000000" x2="482.300000" y2="68.000000"  style="stroke:black; stroke-linecap:round; stroke-width:0.25;"/>
<line x1="478.300000" y1="76.000000" x2="482.300000" y2="76.000000"  style="stroke:black; stroke-linecap:round; stroke-width:0.25;"/>
<line x1="478.300000" y1="84.000000" x2="482.300000" y2="84.000000"  style="stroke:black; stroke-linecap:round; stroke-width:0.25;"/>
<line x1="482.300000" y1="40.000000" x2="360.650000" y2="40.000000"  style="stroke:black; stroke-linecap:round; stroke-width:0.25;"/>
<line x1="482.300000" y1="40.000000" x2="482.300000" y2="40.000000"  style="stroke:black; stroke-linecap:round; stroke-width:0.25;"/>
<line x1="482.300000" y1="48.000000" x2="482.300000" y2="40.000000"  style="stroke:black; stroke-linecap:round; stroke-width:0.25;"/>
<line x1="482.300000" y1="52.000000" x2="484.300000" y2="52.000000"  style="stroke:black; stroke-linecap:round; stroke-width:0.25;"/>
<line x1="482.300000" y1="60.000000" x2="490.300000" y2="60.000000"  style="stroke:black; stroke-linecap:round; stroke-width:0.25;"/>
<line x1="482.300000" y1="68.000000" x2="490.300000" y2="68.000000"  style="stroke:black; stroke-linecap:round; stroke-width:0.25;"/>
<line x1="482.300000" y1="76.000000" x2="490.300000" y2="76.000000"  style="stroke:black; stroke-linecap:round; stroke-width:0.25;"/>
<line x1="482.300000" y1="84.000000" x2="490.300000" y2="84.000000"  style="stroke:black; stroke-linecap:round; stroke-width:0.25;"/>
<line x1="490.300000" y1="24.000000" x2="530.300000" y2="24.000000"  style="stroke:black; stroke-linecap:round; stroke-width:0.25;"/>
<line x1="490.300000" y1="32.000000" x2="522.300000" y2="32.000000"  style="stroke:black; stroke-linecap:round; stroke-width:0.25;"/>
<line x1="490.300000" y1="60.000000" x2="498.300000" y2="60.000000"  style="stroke:black; stroke-linecap:round; stroke-width:0.25;"/>
<line x1="490.300000" y1="68.000000" x2="506.300000" y2="68.000000"  style="stroke:black; stroke-linecap:round; stroke-width:0.25;"/>
<line x1="490.300000" y1="76.000000" x2="514.300000" y2="76.000000"  style="stroke:black; stroke-linecap:round; stroke-width:0.25;"/>
<line x1="490.300000" y1="84.000000" x2="522.300000" y2="84.000000"  style="stroke:black; stroke-linecap:round; stroke-width:0.25;"/>
<line x1="498.300000" y1="52.040000" x2="530.300000" y2="52.040000"  style="stroke:black; stroke-linecap:round; stroke-width:0.25;"/>
<line x1="498.300000" y1="60.000000" x2="498.300000" y2="52.040000"  style="stroke:black; stroke-linecap:round; stroke-width:0.25;"/>
<line x1="506.300000" y1="60.040000" x2="530.300000" y2="60.040000"  style="stroke:black; stroke-linecap:round; stroke-width:0.25;"/>
<line x1="506.300000" y1="68.000000" x2="506.300000" y2="60.040000"  style="stroke:black; stroke-linecap:round; stroke-width:0.25;"/>
<line x1="514.300000" y1="68.040000" x2="530.300000" y2="68.040000"  style="stroke:black; stroke-linecap:round; stroke-width:0.25;"/>
<line x1="514.300000" y1="76.000000" x2="514.300000" y2="68.040000"  style="stroke:black; stroke-linecap:round; stroke-width:0.25;"/>
<line x1="522.300000" y1="32.000000" x2="522.300000" y2="43.960000"  style="stroke:black; stroke-linecap:round; stroke-width:0.25;"/>
<line x1="522.300000" y1="43.960000" x2="530.300000" y2="43.960000"  style="stroke:black; stroke-linecap:round; stroke-width:0.25;"/>
<line x1="522.300000" y1="76.040000" x2="530.300000" y2="76.040000"  style="stroke:black; stroke-linecap:round; stroke-width:0.25;"/>
<line x1="522.300000" y1="84.000000" x2="522.300000" y2="76.040000"  style="stroke:black; stroke-linecap:round; stroke-width:0.25;"/>
<line x1="530.300000" y1="24.000000" x2="530.300000" y2="35.960000"  style="stroke:black; stroke-linecap:round; stroke-width:0.25;"/>
<line x1="530.300000" y1="32.000000" x2="546.300000" y2="32.000000"  style="stroke:black; stroke-linecap:round; stroke-width:0.25;"/>
<line x1="530.300000" y1="35.960000" x2="530.300000" y2="32.000000"  style="stroke:black; stroke-linecap:round; stroke-width:0.25;"/>
<line x1="530.300000" y1="35.960000" x2="530.300000" y2="35.960000"  style="stroke:black; stroke-linecap:round; stroke-width:0.25;"/>
<line x1="530.300000" y1="43.960000" x2="546.300000" y2="43.960000"  style="stroke:black; stroke-linecap:round; stroke-width:0.25;"/>
<line x1="530.300000" y1="52.000000" x2="546.300000" y2="52.000000"  style="stroke:black; stroke-linecap:round; stroke-width:0.25;"/>
<line x1="530.300000" y1="52.040000" x2="530.300000" y2="52.000000"  style="stroke:black; stroke-linecap:round; stroke-width:0.25;"/>
<line x1="530.300000" y1="52.040000" x2="530.300000" y2="52.040000"  style="stroke:black; stroke-linecap:round; stroke-width:0.25;"/>
<line x1="530.300000" y1="60.040000" x2="538.300000" y2="60.040000"  style="stroke:black; stroke-linecap:round; stroke-width:0.25;"/>
<line x1="530.300000" y1="68.040000" x2="546.300000" y2="68.040000"  style="stroke:black; stroke-linecap:round; stroke-width:0.25;"/>
<line x1="530.300000" y1="76.040000" x2="538.300000" y2="76.040000"  style="stroke:black; stroke-linecap:round; stroke-width:0.25;"/>
<line x1="538.300000" y1="60.000000" x2="546.300000" y2="60.000000"  style="stroke:black; stroke-linecap:round; stroke-width:0.25;"/>
<line x1="538.300000" y1="60.040000" x2="538.300000" y2="60.000000"  style="stroke:black; stroke-linecap:round; stroke-width:0.25;"/>
<line x1="538.300000" y1="76.040000" x2="538.300000" y2="80.000000"  style="stroke:black; stroke-linecap:round; stroke-width:0.25;"/>
<line x1="538.300000" y1="80.000000" x2="546.300000" y2="80.000000"  style="stroke:black; stroke-linecap:round; stroke-width:0.25;"/>
<line x1="546.300000" y1="32.000000" x2="624.800000" y2="32.000000"  style="stroke:black; stroke-linecap:round; stroke-width:0.25;"/>
<line x1="546.300000" y1="43.960000" x2="546.300000" y2="44.000000"  style="stroke:black; stroke-linecap:round; stroke-width:0.25;"/>
<line x1="546.300000" y1="44.000000" x2="546.300000" y2="44.000000"  style="stroke:black; stroke-linecap:round; stroke-width:0.25;"/>
<line x1="546.300000" y1="44.000000" x2="550.300000" y2="44.000000"  style="stroke:black; stroke-linecap:round; stroke-width:0.25;"/>
<line x1="546.300000" y1="52.000000" x2="550.300000" y2="52.000000"  style="stroke:black; stroke-linecap:round; stroke-width:0.25;"/>
<line x1="546.300000" y1="60.000000" x2="550.300000" y2="60.000000"  style="stroke:black; stroke-linecap:round; stroke-width:0.25;"/>
<line x1="546.300000" y1="68.040000" x2="546.300000" y2="72.000000"  style="stroke:black; stroke-linecap:round; stroke-width:0.25;"/>
<line x1="546.300000" y1="72.000000" x2="546.300000" y2="72.000000"  style="stroke:black; stroke-linecap:round; stroke-width:0.25;"/>
<line x1="546.300000" y1="72.000000" x2="624.800000" y2="72.000000"  style="stroke:black; stroke-linecap:round; stroke-width:0.25;"/>
<line x1="546.300000" y1="80.000000" x2="624.800000" y2="80.000000"  style="stroke:black; stroke-linecap:round; stroke-width:0.25;"/>
<line x1="624.800000" y1="32.000000" x2="703.300000" y2="32.000000"  style="stroke:black; stroke-linecap:round; stroke-width:0.25;"/>
<line x1="624.800000" y1="72.000000" x2="703.300000" y2="72.000000"  style="stroke:black; stroke-linecap:round; stroke-width:0.25;"/>
<line x1="624.800000" y1="80.000000" x2="703.300000" y2="80.000000"  style="stroke:black; stroke-linecap:round; stroke-width:0.25;"/>
<line x1="679.300000" y1="48.000000" x2="683.300000" y2="48.000000"  style="stroke:black; stroke-linecap:round; stroke-width:0.25;"/>
<line x1="679.300000" y1="56.000000" x2="683.300000" y2="56.000000"  style="stroke:black; stroke-linecap:round; stroke-width:0.25;"/>
<line x1="683.300000" y1="48.000000" x2="695.300000" y2="48.000000"  style="stroke:black; stroke-linecap:round; stroke-width:0.25;"/>
<line x1="683.300000" y1="56.000000" x2="695.300000" y2="56.000000"  style="stroke:black; stroke-linecap:round; stroke-width:0.25;"/>
<line x1="695.300000" y1="48.000000" x2="699.300000" y2="48.000000"  style="stroke:black; stroke-linecap:round; stroke-width:0.25;"/>
<line x1="695.300000" y1="56.000000" x2="699.300000" y2="56.000000"  style="stroke:black; stroke-linecap:round; stroke-width:0.25;"/>
<line x1="699.300000" y1="48.000000" x2="703.300000" y2="48.000000"  style="stroke:black; stroke-linecap:round; stroke-width:0.25;"/>
<line x1="699.300000" y1="56.000000" x2="703.300000" y2="56.000000"  style="stroke:black; stroke-linecap:round; stroke-width:0.25;"/>
<line x1="703.300000" y1="32.000000" x2="719.300000" y2="32.000000"  style="stroke:black; stroke-linecap:round; stroke-width:0.25;"/>
<line x1="703.300000" y1="48.000000" x2="719.300000" y2="48.000000"  style="stroke:black; stroke-linecap:round; stroke-width:0.25;"/>
<line x1="703.300000" y1="56.000000" x2="719.300000" y2="56.000000"  style="stroke:black; stroke-linecap:round; stroke-width:0.25;"/>
<line x1="703.300000" y1="64.000000" x2="719.300000" y2="64.000000"  style="stroke:black; stroke-linecap:round; stroke-width:0.25;"/>
<line x1="703.300000" y1="72.000000" x2="703.300000" y2="64.000000"  style="stroke:black; stroke-linecap:round; stroke-width:0.25;"/>
<line x1="703.300000" y1="72.000000" x2="703.300000" y2="72.000000"  style="stroke:black; stroke-linecap:round; stroke-width:0.25;"/>
<line x1="703.300000" y1="80.000000" x2="711.300000" y2="80.000000"  style="stroke:black; stroke-linecap:round; stroke-width:0.25;"/>
<line x1="711.300000" y1="72.000000" x2="719.300000" y2="72.000000"  style="stroke:black; stroke-linecap:round; stroke-width:0.25;"/>
<line x1="711.300000" y1="80.000000" x2="711.300000" y2="72.000000"  style="stroke:black; stroke-linecap:round; stroke-width:0.25;"/>
<line x1="719.300000" y1="32.000000" x2="719.300000" y2="40.000000"  style="stroke:black; stroke-linecap:round; stroke-width:0.25;"/>
<line x1="719.300000" y1="40.000000" x2="719.300000" y2="40.000000"  style="stroke:black; stroke-linecap:round; stroke-width:0.25;"/>
<line x1="719.300000" y1="40.000000" x2="723.300000" y2="40.000000"  style="stroke:black; stroke-linecap:round; stroke-width:0.25;"/>
<line x1="719.300000" y1="48.000000" x2="723.300000" y2="48.000000"  style="stroke:black; stroke-linecap:round; stroke-width:0.25;"/>
<line x1="719.300000" y1="56.000000" x2="723.300000" y2="56.000000"  style="stroke:black; stroke-linecap:round; stroke-width:0.25;"/>
<line x1="719.300000" y1="64.000000" x2="723.300000" y2="64.000000"  style="stroke:black; stroke-linecap:round; stroke-width:0.25;"/>
<line x1="719.300000" y1="72.000000" x2="723.300000" y2="72.000000"  style="stroke:black; stroke-linecap:round; stroke-width:0.25;"/>
<line x1="723.300000" y1="40.000000" x2="727.300000" y2="40.000000"  style="stroke:black; stroke-linecap:round; stroke-width:0.25;"/>
<line x1="723.300000" y1="48.000000" x2="727.300000" y2="48.000000"  style="stroke:black; stroke-linecap:round; stroke-width:0.25;"/>
<line x1="723.300000" y1="56.000000" x2="727.300000" y2="56.000000"  style="stroke:black; stroke-linecap:round; stroke-width:0.25;"/>
<line x1="723.300000" y1="64.000000" x2="727.300000" y2="64.000000"  style="stroke:black; stroke-linecap:round; stroke-width:0.25;"/>
<line x1="723.300000" y1="72.000000" x2="727.300000" y2="72.000000"  style="stroke:black; stroke-linecap:round; stroke-width:0.25;"/>
<line x1="727.300000" y1="40.000000" x2="737.300000" y2="40.000000"  style="stroke:black; stroke-linecap:round; stroke-width:0.25;"/>
<line x1="727.300000" y1="48.000000" x2="737.300000" y2="48.000000"  style="stroke:black; stroke-linecap:round; stroke-width:0.25;"/>
<line x1="727.300000" y1="56.000000" x2="737.300000" y2="56.000000"  style="stroke:black; stroke-linecap:round; stroke-width:0.25;"/>
<line x1="727.300000" y1="64.000000" x2="737.300000" y2="64.000000"  style="stroke:black; stroke-linecap:round; stroke-width:0.25;"/>
<line x1="727.300000" y1="72.000000" x2="737.300000" y2="72.000000"  style="stroke:black; stroke-linecap:round; stroke-width:0.25;"/>
</svg>
