<?xml version="1.0"?>
<svg xmlns="http://www.w3.org/2000/svg" xmlns:xlink="http://www.w3.org/1999/xlink" viewBox="0 0 402.000000 112.000000" width="201.000000mm" height="56.000000mm" version="1.1">
<a xlink:href="repeat-0x7f9e3c20cd90.svg">
<rect x="1.000000" y="1.000000" width="401.000000" height="111.000000" rx="0" ry="0" style="stroke:none;fill:#cccccc;"/>
<rect x="0.000000" y="0.000000" width="401.000000" height="111.000000" rx="0" ry="0" style="stroke:none;fill:#ffffff;"/>
</a>
<text x="10.000000" y="7.000000" font-family="Arial" font-size="7"></text>
<rect x="25.000000" y="29.000000" width="24.000000" height="24.000000" rx="0" ry="0" style="stroke:none;fill:#cccccc;"/>
<rect x="24.000000" y="28.000000" width="24.000000" height="24.000000" rx="0" ry="0" style="stroke:none;fill:#f44800;"/>
<text x="36.000000" y="42.000000" font-family="Arial" font-size="7" text-anchor="middle" fill="#FFFFFF">1</text>
<circle cx="26.000000" cy="30.000000" r="1"/>
<a xlink:href="c-0x7f9e3c208720.svg">
<rect x="25.000000" y="61.000000" width="24.000000" height="24.000000" rx="0" ry="0" style="stroke:none;fill:#cccccc;"/>
<rect x="24.000000" y="60.000000" width="24.000000" height="24.000000" rx="0" ry="0" style="stroke:none;fill:#003366;"/>
</a>
<a xlink:href="c-0x7f9e3c208720.svg">
<text x="36.000000" y="74.000000" font-family="Arial" font-size="7" text-anchor="middle" fill="#FFFFFF">c</text>
</a>
<circle cx="26.000000" cy="62.000000" r="1"/>
<rect x="65.000000" y="45.000000" width="24.000000" height="24.000000" rx="0" ry="0" style="stroke:none;fill:#cccccc;"/>
<rect x="64.000000" y="44.000000" width="24.000000" height="24.000000" rx="0" ry="0" style="stroke:none;fill:#4B71A1;"/>
<text x="76.000000" y="58.000000" font-family="Arial" font-size="7" text-anchor="middle" fill="#FFFFFF">*</text>
<circle cx="66.000000" cy="46.000000" r="1"/>
<line x1="61.000000" y1="51.000000" x2="64.000000" y2="52.000000"  transform="rotate(0.000000,64.000000,52.000000)" style="stroke: black; stroke-width:0.25;"/>
<line x1="61.000000" y1="53.000000" x2="64.000000" y2="52.000000"  transform="rotate(0.000000,64.000000,52.000000)" style="stroke: black; stroke-width:0.25;"/>
<line x1="61.000000" y1="59.000000" x2="64.000000" y2="60.000000"  transform="rotate(0.000000,64.000000,60.000000)" style="stroke: black; stroke-width:0.25;"/>
<line x1="61.000000" y1="61.000000" x2="64.000000" y2="60.000000"  transform="rotate(0.000000,64.000000,60.000000)" style="stroke: black; stroke-width:0.25;"/>
<rect x="131.000000" y="49.000000" width="24.000000" height="24.000000" rx="0" ry="0" style="stroke:none;fill:#cccccc;"/>
<rect x="130.000000" y="48.000000" width="24.000000" height="24.000000" rx="0" ry="0" style="stroke:none;fill:#4B71A1;"/>
<text x="142.000000" y="62.000000" font-family="Arial" font-size="7" text-anchor="middle" fill="#FFFFFF">mem</text>
<circle cx="132.000000" cy="50.000000" r="1"/>
<line x1="127.000000" y1="59.000000" x2="130.000000" y2="60.000000"  transform="rotate(0.000000,130.000000,60.000000)" style="stroke: black; stroke-width:0.25;"/>
<line x1="127.000000" y1="61.000000" x2="130.000000" y2="60.000000"  transform="rotate(0.000000,130.000000,60.000000)" style="stroke: black; stroke-width:0.25;"/>
<rect x="171.000000" y="45.000000" width="24.000000" height="24.000000" rx="0" ry="0" style="stroke:none;fill:#cccccc;"/>
<rect x="170.000000" y="44.000000" width="24.000000" height="24.000000" rx="0" ry="0" style="stroke:none;fill:#4B71A1;"/>
<text x="182.000000" y="58.000000" font-family="Arial" font-size="7" text-anchor="middle" fill="#FFFFFF">&gt;</text>
<circle cx="172.000000" cy="46.000000" r="1"/>
<line x1="167.000000" y1="51.000000" x2="170.000000" y2="52.000000"  transform="rotate(0.000000,170.000000,52.000000)" style="stroke: black; stroke-width:0.25;"/>
<line x1="167.000000" y1="53.000000" x2="170.000000" y2="52.000000"  transform="rotate(0.000000,170.000000,52.000000)" style="stroke: black; stroke-width:0.25;"/>
<line x1="167.000000" y1="59.000000" x2="170.000000" y2="60.000000"  transform="rotate(0.000000,170.000000,60.000000)" style="stroke: black; stroke-width:0.25;"/>
<line x1="167.000000" y1="61.000000" x2="170.000000" y2="60.000000"  transform="rotate(0.000000,170.000000,60.000000)" style="stroke: black; stroke-width:0.25;"/>
<rect x="239.000000" y="65.000000" width="24.000000" height="24.000000" rx="0" ry="0" style="stroke:none;fill:#cccccc;"/>
<rect x="238.000000" y="64.000000" width="24.000000" height="24.000000" rx="0" ry="0" style="stroke:none;fill:#4B71A1;"/>
<text x="250.000000" y="78.000000" font-family="Arial" font-size="7" text-anchor="middle" fill="#FFFFFF">+</text>
<circle cx="240.000000" cy="66.000000" r="1"/>
<line x1="235.000000" y1="71.000000" x2="238.000000" y2="72.000000"  transform="rotate(0.000000,238.000000,72.000000)" style="stroke: black; stroke-width:0.25;"/>
<line x1="235.000000" y1="73.000000" x2="238.000000" y2="72.000000"  transform="rotate(0.000000,238.000000,72.000000)" style="stroke: black; stroke-width:0.25;"/>
<line x1="235.000000" y1="79.000000" x2="238.000000" y2="80.000000"  transform="rotate(0.000000,238.000000,80.000000)" style="stroke: black; stroke-width:0.25;"/>
<line x1="235.000000" y1="81.000000" x2="238.000000" y2="80.000000"  transform="rotate(0.000000,238.000000,80.000000)" style="stroke: black; stroke-width:0.25;"/>
<rect x="259.000000" y="25.000000" width="24.000000" height="24.000000" rx="0" ry="0" style="stroke:none;fill:#cccccc;"/>
<rect x="258.000000" y="24.000000" width="24.000000" height="24.000000" rx="0" ry="0" style="stroke:none;fill:#f44800;"/>
<text x="270.000000" y="38.000000" font-family="Arial" font-size="7" text-anchor="middle" fill="#FFFFFF">1</text>
<circle cx="280.000000" cy="46.000000" r="1"/>
<rect x="219.000000" y="29.000000" width="24.000000" height="24.000000" rx="0" ry="0" style="stroke:none;fill:#cccccc;"/>
<rect x="218.000000" y="28.000000" width="24.000000" height="24.000000" rx="0" ry="0" style="stroke:none;fill:#4B71A1;"/>
<text x="230.000000" y="42.000000" font-family="Arial" font-size="7" text-anchor="middle" fill="#FFFFFF">*</text>
<circle cx="240.000000" cy="50.000000" r="1"/>
<line x1="245.000000" y1="43.000000" x2="242.000000" y2="44.000000"  transform="rotate(0.000000,242.000000,44.000000)" style="stroke: black; stroke-width:0.25;"/>
<line x1="245.000000" y1="45.000000" x2="242.000000" y2="44.000000"  transform="rotate(0.000000,242.000000,44.000000)" style="stroke: black; stroke-width:0.25;"/>
<line x1="245.000000" y1="35.000000" x2="242.000000" y2="36.000000"  transform="rotate(0.000000,242.000000,36.000000)" style="stroke: black; stroke-width:0.25;"/>
<line x1="245.000000" y1="37.000000" x2="242.000000" y2="36.000000"  transform="rotate(0.000000,242.000000,36.000000)" style="stroke: black; stroke-width:0.25;"/>
<line x1="284.000000" y1="76.000000" x2="284.000000" y2="72.000000"  style="stroke:black; stroke-linecap:round; stroke-width:0.25;"/>
<line x1="284.000000" y1="72.000000" x2="288.000000" y2="72.000000"  style="stroke:black; stroke-linecap:round; stroke-width:0.25;"/>
<line x1="288.000000" y1="72.000000" x2="288.000000" y2="76.000000"  style="stroke:black; stroke-linecap:round; stroke-width:0.25;"/>
<rect x="307.000000" y="49.000000" width="24.000000" height="24.000000" rx="0" ry="0" style="stroke:none;fill:#cccccc;"/>
<rect x="306.000000" y="48.000000" width="24.000000" height="24.000000" rx="0" ry="0" style="stroke:none;fill:#f44800;"/>
<text x="318.000000" y="62.000000" font-family="Arial" font-size="7" text-anchor="middle" fill="#FFFFFF">1</text>
<circle cx="308.000000" cy="50.000000" r="1"/>
<rect x="347.000000" y="45.000000" width="24.000000" height="24.000000" rx="0" ry="0" style="stroke:none;fill:#cccccc;"/>
<rect x="346.000000" y="44.000000" width="24.000000" height="24.000000" rx="0" ry="0" style="stroke:none;fill:#4B71A1;"/>
<text x="358.000000" y="58.000000" font-family="Arial" font-size="7" text-anchor="middle" fill="#FFFFFF">==</text>
<circle cx="348.000000" cy="46.000000" r="1"/>
<line x1="343.000000" y1="51.000000" x2="346.000000" y2="52.000000"  transform="rotate(0.000000,346.000000,52.000000)" style="stroke: black; stroke-width:0.25;"/>
<line x1="343.000000" y1="53.000000" x2="346.000000" y2="52.000000"  transform="rotate(0.000000,346.000000,52.000000)" style="stroke: black; stroke-width:0.25;"/>
<line x1="343.000000" y1="59.000000" x2="346.000000" y2="60.000000"  transform="rotate(0.000000,346.000000,60.000000)" style="stroke: black; stroke-width:0.25;"/>
<line x1="343.000000" y1="61.000000" x2="346.000000" y2="60.000000"  transform="rotate(0.000000,346.000000,60.000000)" style="stroke: black; stroke-width:0.25;"/>
<line x1="15.000000" y1="15.000000" x2="15.000000" y2="97.000000"  style="stroke: black; stroke-linecap:round; stroke-width:0.25; stroke-dasharray:3,3;"/>
<line x1="15.000000" y1="97.000000" x2="387.000000" y2="97.000000"  style="stroke: black; stroke-linecap:round; stroke-width:0.25; stroke-dasharray:3,3;"/>
<line x1="387.000000" y1="97.000000" x2="387.000000" y2="15.000000"  style="stroke: black; stroke-linecap:round; stroke-width:0.25; stroke-dasharray:3,3;"/>
<line x1="15.000000" y1="15.000000" x2="20.000000" y2="15.000000"  style="stroke: black; stroke-linecap:round; stroke-width:0.25; stroke-dasharray:3,3;"/>
<line x1="29.675000" y1="15.000000" x2="387.000000" y2="15.000000"  style="stroke: black; stroke-linecap:round; stroke-width:0.25; stroke-dasharray:3,3;"/>
<text x="20.000000" y="17.000000" font-family="Arial" font-size="7">r</text>
<line x1="389.000000" y1="55.000000" x2="392.000000" y2="56.000000"  transform="rotate(0.000000,392.000000,56.000000)" style="stroke: black; stroke-width:0.25;"/>
<line x1="389.000000" y1="57.000000" x2="392.000000" y2="56.000000"  transform="rotate(0.000000,392.000000,56.000000)" style="stroke: black; stroke-width:0.25;"/>
<line x1="48.000000" y1="40.000000" x2="52.000000" y2="40.000000"  style="stroke:black; stroke-linecap:round; stroke-width:0.25;"/>
<line x1="48.000000" y1="72.000000" x2="52.000000" y2="72.000000"  style="stroke:black; stroke-linecap:round; stroke-width:0.25;"/>
<line x1="52.000000" y1="40.000000" x2="60.000000" y2="40.000000"  style="stroke:black; stroke-linecap:round; stroke-width:0.25;"/>
<line x1="52.000000" y1="60.000000" x2="60.000000" y2="60.000000"  style="stroke:black; stroke-linecap:round; stroke-width:0.25;"/>
<line x1="52.000000" y1="72.000000" x2="52.000000" y2="60.000000"  style="stroke:black; stroke-linecap:round; stroke-width:0.25;"/>
<line x1="52.000000" y1="72.000000" x2="52.000000" y2="72.000000"  style="stroke:black; stroke-linecap:round; stroke-width:0.25;"/>
<line x1="60.000000" y1="40.000000" x2="60.000000" y2="52.000000"  style="stroke:black; stroke-linecap:round; stroke-width:0.25;"/>
<line x1="60.000000" y1="52.000000" x2="60.000000" y2="52.000000"  style="stroke:black; stroke-linecap:round; stroke-width:0.25;"/>
<line x1="60.000000" y1="52.000000" x2="64.000000" y2="52.000000"  style="stroke:black; stroke-linecap:round; stroke-width:0.25;"/>
<line x1="60.000000" y1="60.000000" x2="64.000000" y2="60.000000"  style="stroke:black; stroke-linecap:round; stroke-width:0.25;"/>
<line x1="88.000000" y1="56.000000" x2="92.000000" y2="56.000000"  style="stroke:black; stroke-linecap:round; stroke-width:0.25;"/>
<line x1="92.000000" y1="56.000000" x2="126.000000" y2="40.000000"  style="stroke:black; stroke-linecap:round; stroke-width:0.25;"/>
<line x1="92.000000" y1="56.000000" x2="126.000000" y2="60.000000"  style="stroke:black; stroke-linecap:round; stroke-width:0.25;"/>
<line x1="126.000000" y1="40.000000" x2="142.000000" y2="40.000000"  style="stroke:black; stroke-linecap:round; stroke-width:0.25;"/>
<line x1="126.000000" y1="60.000000" x2="130.000000" y2="60.000000"  style="stroke:black; stroke-linecap:round; stroke-width:0.25;"/>
<line x1="142.000000" y1="40.000000" x2="158.000000" y2="40.000000"  style="stroke:black; stroke-linecap:round; stroke-width:0.25;"/>
<line x1="154.000000" y1="60.000000" x2="158.000000" y2="60.000000"  style="stroke:black; stroke-linecap:round; stroke-width:0.25;"/>
<line x1="158.000000" y1="40.000000" x2="166.000000" y2="40.000000"  style="stroke:black; stroke-linecap:round; stroke-width:0.25;"/>
<line x1="158.000000" y1="60.000000" x2="166.000000" y2="60.000000"  style="stroke:black; stroke-linecap:round; stroke-width:0.25;"/>
<line x1="166.000000" y1="40.000000" x2="166.000000" y2="52.000000"  style="stroke:black; stroke-linecap:round; stroke-width:0.25;"/>
<line x1="166.000000" y1="52.000000" x2="166.000000" y2="52.000000"  style="stroke:black; stroke-linecap:round; stroke-width:0.25;"/>
<line x1="166.000000" y1="52.000000" x2="170.000000" y2="52.000000"  style="stroke:black; stroke-linecap:round; stroke-width:0.25;"/>
<line x1="166.000000" y1="60.000000" x2="170.000000" y2="60.000000"  style="stroke:black; stroke-linecap:round; stroke-width:0.25;"/>
<line x1="194.000000" y1="56.000000" x2="198.000000" y2="56.000000"  style="stroke:black; stroke-linecap:round; stroke-width:0.25;"/>
<line x1="198.000000" y1="56.000000" x2="206.000000" y2="56.000000"  style="stroke:black; stroke-linecap:round; stroke-width:0.25;"/>
<line x1="206.000000" y1="56.000000" x2="206.000000" y2="80.000000"  style="stroke:black; stroke-linecap:round; stroke-width:0.25;"/>
<line x1="206.000000" y1="80.000000" x2="206.000000" y2="80.000000"  style="stroke:black; stroke-linecap:round; stroke-width:0.25;"/>
<line x1="206.000000" y1="80.000000" x2="214.000000" y2="80.000000"  style="stroke:black; stroke-linecap:round; stroke-width:0.25;"/>
<line x1="214.000000" y1="40.000000" x2="214.000000" y2="40.000000"  style="stroke:black; stroke-linecap:round; stroke-width:0.25;"/>
<line x1="214.000000" y1="40.000000" x2="214.000000" y2="72.000000"  style="stroke:black; stroke-linecap:round; stroke-width:0.25;"/>
<line x1="214.000000" y1="72.000000" x2="214.000000" y2="72.000000"  style="stroke:black; stroke-linecap:round; stroke-width:0.25;"/>
<line x1="214.000000" y1="72.000000" x2="234.000000" y2="72.000000"  style="stroke:black; stroke-linecap:round; stroke-width:0.25;"/>
<line x1="214.000000" y1="80.000000" x2="234.000000" y2="80.000000"  style="stroke:black; stroke-linecap:round; stroke-width:0.25;"/>
<line x1="218.000000" y1="40.000000" x2="214.000000" y2="40.000000"  style="stroke:black; stroke-linecap:round; stroke-width:0.25;"/>
<line x1="234.000000" y1="72.000000" x2="238.000000" y2="72.000000"  style="stroke:black; stroke-linecap:round; stroke-width:0.25;"/>
<line x1="234.000000" y1="80.000000" x2="238.000000" y2="80.000000"  style="stroke:black; stroke-linecap:round; stroke-width:0.25;"/>
<line x1="246.000000" y1="36.000000" x2="242.000000" y2="36.000000"  style="stroke:black; stroke-linecap:round; stroke-width:0.25;"/>
<line x1="246.000000" y1="44.000000" x2="242.000000" y2="44.000000"  style="stroke:black; stroke-linecap:round; stroke-width:0.25;"/>
<line x1="246.000000" y1="44.000000" x2="246.000000" y2="44.000000"  style="stroke:black; stroke-linecap:round; stroke-width:0.25;"/>
<line x1="246.000000" y1="56.000000" x2="246.000000" y2="44.000000"  style="stroke:black; stroke-linecap:round; stroke-width:0.25;"/>
<line x1="254.000000" y1="36.000000" x2="246.000000" y2="36.000000"  style="stroke:black; stroke-linecap:round; stroke-width:0.25;"/>
<line x1="254.000000" y1="56.000000" x2="246.000000" y2="56.000000"  style="stroke:black; stroke-linecap:round; stroke-width:0.25;"/>
<line x1="258.000000" y1="36.000000" x2="254.000000" y2="36.000000"  style="stroke:black; stroke-linecap:round; stroke-width:0.25;"/>
<line x1="262.000000" y1="76.000000" x2="266.000000" y2="76.000000"  style="stroke:black; stroke-linecap:round; stroke-width:0.25;"/>
<line x1="266.000000" y1="76.000000" x2="286.000000" y2="76.000000"  style="stroke:black; stroke-linecap:round; stroke-width:0.25;"/>
<line x1="270.000000" y1="56.000000" x2="254.000000" y2="56.000000"  style="stroke:black; stroke-linecap:round; stroke-width:0.25;"/>
<line x1="286.000000" y1="56.000000" x2="270.000000" y2="56.000000"  style="stroke:black; stroke-linecap:round; stroke-width:0.25;"/>
<line x1="286.000000" y1="56.000000" x2="286.000000" y2="56.000000"  style="stroke:black; stroke-linecap:round; stroke-width:0.25;"/>
<line x1="286.000000" y1="72.000000" x2="286.000000" y2="56.000000"  style="stroke:black; stroke-linecap:round; stroke-width:0.25;"/>
<line x1="286.000000" y1="76.000000" x2="288.000000" y2="76.000000"  style="stroke:black; stroke-linecap:round; stroke-width:0.25;"/>
<line x1="288.000000" y1="76.000000" x2="294.000000" y2="76.000000"  style="stroke:black; stroke-linecap:round; stroke-width:0.25;"/>
<line x1="294.000000" y1="40.000000" x2="302.000000" y2="40.000000"  style="stroke:black; stroke-linecap:round; stroke-width:0.25;"/>
<line x1="294.000000" y1="76.000000" x2="294.000000" y2="40.000000"  style="stroke:black; stroke-linecap:round; stroke-width:0.25;"/>
<line x1="294.000000" y1="76.000000" x2="294.000000" y2="76.000000"  style="stroke:black; stroke-linecap:round; stroke-width:0.25;"/>
<line x1="302.000000" y1="40.000000" x2="318.000000" y2="40.000000"  style="stroke:black; stroke-linecap:round; stroke-width:0.25;"/>
<line x1="318.000000" y1="40.000000" x2="334.000000" y2="40.000000"  style="stroke:black; stroke-linecap:round; stroke-width:0.25;"/>
<line x1="330.000000" y1="60.000000" x2="334.000000" y2="60.000000"  style="stroke:black; stroke-linecap:round; stroke-width:0.25;"/>
<line x1="334.000000" y1="40.000000" x2="342.000000" y2="40.000000"  style="stroke:black; stroke-linecap:round; stroke-width:0.25;"/>
<line x1="334.000000" y1="60.000000" x2="342.000000" y2="60.000000"  style="stroke:black; stroke-linecap:round; stroke-width:0.25;"/>
<line x1="342.000000" y1="40.000000" x2="342.000000" y2="52.000000"  style="stroke:black; stroke-linecap:round; stroke-width:0.25;"/>
<line x1="342.000000" y1="52.000000" x2="342.000000" y2="52.000000"  style="stroke:black; stroke-linecap:round; stroke-width:0.25;"/>
<line x1="342.000000" y1="52.000000" x2="346.000000" y2="52.000000"  style="stroke:black; stroke-linecap:round; stroke-width:0.25;"/>
<line x1="342.000000" y1="60.000000" x2="346.000000" y2="60.000000"  style="stroke:black; stroke-linecap:round; stroke-width:0.25;"/>
<line x1="370.000000" y1="56.000000" x2="374.000000" y2="56.000000"  style="stroke:black; stroke-linecap:round; stroke-width:0.25;"/>
<line x1="374.000000" y1="56.000000" x2="374.000000" y2="56.000000"  style="stroke:black; stroke-linecap:round; stroke-width:0.25;"/>
<line x1="374.000000" y1="56.000000" x2="378.000000" y2="56.000000"  style="stroke:black; stroke-linecap:round; stroke-width:0.25;"/>
<line x1="378.000000" y1="56.000000" x2="382.000000" y2="56.000000"  style="stroke:black; stroke-linecap:round; stroke-width:0.25;"/>
<line x1="382.000000" y1="56.000000" x2="392.000000" y2="56.000000"  style="stroke:black; stroke-linecap:round; stroke-width:0.25;"/>
</svg>
