<?xml version="1.0"?>
<svg xmlns="http://www.w3.org/2000/svg" xmlns:xlink="http://www.w3.org/1999/xlink" viewBox="0 0 518.400000 112.000000" width="259.200000mm" height="56.000000mm" version="1.1">
<a xlink:href="pilot-0x7f9e3c20da00.svg">
<rect x="1.000000" y="1.000000" width="517.400000" height="111.000000" rx="0" ry="0" style="stroke:none;fill:#cccccc;"/>
<rect x="0.000000" y="0.000000" width="517.400000" height="111.000000" rx="0" ry="0" style="stroke:none;fill:#ffffff;"/>
</a>
<text x="10.000000" y="7.000000" font-family="Arial" font-size="7"></text>
<rect x="71.000000" y="45.000000" width="206.400000" height="24.000000" rx="0" ry="0" style="stroke:none;fill:#cccccc;"/>
<rect x="70.000000" y="44.000000" width="206.400000" height="24.000000" rx="0" ry="0" style="stroke:none;fill:#477881;"/>
<text x="173.200000" y="58.000000" font-family="Arial" font-size="7" text-anchor="middle" fill="#FFFFFF">hslider(pilotlength, 17.0f, 0.0f, 20.0f, 1.0f)</text>
<circle cx="72.000000" cy="46.000000" r="1"/>
<line x1="61.000000" y1="35.000000" x2="61.000000" y2="77.000000"  style="stroke: black; stroke-linecap:round; stroke-width:0.25; stroke-dasharray:3,3;"/>
<line x1="61.000000" y1="77.000000" x2="285.400000" y2="77.000000"  style="stroke: black; stroke-linecap:round; stroke-width:0.25; stroke-dasharray:3,3;"/>
<line x1="285.400000" y1="77.000000" x2="285.400000" y2="35.000000"  style="stroke: black; stroke-linecap:round; stroke-width:0.25; stroke-dasharray:3,3;"/>
<line x1="61.000000" y1="35.000000" x2="66.000000" y2="35.000000"  style="stroke: black; stroke-linecap:round; stroke-width:0.25; stroke-dasharray:3,3;"/>
<line x1="111.150000" y1="35.000000" x2="285.400000" y2="35.000000"  style="stroke: black; stroke-linecap:round; stroke-width:0.25; stroke-dasharray:3,3;"/>
<text x="66.000000" y="37.000000" font-family="Arial" font-size="7">pilot_length</text>
<rect x="303.400000" y="41.000000" width="24.000000" height="24.000000" rx="0" ry="0" style="stroke:none;fill:#cccccc;"/>
<rect x="302.400000" y="40.000000" width="24.000000" height="24.000000" rx="0" ry="0" style="stroke:none;fill:#4B71A1;"/>
<text x="314.400000" y="54.000000" font-family="Arial" font-size="7" text-anchor="middle" fill="#FFFFFF">&lt;</text>
<circle cx="304.400000" cy="42.000000" r="1"/>
<line x1="299.400000" y1="47.000000" x2="302.400000" y2="48.000000"  transform="rotate(0.000000,302.400000,48.000000)" style="stroke: black; stroke-width:0.25;"/>
<line x1="299.400000" y1="49.000000" x2="302.400000" y2="48.000000"  transform="rotate(0.000000,302.400000,48.000000)" style="stroke: black; stroke-width:0.25;"/>
<line x1="299.400000" y1="55.000000" x2="302.400000" y2="56.000000"  transform="rotate(0.000000,302.400000,56.000000)" style="stroke: black; stroke-width:0.25;"/>
<line x1="299.400000" y1="57.000000" x2="302.400000" y2="56.000000"  transform="rotate(0.000000,302.400000,56.000000)" style="stroke: black; stroke-width:0.25;"/>
<rect x="343.400000" y="45.000000" width="24.000000" height="24.000000" rx="0" ry="0" style="stroke:none;fill:#cccccc;"/>
<rect x="342.400000" y="44.000000" width="24.000000" height="24.000000" rx="0" ry="0" style="stroke:none;fill:#4B71A1;"/>
<text x="354.400000" y="58.000000" font-family="Arial" font-size="7" text-anchor="middle" fill="#FFFFFF">*</text>
<circle cx="344.400000" cy="46.000000" r="1"/>
<line x1="339.400000" y1="51.000000" x2="342.400000" y2="52.000000"  transform="rotate(0.000000,342.400000,52.000000)" style="stroke: black; stroke-width:0.25;"/>
<line x1="339.400000" y1="53.000000" x2="342.400000" y2="52.000000"  transform="rotate(0.000000,342.400000,52.000000)" style="stroke: black; stroke-width:0.25;"/>
<line x1="339.400000" y1="59.000000" x2="342.400000" y2="60.000000"  transform="rotate(0.000000,342.400000,60.000000)" style="stroke: black; stroke-width:0.25;"/>
<line x1="339.400000" y1="61.000000" x2="342.400000" y2="60.000000"  transform="rotate(0.000000,342.400000,60.000000)" style="stroke: black; stroke-width:0.25;"/>
<rect x="383.400000" y="33.000000" width="24.000000" height="24.000000" rx="0" ry="0" style="stroke:none;fill:#cccccc;"/>
<rect x="382.400000" y="32.000000" width="24.000000" height="24.000000" rx="0" ry="0" style="stroke:none;fill:#f44800;"/>
<text x="394.400000" y="46.000000" font-family="Arial" font-size="7" text-anchor="middle" fill="#FFFFFF">1</text>
<circle cx="384.400000" cy="34.000000" r="1"/>
<a xlink:href="r-0x7f9e3c20bc80.svg">
<rect x="383.400000" y="65.000000" width="24.000000" height="24.000000" rx="0" ry="0" style="stroke:none;fill:#cccccc;"/>
<rect x="382.400000" y="64.000000" width="24.000000" height="24.000000" rx="0" ry="0" style="stroke:none;fill:#003366;"/>
</a>
<a xlink:href="r-0x7f9e3c20bc80.svg">
<text x="394.400000" y="78.000000" font-family="Arial" font-size="7" text-anchor="middle" fill="#FFFFFF">r</text>
</a>
<circle cx="384.400000" cy="66.000000" r="1"/>
<rect x="423.400000" y="49.000000" width="24.000000" height="24.000000" rx="0" ry="0" style="stroke:none;fill:#cccccc;"/>
<rect x="422.400000" y="48.000000" width="24.000000" height="24.000000" rx="0" ry="0" style="stroke:none;fill:#4B71A1;"/>
<text x="434.400000" y="62.000000" font-family="Arial" font-size="7" text-anchor="middle" fill="#FFFFFF">-</text>
<circle cx="424.400000" cy="50.000000" r="1"/>
<line x1="419.400000" y1="55.000000" x2="422.400000" y2="56.000000"  transform="rotate(0.000000,422.400000,56.000000)" style="stroke: black; stroke-width:0.25;"/>
<line x1="419.400000" y1="57.000000" x2="422.400000" y2="56.000000"  transform="rotate(0.000000,422.400000,56.000000)" style="stroke: black; stroke-width:0.25;"/>
<line x1="419.400000" y1="63.000000" x2="422.400000" y2="64.000000"  transform="rotate(0.000000,422.400000,64.000000)" style="stroke: black; stroke-width:0.25;"/>
<line x1="419.400000" y1="65.000000" x2="422.400000" y2="64.000000"  transform="rotate(0.000000,422.400000,64.000000)" style="stroke: black; stroke-width:0.25;"/>
<rect x="463.400000" y="45.000000" width="24.000000" height="24.000000" rx="0" ry="0" style="stroke:none;fill:#cccccc;"/>
<rect x="462.400000" y="44.000000" width="24.000000" height="24.000000" rx="0" ry="0" style="stroke:none;fill:#4B71A1;"/>
<text x="474.400000" y="58.000000" font-family="Arial" font-size="7" text-anchor="middle" fill="#FFFFFF">*</text>
<circle cx="464.400000" cy="46.000000" r="1"/>
<line x1="459.400000" y1="51.000000" x2="462.400000" y2="52.000000"  transform="rotate(0.000000,462.400000,52.000000)" style="stroke: black; stroke-width:0.25;"/>
<line x1="459.400000" y1="53.000000" x2="462.400000" y2="52.000000"  transform="rotate(0.000000,462.400000,52.000000)" style="stroke: black; stroke-width:0.25;"/>
<line x1="459.400000" y1="59.000000" x2="462.400000" y2="60.000000"  transform="rotate(0.000000,462.400000,60.000000)" style="stroke: black; stroke-width:0.25;"/>
<line x1="459.400000" y1="61.000000" x2="462.400000" y2="60.000000"  transform="rotate(0.000000,462.400000,60.000000)" style="stroke: black; stroke-width:0.25;"/>
<line x1="15.000000" y1="15.000000" x2="15.000000" y2="97.000000"  style="stroke: black; stroke-linecap:round; stroke-width:0.25; stroke-dasharray:3,3;"/>
<line x1="15.000000" y1="97.000000" x2="503.400000" y2="97.000000"  style="stroke: black; stroke-linecap:round; stroke-width:0.25; stroke-dasharray:3,3;"/>
<line x1="503.400000" y1="97.000000" x2="503.400000" y2="15.000000"  style="stroke: black; stroke-linecap:round; stroke-width:0.25; stroke-dasharray:3,3;"/>
<line x1="15.000000" y1="15.000000" x2="20.000000" y2="15.000000"  style="stroke: black; stroke-linecap:round; stroke-width:0.25; stroke-dasharray:3,3;"/>
<line x1="45.800000" y1="15.000000" x2="503.400000" y2="15.000000"  style="stroke: black; stroke-linecap:round; stroke-width:0.25; stroke-dasharray:3,3;"/>
<text x="20.000000" y="17.000000" font-family="Arial" font-size="7">repeat</text>
<line x1="505.400000" y1="55.000000" x2="508.400000" y2="56.000000"  transform="rotate(0.000000,508.400000,56.000000)" style="stroke: black; stroke-width:0.25;"/>
<line x1="505.400000" y1="57.000000" x2="508.400000" y2="56.000000"  transform="rotate(0.000000,508.400000,56.000000)" style="stroke: black; stroke-width:0.25;"/>
<line x1="10.000000" y1="56.000000" x2="20.000000" y2="56.000000"  style="stroke:black; stroke-linecap:round; stroke-width:0.25;"/>
<line x1="20.000000" y1="56.000000" x2="24.000000" y2="56.000000"  style="stroke:black; stroke-linecap:round; stroke-width:0.25;"/>
<line x1="24.000000" y1="56.000000" x2="28.000000" y2="56.000000"  style="stroke:black; stroke-linecap:round; stroke-width:0.25;"/>
<line x1="28.000000" y1="56.000000" x2="28.000000" y2="56.000000"  style="stroke:black; stroke-linecap:round; stroke-width:0.25;"/>
<line x1="28.000000" y1="56.000000" x2="32.000000" y2="56.000000"  style="stroke:black; stroke-linecap:round; stroke-width:0.25;"/>
<line x1="32.000000" y1="56.000000" x2="36.000000" y2="56.000000"  style="stroke:black; stroke-linecap:round; stroke-width:0.25;"/>
<line x1="36.000000" y1="56.000000" x2="56.000000" y2="26.000000"  style="stroke:black; stroke-linecap:round; stroke-width:0.25;"/>
<line x1="36.000000" y1="56.000000" x2="56.000000" y2="86.000000"  style="stroke:black; stroke-linecap:round; stroke-width:0.25;"/>
<line x1="56.000000" y1="26.000000" x2="173.200000" y2="26.000000"  style="stroke:black; stroke-linecap:round; stroke-width:0.25;"/>
<line x1="56.000000" y1="86.000000" x2="193.200000" y2="86.000000"  style="stroke:black; stroke-linecap:round; stroke-width:0.25;"/>
<line x1="173.200000" y1="26.000000" x2="290.400000" y2="26.000000"  style="stroke:black; stroke-linecap:round; stroke-width:0.25;"/>
<line x1="193.200000" y1="86.000000" x2="330.400000" y2="86.000000"  style="stroke:black; stroke-linecap:round; stroke-width:0.25;"/>
<line x1="276.400000" y1="56.000000" x2="280.400000" y2="56.000000"  style="stroke:black; stroke-linecap:round; stroke-width:0.25;"/>
<line x1="280.400000" y1="56.000000" x2="290.400000" y2="56.000000"  style="stroke:black; stroke-linecap:round; stroke-width:0.25;"/>
<line x1="290.400000" y1="26.000000" x2="298.400000" y2="26.000000"  style="stroke:black; stroke-linecap:round; stroke-width:0.25;"/>
<line x1="290.400000" y1="56.000000" x2="298.400000" y2="56.000000"  style="stroke:black; stroke-linecap:round; stroke-width:0.25;"/>
<line x1="298.400000" y1="26.000000" x2="298.400000" y2="48.000000"  style="stroke:black; stroke-linecap:round; stroke-width:0.25;"/>
<line x1="298.400000" y1="48.000000" x2="298.400000" y2="48.000000"  style="stroke:black; stroke-linecap:round; stroke-width:0.25;"/>
<line x1="298.400000" y1="48.000000" x2="302.400000" y2="48.000000"  style="stroke:black; stroke-linecap:round; stroke-width:0.25;"/>
<line x1="298.400000" y1="56.000000" x2="302.400000" y2="56.000000"  style="stroke:black; stroke-linecap:round; stroke-width:0.25;"/>
<line x1="326.400000" y1="52.000000" x2="330.400000" y2="52.000000"  style="stroke:black; stroke-linecap:round; stroke-width:0.25;"/>
<line x1="330.400000" y1="52.000000" x2="338.400000" y2="52.000000"  style="stroke:black; stroke-linecap:round; stroke-width:0.25;"/>
<line x1="330.400000" y1="60.000000" x2="338.400000" y2="60.000000"  style="stroke:black; stroke-linecap:round; stroke-width:0.25;"/>
<line x1="330.400000" y1="86.000000" x2="330.400000" y2="60.000000"  style="stroke:black; stroke-linecap:round; stroke-width:0.25;"/>
<line x1="330.400000" y1="86.000000" x2="330.400000" y2="86.000000"  style="stroke:black; stroke-linecap:round; stroke-width:0.25;"/>
<line x1="338.400000" y1="52.000000" x2="342.400000" y2="52.000000"  style="stroke:black; stroke-linecap:round; stroke-width:0.25;"/>
<line x1="338.400000" y1="60.000000" x2="342.400000" y2="60.000000"  style="stroke:black; stroke-linecap:round; stroke-width:0.25;"/>
<line x1="366.400000" y1="56.000000" x2="370.400000" y2="56.000000"  style="stroke:black; stroke-linecap:round; stroke-width:0.25;"/>
<line x1="370.400000" y1="24.000000" x2="378.400000" y2="24.000000"  style="stroke:black; stroke-linecap:round; stroke-width:0.25;"/>
<line x1="370.400000" y1="56.000000" x2="370.400000" y2="24.000000"  style="stroke:black; stroke-linecap:round; stroke-width:0.25;"/>
<line x1="370.400000" y1="56.000000" x2="370.400000" y2="56.000000"  style="stroke:black; stroke-linecap:round; stroke-width:0.25;"/>
<line x1="378.400000" y1="24.000000" x2="414.400000" y2="24.000000"  style="stroke:black; stroke-linecap:round; stroke-width:0.25;"/>
<line x1="406.400000" y1="44.000000" x2="410.400000" y2="44.000000"  style="stroke:black; stroke-linecap:round; stroke-width:0.25;"/>
<line x1="406.400000" y1="76.000000" x2="410.400000" y2="76.000000"  style="stroke:black; stroke-linecap:round; stroke-width:0.25;"/>
<line x1="410.400000" y1="44.000000" x2="418.400000" y2="44.000000"  style="stroke:black; stroke-linecap:round; stroke-width:0.25;"/>
<line x1="410.400000" y1="64.000000" x2="418.400000" y2="64.000000"  style="stroke:black; stroke-linecap:round; stroke-width:0.25;"/>
<line x1="410.400000" y1="76.000000" x2="410.400000" y2="64.000000"  style="stroke:black; stroke-linecap:round; stroke-width:0.25;"/>
<line x1="410.400000" y1="76.000000" x2="410.400000" y2="76.000000"  style="stroke:black; stroke-linecap:round; stroke-width:0.25;"/>
<line x1="414.400000" y1="24.000000" x2="450.400000" y2="24.000000"  style="stroke:black; stroke-linecap:round; stroke-width:0.25;"/>
<line x1="418.400000" y1="44.000000" x2="418.400000" y2="56.000000"  style="stroke:black; stroke-linecap:round; stroke-width:0.25;"/>
<line x1="418.400000" y1="56.000000" x2="418.400000" y2="56.000000"  style="stroke:black; stroke-linecap:round; stroke-width:0.25;"/>
<line x1="418.400000" y1="56.000000" x2="422.400000" y2="56.000000"  style="stroke:black; stroke-linecap:round; stroke-width:0.25;"/>
<line x1="418.400000" y1="64.000000" x2="422.400000" y2="64.000000"  style="stroke:black; stroke-linecap:round; stroke-width:0.25;"/>
<line x1="446.400000" y1="60.000000" x2="450.400000" y2="60.000000"  style="stroke:black; stroke-linecap:round; stroke-width:0.25;"/>
<line x1="450.400000" y1="24.000000" x2="458.400000" y2="24.000000"  style="stroke:black; stroke-linecap:round; stroke-width:0.25;"/>
<line x1="450.400000" y1="60.000000" x2="458.400000" y2="60.000000"  style="stroke:black; stroke-linecap:round; stroke-width:0.25;"/>
<line x1="458.400000" y1="24.000000" x2="458.400000" y2="52.000000"  style="stroke:black; stroke-linecap:round; stroke-width:0.25;"/>
<line x1="458.400000" y1="52.000000" x2="458.400000" y2="52.000000"  style="stroke:black; stroke-linecap:round; stroke-width:0.25;"/>
<line x1="458.400000" y1="52.000000" x2="462.400000" y2="52.000000"  style="stroke:black; stroke-linecap:round; stroke-width:0.25;"/>
<line x1="458.400000" y1="60.000000" x2="462.400000" y2="60.000000"  style="stroke:black; stroke-linecap:round; stroke-width:0.25;"/>
<line x1="486.400000" y1="56.000000" x2="490.400000" y2="56.000000"  style="stroke:black; stroke-linecap:round; stroke-width:0.25;"/>
<line x1="490.400000" y1="56.000000" x2="490.400000" y2="56.000000"  style="stroke:black; stroke-linecap:round; stroke-width:0.25;"/>
<line x1="490.400000" y1="56.000000" x2="494.400000" y2="56.000000"  style="stroke:black; stroke-linecap:round; stroke-width:0.25;"/>
<line x1="494.400000" y1="56.000000" x2="498.400000" y2="56.000000"  style="stroke:black; stroke-linecap:round; stroke-width:0.25;"/>
<line x1="498.400000" y1="56.000000" x2="508.400000" y2="56.000000"  style="stroke:black; stroke-linecap:round; stroke-width:0.25;"/>
</svg>
