<?xml version="1.0"?>
<svg xmlns="http://www.w3.org/2000/svg" xmlns:xlink="http://www.w3.org/1999/xlink" viewBox="0 0 193.800000 168.000000" width="96.900000mm" height="84.000000mm" version="1.1">
<a xlink:href="latch-0x7f9e3c4e1140.svg">
<rect x="1.000000" y="1.000000" width="192.800000" height="167.000000" rx="0" ry="0" style="stroke:none;fill:#cccccc;"/>
<rect x="0.000000" y="0.000000" width="192.800000" height="167.000000" rx="0" ry="0" style="stroke:none;fill:#ffffff;"/>
</a>
<text x="10.000000" y="7.000000" font-family="Arial" font-size="7"></text>
<rect x="25.000000" y="25.000000" width="25.800000" height="24.000000" rx="0" ry="0" style="stroke:none;fill:#cccccc;"/>
<rect x="24.000000" y="24.000000" width="25.800000" height="24.000000" rx="0" ry="0" style="stroke:none;fill:#47945E;"/>
<text x="36.900000" y="38.000000" font-family="Arial" font-size="7" text-anchor="middle" fill="#FFFFFF">pilot</text>
<circle cx="26.000000" cy="26.000000" r="1"/>
<rect x="58.800000" y="25.000000" width="24.000000" height="24.000000" rx="0" ry="0" style="stroke:none;fill:#cccccc;"/>
<rect x="57.800000" y="24.000000" width="24.000000" height="24.000000" rx="0" ry="0" style="stroke:none;fill:#4B71A1;"/>
<text x="69.800000" y="38.000000" font-family="Arial" font-size="7" text-anchor="middle" fill="#FFFFFF">mem</text>
<circle cx="59.800000" cy="26.000000" r="1"/>
<line x1="54.800000" y1="35.000000" x2="57.800000" y2="36.000000"  transform="rotate(0.000000,57.800000,36.000000)" style="stroke: black; stroke-width:0.25;"/>
<line x1="54.800000" y1="37.000000" x2="57.800000" y2="36.000000"  transform="rotate(0.000000,57.800000,36.000000)" style="stroke: black; stroke-width:0.25;"/>
<rect x="41.900000" y="57.000000" width="24.000000" height="24.000000" rx="0" ry="0" style="stroke:none;fill:#cccccc;"/>
<rect x="40.900000" y="56.000000" width="24.000000" height="24.000000" rx="0" ry="0" style="stroke:none;fill:#f44800;"/>
<text x="52.900000" y="70.000000" font-family="Arial" font-size="7" text-anchor="middle" fill="#FFFFFF">0</text>
<circle cx="42.900000" cy="58.000000" r="1"/>
<rect x="98.800000" y="41.000000" width="24.000000" height="24.000000" rx="0" ry="0" style="stroke:none;fill:#cccccc;"/>
<rect x="97.800000" y="40.000000" width="24.000000" height="24.000000" rx="0" ry="0" style="stroke:none;fill:#4B71A1;"/>
<text x="109.800000" y="54.000000" font-family="Arial" font-size="7" text-anchor="middle" fill="#FFFFFF">&lt;=</text>
<circle cx="99.800000" cy="42.000000" r="1"/>
<line x1="94.800000" y1="47.000000" x2="97.800000" y2="48.000000"  transform="rotate(0.000000,97.800000,48.000000)" style="stroke: black; stroke-width:0.25;"/>
<line x1="94.800000" y1="49.000000" x2="97.800000" y2="48.000000"  transform="rotate(0.000000,97.800000,48.000000)" style="stroke: black; stroke-width:0.25;"/>
<line x1="94.800000" y1="55.000000" x2="97.800000" y2="56.000000"  transform="rotate(0.000000,97.800000,56.000000)" style="stroke: black; stroke-width:0.25;"/>
<line x1="94.800000" y1="57.000000" x2="97.800000" y2="56.000000"  transform="rotate(0.000000,97.800000,56.000000)" style="stroke: black; stroke-width:0.25;"/>
<rect x="41.000000" y="89.000000" width="25.800000" height="24.000000" rx="0" ry="0" style="stroke:none;fill:#cccccc;"/>
<rect x="40.000000" y="88.000000" width="25.800000" height="24.000000" rx="0" ry="0" style="stroke:none;fill:#47945E;"/>
<text x="52.900000" y="102.000000" font-family="Arial" font-size="7" text-anchor="middle" fill="#FFFFFF">pilot</text>
<circle cx="42.000000" cy="90.000000" r="1"/>
<rect x="41.900000" y="121.000000" width="24.000000" height="24.000000" rx="0" ry="0" style="stroke:none;fill:#cccccc;"/>
<rect x="40.900000" y="120.000000" width="24.000000" height="24.000000" rx="0" ry="0" style="stroke:none;fill:#f44800;"/>
<text x="52.900000" y="134.000000" font-family="Arial" font-size="7" text-anchor="middle" fill="#FFFFFF">0</text>
<circle cx="42.900000" cy="122.000000" r="1"/>
<rect x="82.800000" y="105.000000" width="24.000000" height="24.000000" rx="0" ry="0" style="stroke:none;fill:#cccccc;"/>
<rect x="81.800000" y="104.000000" width="24.000000" height="24.000000" rx="0" ry="0" style="stroke:none;fill:#4B71A1;"/>
<text x="93.800000" y="118.000000" font-family="Arial" font-size="7" text-anchor="middle" fill="#FFFFFF">&gt;</text>
<circle cx="83.800000" cy="106.000000" r="1"/>
<line x1="78.800000" y1="111.000000" x2="81.800000" y2="112.000000"  transform="rotate(0.000000,81.800000,112.000000)" style="stroke: black; stroke-width:0.25;"/>
<line x1="78.800000" y1="113.000000" x2="81.800000" y2="112.000000"  transform="rotate(0.000000,81.800000,112.000000)" style="stroke: black; stroke-width:0.25;"/>
<line x1="78.800000" y1="119.000000" x2="81.800000" y2="120.000000"  transform="rotate(0.000000,81.800000,120.000000)" style="stroke: black; stroke-width:0.25;"/>
<line x1="78.800000" y1="121.000000" x2="81.800000" y2="120.000000"  transform="rotate(0.000000,81.800000,120.000000)" style="stroke: black; stroke-width:0.25;"/>
<rect x="138.800000" y="73.000000" width="24.000000" height="24.000000" rx="0" ry="0" style="stroke:none;fill:#cccccc;"/>
<rect x="137.800000" y="72.000000" width="24.000000" height="24.000000" rx="0" ry="0" style="stroke:none;fill:#4B71A1;"/>
<text x="149.800000" y="86.000000" font-family="Arial" font-size="7" text-anchor="middle" fill="#FFFFFF">&amp;</text>
<circle cx="139.800000" cy="74.000000" r="1"/>
<line x1="134.800000" y1="79.000000" x2="137.800000" y2="80.000000"  transform="rotate(0.000000,137.800000,80.000000)" style="stroke: black; stroke-width:0.25;"/>
<line x1="134.800000" y1="81.000000" x2="137.800000" y2="80.000000"  transform="rotate(0.000000,137.800000,80.000000)" style="stroke: black; stroke-width:0.25;"/>
<line x1="134.800000" y1="87.000000" x2="137.800000" y2="88.000000"  transform="rotate(0.000000,137.800000,88.000000)" style="stroke: black; stroke-width:0.25;"/>
<line x1="134.800000" y1="89.000000" x2="137.800000" y2="88.000000"  transform="rotate(0.000000,137.800000,88.000000)" style="stroke: black; stroke-width:0.25;"/>
<line x1="15.000000" y1="15.000000" x2="15.000000" y2="153.000000"  style="stroke: black; stroke-linecap:round; stroke-width:0.25; stroke-dasharray:3,3;"/>
<line x1="15.000000" y1="153.000000" x2="178.800000" y2="153.000000"  style="stroke: black; stroke-linecap:round; stroke-width:0.25; stroke-dasharray:3,3;"/>
<line x1="178.800000" y1="153.000000" x2="178.800000" y2="15.000000"  style="stroke: black; stroke-linecap:round; stroke-width:0.25; stroke-dasharray:3,3;"/>
<line x1="15.000000" y1="15.000000" x2="20.000000" y2="15.000000"  style="stroke: black; stroke-linecap:round; stroke-width:0.25; stroke-dasharray:3,3;"/>
<line x1="29.675000" y1="15.000000" x2="178.800000" y2="15.000000"  style="stroke: black; stroke-linecap:round; stroke-width:0.25; stroke-dasharray:3,3;"/>
<text x="20.000000" y="17.000000" font-family="Arial" font-size="7">s</text>
<line x1="180.800000" y1="83.000000" x2="183.800000" y2="84.000000"  transform="rotate(0.000000,183.800000,84.000000)" style="stroke: black; stroke-width:0.25;"/>
<line x1="180.800000" y1="85.000000" x2="183.800000" y2="84.000000"  transform="rotate(0.000000,183.800000,84.000000)" style="stroke: black; stroke-width:0.25;"/>
<line x1="49.800000" y1="36.000000" x2="53.800000" y2="36.000000"  style="stroke:black; stroke-linecap:round; stroke-width:0.25;"/>
<line x1="53.800000" y1="36.000000" x2="53.800000" y2="36.000000"  style="stroke:black; stroke-linecap:round; stroke-width:0.25;"/>
<line x1="53.800000" y1="36.000000" x2="57.800000" y2="36.000000"  style="stroke:black; stroke-linecap:round; stroke-width:0.25;"/>
<line x1="64.900000" y1="68.000000" x2="68.900000" y2="68.000000"  style="stroke:black; stroke-linecap:round; stroke-width:0.25;"/>
<line x1="64.900000" y1="132.000000" x2="68.900000" y2="132.000000"  style="stroke:black; stroke-linecap:round; stroke-width:0.25;"/>
<line x1="65.800000" y1="100.000000" x2="69.800000" y2="100.000000"  style="stroke:black; stroke-linecap:round; stroke-width:0.25;"/>
<line x1="68.900000" y1="68.000000" x2="85.800000" y2="68.000000"  style="stroke:black; stroke-linecap:round; stroke-width:0.25;"/>
<line x1="68.900000" y1="132.000000" x2="69.800000" y2="132.000000"  style="stroke:black; stroke-linecap:round; stroke-width:0.25;"/>
<line x1="69.800000" y1="100.000000" x2="77.800000" y2="100.000000"  style="stroke:black; stroke-linecap:round; stroke-width:0.25;"/>
<line x1="69.800000" y1="120.000000" x2="77.800000" y2="120.000000"  style="stroke:black; stroke-linecap:round; stroke-width:0.25;"/>
<line x1="69.800000" y1="132.000000" x2="69.800000" y2="120.000000"  style="stroke:black; stroke-linecap:round; stroke-width:0.25;"/>
<line x1="69.800000" y1="132.000000" x2="69.800000" y2="132.000000"  style="stroke:black; stroke-linecap:round; stroke-width:0.25;"/>
<line x1="77.800000" y1="100.000000" x2="77.800000" y2="112.000000"  style="stroke:black; stroke-linecap:round; stroke-width:0.25;"/>
<line x1="77.800000" y1="112.000000" x2="77.800000" y2="112.000000"  style="stroke:black; stroke-linecap:round; stroke-width:0.25;"/>
<line x1="77.800000" y1="112.000000" x2="81.800000" y2="112.000000"  style="stroke:black; stroke-linecap:round; stroke-width:0.25;"/>
<line x1="77.800000" y1="120.000000" x2="81.800000" y2="120.000000"  style="stroke:black; stroke-linecap:round; stroke-width:0.25;"/>
<line x1="81.800000" y1="36.000000" x2="85.800000" y2="36.000000"  style="stroke:black; stroke-linecap:round; stroke-width:0.25;"/>
<line x1="85.800000" y1="36.000000" x2="93.800000" y2="36.000000"  style="stroke:black; stroke-linecap:round; stroke-width:0.25;"/>
<line x1="85.800000" y1="56.000000" x2="93.800000" y2="56.000000"  style="stroke:black; stroke-linecap:round; stroke-width:0.25;"/>
<line x1="85.800000" y1="68.000000" x2="85.800000" y2="56.000000"  style="stroke:black; stroke-linecap:round; stroke-width:0.25;"/>
<line x1="85.800000" y1="68.000000" x2="85.800000" y2="68.000000"  style="stroke:black; stroke-linecap:round; stroke-width:0.25;"/>
<line x1="93.800000" y1="36.000000" x2="93.800000" y2="48.000000"  style="stroke:black; stroke-linecap:round; stroke-width:0.25;"/>
<line x1="93.800000" y1="48.000000" x2="93.800000" y2="48.000000"  style="stroke:black; stroke-linecap:round; stroke-width:0.25;"/>
<line x1="93.800000" y1="48.000000" x2="97.800000" y2="48.000000"  style="stroke:black; stroke-linecap:round; stroke-width:0.25;"/>
<line x1="93.800000" y1="56.000000" x2="97.800000" y2="56.000000"  style="stroke:black; stroke-linecap:round; stroke-width:0.25;"/>
<line x1="105.800000" y1="116.000000" x2="109.800000" y2="116.000000"  style="stroke:black; stroke-linecap:round; stroke-width:0.25;"/>
<line x1="109.800000" y1="116.000000" x2="125.800000" y2="116.000000"  style="stroke:black; stroke-linecap:round; stroke-width:0.25;"/>
<line x1="121.800000" y1="52.000000" x2="125.800000" y2="52.000000"  style="stroke:black; stroke-linecap:round; stroke-width:0.25;"/>
<line x1="125.800000" y1="52.000000" x2="133.800000" y2="52.000000"  style="stroke:black; stroke-linecap:round; stroke-width:0.25;"/>
<line x1="125.800000" y1="88.000000" x2="133.800000" y2="88.000000"  style="stroke:black; stroke-linecap:round; stroke-width:0.25;"/>
<line x1="125.800000" y1="116.000000" x2="125.800000" y2="88.000000"  style="stroke:black; stroke-linecap:round; stroke-width:0.25;"/>
<line x1="125.800000" y1="116.000000" x2="125.800000" y2="116.000000"  style="stroke:black; stroke-linecap:round; stroke-width:0.25;"/>
<line x1="133.800000" y1="52.000000" x2="133.800000" y2="80.000000"  style="stroke:black; stroke-linecap:round; stroke-width:0.25;"/>
<line x1="133.800000" y1="80.000000" x2="133.800000" y2="80.000000"  style="stroke:black; stroke-linecap:round; stroke-width:0.25;"/>
<line x1="133.800000" y1="80.000000" x2="137.800000" y2="80.000000"  style="stroke:black; stroke-linecap:round; stroke-width:0.25;"/>
<line x1="133.800000" y1="88.000000" x2="137.800000" y2="88.000000"  style="stroke:black; stroke-linecap:round; stroke-width:0.25;"/>
<line x1="161.800000" y1="84.000000" x2="165.800000" y2="84.000000"  style="stroke:black; stroke-linecap:round; stroke-width:0.25;"/>
<line x1="165.800000" y1="84.000000" x2="165.800000" y2="84.000000"  style="stroke:black; stroke-linecap:round; stroke-width:0.25;"/>
<line x1="165.800000" y1="84.000000" x2="169.800000" y2="84.000000"  style="stroke:black; stroke-linecap:round; stroke-width:0.25;"/>
<line x1="169.800000" y1="84.000000" x2="173.800000" y2="84.000000"  style="stroke:black; stroke-linecap:round; stroke-width:0.25;"/>
<line x1="173.800000" y1="84.000000" x2="183.800000" y2="84.000000"  style="stroke:black; stroke-linecap:round; stroke-width:0.25;"/>
</svg>
