<?xml version="1.0"?>
<svg xmlns="http://www.w3.org/2000/svg" xmlns:xlink="http://www.w3.org/1999/xlink" viewBox="0 0 426.900000 228.000000" width="213.450000mm" height="114.000000mm" version="1.1">
<a xlink:href="c-0x7f9e39e15bb0.svg">
<rect x="1.000000" y="1.000000" width="425.900000" height="227.000000" rx="0" ry="0" style="stroke:none;fill:#cccccc;"/>
<rect x="0.000000" y="0.000000" width="425.900000" height="227.000000" rx="0" ry="0" style="stroke:none;fill:#ffffff;"/>
</a>
<text x="10.000000" y="7.000000" font-family="Arial" font-size="7"></text>
<rect x="158.450000" y="25.000000" width="24.000000" height="24.000000" rx="0" ry="0" style="stroke:none;fill:#cccccc;"/>
<rect x="157.450000" y="24.000000" width="24.000000" height="24.000000" rx="0" ry="0" style="stroke:none;fill:#f44800;"/>
<text x="169.450000" y="38.000000" font-family="Arial" font-size="7" text-anchor="middle" fill="#FFFFFF">2</text>
<circle cx="159.450000" cy="26.000000" r="1"/>
<rect x="151.100000" y="67.000000" width="38.700000" height="24.000000" rx="0" ry="0" style="stroke:none;fill:#cccccc;"/>
<rect x="150.100000" y="66.000000" width="38.700000" height="24.000000" rx="0" ry="0" style="stroke:none;fill:#f44800;"/>
<text x="169.450000" y="80.000000" font-family="Arial" font-size="7" text-anchor="middle" fill="#FFFFFF">3.14159</text>
<circle cx="152.100000" cy="68.000000" r="1"/>
<line x1="141.100000" y1="57.000000" x2="141.100000" y2="99.000000"  style="stroke: black; stroke-linecap:round; stroke-width:0.25; stroke-dasharray:3,3;"/>
<line x1="141.100000" y1="99.000000" x2="197.800000" y2="99.000000"  style="stroke: black; stroke-linecap:round; stroke-width:0.25; stroke-dasharray:3,3;"/>
<line x1="197.800000" y1="99.000000" x2="197.800000" y2="57.000000"  style="stroke: black; stroke-linecap:round; stroke-width:0.25; stroke-dasharray:3,3;"/>
<line x1="141.100000" y1="57.000000" x2="146.100000" y2="57.000000"  style="stroke: black; stroke-linecap:round; stroke-width:0.25; stroke-dasharray:3,3;"/>
<line x1="159.000000" y1="57.000000" x2="197.800000" y2="57.000000"  style="stroke: black; stroke-linecap:round; stroke-width:0.25; stroke-dasharray:3,3;"/>
<text x="146.100000" y="59.000000" font-family="Arial" font-size="7">PI</text>
<rect x="215.800000" y="51.000000" width="24.000000" height="24.000000" rx="0" ry="0" style="stroke:none;fill:#cccccc;"/>
<rect x="214.800000" y="50.000000" width="24.000000" height="24.000000" rx="0" ry="0" style="stroke:none;fill:#4B71A1;"/>
<text x="226.800000" y="64.000000" font-family="Arial" font-size="7" text-anchor="middle" fill="#FFFFFF">*</text>
<circle cx="216.800000" cy="52.000000" r="1"/>
<line x1="211.800000" y1="57.000000" x2="214.800000" y2="58.000000"  transform="rotate(0.000000,214.800000,58.000000)" style="stroke: black; stroke-width:0.25;"/>
<line x1="211.800000" y1="59.000000" x2="214.800000" y2="58.000000"  transform="rotate(0.000000,214.800000,58.000000)" style="stroke: black; stroke-width:0.25;"/>
<line x1="211.800000" y1="65.000000" x2="214.800000" y2="66.000000"  transform="rotate(0.000000,214.800000,66.000000)" style="stroke: black; stroke-width:0.25;"/>
<line x1="211.800000" y1="67.000000" x2="214.800000" y2="66.000000"  transform="rotate(0.000000,214.800000,66.000000)" style="stroke: black; stroke-width:0.25;"/>
<rect x="47.900000" y="119.000000" width="245.100000" height="24.000000" rx="0" ry="0" style="stroke:none;fill:#cccccc;"/>
<rect x="46.900000" y="118.000000" width="245.100000" height="24.000000" rx="0" ry="0" style="stroke:none;fill:#477881;"/>
<text x="169.450000" y="132.000000" font-family="Arial" font-size="7" text-anchor="middle" fill="#FFFFFF">hslider(dem_carrier_freq, 5000.0f, 0.0f, 10000.0f, 0.01f)</text>
<circle cx="48.900000" cy="120.000000" r="1"/>
<line x1="37.900000" y1="109.000000" x2="37.900000" y2="151.000000"  style="stroke: black; stroke-linecap:round; stroke-width:0.25; stroke-dasharray:3,3;"/>
<line x1="37.900000" y1="151.000000" x2="301.000000" y2="151.000000"  style="stroke: black; stroke-linecap:round; stroke-width:0.25; stroke-dasharray:3,3;"/>
<line x1="301.000000" y1="151.000000" x2="301.000000" y2="109.000000"  style="stroke: black; stroke-linecap:round; stroke-width:0.25; stroke-dasharray:3,3;"/>
<line x1="37.900000" y1="109.000000" x2="42.900000" y2="109.000000"  style="stroke: black; stroke-linecap:round; stroke-width:0.25; stroke-dasharray:3,3;"/>
<line x1="88.050000" y1="109.000000" x2="301.000000" y2="109.000000"  style="stroke: black; stroke-linecap:round; stroke-width:0.25; stroke-dasharray:3,3;"/>
<text x="42.900000" y="111.000000" font-family="Arial" font-size="7">demcarrier_f</text>
<rect x="35.000000" y="171.000000" width="270.900000" height="24.000000" rx="0" ry="0" style="stroke:none;fill:#cccccc;"/>
<rect x="34.000000" y="170.000000" width="270.900000" height="24.000000" rx="0" ry="0" style="stroke:none;fill:#477881;"/>
<text x="169.450000" y="184.000000" font-family="Arial" font-size="7" text-anchor="middle" fill="#FFFFFF">hslider(baudrate, 296.0f, 1.0f, 10000.0f, 0.10000000000000001f)</text>
<circle cx="36.000000" cy="172.000000" r="1"/>
<line x1="25.000000" y1="161.000000" x2="25.000000" y2="203.000000"  style="stroke: black; stroke-linecap:round; stroke-width:0.25; stroke-dasharray:3,3;"/>
<line x1="25.000000" y1="203.000000" x2="313.900000" y2="203.000000"  style="stroke: black; stroke-linecap:round; stroke-width:0.25; stroke-dasharray:3,3;"/>
<line x1="313.900000" y1="203.000000" x2="313.900000" y2="161.000000"  style="stroke: black; stroke-linecap:round; stroke-width:0.25; stroke-dasharray:3,3;"/>
<line x1="25.000000" y1="161.000000" x2="30.000000" y2="161.000000"  style="stroke: black; stroke-linecap:round; stroke-width:0.25; stroke-dasharray:3,3;"/>
<line x1="62.250000" y1="161.000000" x2="313.900000" y2="161.000000"  style="stroke: black; stroke-linecap:round; stroke-width:0.25; stroke-dasharray:3,3;"/>
<text x="30.000000" y="163.000000" font-family="Arial" font-size="7">baudrate</text>
<rect x="331.900000" y="145.000000" width="24.000000" height="24.000000" rx="0" ry="0" style="stroke:none;fill:#cccccc;"/>
<rect x="330.900000" y="144.000000" width="24.000000" height="24.000000" rx="0" ry="0" style="stroke:none;fill:#4B71A1;"/>
<text x="342.900000" y="158.000000" font-family="Arial" font-size="7" text-anchor="middle" fill="#FFFFFF">+</text>
<circle cx="332.900000" cy="146.000000" r="1"/>
<line x1="327.900000" y1="151.000000" x2="330.900000" y2="152.000000"  transform="rotate(0.000000,330.900000,152.000000)" style="stroke: black; stroke-width:0.25;"/>
<line x1="327.900000" y1="153.000000" x2="330.900000" y2="152.000000"  transform="rotate(0.000000,330.900000,152.000000)" style="stroke: black; stroke-width:0.25;"/>
<line x1="327.900000" y1="159.000000" x2="330.900000" y2="160.000000"  transform="rotate(0.000000,330.900000,160.000000)" style="stroke: black; stroke-width:0.25;"/>
<line x1="327.900000" y1="161.000000" x2="330.900000" y2="160.000000"  transform="rotate(0.000000,330.900000,160.000000)" style="stroke: black; stroke-width:0.25;"/>
<rect x="371.900000" y="103.000000" width="24.000000" height="24.000000" rx="0" ry="0" style="stroke:none;fill:#cccccc;"/>
<rect x="370.900000" y="102.000000" width="24.000000" height="24.000000" rx="0" ry="0" style="stroke:none;fill:#4B71A1;"/>
<text x="382.900000" y="116.000000" font-family="Arial" font-size="7" text-anchor="middle" fill="#FFFFFF">*</text>
<circle cx="372.900000" cy="104.000000" r="1"/>
<line x1="367.900000" y1="109.000000" x2="370.900000" y2="110.000000"  transform="rotate(0.000000,370.900000,110.000000)" style="stroke: black; stroke-width:0.25;"/>
<line x1="367.900000" y1="111.000000" x2="370.900000" y2="110.000000"  transform="rotate(0.000000,370.900000,110.000000)" style="stroke: black; stroke-width:0.25;"/>
<line x1="367.900000" y1="117.000000" x2="370.900000" y2="118.000000"  transform="rotate(0.000000,370.900000,118.000000)" style="stroke: black; stroke-width:0.25;"/>
<line x1="367.900000" y1="119.000000" x2="370.900000" y2="118.000000"  transform="rotate(0.000000,370.900000,118.000000)" style="stroke: black; stroke-width:0.25;"/>
<line x1="15.000000" y1="15.000000" x2="15.000000" y2="213.000000"  style="stroke: black; stroke-linecap:round; stroke-width:0.25; stroke-dasharray:3,3;"/>
<line x1="15.000000" y1="213.000000" x2="411.900000" y2="213.000000"  style="stroke: black; stroke-linecap:round; stroke-width:0.25; stroke-dasharray:3,3;"/>
<line x1="411.900000" y1="213.000000" x2="411.900000" y2="15.000000"  style="stroke: black; stroke-linecap:round; stroke-width:0.25; stroke-dasharray:3,3;"/>
<line x1="15.000000" y1="15.000000" x2="20.000000" y2="15.000000"  style="stroke: black; stroke-linecap:round; stroke-width:0.25; stroke-dasharray:3,3;"/>
<line x1="32.900000" y1="15.000000" x2="411.900000" y2="15.000000"  style="stroke: black; stroke-linecap:round; stroke-width:0.25; stroke-dasharray:3,3;"/>
<text x="20.000000" y="17.000000" font-family="Arial" font-size="7">w1</text>
<line x1="413.900000" y1="113.000000" x2="416.900000" y2="114.000000"  transform="rotate(0.000000,416.900000,114.000000)" style="stroke: black; stroke-width:0.25;"/>
<line x1="413.900000" y1="115.000000" x2="416.900000" y2="114.000000"  transform="rotate(0.000000,416.900000,114.000000)" style="stroke: black; stroke-width:0.25;"/>
<line x1="181.450000" y1="36.000000" x2="185.450000" y2="36.000000"  style="stroke:black; stroke-linecap:round; stroke-width:0.25;"/>
<line x1="185.450000" y1="36.000000" x2="202.800000" y2="36.000000"  style="stroke:black; stroke-linecap:round; stroke-width:0.25;"/>
<line x1="188.800000" y1="78.000000" x2="192.800000" y2="78.000000"  style="stroke:black; stroke-linecap:round; stroke-width:0.25;"/>
<line x1="192.800000" y1="78.000000" x2="202.800000" y2="78.000000"  style="stroke:black; stroke-linecap:round; stroke-width:0.25;"/>
<line x1="202.800000" y1="36.000000" x2="210.800000" y2="36.000000"  style="stroke:black; stroke-linecap:round; stroke-width:0.25;"/>
<line x1="202.800000" y1="66.000000" x2="210.800000" y2="66.000000"  style="stroke:black; stroke-linecap:round; stroke-width:0.25;"/>
<line x1="202.800000" y1="78.000000" x2="202.800000" y2="66.000000"  style="stroke:black; stroke-linecap:round; stroke-width:0.25;"/>
<line x1="202.800000" y1="78.000000" x2="202.800000" y2="78.000000"  style="stroke:black; stroke-linecap:round; stroke-width:0.25;"/>
<line x1="210.800000" y1="36.000000" x2="210.800000" y2="58.000000"  style="stroke:black; stroke-linecap:round; stroke-width:0.25;"/>
<line x1="210.800000" y1="58.000000" x2="210.800000" y2="58.000000"  style="stroke:black; stroke-linecap:round; stroke-width:0.25;"/>
<line x1="210.800000" y1="58.000000" x2="214.800000" y2="58.000000"  style="stroke:black; stroke-linecap:round; stroke-width:0.25;"/>
<line x1="210.800000" y1="66.000000" x2="214.800000" y2="66.000000"  style="stroke:black; stroke-linecap:round; stroke-width:0.25;"/>
<line x1="238.800000" y1="62.000000" x2="242.800000" y2="62.000000"  style="stroke:black; stroke-linecap:round; stroke-width:0.25;"/>
<line x1="242.800000" y1="62.000000" x2="358.900000" y2="62.000000"  style="stroke:black; stroke-linecap:round; stroke-width:0.25;"/>
<line x1="292.000000" y1="130.000000" x2="296.000000" y2="130.000000"  style="stroke:black; stroke-linecap:round; stroke-width:0.25;"/>
<line x1="296.000000" y1="130.000000" x2="306.000000" y2="130.000000"  style="stroke:black; stroke-linecap:round; stroke-width:0.25;"/>
<line x1="304.900000" y1="182.000000" x2="308.900000" y2="182.000000"  style="stroke:black; stroke-linecap:round; stroke-width:0.25;"/>
<line x1="306.000000" y1="130.000000" x2="318.900000" y2="130.000000"  style="stroke:black; stroke-linecap:round; stroke-width:0.25;"/>
<line x1="308.900000" y1="182.000000" x2="318.900000" y2="182.000000"  style="stroke:black; stroke-linecap:round; stroke-width:0.25;"/>
<line x1="318.900000" y1="130.000000" x2="326.900000" y2="130.000000"  style="stroke:black; stroke-linecap:round; stroke-width:0.25;"/>
<line x1="318.900000" y1="160.000000" x2="326.900000" y2="160.000000"  style="stroke:black; stroke-linecap:round; stroke-width:0.25;"/>
<line x1="318.900000" y1="182.000000" x2="318.900000" y2="160.000000"  style="stroke:black; stroke-linecap:round; stroke-width:0.25;"/>
<line x1="318.900000" y1="182.000000" x2="318.900000" y2="182.000000"  style="stroke:black; stroke-linecap:round; stroke-width:0.25;"/>
<line x1="326.900000" y1="130.000000" x2="326.900000" y2="152.000000"  style="stroke:black; stroke-linecap:round; stroke-width:0.25;"/>
<line x1="326.900000" y1="152.000000" x2="326.900000" y2="152.000000"  style="stroke:black; stroke-linecap:round; stroke-width:0.25;"/>
<line x1="326.900000" y1="152.000000" x2="330.900000" y2="152.000000"  style="stroke:black; stroke-linecap:round; stroke-width:0.25;"/>
<line x1="326.900000" y1="160.000000" x2="330.900000" y2="160.000000"  style="stroke:black; stroke-linecap:round; stroke-width:0.25;"/>
<line x1="354.900000" y1="156.000000" x2="358.900000" y2="156.000000"  style="stroke:black; stroke-linecap:round; stroke-width:0.25;"/>
<line x1="358.900000" y1="62.000000" x2="366.900000" y2="62.000000"  style="stroke:black; stroke-linecap:round; stroke-width:0.25;"/>
<line x1="358.900000" y1="118.000000" x2="366.900000" y2="118.000000"  style="stroke:black; stroke-linecap:round; stroke-width:0.25;"/>
<line x1="358.900000" y1="156.000000" x2="358.900000" y2="118.000000"  style="stroke:black; stroke-linecap:round; stroke-width:0.25;"/>
<line x1="358.900000" y1="156.000000" x2="358.900000" y2="156.000000"  style="stroke:black; stroke-linecap:round; stroke-width:0.25;"/>
<line x1="366.900000" y1="62.000000" x2="366.900000" y2="110.000000"  style="stroke:black; stroke-linecap:round; stroke-width:0.25;"/>
<line x1="366.900000" y1="110.000000" x2="366.900000" y2="110.000000"  style="stroke:black; stroke-linecap:round; stroke-width:0.25;"/>
<line x1="366.900000" y1="110.000000" x2="370.900000" y2="110.000000"  style="stroke:black; stroke-linecap:round; stroke-width:0.25;"/>
<line x1="366.900000" y1="118.000000" x2="370.900000" y2="118.000000"  style="stroke:black; stroke-linecap:round; stroke-width:0.25;"/>
<line x1="394.900000" y1="114.000000" x2="398.900000" y2="114.000000"  style="stroke:black; stroke-linecap:round; stroke-width:0.25;"/>
<line x1="398.900000" y1="114.000000" x2="398.900000" y2="114.000000"  style="stroke:black; stroke-linecap:round; stroke-width:0.25;"/>
<line x1="398.900000" y1="114.000000" x2="402.900000" y2="114.000000"  style="stroke:black; stroke-linecap:round; stroke-width:0.25;"/>
<line x1="402.900000" y1="114.000000" x2="406.900000" y2="114.000000"  style="stroke:black; stroke-linecap:round; stroke-width:0.25;"/>
<line x1="406.900000" y1="114.000000" x2="416.900000" y2="114.000000"  style="stroke:black; stroke-linecap:round; stroke-width:0.25;"/>
</svg>
